<svg viewBox="0 0 32 32" fill="none" xmlns="http://www.w3.org/2000/svg">
<path d="M16 2C8.26719 2 2 8.26719 2 16C2 23.7328 8.26719 30 16 30C23.7328 30 30 23.7328 30 16C30 8.26719 23.7328 2 16 2ZM16 6.375C17.208 6.375 18.1875 7.35445 18.1875 8.5625C18.1875 9.77055 17.2086 10.75 16 10.75C14.7914 10.75 13.8125 9.77109 13.8125 8.5625C13.8125 7.35391 14.7914 6.375 16 6.375ZM22.4859 13.7633L19.243 14.6875C19.0406 14.7477 18.8328 14.775 18.625 14.8187V18.2269L20.3006 23.0033C20.5408 23.6869 20.181 24.4355 19.4973 24.6762C19.3523 24.7281 19.2047 24.75 19.0625 24.75C18.5208 24.75 18.013 24.4116 17.8244 23.8717L16.4107 20.008C16.2706 19.6251 15.7293 19.6251 15.5887 20.008L14.1751 23.8717C13.9875 24.4109 13.4789 24.75 12.9375 24.75C12.7931 24.75 12.647 24.7261 12.5026 24.6765C11.819 24.4355 11.4591 23.6872 11.6992 23.0036L13.375 18.2258V14.8187C13.1672 14.775 12.9594 14.7477 12.757 14.6875L9.51406 13.7633C8.81953 13.5609 8.41484 12.8391 8.61172 12.1391C8.80859 11.4391 9.54141 11.0344 10.2359 11.2367L13.4762 12.1631C15.1261 12.6347 16.875 12.6347 18.5244 12.1631L21.7646 11.2367C22.4591 11.0299 23.1876 11.4401 23.3872 12.1374C23.5852 12.8391 23.1805 13.5609 22.4859 13.7633Z" fill="currentColor"/>
</svg>
