<svg viewBox="0 0 32 32" fill="none" xmlns="http://www.w3.org/2000/svg">
<path d="M16 8.125C15.3943 8.125 14.8022 7.94539 14.2986 7.60888C13.7949 7.27236 13.4024 6.79407 13.1706 6.23447C12.9388 5.67487 12.8782 5.0591 12.9963 4.46504C13.1145 3.87097 13.4062 3.32528 13.8345 2.89699C14.2628 2.46869 14.8085 2.17701 15.4025 2.05885C15.9966 1.94068 16.6124 2.00133 17.172 2.23312C17.7316 2.46491 18.2099 2.85744 18.5464 3.36107C18.8829 3.86469 19.0625 4.4568 19.0625 5.0625C19.0616 5.87446 18.7387 6.65291 18.1646 7.22706C17.5904 7.8012 16.812 8.12413 16 8.125Z" fill="currentColor"/>
<path d="M25.625 8.16875L25.6004 8.17531L25.5774 8.18242C25.5227 8.19774 25.4681 8.21414 25.4134 8.2311C24.3956 8.52969 19.4563 9.92203 15.9765 9.92203C12.7428 9.92203 8.25024 8.71891 6.81305 8.31039C6.67002 8.25509 6.52395 8.20798 6.37555 8.1693C5.33649 7.89586 4.62555 8.95133 4.62555 9.91602C4.62555 10.8714 5.48414 11.3264 6.35094 11.6529V11.6682L11.5583 13.2946C12.0904 13.4986 12.2326 13.707 12.302 13.8874C12.5279 14.4666 12.3474 15.6134 12.2834 16.0137L11.9663 18.4746L10.2059 28.11C10.2004 28.1363 10.1955 28.163 10.1911 28.1904L10.1785 28.2598C10.0516 29.143 10.7002 30 11.9285 30C13.0004 30 13.4734 29.2601 13.6785 28.2533C13.6785 28.2533 15.2098 19.6362 15.9754 19.6362C16.741 19.6362 18.3182 28.2533 18.3182 28.2533C18.5233 29.2601 18.9963 30 20.0682 30C21.2998 30 21.9484 29.1392 21.8182 28.2533C21.8067 28.1778 21.7931 28.1034 21.7766 28.0313L19.9922 18.4757L19.6755 16.0148C19.4464 14.5814 19.6307 14.1078 19.693 13.9968C19.6947 13.9942 19.6962 13.9914 19.6974 13.9886C19.7565 13.8792 20.0255 13.6342 20.6534 13.3985L25.5359 11.6917C25.5659 11.6837 25.5954 11.6742 25.6245 11.6633C26.4995 11.3352 27.3745 10.8813 27.3745 9.91711C27.3745 8.95297 26.6641 7.89586 25.625 8.16875Z" fill="currentColor"/>
</svg>
