<svg viewBox="0 0 32 32" fill="none" xmlns="http://www.w3.org/2000/svg">
<path d="M28 4C28.3535 4.00001 28.6924 4.14068 28.9424 4.39062C29.1924 4.6406 29.3329 4.9795 29.333 5.33301V24C29.333 24.3536 29.1924 24.6923 28.9424 24.9424C28.6923 25.1924 28.3536 25.333 28 25.333H19.2666L16 30L12.7334 25.333H4C3.64639 25.333 3.30766 25.1924 3.05762 24.9424C2.80757 24.6923 2.66699 24.3536 2.66699 24V16H5.33301V22.667H14.1211L16 25.3496L17.8789 22.667H26.667V6.66699H16V4H28Z" fill="currentColor"/>
<path d="M9.5 2L11.7958 8.20423L18 10.5L11.7958 12.7958L9.5 19L7.20423 12.7958L1 10.5L7.20423 8.20423L9.5 2Z" fill="currentColor"/>
</svg>
