<svg viewBox="0 0 32 32" fill="none" xmlns="http://www.w3.org/2000/svg">
<path d="M14.0352 1.00781L13.0273 4.23242C8.11151 4.52329 4.21506 8.60023 4.21484 13.5889C4.21484 18.7665 8.41199 22.9639 13.5898 22.9639C18.7676 22.9638 22.9648 18.7665 22.9648 13.5889C22.9648 13.4036 22.9579 13.2197 22.9473 13.0371L26.2227 11.6035C26.3404 12.2934 26.4004 12.9908 26.4004 13.6953C26.4003 16.3478 25.6433 18.7478 24.1309 20.8945L30.3076 27.084C30.7697 27.5472 30.9998 28.0732 31 28.6621C31 29.294 30.7691 29.8429 30.3066 30.3057C29.8443 30.7682 29.2976 30.9993 28.668 31C28.0383 31.0007 27.4917 30.7694 27.0293 30.3057L20.8525 24.1162C18.7095 25.6317 16.3144 26.3887 13.668 26.3887C11.9035 26.3886 10.2644 26.0525 8.75195 25.3789C7.19729 24.7053 5.85269 23.8 4.71875 22.6631C3.58404 21.5685 2.68103 20.2209 2.00879 18.6211C1.33659 16.9371 1.00005 15.2951 1 13.6953C1.00003 12.0113 1.33657 10.3684 2.00879 8.76855C2.72328 7.12671 3.62662 5.7585 4.71875 4.66406C5.81102 3.56957 7.15562 2.66426 8.75195 1.94824C10.3068 1.31641 11.9458 1.00003 13.668 1C13.7906 1 13.9131 1.00461 14.0352 1.00781Z" fill="currentColor"/>
<path d="M18 0C18 0 18.4963 4.63518 20.4306 6.56942C22.3648 8.50366 27 9 27 9C27 9 22.3648 9.49634 20.4306 11.4306C18.4963 13.3648 18 18 18 18C18 18 17.5037 13.3648 15.5694 11.4306C13.6352 9.49634 9 9 9 9C9 9 13.6352 8.50366 15.5694 6.56942C17.5037 4.63519 18 0 18 0Z" fill="currentColor"/>
</svg>
