<svg viewBox="0 0 32 32" fill="none" xmlns="http://www.w3.org/2000/svg">
<path d="M12 6C12 6 12.6066 11.6652 14.9707 14.0293C17.3348 16.3934 23 17 23 17C23 17 17.3348 17.6066 14.9707 19.9707C12.6066 22.3348 12 28 12 28C12 28 11.3934 22.3348 9.0293 19.9707C6.66523 17.6066 1 17 1 17C1 17 6.66523 16.3934 9.0293 14.0293C11.3934 11.6652 12 6 12 6Z" fill="currentColor"/>
<path d="M25 18C25 18 25.2204 20.0603 26.0801 20.9199C26.9397 21.7795 29 22 29 22C29 22 26.9397 22.2205 26.0801 23.0801C25.2205 23.9397 25 26 25 26C25 26 24.7795 23.9397 23.9199 23.0801C23.0603 22.2204 21 22 21 22C21 22 23.0603 21.7796 23.9199 20.9199C24.7796 20.0603 25 18 25 18Z" fill="currentColor"/>
<path d="M23 2C23 2 23.3863 5.60501 24.8906 7.10938C26.395 8.61378 30 9 30 9C30 9 26.395 9.38622 24.8906 10.8906C23.3862 12.395 23 16 23 16C23 16 22.6138 12.395 21.1094 10.8906C19.605 9.38626 16 9 16 9C16 9 19.605 8.61378 21.1094 7.10938C22.6138 5.60497 23 2 23 2Z" fill="currentColor"/>
</svg>
