<svg viewBox="0 0 32 32" fill="none" xmlns="http://www.w3.org/2000/svg">
<path d="M30 7.43023L23.5888 2.06594L21.757 4.22526L28.1682 9.58955L30 7.43023ZM10.1781 4.15932L8.34632 2L2 7.43023L3.83178 9.58955L10.1781 4.15932ZM16.7201 10.5703H14.6267V18.8789L21.2347 22.8699L22.2814 21.1031L16.7201 17.8322V10.5703ZM16 5.00923C12.5109 5.00923 9.53436 6.23037 7.07035 8.67265C4.60635 11.1149 3.37436 14.0589 3.37436 17.5046C3.37436 20.9503 4.60635 23.8943 7.07035 26.3366C9.53436 28.7789 12.5109 30 16 30C19.4891 30 22.4656 28.7789 24.9296 26.3366C27.3936 23.8943 28.6256 20.9503 28.6256 17.5046C28.6256 14.0589 27.3936 11.1149 24.9296 8.67265C22.4656 6.23037 19.4891 5.00923 16 5.00923ZM16 27.2514C13.296 27.2514 10.9844 26.2919 9.06542 24.373C7.14642 22.4541 6.18692 20.1643 6.18692 17.5036C6.18692 14.8429 7.14642 12.5531 9.06542 10.6341C10.9844 8.71521 13.296 7.75575 16 7.75575C18.704 7.75575 21.0156 8.71521 22.9346 10.6341C24.8536 12.5531 25.8131 14.8429 25.8131 17.5036C25.8131 20.2075 24.8536 22.5081 22.9346 24.4054C21.0156 26.3027 18.704 27.2514 16 27.2514Z" fill="currentColor"/>
</svg>
