<svg viewBox="0 0 32 32" fill="none" xmlns="http://www.w3.org/2000/svg">
<path d="M17.376 23.314C17.376 23.4807 17.3133 23.6267 17.188 23.752L16.313 24.627C16.1877 24.7523 16.0417 24.815 15.875 24.815C15.6663 24.815 15.5413 24.7523 15.5 24.627L7.125 16.314C7.04167 16.1473 7 16.0013 7 15.876C7 15.7927 7.04167 15.6677 7.125 15.501L15.5 7.188C15.542 7.06267 15.667 7 15.875 7C16.0417 7 16.1877 7.06267 16.313 7.188L17.188 8.063C17.3133 8.18833 17.376 8.31333 17.376 8.438C17.376 8.60467 17.3133 8.75067 17.188 8.876L10.188 15.876L17.188 22.939C17.3133 22.981 17.376 23.106 17.376 23.314ZM24.251 23.314C24.251 23.4807 24.1883 23.6267 24.063 23.752L23.125 24.627C23.083 24.7523 22.958 24.815 22.75 24.815C22.5833 24.815 22.4373 24.7523 22.312 24.627L13.999 16.314C13.8737 16.1887 13.811 16.0427 13.811 15.876C13.811 15.7507 13.8737 15.6257 13.999 15.501L22.312 7.188C22.4373 7.06267 22.5833 7 22.75 7C22.9587 7 23.0837 7.06267 23.125 7.188L24.063 8.063C24.1883 8.18833 24.251 8.31333 24.251 8.438C24.251 8.60467 24.1883 8.75067 24.063 8.876L17 15.876L24.063 22.939C24.1883 22.981 24.251 23.106 24.251 23.314Z" fill="currentColor"/>
</svg>
