<svg viewBox="0 0 32 32" fill="none" xmlns="http://www.w3.org/2000/svg">
<path d="M24.878 22.75C24.878 22.9587 24.8153 23.0837 24.69 23.125L23.752 24.063C23.71 24.1883 23.585 24.251 23.377 24.251C23.2103 24.251 23.0643 24.1883 22.939 24.063L15.939 17L8.939 24.063C8.81367 24.1883 8.66767 24.251 8.501 24.251C8.29233 24.251 8.16733 24.1883 8.126 24.063L7.188 23.125C7.06267 23.083 7 22.958 7 22.75C7 22.5833 7.06267 22.4373 7.188 22.312L15.501 13.999C15.6263 13.8737 15.7723 13.811 15.939 13.811C16.1057 13.811 16.2517 13.8737 16.377 13.999L24.69 22.312C24.8153 22.4373 24.878 22.5833 24.878 22.75ZM24.878 15.875C24.878 16.0417 24.8153 16.1877 24.69 16.313L23.752 17.188C23.71 17.3133 23.585 17.376 23.377 17.376C23.2103 17.376 23.0643 17.3133 22.939 17.188L15.939 10.188L8.939 17.188C8.81367 17.3133 8.66767 17.376 8.501 17.376C8.29233 17.376 8.16733 17.3133 8.126 17.188L7.188 16.313C7.06267 16.1877 7 16.0417 7 15.875C7 15.6663 7.06267 15.5413 7.188 15.5L15.501 7.125C15.6677 7.04167 15.8137 7 15.939 7C16.0643 7 16.2103 7.04167 16.377 7.125L24.69 15.5C24.8153 15.542 24.878 15.667 24.878 15.875Z" fill="currentColor"/>
</svg>
