<svg viewBox="0 0 32 32" fill="none" xmlns="http://www.w3.org/2000/svg">
<path d="M24.878 15.376C24.878 15.5847 24.8153 15.7097 24.69 15.751L16.377 24.126C16.2103 24.2093 16.0643 24.251 15.939 24.251C15.8137 24.251 15.6677 24.2093 15.501 24.126L7.188 15.751C7.06267 15.709 7 15.584 7 15.376C7 15.2093 7.06267 15.0633 7.188 14.938L8.126 14.063C8.168 13.9377 8.293 13.875 8.501 13.875C8.66767 13.875 8.81367 13.9377 8.939 14.063L15.939 21.063L22.939 14.063C23.0643 13.9377 23.2103 13.875 23.377 13.875C23.5857 13.875 23.7107 13.9377 23.752 14.063L24.69 14.938C24.8153 15.0633 24.878 15.2093 24.878 15.376ZM24.878 8.501C24.878 8.66767 24.8153 8.81367 24.69 8.939L16.377 17.252C16.2517 17.3773 16.1057 17.44 15.939 17.44C15.7723 17.44 15.6263 17.3773 15.501 17.252L7.188 8.939C7.06267 8.81367 7 8.66767 7 8.501C7 8.29233 7.06267 8.16733 7.188 8.126L8.126 7.188C8.168 7.06267 8.293 7 8.501 7C8.66767 7 8.81367 7.06267 8.939 7.188L15.939 14.251L22.939 7.188C23.0643 7.06267 23.2103 7 23.377 7C23.5857 7 23.7107 7.06267 23.752 7.188L24.69 8.126C24.8153 8.168 24.878 8.293 24.878 8.501Z" fill="currentColor"/>
</svg>
