<svg viewBox="0 0 32 32" fill="none" xmlns="http://www.w3.org/2000/svg">
<path d="M21.44 15.876C21.44 16.0427 21.3773 16.1887 21.252 16.314L12.939 24.627C12.8137 24.7523 12.6677 24.815 12.501 24.815C12.3343 24.815 12.1883 24.7523 12.063 24.627L11.188 23.752C11.0627 23.6267 11 23.4807 11 23.314C11 23.1053 11.0627 22.9803 11.188 22.939L18.188 15.876L11.188 8.876C11.0627 8.75067 11 8.60467 11 8.438C11 8.31267 11.0627 8.18767 11.188 8.063L12.063 7.188C12.1883 7.06267 12.3343 7 12.501 7C12.6677 7 12.8137 7.06267 12.939 7.188L21.252 15.501C21.3773 15.6263 21.44 15.7513 21.44 15.876Z" fill="currentColor"/>
</svg>
