<svg viewBox="0 0 32 32" fill="none" xmlns="http://www.w3.org/2000/svg">
<path d="M19.5001 8.438C19.5001 8.60467 19.4374 8.75067 19.3121 8.876L12.3121 15.876L19.3121 22.939C19.4374 22.981 19.5001 23.106 19.5001 23.314C19.5001 23.4807 19.4374 23.6267 19.3121 23.752L18.4371 24.627C18.3117 24.7523 18.1657 24.815 17.9991 24.815C17.8324 24.815 17.6864 24.7523 17.5611 24.627L9.24806 16.314C9.12272 16.1887 9.06006 16.0427 9.06006 15.876C9.06006 15.7507 9.12272 15.6257 9.24806 15.501L17.5611 7.188C17.6864 7.06267 17.8324 7 17.9991 7C18.1657 7 18.3117 7.06267 18.4371 7.188L19.3121 8.063C19.4374 8.18833 19.5001 8.31333 19.5001 8.438Z" fill="currentColor"/>
</svg>
