<svg viewBox="0 0 32 32" fill="none" xmlns="http://www.w3.org/2000/svg">
<path d="M24.9381 19.876C24.9381 20.0427 24.8754 20.1887 24.7501 20.314L23.8121 21.189C23.7701 21.3143 23.6451 21.377 23.4371 21.377C23.2704 21.377 23.1244 21.3143 22.9991 21.189L15.9991 14.189L8.99906 21.189C8.87372 21.3143 8.72773 21.377 8.56106 21.377C8.35239 21.377 8.22739 21.3143 8.18606 21.189L7.24806 20.314C7.12273 20.1887 7.06006 20.0427 7.06006 19.876C7.06006 19.7507 7.12273 19.6257 7.24806 19.501L15.5611 11.188C15.6864 11.0627 15.8324 11 15.9991 11C16.1657 11 16.3117 11.0627 16.4371 11.188L24.7501 19.501C24.8754 19.6263 24.9381 19.7513 24.9381 19.876Z" fill="currentColor"/>
</svg>
