<svg viewBox="0 0 32 32" fill="none" xmlns="http://www.w3.org/2000/svg">
<path d="M17.44 15.876C17.44 16.0427 17.3773 16.1887 17.252 16.314L8.939 24.627C8.81367 24.7523 8.66767 24.815 8.501 24.815C8.29233 24.815 8.16733 24.7523 8.126 24.627L7.188 23.752C7.06267 23.6267 7 23.4807 7 23.314C7 23.1053 7.06267 22.9803 7.188 22.939L14.251 15.876L7.188 8.876C7.06267 8.75067 7 8.60467 7 8.438C7 8.31267 7.06267 8.18767 7.188 8.063L8.126 7.188C8.168 7.06267 8.293 7 8.501 7C8.66767 7 8.81367 7.06267 8.939 7.188L17.252 15.501C17.3773 15.6263 17.44 15.7513 17.44 15.876ZM24.253 15.876C24.253 16.0013 24.2113 16.1473 24.128 16.314L15.753 24.627C15.711 24.7523 15.586 24.815 15.378 24.815C15.2113 24.815 15.0653 24.7523 14.94 24.627L14.065 23.752C13.9397 23.6267 13.877 23.4807 13.877 23.314C13.877 23.1053 13.9397 22.9803 14.065 22.939L21.065 15.876L14.065 8.876C13.9397 8.75067 13.877 8.60467 13.877 8.438C13.877 8.31267 13.9397 8.18767 14.065 8.063L14.94 7.188C15.0653 7.06267 15.2113 7 15.378 7C15.5867 7 15.7117 7.06267 15.753 7.188L24.128 15.501C24.2113 15.6677 24.253 15.7927 24.253 15.876Z" fill="currentColor"/>
</svg>
