<svg viewBox="0 0 32 32" fill="none" xmlns="http://www.w3.org/2000/svg">
<path d="M24.878 12.438C24.878 12.6047 24.8153 12.7507 24.69 12.876L16.377 21.189C16.2517 21.3143 16.1057 21.377 15.939 21.377C15.7723 21.377 15.6263 21.3143 15.501 21.189L7.188 12.876C7.06267 12.7507 7 12.6047 7 12.438C7 12.3127 7.06267 12.1877 7.188 12.063L8.126 11.125C8.20933 11.0417 8.33433 11 8.501 11C8.62633 11 8.77233 11.0417 8.939 11.125L15.939 18.188L22.939 11.125C23.1057 11.0417 23.2517 11 23.377 11C23.5437 11 23.6687 11.0417 23.752 11.125L24.69 12.063C24.8153 12.1883 24.878 12.3133 24.878 12.438Z" fill="currentColor"/>
</svg>
