<svg viewBox="0 0 32 32" fill="none" xmlns="http://www.w3.org/2000/svg">
<path d="M4.31052 27.689H27.6885V12.312H4.31052V27.689ZM13.6885 15.687C13.3965 15.687 13.1464 15.8122 12.9385 16.062L12.8506 16.1431C12.659 16.3394 12.5635 16.5837 12.5635 16.8755C12.5636 17.1673 12.6886 17.4381 12.9385 17.688C13.1211 17.8706 13.3351 17.9739 13.581 17.9966L13.6885 18.0015H18.3135C18.6053 18.0014 18.8556 17.8966 19.0635 17.688C19.282 17.4694 19.4052 17.2346 19.4326 16.9839L19.4385 16.8755C19.4385 16.5839 19.3426 16.3393 19.1513 16.1431L19.0635 16.062C18.8808 15.8432 18.666 15.7201 18.4199 15.6929L18.3135 15.687V13.687C19.2004 13.6872 19.9405 14.0721 20.4726 14.6402C21.1065 15.2294 21.4385 16.0213 21.4385 16.8755C21.4383 17.805 21.018 18.5587 20.4785 19.0991L20.4795 19.1001C19.9001 19.6813 19.1421 20.0014 18.3135 20.0015H13.6885C12.859 20.0015 12.1017 19.6804 11.5234 19.1021C11.0166 18.5952 10.6164 17.8993 10.5683 17.0474L10.5635 16.8755L10.5674 16.7056C10.6079 15.9239 10.9305 15.204 11.5117 14.6558C12.0458 14.0769 12.794 13.687 13.6885 13.687V15.687ZM18.3135 13.687V15.687H13.6885V13.687H18.3135ZM3.12399 7.12745H28.875V4.31202H3.12399V7.12745ZM29.6885 28.563L29.6836 28.6851C29.6608 28.9632 29.5576 29.1939 29.375 29.3765L29.2939 29.4498C29.1259 29.5865 28.9226 29.6645 28.6846 29.6841L28.5625 29.689H3.43747L3.3154 29.6841C3.07693 29.6646 2.87333 29.5867 2.70505 29.4498L2.62399 29.3765C2.41533 29.1678 2.31052 28.8964 2.31052 28.563V11.438C2.31052 11.1048 2.41549 10.8341 2.62399 10.6255C2.83266 10.4168 3.10414 10.312 3.43747 10.312H28.5625C28.8956 10.3121 29.1664 10.4169 29.375 10.6255C29.5835 10.8341 29.6885 11.1048 29.6885 11.438V28.563ZM30.875 8.00147L30.8691 8.10987C30.8417 8.36065 30.7186 8.59533 30.5 8.81398C30.2914 9.02254 30.0206 9.12735 29.6875 9.12745H2.31247C1.97914 9.12745 1.70766 9.02264 1.49899 8.81398C1.28035 8.59533 1.15727 8.36065 1.12985 8.10987L1.12399 8.00147V3.43799C1.124 3.14609 1.24916 2.87542 1.49899 2.62549C1.64477 2.44298 1.87035 2.33977 2.17575 2.31689L2.31247 2.31201H29.6875L29.8232 2.31689C30.1286 2.33977 30.3542 2.44298 30.5 2.62549C30.7498 2.87542 30.875 3.14609 30.875 3.43799V8.00147Z" fill="currentColor"/>
</svg>
