<svg viewBox="0 0 32 32" fill="none" xmlns="http://www.w3.org/2000/svg">
<path d="M27.0079 6.375C27.4246 6.375 27.7893 6.53133 28.1019 6.844C28.4146 7.15667 28.5709 7.542 28.5709 8C28.5709 8.458 28.4146 8.833 28.1019 9.125C27.7893 9.417 27.4246 9.563 27.0079 9.563H3.81992C3.36126 9.563 2.97592 9.40667 2.66392 9.094C2.35192 8.78133 2.19559 8.41667 2.19492 8C2.19492 7.54133 2.35126 7.156 2.66392 6.844C2.97659 6.532 3.36192 6.37567 3.81992 6.375H27.0079ZM24.2579 2C24.7166 2 25.1019 2.15633 25.4139 2.469C25.7259 2.78167 25.8823 3.14633 25.8829 3.563C25.8836 3.97967 25.7169 4.35467 25.3829 4.688C25.0489 5.02133 24.6739 5.188 24.2579 5.188H7.25792C6.84126 5.188 6.46626 5.02133 6.13292 4.688C5.79959 4.35467 5.63292 3.97967 5.63292 3.563C5.63292 3.14633 5.78926 2.78167 6.10192 2.469C6.41459 2.15633 6.79992 2 7.25792 2H24.2579Z" fill="currentColor"/>
<path d="M29.7579 11.311C30.2579 11.311 30.6746 11.4893 31.0079 11.8433C31.3412 12.1972 31.5079 12.6034 31.5079 13.062V13.312L29.5079 28.7505L29.4708 28.9185C29.3705 29.3014 29.1745 29.6207 28.8829 29.8755L28.756 29.9771C28.4552 30.2003 28.1226 30.3124 27.7579 30.313H3.75791C3.39341 30.313 3.06059 30.2016 2.75986 29.9781L2.63291 29.8755C2.29968 29.5836 2.09129 29.2083 2.00791 28.7505L0.00790771 13.312C-0.034071 12.8122 0.0911085 12.3748 0.382908 11.9995C0.674885 11.6242 1.04996 11.3944 1.50791 11.311H29.7579ZM4.84678 27.313H26.67L28.3536 14.312L3.16318 14.311L4.84678 27.313Z" fill="currentColor"/>
<path d="M21.751 16V19.188L21.689 19.626C21.689 19.876 21.543 20.126 21.251 20.376C21.001 20.626 20.626 20.751 20.126 20.751H10.563C9.521 20.751 9 20.23 9 19.188V16H11.188V18.563H19.501V16H21.751Z" fill="currentColor"/>
</svg>
