<svg viewBox="0 0 32 32" fill="none" xmlns="http://www.w3.org/2000/svg">
<g clip-path="url(#clip0_154_7)">
<path fill-rule="evenodd" clip-rule="evenodd" d="M29.7578 11.3115C30.2577 11.3115 30.6745 11.4889 31.0078 11.8428C31.341 12.1967 31.5076 12.6031 31.5078 13.0615V13.3115L29.5078 28.75C29.4244 29.2087 29.2161 29.5837 28.8828 29.875C28.5494 30.1663 28.1744 30.3128 27.7578 30.3135H3.75776C3.34116 30.3134 2.96604 30.167 2.63276 29.875C2.29948 29.583 2.09108 29.208 2.00776 28.75L0.0077575 13.3115C-0.0341164 12.8118 0.0909085 12.3742 0.382758 11.999C0.674738 11.6237 1.0498 11.3939 1.50776 11.3105L29.7578 11.3115ZM8.99994 16V19.1885C9.0001 20.2302 9.52158 20.751 10.5634 20.751H20.1259C20.6259 20.751 21.0009 20.626 21.2509 20.376C21.5429 20.126 21.6894 19.876 21.6894 19.626L21.7509 19.1885V16H19.5009V18.5635H11.1884V16H8.99994Z" fill="currentColor"/>
<path d="M27.0078 6.375C27.4243 6.375 27.7889 6.53131 28.1015 6.84375C28.4142 7.15642 28.5712 7.542 28.5712 8C28.5712 8.458 28.4142 8.833 28.1015 9.125C27.7889 9.41686 27.4243 9.56348 27.0078 9.56348H3.82026C3.36159 9.56348 2.97601 9.40642 2.66401 9.09375C2.35207 8.7811 2.19592 8.41663 2.19526 8C2.19526 7.54133 2.35134 7.15575 2.66401 6.84375C2.97665 6.53186 3.36234 6.37567 3.82026 6.375H27.0078Z" fill="currentColor"/>
<path d="M24.2578 2C24.7164 2 25.102 2.15614 25.414 2.46875C25.726 2.78142 25.8821 3.14681 25.8828 3.56348C25.8833 3.97995 25.7166 4.35527 25.3828 4.68848C25.0488 5.02159 24.6736 5.18848 24.2578 5.18848H7.25776C6.84122 5.18843 6.46601 5.02166 6.13276 4.68848C5.79955 4.35527 5.63288 3.97995 5.63276 3.56348C5.63276 3.14685 5.7889 2.7814 6.10151 2.46875C6.41413 2.15612 6.79984 2.00004 7.25776 2H24.2578Z" fill="currentColor"/>
</g>
<defs>
<clipPath id="clip0_154_7">
<rect width="32" height="32" fill="white"/>
</clipPath>
</defs>
</svg>
