<svg viewBox="0 0 32 32" fill="none" xmlns="http://www.w3.org/2000/svg">
<path d="M19.438 14.875C19.438 14.5417 19.313 14.2707 19.063 14.062C18.8544 13.812 18.6044 13.687 18.313 13.687H13.688C13.396 13.687 13.146 13.812 12.938 14.062C12.688 14.2707 12.563 14.5417 12.563 14.875C12.563 15.167 12.688 15.438 12.938 15.688C13.1467 15.8967 13.3967 16.001 13.688 16.001H18.313C18.605 16.001 18.855 15.8967 19.063 15.688C19.313 15.438 19.438 15.167 19.438 14.875ZM29.688 11.438V28.563C29.688 28.8963 29.5837 29.1673 29.375 29.376C29.1664 29.5847 28.8954 29.689 28.562 29.689H3.43702C3.10369 29.689 2.83269 29.5847 2.62402 29.376C2.41536 29.1673 2.31102 28.8963 2.31102 28.563V11.438C2.31102 11.1047 2.41536 10.8337 2.62402 10.625C2.83269 10.4163 3.10369 10.312 3.43702 10.312H28.562C28.8954 10.312 29.1664 10.4163 29.375 10.625C29.5837 10.8337 29.688 11.1047 29.688 11.438ZM30.875 3.43801V8.00101C30.875 8.29301 30.75 8.56401 30.5 8.81401C30.2914 9.02268 30.0204 9.12701 29.687 9.12701H2.31202C1.97869 9.12701 1.70769 9.02268 1.49902 8.81401C1.24902 8.56401 1.12402 8.29301 1.12402 8.00101V3.43801C1.12402 3.14601 1.24902 2.87501 1.49902 2.62501C1.66569 2.41635 1.93669 2.31201 2.31202 2.31201H29.687C30.0624 2.31201 30.3334 2.41635 30.5 2.62501C30.75 2.87501 30.875 3.14601 30.875 3.43801Z" fill="currentColor"/>
</svg>
