<svg viewBox="0 0 32 32" fill="none" xmlns="http://www.w3.org/2000/svg">
<path d="M11.0012 11.3452C11.4892 10.8572 12.2806 10.8575 12.7687 11.3452C13.2569 11.8334 13.2569 12.6256 12.7687 13.1138L7.81757 18.0649H23.2004C24.7189 18.0647 25.9503 16.8335 25.9504 15.3149V5.6001C25.9504 4.90974 26.51 4.3501 27.2004 4.3501C27.8906 4.35031 28.4504 4.90987 28.4504 5.6001V15.3149C28.4503 18.2142 26.0996 20.5647 23.2004 20.5649H7.81757L12.7687 25.5161C13.2569 26.0043 13.2569 26.7955 12.7687 27.2837C12.2806 27.7717 11.4893 27.7718 11.0012 27.2837L3.9162 20.1987C3.68182 19.9644 3.55004 19.6464 3.54999 19.3149C3.54999 18.9835 3.68184 18.6656 3.9162 18.4312L11.0012 11.3452Z" fill="currentColor"/>
</svg>
