<svg viewBox="0 0 32 32" fill="none" xmlns="http://www.w3.org/2000/svg">
<path d="M19.2307 11.3452C19.7187 10.8573 20.5101 10.8574 20.9982 11.3452L28.0842 18.4312C28.3184 18.6655 28.4504 18.9836 28.4504 19.3149C28.4503 19.6463 28.3185 19.9644 28.0842 20.1987L20.9982 27.2837C20.5101 27.7718 19.7188 27.7718 19.2307 27.2837C18.7427 26.7955 18.7426 26.0042 19.2307 25.5161L24.1828 20.5649H8.79999C5.90055 20.5649 3.55009 18.2143 3.54999 15.3149V5.6001C3.54999 4.90974 4.10963 4.3501 4.79999 4.3501C5.49034 4.3501 6.04999 4.90974 6.04999 5.6001V15.3149C6.05009 16.8336 7.28127 18.0649 8.79999 18.0649H24.1828L19.2307 13.1138C18.7425 12.6256 18.7425 11.8334 19.2307 11.3452Z" fill="currentColor"/>
</svg>
