<svg viewBox="0 0 32 32" fill="none" xmlns="http://www.w3.org/2000/svg">
<path d="M13.625 27.875C14.0004 28.2084 14.4484 28.375 14.969 28.375C15.4897 28.375 15.9167 28.2084 16.25 27.875C16.6254 27.4997 16.813 27.0517 16.813 26.531C16.813 26.0104 16.6254 25.5834 16.25 25.25L8.87502 17.875H28.375C28.875 17.875 29.3127 17.6874 29.688 17.312C30.0634 16.9367 30.251 16.499 30.251 15.999C30.251 15.499 30.0634 15.0614 29.688 14.686C29.3127 14.3107 28.875 14.123 28.375 14.123H8.87502L16.25 6.74805C16.6254 6.41471 16.813 5.98771 16.813 5.46705C16.813 4.94638 16.6254 4.49838 16.25 4.12305C15.8334 3.78971 15.3957 3.62305 14.937 3.62305C14.4784 3.62305 14.0407 3.78971 13.624 4.12305L1.74902 15.998L13.625 27.875Z" fill="currentColor"/>
</svg>
