<svg viewBox="0 0 32 32" fill="none" xmlns="http://www.w3.org/2000/svg">
<path d="M20.7895 10.8H13.9474C11.7698 10.8 9.68142 11.6218 8.14165 13.0846C6.60188 14.5474 5.73684 16.5313 5.73684 18.6C5.73684 20.6687 6.60188 22.6527 8.14165 24.1154C9.68142 25.5782 11.7698 26.4 13.9474 26.4H26.2632V29H13.9474C11.0439 29 8.25944 27.9043 6.20641 25.9539C4.15338 24.0035 3 21.3583 3 18.6C3 15.8417 4.15338 13.1965 6.20641 11.2461C8.25944 9.29571 11.0439 8.2 13.9474 8.2H20.7895V3L28.5048 9.10798C28.7577 9.30816 28.7577 9.69184 28.5048 9.89202L20.7895 16V10.8Z" fill="currentColor"/>
</svg>
