<svg viewBox="0 0 32 32" fill="none" xmlns="http://www.w3.org/2000/svg">
<path d="M18.375 4.125C17.9997 3.79167 17.5517 3.625 17.031 3.625C16.5104 3.625 16.0834 3.79167 15.75 4.125C15.3747 4.50033 15.187 4.94833 15.187 5.469C15.187 5.98967 15.3747 6.41667 15.75 6.75L23.125 14.125H3.62502C3.12502 14.125 2.68736 14.3127 2.31202 14.688C1.93669 15.0633 1.74902 15.501 1.74902 16.001C1.74902 16.501 1.93669 16.9387 2.31202 17.314C2.68736 17.6893 3.12502 17.877 3.62502 17.877H23.125L15.75 25.252C15.3747 25.5853 15.187 26.0123 15.187 26.533C15.187 27.0537 15.3747 27.5017 15.75 27.877C16.0834 28.2103 16.521 28.377 17.063 28.377C17.605 28.377 18.0427 28.2103 18.376 27.877L30.251 16.002L18.375 4.125Z" fill="currentColor"/>
</svg>
