<svg viewBox="0 0 32 32" fill="none" xmlns="http://www.w3.org/2000/svg">
<path d="M27.875 18.375C28.2083 17.9997 28.375 17.5517 28.375 17.031C28.375 16.5104 28.2083 16.0834 27.875 15.75C27.4997 15.3747 27.0517 15.187 26.531 15.187C26.0103 15.187 25.5833 15.3747 25.25 15.75L17.875 23.125V3.62502C17.875 3.12502 17.6873 2.68736 17.312 2.31202C16.9367 1.93669 16.499 1.74902 15.999 1.74902C15.499 1.74902 15.0613 1.93669 14.686 2.31202C14.3107 2.68736 14.123 3.12502 14.123 3.62502V23.125L6.74799 15.75C6.41465 15.3747 5.98765 15.187 5.46699 15.187C4.94632 15.187 4.49832 15.3747 4.12299 15.75C3.78965 16.1667 3.62299 16.6044 3.62299 17.063C3.62299 17.5217 3.78965 17.9594 4.12299 18.376L15.998 30.251L27.875 18.375Z" fill="currentColor"/>
</svg>
