<svg viewBox="0 0 32 32" fill="none" xmlns="http://www.w3.org/2000/svg">
<path d="M4.125 13.625C3.79167 14.0004 3.625 14.4484 3.625 14.969C3.625 15.4897 3.79167 15.9167 4.125 16.25C4.50033 16.6254 4.94833 16.813 5.469 16.813C5.98967 16.813 6.41667 16.6254 6.75 16.25L14.125 8.87502V28.375C14.125 28.875 14.3127 29.3127 14.688 29.688C15.0633 30.0634 15.501 30.251 16.001 30.251C16.501 30.251 16.9387 30.0634 17.314 29.688C17.6893 29.3127 17.877 28.875 17.877 28.375V8.87502L25.252 16.25C25.5853 16.6254 26.0123 16.813 26.533 16.813C27.0537 16.813 27.5017 16.6254 27.877 16.25C28.2103 15.9167 28.377 15.479 28.377 14.937C28.377 14.395 28.2103 13.9574 27.877 13.624L16.002 1.74902L4.125 13.625Z" fill="currentColor"/>
</svg>
