<svg viewBox="0 0 32 32" fill="none" xmlns="http://www.w3.org/2000/svg">
<path d="M11.2105 10.8H18.0526C20.2302 10.8 22.3186 11.6218 23.8584 13.0846C25.3981 14.5474 26.2632 16.5313 26.2632 18.6C26.2632 20.6687 25.3981 22.6527 23.8584 24.1154C22.3186 25.5782 20.2302 26.4 18.0526 26.4H5.73684V29H18.0526C20.9561 29 23.7406 27.9043 25.7936 25.9539C27.8466 24.0035 29 21.3583 29 18.6C29 15.8417 27.8466 13.1965 25.7936 11.2461C23.7406 9.29571 20.9561 8.2 18.0526 8.2H11.2105V3L3.49519 9.10798C3.24233 9.30816 3.24233 9.69184 3.49519 9.89202L11.2105 16V10.8Z" fill="currentColor"/>
</svg>
