<svg viewBox="0 0 32 32" fill="none" xmlns="http://www.w3.org/2000/svg">
<path d="M3.54999 26.3998V16.6849C3.5502 13.7856 5.90062 11.4349 8.79999 11.4349H24.1828L19.2307 6.48374C18.7426 5.99561 18.7426 5.20429 19.2307 4.71616C19.7188 4.22804 20.5101 4.22811 20.9982 4.71616L28.0842 11.8011C28.3185 12.0355 28.4503 12.3535 28.4504 12.6849C28.4504 13.0163 28.3183 13.3343 28.0842 13.5687L20.9982 20.6546C20.5101 21.1426 19.7187 21.1427 19.2307 20.6546C18.7426 20.1666 18.7427 19.3752 19.2307 18.8871L24.1828 13.9349H8.79999C7.28134 13.9349 6.0502 15.1663 6.04999 16.6849V26.3998C6.04999 27.0901 5.49034 27.6498 4.79999 27.6498C4.10963 27.6498 3.54999 27.0901 3.54999 26.3998Z" fill="currentColor"/>
</svg>
