<svg viewBox="0 0 32 32" fill="none" xmlns="http://www.w3.org/2000/svg">
<path d="M25.9504 26.3997V16.6849C25.9502 15.1664 24.7189 13.9351 23.2004 13.9349H7.81757L12.7687 18.887C13.2569 19.3752 13.2569 20.1664 12.7687 20.6546C12.2806 21.1425 11.4892 21.1427 11.0012 20.6546L3.9162 13.5687C3.6819 13.3343 3.54999 13.0163 3.54999 12.6849C3.55009 12.3535 3.68187 12.0354 3.9162 11.8011L11.0012 4.71612C11.4893 4.22803 12.2806 4.22816 12.7687 4.71612C13.2569 5.20427 13.2569 5.99554 12.7687 6.4837L7.81757 11.4349H23.2004C26.0996 11.4351 28.4502 13.7857 28.4504 16.6849V26.3997C28.4504 27.0899 27.8906 27.6495 27.2004 27.6497C26.51 27.6497 25.9504 27.0901 25.9504 26.3997Z" fill="currentColor"/>
</svg>
