<svg viewBox="0 0 32 32" fill="none" xmlns="http://www.w3.org/2000/svg">
<path d="M10.6667 10.6667V21.3334H21.3334V10.6667H10.6667ZM8.00002 8.00008H24V24.0001H8.00002V8.00008ZM8.00002 2.66675H10.6667V6.66675H8.00002V2.66675ZM8.00002 25.3334H10.6667V29.3334H8.00002V25.3334ZM2.66669 8.00008H6.66669V10.6667H2.66669V8.00008ZM2.66669 21.3334H6.66669V24.0001H2.66669V21.3334ZM25.3334 8.00008H29.3334V10.6667H25.3334V8.00008ZM25.3334 21.3334H29.3334V24.0001H25.3334V21.3334ZM21.3334 2.66675H24V6.66675H21.3334V2.66675ZM21.3334 25.3334H24V29.3334H21.3334V25.3334Z" fill="currentColor"/>
</svg>
