<svg viewBox="0 0 32 32" fill="none" xmlns="http://www.w3.org/2000/svg">
<path d="M24.5908 2.75871C25.8794 2.69478 27.1583 2.98445 28.0869 3.91301C29.0155 4.84159 29.3051 6.12052 29.2412 7.4091C29.1773 8.69751 28.7595 10.1374 28.0977 11.621C27.4779 13.0101 26.6174 14.4913 25.5557 15.9999C26.6173 17.5086 27.477 18.9898 28.0967 20.3788C28.7586 21.8626 29.1773 23.3023 29.2412 24.5907C29.3051 25.8793 29.0154 27.1583 28.0869 28.0868C27.1584 29.0154 25.8794 29.305 24.5908 29.2411C23.3025 29.1772 21.8625 28.7594 20.3789 28.0976C18.9899 27.4779 17.5086 26.6173 16 25.5556C14.4914 26.6173 13.0101 27.4778 11.6211 28.0976C10.1375 28.7594 8.69755 29.1772 7.40918 29.2411C6.12065 29.305 4.84162 29.0154 3.91309 28.0868C2.98459 27.1583 2.69486 25.8793 2.75879 24.5907C2.82272 23.3022 3.24135 21.8626 3.90332 20.3788C4.52299 18.9899 5.38182 17.5084 6.44336 15.9999C5.38179 14.4914 4.52203 13.01 3.90234 11.621C3.24044 10.1374 2.82271 8.69753 2.75879 7.4091C2.69486 6.1205 2.9845 4.8416 3.91309 3.91301C4.84167 2.98442 6.12058 2.69478 7.40918 2.75871C8.6976 2.82264 10.1375 3.24036 11.6211 3.90227C13.0101 4.52196 14.4915 5.38169 16 6.44328C17.5085 5.3817 18.99 4.52196 20.3789 3.90227C21.8625 3.24036 23.3024 2.82264 24.5908 2.75871ZM8.03711 18.0966C7.2695 19.2511 6.64636 20.3645 6.18555 21.3974C5.59668 22.7173 5.29912 23.8429 5.25586 24.7148C5.21264 25.5864 5.42451 26.063 5.68067 26.3193C5.93685 26.5755 6.41352 26.7873 7.28516 26.7441C8.15703 26.7008 9.28262 26.4032 10.6025 25.8144C11.6352 25.3537 12.7481 24.7302 13.9023 23.9628C12.8676 23.1166 11.8345 22.184 10.8252 21.1747C9.81576 20.1653 8.88341 19.1315 8.03711 18.0966ZM23.9619 18.0966C23.1157 19.1313 22.1841 20.1654 21.1748 21.1747C20.1653 22.1842 19.1316 23.1165 18.0967 23.9628C19.2511 24.7304 20.3646 25.3536 21.3975 25.8144C22.7174 26.4032 23.843 26.7008 24.7148 26.7441C25.5865 26.7872 26.0631 26.5755 26.3193 26.3193C26.5755 26.063 26.7873 25.5864 26.7441 24.7148C26.7009 23.8429 26.4033 22.7173 25.8145 21.3974C25.3536 20.3644 24.7296 19.2512 23.9619 18.0966ZM16 9.55852C14.8677 10.4502 13.7208 11.4666 12.5938 12.5937C11.4667 13.7207 10.4503 14.8676 9.55859 15.9999C10.4502 17.1321 11.4659 18.2793 12.5928 19.4062C13.7197 20.5331 14.8678 21.5487 16 22.4404C17.1322 21.5487 18.2803 20.5341 19.4072 19.4072C20.5341 18.2802 21.5488 17.1321 22.4404 15.9999C21.5488 14.8677 20.5332 13.7196 19.4063 12.5927C18.2794 11.4658 17.1322 10.4501 16 9.55852ZM14.75 16.1122V15.9999C14.75 15.3096 15.3096 14.7499 16 14.7499C16.6902 14.7501 17.25 15.3097 17.25 15.9999V16.1122C17.25 16.8025 16.6902 17.362 16 17.3622C15.3096 17.3622 14.75 16.8026 14.75 16.1122ZM7.28516 5.25578C6.41337 5.21255 5.93688 5.42437 5.68067 5.68059C5.42445 5.9368 5.21263 6.4133 5.25586 7.28508C5.29912 8.157 5.59665 9.28247 6.18555 10.6025C6.64623 11.635 7.26884 12.7482 8.03613 13.9023C8.88242 12.8674 9.81577 11.8346 10.8252 10.8251C11.8344 9.81586 12.8677 8.88322 13.9023 8.03703C12.7481 7.26958 11.6352 6.64622 10.6025 6.18547C9.28253 5.59656 8.15708 5.29904 7.28516 5.25578ZM24.7148 5.25578C23.8429 5.29904 22.7175 5.59657 21.3975 6.18547C20.3646 6.64631 19.2512 7.26938 18.0967 8.03703C19.1316 8.88334 20.1654 9.81568 21.1748 10.8251C22.1841 11.8344 23.1167 12.8676 23.9629 13.9023C24.7303 12.748 25.3537 11.6351 25.8145 10.6025C26.4033 9.28249 26.7009 8.15699 26.7441 7.28508C26.7874 6.41334 26.5755 5.9368 26.3193 5.68059C26.0631 5.42439 25.5866 5.21255 24.7148 5.25578Z" fill="currentColor"/>
</svg>
