<svg viewBox="0 0 32 32" fill="none" xmlns="http://www.w3.org/2000/svg">
<path d="M21.313 8V22.688C21.313 24.1467 20.792 25.3967 19.75 26.438C18.708 27.4793 17.458 28.0003 16 28.001C14.542 28.0017 13.292 27.4807 12.25 26.438C11.208 25.3953 10.687 24.1453 10.687 22.688V7.313C10.687 6.35433 11.01 5.56267 11.656 4.938C12.302 4.31333 13.0833 4.00067 14 4C14.9167 3.99933 15.698 4.312 16.344 4.938C16.99 5.564 17.313 6.35567 17.313 7.313V22.688C17.313 23.0213 17.188 23.3233 16.938 23.594C16.688 23.8647 16.3753 24 16 24C15.6247 24 15.312 23.8647 15.062 23.594C14.812 23.3233 14.687 23.0213 14.687 22.688V10H12.687V22.688C12.687 23.6467 13.01 24.4383 13.656 25.063C14.302 25.6877 15.0833 26.0003 16 26.001C16.9167 26.0017 17.698 25.689 18.344 25.063C18.99 24.437 19.313 23.6453 19.313 22.688V7.313C19.313 5.85433 18.792 4.60433 17.75 3.563C16.708 2.52167 15.458 2.00067 14 2C12.542 1.99933 11.292 2.52033 10.25 3.563C9.20801 4.60567 8.68701 5.85567 8.68701 7.313V22.688C8.68701 24.73 9.39535 26.4593 10.812 27.876C12.2287 29.2927 13.958 30.001 16 30.001C18.042 30.001 19.7713 29.2927 21.188 27.876C22.6047 26.4593 23.313 24.73 23.313 22.688V8H21.313Z" fill="currentColor"/>
</svg>
