<svg viewBox="0 0 32 32" fill="none" xmlns="http://www.w3.org/2000/svg">
<path d="M22.6666 20.3267V29.4894C22.6667 29.6073 22.6354 29.7232 22.576 29.8251C22.5166 29.927 22.4313 30.0114 22.3287 30.0695C22.2261 30.1277 22.1098 30.1576 21.9919 30.1561C21.8739 30.1547 21.7585 30.122 21.6573 30.0614L16 26.6667L10.3426 30.0614C10.2414 30.1221 10.1258 30.1548 10.0077 30.1561C9.88967 30.1575 9.77337 30.1275 9.6707 30.0692C9.56804 30.0109 9.48271 29.9264 9.42343 29.8242C9.36415 29.7221 9.33305 29.6061 9.33331 29.488V20.328C7.60818 18.9468 6.35464 17.0639 5.74593 14.9394C5.13721 12.815 5.20339 10.5539 5.9353 8.46868C6.66722 6.38346 8.02873 4.57704 9.83169 3.29909C11.6347 2.02113 13.79 1.33472 16 1.33472C18.2099 1.33472 20.3653 2.02113 22.1683 3.29909C23.9712 4.57704 25.3327 6.38346 26.0647 8.46868C26.7966 10.5539 26.8627 12.815 26.254 14.9394C25.6453 17.0639 24.3918 18.9468 22.6666 20.328V20.3267ZM16 20C18.1217 20 20.1565 19.1572 21.6568 17.6569C23.1571 16.1566 24 14.1218 24 12C24 9.87832 23.1571 7.84348 21.6568 6.34319C20.1565 4.8429 18.1217 4.00005 16 4.00005C13.8782 4.00005 11.8434 4.8429 10.3431 6.34319C8.84284 7.84348 7.99998 9.87832 7.99998 12C7.99998 14.1218 8.84284 16.1566 10.3431 17.6569C11.8434 19.1572 13.8782 20 16 20V20ZM16 17.3334C14.5855 17.3334 13.2289 16.7715 12.2287 15.7713C11.2286 14.7711 10.6666 13.4145 10.6666 12C10.6666 10.5856 11.2286 9.22901 12.2287 8.22881C13.2289 7.22862 14.5855 6.66671 16 6.66671C17.4145 6.66671 18.771 7.22862 19.7712 8.22881C20.7714 9.22901 21.3333 10.5856 21.3333 12C21.3333 13.4145 20.7714 14.7711 19.7712 15.7713C18.771 16.7715 17.4145 17.3334 16 17.3334Z" fill="currentColor"/>
</svg>
