<svg viewBox="0 0 32 32" fill="none" xmlns="http://www.w3.org/2000/svg">
<path d="M25.9091 16C25.9091 14.0059 25.3978 12.2242 24.375 10.6549L10.5683 24.3363C12.1876 25.3971 13.9989 25.9276 16.002 25.9276C17.3657 25.9276 18.6441 25.673 19.8372 25.164C21.0304 24.697 22.0957 23.9969 23.0332 23.0636C23.9285 22.1724 24.6317 21.1119 25.1431 19.882C25.6545 18.6522 25.9091 17.3582 25.9091 16ZM7.69143 21.4723L21.4981 7.72787C19.7936 6.62492 17.9612 6.07345 16.001 6.07345C14.2113 6.07345 12.5493 6.51904 11.0153 7.41022C9.48119 8.30141 8.26654 9.51058 7.37132 11.0377C6.51905 12.6077 6.09292 14.2621 6.09292 16.001C6.09292 17.9524 6.62576 19.7755 7.69143 21.4723ZM30 16C30 18.0362 29.6376 19.8603 28.9128 21.4723C28.0606 23.3389 27.059 24.8236 25.9081 25.9266C24.8002 27.0723 23.3087 28.0693 21.4337 28.9178C19.8144 29.6392 18.0032 30 16 30C13.9968 30 12.1856 29.6392 10.5663 28.9178C8.69131 28.0693 7.19984 27.0723 6.0919 25.9266C4.941 24.8236 3.93942 23.3389 3.08715 21.4723C2.36238 19.8603 2 18.0362 2 16C2 14.0059 2.36238 12.2028 3.08715 10.5908C3.85419 8.8091 4.85577 7.30298 6.0919 6.07243C7.3703 4.7998 8.86176 3.82411 10.5663 3.14537C12.3138 2.38179 14.125 2 16 2C17.875 2 19.6862 2.38179 21.4337 3.14537C23.1812 3.82411 24.6727 4.7998 25.9081 6.07243C27.1442 7.30298 28.1458 8.8091 28.9128 10.5908C29.6376 12.2028 30 14.0059 30 16Z" fill="currentColor"/>
</svg>
