<svg viewBox="0 0 32 32" fill="none" xmlns="http://www.w3.org/2000/svg">
<path d="M10.1667 19.9286C10.8132 19.9286 11.3333 20.454 11.3333 21.1071C11.3333 21.7603 10.8132 22.2857 10.1667 22.2857H7.83333C7.18681 22.2857 6.66667 21.7603 6.66667 21.1071C6.66667 20.454 7.18681 19.9286 7.83333 19.9286H10.1667ZM19.5 19.9286C20.1465 19.9286 20.6667 20.454 20.6667 21.1071C20.6667 21.7603 20.1465 22.2857 19.5 22.2857H14.0556C13.409 22.2857 12.8889 21.7603 12.8889 21.1071C12.8889 20.454 13.409 19.9286 14.0556 19.9286H19.5ZM26.8889 5C28.6049 5 30 6.40692 30 8.14286V23.8571C30 25.5906 28.6049 27 26.8889 27H5.11111C3.39271 27 2 25.5906 2 23.8571V8.14286C2 6.40692 3.39271 5 5.11111 5H26.8889ZM26.8889 7.35714H5.11111C4.68139 7.35714 4.33333 7.70875 4.33333 8.14286V9.71429H27.6667V8.14286C27.6667 7.70875 27.3167 7.35714 26.8889 7.35714ZM27.6667 14.4286H4.33333V23.8571C4.33333 24.2893 4.68139 24.6429 5.11111 24.6429H26.8889C27.3167 24.6429 27.6667 24.2893 27.6667 23.8571V14.4286Z" fill="currentColor"/>
</svg>
