<svg viewBox="0 0 32 32" fill="none" xmlns="http://www.w3.org/2000/svg">
<path d="M1.125 27.438H0V2.31299H1.125V27.438ZM2.25 27.438H1.687V2.31299H2.25V27.438ZM3.938 27.438H3.375V2.31299H3.938V27.438ZM6.75 27.438H6.187V2.31299H6.75V27.438ZM9.563 27.438H8.438V2.31299H9.563V27.438ZM11.813 27.438H11.25V2.31299H11.813V27.438ZM12.938 27.438H12.375V2.31299H12.938V27.438ZM14.063 27.438H13.5V2.31299H14.063V27.438ZM16.813 27.438H15.688V2.31299H16.813V27.438ZM19.625 27.438H18.5V2.31299H19.625V27.438ZM21.875 27.438H20.75V2.31299H21.875V27.438ZM24.125 27.438H23V2.31299H24.125V27.438ZM25.813 27.438H24.688V2.31299H25.813V27.438ZM29.188 27.438H27.5V2.31299H29.188V27.438ZM30.313 27.438H29.75V2.31299H30.313V27.438ZM32 27.438H30.875V2.31299H32V27.438Z" fill="currentColor"/>
</svg>
