<svg viewBox="0 0 32 32" fill="none" xmlns="http://www.w3.org/2000/svg">
<g clip-path="url(#clip0_103_373)">
<path d="M27.75 10.688C27.458 9.896 26.9787 9.25 26.312 8.75C25.6453 8.25 24.8743 8 23.999 8H3.99899C2.91565 8 1.97799 8.396 1.18599 9.188C0.393986 9.98 -0.00201416 10.9177 -0.00201416 12.001V21.314C-0.00201416 22.4393 0.393986 23.3873 1.18599 24.158C1.97799 24.9287 2.91565 25.314 3.99899 25.314H23.999C25.8743 25.314 27.1243 24.439 27.749 22.689H30.624V10.689H27.749L27.75 10.688ZM25.313 21.313C25.313 21.6883 25.188 22.0113 24.938 22.282C24.688 22.5527 24.3753 22.688 24 22.688H3.99999C3.62465 22.688 3.31199 22.5527 3.06199 22.282C2.81199 22.0113 2.68699 21.6883 2.68699 21.313V12C2.68699 11.6247 2.81199 11.312 3.06199 11.062C3.31199 10.812 3.62465 10.687 3.99999 10.687H24C24.3753 10.687 24.688 10.812 24.938 11.062C25.188 11.312 25.313 11.6247 25.313 12V21.313ZM28 20H26.625V13.312H28V20ZM9.31299 12H13.313V21.313H9.31299V12ZM14.688 12H18.688V21.313H14.688V12ZM22 12H20V21.313H22C22.542 21.313 23.0107 21.0527 23.406 20.532C23.8013 20.0113 23.9993 19.3967 24 18.688V14.688C24 13.938 23.802 13.3027 23.406 12.782C23.01 12.2613 22.5413 12.001 22 12.001V12ZM3.99999 14.688V18.688C3.99999 19.3967 4.19799 20.0113 4.59399 20.532C4.98999 21.0527 5.45865 21.313 5.99999 21.313H7.99999V12H5.99999C5.45799 12 4.98932 12.2603 4.59399 12.781C4.19865 13.3017 4.00065 13.938 3.99999 14.688Z" fill="currentColor"/>
</g>
<defs>
<clipPath id="clip0_103_373">
<rect width="32" height="32" fill="white"/>
</clipPath>
</defs>
</svg>
