<svg viewBox="0 0 32 32" fill="none" xmlns="http://www.w3.org/2000/svg">
<g clip-path="url(#clip0_103_383)">
<path d="M27.75 10.688C27.458 9.896 26.9787 9.25 26.312 8.75C25.6453 8.25 24.8743 8 23.999 8H3.99899C2.91565 8 1.97799 8.396 1.18599 9.188C0.393986 9.98 -0.00201416 10.9177 -0.00201416 12.001V21.314C-0.00201416 22.4393 0.393986 23.3873 1.18599 24.158C1.97799 24.9287 2.91565 25.314 3.99899 25.314H23.999C24.8323 25.314 25.5927 25.0743 26.28 24.595C26.9673 24.1157 27.457 23.4803 27.749 22.689H30.624V10.689H27.749L27.75 10.688ZM25.313 21.313C25.313 21.6883 25.1777 22.0113 24.907 22.282C24.6363 22.5527 24.3343 22.688 24.001 22.688H4.00099C3.62565 22.688 3.31299 22.5527 3.06299 22.282C2.81299 22.0113 2.68799 21.6883 2.68799 21.313V12C2.68799 11.6247 2.81299 11.312 3.06299 11.062C3.31299 10.812 3.62565 10.687 4.00099 10.687H24.001C24.3343 10.687 24.6363 10.812 24.907 11.062C25.1777 11.312 25.313 11.6247 25.313 12V21.313ZM28 20H26.625V13.312H28V20ZM13.438 20L14.813 17.312H21.438L13.438 13.312L12.125 16H5.43699L13.438 20Z" fill="currentColor"/>
</g>
<defs>
<clipPath id="clip0_103_383">
<rect width="32" height="32" fill="white"/>
</clipPath>
</defs>
</svg>
