<svg viewBox="0 0 32 32" fill="none" xmlns="http://www.w3.org/2000/svg">
<g clip-path="url(#clip0_103_379)">
<path d="M27.75 10.688C27.458 9.896 26.9787 9.25 26.312 8.75C25.6453 8.25 24.8743 8 23.999 8H3.999C2.91567 8 1.978 8.396 1.186 9.188C0.394001 9.98 -0.0019989 10.9177 -0.0019989 12.001V21.314C-0.0019989 22.4393 0.394001 23.3873 1.186 24.158C1.978 24.9287 2.91567 25.314 3.999 25.314H23.999C25.8743 25.314 27.1243 24.439 27.749 22.689H30.624V10.689H27.749L27.75 10.688ZM25.313 21.313C25.313 21.6883 25.188 22.0113 24.938 22.282C24.688 22.5527 24.3753 22.688 24 22.688H4C3.62467 22.688 3.312 22.5527 3.062 22.282C2.812 22.0113 2.687 21.6883 2.687 21.313V12C2.687 11.6247 2.812 11.312 3.062 11.062C3.312 10.812 3.62467 10.687 4 10.687H24C24.3753 10.687 24.688 10.812 24.938 11.062C25.188 11.312 25.313 11.6247 25.313 12V21.313ZM28 20H26.625V13.312H28V20ZM4 14.688V18.688C4 19.3967 4.198 20.0113 4.594 20.532C4.99 21.0527 5.45867 21.313 6 21.313H8V12H6C5.458 12 4.98933 12.2603 4.594 12.781C4.19867 13.3017 4.00067 13.938 4 14.688Z" fill="currentColor"/>
</g>
<defs>
<clipPath id="clip0_103_379">
<rect width="32" height="32" fill="white"/>
</clipPath>
</defs>
</svg>
