<svg viewBox="0 0 32 32" fill="none" xmlns="http://www.w3.org/2000/svg">
<path d="M6.40938 10.4094L11.1953 12.1602C12.842 8.33423 15.2383 5.39142 17.7109 4.01798C13.2166 3.78946 8.86094 5.75048 6.0625 9.25391C5.74375 9.65001 5.93125 10.2406 6.40938 10.4094ZM12.6063 12.6688L23.7859 16.7408C25.4617 11.0502 24.6588 5.88454 21.7877 4.83923C21.442 4.71618 21.0789 4.64882 20.7039 4.64882C17.9875 4.64751 14.6922 7.8936 12.6063 12.6688ZM25.4453 6.83329C25.7383 7.59501 25.9492 8.4561 26.0608 9.42313C26.3303 11.7608 25.9963 14.4903 25.1758 17.2466L29.9852 18.9983C30.46 19.1741 30.9812 18.8401 30.993 18.3364C31.1078 13.8453 29.0312 9.54688 25.4453 6.83329ZM25.75 24.9969H16.0469L19.0938 16.6297L16.2752 15.6045L12.8589 24.9983H3.25C2.00734 24.9969 1 26.0047 1 27.2469C1 27.6594 1.33577 27.9969 1.75 27.9969H27.25C27.6642 27.9969 28 27.6611 28 27.2891C28 26.0047 26.9922 24.9969 25.75 24.9969Z" fill="currentColor"/>
</svg>
