<svg viewBox="0 0 32 32" fill="none" xmlns="http://www.w3.org/2000/svg">
<path d="M24.6667 11.9999C26 13.4133 26.6667 15.1919 26.6667 17.3333C26.6667 21.9546 21.7333 23.0346 19.3333 29.3333C18.444 28.5666 18 27.4559 18 25.9999C18 21.3573 24.6667 18.9466 24.6667 11.9999ZM19.3333 6.66659C20.9333 8.31725 21.7333 10.0959 21.7333 11.9999C21.7333 18.6013 13.6733 19.5893 15.3333 29.3333C13.1107 27.7866 12 25.5639 12 22.6666C12 18.2333 19.3333 14.6666 19.3333 6.66659ZM13.3333 1.33325C15.1107 3.55592 16 5.55592 16 7.33325C16 15.6666 4.66667 18.2959 10.6667 29.3333C7.17867 28.5599 4.66667 25.3333 4.66667 21.3333C4.66667 12.6666 13.3333 11.3333 13.3333 1.33325Z" fill="currentColor"/>
</svg>
