<svg viewBox="0 0 32 32" fill="none" xmlns="http://www.w3.org/2000/svg">
<path d="M8.75 9C9.41667 8.33333 9.81267 8.08333 9.938 8.25L14.188 12.313L14.563 12.594C14.563 12.594 14.6463 12.5627 14.813 12.5V2.625C14.813 2.20833 15.063 2 15.563 2C15.7717 2 15.9593 2.08333 16.126 2.25C16.168 2.25 16.8033 2.84367 18.032 4.031C19.2607 5.21833 20.5003 6.41633 21.751 7.625C23.0017 8.83367 23.6683 9.47967 23.751 9.563C24.0843 9.855 24.1053 10.1467 23.814 10.438L18.564 15.501C18.3973 15.6677 18.314 15.8343 18.314 16.001L18.564 16.501L23.814 21.564C24.106 21.856 24.085 22.1477 23.751 22.439L16.126 29.752C15.9593 29.9187 15.7717 30.002 15.563 30.002C15.063 30.002 14.813 29.7937 14.813 29.377V19.502C14.4797 19.544 14.2713 19.6067 14.188 19.69V19.753L9.938 23.753C9.81267 23.9197 9.41667 23.6697 8.75 23.003C8.16667 22.4197 7.93733 22.0447 8.062 21.878L13.687 16.503C13.8537 16.3777 13.937 16.211 13.937 16.003L13.687 15.503C9.97833 11.961 8.10333 10.1693 8.062 10.128C7.93667 9.96133 8.166 9.58633 8.75 9.003V9ZM17.5 7.5V12.438C17.5833 12.6047 17.677 12.6673 17.781 12.626C17.885 12.5847 17.9997 12.5013 18.125 12.376L20 10.501C20.1253 10.2923 20.188 10.1463 20.188 10.063C20.188 9.89633 20.1253 9.75033 20 9.625L18.125 7.75C17.7083 7.33333 17.5 7.25 17.5 7.5ZM17.5 19.563V24.501C17.8333 24.4177 18.0417 24.3343 18.125 24.251L20 22.376C20.1253 22.2507 20.188 22.1047 20.188 21.938C20.188 21.7713 20.1253 21.6253 20 21.5L18.125 19.625C17.9997 19.4997 17.885 19.4163 17.781 19.375C17.677 19.3337 17.5833 19.3963 17.5 19.563Z" fill="currentColor"/>
</svg>
