<svg viewBox="0 0 32 32" fill="none" xmlns="http://www.w3.org/2000/svg">
<path d="M6.66671 2.66675H25.3334C25.687 2.66675 26.0261 2.80722 26.2762 3.05727C26.5262 3.30732 26.6667 3.64646 26.6667 4.00008V29.5241C26.6669 29.6433 26.635 29.7604 26.5746 29.8631C26.5141 29.9658 26.4272 30.0505 26.3229 30.1082C26.2186 30.1659 26.1007 30.1946 25.9816 30.1913C25.8624 30.188 25.7463 30.1528 25.6454 30.0894L16 24.0401L6.35471 30.0881C6.25386 30.1514 6.13789 30.1866 6.01884 30.19C5.8998 30.1933 5.78202 30.1648 5.67777 30.1072C5.57351 30.0496 5.48658 29.9652 5.42602 29.8626C5.36545 29.7601 5.33346 29.6432 5.33337 29.5241V4.00008C5.33337 3.64646 5.47385 3.30732 5.7239 3.05727C5.97395 2.80722 6.31309 2.66675 6.66671 2.66675Z" fill="currentColor"/>
</svg>
