<svg viewBox="0 0 32 32" fill="none" xmlns="http://www.w3.org/2000/svg">
<path d="M28 5.33341H9.33333C8.62609 5.33341 7.94781 5.61437 7.44772 6.11446C6.94762 6.61456 6.66667 7.29284 6.66667 8.00008C6.66667 8.70733 6.94762 9.3856 7.44772 9.8857C7.94781 10.3858 8.62609 10.6667 9.33333 10.6667H28V28.0001C28 28.3537 27.8595 28.6928 27.6095 28.9429C27.3594 29.1929 27.0203 29.3334 26.6667 29.3334H9.33333C7.91885 29.3334 6.56229 28.7715 5.5621 27.7713C4.5619 26.7711 4 25.4146 4 24.0001V8.00008C4 6.58559 4.5619 5.22904 5.5621 4.22885C6.56229 3.22865 7.91885 2.66675 9.33333 2.66675H26.6667C27.0203 2.66675 27.3594 2.80722 27.6095 3.05727C27.8595 3.30732 28 3.64646 28 4.00008V5.33341ZM6.66667 24.0001C6.66667 24.7073 6.94762 25.3856 7.44772 25.8857C7.94781 26.3858 8.62609 26.6667 9.33333 26.6667H25.3333V13.3334H9.33333C8.3971 13.3349 7.47711 13.0888 6.66667 12.6201V24.0001ZM26.6667 9.33341H9.33333C8.97971 9.33341 8.64057 9.19294 8.39052 8.94289C8.14048 8.69284 8 8.3537 8 8.00008C8 7.64646 8.14048 7.30732 8.39052 7.05727C8.64057 6.80722 8.97971 6.66675 9.33333 6.66675H26.6667V9.33341Z" fill="currentColor"/>
</svg>
