<svg viewBox="0 0 32 32" fill="none" xmlns="http://www.w3.org/2000/svg">
<path d="M12.0625 2C13.7523 2 15.125 3.37102 15.125 5.0625V26.9375C15.125 28.6273 13.7523 30 12.0625 30C10.482 30 9.18047 28.8023 9.01641 27.2602C8.73203 27.3367 8.43125 27.375 8.125 27.375C6.1918 27.375 4.625 25.8055 4.625 23.875C4.625 23.4703 4.69445 23.0766 4.82133 22.7156C3.17195 22.0922 2 20.4953 2 18.625C2 16.8805 3.0232 15.3711 4.50305 14.6711C4.03164 14.075 3.75 13.2711 3.75 12.5C3.75 10.8211 4.9307 9.42109 6.5068 9.07656C6.42094 8.77578 6.375 8.45312 6.375 8.125C6.375 6.48766 7.50156 5.11281 9.01641 4.73055C9.18047 3.19547 10.482 2 12.0625 2ZM22.9836 4.73055C24.4984 5.11281 25.625 6.48766 25.625 8.125C25.625 8.45312 25.5813 8.77578 25.4938 9.07656C27.0688 9.42109 28.25 10.8211 28.25 12.5C28.25 13.2711 27.9711 14.075 27.4953 14.6711C28.9773 15.3711 30 16.8805 30 18.625C30 20.4953 28.8297 22.0922 27.1781 22.7156C27.3039 23.0766 27.375 23.4703 27.375 23.875C27.375 25.8055 25.8055 27.375 23.875 27.375C23.5688 27.375 23.268 27.3367 22.9836 27.2602C22.8195 28.8023 21.518 30 19.9375 30C18.2477 30 16.875 28.6273 16.875 26.9375V5.0625C16.875 3.37102 18.2477 2 19.9375 2C21.518 2 22.8195 3.19547 22.9836 4.73055Z" fill="currentColor"/>
</svg>
