<svg viewBox="0 0 32 32" fill="none" xmlns="http://www.w3.org/2000/svg">
<path d="M13.125 26.9375V5.0625C13.125 4.47628 12.6485 4 12.0625 4C11.5126 4 11.0612 4.41651 11.0049 4.94336L10.8574 6.3291L9.50586 6.66992C8.85675 6.83372 8.375 7.42676 8.375 8.125C8.375 8.26852 8.39517 8.40631 8.42969 8.52734L9.01465 10.5752L6.93359 11.0303C6.25302 11.1792 5.75 11.7844 5.75 12.5C5.75 12.8204 5.87991 13.1874 6.07227 13.4307L7.63184 15.4033L5.3584 16.4795C4.55266 16.8607 4 17.681 4 18.625C4 19.6395 4.6344 20.5068 5.52832 20.8447L7.35645 21.5352L6.70801 23.3789C6.65563 23.5279 6.625 23.6975 6.625 23.875C6.625 24.7019 7.29738 25.375 8.125 25.375C8.26574 25.375 8.39096 25.3574 8.49609 25.3291L10.7578 24.7197L11.0049 27.0488C11.0622 27.5866 11.5174 28 12.0625 28V30C10.482 30 9.18066 28.802 9.0166 27.2598C8.73223 27.3363 8.43125 27.375 8.125 27.375C6.1918 27.375 4.625 25.8055 4.625 23.875C4.625 23.4704 4.69446 23.0767 4.82129 22.7158C3.17191 22.0924 2 20.4953 2 18.625C2 16.8805 3.0231 15.3709 4.50293 14.6709C4.03161 14.0748 3.75 13.271 3.75 12.5C3.75 10.8211 4.93074 9.4207 6.50684 9.07617C6.42104 8.77549 6.375 8.453 6.375 8.125C6.375 6.48766 7.50176 5.11273 9.0166 4.73047C9.18071 3.19544 10.4821 2 12.0625 2C13.7523 2 15.125 3.37102 15.125 5.0625V26.9375C15.125 28.6273 13.7523 30 12.0625 30V28C12.6478 28 13.125 27.5228 13.125 26.9375ZM16.875 26.9375V5.0625C16.875 3.37102 18.2477 2 19.9375 2C21.5179 2 22.8193 3.19544 22.9834 4.73047C24.4982 5.11273 25.625 6.48766 25.625 8.125C25.625 8.45296 25.5816 8.77552 25.4941 9.07617C27.069 9.42081 28.25 10.8212 28.25 12.5C28.25 13.2711 27.9709 14.0748 27.4951 14.6709C28.9771 15.3709 30 16.8805 30 18.625C30 20.4953 28.8293 22.0924 27.1777 22.7158C27.3035 23.0767 27.375 23.4703 27.375 23.875C27.375 25.8055 25.8055 27.375 23.875 27.375C23.5687 27.375 23.2678 27.3363 22.9834 27.2598C22.8193 28.802 21.518 30 19.9375 30V28C20.4826 28 20.9378 27.5866 20.9951 27.0488L21.2422 24.7197L23.5039 25.3291C23.609 25.3574 23.7343 25.375 23.875 25.375C24.7009 25.375 25.375 24.7009 25.375 23.875C25.375 23.703 25.344 23.5316 25.2891 23.374L24.6484 21.5332L26.4717 20.8447C27.3664 20.507 28 19.6403 28 18.625C28 17.6811 27.4484 16.8607 26.6416 16.4795L24.3545 15.3994L25.9326 13.4238C26.1213 13.1874 26.25 12.8246 26.25 12.5C26.25 11.7845 25.7464 11.179 25.0664 11.0303L22.9756 10.5732L23.5732 8.51758C23.6042 8.41122 23.625 8.27783 23.625 8.125C23.625 7.42676 23.1432 6.83372 22.4941 6.66992L21.1426 6.3291L20.9951 4.94336C20.9388 4.41652 20.4874 4 19.9375 4C19.3515 4 18.875 4.47628 18.875 5.0625V26.9375C18.875 27.5228 19.3522 28 19.9375 28V30C18.2477 30 16.875 28.6273 16.875 26.9375Z" fill="currentColor"/>
</svg>
