<svg viewBox="0 0 32 32" fill="none" xmlns="http://www.w3.org/2000/svg">
<path d="M12.0087 7.99125H19.9921V6.02318H12.0087V7.99125ZM29.9983 17.9952V25.4852C29.9983 26.178 29.7612 26.7611 29.287 27.2346C28.7766 27.7449 28.175 28 27.4821 28H4.51619C3.82327 28 3.22164 27.7449 2.71129 27.2346C2.2371 26.7606 2 26.1774 2 25.4852V17.9952H12.4987V20.51C12.4987 20.7286 12.59 20.9657 12.7725 21.2211C13.028 21.4036 13.2651 21.4949 13.4838 21.4949H18.5144C18.7332 21.4949 18.9703 21.4036 19.2257 21.2211C19.4083 20.9657 19.4996 20.7286 19.4996 20.51V17.9952H29.9983ZM18.0236 17.9952V20.0184H13.9773V17.9952H18.0236ZM29.9983 10.506V16.5196H2.00175V10.506C2.00175 9.81325 2.23885 9.23012 2.71304 8.75662C3.22339 8.24637 3.82502 7.99125 4.51794 7.99125H9.986V5.47649C9.986 5.0753 10.1318 4.72892 10.4234 4.43735C10.788 4.14578 11.1525 4 11.5171 4H20.4847C20.8492 4 21.2138 4.14578 21.5783 4.43735C21.8699 4.72892 22.0157 5.0753 22.0157 5.47649V7.99125H27.4838C28.1767 7.99125 28.7784 8.24637 29.2887 8.75662C29.7629 9.2307 30 9.81384 30 10.506H29.9983Z" fill="currentColor"/>
</svg>
