<svg viewBox="0 0 32 32" fill="none" xmlns="http://www.w3.org/2000/svg">
<path d="M30.313 17.125C30.313 17.4584 30.188 17.7294 29.938 17.938C29.7293 18.188 29.4583 18.313 29.125 18.313H25.125C25.125 20.3964 24.729 22.1047 23.937 23.438L27.687 27.188C27.8956 27.48 28 27.751 28 28.001C28 28.251 27.8956 28.522 27.687 28.814C27.395 29.0227 27.124 29.127 26.874 29.127C26.5407 29.127 26.2697 29.0227 26.061 28.814L22.498 25.314C22.4146 25.3974 22.3313 25.46 22.248 25.502C22.0813 25.6687 21.8313 25.8354 21.498 26.002C20.998 26.3354 20.602 26.5647 20.31 26.69C19.8933 26.8987 19.414 27.0654 18.872 27.19C18.372 27.3567 17.7887 27.44 17.122 27.44V11.44H14.872V27.44C14.1633 27.44 13.559 27.3567 13.059 27.19C12.517 27.0234 11.996 26.8357 11.496 26.627C11.204 26.4604 10.808 26.2104 10.308 25.877C9.93265 25.7104 9.68265 25.5227 9.55798 25.314L9.24498 25.064L5.99498 28.752C5.74498 29.002 5.45332 29.127 5.11998 29.127C4.82798 29.127 4.57798 29.0437 4.36998 28.877C4.11998 28.627 3.99498 28.356 3.99498 28.064C3.99498 27.7307 4.09932 27.4597 4.30798 27.251L7.87098 23.188C7.20432 21.8547 6.87098 20.2297 6.87098 18.313H2.87098C2.53765 18.313 2.26665 18.188 2.05798 17.938C1.80798 17.7294 1.68298 17.4584 1.68298 17.125C1.68298 16.833 1.80798 16.562 2.05798 16.312C2.26665 16.1034 2.53765 15.999 2.87098 15.999H6.87098V10.749L3.74598 7.68602C3.53732 7.39402 3.43298 7.12302 3.43298 6.87302C3.43298 6.53969 3.53732 6.26869 3.74598 6.06002C3.99598 5.81002 4.26698 5.68502 4.55898 5.68502C4.85098 5.68502 5.12198 5.81002 5.37198 6.06002L8.43498 9.12302H23.56L26.623 6.06002C26.873 5.81002 27.144 5.68502 27.436 5.68502C27.728 5.68502 27.999 5.81002 28.249 6.06002C28.4577 6.26869 28.562 6.53969 28.562 6.87302C28.562 7.12302 28.4577 7.39402 28.249 7.68602L25.124 10.749V15.999H29.124C29.4573 15.999 29.7283 16.1034 29.937 16.312C30.187 16.562 30.313 16.833 30.313 17.125ZM21.688 6.87502H10.313C10.313 5.24969 10.8547 3.89536 11.938 2.81202C13.0633 1.68669 14.4176 1.12402 16.001 1.12402C17.5843 1.12402 18.9386 1.68669 20.064 2.81202C21.1473 3.89536 21.688 5.24969 21.688 6.87502Z" fill="currentColor"/>
</svg>
