<svg viewBox="0 0 32 32" fill="none" xmlns="http://www.w3.org/2000/svg">
<path d="M6.81781 4H25.1833C25.6825 4.00002 26.1508 4.25447 26.4133 4.67116L29.3634 9.30753C30.8922 11.7058 29.5381 15.0355 26.6814 15.4141L26.3758 15.4439C26.2722 15.4509 26.1665 15.4545 26.0584 15.4545V12.7273C26.1403 12.7273 26.2264 12.7205 26.3254 12.7081C26.6829 12.6584 26.9728 12.4436 27.1404 12.0518C27.3177 11.6373 27.2917 11.1559 27.0439 10.767L27.0418 10.7649L24.4734 6.72727H7.52451L4.95402 10.766C4.70874 11.152 4.68143 11.6354 4.85965 12.054C5.02912 12.4518 5.3195 12.6624 5.6693 12.7092C5.77068 12.7212 5.85827 12.7273 5.92988 12.7273V15.4545L5.61568 15.4439L5.30576 15.4141C2.45835 15.0355 1.11165 11.7007 2.63447 9.30753L5.58458 4.67116C5.81427 4.30648 6.20238 4.06617 6.63122 4.01172L6.81781 4ZM11.325 12.1435C11.6529 12.504 12.1206 12.7272 12.6387 12.7273V15.4545C11.3006 15.4544 10.1069 14.8714 9.28857 13.9716C8.47013 14.8716 7.27542 15.4545 5.92988 15.4545V12.7273C6.45759 12.7273 6.92473 12.5023 7.25105 12.1435L9.28857 9.90305L11.325 12.1435ZM18.0327 12.1435C18.3595 12.5026 18.8269 12.7273 19.3517 12.7273V15.4545L19.1008 15.4482C17.8598 15.3807 16.7624 14.8152 15.9952 13.9716C15.1768 14.8716 13.9873 15.4545 12.6387 15.4545V12.7273C13.167 12.7273 13.6297 12.504 13.9577 12.1435L15.9952 9.90305L18.0327 12.1435ZM24.7447 12.1435C25.0727 12.504 25.5403 12.7273 26.0584 12.7273V15.4545L25.8096 15.4482C24.5724 15.3809 23.4746 14.8155 22.7072 13.9716C21.8889 14.8714 20.695 15.4544 19.3517 15.4545V12.7273C19.8765 12.7271 20.3441 12.5027 20.6708 12.1435L22.7072 9.90305L24.7447 12.1435Z" fill="currentColor"/>
<path d="M29.4529 26.9091L29.4475 27.021C29.3949 27.5341 28.9839 27.9424 28.4674 27.9947L28.3548 28H4.19623C3.62776 28 3.15984 27.5709 3.10348 27.021L3.09811 26.9091V16H5.8434V25.2727H26.7076V16H29.4529V26.9091Z" fill="currentColor"/>
<path fill-rule="evenodd" clip-rule="evenodd" d="M10.7849 19.2727C10.7852 18.7082 11.217 18.2431 11.7704 18.1871L11.883 18.1818H20.6679C21.2743 18.1818 21.7658 18.6705 21.7661 19.2727V28H10.7849V19.2727ZM19.0208 20.9091H13.5302V27.9499H19.0208V20.9091Z" fill="currentColor"/>
</svg>
