<svg viewBox="0 0 32 32" fill="none" xmlns="http://www.w3.org/2000/svg">
<path d="M2.66668 25.3333V10.6667H1.33334V8H5.33334V5.33333C5.33334 4.97971 5.47382 4.64057 5.72387 4.39052C5.97392 4.14048 6.31305 4 6.66668 4H25.3333C25.687 4 26.0261 4.14048 26.2762 4.39052C26.5262 4.64057 26.6667 4.97971 26.6667 5.33333V8H30.6667V10.6667H29.3333V25.3333H30.6667V28H1.33334V25.3333H2.66668ZM17.3333 25.3333V16H14.6667V25.3333H17.3333ZM10.6667 25.3333V16H8.00001V25.3333H10.6667ZM24 25.3333V16H21.3333V25.3333H24ZM8.00001 6.66667V8H24V6.66667H8.00001Z" fill="currentColor"/>
</svg>
