<svg viewBox="0 0 32 32" fill="none" xmlns="http://www.w3.org/2000/svg">
<path d="M10.6667 26.6667V18.6667H21.3333V26.6667H25.3333V5.33341H6.66668V26.6667H10.6667ZM13.3333 26.6667H18.6667V21.3334H13.3333V26.6667ZM28 26.6667H30.6667V29.3334H1.33334V26.6667H4.00001V4.00008C4.00001 3.64646 4.14049 3.30732 4.39053 3.05727C4.64058 2.80722 4.97972 2.66675 5.33334 2.66675H26.6667C27.0203 2.66675 27.3594 2.80722 27.6095 3.05727C27.8595 3.30732 28 3.64646 28 4.00008V26.6667ZM14.6667 10.6667V8.00008H17.3333V10.6667H20V13.3334H17.3333V16.0001H14.6667V13.3334H12V10.6667H14.6667Z" fill="currentColor"/>
</svg>
