<svg viewBox="0 0 32 32" fill="none" xmlns="http://www.w3.org/2000/svg">
<path d="M15.813 1.125H15.876C16.918 1.125 17.439 1.31267 17.439 1.688H17.502L18.815 19.626H13.19L14.315 1.688C14.357 1.396 14.857 1.20833 15.815 1.125H15.813ZM32 17.375V30.938H0V17.375H32ZM5.875 21.125H3.187V25.563H5.875V21.125ZM10.563 21.125H7.875V25.563H10.563V21.125ZM15.188 21.125H12.563V25.563H15.188V21.125ZM20.25 7.063L32 13.501V22.564H29.375V20.376H22.875V22.564H20.25V7.063ZM29.375 15.625H22.875V17.75H29.375V15.625ZM0 15H17.313V17.625H0V15Z" fill="currentColor"/>
</svg>
