<svg viewBox="0 0 32 32" fill="none" xmlns="http://www.w3.org/2000/svg">
<path d="M16 25.3333H18.6667V7.99998L27.192 11.6533C27.432 11.7562 27.6365 11.9273 27.7802 12.1453C27.9238 12.3634 28.0002 12.6189 28 12.88V25.3333H30.6667V28H1.33334V25.3333H4.00001V7.53331C3.99998 7.27534 4.07478 7.02289 4.21536 6.80658C4.35594 6.59027 4.55625 6.41939 4.79201 6.31465L15.0627 1.74931C15.1643 1.70417 15.2756 1.68516 15.3864 1.69401C15.4972 1.70286 15.6041 1.73929 15.6973 1.79998C15.7904 1.86067 15.8669 1.9437 15.9198 2.04151C15.9727 2.13932 16.0002 2.24879 16 2.35998V25.3333Z" fill="currentColor"/>
</svg>
