<svg viewBox="0 0 32 32" fill="none" xmlns="http://www.w3.org/2000/svg">
<path d="M26.8333 8H30.8333V10.6667H29.5V25.3333H30.8333V28H1.5V25.3333H2.83333V10.6667H1.5V8H5.5V5.33333C5.5 4.97971 5.64048 4.64057 5.89052 4.39052C6.14057 4.14048 6.47971 4 6.83333 4H25.5C25.8536 4 26.1928 4.14048 26.4428 4.39052C26.6929 4.64057 26.8333 4.97971 26.8333 5.33333V8ZM26.8333 10.6667H5.5V25.3333H9.5V16H12.1667V25.3333H14.8333V16H17.5V25.3333H20.1667V16H22.8333V25.3333H26.8333V10.6667ZM8.16667 6.66667V8H24.1667V6.66667H8.16667Z" fill="currentColor"/>
</svg>
