<svg viewBox="0 0 32 32" fill="none" xmlns="http://www.w3.org/2000/svg">
<path d="M4 25.3333V7.59994C3.99992 7.32624 4.08407 7.05915 4.24103 6.83492C4.39798 6.6107 4.62014 6.44021 4.87734 6.34661L17.772 1.65861C17.8727 1.62195 17.9808 1.61012 18.0871 1.62412C18.1934 1.63812 18.2947 1.67754 18.3825 1.73904C18.4703 1.80053 18.5419 1.88229 18.5914 1.97738C18.6409 2.07247 18.6667 2.17809 18.6667 2.28528V8.88927L27.088 11.6959C27.3536 11.7844 27.5846 11.9542 27.7483 12.1813C27.912 12.4084 28.0001 12.6813 28 12.9613V25.3333H30.6667V27.9999H1.33334V25.3333H4ZM6.66667 25.3333H16V5.13994L6.66667 8.53461V25.3333ZM25.3333 25.3333V13.9226L18.6667 11.6999V25.3333H25.3333Z" fill="currentColor"/>
</svg>
