<svg viewBox="0 0 32 32" fill="none" xmlns="http://www.w3.org/2000/svg">
<path d="M20.563 16C20.563 17.25 20.1253 18.3333 19.25 19.25C18.3333 20.1253 17.25 20.563 16 20.563C14.75 20.563 13.6667 20.1253 12.75 19.25C11.8747 18.3333 11.437 17.25 11.437 16C11.437 14.75 11.8747 13.6667 12.75 12.75C13.6667 11.8747 14.75 11.437 16 11.437C17.25 11.437 18.3333 11.8747 19.25 12.75C20.1253 13.6667 20.563 14.75 20.563 16ZM22.875 16C22.875 14.1667 22.2083 12.5417 20.875 11.125C19.4583 9.79168 17.8333 9.12501 16 9.12501C14.1667 9.12501 12.5417 9.79168 11.125 11.125C9.79167 12.5417 9.125 14.1667 9.125 16C9.125 17.8333 9.79167 19.4583 11.125 20.875C12.5417 22.2083 14.1667 22.875 16 22.875C17.8333 22.875 19.4583 22.2083 20.875 20.875C22.2083 19.4583 22.875 17.8333 22.875 16ZM25.125 16C25.125 18.542 24.229 20.688 22.437 22.438C20.687 24.23 18.541 25.126 15.999 25.126C13.457 25.126 11.311 24.23 9.561 22.438C7.769 20.688 6.873 18.542 6.873 16C6.873 13.458 7.769 11.312 9.561 9.56201C11.311 7.77001 13.457 6.87401 15.999 6.87401C18.541 6.87401 20.687 7.77001 22.437 9.56201C24.229 11.312 25.125 13.458 25.125 16ZM27.438 16C27.438 14.5 27.1253 13.0207 26.5 11.562C25.958 10.1453 25.1453 8.93701 24.062 7.93701C23.062 6.85368 21.8537 6.04101 20.437 5.49901C18.9783 4.87368 17.499 4.56101 15.999 4.56101C14.499 4.56101 13.0197 4.87368 11.561 5.49901C10.1443 6.04101 8.936 6.85368 7.936 7.93701C6.85267 8.93701 6.04 10.1453 5.498 11.562C4.87267 13.0207 4.56 14.5 4.56 16C4.56 17.5 4.87267 18.9793 5.498 20.438C6.04 21.8547 6.85267 23.063 7.936 24.063C8.936 25.1463 10.1443 25.959 11.561 26.501C13.0197 27.1263 14.499 27.439 15.999 27.439C17.499 27.439 18.9783 27.1263 20.437 26.501C21.8537 25.959 23.062 25.1463 24.062 24.063C25.1453 23.063 25.958 21.8547 26.5 20.438C27.1253 19.0213 27.438 17.542 27.438 16ZM29.688 16C29.688 18.5833 29.0837 20.875 27.875 22.875C26.625 24.9583 24.9583 26.625 22.875 27.875C20.875 29.0837 18.5833 29.688 16 29.688C13.4167 29.688 11.125 29.0837 9.125 27.875C7.04167 26.625 5.375 24.9583 4.125 22.875C2.91633 20.875 2.312 18.5833 2.312 16C2.312 13.4167 2.91633 11.125 4.125 9.12501C5.375 7.04168 7.04167 5.37501 9.125 4.12501C11.125 2.91635 13.4167 2.31201 16 2.31201C18.5833 2.31201 20.875 2.91635 22.875 4.12501C24.9583 5.37501 26.625 7.04168 27.875 9.12501C29.0837 11.125 29.688 13.4167 29.688 16Z" fill="currentColor"/>
</svg>
