<svg viewBox="0 0 32 32" fill="none" xmlns="http://www.w3.org/2000/svg">
<path fill-rule="evenodd" clip-rule="evenodd" d="M12.0691 1.09845C12.3398 0.937235 12.6713 0.975061 12.8914 1.20424C13.0837 1.40578 13.2079 1.66285 13.2838 1.93493C13.3774 2.26998 13.438 2.59253 13.4886 2.94018C13.648 4.04611 13.772 5.14203 13.8605 6.25804C13.8985 6.74676 13.8909 7.20786 13.7973 7.68399C13.7138 8.10968 13.5468 8.49508 13.3723 8.88803L13.0812 9.54565C12.9446 9.853 13.3875 10.3266 13.7392 10.513C13.8606 10.5785 14.0378 10.5534 14.1617 10.4754C14.9865 9.95137 15.8568 9.54301 16.793 9.23566C18.9512 8.53027 21.2462 8.41953 23.412 9.14758C24.4721 9.50279 25.4615 10.0167 26.3546 10.6818C27.1365 11.2663 27.8274 11.9415 28.3916 12.7351L28.8495 13.4505C29.1911 14.0602 29.4541 14.6976 29.6439 15.3702C29.7729 15.8262 29.854 16.2722 29.9224 16.7433C30.1652 18.4438 29.8211 20.2123 29.1304 21.7767C28.8521 22.4065 28.518 22.9885 28.1233 23.5478C28.0651 23.6309 28.0448 23.7217 28.0422 23.8174L28.0195 24.3767C27.9714 24.8125 27.9159 25.2282 27.8122 25.6565C27.6224 26.45 27.1011 26.8128 26.3269 26.9916C25.6742 27.1428 25.001 27.1025 24.3381 27.2637C24.1686 27.3066 24.0193 27.3797 23.8649 27.4603L22.8151 28.0018C22.2711 28.284 21.7194 28.4805 21.102 28.5258C20.2771 29.0725 19.3891 29.6017 18.4201 29.8209C18.0937 29.8939 17.7874 29.8737 17.5698 29.6319L17.3927 29.8056C16.8942 30.1583 16.1604 30.0249 15.8973 29.4555C15.6595 29.5613 15.3585 29.5159 15.2042 29.3018C15.0018 29.0196 15.0954 28.6014 15.3611 28.3369C15.2877 27.9918 15.485 27.6794 15.7354 27.4325C16.0036 27.168 16.2947 26.9614 16.6363 26.8027L17.4685 26.4627L16.6007 26.3569L16.3072 26.6364C15.9631 26.9261 15.5988 27.1681 15.2067 27.3872C15.0296 27.4855 14.9208 27.634 14.8551 27.8229C14.7766 28.0497 14.6145 28.2562 14.3767 28.3393L13.8353 28.4729C13.7493 28.6518 13.6227 28.818 13.4177 28.8634C13.1723 28.9163 12.9117 28.8759 12.6891 28.7701C12.5702 28.7147 12.4867 28.624 12.3906 28.5384C12.0743 28.813 11.6593 28.9694 11.2419 28.9291C10.9256 28.8988 10.6902 28.6871 10.6345 28.3748C10.3208 28.5637 9.96142 28.5762 9.65529 28.3898L8.41885 27.3383C8.28294 26.9372 8.58127 26.5637 8.93181 26.3416L9.29108 26.1148C9.47067 26.009 9.60235 25.8656 9.71113 25.6867L10.2196 24.8628C9.49858 24.7142 8.83566 24.4674 8.20314 24.1223L7.47942 23.6536C6.25227 22.7492 5.52096 21.3812 5.37421 19.8545C4.61771 19.784 3.94208 19.6178 3.32979 19.1568C3.00342 18.9301 2.82125 18.5924 2.78075 18.202C2.48475 18.1088 2.26454 17.9072 2.1608 17.625C2.06466 17.3656 2.01408 17.1034 2.00143 16.8237C1.9888 16.519 2.0598 16.2344 2.21665 15.9774L2.56331 15.418C2.69484 15.2039 2.77836 14.9847 2.79607 14.7303L2.82893 14.2341C2.84411 14.02 2.92244 13.8234 3.04637 13.6471L3.37031 13.186C3.74731 12.6494 3.68671 12.0246 4.0713 11.5106C4.29395 11.2134 4.57217 10.9765 4.8783 10.7674C5.26795 10.5029 5.65773 10.2763 6.08533 10.0773L7.2516 9.5331L7.67684 9.29126C7.81849 9.21065 7.8969 9.03931 7.85648 8.87056L7.68944 8.17259L7.196 6.63593L6.96077 5.81963C6.62679 4.66581 6.60893 3.06604 7.24147 2.02054C7.52737 1.55198 8.04359 1.28239 8.59009 1.34029C9.08094 1.4335 9.49348 1.72338 9.77686 2.1315C10.0299 2.49677 10.2197 2.88476 10.3867 3.29789C10.7308 2.58243 11.429 1.47888 12.0691 1.09845ZM7.97014 13.3649C7.3098 13.2642 6.69247 13.6018 6.42681 14.2038C6.32309 14.4381 6.26228 14.6724 6.22939 14.9294C6.20155 15.1384 6.14849 15.3199 6.05741 15.5366C6.31802 15.4232 6.54332 15.3828 6.8014 15.4332C7.11256 15.4937 7.4288 15.4862 7.72478 15.3779C8.44334 15.1159 8.75704 14.4708 8.74946 13.7327H8.74699C8.81783 13.6168 8.91405 13.5638 9.00767 13.4631C8.80778 13.5059 8.63815 13.5058 8.45344 13.4655L7.97014 13.3649Z" fill="currentColor"/>
<path d="M8.40817 13.8653C8.41338 14.3749 8.1983 14.8202 7.7057 15.0011C7.50276 15.0759 7.28595 15.0811 7.07261 15.0394C6.89569 15.0046 6.74132 15.0324 6.56266 15.1107C6.62511 14.9611 6.66153 14.8359 6.68061 14.6915C6.70316 14.5141 6.74479 14.3523 6.8159 14.1906C6.99802 13.7748 7.42124 13.5417 7.87395 13.6113L8.20524 13.6809C8.33185 13.7087 8.44807 13.7087 8.58509 13.6792C8.52091 13.7487 8.455 13.7853 8.40644 13.8653H8.40817Z" fill="currentColor"/>
</svg>
