<svg viewBox="0 0 32 32" fill="none" xmlns="http://www.w3.org/2000/svg">
<path d="M27.295 16.6924C27.745 17.1344 28 17.7335 28 18.3571C28 18.9808 27.745 19.5799 27.295 20.0219C26.845 20.4638 26.235 20.7143 25.6 20.7143H6.4C5.7635 20.7143 5.153 20.4638 4.703 20.0219C4.253 19.5799 4 18.9808 4 18.3571C4 17.7335 4.253 17.1344 4.703 16.6924C5.153 16.2504 5.7635 16 6.4 16H25.6C26.235 16 26.845 16.2504 27.295 16.6924ZM26.965 22.5165C27.115 22.6638 27.2 22.8652 27.2 23.0714V23.8571C27.2 24.6478 26.865 25.4924 26.265 26.0817C25.665 26.671 24.805 27 24 27H8C7.1515 27 6.3375 26.671 5.7375 26.0817C5.137 25.4924 4.8 24.6478 4.8 23.8571V23.0714C4.8 22.8652 4.8845 22.6638 5.0345 22.5165C5.1845 22.3692 5.388 22.2857 5.6 22.2857H26.4C26.61 22.2857 26.815 22.3692 26.965 22.5165ZM5.7195 14.2714C5.4965 14.1634 5.3015 14.0112 5.1485 13.8196C4.9955 13.6281 4.8895 13.4071 4.8375 13.1714C4.7855 12.9308 4.79 12.6853 4.8495 12.4496C5.949 8.19295 10.525 5 16 5C21.475 5 26.05 8.19295 27.15 12.4496C27.21 12.6853 27.215 12.9308 27.16 13.1714C27.11 13.4071 27.005 13.6281 26.85 13.8196C26.655 14.0112 26.505 14.1634 26.28 14.2714C26.06 14.3746 25.815 14.4286 25.565 14.4286H6.4335C6.1865 14.4286 5.942 14.3746 5.7195 14.2714ZM21.835 9.15937C21.685 9.3067 21.6 9.50804 21.6 9.71429C21.6 9.87143 21.645 10.0237 21.735 10.1513C21.825 10.279 21.905 10.3821 22.095 10.4411C22.24 10.4558 22.4 10.5147 22.555 10.4853C22.71 10.4558 22.855 10.3821 22.965 10.2692C23.08 10.1612 23.155 10.0188 23.185 9.86652C23.215 9.71429 23.155 9.55714 23.14 9.41473C23.08 9.22812 22.975 9.14955 22.845 9.06116C22.715 8.97277 22.56 8.88437 22.4 8.88437C22.19 8.88437 21.985 9.01205 21.835 9.15937ZM15.435 7.58746C15.285 7.73478 15.2 7.93464 15.2 8.14286C15.2 8.29804 15.245 8.45223 15.335 8.57991C15.425 8.70759 15.505 8.81071 15.695 8.86964C15.84 8.88438 16 8.9433 16.155 8.91384C16.31 8.88437 16.455 8.81071 16.565 8.69777C16.68 8.58973 16.755 8.44732 16.785 8.29607C16.815 8.14384 16.755 7.98571 16.74 7.84232C16.68 7.69844 16.575 7.57567 16.445 7.48973C16.315 7.4033 16.16 7.31295 16 7.31295C15.79 7.31295 15.585 7.44013 15.435 7.58746ZM9.035 9.15937C8.885 9.3067 8.8 9.50804 8.8 9.71429C8.8 9.87143 8.845 10.0237 8.935 10.1513C9.025 10.279 9.105 10.3821 9.295 10.4411C9.44 10.4558 9.6 10.5147 9.755 10.4853C9.91 10.4558 10.055 10.3821 10.165 10.2692C10.28 10.1612 10.355 10.0188 10.385 9.86652C10.415 9.71429 10.355 9.55714 10.34 9.41473C10.28 9.22812 10.175 9.14955 10.045 9.06116C9.915 8.97277 9.76 8.88437 9.6 8.88437C9.39 8.88437 9.185 9.01205 9.035 9.15937Z" fill="currentColor"/>
</svg>
