<svg viewBox="0 0 32 32" fill="none" xmlns="http://www.w3.org/2000/svg">
<path d="M22.5 25.3684H9.5V26.6842C9.5 27.0332 9.36304 27.3679 9.11924 27.6146C8.87544 27.8614 8.54478 28 8.2 28H6.9C6.55522 28 6.22456 27.8614 5.98076 27.6146C5.73696 27.3679 5.6 27.0332 5.6 26.6842V25.3684H4.3V14.8421H3V9.57895H4.3V5.63158C4.3 4.93364 4.57393 4.26429 5.06152 3.77077C5.54912 3.27725 6.21044 3 6.9 3H25.1C25.7896 3 26.4509 3.27725 26.9385 3.77077C27.4261 4.26429 27.7 4.93364 27.7 5.63158V9.57895H29V14.8421H27.7V25.3684H26.4V26.6842C26.4 27.0332 26.263 27.3679 26.0192 27.6146C25.7754 27.8614 25.4448 28 25.1 28H23.8C23.4552 28 23.1246 27.8614 22.8808 27.6146C22.637 27.3679 22.5 27.0332 22.5 26.6842V25.3684ZM6.9 5.63158V17.4737H25.1V5.63158H6.9ZM6.9 20.1053V22.7368H12.1V20.1053H6.9ZM19.9 20.1053V22.7368H25.1V20.1053H19.9Z" fill="currentColor"/>
</svg>
