<svg viewBox="0 0 32 32" fill="none" xmlns="http://www.w3.org/2000/svg">
<path d="M25 5H6.625C6.00391 5 5.5 5.50391 5.5 6.125L5.50047 17C5.50047 19.4844 7.51609 21.5 10.0005 21.5H19.0005C21.4844 21.5 23.5 19.4844 23.5 17H25C28.3108 17 31 14.3103 31 11C31 7.68969 28.3094 5 25 5ZM25 14H23.5V8H25C26.6523 8 28 9.34766 28 11C28 12.6523 26.6547 14 25 14ZM27.25 23H1.75C1.33581 23 1 23.3375 1 23.75C1 24.9922 2.00734 26 3.25 26H25.75C26.9927 26 28 24.9927 28 23.75C28 23.3375 27.6625 23 27.25 23Z" fill="currentColor"/>
</svg>
