<svg viewBox="0 0 32 32" fill="none" xmlns="http://www.w3.org/2000/svg">
<path d="M5.33333 2.66675H26.6667C27.0203 2.66675 27.3594 2.80722 27.6095 3.05727C27.8595 3.30732 28 3.64646 28 4.00008V28.0001C28 28.3537 27.8595 28.6928 27.6095 28.9429C27.3594 29.1929 27.0203 29.3334 26.6667 29.3334H5.33333C4.97971 29.3334 4.64057 29.1929 4.39052 28.9429C4.14048 28.6928 4 28.3537 4 28.0001V4.00008C4 3.64646 4.14048 3.30732 4.39052 3.05727C4.64057 2.80722 4.97971 2.66675 5.33333 2.66675V2.66675ZM6.66667 5.33341V26.6667H25.3333V5.33341H6.66667ZM9.33333 8.00008H22.6667V13.3334H9.33333V8.00008ZM9.33333 16.0001H12V18.6667H9.33333V16.0001ZM9.33333 21.3334H12V24.0001H9.33333V21.3334ZM14.6667 16.0001H17.3333V18.6667H14.6667V16.0001ZM14.6667 21.3334H17.3333V24.0001H14.6667V21.3334ZM20 16.0001H22.6667V24.0001H20V16.0001Z" fill="currentColor"/>
</svg>
