<svg viewBox="0 0 32 32" fill="none" xmlns="http://www.w3.org/2000/svg">
<g clip-path="url(#clip0_103_408)">
<path d="M19.813 24.75L19 25.563C18.958 25.6464 18.833 25.688 18.625 25.688C18.417 25.688 18.271 25.6464 18.187 25.563L14.874 22.188L11.499 25.563C11.4157 25.6464 11.2697 25.688 11.061 25.688C10.8943 25.688 10.7693 25.6464 10.686 25.563L9.873 24.75C9.74767 24.6247 9.685 24.4787 9.685 24.312C9.685 24.1867 9.74767 24.0617 9.873 23.937L13.248 20.562L9.873 17.187C9.74767 17.145 9.685 17.02 9.685 16.812C9.685 16.604 9.74767 16.479 9.873 16.437L10.686 15.562C10.8527 15.4787 10.9777 15.437 11.061 15.437C11.1863 15.437 11.3323 15.4787 11.499 15.562L14.874 18.937L18.187 15.562C18.3537 15.4787 18.4997 15.437 18.625 15.437C18.7917 15.437 18.9167 15.4787 19 15.562L19.813 16.437C19.9383 16.479 20.001 16.604 20.001 16.812C20.001 17.02 19.9383 17.145 19.813 17.187L16.5 20.562L19.813 23.937C19.9383 24.0624 20.001 24.1874 20.001 24.312C20.001 24.4787 19.9383 24.6247 19.813 24.75ZM2.313 29.688H27.438V11.438H2.313V29.688ZM9.125 8.00005V2.87505C9.125 2.74971 9.08333 2.60371 9 2.43705C8.91667 2.35371 8.77067 2.31205 8.562 2.31205H7.437C7.22833 2.31205 7.08233 2.35371 6.999 2.43705C6.91567 2.60371 6.874 2.74971 6.874 2.87505V8.00005C6.874 8.12538 6.91567 8.27138 6.999 8.43805C7.16567 8.52138 7.31167 8.56305 7.437 8.56305H8.562C8.68733 8.56305 8.83333 8.52138 9 8.43805C9.08333 8.27138 9.125 8.12538 9.125 8.00005ZM22.875 8.00005V2.87505C22.875 2.70838 22.8123 2.56238 22.687 2.43705C22.6037 2.35371 22.4787 2.31205 22.312 2.31205H21.124C20.9153 2.31205 20.7903 2.35371 20.749 2.43705C20.6237 2.56238 20.561 2.70838 20.561 2.87505V8.00005C20.561 8.16671 20.6237 8.31271 20.749 8.43805C20.8323 8.52138 20.9573 8.56305 21.124 8.56305H22.312C22.3953 8.56305 22.5203 8.52138 22.687 8.43805C22.8123 8.31271 22.875 8.16671 22.875 8.00005ZM29.688 6.87505V29.688C29.688 30.3547 29.4797 30.8964 29.063 31.313C28.521 31.7717 27.9793 32.001 27.438 32.001H2.313C1.68767 32.001 1.146 31.7717 0.688 31.313C0.23 30.8544 0.000666667 30.3127 0 29.688V6.87505C0 6.24971 0.229333 5.70805 0.688 5.25005C1.14667 4.79205 1.68833 4.56271 2.313 4.56205H4.563V2.87405C4.563 2.08205 4.85467 1.39438 5.438 0.811047C5.98 0.269047 6.64667 -0.00195312 7.438 -0.00195312H8.563C9.355 -0.00195312 10.0217 0.269047 10.563 0.811047C11.1463 1.39438 11.438 2.08205 11.438 2.87405V4.56205H18.313V2.87405C18.313 2.04071 18.584 1.35305 19.126 0.811047C19.668 0.269047 20.3347 -0.00195313 21.126 -0.00195312H22.314C23.106 -0.00195312 23.7727 0.269047 24.314 0.811047C24.8553 1.35305 25.1263 2.04071 25.127 2.87405V4.56205H27.44C27.982 4.56205 28.5237 4.79138 29.065 5.25005C29.4817 5.66671 29.69 6.20838 29.69 6.87505H29.688Z" fill="currentColor"/>
</g>
<defs>
<clipPath id="clip0_103_408">
<rect width="32" height="32" fill="white"/>
</clipPath>
</defs>
</svg>
