<svg viewBox="0 0 32 32" fill="none" xmlns="http://www.w3.org/2000/svg">
<g clip-path="url(#clip0_103_404)">
<path d="M23.25 17.188L14.125 26.376C13.9583 26.4594 13.8123 26.501 13.687 26.501C13.6037 26.501 13.4787 26.4594 13.312 26.376L8.187 21.188C8.06167 21.146 7.999 21.021 7.999 20.813C7.999 20.605 8.06167 20.48 8.187 20.438L9 19.563C9.08333 19.4797 9.20833 19.438 9.375 19.438C9.50033 19.438 9.64633 19.4797 9.813 19.563L13.688 23.501L21.626 15.563C21.7927 15.4797 21.9387 15.438 22.064 15.438C22.1473 15.438 22.2723 15.4797 22.439 15.563L23.252 16.438C23.3773 16.48 23.44 16.605 23.44 16.813C23.44 17.021 23.3773 17.146 23.252 17.188H23.25ZM2.313 29.688H27.438V11.438H2.313V29.688ZM9.125 8.00005V2.87505C9.125 2.74971 9.08333 2.60371 9 2.43705C8.91667 2.35371 8.77067 2.31205 8.562 2.31205H7.437C7.22833 2.31205 7.08233 2.35371 6.999 2.43705C6.91567 2.60371 6.874 2.74971 6.874 2.87505V8.00005C6.874 8.12538 6.91567 8.27138 6.999 8.43805C7.16567 8.52138 7.31167 8.56305 7.437 8.56305H8.562C8.68733 8.56305 8.83333 8.52138 9 8.43805C9.08333 8.27138 9.125 8.12538 9.125 8.00005ZM22.875 8.00005V2.87505C22.875 2.70838 22.8123 2.56238 22.687 2.43705C22.6037 2.35371 22.4787 2.31205 22.312 2.31205H21.124C20.9153 2.31205 20.7903 2.35371 20.749 2.43705C20.6237 2.56238 20.561 2.70838 20.561 2.87505V8.00005C20.561 8.16671 20.6237 8.31271 20.749 8.43805C20.8323 8.52138 20.9573 8.56305 21.124 8.56305H22.312C22.3953 8.56305 22.5203 8.52138 22.687 8.43805C22.8123 8.31271 22.875 8.16671 22.875 8.00005ZM29.688 6.87505V29.688C29.688 30.3547 29.4797 30.8964 29.063 31.313C28.521 31.7717 27.9793 32.001 27.438 32.001H2.313C1.68767 32.001 1.146 31.7717 0.688 31.313C0.23 30.8544 0.000666667 30.3127 0 29.688V6.87505C0 6.24971 0.229333 5.70805 0.688 5.25005C1.14667 4.79205 1.68833 4.56271 2.313 4.56205H4.563V2.87405C4.563 2.08205 4.85467 1.39438 5.438 0.811047C5.98 0.269047 6.64667 -0.00195312 7.438 -0.00195312H8.563C9.355 -0.00195312 10.0217 0.269047 10.563 0.811047C11.1463 1.39438 11.438 2.08205 11.438 2.87405V4.56205H18.313V2.87405C18.313 2.04071 18.584 1.35305 19.126 0.811047C19.668 0.269047 20.3347 -0.00195313 21.126 -0.00195312H22.314C23.106 -0.00195312 23.7727 0.269047 24.314 0.811047C24.8553 1.35305 25.1263 2.04071 25.127 2.87405V4.56205H27.44C27.982 4.56205 28.5237 4.79138 29.065 5.25005C29.4817 5.66671 29.69 6.20838 29.69 6.87505H29.688Z" fill="currentColor"/>
</g>
<defs>
<clipPath id="clip0_103_404">
<rect width="32" height="32" fill="white"/>
</clipPath>
</defs>
</svg>
