<svg viewBox="0 0 32 32" fill="none" xmlns="http://www.w3.org/2000/svg">
<g clip-path="url(#clip0_103_406)">
<path d="M3.43799 29.688H28.563V11.438H3.43799V29.688ZM10.313 8.00005V2.87505C10.313 2.70838 10.2503 2.56238 10.125 2.43705C10.0417 2.35371 9.89566 2.31205 9.68699 2.31205H8.56199C8.35333 2.31205 8.22833 2.35371 8.18699 2.43705C8.06166 2.56238 7.99899 2.70838 7.99899 2.87505V8.00005C7.99899 8.16671 8.06166 8.31271 8.18699 8.43805C8.27033 8.52138 8.39533 8.56305 8.56199 8.56305H9.68699C9.81233 8.56305 9.95833 8.52138 10.125 8.43805C10.2503 8.31271 10.313 8.16671 10.313 8.00005ZM24 8.00005V2.87505C24 2.70838 23.9373 2.56238 23.812 2.43705C23.77 2.35371 23.645 2.31205 23.437 2.31205H22.312C22.1033 2.31205 21.9573 2.35371 21.874 2.43705C21.7487 2.56238 21.686 2.70838 21.686 2.87505V8.00005C21.686 8.16671 21.7487 8.31271 21.874 8.43805C22.0407 8.52138 22.1867 8.56305 22.312 8.56305H23.437C23.6037 8.56305 23.7287 8.52138 23.812 8.43805C23.9373 8.31271 24 8.16671 24 8.00005ZM30.875 6.87505V29.688C30.875 30.3134 30.6457 30.855 30.187 31.313C29.7283 31.771 29.1867 32.0004 28.562 32.001H3.43699C2.81166 32.001 2.26999 31.7717 1.81199 31.313C1.35399 30.8544 1.12466 30.3127 1.12399 29.688V6.87505C1.12399 6.24971 1.35333 5.70805 1.81199 5.25005C2.27066 4.79205 2.81233 4.56271 3.43699 4.56205H5.68699V2.87405C5.68699 2.08205 5.97866 1.39438 6.56199 0.811047C7.10399 0.269047 7.77066 -0.00195312 8.56199 -0.00195312H9.68699C10.5203 -0.00195312 11.208 0.269047 11.75 0.811047C12.292 1.35305 12.563 2.04071 12.563 2.87405V4.56205H19.438V2.87405C19.438 2.04071 19.709 1.35305 20.251 0.811047C20.793 0.269047 21.4807 -0.00195313 22.314 -0.00195312H23.439C24.231 -0.00195312 24.8977 0.269047 25.439 0.811047C26.0223 1.39438 26.314 2.08205 26.314 2.87405V4.56205H28.564C29.1893 4.56205 29.731 4.79138 30.189 5.25005C30.647 5.70871 30.8763 6.25038 30.877 6.87505H30.875Z" fill="currentColor"/>
</g>
<defs>
<clipPath id="clip0_103_406">
<rect width="32" height="32" fill="white"/>
</clipPath>
</defs>
</svg>
