<svg viewBox="0 0 32 32" fill="none" xmlns="http://www.w3.org/2000/svg">
<g clip-path="url(#clip0_103_413)">
<path d="M2.313 29.688H27.438V11.438H2.313V29.688ZM9.125 8.00005V2.87505C9.125 2.74971 9.08333 2.60371 9 2.43705C8.91667 2.35371 8.77067 2.31205 8.562 2.31205H7.437C7.22833 2.31205 7.08233 2.35371 6.999 2.43705C6.91567 2.60371 6.874 2.74971 6.874 2.87505V8.00005C6.874 8.12538 6.91567 8.27138 6.999 8.43805C7.16567 8.52138 7.31167 8.56305 7.437 8.56305H8.562C8.68733 8.56305 8.83333 8.52138 9 8.43805C9.08333 8.27138 9.125 8.12538 9.125 8.00005ZM22.875 8.00005V2.87505C22.875 2.70838 22.8123 2.56238 22.687 2.43705C22.6037 2.35371 22.4787 2.31205 22.312 2.31205H21.124C20.9153 2.31205 20.7903 2.35371 20.749 2.43705C20.6237 2.56238 20.561 2.70838 20.561 2.87505V8.00005C20.561 8.16671 20.6237 8.31271 20.749 8.43805C20.8323 8.52138 20.9573 8.56305 21.124 8.56305H22.312C22.3953 8.56305 22.5203 8.52138 22.687 8.43805C22.8123 8.31271 22.875 8.16671 22.875 8.00005ZM29.688 6.87505V29.688C29.688 30.3547 29.4797 30.8964 29.063 31.313C28.521 31.7717 27.9793 32.001 27.438 32.001H2.313C1.68767 32.001 1.146 31.7717 0.688 31.313C0.23 30.8544 0.000666667 30.3127 0 29.688V6.87505C0 6.24971 0.229333 5.70805 0.688 5.25005C1.14667 4.79205 1.68833 4.56271 2.313 4.56205H4.563V2.87405C4.563 2.08205 4.85467 1.39438 5.438 0.811047C5.98 0.269047 6.64667 -0.00195312 7.438 -0.00195312H8.563C9.355 -0.00195312 10.0217 0.269047 10.563 0.811047C11.1463 1.39438 11.438 2.08205 11.438 2.87405V4.56205H18.313V2.87405C18.313 2.04071 18.584 1.35305 19.126 0.811047C19.668 0.269047 20.3347 -0.00195313 21.126 -0.00195312H22.314C23.106 -0.00195312 23.7727 0.269047 24.314 0.811047C24.8553 1.35305 25.1263 2.04071 25.127 2.87405V4.56205H27.44C27.982 4.56205 28.5237 4.79138 29.065 5.25005C29.4817 5.66671 29.69 6.20838 29.69 6.87505H29.688Z" fill="currentColor"/>
<path d="M15.4394 14.0872H14.2897C14.1124 14.0872 13.9649 14.1461 13.847 14.264C13.7589 14.3521 13.7148 14.4848 13.7148 14.6621L13.671 19.3912L8.94183 19.4351C8.82351 19.3761 8.69081 19.4202 8.54373 19.5673C8.39665 19.7144 8.35258 19.8471 8.4115 19.9654L8.36766 21.159C8.36766 21.2768 8.42659 21.3947 8.54444 21.5125C8.63306 21.6012 8.76576 21.6749 8.94254 21.7339L13.6717 21.69L13.6717 26.463C13.7306 26.6398 13.8044 26.7725 13.893 26.8611C13.9519 26.92 14.0698 26.9789 14.2465 27.0379L15.4401 26.994C15.5585 27.0529 15.6912 27.0089 15.8382 26.8618C15.9853 26.7147 16.0294 26.582 15.9705 26.4637V21.6907H20.7434C20.9202 21.6912 21.0529 21.6471 21.1415 21.5585C21.2594 21.4406 21.3183 21.2931 21.3183 21.1158V19.9661C21.3183 19.8482 21.2594 19.7304 21.1415 19.6125C20.994 19.465 20.8613 19.3912 20.7434 19.3912H15.9705L16.0143 14.6621C16.0138 14.5438 15.9401 14.4111 15.793 14.264C15.6459 14.1169 15.5281 14.058 15.4394 14.0872Z" fill="currentColor"/>
</g>
<defs>
<clipPath id="clip0_103_413">
<rect width="32" height="32" fill="white"/>
</clipPath>
</defs>
</svg>
