<svg viewBox="0 0 32 32" fill="none" xmlns="http://www.w3.org/2000/svg">
<path d="M15.9996 12.6398C17.2029 12.6398 18.2057 13.0511 19.0077 13.8738C19.8098 14.7713 20.2108 15.7998 20.2108 16.9593C20.2108 18.1188 19.7914 19.1284 18.9526 19.9882C18.1505 20.8108 17.1662 21.2222 15.9996 21.2222C14.8329 21.2222 13.8486 20.8108 13.0465 19.9882C12.2077 19.1278 11.7883 18.1182 11.7883 16.9593C11.7883 15.7627 12.2077 14.7342 13.0465 13.8738C13.8486 13.0511 14.8329 12.6398 15.9996 12.6398ZM27.2106 8.32035C27.9765 8.32035 28.6327 8.60096 29.1793 9.16217C29.7258 9.72338 29.9994 10.3965 30 11.1814V24.1389C30 24.8868 29.7264 25.5413 29.1793 26.1025C28.6321 26.7008 27.9759 27 27.2106 27H4.78941C4.06027 27 3.40404 26.7008 2.82072 26.1025C2.27357 25.5413 2 24.8868 2 24.1389V11.1814C2 10.3959 2.27357 9.72278 2.82072 9.16217C3.44079 8.60096 4.09702 8.32035 4.78941 8.32035H8.17993C8.69033 8.32035 9.0549 8.03975 9.27365 7.47854L10.0944 4.84181C10.3131 4.2806 10.6961 4 11.2432 4H20.7585C21.3057 4 21.6886 4.2806 21.9074 4.84181L22.7281 7.47854C22.9468 8.03975 23.3114 8.32035 23.8218 8.32035H27.2123H27.2106ZM15.9996 24.138C17.9321 24.138 19.591 23.4275 20.9764 22.0066C22.3256 20.6227 23.0002 18.9399 23.0002 16.9584C23.0002 14.9391 22.3256 13.2375 20.9764 11.8536C19.6272 10.4698 17.9683 9.77782 15.9996 9.77782C14.0309 9.77782 12.3719 10.4698 11.0227 11.8536C9.67351 13.2375 8.99891 14.9391 8.99891 16.9584C8.99891 18.9405 9.67351 20.6233 11.0227 22.0066C12.4081 23.4275 14.067 24.138 15.9996 24.138ZM26.2262 13.2007C26.4817 13.2007 26.7189 13.0885 26.9376 12.8642C27.1202 12.6769 27.2115 12.4525 27.2115 12.1911C27.2115 11.9667 27.1202 11.7235 26.9376 11.4614C26.6821 11.2742 26.445 11.1805 26.2262 11.1805C25.57 11.1805 25.2419 11.5171 25.2419 12.1902C25.2419 12.527 25.3513 12.7702 25.57 12.9198C25.7526 13.1071 25.9713 13.2007 26.2262 13.2007Z" fill="currentColor"/>
</svg>
