<svg viewBox="0 0 32 32" fill="none" xmlns="http://www.w3.org/2000/svg">
<path d="M17.9493 9.46875L29.4021 23.7949C29.791 24.2832 30 24.8838 30 25.5039V26.6562C30 27.9502 28.9549 29 27.6667 29H4.33333C3.04465 29 2 27.9502 2 26.6562V25.5039C2 24.8838 2.21039 24.2832 2.59646 23.7949L14.0069 9.46875L11.6736 6.53858C11.0951 5.86475 11.2458 4.88135 11.9167 4.34243C12.5875 3.80337 13.5646 3.91265 14.0604 4.58643L16 6.96777L17.8958 4.58643C18.4354 3.91265 19.4125 3.80337 20.0396 4.34243C20.7542 4.88135 20.8611 5.86475 20.2826 6.53858L17.9493 9.46875ZM21.809 25.875L16 18.2432L10.191 25.875H21.809Z" fill="currentColor"/>
</svg>
