<svg viewBox="0 0 32 32" fill="none" xmlns="http://www.w3.org/2000/svg">
<path d="M25.8463 29.608C24.6065 28.1293 21.962 24.7982 21.4376 22.6906C21.2059 21.7595 21.2571 21.0282 21.5118 20.523L11.3738 5.13488L11.6427 4.9557C11.3076 5.17898 10.8536 5.22971 10.5832 4.93059C10.4232 4.75337 10.3118 4.52538 10.413 4.26978C10.6501 3.6708 11.6134 3.05484 12.3156 3.00185C12.6428 2.97719 12.8144 3.20318 12.9046 3.4509C13.0346 3.80811 12.8159 4.17392 12.5005 4.38404L12.7694 4.20486L22.9893 19.7174C23.5339 19.7403 24.1754 19.9631 24.8623 20.4083C26.6347 21.557 28.6534 25.44 29.5029 27.1981C29.7468 27.7033 29.5725 28.303 29.1071 28.6132L27.3123 29.8092C26.8397 30.1242 26.2119 30.0438 25.8463 29.608Z" fill="currentColor"/>
<path d="M6.76251 29.608C8.00226 28.1293 10.6468 24.7982 11.1712 22.6906C11.4029 21.7595 11.3517 21.0282 11.097 20.523L21.2349 5.13488L20.9661 4.9557C21.3012 5.17898 21.7552 5.22971 22.0256 4.93059C22.1856 4.75337 22.297 4.52538 22.1958 4.26978C21.9586 3.6708 20.9954 3.05484 20.2932 3.00185C19.966 2.97719 19.7943 3.20318 19.7041 3.4509C19.5742 3.80811 19.7929 4.17392 20.1082 4.38404L19.8394 4.20486L9.61946 19.7174C9.07493 19.7403 8.43337 19.9631 7.74646 20.4083C5.97412 21.557 3.95534 25.44 3.10586 27.1981C2.86197 27.7033 3.03628 28.303 3.50172 28.6132L5.29644 29.8092C5.76909 30.1242 6.3969 30.0438 6.76251 29.608Z" fill="currentColor"/>
<path d="M19.6765 19.103C17.4439 19.2819 15.0988 19.2988 12.8471 19.1502L16.2769 13.9429L19.6765 19.103Z" fill="currentColor"/>
<path d="M1.48087 6.60395C1.61525 7.16376 1.81825 7.75176 2.11146 8.36403C3.22848 10.6959 8.20077 12.0145 13.6853 12.3242L9.43078 18.7831C5.22017 18.142 1.81933 16.8429 0.894919 14.8824C-0.899811 11.0749 0.37922 8.16399 1.48087 6.60395Z" fill="currentColor"/>
<path d="M30.9602 6.74875C31.8492 8.34006 32.7479 11.1889 31.007 14.8824C30.1263 16.7508 26.9959 18.0178 23.0594 18.6877L18.8629 12.3164C24.3123 11.9976 29.2378 10.6833 30.3486 8.36403C30.6165 7.80454 30.8145 7.2646 30.9602 6.74875Z" fill="currentColor"/>
<path d="M2.00208 6.68252C4.28309 8.09902 8.53533 8.92981 13.1407 9.18346L14.2713 10.8998C8.56094 10.6387 3.26327 9.23824 2.00208 6.68252Z" fill="currentColor"/>
<path d="M30.4981 6.60844C29.3102 9.19782 24.0137 10.6254 18.2825 10.8998L19.4164 9.17785C24.0351 8.90814 28.2768 8.0527 30.4981 6.60844Z" fill="currentColor"/>
</svg>
