<svg viewBox="0 0 32 32" fill="none" xmlns="http://www.w3.org/2000/svg">
<path d="M2.77977 21.7141C2.77633 21.2125 2.83608 20.6671 2.97554 20.0754C4.20288 14.8712 26.8769 8.04875 30.7099 11.7305C31.1086 12.1135 31.4361 12.4999 31.7042 12.8831C32.1916 11.3055 32.3812 8.68729 29.7771 6.15117C25.6679 2.14952 1.48842 9.4249 0.202054 15.05C-0.63784 18.7235 1.3201 20.7501 2.77977 21.7141Z" fill="currentColor"/>
<path d="M31.2849 13.1372C27.2922 9.15037 4.65154 15.9409 3.27269 21.4998C7.9256 16.9719 25.1033 11.8239 31.2849 13.1372Z" fill="currentColor"/>
<path d="M14.8351 22.0654L13.0394 25.6052C12.9194 25.8414 12.9053 26.1044 12.9794 26.3385C13.2035 27.0467 13.9067 27.0471 14.1698 26.9617C14.4028 26.886 14.6076 26.7209 14.7241 26.4859L16.4869 23.0104L15.363 22.4249C15.1764 22.3269 15.0005 22.2041 14.8351 22.0654ZM12.4581 19.1515L15.4384 18.1838L15.0499 18.8558C14.6149 19.5663 14.7975 20.2546 14.8602 20.4526C15.0135 20.9371 15.3531 21.3408 15.7963 21.5718L18.7157 23.0931L19.4646 25.4595C19.6254 25.9675 20.157 26.2445 20.6584 26.0817C21.1598 25.9189 21.4334 25.3804 21.2726 24.8725L20.4632 22.3149C20.3489 21.9537 20.092 21.6465 19.7572 21.475L17.4813 20.2891C17.4909 20.2702 17.511 20.2598 17.5206 20.2409L19.0984 17.129C19.2463 16.8379 19.2688 16.5098 19.1748 16.2127C18.9752 15.5821 18.3083 15.2328 17.6826 15.436L11.8785 17.3201C11.4011 17.4751 11.1274 18.0121 11.2886 18.5214C11.4498 19.0308 11.9807 19.3065 12.4581 19.1515Z" fill="currentColor"/>
<path d="M19.5836 16.049C19.3436 15.2906 19.7565 14.4781 20.5052 14.235C21.2792 13.9837 22.0813 14.4017 22.3212 15.16C22.5612 15.9183 22.1485 16.7308 21.3745 16.9821C20.6513 17.2169 19.8235 16.8073 19.5836 16.049Z" fill="currentColor"/>
</svg>
