<svg viewBox="0 0 32 32" fill="none" xmlns="http://www.w3.org/2000/svg">
<path d="M1.4807 29.9989C1.61512 29.5283 1.81765 29.0335 2.11002 28.519C4.68655 23.9864 27.7709 23.9865 30.3479 28.519C30.6159 28.9907 30.8153 29.4459 30.961 29.8808C31.8501 28.5394 32.7475 26.1379 31.0063 23.0249C28.2587 18.1147 3.64274 18.1148 0.894473 23.0249C-0.899618 26.2325 0.379377 28.6835 1.4807 29.9989Z" fill="currentColor"/>
<path d="M30.4987 30C27.8536 25.1386 4.82421 25.1175 2.00119 29.9366C7.60003 27.0063 25.0748 27.0266 30.4987 30Z" fill="currentColor"/>
<path d="M17.152 5.43013L23.9223 14.4159C24.1522 14.7221 24.2758 15.0988 24.2758 15.4878V16.2106C24.2758 17.0221 23.658 17.6806 22.8964 17.6806H9.10296C8.34116 17.6806 7.72361 17.0221 7.72361 16.2106V15.4878C7.72361 15.0988 7.84798 14.7221 8.07621 14.4159L14.8215 5.43013L13.4422 3.59226C13.1002 3.16962 13.1893 2.5528 13.5858 2.21478C13.9824 1.87667 14.56 1.94521 14.8531 2.36782L15.9997 3.86146L17.1204 2.36782C17.4394 1.94521 18.017 1.87667 18.3877 2.21478C18.8101 2.5528 18.8733 3.16962 18.5314 3.59226L17.152 5.43013ZM19.4337 15.7205L15.9997 10.9337L12.5657 15.7205H19.4337Z" fill="currentColor"/>
</svg>
