<svg viewBox="0 0 32 32" fill="none" xmlns="http://www.w3.org/2000/svg">
<path d="M14.6666 12H27.9999C28.3536 12 28.6927 12.1405 28.9428 12.3905C29.1928 12.6406 29.3333 12.9797 29.3333 13.3333V26.6667C29.3333 27.0203 29.1928 27.3594 28.9428 27.6095C28.6927 27.8595 28.3536 28 27.9999 28H14.6666C14.313 28 13.9738 27.8595 13.7238 27.6095C13.4738 27.3594 13.3333 27.0203 13.3333 26.6667V13.3333C13.3333 12.9797 13.4738 12.6406 13.7238 12.3905C13.9738 12.1405 14.313 12 14.6666 12V12ZM15.9999 14.6667V25.3333H26.6666V14.6667H15.9999ZM7.99994 14.1147L10.4373 11.676L12.3239 13.5627L6.66661 19.2187L1.00928 13.5627L2.89594 11.676L5.33328 14.1147V10.6667C5.33328 8.89856 6.03566 7.20286 7.2859 5.95262C8.53614 4.70238 10.2318 4 11.9999 4H17.3333V6.66667H11.9999C10.9391 6.66667 9.92166 7.08809 9.17152 7.83824C8.42137 8.58839 7.99994 9.6058 7.99994 10.6667V14.1147Z" fill="currentColor"/>
</svg>
