<svg viewBox="0 0 32 32" fill="none" xmlns="http://www.w3.org/2000/svg">
<path d="M15.6759 12H2.34261C1.98899 12 1.64985 12.1405 1.3998 12.3905C1.14975 12.6406 1.00928 12.9797 1.00928 13.3333V26.6667C1.00928 27.0203 1.14975 27.3594 1.3998 27.6095C1.64985 27.8595 1.98899 28 2.34261 28H15.6759C16.0296 28 16.3687 27.8595 16.6188 27.6095C16.8688 27.3594 17.0093 27.0203 17.0093 26.6667V13.3333C17.0093 12.9797 16.8688 12.6406 16.6188 12.3905C16.3687 12.1405 16.0296 12 15.6759 12ZM14.3426 14.6667V25.3333H3.67594V14.6667H14.3426ZM22.3426 14.1147L19.9053 11.676L18.0186 13.5627L23.6759 19.2187L29.3333 13.5627L27.4466 11.676L25.0093 14.1147V10.6667C25.0093 8.89856 24.3069 7.20286 23.0567 5.95262C21.8064 4.70238 20.1107 4 18.3426 4H13.0093V6.66667H18.3426C19.4035 6.66667 20.4209 7.08809 21.171 7.83824C21.9212 8.58839 22.3426 9.6058 22.3426 10.6667V14.1147Z" fill="currentColor"/>
</svg>
