<svg viewBox="0 0 32 32" fill="none" xmlns="http://www.w3.org/2000/svg">
<path d="M5.85672 12.725L7.50625 8.01359C8.13766 6.20844 9.84062 5 11.7531 5H20.2469C22.1594 5 23.8609 6.20844 24.4938 8.01359L26.1437 12.725C27.2312 13.175 28 14.2484 28 15.5V24.5C28 25.3297 27.3297 26 26.5 26H25C24.1703 26 23.5 25.3297 23.5 24.5V22.25H8.5V24.5C8.5 25.3297 7.82828 26 7 26H5.5C4.67172 26 4 25.3297 4 24.5V15.5C4 14.2484 4.76688 13.175 5.85672 12.725ZM9.11406 12.5H22.8859L21.6625 9.00313C21.4516 8.40313 20.8844 8 20.2469 8H11.7531C11.1156 8 10.5484 8.40313 10.3375 9.00313L9.11406 12.5ZM8.5 15.5C7.67172 15.5 7 16.1703 7 17C7 17.8297 7.67172 18.5 8.5 18.5C9.32969 18.5 10 17.8297 10 17C10 16.1703 9.32969 15.5 8.5 15.5ZM23.5 18.5C24.3297 18.5 25 17.8297 25 17C25 16.1703 24.3297 15.5 23.5 15.5C22.6703 15.5 22 16.1703 22 17C22 17.8297 22.6703 18.5 23.5 18.5Z" fill="currentColor"/>
</svg>
