<svg viewBox="0 0 32 32" fill="none" xmlns="http://www.w3.org/2000/svg">
<path d="M18.3079 10.5633C15.4259 9.15795 12.0462 9.98913 10.0447 12.3569L13.0672 15.3814C13.409 15.7231 13.409 16.2743 13.0672 16.6161C12.8962 16.7802 12.6699 16.8679 12.4443 16.8679C12.2188 16.8679 12.0031 16.7802 11.8324 16.6161L9.12592 13.8661L2.1205 28.2367C1.96327 28.5648 1.95643 28.9612 2.1205 29.3101C2.42128 29.9182 3.15955 30.1714 3.76111 29.8777L11.0673 26.3097L8.38217 23.616C8.03343 23.2811 8.03343 22.7203 8.38217 22.3857C8.72397 22.0439 9.2774 22.0439 9.61263 22.3857L12.7287 25.5015L18.3068 22.7734C19.6193 22.1374 20.7404 21.064 21.4311 19.6494C23.0821 16.2776 21.6821 12.2147 18.3079 10.5633ZM23.3391 8.66034C24.4055 6.42929 23.8586 3.79796 21.6383 2C18.8903 4.283 18.7667 7.87838 21.2077 10.3063L21.6452 10.7437C24.1211 13.1826 27.725 13.0623 30 10.3118C28.2008 8.14085 25.5211 7.59403 23.3391 8.66034Z" fill="currentColor"/>
</svg>
