<svg viewBox="0 0 32 32" fill="none" xmlns="http://www.w3.org/2000/svg">
<path d="M14.313 2.56301V14.313H2.56301C2.93834 11.2297 4.23001 8.58368 6.43801 6.37501C8.68801 4.12501 11.313 2.85501 14.313 2.56301ZM17.75 2.56301C21 2.97968 23.771 4.45901 26.063 7.00101C28.313 9.54301 29.438 12.5223 29.438 15.939C29.438 19.6477 28.1253 22.8353 25.5 25.502C22.8747 28.1273 19.687 29.44 15.937 29.44C12.5203 29.44 9.56201 28.315 7.06201 26.065C4.47868 23.815 2.97868 21.0233 2.56201 17.69H16.125C16.5417 17.69 16.9167 17.5233 17.25 17.19C17.5833 16.94 17.75 16.565 17.75 16.065V2.56501V2.56301Z" fill="currentColor"/>
</svg>
