<svg viewBox="0 0 32 32" fill="none" xmlns="http://www.w3.org/2000/svg">
<path d="M31.4897 4.32711C31.8299 3.85134 32 3.89456 32 4.45677V30H0.489539C0.276578 30 0.127573 29.9136 0.0425242 29.7407C-0.0425242 29.5678 0 29.3731 0.170097 29.1567L7.69689 19.6261C8.16499 19.1074 8.59024 19.0857 8.97261 19.5607L11.3965 21.765C11.7367 21.9378 11.9707 22.0029 12.0987 21.96C12.3538 21.96 12.5453 21.8518 12.6732 21.6353L17.8404 13.726C18.1806 13.0773 18.5848 13.0341 19.0529 13.5963L22.6892 17.0329C23.1573 17.5086 23.5826 17.4654 23.965 16.9032L31.4917 4.32607L31.4897 4.32711Z" fill="currentColor"/>
</svg>
