<svg viewBox="0 0 32 32" fill="none" xmlns="http://www.w3.org/2000/svg">
<g clip-path="url(#clip0_154_207)">
<path d="M7.00002 15.188C7.45869 15.188 7.85469 15.3443 8.18802 15.657C8.52136 15.9697 8.68802 16.355 8.68802 16.813V26.813C8.68802 27.2717 8.52136 27.6677 8.18802 28.001C7.85469 28.3343 7.45869 28.501 7.00002 28.501H1.68702C1.22836 28.501 0.832357 28.3343 0.499023 28.001C0.16569 27.6677 -0.000976562 27.2717 -0.000976562 26.813V16.813C-0.000976562 16.3543 0.16569 15.969 0.499023 15.657C0.832357 15.345 1.22836 15.1887 1.68702 15.188H7.00002ZM18.688 3.5C19.1467 3.5 19.532 3.66667 19.844 4C20.156 4.33333 20.3124 4.72933 20.313 5.188V26.813C20.313 27.2717 20.1567 27.6677 19.844 28.001C19.5314 28.3343 19.146 28.501 18.688 28.501H13.313C12.8544 28.501 12.469 28.3343 12.157 28.001C11.845 27.6677 11.6887 27.2717 11.688 26.813V5.188C11.688 4.72933 11.8444 4.33333 12.157 4C12.4697 3.66667 12.855 3.5 13.313 3.5H18.688ZM30.313 11.5C30.7717 11.5 31.1677 11.6667 31.501 12C31.8344 12.3333 32.001 12.7293 32.001 13.188V26.813C32.001 27.2717 31.8344 27.6677 31.501 28.001C31.1677 28.3343 30.7717 28.501 30.313 28.501H25C24.5414 28.501 24.1454 28.3343 23.812 28.001C23.4787 27.6677 23.312 27.2717 23.312 26.813V13.188C23.312 12.7293 23.4787 12.3333 23.812 12C24.1454 11.6667 24.5414 11.5 25 11.5H30.313Z" fill="currentColor"/>
</g>
<defs>
<clipPath id="clip0_154_207">
<rect width="32" height="32" fill="white"/>
</clipPath>
</defs>
</svg>
