<svg viewBox="0 0 32 32" fill="none" xmlns="http://www.w3.org/2000/svg">
<path d="M1.07923 16.168C0.163519 15.9135 -0.169465 15.2984 0.080273 14.3227C0.288721 13.3897 0.850798 13.0504 1.7665 13.3049L4.88823 14.0682L3.26493 16.6769L1.07923 16.168ZM29.4864 16.5496C29.7362 16.2952 30.0692 16.168 30.4854 16.168C30.9436 16.2528 31.2766 16.4224 31.4843 16.6769C32.1923 17.3981 32.1713 18.0981 31.4214 18.7766L23.4298 26.0926C23.1381 26.3471 22.8051 26.4743 22.4308 26.4743C22.1811 26.4743 21.8897 26.3681 21.5567 26.1557L12.4413 19.0311L10.6931 18.5222L12.3164 15.9776L13.4403 16.2321C13.732 16.3169 13.8984 16.4017 13.9397 16.4865L22.3689 23.1023L29.4864 16.5496ZM13.8159 9.42496L2.70252 27.2366C2.45278 27.7455 2.03655 28 1.45383 28C1.24538 28 0.995646 27.8938 0.704618 27.6814C0.329678 27.469 0.121563 27.1722 0.080273 26.7908C0.038317 26.3668 0.100918 26.0061 0.268076 25.7089L12.1936 6.62497C12.3601 6.2857 12.6514 6.05228 13.0677 5.92471C13.4426 5.79715 13.8382 5.86093 14.2544 6.11606L22.0592 11.2051L29.2397 0.645333C29.4894 0.306063 29.8018 0.0940195 30.1767 0.00920203C30.5516 -0.033546 30.9056 0.0726455 31.2386 0.327777C32.0298 0.836682 32.1546 1.49419 31.6132 2.30029L23.6216 14.0692C23.0801 14.8326 22.4142 14.9598 21.6237 14.4509L13.8189 9.42496H13.8159Z" fill="currentColor"/>
</svg>
