<svg viewBox="0 0 32 32" fill="none" xmlns="http://www.w3.org/2000/svg">
<g clip-path="url(#clip0_154_66)">
<path d="M2.438 0.687988V28.876H31.813V31.314H0V0.688988L2.438 0.687988ZM27.813 2.43799L28.751 3.37599L24.063 8.12599C24.1883 8.33466 24.251 8.56399 24.251 8.81399C24.251 9.23066 24.0947 9.58499 23.782 9.87699C23.4693 10.169 23.1047 10.315 22.688 10.315C22.5627 10.315 22.3333 10.2733 22 10.19L18 14.19C18.0833 14.148 18.2293 14.127 18.438 14.127C18.8547 14.127 19.209 14.273 19.501 14.565C19.793 14.857 19.939 15.2113 19.939 15.628C19.939 16.0447 19.793 16.399 19.501 16.691C19.209 16.983 18.8547 17.129 18.438 17.129C18.0213 17.129 17.667 16.983 17.375 16.691C17.083 16.399 16.937 16.0447 16.937 15.628C16.937 15.4193 16.958 15.2733 17 15.19L9.75 22.44C9.62467 23.1487 9.208 23.5653 8.5 23.69L4.062 28.128L3.124 27.128L7.062 23.19C6.85333 22.8567 6.749 22.5233 6.749 22.19C6.749 21.7733 6.895 21.419 7.187 21.127C7.479 20.835 7.83333 20.689 8.25 20.689C8.58333 20.689 8.896 20.7933 9.188 21.002L21.188 9.00199V8.81399C21.188 8.39732 21.334 8.04299 21.626 7.75099C21.918 7.45899 22.2723 7.31299 22.689 7.31299H22.939L27.813 2.43799ZM14 22.188C14.4167 22.188 14.7813 22.334 15.094 22.626C15.4067 22.918 15.563 23.2723 15.563 23.689C15.563 24.1477 15.4067 24.5227 15.094 24.814C14.7813 25.1053 14.4167 25.2513 14 25.252C13.5833 25.2527 13.229 25.0963 12.937 24.783C12.645 24.4697 12.499 24.105 12.499 23.689C12.499 23.273 12.645 22.9187 12.937 22.626C13.229 22.3333 13.5833 22.1873 14 22.188ZM17.75 18.625C18.1667 18.625 18.5313 18.771 18.844 19.063C19.1567 19.355 19.313 19.73 19.313 20.188C19.313 20.6047 19.1567 20.959 18.844 21.251C18.5313 21.543 18.1667 21.689 17.75 21.689C17.3333 21.689 16.979 21.543 16.687 21.251C16.395 20.959 16.249 20.6047 16.249 20.188C16.249 19.7713 16.395 19.4067 16.687 19.094C16.979 18.7813 17.3333 18.625 17.75 18.625ZM11.25 15.25C11.6667 15.25 12.021 15.396 12.313 15.688C12.605 15.98 12.751 16.355 12.751 16.813C12.751 17.2297 12.605 17.584 12.313 17.876C12.021 18.168 11.6667 18.314 11.25 18.314C10.8333 18.314 10.479 18.168 10.187 17.876C9.895 17.584 9.749 17.2297 9.749 16.813C9.749 16.3963 9.895 16.0317 10.187 15.719C10.479 15.4063 10.8333 15.25 11.25 15.25ZM24.25 11.813C24.6667 11.813 25.021 11.9693 25.313 12.282C25.605 12.5947 25.751 12.9593 25.751 13.376C25.751 13.7927 25.605 14.147 25.313 14.439C25.021 14.731 24.6667 14.877 24.25 14.877C23.8333 14.877 23.4687 14.731 23.156 14.439C22.8433 14.147 22.687 13.7927 22.687 13.376C22.687 12.9593 22.8433 12.5947 23.156 12.282C23.4687 11.9693 23.8333 11.813 24.25 11.813ZM16.25 8.06299C16.6667 8.06299 17.021 8.20899 17.313 8.50099C17.605 8.79299 17.751 9.16799 17.751 9.62599C17.751 10.0427 17.605 10.397 17.313 10.689C17.021 10.981 16.6667 11.127 16.25 11.127C15.8333 11.127 15.479 10.981 15.187 10.689C14.895 10.397 14.749 10.0427 14.749 9.62599C14.749 9.20932 14.895 8.84465 15.187 8.53199C15.479 8.21932 15.8333 8.06299 16.25 8.06299ZM24.25 0.937988C24.6667 0.937988 25.021 1.08399 25.313 1.37599C25.605 1.66799 25.751 2.02232 25.751 2.43899C25.751 2.85565 25.605 3.20999 25.313 3.50199C25.021 3.79399 24.6667 3.93999 24.25 3.93999C23.8333 3.93999 23.4687 3.79399 23.156 3.50199C22.8433 3.20999 22.687 2.85565 22.687 2.43899C22.687 2.02232 22.8433 1.66799 23.156 1.37599C23.4687 1.08399 23.8333 0.937988 24.25 0.937988Z" fill="currentColor"/>
</g>
<defs>
<clipPath id="clip0_154_66">
<rect width="32" height="32" fill="white"/>
</clipPath>
</defs>
</svg>
