<svg viewBox="0 0 32 32" fill="none" xmlns="http://www.w3.org/2000/svg">
<path d="M16.313 7.25H16.376C17.2513 7.37533 18.064 8.07333 18.814 9.344C19.564 10.6147 20.2827 12.094 20.97 13.782C21.6573 15.47 22.4387 17.1577 23.314 18.845C24.1893 20.5323 25.356 21.949 26.814 23.095C28.272 24.241 29.9597 24.814 31.877 24.814H0.127014C2.08568 24.814 3.80435 24.2203 5.28301 23.033C6.76168 21.8457 7.93868 20.408 8.81401 18.72C9.68935 17.032 10.4707 15.334 11.158 13.626C11.8453 11.918 12.564 10.4493 13.314 9.22C14.064 7.99067 14.8973 7.33433 15.814 7.251H16.314L16.313 7.25ZM16.063 8.563C15.9797 8.563 15.917 8.584 15.875 8.626V24.689H11.437V14.751L10.874 16.064V24.689H6.49901L6.62401 22.751C5.16535 24.0843 3.49868 24.772 1.62401 24.814H30.749C28.8323 24.814 27.1657 24.2097 25.749 23.001V24.689H21.311V16.314C21.2277 16.1887 21.134 15.9803 21.03 15.689C20.926 15.3977 20.853 15.1893 20.811 15.064V24.689H16.373V8.626C16.331 8.626 16.279 8.61567 16.217 8.595C16.155 8.57433 16.103 8.564 16.061 8.564L16.063 8.563Z" fill="currentColor"/>
</svg>
