<svg viewBox="0 0 32 32" fill="none" xmlns="http://www.w3.org/2000/svg">
<path d="M19.2666 25.3333L16 30L12.7333 25.3333H3.99996C3.64634 25.3333 3.3072 25.1929 3.05715 24.9428C2.8071 24.6928 2.66663 24.3536 2.66663 24V5.33333C2.66663 4.97971 2.8071 4.64057 3.05715 4.39052C3.3072 4.14048 3.64634 4 3.99996 4H28C28.3536 4 28.6927 4.14048 28.9428 4.39052C29.1928 4.64057 29.3333 4.97971 29.3333 5.33333V24C29.3333 24.3536 29.1928 24.6928 28.9428 24.9428C28.6927 25.1929 28.3536 25.3333 28 25.3333H19.2666ZM17.8786 22.6667H26.6666V6.66667H5.33329V22.6667H14.1213L16 25.3493L17.8786 22.6667V22.6667Z" fill="currentColor"/>
</svg>
