<svg viewBox="0 0 32 32" fill="none" xmlns="http://www.w3.org/2000/svg">
<path d="M21.6534 10.6826L13.2401 19.1627L10.0763 15.9989L8.86486 17.2104L12.6338 20.9793C12.903 21.1588 13.1051 21.2485 13.2401 21.2485C13.4648 21.2485 13.6668 21.1588 13.8463 20.9793L22.8649 11.8929L21.6534 10.6826ZM16 2C12.1413 2 8.84332 3.36866 6.10599 6.10599C3.36866 8.84332 2 12.1413 2 16C2 19.8587 3.36866 23.1567 6.10599 25.894C8.84332 28.6313 12.1413 30 16 30C19.8587 30 23.1567 28.6313 25.894 25.894C28.6313 23.1567 30 19.8587 30 16C30 12.1413 28.6313 8.84332 25.894 6.10599C23.1567 3.36866 19.8587 2 16 2ZM16 28.8542C12.455 28.8542 9.42625 27.5979 6.91362 25.0853C4.40099 22.5727 3.14468 19.5439 3.14468 15.9989C3.14468 12.454 4.40099 9.42517 6.91362 6.91254C9.42625 4.39992 12.455 3.1436 16 3.1436C19.545 3.1436 22.5738 4.39992 25.0864 6.91254C27.599 9.42517 28.8553 12.454 28.8553 15.9989C28.8553 19.5439 27.599 22.5727 25.0864 25.0853C22.5738 27.5979 19.545 28.8542 16 28.8542Z" fill="currentColor"/>
</svg>
