<svg viewBox="0 0 32 32" fill="none" xmlns="http://www.w3.org/2000/svg">
<path d="M16 6C13.2319 6 10.8733 6.97476 8.92429 8.92429C6.97524 10.8738 6.00048 13.2324 6 16C5.99952 18.7676 6.97429 21.1262 8.92429 23.0757C10.8743 25.0252 13.2329 26 16 26C18.7671 26 21.1257 25.0252 23.0757 23.0757C25.0257 21.1262 26.0005 18.7676 26 16C25.9995 13.2324 25.0248 10.8738 23.0757 8.92429C21.1267 6.97476 18.7681 6 16 6ZM21.1343 12.6521L14.9286 20.6436C14.839 20.7331 14.7645 20.7779 14.705 20.7779C14.6155 20.7779 14.541 20.7331 14.4814 20.6436L10.9543 17.2507L10.865 17.2057C10.865 17.1757 10.85 17.131 10.82 17.0714V16.9821L10.865 16.8929C10.895 16.8929 10.91 16.8779 10.91 16.8479L12.0264 15.7314C12.0564 15.6419 12.116 15.5971 12.205 15.5971C12.294 15.5971 12.3833 15.6419 12.4729 15.7314L14.4821 17.6514L19.4379 11.2671H19.4829C19.5424 11.2371 19.5871 11.2221 19.6171 11.2221C19.6767 11.2221 19.7214 11.2371 19.7514 11.2671L21.1357 12.3386L21.1807 12.4279V12.5171C21.1807 12.5767 21.1657 12.6214 21.1357 12.6514L21.1343 12.6521Z" fill="currentColor"/>
<path d="M16 2C12.1391 2 8.84048 3.3681 6.10429 6.10429C3.3681 8.84048 2 12.1391 2 16C2 19.8609 3.3681 23.1595 6.10429 25.8957C8.84048 28.6319 12.1391 30 16 30C19.8609 30 23.1595 28.6319 25.8957 25.8957C28.6319 23.1595 30 19.8609 30 16C30 12.1391 28.6319 8.84048 25.8957 6.10429C23.1595 3.3681 19.8609 2 16 2ZM16 5.05455C19.0125 5.05455 21.5898 6.12567 23.7321 8.26793C25.8743 10.4102 26.9455 12.9875 26.9455 16C26.9455 19.0125 25.8743 21.5898 23.7321 23.7321C21.5898 25.8743 19.0125 26.9455 16 26.9455C12.9875 26.9455 10.4102 25.8743 8.26793 23.7321C6.12567 21.5898 5.05455 19.0125 5.05455 16C5.05455 12.9875 6.12567 10.4102 8.26793 8.26793C10.4102 6.12567 12.9875 5.05455 16 5.05455Z" fill="currentColor"/>
</svg>
