<svg viewBox="0 0 32 32" fill="none" xmlns="http://www.w3.org/2000/svg">
<path d="M30 9.33561C30 9.85323 29.8311 10.2632 29.4932 10.5655L13.9729 26.4824C13.5506 26.8275 13.1283 27 12.706 27C12.2411 27 11.8398 26.8275 11.5019 26.4824L2.50677 17.2946C2.16892 16.9495 2 16.5181 2 16.0005C2 15.4829 2.16892 15.0729 2.50677 14.7706L4.91392 12.2467C5.33623 11.9016 5.75854 11.7291 6.18084 11.7291C6.64572 11.7291 7.04708 11.9016 7.38493 12.2467L12.706 17.6818L24.6151 5.51762C24.9529 5.17254 25.3543 5 25.8192 5C26.2415 5 26.6638 5.17254 27.0861 5.51762L29.4932 8.04155C29.8311 8.38663 30 8.81799 30 9.33561Z" fill="currentColor"/>
</svg>
