<svg viewBox="0 0 32 32" fill="none" xmlns="http://www.w3.org/2000/svg">
<path d="M16 2C12.1247 2 8.82267 3.36467 6.094 6.094C3.36533 8.82333 2.00067 12.1253 2 16C1.99933 19.8747 3.364 23.1767 6.094 25.906C8.824 28.6353 12.126 30 16 30C19.874 30 23.176 28.6353 25.906 25.906C28.636 23.1767 30.0007 19.8747 30 16C29.9993 12.1253 28.6347 8.82333 25.906 6.094C23.1773 3.36467 19.8753 2 16 2ZM23.188 11.313L14.5 22.501C14.3747 22.6263 14.2703 22.689 14.187 22.689C14.0617 22.689 13.9573 22.6263 13.874 22.501L8.936 17.751L8.811 17.688C8.811 17.646 8.79 17.5833 8.748 17.5V17.375L8.811 17.25C8.853 17.25 8.874 17.229 8.874 17.187L10.437 15.624C10.479 15.4987 10.5623 15.436 10.687 15.436C10.8117 15.436 10.9367 15.4987 11.062 15.624L13.875 18.312L20.813 9.374H20.876C20.9593 9.332 21.022 9.311 21.064 9.311C21.1473 9.311 21.21 9.332 21.252 9.374L23.19 10.874L23.253 10.999V11.124C23.253 11.2073 23.232 11.27 23.19 11.312L23.188 11.313Z" fill="currentColor"/>
</svg>
