<svg viewBox="0 0 32 32" fill="none" xmlns="http://www.w3.org/2000/svg">
<path fill-rule="evenodd" clip-rule="evenodd" d="M10.9091 8.56522C10.9091 5.77979 13.1883 3.52174 16 3.52174C18.8117 3.52174 21.0909 5.77979 21.0909 8.56522H22.3636C25.1753 8.56522 27.4545 10.8233 27.4545 13.6087C27.4545 16.3942 25.1753 18.6522 22.3636 18.6522H21.0909V22.4348H10.9091V18.6522H9.63636C6.82474 18.6522 4.54545 16.3942 4.54545 13.6087C4.54545 10.8233 6.82474 8.56522 9.63636 8.56522H10.9091ZM8.78162 6.09033C9.81646 3.12757 12.6575 1 16 1C19.3425 1 22.1836 3.12757 23.2184 6.09035C27.0335 6.51129 30 9.71679 30 13.6087C30 17.3572 27.248 20.469 23.6364 21.0693V28.7391L22.3636 30H9.63636L8.36364 28.7391V21.0693C4.75201 20.469 2 17.3572 2 13.6087C2 9.71679 4.96649 6.51129 8.78162 6.09033ZM10.9091 27.4783V24.9565H21.0909V27.4783H10.9091Z" fill="currentColor"/>
</svg>
