<svg viewBox="0 0 32 32" fill="none" xmlns="http://www.w3.org/2000/svg">
<path d="M15.9995 2C8.2685 2 2 8.26806 2 15.9998C2 23.7319 8.2685 30 15.9995 30C23.7316 30 30 23.7319 30 15.9998C30 8.26806 23.7316 2 15.9995 2ZM20.5918 17.2518C20.5814 17.2518 20.5716 17.2513 20.5606 17.2513C21.0085 18.4707 21.4965 20.0697 21.4965 22.4005H10.5035C10.5035 20.0697 10.9915 18.4707 11.4394 17.2513C11.4291 17.2513 11.4186 17.2518 11.4082 17.2518C9.71695 17.2518 8.34665 15.8815 8.34665 14.1902C8.34665 12.5 9.71701 11.1296 11.4082 11.1296C11.8952 11.1296 12.3556 11.2432 12.7645 11.4463C13.4186 10.3405 14.6224 9.59885 16.0005 9.59885C17.3777 9.59885 18.5813 10.3405 19.2355 11.4463C19.6444 11.2432 20.1048 11.1296 20.5918 11.1296C22.283 11.1296 23.6534 12.5 23.6534 14.1902C23.6534 15.8815 22.283 17.2518 20.5918 17.2518Z" fill="currentColor"/>
</svg>
