<svg viewBox="0 0 32 32" fill="none" xmlns="http://www.w3.org/2000/svg">
<path fill-rule="evenodd" clip-rule="evenodd" d="M7.89514 2.37658C7.99884 2.08897 8.36503 1.77409 8.62658 2.11095C8.72623 2.23909 9.34387 1.81593 9.44396 2.47619C9.49693 2.82616 9.45066 3.40178 9.35021 3.68127C9.43611 3.71027 9.51974 3.74517 9.59924 3.78185C9.8769 3.91015 10.0593 4.07594 10.3824 4.17443C11.3399 4.4664 12.7714 6.35212 12.9283 7.94884C13.2061 9.36833 13.5612 10.2938 14.1588 10.8053C15.7183 11.744 19.5558 10.4655 21.361 10.7877C22.8484 9.94986 24.1134 6.48888 24.3981 5.95373C24.5564 5.65592 24.8501 5.31059 25.1686 5.13537C26.14 4.60085 26.4463 6.31838 26.111 7.02795C26.42 6.76074 26.8658 6.48956 27.2916 6.57677C27.6981 7.0419 27.5578 7.87755 27.3697 8.27795C27.6784 8.15359 28.0242 8.08948 28.3102 8.24279C28.551 8.77165 28.2821 9.96902 27.8483 10.5309C28.1851 10.2962 28.3919 10.1155 28.359 10.0895C28.7962 10.8859 27.3726 13.9883 25.7115 14.3444C26.2224 14.3711 26.7198 14.2862 26.8522 14.1461C27.2565 14.8677 26.1374 16.7462 24.9088 17.1852C25.5046 21.5612 20.5097 23.7527 19.9352 23.9176C19.8754 23.9348 19.8143 23.9509 19.7526 23.9654C19.9298 24.4463 20.1799 25.2161 20.2233 25.319C20.3459 25.6081 20.4286 25.6725 20.5602 25.9215C20.6919 26.1701 20.5666 26.3062 20.7057 26.5924C20.8446 26.8786 21.2701 27.2145 21.5953 27.3746C21.9206 27.5345 22.1371 27.7221 22.1959 27.8092C22.2544 27.896 22.3219 27.9815 22.2184 28.1236C22.116 27.8919 21.2487 27.6318 21.2311 27.6266C21.2383 27.6412 21.5786 28.3341 21.4635 28.4957C21.4807 28.7651 20.5422 28.8796 20.402 29.2457C20.3253 29.4465 20.3481 29.7043 20.3492 29.7164C20.3446 29.7129 20.033 29.4761 19.8951 29.192C19.7511 28.7231 20.1422 28.4967 20.1422 28.4967C20.1422 28.4967 19.7491 28.5599 19.4694 28.6822C19.0726 28.698 18.583 28.9787 18.2516 29.0514C17.9231 29.1233 17.5012 29.0968 17.4938 29.0963C17.4938 29.0963 17.1801 29.1954 17.2115 29.5377C17.0105 29.3248 16.9387 29.0017 17.0719 28.8033C17.2185 28.5858 17.6674 28.4047 17.9215 28.359C18.1052 28.3259 18.2854 28.3122 18.3785 28.3268C18.6215 28.3647 19.3717 27.9449 19.3717 27.9449C19.3717 27.9449 18.8646 28.0272 18.4332 28.193C18.3368 28.1887 18.2598 28.2328 18.0641 28.1647C17.9022 28.1689 18.0193 28.2317 17.8287 28.2906C17.8287 28.2906 17.8131 28.1985 17.8365 28.11C17.8884 27.9153 18.0837 27.8158 18.2604 27.7613C18.4099 27.7152 18.5883 27.6755 18.7467 27.65C19.1226 27.5895 19.8485 27.5791 20.066 27.525C20.1437 27.5059 19.9106 26.7191 19.6002 25.9C19.4291 25.4485 19.0418 24.5575 18.8805 24.1031C18.2344 24.1681 17.5925 24.1752 17.1461 24.2516C16.936 24.5943 16.766 24.9911 16.6315 25.4313C16.5537 25.6861 16.4149 25.8912 16.068 25.9713C16.0105 26.4186 15.939 27.0462 15.9283 27.1432C15.898 27.4265 15.9473 27.5061 15.9469 27.7574C15.9472 28.0092 15.7502 28.088 15.7379 28.3736C15.7254 28.6591 15.9701 29.0737 16.2076 29.3082C16.4451 29.5418 16.5621 29.766 16.5748 29.858C16.587 29.9497 16.6082 30.0434 16.4313 30.1334C16.4518 29.9026 15.7154 29.4127 15.7154 29.4127C15.7148 29.4315 15.6882 30.1191 15.4908 30.2223C15.3672 30.4572 14.3789 30.272 14.0485 30.5416C13.8631 30.6931 13.7487 30.9274 13.7487 30.9274C13.7487 30.9274 13.5624 30.6292 13.5748 30.3434C13.6771 29.9056 14.1727 29.8264 14.1832 29.8248C14.1712 29.823 13.7573 29.7613 13.4215 29.7809C13.0209 29.6745 12.3887 29.7662 12.0231 29.7281C11.6573 29.6901 11.2506 29.5377 11.2506 29.5377C11.2381 29.5374 10.8864 29.5331 10.7408 29.8287C10.6536 29.5869 10.7514 29.2895 10.9869 29.1608C11.2458 29.0194 11.7849 29.0012 12.0602 29.0387C12.2591 29.066 12.4442 29.1085 12.5289 29.149C12.749 29.2547 13.7106 29.1236 13.7106 29.1236C13.7106 29.1236 13.1664 29.0401 12.6529 29.0514C12.5599 29.0187 12.4609 29.0333 12.3033 28.9166C12.141 28.8711 12.2236 28.9591 12.0045 28.9518C12.0072 28.9452 12.0397 28.8668 12.1061 28.8014C12.2594 28.6511 12.5054 28.6244 12.7086 28.6315C12.8807 28.6372 13.078 28.6582 13.2477 28.6842C13.6514 28.7461 14.3746 28.9557 14.6178 28.9752C14.7046 28.982 14.885 28.2418 15.0074 27.4508C15.0688 27.0539 15.0984 26.4474 15.1529 26.0445C14.5131 26.15 14.079 26.3513 13.861 25.0778C13.6159 23.6469 12.8173 23.0839 11.9078 22.3834C10.7793 21.9812 9.79106 21.3644 8.98303 20.6569C6.55841 18.5335 6.46478 16.6674 6.97814 13.6412C7.37032 11.3295 7.99212 8.76968 7.94201 7.48888C7.83623 7.67724 7.6214 7.74735 7.24377 7.83263C6.65099 7.96642 6.57972 7.18365 6.35021 6.95373C6.12195 6.72521 6.18251 6.33329 6.18322 6.32873C5.69002 6.23193 5.39016 6.16794 4.97326 6.30138C4.91454 6.20656 5.13099 5.36945 5.83947 5.25353C5.22931 5.09978 5.51807 3.92661 5.8424 3.61388C6.08357 3.38154 6.42156 3.85691 6.25744 3.23205C6.16179 2.8681 6.62408 2.80491 6.73889 2.78576C6.85367 2.76654 6.87171 2.73228 7.00549 2.94299C7.13928 3.15362 7.14829 3.10456 7.10998 2.72131C7.08281 2.4438 7.58974 1.97802 7.73791 2.42345C7.81312 2.64929 7.84133 2.52601 7.89514 2.37658ZM8.5133 5.10607C8.16384 4.69804 7.88415 4.69822 7.53478 5.10607C7.46197 5.19119 7.32182 5.18366 7.30041 5.19494C7.35852 5.21727 7.49338 5.247 7.53478 5.29552C7.60769 5.38087 7.70509 5.60006 7.96057 5.60021C8.22845 5.60021 8.33429 5.5046 8.5133 5.29552C8.55493 5.24698 8.68986 5.21724 8.74767 5.19494C8.73166 5.1857 8.58645 5.19144 8.5133 5.10607Z" fill="currentColor"/>
<path d="M8.3 5.19993C8.3 5.36561 8.16568 5.49993 8 5.49993C7.83431 5.49993 7.7 5.36561 7.7 5.19993C7.7 5.03424 7.83431 4.89993 8 4.89993C8.16568 4.89993 8.3 5.03424 8.3 5.19993Z" fill="currentColor"/>
</svg>
