<svg viewBox="0 0 32 32" fill="none" xmlns="http://www.w3.org/2000/svg">
<path d="M30 16C30 18.6422 29.3819 20.9861 28.1457 23.0317C26.8672 25.1625 25.1625 26.8672 23.0317 28.1457C20.9861 29.3819 18.6422 30 16 30C13.3578 30 11.0139 29.3819 8.96829 28.1457C6.83747 26.8672 5.13282 25.1625 3.85432 23.0317C2.61811 20.9861 2 18.6422 2 16C2 13.3578 2.61811 11.0139 3.85432 8.96829C5.13282 6.83747 6.83747 5.13282 8.96829 3.85432C11.0139 2.61811 13.3578 2 16 2C18.6422 2 20.9861 2.61811 23.0317 3.85432C25.1625 5.13282 26.8672 6.83747 28.1457 8.96829C29.3819 11.0139 30 13.3578 30 16Z" fill="currentColor"/>
</svg>
