<svg viewBox="0 0 32 32" fill="none" xmlns="http://www.w3.org/2000/svg">
<g clip-path="url(#clip0_83_44)">
<path d="M29.688 29.125V9.68702C29.688 9.52036 29.6463 9.39536 29.563 9.31202C29.4377 9.18669 29.2917 9.12402 29.125 9.12402H9.68699C9.56165 9.12402 9.43665 9.18669 9.31199 9.31202C9.18732 9.43736 9.12465 9.56236 9.12399 9.68702V29.125C9.12399 29.2917 9.18665 29.4377 9.31199 29.563C9.39532 29.6464 9.52032 29.688 9.68699 29.688H29.125C29.3337 29.688 29.4797 29.6464 29.563 29.563C29.6463 29.4797 29.688 29.3337 29.688 29.125ZM32 9.68802V29.126C32 29.9594 31.729 30.647 31.187 31.189C30.645 31.731 29.9573 32.002 29.124 32.002H9.68599C8.89399 32.002 8.22732 31.731 7.68599 31.189C7.14465 30.647 6.87365 29.9594 6.87299 29.126V9.68802C6.87299 8.89602 7.14399 8.22936 7.68599 7.68802C8.22799 7.14669 8.89465 6.87569 9.68599 6.87502H29.124C29.9573 6.87502 30.645 7.14602 31.187 7.68802C31.729 8.23002 32 8.89669 32 9.68802ZM25.125 2.87502V5.68802H22.875V2.87502C22.875 2.70836 22.8123 2.56236 22.687 2.43702C22.6037 2.35369 22.4787 2.31202 22.312 2.31202H2.87399C2.66532 2.31202 2.51932 2.35369 2.43599 2.43702C2.35265 2.52036 2.31099 2.66636 2.31099 2.87502V22.313C2.31099 22.4797 2.35265 22.6047 2.43599 22.688C2.56132 22.8134 2.70732 22.876 2.87399 22.876H5.68699V25.126H2.87399C2.04065 25.126 1.35299 24.855 0.810986 24.313C0.268986 23.771 -0.00201416 23.1044 -0.00201416 22.313V2.87502C-0.00201416 2.04169 0.268986 1.35402 0.810986 0.812023C1.35299 0.270023 2.04065 -0.000976563 2.87399 -0.000976562H22.312C23.104 -0.000976562 23.7707 0.270023 24.312 0.812023C24.8533 1.35402 25.1243 2.04169 25.125 2.87502Z" fill="currentColor"/>
</g>
<defs>
<clipPath id="clip0_83_44">
<rect width="32" height="32" fill="white"/>
</clipPath>
</defs>
</svg>
