<svg viewBox="0 0 32 32" fill="none" xmlns="http://www.w3.org/2000/svg">
<path d="M25.894 6.10599C23.1567 3.36866 19.8587 2 16 2C12.1413 2 8.84332 3.36866 6.10599 6.10599C3.36866 8.84332 2 12.1413 2 16C2 19.8587 3.36866 23.1567 6.10599 25.894C8.84332 28.6313 12.1413 30 16 30C19.8587 30 23.1567 28.6313 25.894 25.894C28.6313 23.1567 30 19.8587 30 16C30 12.1413 28.6313 8.84332 25.894 6.10599ZM25.0864 25.0853C22.6183 27.5534 19.601 28.7875 16.0345 28.7875C12.468 28.7875 9.42804 27.5534 6.9147 25.0853C4.44658 22.6172 3.21252 19.5999 3.21252 16.0334C3.21252 12.4669 4.44658 9.42697 6.9147 6.91362C9.42733 4.4455 12.4672 3.21145 16.0345 3.21145C19.6017 3.21145 22.619 4.4455 25.0864 6.91362C27.5545 9.42625 28.7886 12.4662 28.7886 16.0334C28.7886 19.6006 27.5545 22.6179 25.0864 25.0853ZM21.6534 9.53788L16 15.1913L10.3466 9.53788L9.53896 10.3455L15.1924 15.9989L9.53896 21.6523L10.3466 22.46L16 16.8066L21.6534 22.46L22.461 21.6523L16.8076 15.9989L22.461 10.3455L21.6534 9.53788Z" fill="currentColor"/>
</svg>
