<svg viewBox="0 0 32 32" fill="none" xmlns="http://www.w3.org/2000/svg">
<path d="M16 2C12.1391 2 8.84048 3.3681 6.10429 6.10429C3.3681 8.84048 2 12.1391 2 16C2 19.8609 3.3681 23.1595 6.10429 25.8957C8.84048 28.6319 12.1391 30 16 30C19.8609 30 23.1595 28.6319 25.8957 25.8957C28.6319 23.1595 30 19.8609 30 16C30 12.1391 28.6319 8.84048 25.8957 6.10429C23.1595 3.3681 19.8609 2 16 2ZM16 5.05455C19.0125 5.05455 21.5898 6.12567 23.7321 8.26793C25.8743 10.4102 26.9455 12.9875 26.9455 16C26.9455 19.0125 25.8743 21.5898 23.7321 23.7321C21.5898 25.8743 19.0125 26.9455 16 26.9455C12.9875 26.9455 10.4102 25.8743 8.26793 23.7321C6.12567 21.5898 5.05455 19.0125 5.05455 16C5.05455 12.9875 6.12567 10.4102 8.26793 8.26793C10.4102 6.12567 12.9875 5.05455 16 5.05455Z" fill="currentColor"/>
<path d="M16 6C13.2319 6 10.8733 6.97476 8.92429 8.92429C6.97524 10.8738 6.00048 13.2324 6 16C5.99952 18.7676 6.97429 21.1262 8.92429 23.0757C10.8743 25.0252 13.2329 26 16 26C18.7671 26 21.1257 25.0252 23.0757 23.0757C25.0257 21.1262 26.0005 18.7676 26 16C25.9995 13.2324 25.0248 10.8738 23.0757 8.92429C21.1267 6.97476 18.7681 6 16 6ZM20.8214 19.3929C20.911 19.4229 20.9557 19.4974 20.9557 19.6164C20.9557 19.706 20.911 19.7952 20.8214 19.8843L19.8836 20.8221C19.794 20.9117 19.7048 20.9564 19.6157 20.9564C19.5267 20.9564 19.4521 20.9117 19.3921 20.8221L15.9993 17.4736L12.6507 20.8664C12.5317 20.926 12.4424 20.9557 12.3829 20.9557C12.3233 20.9557 12.234 20.926 12.115 20.8664L11.1771 19.8843C11.1176 19.8248 11.0879 19.7355 11.0879 19.6164C11.0879 19.4974 11.1176 19.4229 11.1771 19.3929L14.57 16L11.1771 12.6514C10.9986 12.4729 10.9986 12.2943 11.1771 12.1157L12.115 11.1779C12.2045 11.0883 12.2938 11.0436 12.3829 11.0436C12.4719 11.0436 12.5464 11.0883 12.6064 11.1779L15.9993 14.4814L19.3921 11.1779C19.4517 11.0883 19.5262 11.0436 19.6157 11.0436C19.7648 11.0436 19.854 11.0883 19.8836 11.1779L20.8657 12.1157C21.0443 12.2943 21.0443 12.4729 20.8657 12.6514L17.4729 16L20.8214 19.3929Z" fill="currentColor"/>
</svg>
