<svg viewBox="0 0 32 32" fill="none" xmlns="http://www.w3.org/2000/svg">
<path d="M27.4925 24.2886V7.71144C27.4925 6.87562 27.1675 6.13267 26.5174 5.48259C25.8673 4.8325 25.1244 4.50746 24.2886 4.50746H7.71144C6.87562 4.50746 6.13267 4.8325 5.48259 5.48259C4.8325 6.13267 4.50746 6.87562 4.50746 7.71144V24.2886C4.50746 25.1244 4.8325 25.8673 5.48259 26.5174C6.08661 27.1214 6.82956 27.4234 7.71144 27.4234H24.2886C25.1712 27.4234 25.9141 27.1214 26.5174 26.5174C27.1675 25.8673 27.4925 25.1244 27.4925 24.2886ZM30 7.71144V24.2886C30 25.8673 29.4428 27.2139 28.3284 28.3284C27.2139 29.4428 25.8673 30 24.2886 30H7.71144C6.13267 30 4.78607 29.4428 3.67164 28.3284C2.55721 27.2139 2 25.8673 2 24.2886V7.71144C2 6.13267 2.55721 4.78607 3.67164 3.67164C4.78607 2.55721 6.13267 2 7.71144 2H24.2886C25.8673 2 27.2139 2.55721 28.3284 3.67164C29.4428 4.78607 30 6.13267 30 7.71144Z" fill="currentColor"/>
<path d="M22.7464 10.138L21.8599 9.2515C21.7285 9.12017 21.5641 9.0545 21.3666 9.0545C21.2352 8.9883 21.0873 9.03743 20.9229 9.20186L15.9481 14.1766L11.023 9.2515C10.9243 9.15274 10.7764 9.07052 10.5794 9.00485C10.3824 9.07052 10.2345 9.15274 10.1357 9.2515L9.24918 10.138C9.15042 10.2368 9.0682 10.3847 9.00253 10.5817C9.0682 10.7787 9.15042 10.9266 9.24918 11.0253L14.1743 15.9505L9.19954 20.9252C9.03563 21.0891 8.98651 21.237 9.05218 21.3689C9.05218 21.5664 9.11785 21.7308 9.24918 21.8622L10.1357 22.7487C10.2996 22.9126 10.4475 22.9617 10.5794 22.8961C10.7107 22.9623 10.8586 22.9131 11.023 22.7487L15.9978 17.7739L20.9725 22.7487C21.0382 22.8144 21.1696 22.88 21.3666 22.9457C21.5641 22.9457 21.7285 22.88 21.8599 22.7487L22.7464 21.8622C22.8777 21.7308 22.9434 21.5664 22.9434 21.3689C22.8777 21.1719 22.812 21.0405 22.7464 20.9749L17.7716 16.0001L22.7464 11.0253C22.9103 10.8614 22.9594 10.7135 22.8937 10.5817C22.9599 10.4503 22.9108 10.3025 22.7464 10.138Z" fill="currentColor"/>
</svg>
