<svg viewBox="0 0 32 32" fill="none" xmlns="http://www.w3.org/2000/svg">
<path d="M16 2.06299C12.1247 2.06299 8.82267 3.42765 6.094 6.15699C3.36533 8.88632 2.00067 12.1883 2 16.063C1.99933 19.9377 3.364 23.2397 6.094 25.969C8.824 28.6983 12.126 30.063 16 30.063C19.874 30.063 23.176 28.6983 25.906 25.969C28.636 23.2397 30.0007 19.9377 30 16.063C29.9993 12.1883 28.6347 8.88632 25.906 6.15699C23.1773 3.42765 19.8753 2.06299 16 2.06299ZM22.75 20.813C22.8753 20.855 22.938 20.9593 22.938 21.126C22.938 21.2513 22.8753 21.3763 22.75 21.501L21.437 22.814C21.3117 22.9393 21.1867 23.002 21.062 23.002C20.9373 23.002 20.833 22.9393 20.749 22.814L15.999 18.126L11.311 22.876C11.1443 22.9593 11.0193 23.001 10.936 23.001C10.8527 23.001 10.7277 22.9593 10.561 22.876L9.248 21.501C9.16467 21.4177 9.123 21.2927 9.123 21.126C9.123 20.9593 9.16467 20.855 9.248 20.813L13.998 16.063L9.248 11.375C8.998 11.125 8.998 10.875 9.248 10.625L10.561 9.31199C10.6863 9.18666 10.8113 9.12399 10.936 9.12399C11.0607 9.12399 11.165 9.18666 11.249 9.31199L15.999 13.937L20.749 9.31199C20.8323 9.18666 20.9367 9.12399 21.062 9.12399C21.2707 9.12399 21.3957 9.18666 21.437 9.31199L22.812 10.625C23.062 10.875 23.062 11.125 22.812 11.375L18.062 16.063L22.75 20.813Z" fill="currentColor"/>
</svg>
