<svg viewBox="0 0 32 32" fill="none" xmlns="http://www.w3.org/2000/svg">
<path d="M27.6887 24.1872L19.4716 15.9375L27.6887 7.81284C28.1038 7.43752 28.1038 7.04154 27.6887 6.62489L25.385 4.24999C25.136 4.08333 24.9285 4 24.7625 4C24.5964 4 24.3889 4.08333 24.1399 4.24999L15.9846 12.3747L7.82918 4.24999C7.58018 4.08333 7.37268 4 7.20667 4C7.04067 4 6.83317 4.08333 6.58416 4.24999L4.28038 6.62489C3.90654 7.00021 3.90654 7.41686 4.28038 7.87484L12.4975 15.9995L4.28038 24.1872C4.11438 24.4371 4.03137 24.6455 4.03137 24.8121C4.03137 24.9788 4.11438 25.1871 4.28038 25.4371L6.64592 27.75C6.81192 27.9167 7.01942 28 7.26843 28C7.51743 28 7.70435 27.9167 7.82918 27.75L15.9846 19.5624L24.1399 27.75C24.2648 27.9167 24.4723 28 24.7625 28C25.0115 28 25.1984 27.9167 25.3232 27.75L27.6887 25.4371C27.8547 25.1871 27.9377 24.9788 27.9377 24.8121C27.9377 24.6455 27.8547 24.4371 27.6887 24.1872Z" fill="currentColor"/>
</svg>
