<svg viewBox="0 0 32 32" fill="none" xmlns="http://www.w3.org/2000/svg">
<path d="M16 2C12.1391 2 8.84048 3.3681 6.10429 6.10429C3.3681 8.84048 2 12.1391 2 16C2 19.8609 3.3681 23.1595 6.10429 25.8957C8.84048 28.6319 12.1391 30 16 30C19.8609 30 23.1595 28.6319 25.8957 25.8957C28.6319 23.1595 30 19.8609 30 16C30 12.1391 28.6319 8.84048 25.8957 6.10429C23.1595 3.3681 19.8609 2 16 2ZM16 5.05455C19.0125 5.05455 21.5898 6.12567 23.7321 8.26793C25.8743 10.4102 26.9455 12.9875 26.9455 16C26.9455 19.0125 25.8743 21.5898 23.7321 23.7321C21.5898 25.8743 19.0125 26.9455 16 26.9455C12.9875 26.9455 10.4102 25.8743 8.26793 23.7321C6.12567 21.5898 5.05455 19.0125 5.05455 16C5.05455 12.9875 6.12567 10.4102 8.26793 8.26793C10.4102 6.12567 12.9875 5.05455 16 5.05455Z" fill="currentColor"/>
<path d="M22.75 20.813C22.8753 20.855 22.938 20.9594 22.938 21.126C22.938 21.2514 22.8753 21.3764 22.75 21.501L21.437 22.814C21.3117 22.9394 21.1867 23.002 21.062 23.002C20.9373 23.002 20.833 22.9394 20.749 22.814L15.999 18.126L11.311 22.876C11.1443 22.9594 11.0193 23.001 10.936 23.001C10.8527 23.001 10.7277 22.9594 10.561 22.876L9.24799 21.501C9.16465 21.4177 9.12299 21.2927 9.12299 21.126C9.12299 20.9594 9.16465 20.855 9.24799 20.813L13.998 16.063L9.24799 11.375C8.99799 11.125 8.99799 10.875 9.24799 10.625L10.561 9.31202C10.6863 9.18669 10.8113 9.12402 10.936 9.12402C11.0607 9.12402 11.165 9.18669 11.249 9.31202L15.999 13.937L20.749 9.31202C20.8323 9.18669 20.9367 9.12402 21.062 9.12402C21.2707 9.12402 21.3957 9.18669 21.437 9.31202L22.812 10.625C23.062 10.875 23.062 11.125 22.812 11.375L18.062 16.063L22.75 20.813Z" fill="currentColor"/>
</svg>
