<svg viewBox="0 0 32 32" fill="none" xmlns="http://www.w3.org/2000/svg">
<path d="M24.6059 9.27009C24.9964 8.87957 24.9964 8.24641 24.6059 7.85588L24.1451 7.3951C23.7546 7.00457 23.1214 7.00457 22.7309 7.39509L16 14.126L9.2691 7.3951C8.87858 7.00457 8.24541 7.00457 7.85489 7.39509L7.3941 7.85588C7.00358 8.24641 7.00358 8.87957 7.3941 9.27009L14.125 16.001L7.3941 22.7319C7.00358 23.1224 7.00358 23.7556 7.3941 24.1461L7.85489 24.6069C8.24541 24.9974 8.87858 24.9974 9.2691 24.6069L16 17.876L22.7309 24.6069C23.1214 24.9974 23.7546 24.9974 24.1451 24.6069L24.6059 24.1461C24.9964 23.7556 24.9964 23.1224 24.6059 22.7319L17.875 16.001L24.6059 9.27009Z" fill="currentColor"/>
</svg>
