<svg viewBox="0 0 32 32" fill="none" xmlns="http://www.w3.org/2000/svg">
<path d="M22.6667 9.33317C20.4951 9.33299 18.3751 9.99539 16.5899 11.2319C14.8047 12.4684 13.4393 14.2201 12.676 16.2532L15.1747 17.1905C15.8347 15.4377 17.0885 13.9719 18.7179 13.0484C20.3474 12.1249 22.2491 11.8021 24.0919 12.1363C25.9348 12.4705 27.6021 13.4404 28.8035 14.8773C30.0048 16.3142 30.6642 18.1269 30.6667 19.9998C30.6667 22.1216 29.8238 24.1564 28.3235 25.6567C26.8232 27.157 24.7884 27.9998 22.6667 27.9998H9.33335C7.44432 28.001 5.61581 27.3337 4.1716 26.1161C2.72739 24.8984 1.76064 23.209 1.44256 21.3469C1.12447 19.4849 1.47556 17.5703 2.43366 15.9423C3.39176 14.3143 4.89505 13.0778 6.67735 12.4518C6.56314 10.1487 7.30562 7.88474 8.76164 6.09653C10.2177 4.30832 12.2841 3.12244 14.5627 2.7675C16.8412 2.41256 19.1704 2.9137 21.1014 4.1743C23.0323 5.4349 24.4282 7.36572 25.02 9.5945C24.2476 9.42062 23.4584 9.33297 22.6667 9.33317V9.33317Z" fill="currentColor"/>
</svg>
