<svg viewBox="0 0 32 32" fill="none" xmlns="http://www.w3.org/2000/svg">
<path d="M15.6465 17.1348C15.8417 16.9396 16.1582 16.9396 16.3535 17.1348L21.6573 22.4374L19.7706 24.3241L17.3333 21.8867V29.3334H14.6666V21.8841L12.2293 24.3241L10.3426 22.4374L15.6465 17.1348ZM16 2.66675C18.2893 2.66686 20.4987 3.50823 22.2082 5.03091C23.9177 6.55358 25.0081 8.65137 25.272 10.9254C26.931 11.3778 28.3783 12.3989 29.3609 13.8101C30.3434 15.2214 30.7988 16.933 30.6475 18.6459C30.4961 20.3589 29.7476 21.9641 28.5327 23.1812C27.3179 24.3982 25.714 25.1496 24.0013 25.3041V22.6188C24.6149 22.5311 25.2048 22.3222 25.7368 22.004C26.2687 21.6859 26.7319 21.265 27.0994 20.766C27.4669 20.2669 27.7313 19.6996 27.8771 19.0972C28.023 18.4948 28.0474 17.8694 27.9489 17.2575C27.8505 16.6456 27.6311 16.0594 27.3036 15.5332C26.9761 15.007 26.5471 14.5513 26.0416 14.1927C25.5361 13.8341 24.9642 13.5798 24.3593 13.4446C23.7545 13.3095 23.1287 13.2961 22.5186 13.4054C22.7275 12.4333 22.7162 11.4267 22.4856 10.4595C22.255 9.49226 21.811 8.58886 21.1861 7.81545C20.5612 7.04205 19.7712 6.41822 18.8739 5.98967C17.9767 5.56113 16.995 5.33871 16.0006 5.33871C15.0063 5.33871 14.0246 5.56113 13.1274 5.98967C12.2301 6.41822 11.4401 7.04205 10.8152 7.81545C10.1903 8.58886 9.74626 9.49226 9.51569 10.4595C9.28512 11.4267 9.27383 12.4333 9.48265 13.4054C8.26619 13.177 7.0088 13.4411 5.98711 14.1398C4.96541 14.8384 4.26309 15.9143 4.03465 17.1307C3.80621 18.3472 4.07036 19.6046 4.769 20.6263C5.46763 21.648 6.54352 22.3503 7.75998 22.5787L7.99998 22.6188V25.3041C6.28725 25.1499 4.68319 24.3986 3.46816 23.1817C2.25313 21.9647 1.50442 20.3595 1.35288 18.6465C1.20134 16.9335 1.65662 15.2218 2.63914 13.8104C3.62166 12.3991 5.06892 11.3779 6.72798 10.9254C6.99159 8.65125 8.08185 6.5533 9.79142 5.03057C11.501 3.50784 13.7106 2.66657 16 2.66675Z" fill="currentColor"/>
</svg>
