<svg viewBox="0 0 32 32" fill="none" xmlns="http://www.w3.org/2000/svg">
<path d="M22.6666 28H9.33329C7.44426 28.0012 5.61575 27.3339 4.17154 26.1163C2.72732 24.8986 1.76058 23.2092 1.4425 21.3471C1.12441 19.4851 1.4755 17.5705 2.4336 15.9425C3.3917 14.3145 4.89499 13.078 6.67729 12.452C6.61691 11.1902 6.8133 9.92933 7.25457 8.74568C7.69583 7.56202 8.37278 6.48026 9.24441 5.56593C10.116 4.65159 11.1642 3.92371 12.3254 3.42637C13.4866 2.92904 14.7367 2.67261 16 2.67261C17.2632 2.67261 18.5133 2.92904 19.6745 3.42637C20.8357 3.92371 21.8839 4.65159 22.7555 5.56593C23.6271 6.48026 24.3041 7.56202 24.7453 8.74568C25.1866 9.92933 25.383 11.1902 25.3226 12.452C27.1049 13.078 28.6082 14.3145 29.5663 15.9425C30.5244 17.5705 30.8755 19.4851 30.5574 21.3471C30.2393 23.2092 29.2726 24.8986 27.8284 26.1163C26.3842 27.3339 24.5556 28.0012 22.6666 28ZM22.6666 12C22.667 11.1107 22.4893 10.2303 22.1443 9.41065C21.7992 8.59101 21.2936 7.84869 20.6572 7.22742C20.0209 6.60614 19.2667 6.11846 18.439 5.79308C17.6114 5.46771 16.727 5.31123 15.8379 5.33284C14.9488 5.35446 14.0731 5.55374 13.2622 5.91896C12.4513 6.28417 11.7217 6.80793 11.1163 7.4594C10.511 8.11087 10.042 8.87688 9.73719 9.71233C9.43234 10.5478 9.29773 11.4358 9.34129 12.324L9.43462 14.308L7.56262 14.9667C6.37663 15.3861 5.37696 16.2111 4.74009 17.2959C4.10321 18.3808 3.8701 19.6558 4.0819 20.8958C4.2937 22.1358 4.93679 23.2611 5.89764 24.0731C6.85849 24.885 8.07532 25.3314 9.33329 25.3334H22.6666C23.6484 25.333 24.6111 25.0617 25.4485 24.5493C26.286 24.0369 26.9657 23.3032 27.4129 22.4292C27.8601 21.5552 28.0573 20.5747 27.9829 19.5957C27.9084 18.6167 27.5652 17.6773 26.991 16.8809C26.4169 16.0845 25.634 15.4621 24.7287 15.0822C23.8234 14.7023 22.8308 14.5796 21.8602 14.7277C20.8897 14.8759 19.9789 15.289 19.2281 15.9217C18.4773 16.5543 17.9158 17.382 17.6053 18.3134L15.0746 17.4694C15.6064 15.8765 16.6257 14.4913 17.9882 13.5098C19.3507 12.5282 20.9874 12 22.6666 12Z" fill="currentColor"/>
</svg>
