<svg viewBox="0 0 32 32" fill="none" xmlns="http://www.w3.org/2000/svg">
<path d="M10.7435 22.2135L9.99252 22.962C9.88496 23.0692 9.75966 23.1228 9.61663 23.1228C9.43755 23.1228 9.33027 23.0692 9.2948 22.962L2.10728 15.8515C2.03576 15.7089 2 15.584 2 15.4768C2 15.4056 2.03576 15.2986 2.10728 15.1561L9.2948 8.04557C9.33084 7.93837 9.43812 7.88477 9.61663 7.88477C9.75966 7.88477 9.88496 7.93837 9.99252 8.04557L10.7435 8.794C10.851 8.9012 10.9048 9.00812 10.9048 9.11476C10.9048 9.25731 10.851 9.38219 10.7435 9.4894L4.73598 15.4768L10.7435 21.5182C10.851 21.5541 10.9048 21.661 10.9048 21.8389C10.9048 21.9815 10.851 22.1063 10.7435 22.2135ZM29.8927 15.8523L22.7052 22.9628C22.6692 23.07 22.5619 23.1236 22.3834 23.1236C22.2403 23.1236 22.115 23.07 22.0075 22.9628L21.2565 22.2144C21.149 22.1072 21.0952 21.9823 21.0952 21.8398C21.0952 21.6613 21.149 21.5544 21.2565 21.519L27.264 15.4777L21.2565 9.49025C21.149 9.38305 21.0952 9.25817 21.0952 9.11561C21.0952 9.00841 21.149 8.90149 21.2565 8.79486L22.0075 8.04643C22.115 7.93922 22.2403 7.88562 22.3834 7.88562C22.5625 7.88562 22.6697 7.93922 22.7052 8.04643L29.8927 15.1569C29.9642 15.2995 30 15.4064 30 15.4777C30 15.5849 29.9642 15.7098 29.8927 15.8523Z" fill="currentColor"/>
</svg>
