<svg viewBox="0 0 32 32" fill="none" xmlns="http://www.w3.org/2000/svg">
<path d="M10.7435 22.2134L9.99252 22.9619C9.88496 23.0691 9.75966 23.1227 9.61663 23.1227C9.43755 23.1227 9.33027 23.0691 9.2948 22.9619L2.10728 15.8514C2.03576 15.7088 2 15.5839 2 15.4767C2 15.4054 2.03576 15.2985 2.10728 15.156L9.2948 8.04547C9.33084 7.93826 9.43812 7.88466 9.61663 7.88466C9.75966 7.88466 9.88496 7.93826 9.99252 8.04547L10.7435 8.79389C10.851 8.9011 10.9048 9.00802 10.9048 9.11465C10.9048 9.25721 10.851 9.38209 10.7435 9.48929L4.73598 15.4767L10.7435 21.518C10.851 21.554 10.9048 21.6609 10.9048 21.8388C10.9048 21.9814 10.851 22.1062 10.7435 22.2134ZM19.8087 5.90881L14.069 25.6357C14.069 25.7429 13.9975 25.8321 13.8545 25.9034C13.7469 26.0106 13.6216 26.0286 13.4786 25.9573L12.5131 25.6896C12.3701 25.6183 12.2805 25.547 12.2445 25.4757C12.1729 25.2973 12.1549 25.1724 12.1904 25.1011L17.9301 5.37421C17.9301 5.30294 18.0016 5.19602 18.1447 5.05346C18.2877 4.98218 18.413 4.98218 18.5206 5.05346L19.4861 5.2673C19.5936 5.33858 19.6832 5.42782 19.7547 5.53502C19.8262 5.67758 19.8442 5.8016 19.8087 5.90881ZM29.8927 15.8522L22.7052 22.9627C22.6692 23.0699 22.5619 23.1235 22.3834 23.1235C22.2403 23.1235 22.115 23.0699 22.0075 22.9627L21.2565 22.2143C21.149 22.1071 21.0952 21.9822 21.0952 21.8397C21.0952 21.6612 21.149 21.5543 21.2565 21.5189L27.264 15.4776L21.2565 9.49015C21.149 9.38294 21.0952 9.25806 21.0952 9.11551C21.0952 9.0083 21.149 8.90138 21.2565 8.79475L22.0075 8.04632C22.115 7.93912 22.2403 7.88551 22.3834 7.88551C22.5625 7.88551 22.6697 7.93912 22.7052 8.04632L29.8927 15.1568C29.9642 15.2994 30 15.4063 30 15.4776C30 15.5848 29.9642 15.7097 29.8927 15.8522Z" fill="currentColor"/>
</svg>
