<svg viewBox="0 0 32 32" fill="none" xmlns="http://www.w3.org/2000/svg">
<path d="M29 4.89583L23.4479 10.4479L26.8333 13.8333H18.6667C18.3905 13.8333 18.1667 13.6095 18.1667 13.3333V5.16667L21.5521 8.55208L27.1042 3L29 4.89583ZM29 27.1042L27.1042 29L21.5521 23.4479L18.1667 26.8333V18.6667C18.1667 18.3905 18.3905 18.1667 18.6667 18.1667H26.8333L23.4479 21.5521L29 27.1042ZM3 27.1042L8.55208 21.5521L5.16667 18.1667H13.3333C13.6095 18.1667 13.8333 18.3905 13.8333 18.6667V26.8333L10.4479 23.4479L4.89583 29L3 27.1042ZM3 4.89583L4.89583 3L10.4479 8.55208L13.8333 5.16667V13.3333C13.8333 13.6095 13.6095 13.8333 13.3333 13.8333H5.16667L8.55208 10.4479L3 4.89583Z" fill="currentColor"/>
</svg>
