<svg viewBox="0 0 32 32" fill="none" xmlns="http://www.w3.org/2000/svg">
<path d="M16 2.66675C23.3626 2.66675 29.3333 7.97075 29.3333 14.5187C29.3322 16.483 28.5514 18.3665 27.1623 19.7554C25.7732 21.1442 23.8896 21.9247 21.9253 21.9254H19.304C18.0746 21.9254 17.0813 22.9187 17.0813 24.1481C17.0813 24.7107 17.304 25.2294 17.644 25.6147C18 26.0147 18.2226 26.5334 18.2226 27.1107C18.2226 28.3414 17.2 29.3334 16 29.3334C8.63729 29.3334 2.66663 23.3627 2.66663 16.0001C2.66663 8.63741 8.63729 2.66675 16 2.66675ZM9.99996 16.0001C10.5304 16.0001 11.0391 15.7894 11.4142 15.4143C11.7892 15.0392 12 14.5305 12 14.0001C12 13.4696 11.7892 12.9609 11.4142 12.5859C11.0391 12.2108 10.5304 12.0001 9.99996 12.0001C9.46953 12.0001 8.96082 12.2108 8.58575 12.5859C8.21067 12.9609 7.99996 13.4696 7.99996 14.0001C7.99996 14.5305 8.21067 15.0392 8.58575 15.4143C8.96082 15.7894 9.46953 16.0001 9.99996 16.0001V16.0001ZM22 16.0001C22.5304 16.0001 23.0391 15.7894 23.4142 15.4143C23.7892 15.0392 24 14.5305 24 14.0001C24 13.4696 23.7892 12.9609 23.4142 12.5859C23.0391 12.2108 22.5304 12.0001 22 12.0001C21.4695 12.0001 20.9608 12.2108 20.5857 12.5859C20.2107 12.9609 20 13.4696 20 14.0001C20 14.5305 20.2107 15.0392 20.5857 15.4143C20.9608 15.7894 21.4695 16.0001 22 16.0001ZM16 12.0001C16.5304 12.0001 17.0391 11.7894 17.4142 11.4143C17.7892 11.0392 18 10.5305 18 10.0001C18 9.46965 17.7892 8.96094 17.4142 8.58587C17.0391 8.21079 16.5304 8.00008 16 8.00008C15.4695 8.00008 14.9608 8.21079 14.5857 8.58587C14.2107 8.96094 14 9.46965 14 10.0001C14 10.5305 14.2107 11.0392 14.5857 11.4143C14.9608 11.7894 15.4695 12.0001 16 12.0001Z" fill="currentColor"/>
</svg>
