<svg viewBox="0 0 32 32" fill="none" xmlns="http://www.w3.org/2000/svg">
<path d="M8.10207 25.9848L20.7414 13.3455L18.6545 11.2586L6.01519 23.8979L8.10207 25.9848V25.9848ZM16.5662 9.17175L14.4793 7.08488L16.5662 4.99801L19.1755 7.60586L23.3507 3.43211C23.6275 3.15543 24.0028 3 24.3941 3C24.7855 3 25.1608 3.15543 25.4376 3.43211L28.5679 6.56242C28.8446 6.83919 29 7.21451 29 7.60586C29 7.99721 28.8446 8.37253 28.5679 8.6493L24.3941 12.8245L27.002 15.4338L24.9151 17.5207L22.8282 15.4338L9.2621 29H3V22.7379L16.5662 9.17175V9.17175Z" fill="currentColor"/>
</svg>
