<svg viewBox="0 0 32 32" fill="none" xmlns="http://www.w3.org/2000/svg">
<path d="M28.6 29H3.4C3.0287 29 2.6726 28.8537 2.41005 28.5932C2.1475 28.3327 2 27.9795 2 27.6111V17.1764C1.99998 16.9779 2.04283 16.7818 2.12566 16.6011C2.20849 16.4205 2.32939 16.2596 2.4802 16.1292L7.6 11.7V5.38889C7.6 5.02053 7.7475 4.66726 8.01005 4.4068C8.2726 4.14633 8.6287 4 9 4H28.6C28.9713 4 29.3274 4.14633 29.59 4.4068C29.8525 4.66726 30 5.02053 30 5.38889V27.6111C30 27.9795 29.8525 28.3327 29.59 28.5932C29.3274 28.8537 28.9713 29 28.6 29ZM11.8 26.2222H16V17.8083L10.4 12.9639L4.8 17.8083V26.2222H9V20.6667H11.8V26.2222ZM18.8 26.2222H27.2V6.77778H10.4V9.73194C10.7276 9.73194 11.0566 9.84583 11.3198 10.075L18.3198 16.1292C18.4706 16.2596 18.5915 16.4205 18.6743 16.6011C18.7572 16.7818 18.8 16.9779 18.8 17.1764V26.2222ZM21.6 15.1111H24.4V17.8889H21.6V15.1111ZM21.6 20.6667H24.4V23.4444H21.6V20.6667ZM21.6 9.55556H24.4V12.3333H21.6V9.55556ZM16 9.55556H18.8V12.3333H16V9.55556Z" fill="currentColor"/>
</svg>
