<svg viewBox="0 0 32 32" fill="none" xmlns="http://www.w3.org/2000/svg">
<g clip-path="url(#clip0_230_195)">
<path d="M32 14.0001C32 16.1254 31.2917 18.0421 29.875 19.7501C28.4583 21.5001 26.5207 22.8751 24.062 23.8751C21.6033 24.9171 18.9157 25.4381 15.999 25.4381C15.457 25.4381 14.6027 25.3964 13.436 25.3131C11.0607 27.3551 8.31067 28.7928 5.186 29.6261C4.686 29.7514 4.01933 29.8764 3.186 30.0011C2.894 30.0011 2.70633 29.9384 2.623 29.8131C2.45633 29.7298 2.352 29.5631 2.31 29.3131C2.268 29.2711 2.268 29.1878 2.31 29.0631V28.9381C2.31 28.8961 2.35167 28.8334 2.435 28.7501L2.498 28.5621L2.811 28.2491L2.874 28.1241C2.95733 28.0821 3.04067 28.0091 3.124 27.9051C3.20733 27.8011 3.27 27.7074 3.312 27.6241L3.937 26.9991C3.979 26.9571 4.06233 26.8528 4.187 26.6861C4.31167 26.5194 4.416 26.3734 4.5 26.2481C4.70867 25.9561 4.89633 25.6644 5.063 25.3731C5.18833 25.2064 5.355 24.8521 5.563 24.3101C5.64633 24.1434 5.74 23.9038 5.844 23.5911L6.063 22.9351C4.14633 21.8518 2.667 20.5391 1.625 18.9971C0.541667 17.4138 0 15.7471 0 13.9971C0 12.4971 0.416667 11.0178 1.25 9.55911C2.12533 8.14244 3.27133 6.93411 4.688 5.93411C6.14667 4.85077 7.855 4.03811 9.813 3.49611C11.7717 2.87077 13.8343 2.55811 16.001 2.55811C18.9177 2.55811 21.6053 3.07911 24.064 4.12111C26.5227 5.12111 28.4603 6.49611 29.877 8.24611C31.2937 9.95477 32.002 11.8714 32.002 13.9961L32 14.0001Z" fill="currentColor"/>
</g>
<defs>
<clipPath id="clip0_230_195">
<rect width="32" height="32" fill="white"/>
</clipPath>
</defs>
</svg>
