<svg viewBox="0 0 32 32" fill="none" xmlns="http://www.w3.org/2000/svg">
<g clip-path="url(#clip0_230_199)">
<path d="M25.125 13.6881C25.125 15.3134 24.5623 16.8551 23.437 18.3131C22.3537 19.6884 20.8327 20.7927 18.874 21.6261C16.874 22.4594 14.7697 22.8761 12.561 22.8761C11.6443 22.8761 10.6027 22.7717 9.43601 22.5631C7.97735 23.6051 6.31068 24.3761 4.43601 24.8761C4.35268 24.8761 4.21735 24.8971 4.03001 24.9391L3.46701 25.0641C3.46701 25.0641 3.29001 25.0851 2.93601 25.1271H2.87301C2.70635 25.1271 2.58135 25.0854 2.49801 25.0021C2.37268 24.8767 2.31001 24.7517 2.31001 24.6271V24.5021C2.31001 24.4601 2.28901 24.4184 2.24701 24.3771L2.31001 24.3141L2.37301 24.1891L2.43601 24.1261L2.49901 24.0011L2.56201 23.9381L2.62501 23.8131L3.06301 23.3751C3.31301 23.1251 3.45901 22.9584 3.50101 22.8751C3.54301 22.8331 3.60568 22.7601 3.68901 22.6561C3.77235 22.5521 3.85568 22.4584 3.93901 22.3751C3.98101 22.2917 4.12701 22.0624 4.37701 21.6871C4.54368 21.3537 4.66868 21.0827 4.75201 20.8741C3.33535 20.0407 2.16868 18.9781 1.25201 17.6861C0.418681 16.4774 0.00201416 15.1441 0.00201416 13.6861C0.00201416 12.0194 0.564681 10.4984 1.69001 9.12306C2.77335 7.74773 4.29435 6.64339 6.25301 5.81006C8.25301 4.97673 10.3573 4.56006 12.566 4.56006C14.7747 4.56006 16.879 4.97673 18.879 5.81006C20.7543 6.60206 22.2753 7.70639 23.442 9.12306C24.5673 10.4984 25.13 12.0194 25.13 13.6861L25.125 13.6881ZM32 18.3131C32 19.6884 31.5833 21.0217 30.75 22.3131C29.8747 23.5217 28.708 24.5634 27.25 25.4381C27.3333 25.6467 27.4583 25.9177 27.625 26.2511C27.7083 26.4597 27.8543 26.6891 28.063 26.9391C28.2297 27.1057 28.3547 27.2724 28.438 27.4391C28.48 27.4811 28.5217 27.5331 28.563 27.5951C28.6043 27.6571 28.6563 27.7197 28.719 27.7831C28.7817 27.8464 28.8547 27.8984 28.938 27.9391C28.98 27.9811 29.032 28.0437 29.094 28.1271C29.156 28.2104 29.208 28.2731 29.25 28.3151C29.292 28.3571 29.313 28.3987 29.313 28.4401C29.355 28.4401 29.3967 28.4611 29.438 28.5031L29.501 28.5661C29.501 28.6081 29.5113 28.6291 29.532 28.6291C29.5527 28.6291 29.563 28.6501 29.563 28.6921L29.626 28.7551L29.689 28.8801V29.1931C29.689 29.3597 29.6057 29.4847 29.439 29.5681C29.3557 29.7347 29.2307 29.7764 29.064 29.6931C28.314 29.6097 27.814 29.5264 27.564 29.4431C25.6887 28.9431 24.022 28.1721 22.564 27.1301C21.3973 27.3387 20.3557 27.4431 19.439 27.4431C16.2303 27.4431 13.4177 26.6514 11.001 25.0681C11.4597 25.1101 11.9807 25.1311 12.564 25.1311C14.564 25.1311 16.3973 24.8601 18.064 24.3181C19.856 23.8181 21.4393 23.0681 22.814 22.0681C24.314 20.9427 25.46 19.6717 26.252 18.2551C27.044 16.7551 27.44 15.2341 27.44 13.6921C27.44 12.7334 27.294 11.8374 27.002 11.0041C28.5853 11.8794 29.8147 12.9421 30.69 14.1921C31.5653 15.4421 32.003 16.8171 32.003 18.3171L32 18.3131Z" fill="currentColor"/>
</g>
<defs>
<clipPath id="clip0_230_199">
<rect width="32" height="32" fill="white"/>
</clipPath>
</defs>
</svg>
