<svg viewBox="0 0 32 32" fill="none" xmlns="http://www.w3.org/2000/svg">
<g clip-path="url(#clip0_230_197)">
<path d="M12.563 6.87504C10.771 6.87504 9.0627 7.1877 7.43803 7.81304C5.93803 8.35504 4.68803 9.18837 3.68803 10.313C2.77136 11.355 2.31303 12.48 2.31303 13.688C2.31303 14.6467 2.62569 15.605 3.25103 16.563C3.91769 17.5217 4.79269 18.2927 5.87603 18.876L7.62603 19.876L7.00103 21.376C7.12636 21.2927 7.31403 21.178 7.56403 21.032C7.81403 20.886 8.0017 20.7714 8.12703 20.688L8.87703 20.125L9.81503 20.313C10.6484 20.4797 11.565 20.563 12.565 20.563C14.4404 20.563 16.1487 20.2504 17.69 19.625C19.2734 18.9997 20.5234 18.1664 21.44 17.125C22.3987 16.0417 22.878 14.8957 22.878 13.687C22.878 12.5204 22.3987 11.3954 21.44 10.312C20.44 9.1867 19.19 8.35337 17.69 7.81204C16.1067 7.1867 14.3984 6.87404 12.565 6.87404L12.563 6.87504ZM12.563 4.56304C14.7717 4.56304 16.876 4.9797 18.876 5.81304C20.8347 6.64637 22.3557 7.7507 23.439 9.12604C24.5644 10.5014 25.127 12.0224 25.127 13.689C25.127 15.3144 24.5644 16.856 23.439 18.314C22.3557 19.6894 20.8347 20.7937 18.876 21.627C16.876 22.4604 14.7717 22.877 12.563 22.877C11.6464 22.877 10.6047 22.7727 9.43803 22.564C7.97936 23.606 6.3127 24.377 4.43803 24.877C4.35469 24.877 4.21936 24.898 4.03203 24.94L3.46903 25.065C3.46903 25.065 3.29203 25.086 2.93803 25.128H2.87503C2.70836 25.128 2.58336 25.0864 2.50003 25.003C2.3747 24.8777 2.31203 24.7527 2.31203 24.628V24.503C2.31203 24.461 2.29103 24.4194 2.24903 24.378L2.31203 24.315L2.37503 24.19L2.43803 24.127L2.50103 24.002L2.56403 23.939L2.62703 23.814L3.06503 23.376C3.31503 23.126 3.46103 22.9594 3.50303 22.876C3.54503 22.834 3.6077 22.761 3.69103 22.657C3.77436 22.553 3.8577 22.4594 3.94103 22.376C3.98303 22.2927 4.12903 22.0634 4.37903 21.688C4.54569 21.3547 4.67069 21.0837 4.75403 20.875C3.33736 20.0417 2.1707 18.979 1.25403 17.687C0.420695 16.4784 0.00402832 15.145 0.00402832 13.687C0.00402832 12.0204 0.566695 10.4994 1.69203 9.12403C2.77536 7.7487 4.29636 6.64437 6.25503 5.81104C8.25503 4.9777 10.3594 4.56104 12.568 4.56104L12.563 4.56304ZM27.25 25.438C27.3334 25.6467 27.4584 25.9177 27.625 26.251C27.7084 26.4597 27.8544 26.689 28.063 26.939C28.2297 27.1057 28.3547 27.2724 28.438 27.439C28.48 27.481 28.5217 27.533 28.563 27.595C28.6044 27.657 28.6564 27.7197 28.719 27.783C28.7817 27.8464 28.8547 27.8984 28.938 27.939C28.98 27.981 29.032 28.0437 29.094 28.127C29.156 28.2104 29.208 28.273 29.25 28.315C29.292 28.357 29.313 28.3987 29.313 28.44C29.355 28.44 29.3967 28.461 29.438 28.503L29.501 28.566C29.501 28.608 29.5114 28.629 29.532 28.629C29.5527 28.629 29.563 28.65 29.563 28.692L29.626 28.755L29.689 28.88V29.193C29.689 29.3597 29.6057 29.4847 29.439 29.568C29.3557 29.7347 29.2307 29.7764 29.064 29.693C28.314 29.6097 27.814 29.5264 27.564 29.443C25.6887 28.943 24.022 28.172 22.564 27.13C21.3974 27.3387 20.3557 27.443 19.439 27.443C16.2304 27.443 13.4177 26.6514 11.001 25.068C11.4597 25.11 11.9807 25.131 12.564 25.131C14.564 25.131 16.3974 24.86 18.064 24.318C19.856 23.818 21.4394 23.068 22.814 22.068C24.314 20.9427 25.46 19.6717 26.252 18.255C27.044 16.755 27.44 15.234 27.44 13.692C27.44 12.7334 27.294 11.8374 27.002 11.004C28.5854 11.8794 29.8147 12.942 30.69 14.192C31.5654 15.442 32.003 16.817 32.003 18.317C32.003 19.6924 31.5864 21.0257 30.753 22.317C29.8777 23.5257 28.711 24.5674 27.253 25.442L27.25 25.438Z" fill="currentColor"/>
</g>
<defs>
<clipPath id="clip0_230_197">
<rect width="32" height="32" fill="white"/>
</clipPath>
</defs>
</svg>
