<svg viewBox="0 0 32 32" fill="none" xmlns="http://www.w3.org/2000/svg">
<g clip-path="url(#clip0_230_193)">
<path d="M16 4.87508C13.5 4.87508 11.229 5.29175 9.18698 6.12508C7.10364 6.91708 5.41598 8.02142 4.12398 9.43808C2.91531 10.8967 2.31098 12.4177 2.31098 14.0011C2.31098 15.4177 2.72764 16.6887 3.56098 17.8141C4.47764 19.0641 5.68598 20.1057 7.18598 20.9391L8.68598 21.8141L8.24798 23.5641C7.91464 24.6474 7.49798 25.6684 6.99798 26.6271C8.87331 25.8771 10.4983 24.8561 11.873 23.5641L12.686 22.8761L13.686 23.0011C14.228 23.0844 14.999 23.1261 15.999 23.1261C18.499 23.1261 20.77 22.7094 22.812 21.8761C24.8953 21.0841 26.583 19.9797 27.875 18.5631C29.0836 17.1044 29.688 15.5834 29.688 14.0001C29.688 12.4167 29.0836 10.8957 27.875 9.43708C26.583 8.02042 24.8953 6.91608 22.812 6.12408C20.77 5.29075 18.499 4.87408 15.999 4.87408L16 4.87508ZM32 14.0001C32 16.1254 31.2916 18.0421 29.875 19.7501C28.4583 21.5001 26.5206 22.8751 24.062 23.8751C21.6033 24.9171 18.9156 25.4381 15.999 25.4381C15.457 25.4381 14.6026 25.3964 13.436 25.3131C11.0606 27.3551 8.31064 28.7927 5.18598 29.6261C4.68598 29.7514 4.01931 29.8764 3.18598 30.0011H3.06098C2.93564 30.0011 2.76898 29.9384 2.56098 29.8131C2.47764 29.7297 2.39431 29.5631 2.31098 29.3131C2.26898 29.2711 2.26898 29.1877 2.31098 29.0631V28.9381C2.31098 28.8961 2.35264 28.8334 2.43598 28.7501L2.49898 28.5621L2.81198 28.2491L2.87498 28.1241C2.95831 28.0821 3.04164 28.0091 3.12498 27.9051C3.20831 27.8011 3.27098 27.7074 3.31298 27.6241L3.93798 26.9991C3.97998 26.9571 4.06331 26.8527 4.18798 26.6861C4.31264 26.5194 4.41698 26.3734 4.50098 26.2481C4.70964 25.9561 4.89731 25.6644 5.06398 25.3731C5.18931 25.2064 5.35598 24.8521 5.56398 24.3101C5.64731 24.1434 5.74098 23.9037 5.84498 23.5911L6.06398 22.9351C4.14731 21.8517 2.66798 20.5391 1.62598 18.9971C0.542643 17.4137 0.000976562 15.7471 0.000976562 13.9971C0.000976562 11.8717 0.70931 9.95508 2.12598 8.24708C3.54264 6.49708 5.48031 5.12208 7.93898 4.12208C10.3976 3.08008 13.0853 2.55908 16.002 2.55908C18.9186 2.55908 21.6063 3.08008 24.065 4.12208C26.5236 5.12208 28.4613 6.49708 29.878 8.24708C31.2946 9.95575 32.003 11.8724 32.003 13.9971L32 14.0001Z" fill="currentColor"/>
</g>
<defs>
<clipPath id="clip0_230_193">
<rect width="32" height="32" fill="white"/>
</clipPath>
</defs>
</svg>
