<svg viewBox="0 0 32 32" fill="none" xmlns="http://www.w3.org/2000/svg">
<path d="M13.6353 19.5164L18.3657 17.1506L13.6353 14.8494V19.5164ZM20.667 8.71259V18.6214L11.334 23.2884V13.3796L20.667 8.71259ZM25.9088 16C25.9088 14.2524 25.4827 12.5903 24.6303 11.0139C23.735 9.47969 22.5203 8.26495 20.9861 7.36967C19.409 6.51734 17.7469 6.09117 16 6.09117C14.2531 6.09117 12.591 6.51734 11.0139 7.36967C9.47969 8.26495 8.26495 9.47969 7.36967 11.0139C6.51734 12.591 6.09117 14.2531 6.09117 16C6.09117 17.7469 6.51734 19.409 7.36967 20.9861C8.26495 22.5203 9.47969 23.735 11.0139 24.6303C12.591 25.4827 14.2531 25.9088 16 25.9088C17.7469 25.9088 19.409 25.4827 20.9861 24.6303C22.5203 23.735 23.735 22.5203 24.6303 20.9861C25.4827 19.409 25.9088 17.7469 25.9088 16ZM30 16C30 18.6422 29.3819 20.9861 28.1457 23.0317C26.8672 25.1625 25.1625 26.8672 23.0317 28.1457C20.9861 29.3819 18.6422 30 16 30C13.3578 30 11.0139 29.3819 8.96829 28.1457C6.83747 26.8672 5.13282 25.1625 3.85432 23.0317C2.61811 20.9861 2 18.6422 2 16C2 13.3578 2.61811 11.0139 3.85432 8.96829C5.13282 6.83747 6.83747 5.13282 8.96829 3.85432C11.0139 2.61811 13.3578 2 16 2C18.6422 2 20.9861 2.61811 23.0317 3.85432C25.1625 5.13282 26.8672 6.83747 28.1457 8.96829C29.3819 11.0139 30 13.3578 30 16Z" fill="currentColor"/>
</svg>
