<svg viewBox="0 0 32 32" fill="none" xmlns="http://www.w3.org/2000/svg">
<path d="M18.0246 24.9748H27.9771V23.0047H18.0246V24.9748ZM12.0094 16.985H27.9771V14.9598H12.0094V16.985ZM22.0161 8.9953H27.9771V6.97007H22.0161V8.9953ZM30 21.9654V26.015C30 26.2706 29.9087 26.4895 29.7261 26.6717C29.5074 26.8906 29.2703 27 29.0148 27H2.98519C2.7297 27 2.49259 26.8906 2.27386 26.6717C2.09129 26.4889 2 26.2701 2 26.015V21.9654C2 21.7097 2.09129 21.4908 2.27386 21.3087C2.49259 21.0898 2.7297 20.9803 2.98519 20.9803H29.0148C29.2703 20.9803 29.5074 21.0898 29.7261 21.3087C29.9087 21.4914 30 21.7103 30 21.9654ZM30 13.9756V17.9709C30 18.2628 29.9087 18.5001 29.7261 18.6828C29.5074 18.9017 29.2703 19.0111 29.0148 19.0111H2.98519C2.7297 19.0111 2.49259 18.9017 2.27386 18.6828C2.09129 18.5001 2 18.2628 2 17.9709V13.9756C2 13.7567 2.09129 13.5195 2.27386 13.2638C2.52934 13.0811 2.76645 12.9897 2.98519 12.9897H29.0148C29.2335 12.9897 29.4707 13.0811 29.7261 13.2638C29.9087 13.5195 30 13.7567 30 13.9756ZM30 5.98591V9.98121C30 10.2001 29.9087 10.4374 29.7261 10.6931C29.4707 10.8758 29.2335 10.9671 29.0148 10.9671H2.98519C2.76645 10.9671 2.52934 10.8758 2.27386 10.6931C2.09129 10.4374 2 10.2001 2 9.98121V5.98591C2 5.76701 2.09129 5.52973 2.27386 5.27406C2.45643 5.09135 2.69354 5 2.98519 5H29.0148C29.3065 5 29.5436 5.09135 29.7261 5.27406C29.9087 5.52973 30 5.76701 30 5.98591Z" fill="currentColor"/>
</svg>
