<svg viewBox="0 0 32 32" fill="none" xmlns="http://www.w3.org/2000/svg">
<path d="M26.6667 29.3334H8C6.93913 29.3334 5.92172 28.912 5.17157 28.1618C4.42143 27.4117 4 26.3943 4 25.3334V6.66675C4 5.60588 4.42143 4.58847 5.17157 3.83832C5.92172 3.08818 6.93913 2.66675 8 2.66675H26.6667C27.0203 2.66675 27.3594 2.80722 27.6095 3.05727C27.8595 3.30732 28 3.64646 28 4.00008V28.0001C28 28.3537 27.8595 28.6928 27.6095 28.9429C27.3594 29.1929 27.0203 29.3334 26.6667 29.3334ZM25.3333 26.6667V24.0001H8C7.64638 24.0001 7.30724 24.1406 7.05719 24.3906C6.80714 24.6407 6.66667 24.9798 6.66667 25.3334C6.66667 25.687 6.80714 26.0262 7.05719 26.2762C7.30724 26.5263 7.64638 26.6667 8 26.6667H25.3333ZM6.66667 21.5601C7.084 21.4134 7.53333 21.3334 8 21.3334H25.3333V5.33341H8C7.64638 5.33341 7.30724 5.47389 7.05719 5.72394C6.80714 5.97399 6.66667 6.31313 6.66667 6.66675V21.5601ZM16 13.3334C15.2928 13.3334 14.6145 13.0525 14.1144 12.5524C13.6143 12.0523 13.3333 11.374 13.3333 10.6667C13.3333 9.9595 13.6143 9.28123 14.1144 8.78113C14.6145 8.28103 15.2928 8.00008 16 8.00008C16.7072 8.00008 17.3855 8.28103 17.8856 8.78113C18.3857 9.28123 18.6667 9.9595 18.6667 10.6667C18.6667 11.374 18.3857 12.0523 17.8856 12.5524C17.3855 13.0525 16.7072 13.3334 16 13.3334ZM12 18.6667C12 17.6059 12.4214 16.5885 13.1716 15.8383C13.9217 15.0882 14.9391 14.6667 16 14.6667C17.0609 14.6667 18.0783 15.0882 18.8284 15.8383C19.5786 16.5885 20 17.6059 20 18.6667H12Z" fill="currentColor"/>
</svg>
