<svg viewBox="0 0 32 32" fill="none" xmlns="http://www.w3.org/2000/svg">
<path d="M32 12C32 12.552 31.553 13 31 13H29.303L27 14.535V27C27 27.55 26.55 28 26 28H6C5.45 28 5 27.55 5 27V14.535L2.697 13H1C0.447 13 0 12.552 0 12C0 11.448 0.447 11 1 11H3C3.197 11 3.391 11.059 3.555 11.168L5 12H27L28.445 11.168C28.609 11.059 28.803 11 29 11H31C31.553 11 32 11.448 32 12ZM5 10C5 10 5 10 5 9C5 8.21 7.503 6.801 12 6.241V5C12 3.701 13.03 3 14 3H18C18.97 3 20 3.701 20 5V6.241C24.497 6.801 27 8.21 27 9C27 10 27 10 27 10C27 10.55 26.55 11 26 11H6C5.45 11 5 10.55 5 10ZM14 6.062C14.639 6.025 15.3 6 16 6C16.7 6 17.361 6.025 18 6.062V5H14V6.062Z" fill="currentColor"/>
</svg>
