<svg viewBox="0 0 32 32" fill="none" xmlns="http://www.w3.org/2000/svg">
<path d="M30 10.1071C30 11.1919 29.1307 12.0714 28.0586 12.0714C28.0466 12.0714 28.0365 12.0652 28.0245 12.065L25.5725 25.7119C25.4377 26.4549 24.797 27 24.0447 27H7.99896C7.2486 27 6.60503 26.4569 6.47107 25.71L4.01955 12.0665C4.00742 12.0665 3.99723 12.0714 3.94141 12.0714C2.86927 12.0714 2 11.1919 2 10.1071C2 9.02237 2.91295 8.14286 3.94141 8.14286C4.96987 8.14286 5.88282 9.02237 5.88282 10.1071C5.88282 10.549 5.71193 10.9366 5.46848 11.2646L9.81869 14.7856C10.5909 15.4107 11.7358 15.156 12.178 14.2611L14.9736 8.60397C14.425 8.25777 14.0367 7.66848 14.0367 6.96429C14.0367 5.87951 14.9492 5 16.0218 5C17.0945 5 17.9196 5.87951 17.9196 6.96429C17.9196 7.66848 17.5331 8.25777 16.9828 8.60446L19.7785 14.2616C20.2207 15.1563 21.3661 15.4107 22.1378 14.7861L26.488 11.2651C26.2871 10.9371 26.1172 10.5049 26.1172 10.1071C26.1172 9.02187 26.986 8.14286 28.0586 8.14286C29.1312 8.14286 30 9.02187 30 10.1071Z" fill="currentColor"/>
</svg>
