<svg viewBox="0 0 32 32" fill="none" xmlns="http://www.w3.org/2000/svg">
<path d="M17.002 28.063L28.44 21.875V10.5L17.002 14.688V28.063ZM15.877 12.625L28.315 8.12504L15.877 3.56203L3.377 8.12504L15.877 12.625ZM30.69 8.12504V21.875C30.69 22.375 30.5857 22.75 30.377 23C30.2103 23.292 29.9187 23.5837 29.502 23.875L16.939 30.688C16.6057 30.8967 16.2513 31.001 15.876 31.001C15.5427 31.001 15.1677 30.8967 14.751 30.688L2.188 23.875C1.85467 23.625 1.563 23.3334 1.313 23C1.10433 22.6667 1 22.2917 1 21.875V8.12504C1 7.66637 1.146 7.2287 1.438 6.81203C1.64667 6.4787 2.001 6.2077 2.501 5.99903L15.064 1.43604C15.2307 1.3527 15.5017 1.31104 15.877 1.31104C16.2103 1.31104 16.4603 1.3527 16.627 1.43604L29.19 5.99903C29.6067 6.1657 29.9817 6.4367 30.315 6.81203C30.565 7.2707 30.69 7.70837 30.69 8.12504Z" fill="currentColor"/>
</svg>
