<svg viewBox="0 0 32 32" fill="none" xmlns="http://www.w3.org/2000/svg">
<path d="M20.8997 2C21.622 1.99993 22.3353 2.15949 22.9887 2.46727C23.6421 2.77505 24.2194 3.22345 24.6793 3.78036C25.1391 4.33728 25.4702 4.98894 25.6487 5.68872C25.8273 6.3885 25.8489 7.11909 25.7121 7.8282L25.6911 7.9206C26.9092 8.32689 27.9742 9.09547 28.7435 10.1235C29.5128 11.1515 29.9498 12.39 29.9959 13.6731C30.0421 14.9562 29.6952 16.2228 29.0017 17.3034C28.3082 18.384 27.3011 19.2271 26.1153 19.7198L24.5948 28.8296C24.5404 29.1565 24.3718 29.4535 24.119 29.6678C23.8662 29.8821 23.5456 29.9998 23.2142 30H8.78399C8.45256 29.9998 8.13193 29.8821 7.87913 29.6678C7.62634 29.4535 7.45777 29.1565 7.40342 28.8296L5.96264 20.1916C4.99361 20.1366 4.07352 19.7478 3.35877 19.0913C2.64401 18.4348 2.1787 17.551 2.04193 16.5902C1.90515 15.6294 2.10535 14.6509 2.6085 13.8211C3.11165 12.9912 3.88669 12.3611 4.80189 12.038L4.79769 11.8C4.79741 10.3824 5.15593 8.98786 5.83986 7.74615C6.52378 6.50444 7.51087 5.45599 8.70918 4.69844C9.90749 3.94089 11.2781 3.49888 12.6932 3.41358C14.1084 3.32828 15.5221 3.60247 16.8028 4.2106C17.2484 3.53102 17.8563 2.97308 18.5716 2.58715C19.2868 2.20122 20.0869 1.99943 20.8997 2V2ZM11.7986 20.2H8.80219L9.96993 27.2H11.7986V20.2ZM17.3993 20.2H14.5989V27.2H17.3993V20.2ZM23.1946 20.2H20.1996V27.2H22.0268L23.1946 20.2ZM13.1987 6.2C10.1996 6.2 7.75066 8.5576 7.60504 11.4738L7.59804 11.7496L7.60224 11.9876C7.61214 12.5373 7.45994 13.0778 7.16463 13.5417C6.86932 14.0055 6.44397 14.3721 5.94163 14.5958L5.73161 14.6784C5.42071 14.7891 5.15884 15.0059 4.99214 15.2907C4.82543 15.5755 4.76458 15.91 4.8203 16.2352C4.87602 16.5605 5.04474 16.8556 5.29673 17.0687C5.54873 17.2818 5.86784 17.3991 6.19787 17.4H23.7C24.2176 17.4 24.7287 17.2852 25.1965 17.064C25.6644 16.8428 26.0774 16.5206 26.4057 16.1206C26.7341 15.7206 26.9696 15.2528 27.0954 14.7508C27.2213 14.2489 27.2342 13.7253 27.1333 13.2177C27.0324 12.7102 26.8202 12.2313 26.512 11.8156C26.2038 11.3999 25.8072 11.0577 25.3508 10.8137C24.8945 10.5696 24.3896 10.4298 23.8727 10.4043C23.3558 10.3787 22.8397 10.4681 22.3615 10.666L22.1164 10.7794C21.4704 11.1123 20.7201 11.181 20.0243 10.9709C19.3285 10.7609 18.7417 10.2886 18.3878 9.6538L18.2898 9.462C17.8423 8.4882 17.1248 7.66323 16.2223 7.08502C15.3199 6.50682 14.2705 6.19966 13.1987 6.2ZM20.8997 4.8C20.5367 4.79993 20.1799 4.8939 19.8641 5.07277C19.5483 5.25164 19.2842 5.50929 19.0977 5.8206C19.8207 6.53234 20.4089 7.36902 20.8339 8.2902C21.4556 7.971 22.136 7.7526 22.8585 7.656C22.9813 7.3379 23.0247 6.99471 22.9851 6.65606C22.9455 6.31741 22.824 5.9935 22.6312 5.71231C22.4383 5.43112 22.1799 5.20112 21.8782 5.04216C21.5765 4.88321 21.2407 4.8001 20.8997 4.8V4.8Z" fill="currentColor"/>
</svg>
