<svg viewBox="0 0 32 32" fill="none" xmlns="http://www.w3.org/2000/svg">
<path d="M6.4 23.3333V18.8111C6.4 18.3249 6.21036 17.8586 5.87279 17.5147C5.53523 17.1709 5.07739 16.9778 4.6 16.9778H4V15.0222H4.6C4.83638 15.0222 5.07044 14.9748 5.28883 14.8827C5.50722 14.7905 5.70565 14.6555 5.87279 14.4853C6.03994 14.315 6.17252 14.1129 6.26298 13.8905C6.35344 13.668 6.4 13.4296 6.4 13.1889V8.66667C6.4 7.69421 6.77928 6.76158 7.45442 6.07394C8.12955 5.38631 9.04522 5 10 5H11.2V7.44444H10C9.68174 7.44444 9.37652 7.57321 9.15147 7.80243C8.92643 8.03164 8.8 8.34251 8.8 8.66667V13.6778C8.80012 14.1923 8.64082 14.6938 8.34477 15.1108C8.04872 15.5278 7.63103 15.8389 7.1512 16C7.63103 16.1611 8.04872 16.4722 8.34477 16.8892C8.64082 17.3062 8.80012 17.8077 8.8 18.3222V23.3333C8.8 23.6575 8.92643 23.9684 9.15147 24.1976C9.37652 24.4268 9.68174 24.5556 10 24.5556H11.2V27H10C9.04522 27 8.12955 26.6137 7.45442 25.9261C6.77928 25.2384 6.4 24.3058 6.4 23.3333V23.3333ZM25.6 18.8111V23.3333C25.6 24.3058 25.2207 25.2384 24.5456 25.9261C23.8705 26.6137 22.9548 27 22 27H20.8V24.5556H22C22.3183 24.5556 22.6235 24.4268 22.8485 24.1976C23.0736 23.9684 23.2 23.6575 23.2 23.3333V18.3222C23.1999 17.8077 23.3592 17.3062 23.6552 16.8892C23.9513 16.4722 24.369 16.1611 24.8488 16C24.369 15.8389 23.9513 15.5278 23.6552 15.1108C23.3592 14.6938 23.1999 14.1923 23.2 13.6778V8.66667C23.2 8.34251 23.0736 8.03164 22.8485 7.80243C22.6235 7.57321 22.3183 7.44444 22 7.44444H20.8V5H22C22.9548 5 23.8705 5.38631 24.5456 6.07394C25.2207 6.76158 25.6 7.69421 25.6 8.66667V13.1889C25.6 13.6751 25.7896 14.1414 26.1272 14.4853C26.4648 14.8291 26.9226 15.0222 27.4 15.0222H28V16.9778H27.4C26.9226 16.9778 26.4648 17.1709 26.1272 17.5147C25.7896 17.8586 25.6 18.3249 25.6 18.8111V18.8111Z" fill="currentColor"/>
</svg>
