<svg viewBox="0 0 32 32" fill="none" xmlns="http://www.w3.org/2000/svg">
<path d="M15.9907 18.2093L13.9213 20.2787C14.5838 21.395 14.8164 22.7146 14.5755 23.9902C14.3346 25.2658 13.6368 26.4097 12.6128 27.2076C11.5888 28.0054 10.309 28.4024 9.01325 28.3241C7.7175 28.2459 6.49477 27.6977 5.57427 26.7824C4.65377 25.8671 4.0987 24.6475 4.0131 23.3522C3.9275 22.0569 4.31725 20.7749 5.10929 19.7464C5.90134 18.7179 7.04129 18.0136 8.31548 17.7655C9.58966 17.5174 10.9106 17.7425 12.0307 18.3987L14.104 16.324L9.93867 12.1573C9.56372 11.7823 9.35309 11.2737 9.35309 10.7433C9.35309 10.213 9.56372 9.70439 9.93867 9.32933L10.4107 8.85733L15.9907 14.4373L21.576 8.852L22.0467 9.324C22.4212 9.699 22.6316 10.2073 22.6316 10.7373C22.6316 11.2673 22.4212 11.7757 22.0467 12.1507L17.876 16.324L19.9573 18.404C21.0755 17.7447 22.3958 17.5158 23.6707 17.7603C24.9456 18.0048 26.0875 18.7059 26.8825 19.7321C27.6774 20.7584 28.0708 22.0393 27.9889 23.3348C27.907 24.6303 27.3553 25.8515 26.4374 26.7694C25.5195 27.6873 24.2983 28.239 23.0028 28.3209C21.7073 28.4028 20.4264 28.0094 19.4001 27.2145C18.3739 26.4195 17.6728 25.2776 17.4283 24.0027C17.1838 22.7278 17.4127 21.4075 18.072 20.2893L15.9907 18.2093V18.2093ZM25.3333 16.3333V5.66667H6.66667V16.3333H4V4.33333C4 3.97971 4.14048 3.64057 4.39052 3.39052C4.64057 3.14048 4.97971 3 5.33333 3H26.6667C27.0203 3 27.3594 3.14048 27.6095 3.39052C27.8595 3.64057 28 3.97971 28 4.33333V16.3333H25.3333ZM9.33333 25.6667C10.0406 25.6667 10.7189 25.3857 11.219 24.8856C11.719 24.3855 12 23.7072 12 23C12 22.2928 11.719 21.6145 11.219 21.1144C10.7189 20.6143 10.0406 20.3333 9.33333 20.3333C8.62609 20.3333 7.94781 20.6143 7.44772 21.1144C6.94762 21.6145 6.66667 22.2928 6.66667 23C6.66667 23.7072 6.94762 24.3855 7.44772 24.8856C7.94781 25.3857 8.62609 25.6667 9.33333 25.6667V25.6667ZM22.6667 25.6667C23.3739 25.6667 24.0522 25.3857 24.5523 24.8856C25.0524 24.3855 25.3333 23.7072 25.3333 23C25.3333 22.2928 25.0524 21.6145 24.5523 21.1144C24.0522 20.6143 23.3739 20.3333 22.6667 20.3333C21.9594 20.3333 21.2811 20.6143 20.781 21.1144C20.281 21.6145 20 22.2928 20 23C20 23.7072 20.281 24.3855 20.781 24.8856C21.2811 25.3857 21.9594 25.6667 22.6667 25.6667V25.6667Z" fill="currentColor"/>
</svg>
