<svg viewBox="0 0 32 32" fill="none" xmlns="http://www.w3.org/2000/svg">
<path fill-rule="evenodd" clip-rule="evenodd" d="M15.962 1C17.5888 1.00001 18.9066 2.31134 18.9066 3.92994C18.9065 4.54095 18.5853 5.04178 18.3964 5.57774C16.6012 10.6898 19.2166 10.4877 23.2449 13.3541C24.233 14.0577 24.9244 15.3336 24.9241 17.3081C24.9244 17.9639 24.9242 21.4476 24.9241 24.4299L14.1006 13.5441L13.9607 13.6891C12.8127 14.9179 12.1851 16.5482 12.2111 18.2342C12.2373 19.9203 12.9149 21.5303 14.1006 22.7226L20.3746 29.0326L23.2275 26.1651L24.9241 27.8714C24.924 28.5222 24.9241 28.9213 24.9241 28.9213C24.9249 30.0693 23.989 31.0003 22.835 31H9.08908C7.93508 30.9998 6.99979 30.0694 7 28.9213C7 28.9213 7 18.4943 7 17.3081C6.99974 15.3336 7.69082 14.0575 8.67918 13.3541C12.7073 10.4879 15.3224 10.6899 13.5267 5.57774C13.3381 5.04163 13.0175 4.54088 13.0174 3.92994C13.0175 2.31129 14.3361 1.00023 15.962 1ZM15.962 2.70058C15.3845 2.70054 14.9167 3.16625 14.9165 3.74088C14.9162 4.31529 15.3845 4.78194 15.962 4.78215C16.5396 4.78215 17.0085 4.31566 17.0085 3.74088C17.0085 3.16594 16.5396 2.7 15.962 2.70058Z" fill="currentColor"/>
<path d="M22.6556 24.4434L20.3736 26.738L15.2416 21.5758L15.0988 21.4251C14.4571 20.7219 14.0347 19.8446 13.8845 18.9021C13.7344 17.9596 13.8628 16.9935 14.2539 16.1238L14.2954 16.0345L22.6556 24.4434Z" fill="currentColor"/>
<path d="M28.6451 28.1727C28.8721 28.4009 28.9999 28.7108 29 29.0336C29 29.3561 28.8726 29.6653 28.646 29.8935C28.4192 30.1217 28.1113 30.2503 27.7905 30.2505C27.4696 30.2506 27.1611 30.1226 26.9341 29.8944L24.9511 27.8983V24.4568L28.6451 28.1727Z" fill="currentColor"/>
</svg>
