<svg viewBox="0 0 32 32" fill="none" xmlns="http://www.w3.org/2000/svg">
<path d="M27 4.375C24.458 2.79167 20.7913 2 16 2C11.2087 2 7.542 2.79167 5 4.375C3.66667 5.167 3 6.042 3 7V25C3 25.9587 3.66667 26.8337 5 27.625C7.542 29.2083 11.2087 30 16 30C20.7913 30 24.458 29.2083 27 27.625C28.3333 26.833 29 25.958 29 25V7C29 6.04133 28.3333 5.16633 27 4.375ZM27 25C26.958 25.3333 26.5203 25.7187 25.687 26.156C24.8537 26.5933 23.562 27.01 21.812 27.406C20.062 27.802 18.1243 28 15.999 28C13.8737 28 11.936 27.802 10.186 27.406C8.436 27.01 7.14433 26.5933 6.311 26.156C5.47767 25.7187 5.04 25.3333 4.998 25V21.625C7.54 23.2083 11.2067 24 15.998 24C20.7893 24 24.456 23.2083 26.998 21.625V25H27ZM27 19C26.958 19.3333 26.5203 19.7187 25.687 20.156C24.8537 20.5933 23.562 21.01 21.812 21.406C20.062 21.802 18.1243 22 15.999 22C13.8737 22 11.936 21.802 10.186 21.406C8.436 21.01 7.14433 20.5933 6.311 20.156C5.47767 19.7187 5.04 19.3333 4.998 19V15.625C7.54 17.2083 11.2067 18 15.998 18C20.7893 18 24.456 17.2083 26.998 15.625V19H27ZM27 13C26.958 13.3333 26.5203 13.7187 25.687 14.156C24.8537 14.5933 23.562 15.01 21.812 15.406C20.062 15.802 18.1243 16 15.999 16C13.8737 16 11.936 15.802 10.186 15.406C8.436 15.01 7.14433 14.5933 6.311 14.156C5.47767 13.7187 5.04 13.3333 4.998 13V9.625C7.54 11.2083 11.2067 12 15.998 12C20.7893 12 24.456 11.2083 26.998 9.625V13H27ZM16 10C13.8747 10 11.937 9.802 10.187 9.406C8.437 9.01 7.14533 8.59333 6.312 8.156C5.47867 7.71867 5.041 7.33333 4.999 7C5.041 6.66667 5.47867 6.28133 6.312 5.844C7.14533 5.40667 8.437 4.99 10.187 4.594C11.937 4.198 13.8747 4 16 4C18.1253 4 20.063 4.198 21.813 4.594C23.563 4.99 24.8547 5.40667 25.688 5.844C26.5213 6.28133 26.959 6.66667 27.001 7C26.959 7.33333 26.5213 7.71867 25.688 8.156C24.8547 8.59333 23.563 9.01 21.813 9.406C20.063 9.802 18.1253 10 16 10Z" fill="currentColor"/>
</svg>
