<svg viewBox="0 0 32 32" fill="none" xmlns="http://www.w3.org/2000/svg">
<path d="M16 13.9766C18.6517 13.9766 21.1647 13.7579 23.539 13.3204C25.8741 12.8829 27.6944 12.2267 29 11.3517V13.9766C29 14.7425 28.426 15.4171 27.2781 16.0004C26.0511 16.6205 24.4682 17.1128 22.5294 17.4774C20.2735 17.842 18.097 18.0242 16 18.0242C13.903 18.0242 11.7265 17.842 9.47056 17.4774C7.53119 17.1128 5.9483 16.6205 4.72187 16.0004C3.57396 15.4171 3 14.7425 3 13.9766V11.3517C4.3062 12.2267 6.12653 12.8829 8.46099 13.3204C10.8353 13.7579 13.3483 13.9766 16 13.9766ZM16 26.0075C18.6517 26.0075 21.1647 25.7888 23.539 25.3513C25.9134 24.8409 27.7337 24.1663 29 23.3275V26.0075C29 26.7366 28.426 27.3929 27.2781 27.9762C26.091 28.6324 24.5081 29.1247 22.5294 29.4531C20.5901 29.8177 18.4136 30 16 30C13.5864 30 11.4099 29.8177 9.47056 29.4531C7.49194 29.1247 5.90904 28.6324 4.72187 27.9762C3.57396 27.3929 3 26.7366 3 26.0075V23.3275C4.26632 24.1663 6.08665 24.8409 8.46099 25.3513C10.8353 25.7888 13.3483 26.0075 16 26.0075ZM16 19.9921C18.6517 19.9921 21.1647 19.7733 23.539 19.3358C25.8741 18.8983 27.6944 18.2421 29 17.3671V19.9921C29 20.7212 28.426 21.3958 27.2781 22.0159C26.0118 22.6359 24.4289 23.1099 22.5294 23.4377C20.5901 23.8023 18.4136 23.9846 16 23.9846C13.5864 23.9846 11.4099 23.8023 9.47056 23.4377C7.57108 23.1093 5.98819 22.6354 4.72187 22.0159C3.57396 21.3958 3 20.7212 3 19.9921V17.3671C4.3062 18.2421 6.12653 18.8983 8.46099 19.3358C10.8353 19.7733 13.3483 19.9921 16 19.9921ZM16 2C18.4142 2 20.5907 2.18229 22.5294 2.54686C24.5081 2.87526 26.091 3.36758 27.2781 4.02381C28.426 4.60713 29 5.26336 29 5.9925V8.01631C29 8.74546 28.426 9.40169 27.2781 9.985C26.2094 10.5683 24.6265 11.0606 22.5294 11.462C20.5901 11.8265 18.4136 12.0088 16 12.0088C13.5864 12.0088 11.4099 11.8265 9.47056 11.462C7.37291 11.0606 5.79001 10.5683 4.72187 9.985C3.57396 9.40169 3 8.74546 3 8.01631V5.9925C3 5.26336 3.57396 4.60713 4.72187 4.02381C5.90904 3.36758 7.49194 2.87526 9.47056 2.54686C11.4099 2.18229 13.5864 2 16 2Z" fill="currentColor"/>
</svg>
