<svg viewBox="0 0 32 32" fill="none" xmlns="http://www.w3.org/2000/svg">
<path d="M29.8979 18.6816V4.7122C29.8979 4.55503 29.8393 4.41734 29.7222 4.29915C29.6444 4.22056 29.5276 4.18127 29.3719 4.18127H2.62813C2.47241 4.18127 2.35563 4.22056 2.27777 4.29915C2.16068 4.41734 2.10213 4.55503 2.10213 4.7122V18.6816C2.10213 18.8387 2.16068 18.9764 2.27777 19.0946C2.39487 19.2128 2.51165 19.2719 2.62813 19.2719H29.3719C29.489 19.2719 29.6058 19.2128 29.7222 19.0946C29.8387 18.9764 29.8972 18.8387 29.8979 18.6816ZM32 4.7122V23.0431C32 23.79 31.7468 24.4187 31.2404 24.9292C30.7341 25.4397 30.1112 25.6953 29.3719 25.6959H20.2626C20.2626 26.0889 20.3601 26.5211 20.5551 26.9926C20.7108 27.4641 20.8861 27.8769 21.0811 28.2308C21.2368 28.5452 21.3146 28.781 21.3146 28.9381C21.3146 29.2525 21.2172 29.508 21.0222 29.7048C20.8273 29.9016 20.5741 30 20.2626 30H11.7374C11.4259 30 11.1727 29.9016 10.9778 29.7048C10.7828 29.508 10.6854 29.2525 10.6854 28.9381C10.6854 28.7413 10.7632 28.5056 10.9189 28.2308C11.036 27.9951 11.2114 27.6021 11.4449 27.052C11.6399 26.5409 11.7374 26.0889 11.7374 25.6959H2.62813C1.88818 25.6959 1.26533 25.4404 0.759569 24.9292C0.253813 24.4181 0.000622853 23.7894 0 23.0431V4.7122C0 3.92633 0.25319 3.27783 0.759569 2.7667C1.26595 2.25557 1.8888 2 2.62813 2H29.3719C30.1118 2 30.7347 2.25557 31.2404 2.7667C31.7462 3.27783 31.9994 3.92633 32 4.7122Z" fill="currentColor"/>
</svg>
