<svg viewBox="0 0 32 32" fill="none" xmlns="http://www.w3.org/2000/svg">
<path d="M27.313 26C28.063 26 28.6983 25.7396 29.219 25.219C29.7397 24.6983 30 24.063 30 23.313V6.68798C30 5.93798 29.7397 5.30264 29.219 4.78198C28.6983 4.26131 28.063 4.00098 27.313 4.00098H4.688C3.938 4.00098 3.30267 4.26131 2.782 4.78198C2.26133 5.30264 2.001 5.93798 2.001 6.68798V23.313C2.001 24.063 2.26133 24.6983 2.782 25.219C3.30267 25.7396 3.938 26 4.688 26H0C0 26.6253 0.677 27.115 2.031 27.469C3.385 27.823 4.708 28 6 28H26C27.292 28 28.615 27.823 29.969 27.469C31.323 27.115 32 26.6253 32 26H27.313ZM4.688 6.68798H27.313V23.688H4.688V6.68798ZM16 27.188C15.6247 27.188 15.312 27.0526 15.062 26.782C14.812 26.5113 14.687 26.1883 14.687 25.813C14.687 25.4796 14.812 25.1776 15.062 24.907C15.312 24.6363 15.6247 24.501 16 24.501C16.3753 24.501 16.688 24.6363 16.938 24.907C17.188 25.1776 17.313 25.4796 17.313 25.813C17.313 26.1883 17.188 26.5113 16.938 26.782C16.688 27.0526 16.3753 27.188 16 27.188Z" fill="currentColor"/>
</svg>
