<svg viewBox="0 0 32 32" fill="none" xmlns="http://www.w3.org/2000/svg">
<path d="M3.21883 19.3523C3.10833 19.3523 3 19.2703 3 19.1336V10.2305C3 10.1019 3.10346 10.0111 3.21672 10.0111C3.254 10.0111 3.29234 10.0209 3.32841 10.0425L7.47866 12.5089L3.401 19.1972C3.35696 19.325 3.28763 19.3523 3.21883 19.3523ZM14.6675 24.1594L3.39 22.953C3.15871 22.9266 3.00417 22.7278 3.00417 22.5157C3.00417 22.4391 3.02435 22.3608 3.06836 22.2882L8.77958 13.7633L14.6675 24.1594ZM3.81792 24.9742C3.81792 24.8627 3.8996 24.7518 4.03079 24.7518C4.03975 24.7518 4.04894 24.7523 4.05836 24.7533L15.0867 25.9734V29.5642C15.0846 29.8141 14.9275 30 14.7 30C14.6397 30 14.5779 29.9869 14.5178 29.9586L3.98854 25.1656C3.90404 25.1219 3.81792 25.0453 3.81792 24.9742ZM3.97175 8.40391C3.90193 8.36212 3.86677 8.28972 3.86677 8.21704C3.86677 8.14698 3.89938 8.07666 3.96498 8.03307L12.1333 2.64143C12.1596 2.60047 12.2788 2.58188 12.3492 2.58188C12.5832 2.58188 12.7827 2.78537 12.7827 3.02058C12.7827 3.09599 12.7621 3.17469 12.7157 3.25103L8.38958 11.0672L3.97175 8.40391ZM10.085 11.5758L15.2628 2.36641C15.4313 2.13836 15.7129 2 15.9513 2C16.1896 2 16.52 2.13836 16.689 2.41694L21.8668 11.6263H10.085V11.5758ZM21.4383 13.3258L16 22.9344L10.5617 13.3258H21.4383ZM27.9221 24.7008C28.0533 24.7008 28.135 24.8117 28.135 24.9232C28.135 24.9986 28.0976 25.0742 28.013 25.116L17.483 29.9099C17.4232 29.9377 17.3616 29.9506 17.3015 29.9506C17.074 29.9506 16.8685 29.7662 16.8685 29.5134V25.921L27.8968 24.7025C27.9004 24.75 27.9113 24.7008 27.9221 24.7008ZM28.935 22.2836C28.9783 22.3602 29 22.4367 29 22.5133C29 22.725 28.8461 22.9234 28.6139 22.9497L17.3364 24.1561L23.2189 13.76L28.935 22.2836ZM19.2825 3.2507C19.236 3.17441 19.2155 3.09572 19.2155 3.02025C19.2155 2.78504 19.415 2.58155 19.649 2.58155C19.7198 2.58155 19.7939 2.6002 19.8665 2.64225L28.0348 8.03389C28.1004 8.07749 28.133 8.14742 28.133 8.21726C28.133 8.28972 28.0979 8.36212 28.028 8.40478L23.6104 11.0672L19.2825 3.2507ZM28.7346 10.0117C28.8478 10.0117 28.9513 10.1026 28.9513 10.2311V19.1343C28.9513 19.27 28.8421 19.3533 28.7318 19.3533C28.663 19.3533 28.5937 19.321 28.5501 19.2488L24.4725 12.5605L28.6227 10.0941C28.7075 10.0227 28.7454 10.0117 28.7346 10.0117Z" fill="currentColor"/>
</svg>
