<svg viewBox="0 0 32 32" fill="none" xmlns="http://www.w3.org/2000/svg">
<path d="M22.4 25.3334L18.6667 30.0001L14.9334 25.3334H8.00004C7.64642 25.3334 7.30728 25.1929 7.05723 24.9429C6.80718 24.6928 6.66671 24.3537 6.66671 24.0001V9.47075C6.66671 9.11713 6.80718 8.77799 7.05723 8.52794C7.30728 8.27789 7.64642 8.13742 8.00004 8.13742H29.3334C29.687 8.13742 30.0261 8.27789 30.2762 8.52794C30.5262 8.77799 30.6667 9.11713 30.6667 9.47075V24.0001C30.6667 24.3537 30.5262 24.6928 30.2762 24.9429C30.0261 25.1929 29.687 25.3334 29.3334 25.3334H22.4ZM2.66671 2.66675H25.3334V5.33341H4.00004V20.0001H1.33337V4.00008C1.33337 3.64646 1.47385 3.30732 1.7239 3.05727C1.97395 2.80722 2.31309 2.66675 2.66671 2.66675V2.66675Z" fill="currentColor"/>
</svg>
