<svg viewBox="0 0 32 32" fill="none" xmlns="http://www.w3.org/2000/svg">
<path d="M5.33329 25.3333H26.6666V16H29.3333V26.6667C29.3333 27.0203 29.1928 27.3594 28.9428 27.6095C28.6927 27.8595 28.3536 28 28 28H3.99996C3.64634 28 3.3072 27.8595 3.05715 27.6095C2.8071 27.3594 2.66663 27.0203 2.66663 26.6667V16H5.33329V25.3333ZM18.6666 12H24.1262C24.5716 12 24.7947 12.5386 24.4797 12.8536L16.7071 20.6262C16.3165 21.0168 15.6834 21.0168 15.2929 20.6262L7.52018 12.8536C7.2052 12.5386 7.42828 12 7.87373 12H13.3333V4H18.6666V12Z" fill="currentColor"/>
</svg>
