<svg viewBox="0 0 32 32" fill="none" xmlns="http://www.w3.org/2000/svg">
<path d="M14.775 13.1999V7.59992H10.4L15.6464 2.35348C15.8417 2.15822 16.1583 2.15822 16.3535 2.35348L21.6 7.59992H17.225V13.1999H14.775ZM18.8 17.2249V14.7749H24.4V10.3999L29.6464 15.6464C29.8417 15.8416 29.8417 16.1582 29.6464 16.3535L24.4 21.5999V17.2249H18.8ZM17.225 18.7999V24.3999H21.6L16.3535 29.6464C16.1583 29.8416 15.8417 29.8416 15.6464 29.6464L10.4 24.3999H14.775V18.7999H17.225ZM13.2 14.7749V17.2249H7.59999V21.5999L2.35354 16.3535C2.15828 16.1582 2.15828 15.8416 2.35354 15.6464L7.59999 10.3999V14.7749H13.2Z" fill="currentColor"/>
</svg>
