<svg viewBox="0 0 32 32" fill="none" xmlns="http://www.w3.org/2000/svg">
<path fill-rule="evenodd" clip-rule="evenodd" d="M20.525 12.576C19.3126 10.5104 19.3128 4.70469 24.1057 5.01173C24.1251 5.01175 27.4052 5.02082 27.7144 8.10997C27.7141 8.11115 27.7106 8.12897 27.7114 8.16095C26.5642 8.51035 25.9495 9.1737 25.6564 9.86606C25.3628 10.5596 25.3996 11.2626 25.5081 11.6709C25.5083 11.6718 25.5085 11.6727 25.5088 11.6736C25.3227 11.8532 25.2051 12.078 25.2051 12.3804C25.2051 12.3804 25.0642 13.8042 27.2633 14.6415C31.0413 16.093 34.8474 28.0674 19.059 26.923C19.059 26.923 12.8563 26.6718 7.92242 23.8527C7.92242 23.8527 2.25556 21.2847 0 20.6985L3.05944 19.611L5.28634 21.119C6.48784 21.9325 8.11224 22.6161 9.95412 23.0835C11.796 23.5509 13.7728 23.7811 15.6343 23.7448C17.4958 23.7086 19.1585 23.4077 20.4122 22.88C21.6658 22.3523 22.4541 21.6215 22.6773 20.7803C22.9004 19.939 22.5486 19.025 21.6662 18.1537C20.7838 17.2824 19.4104 16.493 17.7198 15.8854C17.4005 15.7706 17.0726 15.6634 16.7378 15.5639C19.5119 15.2865 21.5144 14.3018 20.525 12.576ZM24.4458 7.20372C24.1222 7.20372 23.8599 7.46339 23.8599 7.78372C23.86 8.10402 24.1223 8.36372 24.4458 8.36372C24.7693 8.36372 25.0316 8.10402 25.0316 7.78372C25.0316 7.46339 24.7693 7.20372 24.4458 7.20372Z" fill="currentColor"/>
<path d="M27.905 8.58756C28.1943 8.93932 28.9067 9.43501 30.6466 9.89642H31.1258C31.5769 9.89642 31.9718 10.2872 32 10.7338C31.9999 11.2082 31.6052 11.5711 31.1542 11.5712H25.9653C25.9642 11.565 25.9631 11.5588 25.9614 11.5526C25.8747 11.2262 25.8411 10.6299 26.0884 10.0455C26.3303 9.47405 26.8486 8.89377 27.905 8.58756Z" fill="currentColor"/>
<path d="M7.48274 21.3226L1.63084 17.9656L8.40591 15.7719C9.74589 15.338 11.399 15.1108 13.1561 15.1189C14.9133 15.127 16.6956 15.3701 18.2777 15.8175C19.8597 16.2649 21.1705 16.8964 22.0442 17.6323C22.918 18.3681 23.3154 19.1752 23.1863 19.9514C23.0572 20.7277 22.4074 21.4383 21.3189 21.9934C20.2305 22.5485 18.7524 22.9231 17.0715 23.0698C15.3906 23.2166 13.5825 23.1289 11.8757 22.8179C10.1689 22.5069 8.64014 21.9866 7.48274 21.3226Z" fill="currentColor"/>
</svg>
