<svg viewBox="0 0 32 32" fill="none" xmlns="http://www.w3.org/2000/svg">
<path d="M27.9771 24.5361V12.4968C27.6487 12.8616 27.3023 13.2083 26.9377 13.537C24.4587 15.4341 22.2349 17.2036 20.2662 18.8457C20.1204 18.9554 19.8926 19.1288 19.5829 19.3658C19.2732 19.6027 19.0635 19.7761 18.9538 19.8859C18.5163 20.1777 18.0789 20.4331 17.6414 20.652C16.9484 20.9077 16.4016 21.0355 16.0009 21.0355C15.6002 21.0355 15.0533 20.9077 14.3604 20.652C13.9229 20.4331 13.4854 20.1777 13.0479 19.8859C12.9383 19.7761 12.7286 19.6027 12.4188 19.3658C12.1091 19.1288 11.8813 18.9554 11.7355 18.8457C9.76689 17.2036 7.54307 15.4341 5.06406 13.537C4.6995 13.2083 4.35302 12.8616 4.02462 12.4968V24.5361C4.02462 24.682 4.06108 24.7915 4.13399 24.8644C4.24365 24.9742 4.37139 25.0291 4.51722 25.0291H27.4845C27.6304 25.0291 27.7581 24.9742 27.8678 24.8644C27.9407 24.7915 27.9771 24.682 27.9771 24.5361ZM27.9771 8.06455V7.51731L27.922 7.29842L27.8669 7.18897L27.7024 7.02436H4.51634C4.40668 7.02436 4.27894 7.06084 4.13312 7.13381C4.0602 7.20677 4.02375 7.33461 4.02375 7.51731C4.02375 9.26849 4.78933 10.7462 6.32048 11.9504C6.7947 12.3152 7.7516 13.0723 9.19118 14.2217C10.6308 15.371 11.7518 16.2741 12.5545 16.9307L12.719 17.0954C12.8648 17.1683 12.9925 17.2597 13.1022 17.3694C13.5397 17.7342 13.7768 17.935 13.8135 17.9718C13.9961 18.0448 14.2332 18.2091 14.5248 18.4648C14.8894 18.6837 15.1446 18.8296 15.2904 18.9026C15.655 18.9755 15.8921 19.012 16.0018 19.012C16.1114 19.012 16.3485 18.9755 16.7131 18.9026C16.8589 18.8296 17.1141 18.6837 17.4787 18.4648C17.7703 18.2091 18.0074 18.0448 18.19 17.9718C18.2267 17.935 18.4638 17.7342 18.9013 17.3694C19.011 17.2597 19.1387 17.1683 19.2845 17.0954L19.449 16.9307C20.2511 16.2741 21.3722 15.371 22.8123 14.2217C24.2525 13.0723 25.2094 12.3152 25.683 11.9504C26.2302 11.5488 26.7589 10.9467 27.2693 10.1441C27.7435 9.41442 27.9806 8.72124 27.9806 8.06455H27.9771ZM30 7.51731V24.537C30 25.2304 29.7629 25.8142 29.2887 26.2881C28.8145 26.7621 28.2128 26.9994 27.4837 27H4.51634C3.78722 27 3.18555 26.7627 2.71133 26.2881C2.23711 25.8136 2 25.2299 2 24.537V7.51731C2 6.82385 2.23711 6.24012 2.71133 5.76614C3.22172 5.25538 3.82339 5 4.51634 5H27.4837C28.1766 5 28.7783 5.25538 29.2887 5.76614C29.7629 6.24071 30 6.82443 30 7.51731Z" fill="currentColor"/>
</svg>
