<svg viewBox="0 0 32 32" fill="none" xmlns="http://www.w3.org/2000/svg">
<path d="M30 12.1153V24.5372C30 25.2306 29.7629 25.8143 29.2887 26.2882C28.8146 26.7622 28.2129 26.9994 27.4839 27H4.51873C3.78968 27 3.18806 26.7627 2.71389 26.2882C2.23971 25.8137 2.00262 25.23 2.00262 24.5372V12.1153C2.36715 12.5169 2.89586 12.973 3.58875 13.4838C7.81726 16.366 10.4054 18.1535 11.3532 18.8463L11.9 19.2569C11.9 19.2569 12.0732 19.3848 12.4196 19.6404C12.7661 19.8961 12.8845 19.9781 12.7748 19.8864C13.3219 20.1783 13.8142 20.4336 14.2516 20.6525C15.0174 20.9082 15.6006 21.036 16.0013 21.036C16.402 21.036 16.9852 20.9082 17.751 20.6525C18.1885 20.4336 18.6807 20.1783 19.2278 19.8864C19.3375 19.8135 19.4559 19.7315 19.583 19.6404C19.7101 19.5493 19.8834 19.4215 20.1027 19.2569L20.6495 18.8463C24.0031 16.5116 26.5912 14.7241 28.4139 13.4838C29.1068 12.973 29.6355 12.5169 30 12.1153ZM30 7.51886C30 8.28523 29.7448 9.0697 29.2345 9.87225C28.7971 10.5289 28.159 11.1674 27.3203 11.7879C23.7479 14.3053 21.3056 16.0018 19.9933 16.8773L19.884 16.9867C19.811 17.0235 19.7291 17.0783 19.6381 17.1513C19.5471 17.2243 19.4468 17.2972 19.3372 17.3702C19.2275 17.4431 18.954 17.6439 18.5165 17.9725C18.2978 18.0823 18.0243 18.2466 17.6959 18.4655L16.8211 18.9032C16.3836 18.9762 16.1101 19.0127 16.0004 19.0127C15.8908 19.0127 15.6172 18.9762 15.1798 18.9032L14.9611 18.7938C14.9611 18.7938 14.8972 18.7663 14.7695 18.7115C14.6418 18.6566 14.5689 18.6201 14.5508 18.602C14.5327 18.5839 14.4508 18.5384 14.305 18.4655C13.9766 18.2466 13.703 18.0823 13.4843 17.9725C13.0469 17.6439 12.7734 17.4431 12.6637 17.3702C12.5541 17.2972 12.4537 17.2243 12.3628 17.1513C12.2718 17.0783 12.1898 17.0235 12.1169 16.9867L12.0076 16.8773C11.643 16.6584 10.9959 16.2206 10.0662 15.564C9.13655 14.9074 8.41654 14.3966 7.9062 14.0318C7.39586 13.7032 6.88553 13.3565 6.37519 12.9917L5.2265 12.1705C5.2265 12.1705 5.04423 12.0427 4.67971 11.787C4.02356 11.3493 3.42194 10.7472 2.87486 9.98082C2.29162 9.25122 2 8.53972 2 7.84631C2 7.04375 2.21872 6.36873 2.65615 5.82124C3.09358 5.27375 3.71327 5 4.51523 5H27.4804C28.1365 5 28.7198 5.25536 29.2301 5.76608C29.7405 6.2768 29.9956 6.86047 29.9956 7.51711L30 7.51886Z" fill="currentColor"/>
</svg>
