<svg viewBox="0 0 32 32" fill="none" xmlns="http://www.w3.org/2000/svg">
<path d="M28.2668 27.5496C28.9569 27.5497 29.5166 28.1094 29.5168 28.7996C29.5168 29.4899 28.9571 30.0495 28.2668 30.0496H4.79999C4.10963 30.0496 3.54999 29.4899 3.54999 28.7996C3.5502 28.1094 4.10976 27.5496 4.79999 27.5496H28.2668ZM26.3058 11.2292C26.3058 11.2177 26.3033 11.2065 26.299 11.196L26.2795 11.1667L19.5891 4.47632L19.5598 4.45679C19.5491 4.45244 19.5373 4.44995 19.5256 4.44995C19.5022 4.45008 19.4797 4.45981 19.4631 4.47632L6.07635 17.863L6.05682 17.8914C6.05237 17.9021 6.05002 17.9137 6.04999 17.9255C6.04999 17.9488 6.05921 17.9714 6.07538 17.988L11.0646 22.9763H14.5959L26.2795 11.2927C26.2961 11.276 26.3058 11.2528 26.3058 11.2292ZM28.8058 11.2292C28.8058 11.9133 28.5352 12.5703 28.0529 13.0554L28.05 13.0574L15.9973 25.1111C15.7629 25.3454 15.4449 25.4763 15.1135 25.4763H10.5471C10.2155 25.4763 9.89671 25.3455 9.66229 25.1111L4.30292 19.7507C3.82089 19.2656 3.54999 18.6094 3.54999 17.9255C3.55005 17.2416 3.8208 16.5854 4.30292 16.1003L17.6984 2.70581L17.7004 2.70288C18.1854 2.22075 18.8417 1.95008 19.5256 1.94995C20.124 1.94995 20.7014 2.15728 21.1613 2.53198L21.3517 2.70288L21.3537 2.70581L28.05 9.4021L28.0529 9.40405C28.5351 9.88909 28.8057 10.5454 28.8058 11.2292Z" fill="currentColor"/>
</svg>
