<svg viewBox="0 0 32 32" fill="none" xmlns="http://www.w3.org/2000/svg">
<path d="M19.4854 23.1047V26.9254C19.4854 27.2043 19.3587 27.4431 19.1053 27.6418C18.8939 27.8806 18.6405 28 18.3452 28H13.658C13.3621 28 13.1088 27.8806 12.898 27.6418C12.6446 27.4425 12.5179 27.2037 12.5179 26.9254V23.1047C12.5179 22.7462 12.6446 22.4873 12.898 22.3281C13.1094 22.0893 13.3628 21.9699 13.658 21.9699H18.3452C18.6412 21.9699 18.8945 22.0893 19.1053 22.3281C19.3587 22.4873 19.4854 22.7462 19.4854 23.1047ZM19.9921 5.07554L19.4854 18.1501C19.4854 18.4685 19.3796 18.7274 19.1682 18.9267C18.9148 19.1655 18.6402 19.2849 18.3442 19.2849H13.657C13.3611 19.2849 13.0865 19.1655 12.8331 18.9267C12.6216 18.7274 12.5159 18.4685 12.5159 18.1501L12.0092 5.07554C11.9666 4.79662 12.0723 4.53777 12.3264 4.29897C12.4953 4.09966 12.7486 4 13.0865 4H18.9138C19.2516 4 19.505 4.09966 19.6739 4.29897C19.9272 4.53777 20.034 4.79662 19.9921 5.07554Z" fill="currentColor"/>
</svg>
