<svg viewBox="0 0 32 32" fill="none" xmlns="http://www.w3.org/2000/svg">
<path d="M17.35 12.55L22.15 7.75L18.4 4H27.5C27.7761 4 28 4.22386 28 4.5V13.6L24.25 9.85L19.45 14.65L17.35 12.55ZM17.35 19.45L19.45 17.35L24.25 22.15L28 18.4V27.5C28 27.7761 27.7761 28 27.5 28H18.4L22.15 24.25L17.35 19.45ZM14.65 19.45L9.85 24.25L13.6 28H4.5C4.22386 28 4 27.7761 4 27.5V18.4L7.75 22.15L12.55 17.35L14.65 19.45ZM14.65 12.55L12.55 14.65L7.75 9.85L4 13.6V4.5C4 4.22386 4.22386 4 4.5 4H13.6L9.85 7.75L14.65 12.55Z" fill="currentColor"/>
</svg>
