<svg viewBox="0 0 32 32" fill="none" xmlns="http://www.w3.org/2000/svg">
<path d="M13.1111 7.33333V10.2222H5.88889V26.1111H21.7778V18.8889H24.6667V27.5556C24.6667 27.9386 24.5145 28.306 24.2436 28.5769C23.9727 28.8478 23.6053 29 23.2222 29H4.44444C4.06135 29 3.69395 28.8478 3.42307 28.5769C3.15218 28.306 3 27.9386 3 27.5556V8.77778C3 8.39469 3.15218 8.02729 3.42307 7.7564C3.69395 7.48552 4.06135 7.33333 4.44444 7.33333H13.1111ZM28.5 3C28.7761 3 29 3.22386 29 3.5V14.5556H26.1111V7.92989L14.8546 19.1879L12.8121 17.1454L24.0672 5.88889H17.4444V3H28.5Z" fill="currentColor"/>
</svg>
