<svg viewBox="0 0 32 32" fill="none" xmlns="http://www.w3.org/2000/svg">
<path d="M17.625 8.31294C16.875 8.22961 16.3334 8.18794 16 8.18794C13.5834 8.18794 11.2084 8.75061 8.87502 9.87594C7.04169 10.8346 5.43736 12.0013 4.06202 13.3759C2.97869 14.5426 2.37436 15.5636 2.24902 16.4389C2.29102 17.1889 2.89536 18.1889 4.06202 19.4389C5.22869 20.7309 6.83302 21.8976 8.87502 22.9389C8.87502 22.9809 8.89602 23.0019 8.93802 23.0019C8.98002 23.0019 9.02169 23.0229 9.06302 23.0649L7.37502 26.0649L9.68802 27.4399L22.313 5.43994L20.063 4.06494L17.625 8.31294ZM22.938 9.81294L21.188 12.7509C22.0214 13.8343 22.438 15.0636 22.438 16.4389C22.438 18.1476 21.813 19.6059 20.563 20.8139C19.313 22.0219 17.792 22.6263 16 22.6269C15.958 22.6269 15.885 22.6166 15.781 22.5959C15.677 22.5753 15.604 22.5649 15.562 22.5649L14.437 24.5649C14.7704 24.6069 15.2914 24.6279 16 24.6279C18.4167 24.6279 20.7917 24.0653 23.125 22.9399C24.917 22.0646 26.5214 20.8979 27.938 19.4399C28.98 18.3979 29.5844 17.3979 29.751 16.4399C29.709 15.7733 29.1047 14.7523 27.938 13.3769C26.688 12.0436 25.0837 10.8769 23.125 9.87694H23.062C23.02 9.83494 22.9784 9.81394 22.937 9.81394L22.938 9.81294ZM16 10.2499H16.438L15.125 12.5629C14.1664 12.7716 13.385 13.2299 12.781 13.9379C12.177 14.6459 11.875 15.4793 11.875 16.4379C11.875 16.9799 11.9584 17.4176 12.125 17.7509L10.812 20.0639C9.93669 18.9806 9.49902 17.7723 9.49902 16.4389C9.49902 14.7303 10.1344 13.2719 11.405 12.0639C12.6757 10.8559 14.207 10.2516 15.999 10.2509L16 10.2499ZM19.875 15.0629L16.875 20.2509C17.8337 20.0423 18.615 19.5839 19.219 18.8759C19.823 18.1679 20.125 17.3553 20.125 16.4379C20.125 16.1046 20.0417 15.6463 19.875 15.0629Z" fill="currentColor"/>
</svg>
