<svg viewBox="0 0 32 32" fill="none" xmlns="http://www.w3.org/2000/svg">
<path d="M20.125 16.875C20.125 17.9583 19.7187 18.896 18.906 19.688C18.0934 20.48 17.1247 20.876 16 20.876C14.8334 20.876 13.854 20.48 13.062 19.688C12.27 18.896 11.874 17.9583 11.874 16.875C11.874 15.7917 12.27 14.8647 13.062 14.094C13.854 13.3233 14.8334 12.938 16 12.938C17.1254 12.938 18.094 13.3233 18.906 14.094C19.718 14.8647 20.1244 15.7917 20.125 16.875ZM16 8.68799C13.5834 8.68799 11.2084 9.25066 8.87502 10.376C7.16636 11.2093 5.56202 12.376 4.06202 13.876C3.02002 14.918 2.41569 15.939 2.24902 16.939C2.29102 17.689 2.89536 18.689 4.06202 19.939C5.31202 21.2723 6.91636 22.439 8.87502 23.439C11.2084 24.5643 13.5834 25.127 16 25.127C18.4167 25.127 20.7917 24.5643 23.125 23.439C24.7917 22.647 26.396 21.4803 27.938 19.939C28.98 18.897 29.5844 17.897 29.751 16.939C29.709 16.147 29.1047 15.126 27.938 13.876C26.688 12.5427 25.0837 11.376 23.125 10.376C20.7917 9.25066 18.4167 8.68799 16 8.68799ZM16 10.75C17.792 10.75 19.313 11.3543 20.563 12.563C21.813 13.7717 22.438 15.23 22.438 16.938C22.438 18.646 21.813 20.094 20.563 21.282C19.313 22.47 17.792 23.0637 16 23.063C14.208 23.0623 12.6767 22.458 11.406 21.25C10.1354 20.042 9.50002 18.6043 9.50002 16.937C9.50002 15.2283 10.1354 13.77 11.406 12.562C12.6767 11.354 14.208 10.7497 16 10.749V10.75Z" fill="currentColor"/>
</svg>
