<svg viewBox="0 0 32 32" fill="none" xmlns="http://www.w3.org/2000/svg">
<path d="M26.9585 7.96031C27.2507 8.25197 27.5064 8.63492 27.7256 9.10915C27.9085 9.51047 28 9.96633 28 10.4767V28.523C28 28.9605 27.8539 29.307 27.5617 29.5625C27.2694 29.8542 26.9223 30 26.5202 30H5.47984C5.07773 30 4.73057 29.8542 4.43834 29.5625C4.14611 29.307 4 28.9605 4 28.523V3.47695C4 3.03947 4.14611 2.69298 4.43834 2.43749C4.73057 2.14583 5.07773 2 5.47984 2H19.5067C19.9451 2 20.4018 2.10937 20.877 2.32811C21.4614 2.58361 21.8632 2.82072 22.0824 3.03947L26.9585 7.96031ZM20.0003 4.13231V9.98413H25.9179C25.808 9.65572 25.68 9.45506 25.5339 9.38214L20.6569 4.46042C20.547 4.35076 20.3288 4.24139 20.0003 4.13231ZM26.0275 27.9753V12.0071H19.5067C19.1046 12.0071 18.7575 11.8612 18.4652 11.5696C18.173 11.3141 18.0269 10.9495 18.0269 10.4759V4.02294H5.97253V27.9753H26.0275ZM17.9725 18.733C18.2285 18.9517 18.6669 19.2434 19.2876 19.608C20.0912 19.535 20.694 19.4986 21.0961 19.4986C22.6303 19.4986 23.562 19.7538 23.891 20.2642C24.0371 20.4829 24.0555 20.7565 23.9462 21.0849H23.891V21.14C23.8542 21.5413 23.4705 21.742 22.7399 21.742C22.2285 21.742 21.6441 21.6326 20.9866 21.4139C20.256 21.2313 19.562 20.9577 18.9044 20.5932C16.6397 20.8487 14.5941 21.2861 12.7677 21.9056C11.1967 24.6402 9.93629 26.0075 8.98656 26.0075C8.9135 26.0075 8.76739 25.971 8.54822 25.8981L8.16423 25.6794L8.109 25.6243C7.99912 25.5146 7.9626 25.3323 7.99942 25.0774C8.10929 24.6032 8.40152 24.1292 8.8761 23.6556C9.31444 23.1813 10.0085 22.6709 10.9582 22.1244C11.1043 21.9785 11.2139 22.015 11.287 22.2337C11.3238 22.2337 11.3422 22.2521 11.3422 22.2889C11.8536 21.4868 12.4015 20.466 12.986 19.2265C13.6803 17.8043 14.2282 16.437 14.6297 15.1246C14.4106 14.2129 14.2461 13.3744 14.1362 12.609C14.0994 11.8432 14.1359 11.1869 14.2458 10.6404C14.3556 10.2029 14.5748 9.98413 14.9033 9.98413H15.2873C15.4702 9.98413 15.6528 10.0754 15.8352 10.258C16.0181 10.4767 16.0546 10.8232 15.9448 11.2975L15.8895 11.4068V12.0088C15.8895 13.3942 15.8165 14.3969 15.6704 15.017C16.2916 16.7307 17.0587 17.9703 17.9717 18.7356L17.9725 18.733ZM8.9322 25.1317C9.4436 24.9129 10.1742 24.0925 11.1239 22.6704C10.6487 23.0717 10.192 23.5092 9.75365 23.9828L8.9322 25.1317ZM15.1786 10.804C15.0324 11.2415 15.0324 11.9161 15.1786 12.8278C15.1786 12.6452 15.2151 12.4265 15.2881 12.1716C15.2881 11.989 15.3247 11.7519 15.3977 11.4602C15.3977 11.4235 15.4161 11.387 15.453 11.3508H15.3977V11.2957C15.3977 11.0402 15.3247 10.8396 15.1786 10.6937V10.804ZM13.2604 21.0849C14.7215 20.5016 16.2011 20.0822 17.699 19.8267L17.4798 19.7173L17.2607 19.4986C16.457 18.8056 15.7811 17.8758 15.2329 16.7092C14.9769 17.548 14.5567 18.5871 13.9722 19.8267C13.8624 20.0454 13.7253 20.2916 13.5611 20.5652C13.3968 20.8387 13.2963 21.012 13.2595 21.0849H13.2604ZM23.3422 20.8662C23.123 20.6107 22.3925 20.4829 21.1505 20.4829C22.0272 20.7746 22.6847 20.9204 23.123 20.9204H23.3974C23.3974 20.8837 23.379 20.8662 23.3422 20.8662Z" fill="currentColor"/>
</svg>
