<svg viewBox="0 0 32 32" fill="none" xmlns="http://www.w3.org/2000/svg">
<path d="M19.9994 9.98413V2.60111C20.2916 2.81985 20.4743 2.96568 20.5473 3.03859L26.9585 9.43727C27.0316 9.51018 27.1777 9.69247 27.3968 9.98413H19.9994ZM18.0269 10.4767C18.0269 10.951 18.173 11.3155 18.4652 11.5705C18.7575 11.8621 19.1046 12.0079 19.5067 12.0079H28V28.523C28 28.9605 27.8539 29.307 27.5617 29.5625C27.2694 29.8542 26.9223 30 26.5202 30H5.47984C5.07773 30 4.73057 29.8542 4.43834 29.5625C4.14611 29.307 4 28.9605 4 28.523V3.47695C4 3.03947 4.14611 2.69298 4.43834 2.43749C4.73057 2.14583 5.07773 2 5.47984 2H18.0278L18.0269 10.4767Z" fill="currentColor"/>
</svg>
