<svg viewBox="0 0 32 32" fill="none" xmlns="http://www.w3.org/2000/svg">
<path d="M26.9585 7.96031C27.2507 8.25197 27.5064 8.63492 27.7256 9.10915C27.9085 9.51047 28 9.96633 28 10.4767V28.523C28 28.9605 27.8539 29.307 27.5617 29.5625C27.2694 29.8542 26.9223 30 26.5202 30H5.47984C5.07773 30 4.73057 29.8542 4.43834 29.5625C4.14611 29.307 4 28.9605 4 28.523V3.47695C4 3.03947 4.14611 2.69298 4.43834 2.43749C4.73057 2.14583 5.07773 2 5.47984 2H19.5067C19.9451 2 20.4018 2.10937 20.877 2.32811C21.4614 2.58361 21.8632 2.82072 22.0824 3.03947L26.9585 7.96031ZM20.0003 4.13231V9.98413H25.9179C25.808 9.65572 25.68 9.45506 25.5339 9.38214L20.6569 4.46042C20.547 4.35076 20.3288 4.24139 20.0003 4.13231ZM26.0275 27.9753V12.0071H19.5067C19.1046 12.0071 18.7575 11.8612 18.4652 11.5696C18.173 11.3141 18.0269 10.9495 18.0269 10.4759V4.02294H5.97253V27.9753H26.0275ZM23.9997 20.9755V26.0066H8.00029V22.9985L11.0143 19.9903L12.9868 22.0141L19.014 15.9987L23.9997 20.9755ZM11.0143 18.0225C10.1739 18.0225 9.46143 17.7308 8.87697 17.1475C8.29252 16.5642 8.00029 15.8532 8.00029 15.0143C8.00029 14.1755 8.29252 13.4645 8.87697 12.8812C9.42519 12.2978 10.1376 12.0062 11.0143 12.0062C11.8548 12.0062 12.5488 12.2978 13.0964 12.8812C13.6809 13.4645 13.9731 14.1755 13.9731 15.0143C13.9731 15.8532 13.6809 16.5642 13.0964 17.1475C12.512 17.7308 11.8179 18.0225 11.0143 18.0225Z" fill="currentColor"/>
</svg>
