<svg viewBox="0 0 32 32" fill="none" xmlns="http://www.w3.org/2000/svg">
<path d="M26.9585 7.96031C27.2507 8.25197 27.5064 8.63492 27.7256 9.10915C27.9085 9.51047 28 9.96633 28 10.4767V28.523C28 28.9605 27.8539 29.307 27.5617 29.5625C27.2694 29.8542 26.9223 30 26.5202 30H5.47984C5.07773 30 4.73057 29.8542 4.43834 29.5625C4.14611 29.307 4 28.9605 4 28.523V3.47695C4 3.03947 4.14611 2.69298 4.43834 2.43749C4.73057 2.14583 5.07773 2 5.47984 2H19.5067C19.9451 2 20.4018 2.10937 20.877 2.32811C21.4614 2.58361 21.8632 2.82072 22.0824 3.03947L26.9585 7.96031ZM20.0003 4.13231V9.98413H25.9179C25.808 9.65572 25.68 9.45506 25.5339 9.38214L20.6569 4.46042C20.547 4.35076 20.3288 4.24139 20.0003 4.13231ZM26.0275 27.9753V12.0071H19.5067C19.1046 12.0071 18.7575 11.8612 18.4652 11.5696C18.173 11.3141 18.0269 10.9495 18.0269 10.4759V4.02294H5.97253V27.9753H26.0275ZM9.97282 14.5226C9.97282 14.3768 10.0278 14.249 10.1376 14.1394C10.2475 14.0297 10.3571 13.9749 10.4664 13.9749H21.5345C21.6444 13.9749 21.7539 14.0297 21.8632 14.1394C21.9725 14.249 22.0275 14.3768 22.0281 14.5226V15.507C22.0281 15.6895 21.9731 15.7989 21.8632 15.8351C21.7534 15.9447 21.6438 15.9996 21.5345 15.9996H10.4664C10.3565 15.9996 10.2469 15.9447 10.1376 15.8351C10.0278 15.7983 9.97282 15.6889 9.97282 15.507V14.5226ZM21.5345 18.0225C21.6806 18.0225 21.7902 18.059 21.8632 18.1319C21.9731 18.2415 22.0281 18.3693 22.0281 18.5151V19.4995C22.0281 19.6453 21.9731 19.773 21.8632 19.8827C21.7171 19.9556 21.6075 19.9921 21.5345 19.9921H10.4664C10.3933 19.9921 10.2838 19.9556 10.1376 19.8827C10.0278 19.773 9.97282 19.6453 9.97282 19.4995V18.5151C9.97282 18.3693 10.0278 18.2415 10.1376 18.1319C10.2107 18.059 10.3203 18.0225 10.4664 18.0225H21.5345ZM21.5345 22.0141C21.6075 22.0141 21.7171 22.0506 21.8632 22.1235C21.9731 22.2332 22.0281 22.3609 22.0281 22.5067V23.4911C22.0281 23.6369 21.9731 23.7647 21.8632 23.8743C21.7171 23.9472 21.6075 23.9837 21.5345 23.9837H10.4664C10.3933 23.9837 10.2838 23.9472 10.1376 23.8743C10.0278 23.7647 9.97282 23.6369 9.97282 23.4911V22.5067C9.97282 22.3609 10.0278 22.2332 10.1376 22.1235C10.2838 22.0506 10.3933 22.0141 10.4664 22.0141H21.5345Z" fill="currentColor"/>
</svg>
