<svg viewBox="0 0 32 32" fill="none" xmlns="http://www.w3.org/2000/svg">
<path d="M26.9585 7.96031C27.2507 8.25197 27.5064 8.63492 27.7256 9.10915C27.9085 9.51047 28 9.96633 28 10.4767V28.523C28 28.9605 27.8539 29.307 27.5617 29.5625C27.2694 29.8542 26.9223 30 26.5202 30H5.47984C5.07773 30 4.73057 29.8542 4.43834 29.5625C4.14611 29.307 4 28.9605 4 28.523V3.47695C4 3.03947 4.14611 2.69298 4.43834 2.43749C4.73057 2.14583 5.07773 2 5.47984 2H19.5067C19.9451 2 20.4018 2.10937 20.877 2.32811C21.4614 2.58361 21.8632 2.82072 22.0824 3.03947L26.9585 7.96031ZM20.0003 4.13231V9.98413H25.9179C25.808 9.65572 25.68 9.45506 25.5339 9.38214L20.6569 4.46042C20.547 4.35076 20.3288 4.24139 20.0003 4.13231ZM26.0275 27.9753V12.0071H19.5067C19.1046 12.0071 18.7575 11.8612 18.4652 11.5696C18.173 11.3141 18.0269 10.9495 18.0269 10.4759V4.02294H5.97253V27.9753H26.0275ZM10.6856 24.3661V26.0066H15.069V24.3661H13.9179L15.5073 21.8505C15.5441 21.8138 15.5807 21.7683 15.6169 21.714C15.6531 21.6598 15.6715 21.6143 15.6721 21.5775L15.7817 21.3588L15.8369 21.3036H15.8922V21.3588L15.9474 21.4681L16.1122 21.6326V21.6878C16.1853 21.7607 16.2218 21.8155 16.2218 21.8523L17.9208 24.3678H16.7154V26.0084H21.2636V24.3678H20.2221L17.2081 20.1023L20.2764 15.6723H21.3179V13.9766H16.9345V15.6723H18.0856L16.4962 18.1336C16.4594 18.1704 16.4229 18.2159 16.3866 18.2701C16.3504 18.3244 16.332 18.3699 16.3314 18.4066C16.2946 18.4795 16.2396 18.5524 16.1666 18.6254V18.6805H16.1113C16.1113 18.6076 16.0929 18.5527 16.0561 18.516C16.0193 18.4792 15.9737 18.4154 15.9193 18.3244C15.865 18.2334 15.8194 18.1695 15.7826 18.1327L14.1388 15.6714H15.2899V13.9758H10.7969V15.6714H11.8384L14.7972 19.9369L11.7832 24.3669H10.6873L10.6856 24.3661Z" fill="currentColor"/>
</svg>
