<svg viewBox="0 0 32 32" fill="none" xmlns="http://www.w3.org/2000/svg">
<path fill-rule="evenodd" clip-rule="evenodd" d="M19.8887 3.59961H23.7314C24.4314 3.59976 24.9999 4.17845 25 4.89062V11H22.4443V6.2002H19.8887V8.7998H7.11133V6.2002H4.55566V24.4004H13V27H3.26855C2.93224 26.9996 2.60988 26.863 2.37207 26.6211C2.13431 26.3791 2.00034 26.0512 2 25.709V4.89062C2.00015 4.17845 2.56855 3.59976 3.26855 3.59961H7.11133V1H19.8887V3.59961ZM9.66699 6.2002H17.333V3.59961H9.66699V6.2002Z" fill="currentColor"/>
<path d="M14.5 27.5H27.5V13.5H14.5V27.5ZM30 29.5L29.9902 29.6006C29.9437 29.8286 29.7417 30 29.5 30H12.5C12.2583 30 12.0563 29.8286 12.0098 29.6006L12 29.5V11.5C12 11.2239 12.2239 11 12.5 11H29.5C29.7761 11 30 11.2239 30 11.5V29.5Z" fill="currentColor"/>
<path d="M17 16H25.3334V18.8H17V16Z" fill="currentColor"/>
<path d="M17 21.6H25.3334V24.4H17V21.6Z" fill="currentColor"/>
</svg>
