<svg viewBox="0 0 32 32" fill="none" xmlns="http://www.w3.org/2000/svg">
<path d="M26.9585 9.43727C27.0316 9.51018 27.1777 9.69247 27.3968 9.98413H19.9994V2.60111C20.2916 2.81985 20.4743 2.96568 20.5473 3.03859L26.9585 9.43727ZM19.5067 12.0079H28V28.523C28 28.9605 27.8539 29.307 27.5617 29.5625C27.2694 29.8542 26.9223 30 26.5202 30H5.47984C5.07773 30 4.73057 29.8542 4.43834 29.5625C4.14611 29.307 4 28.9605 4 28.523V3.47695C4 3.03947 4.14611 2.69298 4.43834 2.43749C4.73057 2.14583 5.07773 2 5.47984 2H18.0278V10.4767C18.0278 10.951 18.1739 11.3155 18.4661 11.5705C18.7583 11.8621 19.1046 12.0079 19.5067 12.0079ZM22.0272 23.492V22.5076C22.0272 22.3618 21.9722 22.234 21.8624 22.1244C21.7162 22.0515 21.6067 22.015 21.5336 22.015H10.4655C10.3925 22.015 10.2829 22.0515 10.1368 22.1244C10.0269 22.234 9.97195 22.3618 9.97195 22.5076V23.492C9.97195 23.6378 10.0269 23.7655 10.1368 23.8752C10.2829 23.9481 10.3925 23.9846 10.4655 23.9846H21.5336C21.6067 23.9846 21.7162 23.9481 21.8624 23.8752C21.9722 23.7655 22.0272 23.6378 22.0272 23.492ZM22.0272 19.4995V18.5151C22.0272 18.3693 21.9722 18.2415 21.8624 18.1319C21.7893 18.059 21.6797 18.0225 21.5336 18.0225H10.4655C10.3194 18.0225 10.2098 18.059 10.1368 18.1319C10.0269 18.2415 9.97195 18.3693 9.97195 18.5151V19.4995C9.97195 19.6453 10.0269 19.773 10.1368 19.8827C10.2829 19.9556 10.3925 19.9921 10.4655 19.9921H21.5336C21.6067 19.9921 21.7162 19.9556 21.8624 19.8827C21.9722 19.773 22.0272 19.6453 22.0272 19.4995ZM22.0272 15.5078V14.5235C22.0272 14.3777 21.9722 14.2499 21.8624 14.1402C21.7525 14.0306 21.6429 13.9758 21.5336 13.9758H10.4655C10.3556 13.9758 10.2461 14.0306 10.1368 14.1402C10.0275 14.2499 9.97253 14.3777 9.97195 14.5235V15.5078C9.97195 15.6904 10.0269 15.7998 10.1368 15.8359C10.2466 15.9456 10.3562 16.0004 10.4655 16.0004H21.5336C21.6435 16.0004 21.7531 15.9456 21.8624 15.8359C21.9722 15.7992 22.0272 15.6898 22.0272 15.5078Z" fill="currentColor"/>
</svg>
