<svg viewBox="0 0 32 32" fill="none" xmlns="http://www.w3.org/2000/svg">
<path d="M13.9731 8.01456V5.99075H12.0006V8.01456H13.9731ZM16 9.98325V8.01456H13.9731L13.9722 9.98325H16ZM13.9731 12.0071L13.9722 9.98325H12.0006V12.0071H13.9731ZM16 13.9758V12.0071H13.9731L13.9722 13.9758H16ZM26.9585 7.96031C27.2507 8.25197 27.5064 8.63492 27.7256 9.10915C27.9085 9.51047 28 9.96633 28 10.4767V28.523C28 28.9605 27.8539 29.307 27.5617 29.5625C27.2694 29.8542 26.9223 30 26.5202 30H5.47984C5.07773 30 4.73057 29.8542 4.43834 29.5625C4.14611 29.307 4 28.9605 4 28.523V3.47695C4 3.03947 4.14611 2.69298 4.43834 2.43749C4.73057 2.14583 5.07773 2 5.47984 2H19.5067C19.9451 2 20.4018 2.10937 20.877 2.32811C21.4614 2.58361 21.8632 2.82072 22.0824 3.03947L26.9585 7.96031ZM20.0003 4.13231V9.98413H25.9179C25.808 9.65572 25.68 9.45506 25.5339 9.38214L20.6569 4.46042C20.547 4.35076 20.3288 4.24139 20.0003 4.13231ZM26.0275 27.9753V12.0071H19.5067C19.1046 12.0071 18.7575 11.8612 18.4652 11.5696C18.173 11.3141 18.0269 10.9495 18.0269 10.4759V4.02294H15.9991V5.99163H13.9714V4.02294H5.97165V27.9753H26.0257H26.0275ZM16.2192 16.71L17.8629 22.1786C17.9728 22.4341 18.0278 22.7077 18.0278 22.9993C18.0278 23.8743 17.6441 24.5854 16.8767 25.1325C16.1461 25.7158 15.178 26.0075 13.9722 26.0075C12.8033 26.0075 11.8536 25.7158 11.123 25.1325C10.3556 24.5854 9.97195 23.8743 9.97195 22.9993C9.97195 22.7077 10.0269 22.4341 10.1368 22.1786C10.2098 21.996 10.3194 21.6589 10.4655 21.1672C10.6116 20.6754 10.8399 19.9189 11.1502 18.8975C11.4605 17.8761 11.7437 16.9098 11.9997 15.9987V13.9749L13.9722 13.9758V15.9987H15.2329C15.4889 15.9987 15.6899 16.0716 15.8361 16.2174C16.0552 16.3633 16.1823 16.5275 16.2192 16.71ZM13.9731 23.9828C14.4845 23.9828 14.9594 23.8915 15.3977 23.7089C15.7998 23.4902 16.0009 23.2531 16.0009 22.9976C16.0009 22.7421 15.7998 22.505 15.3977 22.2862C14.9594 22.1037 14.4845 22.0124 13.9731 22.0124C13.498 22.0124 13.0412 22.1037 12.6029 22.2862C12.2008 22.4688 11.9997 22.7059 11.9997 22.9976C11.9997 23.2893 12.2008 23.5264 12.6029 23.7089C13.0412 23.8915 13.498 23.9828 13.9731 23.9828Z" fill="currentColor"/>
</svg>
