<svg viewBox="0 0 32 32" fill="none" xmlns="http://www.w3.org/2000/svg">
<path d="M26.9585 7.96031C27.2507 8.25197 27.5064 8.63492 27.7256 9.10915C27.9085 9.51047 28 9.96633 28 10.4767V28.523C28 28.9605 27.8539 29.307 27.5617 29.5625C27.2694 29.8542 26.9223 30 26.5202 30H5.47984C5.07773 30 4.73057 29.8542 4.43834 29.5625C4.14611 29.307 4 28.9605 4 28.523V3.47695C4 3.03947 4.14611 2.69298 4.43834 2.43749C4.73057 2.14583 5.07773 2 5.47984 2H19.5067C19.9451 2 20.4018 2.10937 20.877 2.32811C21.4614 2.58361 21.8632 2.82072 22.0824 3.03947L26.9585 7.96031ZM20.0003 4.13231V9.98413H25.9179C25.808 9.65572 25.68 9.45506 25.5339 9.38214L20.6569 4.46042C20.547 4.35076 20.3288 4.24139 20.0003 4.13231ZM26.0275 27.9753V12.0071H19.5067C19.1046 12.0071 18.7575 11.8612 18.4652 11.5696C18.173 11.3141 18.0269 10.9495 18.0269 10.4759V4.02294H5.97253V27.9753H26.0275ZM11.507 13.9758C11.5801 13.8661 11.6897 13.8113 11.8358 13.8113C11.9819 13.8113 12.1099 13.8477 12.2198 13.9206L12.9868 14.5226C13.0599 14.5594 13.133 14.6687 13.206 14.8507C13.206 14.9236 13.1695 15.033 13.0964 15.1788L10.2472 19.0068L13.0964 22.7806C13.1695 22.9264 13.206 23.0542 13.206 23.1638C13.133 23.3464 13.0599 23.4558 12.9868 23.492L12.2198 24.0939C12.1099 24.1669 11.9819 24.2033 11.8358 24.2033C11.6897 24.2033 11.5801 24.1304 11.507 23.9846L7.94506 19.2816C7.76213 19.099 7.76213 18.8983 7.94506 18.6796L11.507 13.9758ZM24.0549 18.6787C24.2379 18.8975 24.2379 19.0981 24.0549 19.2807L20.493 23.9837C20.4199 24.1295 20.3103 24.2024 20.1642 24.2024C20.0181 24.2024 19.8901 24.166 19.7802 24.0931L19.0132 23.4911C18.9401 23.4543 18.867 23.345 18.794 23.163C18.794 23.0533 18.8305 22.9256 18.9036 22.7797L21.7528 19.006L18.9036 15.178C18.8305 15.0321 18.794 14.9228 18.794 14.8498C18.867 14.6673 18.9401 14.5579 19.0132 14.5217L19.7802 13.9198C19.8901 13.8468 20.0181 13.8104 20.1642 13.8104C20.3103 13.8104 20.4199 13.8652 20.493 13.9749L24.0549 18.6787ZM14.3562 25.8973C14.1733 25.8973 14.0637 25.8243 14.0275 25.6785C13.9544 25.6056 13.9179 25.4962 13.9179 25.3504L16.1096 12.3352C16.1096 12.2255 16.1645 12.1161 16.2744 12.0071C16.4573 11.9341 16.5853 11.9158 16.6584 11.9519L17.6447 12.1164C17.7908 12.1164 17.9004 12.1713 17.9734 12.2809C18.0465 12.3538 18.083 12.4816 18.083 12.6642L15.8913 25.6794C15.8913 25.789 15.8364 25.8803 15.7265 25.9533C15.6166 26.0262 15.4886 26.0626 15.3425 26.0626L14.3562 25.8973Z" fill="currentColor"/>
</svg>
