<svg viewBox="0 0 32 32" fill="none" xmlns="http://www.w3.org/2000/svg">
<path d="M26.9585 7.96031C27.2507 8.25197 27.5064 8.63492 27.7256 9.10915C27.9085 9.51047 28 9.96633 28 10.4767V28.523C28 28.9605 27.8539 29.307 27.5617 29.5625C27.2694 29.8542 26.9223 30 26.5202 30H5.47984C5.07773 30 4.73057 29.8542 4.43834 29.5625C4.14611 29.307 4 28.9605 4 28.523V3.47695C4 3.03947 4.14611 2.69298 4.43834 2.43749C4.73057 2.14583 5.07773 2 5.47984 2H19.5067C19.9451 2 20.4018 2.10937 20.877 2.32811C21.4614 2.58361 21.8632 2.82072 22.0824 3.03947L26.9585 7.96031ZM20.0003 4.13231V9.98413H25.9179C25.808 9.65572 25.68 9.45506 25.5339 9.38214L20.6569 4.46042C20.547 4.35076 20.3288 4.24139 20.0003 4.13231ZM26.0275 27.9753V12.0071H19.5067C19.1046 12.0071 18.7575 11.8612 18.4652 11.5696C18.173 11.3141 18.0269 10.9495 18.0269 10.4759V4.02294H5.97253V27.9753H26.0275ZM7.61718 13.9758V15.6714H8.71303L11.2887 26.0075H13.7548L15.7826 18.4057C15.8556 18.1141 15.9106 17.877 15.9474 17.6944V17.3111H16.057V17.6944C16.0938 17.7311 16.1122 17.8405 16.1122 18.0225C16.1122 18.0592 16.1306 18.1322 16.1674 18.2412C16.1674 18.3142 16.1859 18.369 16.2227 18.4057L18.2504 26.0075H20.7165L23.2922 15.6714H24.3881V13.9758H19.6759V15.6714H21.1005L19.5663 22.5076C19.4933 22.7993 19.4568 23.0364 19.4568 23.219L19.4015 23.5471H19.3463L19.2911 23.219V23.1096C19.2542 23.0367 19.2358 22.9638 19.2358 22.8908C19.2358 22.8541 19.2268 22.7902 19.2086 22.6992C19.1905 22.6082 19.1631 22.5444 19.1262 22.5076L16.8793 13.9766H15.1259L12.879 22.5076C12.8422 22.5444 12.8147 22.6082 12.7966 22.6992C12.7785 22.7902 12.7694 22.8541 12.7694 22.8908C12.7694 22.9638 12.751 23.0367 12.7142 23.1096V23.219L12.659 23.5471H12.6037L12.5485 23.219C12.5485 23.0364 12.512 22.7993 12.4389 22.5076L10.9047 15.6714H12.3293V13.9758H7.61718Z" fill="currentColor"/>
</svg>
