<svg viewBox="0 0 32 32" fill="none" xmlns="http://www.w3.org/2000/svg">
<path d="M9.31302 9.31299V12.001H17.313V9.31299H9.31302ZM9.31302 14.688H21.313V13.313H9.31302V14.688ZM21.313 16H17.313V17.313H21.313V16ZM17.313 20H21.313V18.687H17.313V20ZM4.00002 2.68799V16.001H6.68802V5.31299H24.001V28.001H17.313V30.689H26.688V2.68899L4.00002 2.68799ZM12.938 23.313C12.938 23.063 12.8964 22.7713 12.813 22.438L14.688 21.188L13.5 19.125L11.625 20.375C11.333 20.125 10.937 19.8957 10.437 19.687V17.312H8.18702V19.687C7.68702 19.8957 7.31202 20.125 7.06202 20.375L5.18702 19.125L3.99902 21.188L5.87402 22.438C5.79069 22.6047 5.74902 22.8963 5.74902 23.313C5.74902 23.7297 5.79069 24.0423 5.87402 24.251L3.99902 25.501L5.18702 27.564L7.06202 26.251C7.39536 26.5843 7.77036 26.8137 8.18702 26.939V29.314H10.437V27.001C10.729 26.8757 11.125 26.6463 11.625 26.313L13.5 27.563L14.688 25.5L12.813 24.25C12.8964 23.8333 12.938 23.5217 12.938 23.313ZM9.31302 25.75C8.72969 25.75 8.21936 25.5103 7.78202 25.031C7.34469 24.5517 7.12602 23.9787 7.12602 23.312C7.12602 22.6453 7.34469 22.0827 7.78202 21.624C8.21936 21.1653 8.72969 20.936 9.31302 20.936C9.93836 20.936 10.4697 21.1653 10.907 21.624C11.3444 22.0827 11.563 22.6453 11.563 23.312C11.563 23.9787 11.3444 24.5517 10.907 25.031C10.4697 25.5103 9.93836 25.75 9.31302 25.75Z" fill="currentColor"/>
</svg>
