<svg viewBox="0 0 32 32" fill="none" xmlns="http://www.w3.org/2000/svg">
<path d="M26.9585 7.96031C27.2507 8.25197 27.5064 8.63492 27.7256 9.10915C27.9085 9.51047 28 9.96633 28 10.4767V28.523C28 28.9605 27.8539 29.307 27.5617 29.5625C27.2694 29.8542 26.9223 30 26.5202 30H5.47984C5.07773 30 4.73057 29.8542 4.43834 29.5625C4.14611 29.307 4 28.9605 4 28.523V3.47695C4 3.03947 4.14611 2.69298 4.43834 2.43749C4.73057 2.14583 5.07773 2 5.47984 2H19.5067C19.9451 2 20.4018 2.10937 20.877 2.32811C21.4614 2.58361 21.8632 2.82072 22.0824 3.03947L26.9585 7.96031ZM20.0003 4.13231V9.98413H25.9179C25.808 9.65572 25.68 9.45506 25.5339 9.38214L20.6569 4.46042C20.547 4.35076 20.3288 4.24139 20.0003 4.13231ZM26.0275 27.9753V12.0071H19.5067C19.1046 12.0071 18.7575 11.8612 18.4652 11.5696C18.173 11.3141 18.0269 10.9495 18.0269 10.4759V4.02294H5.97253V27.9753H26.0275ZM10.4664 24.3661V26.0066H15.6169V24.3661H14.1371V21.7411H16.2744C16.9319 21.7411 17.5529 21.6682 18.1373 21.5224C18.8317 21.2669 19.398 20.811 19.8364 20.1548C20.2385 19.4618 20.4395 18.6962 20.4395 17.858C20.4395 17.0198 20.2385 16.2906 19.8364 15.6706C19.4711 15.0143 18.9597 14.5585 18.3022 14.303C17.827 14.0842 17.1511 13.9749 16.2744 13.9749H10.4664V15.6706H11.9462V24.3661H10.4664ZM16 19.9912H14.1371V15.7799H16.0552C16.5304 15.7799 16.9506 15.8712 17.3159 16.0538C17.9004 16.3822 18.1926 16.9839 18.1926 17.8589C18.1926 18.7706 17.8819 19.3904 17.2607 19.7182C16.8954 19.9008 16.4752 19.9912 16 19.9912Z" fill="currentColor"/>
</svg>
