<svg viewBox="0 0 32 32" fill="none" xmlns="http://www.w3.org/2000/svg">
<path d="M28.5231 8.01681C28.9606 8.01681 29.307 8.16263 29.5625 8.45427C29.8542 8.74591 30 9.09238 30 9.49367V28.5231C30 28.9244 29.8542 29.2709 29.5625 29.5625C29.2709 29.8542 28.9244 30 28.5231 30H13.4845C13.0832 30 12.7367 29.8542 12.4451 29.5625C12.1534 29.2709 12.0076 28.9244 12.0076 28.5231V23.9841H3.47691C3.03944 23.9841 2.69296 23.8382 2.43747 23.5466C2.14582 23.255 2 22.9085 2 22.5072V12.0082C2 11.6069 2.10937 11.1511 2.3281 10.6407C2.58359 10.0574 2.8207 9.65641 3.03944 9.43768L9.43791 3.0394C9.65665 2.82067 10.0577 2.58357 10.641 2.32809C11.1513 2.10936 11.6072 2 12.0085 2H18.5163C18.9177 2 19.2641 2.14582 19.5558 2.43746C19.8474 2.7291 19.9932 3.07557 19.9932 3.47686V8.617C20.7224 8.21571 21.397 8.01506 22.017 8.01506H28.5248L28.5231 8.01681ZM19.9924 11.3529L15.3438 16.0013H19.9924V11.3529ZM9.98475 5.33781L5.33617 9.98625H9.98475V5.33781ZM13.0471 15.4536L18.0237 10.4771V4.02456H12.0085V10.4771C12.0085 10.9145 11.8627 11.2791 11.571 11.5707C11.2794 11.8624 10.9148 12.0082 10.4773 12.0082H4.02462V22.0155H12.0085V18.0232C12.0085 17.622 12.1179 17.148 12.3366 16.6015C12.4824 16.164 12.7195 15.7811 13.0479 15.4527L13.0471 15.4536ZM27.9763 27.9763V9.98538H22.0152V16.493C22.0152 16.8576 21.8694 17.2221 21.5778 17.5867C21.2132 17.8783 20.8487 18.0241 20.4841 18.0241H13.9763V27.9763H27.9763Z" fill="currentColor"/>
</svg>
