<svg viewBox="0 0 32 32" fill="none" xmlns="http://www.w3.org/2000/svg">
<path d="M8.55556 7.6V3.4C8.55556 3.0287 8.70188 2.6726 8.96235 2.41005C9.22282 2.1475 9.57609 2 9.94444 2H26.6111C26.9795 2 27.3327 2.1475 27.5932 2.41005C27.8537 2.6726 28 3.0287 28 3.4V23C28 23.3713 27.8537 23.7274 27.5932 23.9899C27.3327 24.2525 26.9795 24.4 26.6111 24.4H22.4444V28.6C22.4444 29.3728 21.8194 30 21.0458 30H4.39861C4.21545 30.0011 4.03389 29.9657 3.86434 29.8959C3.69479 29.826 3.5406 29.7231 3.41064 29.593C3.28067 29.4629 3.17749 29.3082 3.10702 29.1378C3.03655 28.9674 3.00018 28.7846 3 28.6L3.00417 8.99999C3.00417 8.22719 3.62917 7.6 4.40139 7.6H8.55556ZM5.78056 10.4L5.77778 27.2H19.6667V10.4H5.78056ZM11.3333 7.6H22.4444V21.6H25.2222V4.8H11.3333V7.6ZM8.55556 14.6H16.8889V17.4H8.55556V14.6ZM8.55556 20.2H16.8889V23H8.55556V20.2Z" fill="currentColor"/>
</svg>
