<svg viewBox="0 0 32 32" fill="none" xmlns="http://www.w3.org/2000/svg">
<path d="M26.9585 7.96031C27.2507 8.25197 27.5064 8.63492 27.7256 9.10915C27.9085 9.51047 28 9.96633 28 10.4767V28.523C28 28.9605 27.8539 29.307 27.5617 29.5625C27.2694 29.8542 26.9223 30 26.5202 30H5.47984C5.07773 30 4.73057 29.8542 4.43834 29.5625C4.14611 29.307 4 28.9605 4 28.523V3.47695C4 3.03947 4.14611 2.69298 4.43834 2.43749C4.73057 2.14583 5.07773 2 5.47984 2H19.5067C19.9451 2 20.4018 2.10937 20.877 2.32811C21.4614 2.58361 21.8632 2.82072 22.0824 3.03947L26.9585 7.96031ZM20.0003 4.13231V9.98413H25.9179C25.808 9.65572 25.68 9.45506 25.5339 9.38214L20.6569 4.46042C20.547 4.35076 20.3288 4.24139 20.0003 4.13231ZM26.0275 27.9753V12.0071H19.5067C19.1046 12.0071 18.7575 11.8612 18.4652 11.5696C18.173 11.3141 18.0269 10.9495 18.0269 10.4759V4.02294H5.97253V27.9753H26.0275ZM16 13.9758C16.4752 13.9758 16.95 14.1764 17.4246 14.5777C17.8267 15.052 18.0278 15.5259 18.0278 15.9996V22.015C18.0278 22.5254 17.8267 22.9813 17.4246 23.3826C17.0225 23.7839 16.5476 23.9846 16 23.9846H9.97282C9.42461 23.9846 8.96786 23.7839 8.60257 23.3826C8.20047 23.018 7.99942 22.5622 7.99942 22.015V15.9996C7.99942 15.4524 8.20047 14.9785 8.60257 14.5777C9.00468 14.177 9.46143 13.9763 9.97282 13.9758H16ZM23.7262 14.03C23.9091 14.1397 24.0006 14.3039 24.0006 14.5226V23.4911C24.0006 23.7098 23.9091 23.874 23.7262 23.9837H23.507C23.3609 23.9837 23.2513 23.9472 23.1783 23.8743L19.014 19.7182V18.2964L23.1783 14.1402C23.2151 14.0306 23.3247 13.9758 23.507 13.9758L23.5622 14.0309H23.7271L23.7262 14.03Z" fill="currentColor"/>
</svg>
