<svg viewBox="0 0 32 32" fill="none" xmlns="http://www.w3.org/2000/svg">
<path d="M26.9585 7.96031C27.2507 8.25197 27.5064 8.63492 27.7256 9.10915C27.9085 9.51047 28 9.96633 28 10.4767V28.523C28 28.9605 27.8539 29.307 27.5617 29.5625C27.2694 29.8542 26.9223 30 26.5202 30H5.47984C5.07773 30 4.73057 29.8542 4.43834 29.5625C4.14611 29.307 4 28.9605 4 28.523V3.47695C4 3.03947 4.14611 2.69298 4.43834 2.43749C4.73057 2.14583 5.07773 2 5.47984 2H19.5067C19.9451 2 20.4018 2.10937 20.877 2.32811C21.4614 2.58361 21.8632 2.82072 22.0824 3.03947L26.9585 7.96031ZM20.0003 4.13231V9.98413H25.9179C25.808 9.65572 25.68 9.45506 25.5339 9.38214L20.6569 4.46042C20.547 4.35076 20.3288 4.24139 20.0003 4.13231ZM26.0275 27.9753V12.0071H19.5067C19.1046 12.0071 18.7575 11.8612 18.4652 11.5696C18.173 11.3141 18.0269 10.9495 18.0269 10.4759V4.02294H5.97253V27.9753H26.0275ZM13.6987 15.2882C13.8816 15.325 13.9731 15.4708 13.9731 15.7257V24.2567C13.9731 24.5122 13.8816 24.658 13.6987 24.6942C13.6257 24.7309 13.5526 24.7493 13.4795 24.7493C13.3697 24.7493 13.2601 24.6945 13.1508 24.5848L10.5207 22.0141H8.49299C8.34687 22.0141 8.21888 21.9593 8.109 21.8496C8.03594 21.7038 7.99942 21.5944 7.99942 21.5215V18.5134C7.99942 18.4037 8.03594 18.276 8.109 18.1301C8.18206 18.0572 8.31005 18.0208 8.49299 18.0208H10.5207L13.1508 15.3958C13.3337 15.2133 13.5164 15.1768 13.6987 15.2865V15.2882ZM20.2195 26.0609C20.5485 26.0609 20.8042 25.9331 20.9866 25.6776C22.3384 24.0735 23.0143 22.1777 23.0143 19.9903C23.0143 17.8758 22.3384 15.98 20.9866 14.303C20.8036 14.0842 20.5845 13.9749 20.329 13.9749C20.0368 13.902 19.7811 13.9749 19.562 14.1936C19.3428 14.3762 19.2332 14.5949 19.2332 14.8498C19.1964 15.1053 19.2694 15.3605 19.4524 15.6155C20.4752 16.855 20.9866 18.3133 20.9866 19.9903C20.9866 21.6673 20.4752 23.144 19.4524 24.4203C19.2694 24.6758 19.1964 24.9129 19.2332 25.1317C19.2332 25.3871 19.3428 25.6059 19.562 25.7879C19.8179 25.9705 20.0371 26.0609 20.2195 26.0609ZM16.9319 23.7098C17.2241 23.7098 17.4617 23.6185 17.6447 23.436C18.5582 22.4881 19.0149 21.3395 19.0149 19.9903C19.0149 18.6411 18.5582 17.5109 17.6447 16.5998C17.4617 16.3811 17.2241 16.2717 16.9319 16.2717C16.6397 16.2717 16.4021 16.363 16.2192 16.5455C16 16.6914 15.8904 16.9101 15.8904 17.2018C15.8904 17.4573 15.9819 17.7125 16.1648 17.9674C16.713 18.5507 16.9871 19.2253 16.9871 19.9912C16.9871 20.7571 16.713 21.4498 16.1648 22.0692C15.9819 22.2518 15.8904 22.4889 15.8904 22.7806C15.8904 23.0361 16 23.2732 16.2192 23.492C16.4021 23.6378 16.6397 23.7098 16.9319 23.7098Z" fill="currentColor"/>
</svg>
