<svg viewBox="0 0 32 32" fill="none" xmlns="http://www.w3.org/2000/svg">
<path fill-rule="evenodd" clip-rule="evenodd" d="M19.5068 2C19.9451 2.00002 20.4018 2.1094 20.877 2.32812C21.4611 2.58347 21.8628 2.82043 22.082 3.03906L26.959 7.95996C27.2512 8.25161 27.5064 8.63517 27.7256 9.10938C27.9084 9.51061 28 9.96631 28 10.4766V28.5234C27.9999 28.9607 27.8537 29.3071 27.5615 29.5625C27.2694 29.854 26.9224 29.9999 26.5205 30H15V27.9756H26.0273V12.0068H19.5068C19.1047 12.0068 18.7571 11.861 18.4648 11.5693C18.1728 11.3139 18.0273 10.9491 18.0273 10.4756V4.02246H5.97266V16.3408C5.26027 16.5868 4.59657 16.9598 4 17.4355V3.47656C4.00009 3.03926 4.14634 2.69292 4.43848 2.4375C4.73061 2.14597 5.07756 2.00008 5.47949 2H19.5068ZM20 9.98438H25.918C25.8081 9.65605 25.6803 9.45479 25.5342 9.38184L20.6572 4.45996C20.5473 4.35032 20.3284 4.24089 20 4.13184V9.98438Z" fill="currentColor"/>
<path d="M2.68844 31H13.3126C13.5002 31 13.6617 30.9323 13.797 30.797C13.9323 30.6617 14 30.5002 14 30.3125V23.6878C14 23.5001 13.9323 23.3386 13.797 23.2033C13.6617 23.068 13.5002 23.0003 13.3126 23.0003H12.6251V22.0313C12.6251 20.573 12.1772 19.3751 11.2812 18.4374C10.3853 17.4791 9.29156 17 8 17C6.70844 17 5.6147 17.4791 4.71877 18.4374C3.82285 19.3334 3.37489 20.5314 3.37489 22.0313V23.0003H2.68744C2.49979 23.0003 2.33831 23.068 2.20298 23.2033C2.06766 23.3386 2 23.5001 2 23.6878V30.3125C2 30.5002 2.06766 30.6617 2.20298 30.797C2.33831 30.9323 2.50079 31 2.68844 31ZM5.03225 22.0318C5.03225 20.9902 5.32389 20.1569 5.90717 19.5319C6.49046 18.9069 7.1884 18.5944 8.001 18.5944C8.8136 18.5944 9.51154 18.9069 10.0948 19.5319C10.6781 20.1569 10.9698 20.9902 10.9698 22.0318V23.0008H5.03275L5.03225 22.0318Z" fill="currentColor"/>
</svg>
