<svg viewBox="0 0 32 32" fill="none" xmlns="http://www.w3.org/2000/svg">
<path d="M28.5 5.25004C28.7087 5.79204 28.6254 6.2087 28.25 6.50004L19.437 15.313V28.563C19.437 29.063 19.2077 29.4174 18.749 29.626C18.6237 29.668 18.4777 29.689 18.311 29.689C17.9357 29.689 17.6647 29.5847 17.498 29.376L12.935 24.813C12.685 24.563 12.56 24.292 12.56 24V15.312L3.74703 6.49904C3.3717 6.20704 3.28836 5.79037 3.49703 5.24904C3.74703 4.79037 4.10136 4.56104 4.56003 4.56104H27.435C27.8937 4.56104 28.248 4.79037 28.498 5.24904L28.5 5.25004Z" fill="currentColor"/>
</svg>
