<svg viewBox="0 0 32 32" fill="none" xmlns="http://www.w3.org/2000/svg">
<path d="M19.4369 28.563C19.4369 29.0629 19.2079 29.4178 18.7494 29.6265L18.6508 29.6538C18.5491 29.6774 18.4358 29.689 18.3109 29.689C17.9359 29.689 17.6651 29.5848 17.4984 29.3765L12.9349 24.813C12.7163 24.5943 12.5932 24.3597 12.5658 24.1089L12.5599 24.0005V15.312L3.74744 6.49951C3.41896 6.24396 3.31319 5.89232 3.43201 5.4458L3.49744 5.24951C3.74743 4.79086 4.10129 4.56105 4.55994 4.56104H27.4349C27.8936 4.56104 28.2484 4.79085 28.4984 5.24951L28.5004 5.25049C28.7088 5.79222 28.6256 6.20925 28.2504 6.50049L19.4369 15.313V28.563ZM14.5599 23.6089L17.4369 26.4858V14.4849L25.3597 6.56104H6.63806L14.5599 14.4839V23.6089Z" fill="currentColor"/>
</svg>
