<svg viewBox="0 0 32 32" fill="none" xmlns="http://www.w3.org/2000/svg">
<path d="M22.6666 17.3334V18.6668C22.6666 22.3601 21.7813 25.9268 20.1133 29.1281L19.8106 29.6881L17.4813 28.3894C19.028 25.6161 19.8946 22.5094 19.9906 19.2748L20 18.6668V17.3334H22.6666ZM14.6666 13.3334H17.3333V18.6668L17.3266 19.1721C17.2258 22.8223 15.9696 26.3465 13.7386 29.2374L13.4306 29.6241L11.364 27.9388C13.3991 25.4532 14.5572 22.3656 14.6586 19.1548L14.6666 18.6668V13.3334ZM16 8.00009C17.7681 8.00009 19.4638 8.70247 20.714 9.95272C21.9642 11.203 22.6666 12.8987 22.6666 14.6668H20C20 13.6059 19.5785 12.5885 18.8284 11.8383C18.0782 11.0882 17.0608 10.6668 16 10.6668C14.9391 10.6668 13.9217 11.0882 13.1715 11.8383C12.4214 12.5885 12 13.6059 12 14.6668V18.6668C12 21.6468 10.9066 24.4588 8.97196 26.6361L8.68929 26.9428L6.75862 25.1028C8.31857 23.4707 9.23095 21.3265 9.32529 19.0708L9.33329 18.6668V14.6668C9.33329 12.8987 10.0357 11.203 11.2859 9.95272C12.5362 8.70247 14.2318 8.00009 16 8.00009V8.00009ZM16 2.66676C19.1826 2.66676 22.2348 3.93104 24.4852 6.18148C26.7357 8.43192 28 11.4842 28 14.6668V18.6668C28 20.9308 27.7306 23.1601 27.204 25.3201L27.0186 26.0388L24.4453 25.3374C24.968 23.4214 25.2626 21.4414 25.3226 19.4241L25.3333 18.6668V14.6668C25.3333 12.9346 24.8513 11.2366 23.9411 9.76277C23.031 8.28896 21.7287 7.09751 20.1799 6.32175C18.6312 5.54599 16.8971 5.21653 15.1717 5.37024C13.4464 5.52395 11.7979 6.15477 10.4106 7.19209L8.51062 5.29076C10.6353 3.58847 13.2775 2.66272 16 2.66676V2.66676ZM6.62396 7.17743L8.52529 9.07743C7.38174 10.6017 6.7347 12.4409 6.67196 14.3454L6.66662 14.6668L6.67196 17.3334C6.67196 18.8268 6.31996 20.2708 5.65596 21.5694L5.44796 21.9561L3.13196 20.6334C3.63862 19.7468 3.93462 18.7574 3.99329 17.7228L4.00529 17.3334V14.6668C3.99738 11.9445 4.92149 9.30161 6.62396 7.17743V7.17743Z" fill="currentColor"/>
</svg>
