<svg viewBox="0 0 32 32" fill="none" xmlns="http://www.w3.org/2000/svg">
<path d="M13.563 1.43804C14.855 4.8967 14.5217 7.6467 12.563 9.68804C12.1877 10.0634 11.1357 10.9487 9.407 12.344C7.67833 13.7394 6.397 14.9997 5.563 16.125C4.813 17.167 4.313 18.3857 4.063 19.781C3.813 21.1764 3.834 22.614 4.126 24.094C4.418 25.574 5.27233 26.9387 6.689 28.188C8.10567 29.4374 10.0017 30.3334 12.377 30.876C10.1683 29.7507 8.97033 27.8757 8.783 25.251C8.59567 22.6264 9.606 20.272 11.814 18.188C11.2307 20.1047 11.3557 21.6257 12.189 22.751C13.0223 23.8764 14.1267 24.189 15.502 23.689C16.794 23.2724 17.8567 23.4077 18.69 24.095C19.5233 24.7824 19.9193 25.7094 19.878 26.876C19.7947 28.5847 19.0653 29.7514 17.69 30.376C19.732 30.0427 21.482 29.2614 22.94 28.032C24.398 26.8027 25.419 25.4797 26.003 24.063C26.587 22.6464 26.8787 21.188 26.878 19.688C26.878 18.5214 26.6383 17.417 26.159 16.375C25.6797 15.333 25.211 14.5414 24.753 14C24.295 13.4587 23.972 12.719 23.784 11.781C23.596 10.843 23.8147 9.89504 24.44 8.93704C21.7733 9.18704 20.565 10.958 20.815 14.25C20.8983 15.25 20.5337 16.0314 19.721 16.594C18.9083 17.1567 18.0853 17.2087 17.252 16.75C16.6267 16.3747 16.3037 15.8537 16.283 15.187C16.2623 14.5204 16.5437 13.916 17.127 13.374C18.0023 12.4987 18.5857 11.4257 18.877 10.155C19.1683 8.88437 18.8973 7.42604 18.064 5.78004C17.2307 4.13404 15.7307 2.68604 13.564 1.43604L13.563 1.43804Z" fill="currentColor"/>
</svg>
