<svg viewBox="0 0 32 32" fill="none" xmlns="http://www.w3.org/2000/svg">
<path d="M29.2767 13.0735C28.8327 12.6308 28.209 12.354 27.5302 12.354C26.8507 12.354 26.2276 12.6308 25.7831 13.0735C25.3375 13.5151 25.0592 14.1354 25.0598 14.8107C25.0592 15.4871 25.3375 16.1064 25.7831 16.5479C25.9796 16.744 26.2129 16.9055 26.4685 17.0272V23.9896C26.4679 25.0295 26.0603 26.0085 25.3202 26.7463C24.579 27.4819 23.5942 27.8879 22.5488 27.8879C21.5028 27.8879 20.5185 27.4819 19.7774 26.7463C19.0373 26.0085 18.6296 25.0295 18.6291 23.9896C18.6296 23.4054 18.7601 22.8421 19.0064 22.3251C19.3465 22.5577 19.7514 22.8259 19.9024 22.8884C20.0459 22.9487 20.4081 22.8857 20.27 22.2594C20.0859 21.4269 20.2494 20.4069 20.5618 19.1522C20.6674 18.7289 20.5407 18.6104 20.3258 18.6568C19.217 18.7822 18.0037 19.9244 17.7996 20.2696L17.7017 20.3994C16.9188 21.443 16.5057 22.6843 16.5063 23.9897C16.5057 25.5961 17.1343 27.1055 18.2755 28.2396C19.4157 29.3748 20.9327 30 22.5488 30H22.5504C24.1649 30 25.6818 29.3748 26.822 28.2396C27.9638 27.1055 28.5918 25.5961 28.5913 23.9896V17.0262C28.8474 16.9055 29.0802 16.744 29.2767 16.548C29.7223 16.1064 30.0006 15.4871 30 14.8107C30.0005 14.1354 29.7223 13.5151 29.2767 13.0735ZM28.0066 15.2846C27.8815 15.4074 27.7191 15.4806 27.5302 15.4817C27.3412 15.4806 27.1783 15.4074 27.0537 15.2846C26.9303 15.1607 26.8567 14.9992 26.8561 14.8107C26.8567 14.6233 26.9303 14.4612 27.0537 14.3368C27.1783 14.2146 27.3412 14.1419 27.5302 14.1408C27.7191 14.1418 27.8815 14.2146 28.0066 14.3368C28.1295 14.4612 28.2031 14.6233 28.2037 14.8107C28.2031 14.9992 28.1295 15.1608 28.0066 15.2846Z" fill="currentColor"/>
<path d="M6.7711 12.2539C6.76731 10.0949 7.27972 7.61566 8.99639 5.56914C10.7131 3.52261 13.0654 2.58673 15.192 2.21492C17.3132 1.84957 19.3119 1.99738 20.6039 2.30582C21.0309 2.39999 21.3859 2.69784 21.5529 3.10189C22.0524 4.29624 22.5747 6.26317 22.5839 8.41562C22.5877 10.5745 22.0752 13.0538 20.3586 15.1003C18.6419 17.1469 16.2896 18.0827 14.163 18.4546C13.2789 18.6038 12.414 18.6647 11.6123 18.6632L10.8723 22.9741C10.7692 23.5756 10.2755 24.0331 9.66772 24.0889C9.05992 24.1448 8.49152 23.7866 8.27938 23.2135L6.93352 19.5667L3.10829 18.8757C2.507 18.7665 2.05539 18.269 2.0047 17.6608C1.95396 17.0526 2.31857 16.4868 2.89294 16.2806L7.00937 14.8019C6.86844 14.0128 6.77791 13.1505 6.7711 12.2539ZM15.8107 6.8859C15.3314 7.45725 15.4058 8.30605 15.9772 8.78532C16.5485 9.26459 17.3973 9.1902 17.8766 8.61885C18.3558 8.0475 18.2814 7.1987 17.7101 6.71943C17.1387 6.24016 16.29 6.31455 15.8107 6.8859Z" fill="currentColor"/>
</svg>
