<svg viewBox="0 0 32 32" fill="none" xmlns="http://www.w3.org/2000/svg">
<path d="M10.7174 10.4702C12.6106 8.87642 15.1654 7.5 18.2273 7.5C21.2893 7.5 23.8441 8.87642 25.7373 10.4702C27.6208 12.0639 28.9634 13.9281 29.6444 15.2901C29.8762 15.7344 29.8762 16.2656 29.6444 16.7099C28.9634 18.0284 27.6208 19.9361 25.7373 21.5298C23.8441 23.1236 21.2893 24.5 18.2273 24.5C15.1654 24.5 12.6106 23.1236 10.7174 21.5298C9.93499 20.8634 9.24437 20.1486 8.65516 19.4435L4.32403 21.9693C3.71985 22.3219 2.95437 22.2253 2.4576 21.7327C1.96077 21.2401 1.85661 20.477 2.20366 19.8685L4.41482 16L2.20366 12.1315C1.85661 11.523 1.96077 10.7599 2.4576 10.2673C2.95437 9.77472 3.71985 9.67812 4.32403 10.0307L8.65516 12.5565C9.24437 11.8514 9.93499 11.1366 10.7174 10.4702ZM22.091 14.4545C21.2361 14.4545 20.5455 15.1452 20.5455 16C20.5455 16.8548 21.2361 17.5455 22.091 17.5455C22.9458 17.5455 23.6364 16.8548 23.6364 16C23.6364 15.1452 22.9458 14.4545 22.091 14.4545Z" fill="currentColor"/>
</svg>
