<svg viewBox="0 0 32 32" fill="none" xmlns="http://www.w3.org/2000/svg">
<path d="M18.2275 7.5C21.2894 7.5 23.8443 8.87643 25.7374 10.4702C27.6208 12.0638 28.9633 13.9278 29.6444 15.2897C29.8762 15.734 29.8762 16.266 29.6444 16.7103C28.9633 18.0288 27.6208 19.9362 25.7374 21.5298C23.8443 23.1236 21.2894 24.5 18.2275 24.5V22.4394C20.6482 22.4394 22.7491 21.3516 24.4103 19.9532C25.952 18.6477 27.0776 17.0941 27.6854 15.996C27.0923 14.8942 25.9727 13.3687 24.4103 12.0458C22.7492 10.6475 20.648 9.56061 18.2275 9.56061C15.8067 9.56062 13.7058 10.6484 12.0446 12.0468C11.3626 12.6288 10.756 13.2564 10.2365 13.878L9.12069 15.2132L4.94612 12.7783L6.78841 16L4.94612 19.2207L9.12069 16.7868L10.2365 18.122C10.756 18.7436 11.3626 19.3712 12.0446 19.9532L12.3615 20.2118C13.97 21.4834 15.9581 22.4394 18.2275 22.4394V24.5C15.1655 24.5 12.6106 23.1236 10.7175 21.5298C9.93509 20.8634 9.24404 20.1482 8.65484 19.4431L4.32432 21.9695L4.20861 22.0299C3.66378 22.2893 3.016 22.2082 2.55347 21.8206L2.45789 21.7331C1.99213 21.2713 1.87131 20.5714 2.14396 19.9844L2.20333 19.8687L4.41487 16L2.20333 12.1313C1.8565 11.5229 1.96114 10.7595 2.45789 10.2669C2.95466 9.77457 3.72026 9.678 4.32432 10.0305L8.65484 12.5569C9.24404 11.8518 9.93509 11.1366 10.7175 10.4702C12.6106 8.87643 15.1655 7.50002 18.2275 7.5Z" fill="currentColor"/>
<path d="M24 16C24 17.1046 23.1046 18 22 18C20.8954 18 20 17.1046 20 16C20 14.8954 20.8954 14 22 14C23.1046 14 24 14.8954 24 16Z" fill="currentColor"/>
</svg>
