<svg viewBox="0 0 32 32" fill="none" xmlns="http://www.w3.org/2000/svg">
<path d="M5.33341 22.6667V29.3333H2.66675V4H28.1841C28.3009 3.9998 28.4158 4.03033 28.5171 4.08851C28.6185 4.1467 28.7028 4.2305 28.7615 4.33152C28.8202 4.43254 28.8514 4.54722 28.8519 4.66408C28.8523 4.78094 28.822 4.89586 28.7641 4.99733L24.0001 13.3333L28.7641 21.6693C28.822 21.7708 28.8523 21.8857 28.8519 22.0026C28.8514 22.1194 28.8202 22.2341 28.7615 22.3352C28.7028 22.4362 28.6185 22.52 28.5171 22.5782C28.4158 22.6363 28.3009 22.6669 28.1841 22.6667H5.33341ZM5.33341 6.66667V20H24.7387L20.9281 13.3333L24.7387 6.66667H5.33341Z" fill="currentColor"/>
</svg>
