<svg viewBox="0 0 32 32" fill="none" xmlns="http://www.w3.org/2000/svg">
<path d="M27.438 24.75L21.188 15.375C20.396 14.1664 20 12.708 20 11V5.18703C20 4.8537 20.0627 4.51004 20.188 4.15604C20.3133 3.80204 20.4593 3.47904 20.626 3.18704C20.7927 2.89504 20.897 2.6867 20.939 2.56204C20.981 2.31204 20.96 2.16604 20.876 2.12404C20.792 2.08204 20.4793 2.06104 19.938 2.06104H12.063C11.521 2.06104 11.198 2.08204 11.094 2.12404C10.99 2.16604 10.9587 2.31204 11 2.56204C11.042 2.68737 11.1567 2.8957 11.344 3.18704C11.5313 3.47837 11.6877 3.80137 11.813 4.15604C11.9383 4.5107 12.001 4.87537 12.001 5.25004V11C12.001 12.5834 11.5633 14.0417 10.688 15.375L7.625 20.188L4.562 24.751C4.18667 25.3344 3.999 26.001 3.999 26.751C3.999 28.9597 5.31167 30.064 7.937 30.064H24.062C26.6873 30.064 28 28.9597 28 26.751C28 26.001 27.8123 25.3344 27.437 24.751L27.438 24.75ZM25.563 27.563C25.2297 27.8964 24.7297 28.063 24.063 28.063H7.938C7.22933 28.063 6.70833 27.8964 6.375 27.563C6.125 27.313 6 27.0214 6 26.688C6 26.3127 6.08333 26.021 6.25 25.813L12.438 16.438C13.48 14.8127 14.001 13 14.001 11V4.06203H18.001V11C18.001 13.0834 18.4803 14.896 19.439 16.438L25.752 25.813C25.9187 26.1464 26.002 26.438 26.002 26.688C26.002 26.98 25.855 27.2717 25.563 27.563ZM24.313 25.688V25.751L19.188 18.063H12.75L7.687 25.751C7.56167 25.8764 7.499 26.043 7.499 26.251C7.499 26.459 7.59267 26.657 7.78 26.845C7.96733 27.033 8.16533 27.1267 8.374 27.126H23.624C24.2073 27.126 24.499 26.8134 24.499 26.188C24.499 25.9794 24.4363 25.8127 24.311 25.688H24.313ZM18.875 21.375C18.7917 21.2084 18.75 21.0834 18.75 21C18.75 20.9167 18.7917 20.7917 18.875 20.625C19.0417 20.5417 19.1667 20.5 19.25 20.5C19.3753 20.5 19.4797 20.5417 19.563 20.625C19.6883 20.7504 19.751 20.8754 19.751 21C19.751 21.1247 19.6883 21.2497 19.563 21.375C19.4797 21.4584 19.3753 21.5 19.25 21.5C19.1667 21.5 19.0417 21.4584 18.875 21.375ZM21.813 25.063C21.771 25.105 21.6877 25.126 21.563 25.126C21.3963 25.126 21.2503 25.0427 21.125 24.876L19.687 22.688C19.4783 22.396 19.52 22.146 19.812 21.938C19.854 21.938 19.8957 21.9277 19.937 21.907C19.9783 21.8864 20.02 21.876 20.062 21.876C20.2287 21.876 20.3747 21.9594 20.5 22.126L21.938 24.376C22.1467 24.5847 22.105 24.813 21.813 25.063Z" fill="currentColor"/>
</svg>
