<svg viewBox="0 0 32 32" fill="none" xmlns="http://www.w3.org/2000/svg">
<g clip-path="url(#clip0_103_286)">
<path d="M28.75 23.625C30.292 24.3337 31.063 25.5213 31.063 27.188C31.063 28.2713 30.688 29.188 29.938 29.938C29.188 30.688 28.2713 31.063 27.188 31.063C26.146 31.063 25.25 30.688 24.5 29.938C23.75 29.188 23.375 28.2713 23.375 27.188C23.375 25.4793 24.146 24.2917 25.688 23.625V19.937C25.688 18.3117 24.8753 17.499 23.25 17.499H20.062C19.02 17.499 18.1867 17.353 17.562 17.061V23.624C19.062 24.3327 19.812 25.5203 19.812 27.187C19.812 28.229 19.4577 29.1457 18.749 29.937C17.999 30.687 17.0823 31.062 15.999 31.062C14.9157 31.062 13.999 30.687 13.249 29.937C12.5403 29.145 12.186 28.2283 12.186 27.187C12.186 25.5203 12.936 24.3327 14.436 23.624V17.061C13.8527 17.353 13.061 17.499 12.061 17.499H8.811C8.10233 17.499 7.53966 17.6867 7.123 18.062C6.70633 18.562 6.477 18.9163 6.435 19.125C6.35166 19.5417 6.31 19.8127 6.31 19.938V23.626C7.852 24.2927 8.623 25.4803 8.623 27.189C8.623 28.2723 8.248 29.189 7.498 29.939C6.748 30.689 5.852 31.064 4.81 31.064C3.72666 31.064 2.81 30.689 2.06 29.939C1.31 29.189 0.934998 28.2723 0.934998 27.189C0.934998 25.5223 1.706 24.3347 3.248 23.626V19.938C3.248 18.688 3.70633 17.438 4.623 16.188C5.58166 15.0213 6.97766 14.438 8.811 14.438H12.061C13.6443 14.438 14.436 13.8963 14.436 12.813V8.31299C12.936 7.60432 12.186 6.43766 12.186 4.81299C12.186 3.77099 12.5403 2.85432 13.249 2.06299C13.999 1.31299 14.9157 0.937988 15.999 0.937988C17.0823 0.937988 17.999 1.31299 18.749 2.06299C19.4577 2.85499 19.812 3.77166 19.812 4.81299C19.812 6.43832 19.062 7.60499 17.562 8.31299V12.813C17.562 13.8963 18.3953 14.438 20.062 14.438H23.25C25.042 14.438 26.417 15.0213 27.375 16.188C28.2917 17.438 28.75 18.688 28.75 19.938V23.625ZM7.063 27.188C7.063 26.5213 6.83366 26.0003 6.375 25.625C5.91633 25.1663 5.39533 24.937 4.812 24.937C4.22866 24.937 3.70766 25.1663 3.249 25.625C2.83233 26.0003 2.624 26.5213 2.624 27.188C2.624 27.8133 2.83233 28.3343 3.249 28.751C3.66566 29.1677 4.18666 29.376 4.812 29.376C5.43733 29.376 5.95833 29.1677 6.375 28.751C6.83366 28.2923 7.063 27.7713 7.063 27.188ZM13.813 4.81299C13.813 5.39632 14.0213 5.89632 14.438 6.31299C14.8967 6.77165 15.4177 7.00099 16.001 7.00099C16.5843 7.00099 17.1053 6.77165 17.564 6.31299C18.0227 5.93765 18.252 5.43766 18.252 4.81299C18.252 4.18832 18.0227 3.64665 17.564 3.18799C17.1473 2.77132 16.6263 2.56299 16.001 2.56299C15.3757 2.56299 14.8547 2.77132 14.438 3.18799C14.0213 3.68799 13.813 4.22966 13.813 4.81299ZM18.25 27.188C18.25 26.5213 18.0207 26.0003 17.562 25.625C17.1033 25.1663 16.5823 24.937 15.999 24.937C15.4157 24.937 14.8947 25.1663 14.436 25.625C14.0193 26.0417 13.811 26.5627 13.811 27.188C13.811 27.73 14.0193 28.251 14.436 28.751C14.8527 29.1677 15.3737 29.376 15.999 29.376C16.6243 29.376 17.1453 29.1677 17.562 28.751C18.0207 28.2923 18.25 27.7713 18.25 27.188ZM27.188 29.375C27.8133 29.375 28.3343 29.1667 28.751 28.75C29.2097 28.2913 29.439 27.7703 29.439 27.187C29.439 26.5203 29.2097 25.9993 28.751 25.624C28.2923 25.1653 27.7713 24.936 27.188 24.936C26.5627 24.936 26.0627 25.1653 25.688 25.624C25.2293 25.9993 25 26.5203 25 27.187C25 27.7703 25.2293 28.2913 25.688 28.75C26.0633 29.1667 26.5633 29.375 27.188 29.375Z" fill="currentColor"/>
</g>
<defs>
<clipPath id="clip0_103_286">
<rect width="32" height="32" fill="white"/>
</clipPath>
</defs>
</svg>
