<svg viewBox="0 0 32 32" fill="none" xmlns="http://www.w3.org/2000/svg">
<path d="M22.375 23.375C23.4583 23.375 24.375 23.75 25.125 24.5C25.875 25.25 26.25 26.146 26.25 27.188C26.25 28.2713 25.875 29.188 25.125 29.938C24.375 30.688 23.4583 31.063 22.375 31.063C20.6663 31.063 19.4997 30.2713 18.875 28.688H13.625C11.7497 28.688 10.3537 28.1047 9.43699 26.938C8.52033 25.8547 8.06199 24.6047 8.06199 23.188V8.31299C6.51999 7.64632 5.74899 6.47966 5.74899 4.81299C5.74899 3.72966 6.12399 2.81299 6.87399 2.06299C7.62399 1.31299 8.54066 0.937988 9.62399 0.937988C10.666 0.937988 11.562 1.31299 12.312 2.06299C13.062 2.81299 13.437 3.72966 13.437 4.81299C13.437 6.47966 12.666 7.64632 11.124 8.31299V11.938C11.124 13.6047 11.9573 14.438 13.624 14.438H18.874C19.4993 12.938 20.666 12.188 22.374 12.188C23.416 12.188 24.3327 12.5423 25.124 13.251C25.874 14.001 26.249 14.9177 26.249 16.001C26.249 17.0843 25.874 18.001 25.124 18.751C24.332 19.4597 23.4153 19.814 22.374 19.814C20.6653 19.814 19.4987 19.043 18.874 17.501H13.624C12.7073 17.501 11.874 17.3133 11.124 16.938V23.188C11.124 24.8547 11.9573 25.688 13.624 25.688H18.874C19.4993 24.146 20.667 23.375 22.375 23.375ZM22.375 13.75C21.833 13.75 21.312 13.9583 20.812 14.375C20.3953 14.7917 20.187 15.3333 20.187 16C20.187 16.6253 20.3953 17.1463 20.812 17.563C21.312 17.9797 21.833 18.188 22.375 18.188C22.917 18.188 23.438 17.9797 23.938 17.563C24.3967 17.1463 24.626 16.6253 24.626 16C24.626 15.3333 24.3967 14.7917 23.938 14.375C23.438 13.9583 22.917 13.75 22.375 13.75ZM7.37499 4.81299C7.37499 5.47966 7.60433 5.97965 8.06299 6.31299C8.52166 6.77165 9.04266 7.00099 9.62599 7.00099C10.2093 7.00099 10.7303 6.77165 11.189 6.31299C11.6057 5.93765 11.814 5.43766 11.814 4.81299C11.814 4.14632 11.6057 3.60465 11.189 3.18799C10.7723 2.77132 10.2513 2.56299 9.62599 2.56299C9.00066 2.56299 8.47966 2.77132 8.06299 3.18799C7.60433 3.60465 7.37499 4.14632 7.37499 4.81299ZM22.375 29.375C23.0003 29.375 23.5213 29.1667 23.938 28.75C24.3967 28.3333 24.626 27.8123 24.626 27.187C24.626 26.4783 24.3967 25.9573 23.938 25.624C23.4793 25.1653 22.9583 24.936 22.375 24.936C21.7917 24.936 21.2707 25.1653 20.812 25.624C20.3953 25.9993 20.187 26.5203 20.187 27.187C20.187 27.8123 20.3953 28.3333 20.812 28.75C21.2287 29.1667 21.7497 29.375 22.375 29.375Z" fill="currentColor"/>
</svg>
