<svg viewBox="0 0 32 32" fill="none" xmlns="http://www.w3.org/2000/svg">
<path d="M17.3333 1.33325L17.3347 5.41592C19.6843 5.71297 21.8684 6.78316 23.5429 8.45794C25.2174 10.1327 26.2873 12.3169 26.584 14.6666H30.6667V17.3333L26.584 17.3346C26.287 19.684 25.217 21.8679 23.5425 23.5424C21.868 25.2169 19.6841 26.2869 17.3347 26.5839L17.3333 30.6666H14.6667V26.5839C12.317 26.2872 10.1328 25.2173 8.45803 23.5428C6.78325 21.8683 5.71307 19.6842 5.41601 17.3346L1.33334 17.3333V14.6666H5.41601C5.71279 12.3167 6.78286 10.1324 8.45766 8.45757C10.1325 6.78277 12.3168 5.7127 14.6667 5.41592V1.33325H17.3333ZM16 7.99992C13.8783 7.99992 11.8434 8.84277 10.3432 10.3431C8.84287 11.8434 8.00001 13.8782 8.00001 15.9999C8.00001 18.1217 8.84287 20.1565 10.3432 21.6568C11.8434 23.1571 13.8783 23.9999 16 23.9999C18.1217 23.9999 20.1566 23.1571 21.6569 21.6568C23.1572 20.1565 24 18.1217 24 15.9999C24 13.8782 23.1572 11.8434 21.6569 10.3431C20.1566 8.84277 18.1217 7.99992 16 7.99992ZM16 13.3333C16.7073 13.3333 17.3855 13.6142 17.8856 14.1143C18.3857 14.6144 18.6667 15.2927 18.6667 15.9999C18.6667 16.7072 18.3857 17.3854 17.8856 17.8855C17.3855 18.3856 16.7073 18.6666 16 18.6666C15.2928 18.6666 14.6145 18.3856 14.1144 17.8855C13.6143 17.3854 13.3333 16.7072 13.3333 15.9999C13.3333 15.2927 13.6143 14.6144 14.1144 14.1143C14.6145 13.6142 15.2928 13.3333 16 13.3333V13.3333Z" fill="currentColor"/>
</svg>
