<svg viewBox="0 0 32 32" fill="none" xmlns="http://www.w3.org/2000/svg">
<g clip-path="url(#clip0_82_200)">
<path d="M29.688 16.563C29.688 16.1876 29.3964 16 28.813 16H10.688C10.2294 16 9.75002 16.125 9.25002 16.375C8.66669 16.667 8.27069 16.9586 8.06202 17.25L3.12402 23.313C2.95736 23.5216 2.87402 23.73 2.87402 23.938C2.87402 24.3546 3.16569 24.563 3.74902 24.563H21.874C22.3327 24.563 22.812 24.438 23.312 24.188C23.7287 23.9793 24.1247 23.6876 24.5 23.313L29.375 17.25C29.5837 16.958 29.688 16.7296 29.688 16.563ZM10.688 13.875H23.438V11.187C23.438 10.7283 23.292 10.3533 23 10.062C22.708 9.77063 22.333 9.62463 21.875 9.62396H12.25C11.8334 9.62396 11.4584 9.4573 11.125 9.12396C10.833 8.83196 10.687 8.45697 10.687 7.99897V6.93596C10.687 6.5193 10.5204 6.1443 10.187 5.81096C9.85369 5.47763 9.47869 5.31096 9.06202 5.31096H3.74902C3.33236 5.31096 2.95736 5.47763 2.62402 5.81096C2.29069 6.1443 2.12402 6.5193 2.12402 6.93596V21.124L6.37402 15.874C6.87402 15.2906 7.52002 14.8113 8.31202 14.436C9.10402 14.0606 9.89569 13.873 10.687 13.873L10.688 13.875ZM31.813 16.563C31.813 17.2716 31.563 17.9383 31.063 18.563L26.125 24.626C25.6664 25.2093 25.0204 25.6886 24.187 26.064C23.395 26.4806 22.624 26.689 21.874 26.689H3.74902C2.66569 26.689 1.79069 26.314 1.12402 25.564C0.374023 24.814 -0.000976562 23.939 -0.000976562 22.939V6.93897C-0.000976562 5.93897 0.374023 5.06397 1.12402 4.31397C1.79069 3.56397 2.66569 3.18896 3.74902 3.18896H9.06202C10.062 3.18896 10.937 3.56397 11.687 4.31397C12.437 5.06397 12.812 5.93897 12.812 6.93897V7.43896H21.875C22.875 7.43896 23.75 7.81396 24.5 8.56396C25.25 9.31396 25.625 10.189 25.625 11.189V13.877H28.813C29.3964 13.877 29.938 14.002 30.438 14.252C30.938 14.5853 31.313 14.9813 31.563 15.44C31.7297 15.7733 31.813 16.1483 31.813 16.565V16.563Z" fill="currentColor"/>
</g>
<defs>
<clipPath id="clip0_82_200">
<rect width="32" height="32" fill="white"/>
</clipPath>
</defs>
</svg>
