<svg viewBox="0 0 32 32" fill="none" xmlns="http://www.w3.org/2000/svg">
<path d="M29.9991 12.1783V24.1783C29.9991 25.1335 29.6264 26.0291 28.8811 26.8652C28.1357 27.6217 27.2533 28 26.2338 28H5.76527C4.74576 28 3.86334 27.6217 3.118 26.8652C2.37267 26.0291 2 25.1335 2 24.1783V7.82074C2 6.82544 2.37267 5.91005 3.118 5.07458C3.86334 4.35819 4.74576 4 5.76527 4H11.1765C12.196 4 13.0784 4.35819 13.8237 5.07458C14.5691 5.91069 14.9418 6.82608 14.9418 7.82074V8.35851H26.2347C27.2542 8.35851 28.1367 8.73677 28.882 9.49327C29.6273 10.2498 30 11.1454 30 12.1802L29.9991 12.1783Z" fill="currentColor"/>
</svg>
