<svg viewBox="0 0 32 32" fill="none" xmlns="http://www.w3.org/2000/svg">
<path d="M29.9982 17.8714C29.9982 18.1448 29.8492 18.4958 29.5512 18.9246L24.5218 25.0687C24.1117 25.6148 23.5156 26.0635 22.7336 26.4149C21.9885 26.805 21.2806 27 20.61 27H4.40427C3.99417 27 3.69613 26.922 3.51015 26.766C3.21212 26.6486 3.0631 26.4339 3.0631 26.1219C3.0631 25.7705 3.23089 25.4194 3.56648 25.0687L8.54043 18.9246C8.91297 18.4565 9.50905 17.9884 10.3287 17.5203C11.1113 17.169 11.8379 16.9933 12.5085 16.9933H28.7143C29.0499 16.9933 29.3479 17.0519 29.6084 17.1693C29.8695 17.3253 30 17.5593 30 17.8714H29.9982ZM24.9125 12.4884V15.0049H12.5067C11.5381 15.0049 10.5507 15.2586 9.54451 15.766C8.57589 16.234 7.75629 16.8388 7.08571 17.5803L2.11176 23.7824L2 23.8994V8.51064C2 7.57447 2.33529 6.75532 3.00588 6.05319C3.60195 5.35106 4.3843 5 5.35292 5H10.1033C10.9974 5 11.7798 5.35106 12.4504 6.05319C13.121 6.75532 13.4563 7.57447 13.4563 8.51064V8.97872H21.5596C22.4537 8.97872 23.236 9.32979 23.9066 10.0319C24.5772 10.734 24.9125 11.5532 24.9125 12.4894V12.4884Z" fill="currentColor"/>
</svg>
