<svg viewBox="0 0 32 32" fill="none" xmlns="http://www.w3.org/2000/svg">
<path d="M27.8233 24.1783V12.1783C27.8233 11.7803 27.6664 11.3823 27.3527 10.9843C27.039 10.6659 26.6664 10.5067 26.2347 10.5067H14.4119C13.9019 10.5067 13.5097 10.3475 13.2356 10.0291C12.9219 9.71074 12.765 9.33248 12.765 8.89437V7.81979C12.765 7.3422 12.6082 6.9442 12.2945 6.62581C11.9808 6.30741 11.6081 6.14821 11.1765 6.14821H5.76527C5.33362 6.14821 4.96096 6.30741 4.64726 6.62581C4.33357 6.9442 4.17672 7.3422 4.17672 7.81979V24.1773C4.17672 24.6155 4.33357 24.9937 4.64726 25.3121C4.92206 25.6305 5.29473 25.7897 5.76527 25.7897H26.2338C26.7043 25.7897 27.077 25.6305 27.3518 25.3121C27.6655 24.9937 27.8223 24.6155 27.8223 24.1773L27.8233 24.1783ZM29.9991 12.1783V24.1783C29.9991 25.1335 29.6264 26.0291 28.8811 26.8652C28.1357 27.6217 27.2533 28 26.2338 28H5.76527C4.74576 28 3.86334 27.6217 3.118 26.8652C2.37267 26.0291 2 25.1335 2 24.1783V7.82074C2 6.82544 2.37267 5.91005 3.118 5.07458C3.86334 4.35819 4.74576 4 5.76527 4H11.1765C12.196 4 13.0784 4.35819 13.8237 5.07458C14.5691 5.91069 14.9418 6.82608 14.9418 7.82074V8.35851H26.2347C27.2542 8.35851 28.1367 8.73677 28.882 9.49327C29.6273 10.2498 30 11.1454 30 12.1802L29.9991 12.1783Z" fill="currentColor"/>
</svg>
