<svg viewBox="0 0 32 32" fill="none" xmlns="http://www.w3.org/2000/svg">
<path d="M4.62723 23.8833H11.5268V25.4823C11.5268 26.4152 11.1633 27.31 10.5164 27.9697C9.86941 28.6294 8.99194 29 8.07701 29C7.16207 29 6.28461 28.6294 5.63765 27.9697C4.99069 27.31 4.62723 26.4152 4.62723 25.4823V23.8833ZM9.64509 8.68686C12.154 8.68686 13.4085 12.3709 13.4085 14.9292C13.4085 16.2084 12.7812 17.4875 12.154 19.4063L11.5268 21.325H4.62723C4.62723 20.0458 4 18.1271 4 14.9292C4 11.7313 6.50642 8.68686 9.64509 8.68686ZM24.7664 18.892L24.4942 20.4667C24.3353 21.3856 23.825 22.2025 23.0754 22.7376C22.3259 23.2728 21.3986 23.4825 20.4975 23.3205C19.5963 23.1585 18.7952 22.6381 18.2703 21.8738C17.7455 21.1096 17.5399 20.164 17.6987 19.2451L17.9722 17.6717L24.7664 18.892ZM22.413 3.03935C25.504 3.59451 27.4535 7.03546 26.909 10.1848C26.3646 13.3353 25.42 15.1134 25.2029 16.3734L18.4075 15.1518L18.1165 13.1511C17.8254 11.1505 17.4265 9.77927 17.6435 8.52057C18.0788 6.00062 19.9417 2.59548 22.413 3.03935V3.03935Z" fill="currentColor"/>
</svg>
