<svg viewBox="0 0 32 32" fill="none" xmlns="http://www.w3.org/2000/svg">
<path d="M16 2C19.8609 2 23.1595 3.3681 25.8957 6.10429C28.6319 8.84048 30 12.1391 30 16C30 19.8609 28.6319 23.1595 25.8957 25.8957C23.1595 28.6319 19.8609 30 16 30C12.1391 30 8.84049 28.6319 6.10429 25.8957C3.3681 23.1595 2 19.8609 2 16C2 12.1391 3.3681 8.84048 6.10429 6.10429C8.84049 3.3681 12.1391 2 16 2ZM16 5.05455C12.9875 5.05455 10.4102 6.12567 8.26793 8.26793C6.12567 10.4102 5.05455 12.9875 5.05455 16C5.05455 19.0125 6.12567 21.5898 8.26793 23.7321C10.4102 25.8743 12.9875 26.9455 16 26.9455C19.0125 26.9455 21.5898 25.8743 23.7321 23.7321C25.8743 21.5898 26.9455 19.0125 26.9455 16C26.9455 12.9875 25.8743 10.4102 23.7321 8.26793C21.5898 6.12567 19.0125 5.05455 16 5.05455Z" fill="currentColor"/>
<path d="M25.7227 23.9978L8.75216 7.02728L6.27728 9.50216L23.2478 26.4727L25.7227 23.9978Z" fill="currentColor"/>
</svg>
