<svg viewBox="0 0 32 32" fill="none" xmlns="http://www.w3.org/2000/svg">
<path d="M15.3333 20.3333H12.6667C10.4795 20.3325 8.33364 20.9295 6.46117 22.0599C4.58869 23.1902 3.0608 24.8109 2.04267 26.7467C2.01405 26.3874 1.99982 26.0271 2 25.6667C2 18.3027 7.96934 12.3333 15.3333 12.3333V5L29.3333 16.3333L15.3333 27.6667V20.3333ZM12.6667 17.6667H18V22.0773L25.0947 16.3333L18 10.5893V15H15.3333C13.8003 14.9983 12.2851 15.3278 10.8912 15.9659C9.49732 16.604 8.25776 17.5358 7.25734 18.6973C8.97909 18.015 10.8146 17.6652 12.6667 17.6667Z" fill="currentColor"/>
</svg>
