<svg viewBox="0 0 32 32" fill="none" xmlns="http://www.w3.org/2000/svg">
<path d="M31.2637 16.2008C29.8288 16.1682 26.4304 16.3586 22.2067 18.3914L21.0928 22.5059C22.115 22.4842 23.1156 22.125 23.8627 21.4147C24.7312 20.5875 26.425 19.5343 29.5726 19.167C30.9562 19.0064 32 17.8118 32 16.4049V16.2471C32 16.2471 31.7411 16.2117 31.2637 16.2008ZM0.691604 16.9437C0.475832 16.9437 0.273547 17.0444 0.141387 17.2158C0.0119244 17.39 -0.0312299 17.6159 0.0227129 17.8254L1.40095 22.9196C1.89183 24.7319 3.53439 26 5.39811 26H15.5555C17.4166 26 19.0591 24.7346 19.55 22.9196L20.9282 17.8254C20.9849 17.6159 20.9417 17.39 20.8123 17.2158C20.6801 17.0444 20.4778 16.9437 20.262 16.9437H0.691604Z" fill="currentColor"/>
<path d="M14 8.38462C14 7.02569 13.5385 5.89692 12.6154 5C12.6154 9.40846 8 10.9383 8 13.8846C8 14.8086 8.30738 15.5135 8.92308 16C10.5846 12.0028 14 11.3174 14 8.38462Z" fill="currentColor"/>
<path d="M11 5.38462C11 4.02569 10.5385 2.89692 9.61539 2C9.61539 6.40846 5 7.93831 5 10.8846C5 11.8086 5.30738 12.5135 5.92308 13C7.58461 9.00277 11 8.31738 11 5.38462Z" fill="currentColor"/>
<path d="M16 10.8462C16 10.1049 15.7692 9.48923 15.3077 9C15.3077 11.4046 13 12.2391 13 13.8462C13 14.3502 13.1537 14.7346 13.4615 15C14.2923 12.8197 16 12.4458 16 10.8462Z" fill="currentColor"/>
</svg>
