<svg viewBox="0 0 32 32" fill="none" xmlns="http://www.w3.org/2000/svg">
<g clip-path="url(#clip0_83_222)">
<path d="M23.2131 20.6802C22.4709 20.6802 21.8558 20.9245 21.3679 21.4131C20.8799 21.9016 20.6359 22.5175 20.6359 23.2607V31.9999H23.155V25.7831C23.155 25.1181 23.399 24.5316 23.8869 24.0236C24.3749 23.5157 24.9509 23.242 25.6151 23.2025H32V20.6802H23.2131Z" fill="currentColor"/>
<path d="M8.78685 11.3197C9.52908 11.3197 10.1442 11.0754 10.6321 10.5868C11.1201 10.0983 11.364 9.48236 11.364 8.73916V0H8.84495V6.21679C8.84495 6.88179 8.60098 7.46828 8.11303 7.97625C7.62508 8.48423 7.04903 8.75793 6.3849 8.79734H9.53674e-07V11.3197H8.78685Z" fill="currentColor"/>
<path d="M23.2132 11.3197C22.4709 11.3197 21.8558 11.0754 21.3679 10.5868C20.8799 10.0983 20.636 9.48236 20.636 8.73916V0H23.1551V6.21679C23.1551 6.88179 23.399 7.46828 23.887 7.97625C24.3749 8.48423 24.951 8.75793 25.6151 8.79734H32V11.3197H23.2132Z" fill="currentColor"/>
<path d="M8.78685 20.6802C9.52908 20.6802 10.1442 20.9245 10.6321 21.4131C11.1201 21.9016 11.364 22.5175 11.364 23.2607V31.9999H8.84495V25.7831C8.84495 25.1181 8.60098 24.5316 8.11303 24.0236C7.62508 23.5157 7.04903 23.242 6.3849 23.2025H0V20.6802H8.78685Z" fill="currentColor"/>
</g>
<defs>
<clipPath id="clip0_83_222">
<rect width="32" height="32" fill="white"/>
</clipPath>
</defs>
</svg>
