<svg viewBox="0 0 32 32" fill="none" xmlns="http://www.w3.org/2000/svg">
<path d="M27.4228 2C28.165 2 28.7801 2.24429 29.2681 2.73288C29.756 3.22146 30 3.83735 30 4.58055V13.3197H27.4809V7.10293C27.4809 6.43793 27.2369 5.85144 26.749 5.34346C26.261 4.83548 25.685 4.56179 25.0208 4.52237H18.636V2H27.4228Z" fill="currentColor"/>
<path d="M4.57723 2C3.83499 2 3.2199 2.24429 2.73195 2.73288C2.244 3.22146 2.00003 3.83735 2.00003 4.58055V13.3197H4.51912V7.10293C4.51912 6.43793 4.7631 5.85144 5.25105 5.34346C5.739 4.83548 6.31504 4.56179 6.97918 4.52237H13.3641V2H4.57723Z" fill="currentColor"/>
<path d="M27.4228 30C28.165 30 28.7801 29.7557 29.268 29.2671C29.756 28.7785 30 28.1626 30 27.4194V18.6803H27.4809V24.8971C27.4809 25.5621 27.2369 26.1486 26.749 26.6565C26.261 27.1645 25.685 27.4382 25.0208 27.4776H18.6359V30H27.4228Z" fill="currentColor"/>
<path d="M4.5772 30C3.83497 30 3.21987 29.7557 2.73192 29.2671C2.24397 28.7785 2 28.1626 2 27.4194V18.6803H4.5191V24.8971C4.5191 25.5621 4.76307 26.1486 5.25102 26.6565C5.73897 27.1645 6.31501 27.4382 6.97915 27.4776H13.364V30H4.5772Z" fill="currentColor"/>
</svg>
