<svg viewBox="0 0 32 32" fill="none" xmlns="http://www.w3.org/2000/svg">
<path d="M14.2501 6.40594L14.5351 5.79364L14.9538 4.80971C14.9678 4.79319 14.9829 4.78965 14.998 4.80381C15.1283 8.25347 14.9841 12.142 13.337 15.3416C13.0346 15.8548 12.7205 16.3562 12.3949 16.8458C11.1456 18.77 10.5954 21.1272 11.0607 23.3994C11.4608 25.3508 12.5089 27.0839 14.0512 28.1799C14.0594 28.2212 14.0524 28.2283 14.0245 28.2577C13.9849 28.299 13.0369 28.4206 12.9136 28.4265C12.2669 28.4595 11.6155 28.4477 10.963 28.2861C9.94056 28.0324 9.05306 27.5605 8.33654 26.8113C6.96864 25.3826 6.24399 23.4643 6.00437 21.474C5.65658 18.5848 6.36612 15.8064 8.00154 13.4232C8.89137 12.1255 10.0429 11.1888 11.2503 10.2497C12.4472 9.30347 13.4254 8.10246 14.0733 6.70679C14.128 6.59943 14.1862 6.49914 14.2513 6.40594H14.2501Z" fill="currentColor"/>
<path d="M23.5579 28.4524L23.5462 28.4111C24.8722 27.4178 25.8935 26.0634 26.5437 24.3798C28.1745 20.1539 26.9904 15.1386 23.9894 11.8447C22.9751 10.7747 21.9922 9.62201 21.3292 8.27117L21.3164 8.18858C21.3874 8.20156 21.4502 8.24167 21.5142 8.28886L22.5645 9.07814L23.7486 9.93229L24.8455 10.7192C25.5294 11.21 26.1599 11.7397 26.7554 12.3355L27.3673 13.0233C28.6049 14.5134 29.4203 16.2524 29.789 18.1683C29.9076 18.7842 29.9693 19.3941 29.9925 20.0206C30.0228 20.8193 29.96 21.6015 29.8227 22.3895C29.7169 22.9971 29.5505 23.5729 29.3388 24.1486C29.048 24.9426 28.6572 25.6811 28.1256 26.3359C27.679 26.888 27.1323 27.3399 26.5216 27.6891C25.9587 28.0112 25.3771 28.2106 24.7431 28.3203C24.3407 28.3899 23.9557 28.4583 23.5567 28.4536L23.5579 28.4524Z" fill="currentColor"/>
<path d="M11.6586 8.43988L11.1514 8.95898C10.7106 9.3601 10.2569 9.71993 9.7812 10.0821C9.22055 10.5092 8.72039 10.9976 8.22604 11.5014L7.99573 11.7645C7.7154 12.0842 7.46067 12.4004 7.21175 12.7496C6.73601 13.4162 6.32424 14.1122 5.98809 14.8638C5.31461 16.3691 4.95402 17.9878 4.88889 19.6418C4.83422 21.0517 5.02847 22.4615 5.45186 23.8029C5.80663 24.9237 6.44754 26.2285 7.21873 27.0921L7.59909 27.5192L8.03062 27.9321L8.56219 28.3604L8.0062 28.292C6.94538 28.1008 6.0067 27.767 5.10989 27.1594C4.519 26.7594 4.01301 26.2781 3.58264 25.7035C3.12086 25.0877 2.75562 24.4211 2.5195 23.6838L2.20777 22.5559C2.08796 21.9837 2.02631 21.4198 2.00537 20.8311C1.95303 19.2962 2.28453 17.7979 2.9394 16.414C3.39886 15.4454 3.97114 14.5499 4.64578 13.7241C4.92145 13.3867 5.18666 13.0681 5.49374 12.7649L6.02763 12.2364C6.41963 11.8482 6.83604 11.5085 7.26991 11.1687L7.67934 10.849L8.90533 9.99954L10.2186 9.21971L11.2619 8.63808L11.6574 8.43988H11.6586Z" fill="currentColor"/>
<path d="M19.1587 6.23134C19.2076 6.31156 19.2506 6.39414 19.289 6.48145C20.0474 8.51184 21.1768 10.2827 22.5692 11.7845L23.2915 12.5726C25.9854 15.5315 27.0451 20.0866 25.6655 23.8808C25.1956 25.175 24.3197 26.5518 23.2403 27.3894C22.6355 27.859 21.9364 28.2165 21.2199 28.3781C21.1617 28.3911 21.0826 28.4064 21.0279 28.3934C20.7011 28.4902 20.3487 28.4996 19.9974 28.4795L19.275 28.476L18.4445 28.4666L18.4376 28.4925C17.8502 28.3887 17.2581 28.2731 16.6614 28.148C16.5137 28.1516 16.3683 28.1716 16.224 28.2082L16.1705 28.1775L16.017 28.1681C14.285 27.5121 12.9427 25.9973 12.3111 24.2394C11.5062 21.9802 11.9005 19.4495 13.2056 17.4239C14.0908 16.132 14.8271 14.7552 15.2353 13.2239C16.2054 9.68218 16.2008 5.90336 15.7053 2.36757C15.6948 2.27673 15.696 2.18706 15.7076 2.09976L15.6401 1.6019L15.4656 0.636839C15.8181 0.492907 16.1391 0.327738 16.4683 0.147233C16.637 0.0540302 16.8138 -0.00849787 17.0022 0.000940332C17.2279 0.0127381 17.407 0.142513 17.4698 0.363131L17.8304 1.63847L18.4062 3.75971L18.6737 4.7165L19.1099 6.0874L19.1611 6.2337L19.1587 6.23134Z" fill="currentColor"/>
<path d="M18.4434 28.4654L20.08 28.8052C20.33 28.8571 20.4941 29.047 20.4871 29.3101C20.4836 29.4658 20.4394 29.6204 20.3254 29.7171C20.2207 29.8056 20.0672 29.8752 19.9136 29.8445L18.0944 29.4788L18.3375 29.7466L18.7679 30.1796L18.9808 30.4167C19.1006 30.5501 19.1296 30.727 19.0796 30.9111C19.0424 31.0503 18.9366 31.1942 18.7772 31.2508C18.5736 31.3216 18.3608 31.2933 18.2107 31.1388L17.7269 30.6421L17.0069 29.913L17.0115 31.4797C17.0115 31.6119 16.9545 31.7381 16.8777 31.8301C16.7742 31.954 16.6463 32 16.4892 32C16.2252 32 15.9751 31.8183 15.9751 31.5328L15.9693 29.9L15.6238 30.2468L15.4377 30.4344L14.7177 31.1659C14.5025 31.3842 14.1012 31.3027 13.9396 31.0503C13.8011 30.8332 13.843 30.5512 14.0152 30.3731L14.8829 29.4788L13.0672 29.8068C12.8962 29.8375 12.7159 29.7856 12.6031 29.657C12.41 29.4375 12.4018 29.1143 12.6066 28.9043C12.6624 28.8465 12.7624 28.7898 12.8462 28.7745L14.2501 28.5114L14.3571 28.4866L16.1717 28.1728C16.331 28.1457 16.5032 28.0961 16.666 28.1044L18.3201 28.4359L18.4457 28.463L18.4434 28.4654Z" fill="currentColor"/>
</svg>
