<svg viewBox="0 0 32 32" fill="none" xmlns="http://www.w3.org/2000/svg">
<path d="M20 2.66676C20.9364 2.66664 21.8563 2.91307 22.6672 3.38124C23.4782 3.84942 24.1515 4.52285 24.6197 5.33381C25.0878 6.14478 25.3341 7.06471 25.334 8.00109C25.3338 8.93747 25.0871 9.8573 24.6187 10.6681L30.6667 10.6668V13.3334H28V26.6668C28 27.0204 27.8595 27.3595 27.6095 27.6096C27.3594 27.8596 27.0203 28.0001 26.6667 28.0001H5.33333C4.97971 28.0001 4.64057 27.8596 4.39052 27.6096C4.14047 27.3595 3.99999 27.0204 3.99999 26.6668V13.3334H1.33333V10.6668L7.38133 10.6681C6.71981 9.52261 6.50758 8.17217 6.78584 6.87899C7.0641 5.58581 7.81299 4.44218 8.88711 3.67016C9.96122 2.89814 11.2839 2.55282 12.5983 2.70126C13.9127 2.8497 15.1251 3.4813 16 4.47342C16.4995 3.9046 17.1147 3.44912 17.8046 3.13753C18.4945 2.82593 19.243 2.66542 20 2.66676V2.66676ZM14.6667 13.3334H6.66666V25.3334H14.6667V13.3334ZM25.3333 13.3334H17.3333V25.3334H25.3333V13.3334ZM12 5.33342C11.308 5.33033 10.6419 5.59634 10.1425 6.07526C9.64298 6.55418 9.34924 7.20851 9.32327 7.90001C9.29731 8.59151 9.54116 9.26602 10.0033 9.78105C10.4655 10.2961 11.1097 10.6113 11.8 10.6601L12 10.6668H14.6667V8.00009C14.6667 7.36284 14.4385 6.74664 14.0235 6.2631C13.6084 5.77956 13.0339 5.46063 12.404 5.36409L12.1987 5.34009L12 5.33342ZM20 5.33342C19.3272 5.33321 18.6792 5.5873 18.1859 6.04475C17.6926 6.50221 17.3905 7.12922 17.34 7.80009L17.3333 8.00009V10.6668H20C20.6728 10.667 21.3208 10.4129 21.8141 9.95543C22.3074 9.49797 22.6095 8.87096 22.66 8.20009L22.6667 8.00009C22.6667 7.29285 22.3857 6.61457 21.8856 6.11447C21.3855 5.61437 20.7072 5.33342 20 5.33342V5.33342Z" fill="currentColor"/>
</svg>
