<svg viewBox="0 0 32 32" fill="none" xmlns="http://www.w3.org/2000/svg">
<path d="M16 2.31299C18.5833 2.31299 20.875 2.91732 22.875 4.12599C24.9583 5.37599 26.625 7.04266 27.875 9.12599C29.0837 11.126 29.688 13.4177 29.688 16.001C29.688 18.5843 29.0837 20.876 27.875 22.876C26.625 24.9593 24.9583 26.626 22.875 27.876C20.875 29.0847 18.5833 29.689 16 29.689C13.4167 29.689 11.125 29.0847 9.12501 27.876C7.04168 26.626 5.37501 24.9593 4.12501 22.876C2.91635 20.876 2.31201 18.5843 2.31201 16.001C2.31201 13.4177 2.91635 11.126 4.12501 9.12599C5.37501 7.04266 7.04168 5.37599 9.12501 4.12599C11.125 2.91732 13.4167 2.31299 16 2.31299ZM20.875 11.563C20.875 11.605 20.8333 11.6677 20.75 11.751C20.6247 11.8763 20.5413 11.939 20.5 11.939C20.542 11.897 20.563 11.8553 20.563 11.814C20.563 11.7727 20.584 11.71 20.626 11.626L20.689 11.501C20.8557 11.4177 21.0017 11.3343 21.127 11.251C21.2523 11.1677 21.565 11.105 22.065 11.063C22.4403 10.9377 22.732 11.0003 22.94 11.251C22.94 11.209 23.0027 11.1257 23.128 11.001C23.2533 10.8763 23.3367 10.8137 23.378 10.813L23.628 10.688C23.7533 10.688 23.8577 10.6463 23.941 10.563V10.188C23.8157 10.188 23.7113 10.1463 23.628 10.063C23.5447 9.89632 23.503 9.77132 23.503 9.68799C23.503 9.72999 23.482 9.77165 23.44 9.81299C23.44 9.72965 23.3983 9.68799 23.315 9.68799H23.127C23.0437 9.72999 22.981 9.72999 22.939 9.68799C22.8557 9.68799 22.7723 9.64632 22.689 9.56299C22.6057 9.47965 22.564 9.39632 22.564 9.31299C22.522 9.18765 22.501 9.08332 22.501 8.99999L22.126 8.62499V8.56199L22.063 8.43699C22.021 8.39499 22 8.35332 22 8.31199H21.875C21.833 8.31199 21.7913 8.33299 21.75 8.37499L21.687 8.43799C21.645 8.47999 21.624 8.52165 21.624 8.56299L21.561 8.62599H21.311L21.186 8.75099H21.123L20.998 8.81399H20.873C21.0397 8.77199 21.0397 8.70932 20.873 8.62599H20.685L20.56 8.56299C20.6853 8.56299 20.727 8.50032 20.685 8.37499C20.685 8.29166 20.6433 8.20832 20.56 8.12499H20.623C20.623 8.04166 20.5813 7.99999 20.498 7.99999C20.456 7.99999 20.404 7.97899 20.342 7.93699C20.28 7.89499 20.228 7.85332 20.186 7.81199L19.936 7.68699L19.311 7.56199C19.019 7.51999 18.8313 7.51999 18.748 7.56199C18.706 7.60399 18.685 7.66666 18.685 7.74999C18.685 7.83332 18.706 7.91666 18.748 7.99999L18.811 8.18799C18.811 8.31332 18.7693 8.39665 18.686 8.43799C18.6027 8.52132 18.561 8.58399 18.561 8.62599C18.561 8.66799 18.6443 8.77232 18.811 8.93899C19.0197 8.98099 19.0823 9.10599 18.999 9.31399C18.999 9.39732 18.9157 9.48066 18.749 9.56399C18.6237 9.64732 18.5193 9.73066 18.436 9.81399C18.3527 9.89732 18.3527 10.0017 18.436 10.127C18.436 10.2937 18.4987 10.398 18.624 10.44V10.503C18.624 10.545 18.603 10.566 18.561 10.566L18.498 10.629L18.373 10.692L18.31 10.755C18.1847 10.797 18.0597 10.7553 17.935 10.63C17.8097 10.5467 17.7263 10.4007 17.685 10.192C17.643 9.94199 17.5597 9.75432 17.435 9.62899C17.1017 9.54565 16.914 9.56666 16.872 9.69199C16.83 9.56666 16.6007 9.39999 16.184 9.19199C15.892 9.06666 15.5377 9.04565 15.121 9.12899C15.2043 9.12899 15.2043 9.04565 15.121 8.87899C15.079 8.71232 14.9747 8.62899 14.808 8.62899L14.871 8.50399V8.06599L15.059 7.69099C15.101 7.69099 15.1427 7.62832 15.184 7.50299L15.372 7.31499C15.414 7.23165 15.4557 7.18999 15.497 7.18999C15.8723 7.27332 16.164 7.21066 16.372 7.00199C16.414 6.95999 16.4767 6.85566 16.56 6.68899C16.6433 6.52232 16.706 6.41799 16.748 6.37599L16.998 6.25099L17.248 6.37599C17.3313 6.41799 17.4147 6.43899 17.498 6.43899C17.7067 6.52232 17.811 6.45965 17.811 6.25099C17.811 6.12565 17.7693 6.02132 17.686 5.93799C17.8113 5.93799 17.8323 5.83365 17.749 5.62499L17.561 5.43699C17.4357 5.35365 17.2897 5.39532 17.123 5.56199C16.9563 5.56199 16.9563 5.60365 17.123 5.68699L16.935 5.87499C16.893 5.95832 16.8097 6.06266 16.685 6.18799C16.5597 6.22999 16.4553 6.18832 16.372 6.06299C16.33 6.02099 16.309 5.95832 16.309 5.87499C16.267 5.70832 16.2043 5.62499 16.121 5.62499C16.0377 5.62499 15.9333 5.70832 15.808 5.87499C15.85 5.74965 15.7873 5.66632 15.62 5.62499L15.37 5.49999C15.37 5.49999 15.3073 5.47899 15.182 5.43699C15.3907 5.31165 15.349 5.16566 15.057 4.99899C14.9737 4.91566 14.8487 4.87399 14.682 4.87399C14.5153 4.87399 14.411 4.89499 14.369 4.93699L14.244 5.18699C14.244 5.22899 14.265 5.27065 14.307 5.31199L14.37 5.37499C14.4533 5.37499 14.495 5.39599 14.495 5.43799C14.5783 5.43799 14.6617 5.45899 14.745 5.50099C14.8283 5.50099 14.87 5.52199 14.87 5.56399C15.12 5.64732 15.1617 5.73066 14.995 5.81399C14.953 5.81399 14.9113 5.83499 14.87 5.87699C14.7867 5.87699 14.724 5.89799 14.682 5.93999L14.557 6.00299C14.515 6.04499 14.515 6.12832 14.557 6.25299C14.599 6.33632 14.578 6.41965 14.494 6.50299C14.452 6.46099 14.431 6.41932 14.431 6.37799C14.389 6.29465 14.368 6.23199 14.368 6.18999C14.2847 6.02332 14.243 5.91899 14.243 5.87699C14.285 5.96032 14.264 6.00199 14.18 6.00199C14.0967 6.04399 13.9717 6.04399 13.805 6.00199H13.305C13.2217 6.04399 13.0967 6.06499 12.93 6.06499L12.742 5.87699C12.6587 5.79365 12.6587 5.68932 12.742 5.56399C12.742 5.52199 12.763 5.50099 12.805 5.50099L12.617 5.31299L12.429 5.18799C11.887 5.39666 11.3243 5.64666 10.741 5.93799C10.8243 5.93799 10.887 5.91699 10.929 5.87499L11.179 5.74999H11.304L11.367 5.68699C11.7003 5.52032 11.9503 5.47865 12.117 5.56199L12.18 5.43699C12.3467 5.60365 12.4717 5.77032 12.555 5.93699C12.513 5.89499 12.3253 5.87399 11.992 5.87399C11.8667 5.91599 11.7417 5.99932 11.617 6.12399C11.7003 6.29066 11.742 6.39499 11.742 6.43699C11.6587 6.35365 11.5753 6.29099 11.492 6.24899L11.367 6.18599C11.2837 6.14399 11.242 6.10232 11.242 6.06099C11.242 6.01965 11.2003 5.99866 11.117 5.99799C11.0337 5.99732 10.992 5.97632 10.992 5.93499C10.9087 5.93499 10.8253 5.95599 10.742 5.99799H10.617C8.82501 6.95666 7.40835 8.26932 6.36701 9.93599L6.61701 10.061C6.65901 10.103 6.68001 10.1657 6.68001 10.249L6.74301 10.437C6.74301 10.479 6.80568 10.458 6.93101 10.374C7.05635 10.4993 7.07735 10.6243 6.99401 10.749C7.20268 10.8323 7.47368 10.9783 7.80701 11.187C8.01568 11.437 8.14068 11.562 8.18201 11.562C8.18201 11.6873 8.11935 11.8123 7.99401 11.937C7.99401 11.895 7.93135 11.8323 7.80601 11.749C7.72268 11.6657 7.68101 11.6447 7.68101 11.686C7.59768 11.7693 7.59768 11.8737 7.68101 11.999C7.72301 12.1657 7.78568 12.249 7.86901 12.249C7.78568 12.249 7.72301 12.3323 7.68101 12.499C7.68101 12.5823 7.67068 12.6867 7.65001 12.812C7.62935 12.9373 7.61901 13.0417 7.61901 13.125V13.563H7.68201C7.64001 13.6883 7.66101 13.8967 7.74501 14.188C7.82834 14.438 7.95334 14.563 8.12001 14.563C7.95334 14.563 8.07834 14.813 8.49501 15.313L8.62001 15.501L8.87001 15.626C8.95334 15.668 9.03668 15.7307 9.12001 15.814L9.30801 16.002L9.49601 16.377C9.57935 16.627 9.66268 16.773 9.74601 16.815C9.66268 16.857 9.72534 16.982 9.93401 17.19C10.0593 17.3153 10.122 17.4403 10.122 17.565H10.059L9.99601 17.628C10.0793 17.7113 10.1837 17.7947 10.309 17.878C10.3923 17.92 10.4757 17.9827 10.559 18.066C10.559 18.1493 10.58 18.212 10.622 18.254V18.442C10.664 18.484 10.7267 18.505 10.81 18.505C10.81 18.213 10.664 17.838 10.372 17.38C10.1633 17.088 10.059 16.9213 10.059 16.88L9.93401 16.63C9.93401 16.4633 9.91301 16.359 9.87101 16.317L9.93401 16.38H9.99701C10.039 16.38 10.0807 16.401 10.122 16.443L10.247 16.506L10.31 16.569C10.268 16.611 10.289 16.7153 10.373 16.882C10.457 17.0487 10.5197 17.153 10.561 17.195C10.6023 17.237 10.6543 17.2997 10.717 17.383C10.7797 17.4663 10.8317 17.529 10.873 17.571L11.061 17.759C11.1863 17.8843 11.2697 18.0093 11.311 18.134C11.4777 18.3007 11.4777 18.384 11.311 18.384C11.4363 18.384 11.5613 18.4467 11.686 18.572C11.8113 18.6553 11.9157 18.7597 11.999 18.885C12.0823 19.0517 12.124 19.2183 12.124 19.385C12.124 19.427 12.1343 19.5 12.155 19.604C12.1757 19.708 12.207 19.781 12.249 19.823C12.249 19.865 12.2907 19.9277 12.374 20.011C12.4573 20.1363 12.5407 20.199 12.624 20.199L13.124 20.449C13.166 20.491 13.2703 20.5537 13.437 20.637L13.812 20.887H14L14.125 20.95C14.2083 20.95 14.2917 20.929 14.375 20.887H14.5L14.625 20.824C14.7917 20.824 14.9583 20.9073 15.125 21.074C15.2917 21.324 15.4167 21.449 15.5 21.449C15.9167 21.699 16.25 21.7823 16.5 21.699V21.824L16.625 22.074C16.667 22.1573 16.7297 22.2407 16.813 22.324C16.855 22.366 16.876 22.4287 16.876 22.512L17.251 22.762C17.293 22.804 17.3557 22.8457 17.439 22.887L17.564 23.012C17.6473 23.012 17.689 22.9703 17.689 22.887C17.647 22.9703 17.6887 23.0747 17.814 23.2C17.9393 23.3667 18.0437 23.4293 18.127 23.388C18.2937 23.388 18.377 23.2003 18.377 22.825C18.0017 23.0337 17.71 22.9293 17.502 22.512C17.502 22.47 17.481 22.4283 17.439 22.387C17.397 22.3457 17.376 22.304 17.376 22.262L17.313 22.137V21.949H17.438C17.48 21.949 17.5427 21.928 17.626 21.886C17.626 21.8027 17.605 21.7193 17.563 21.636C17.521 21.5527 17.5 21.4693 17.5 21.386C17.5 21.3027 17.4373 21.1983 17.312 21.073C17.2287 20.9477 17.1453 20.8433 17.062 20.76C17.02 20.8853 16.9367 20.948 16.812 20.948C16.6033 20.8647 16.499 20.802 16.499 20.76V20.885L16.436 20.948H16.186C16.186 20.8647 16.207 20.7603 16.249 20.635C16.249 20.4263 16.27 20.3013 16.312 20.26C16.312 20.1767 16.333 20.0933 16.375 20.01C16.4583 19.9267 16.5 19.8433 16.5 19.76L16.563 19.697C16.605 19.655 16.626 19.6133 16.626 19.572C16.626 19.5307 16.5843 19.468 16.501 19.384C16.459 19.342 16.3547 19.321 16.188 19.321C15.9793 19.321 15.8333 19.446 15.75 19.696C15.708 19.738 15.687 19.8007 15.687 19.884L15.624 19.947V20.072C15.5407 20.1553 15.478 20.197 15.436 20.197C15.394 20.239 15.248 20.26 14.998 20.26C14.8727 20.26 14.7267 20.2183 14.56 20.135C14.4347 20.093 14.3097 19.9263 14.185 19.635C14.0597 19.385 13.997 19.1557 13.997 18.947C13.997 18.7803 14.018 18.6343 14.06 18.509C14.06 18.4257 14.081 18.3423 14.123 18.259V18.071C14.123 18.029 14.0813 17.883 13.998 17.633L14.373 17.258H14.498C14.54 17.258 14.561 17.237 14.561 17.195C14.603 17.195 14.624 17.1533 14.624 17.07H14.561L14.498 17.007C14.6647 17.007 14.8313 16.986 14.998 16.944C15.248 16.902 15.4147 16.923 15.498 17.007C15.7067 17.1323 15.8317 17.1113 15.873 16.944C15.873 16.902 15.852 16.8393 15.81 16.756V16.568C15.8933 16.9013 16.081 16.943 16.373 16.693L16.623 16.818C16.7897 16.818 16.894 16.839 16.936 16.881L17.061 17.006C17.103 17.006 17.124 17.0163 17.124 17.037C17.124 17.0577 17.145 17.068 17.187 17.068H17.25L17.375 16.943C17.4583 17.0683 17.5417 17.2143 17.625 17.381C17.7503 17.881 17.8547 18.131 17.938 18.131L18.126 18.194C18.2093 18.194 18.251 18.1313 18.251 18.006V17.693C18.209 17.651 18.188 17.6093 18.188 17.568V16.943C17.9793 16.8597 17.8543 16.7763 17.813 16.693C17.813 16.5677 17.834 16.4633 17.876 16.38C17.918 16.2967 18.0013 16.1923 18.126 16.067C18.168 16.025 18.2097 16.004 18.251 16.004C18.2923 16.004 18.3443 15.983 18.407 15.941C18.4697 15.899 18.5217 15.878 18.563 15.878L18.751 15.753C19.001 15.503 19.1053 15.2947 19.064 15.128C19.106 15.128 19.1687 15.0653 19.252 14.94C19.21 14.94 19.1683 14.919 19.127 14.877C19.0857 14.835 19.044 14.814 19.002 14.814L18.939 14.751C19.0223 14.709 19.0433 14.6257 19.002 14.501L19.065 14.438C19.107 14.396 19.128 14.3543 19.128 14.313C19.128 14.1877 19.1697 14.125 19.253 14.125C19.3783 14.2503 19.5033 14.2503 19.628 14.125C19.7113 14.0417 19.7113 13.9583 19.628 13.875C19.7113 13.7497 19.8363 13.687 20.003 13.687C20.2117 13.6037 20.316 13.541 20.316 13.499C20.3993 13.499 20.462 13.478 20.504 13.436V13.248C20.504 13.1227 20.525 13.06 20.567 13.06C20.567 13.018 20.6503 12.9553 20.817 12.872C20.9003 12.83 20.9837 12.809 21.067 12.809L21.38 12.559V12.496C21.5887 12.5793 21.7553 12.5167 21.88 12.308C22.0053 12.1827 21.9843 12.0577 21.817 11.933C21.817 11.8497 21.796 11.808 21.754 11.808C21.754 11.766 21.7123 11.745 21.629 11.745C21.5457 11.745 21.504 11.724 21.504 11.682H21.879C22.0877 11.5567 22.046 11.4523 21.754 11.369C21.5873 11.2857 21.3373 11.3483 21.004 11.557H20.879L20.875 11.563ZM18 27.25C20.4167 26.8333 22.5 25.7083 24.25 23.875C24.208 23.833 24.1247 23.812 24 23.812L23.812 23.749C23.7287 23.707 23.6243 23.6653 23.499 23.624C23.4157 23.624 23.374 23.603 23.374 23.561C23.374 23.4777 23.353 23.415 23.311 23.373C23.311 23.331 23.2693 23.2683 23.186 23.185L22.936 23.06C22.8527 22.9767 22.79 22.935 22.748 22.935L22.623 22.81C22.581 22.768 22.5393 22.747 22.498 22.747L22.373 22.622H21.935L21.81 22.747C21.768 22.747 21.747 22.768 21.747 22.81C21.497 22.6433 21.2677 22.5183 21.059 22.435C21.017 22.435 20.9543 22.414 20.871 22.372C20.7877 22.2887 20.725 22.247 20.683 22.247C20.641 22.205 20.5783 22.184 20.495 22.184C20.453 22.184 20.3903 22.2257 20.307 22.309C20.265 22.351 20.244 22.3927 20.244 22.434C20.244 22.5173 20.223 22.559 20.181 22.559V22.809C20.139 22.767 20.139 22.6627 20.181 22.496C20.2643 22.3707 20.2643 22.2663 20.181 22.183C20.181 22.0577 20.1183 22.0367 19.993 22.12C19.9097 22.12 19.847 22.141 19.805 22.183C19.763 22.183 19.7003 22.2247 19.617 22.308L19.523 22.402C19.523 22.402 19.4917 22.4123 19.429 22.433L19.304 22.558C19.2207 22.6 19.158 22.6417 19.116 22.683V22.746L19.053 22.871C19.011 22.9963 18.9693 23.059 18.928 23.059C18.886 23.017 18.8233 22.996 18.74 22.996L18.552 22.871C18.594 22.9543 18.615 23.1627 18.615 23.496C18.615 23.5793 18.6253 23.694 18.646 23.84C18.6667 23.986 18.698 24.1007 18.74 24.184C18.782 24.5593 18.6987 24.851 18.49 25.059C18.1567 25.309 17.99 25.5383 17.99 25.747C17.9067 26.039 17.9693 26.185 18.178 26.185C18.178 26.3517 18.1363 26.4767 18.053 26.56L17.928 26.935C17.928 27.0603 17.949 27.1647 17.991 27.248L18 27.25Z" fill="currentColor"/>
</svg>
