<svg viewBox="0 0 32 32" fill="none" xmlns="http://www.w3.org/2000/svg">
<path d="M24.6565 15.1454L24.9 19.6656C24.9327 20.302 24.5437 20.9216 23.7329 21.5243C22.9222 22.0938 21.836 22.5291 20.4743 22.8301C19.1775 23.165 17.6862 23.3324 16.0004 23.3324C14.3146 23.3324 12.8232 23.165 11.5264 22.8301C10.1648 22.5285 9.07861 22.0933 8.26785 21.5243C7.4571 20.9216 7.06806 20.302 7.10074 19.6656L7.34428 15.1454L15.3196 17.7571C15.5789 17.824 15.8059 17.8575 16.0004 17.8575C16.1949 17.8575 16.4218 17.824 16.6812 17.7571L24.6565 15.1454ZM32 10.4741C32 10.7419 31.9027 10.8928 31.7082 10.9265L16.1467 15.9996H15.8549L6.80974 13.0359C6.4207 13.3376 6.0965 13.8733 5.83714 14.6431C5.57778 15.3128 5.41568 16.1667 5.35084 17.205C5.9344 17.5736 6.22618 18.0927 6.22618 18.7624C6.22618 19.3988 5.95048 19.901 5.39908 20.2691L6.22618 26.4969C6.22618 26.5977 6.19376 26.715 6.12892 26.8489C6.0314 26.9496 5.9178 27 5.78812 27H3.11309C2.98341 27 2.86981 26.9496 2.77229 26.8489C2.67477 26.7482 2.64235 26.6309 2.67503 26.4969L3.45311 20.2691C2.93439 19.9343 2.67503 19.432 2.67503 18.7624C2.67503 18.0589 2.96681 17.5232 3.55037 17.1552C3.64789 15.2131 4.10177 13.6394 4.912 12.4341L0.291779 10.9273C0.0972597 10.8936 0 10.7428 0 10.4749C0 10.274 0.0972597 10.1232 0.291779 10.0225L15.8533 5H16.1451L31.7067 10.0225C31.9012 10.1232 31.9984 10.274 31.9984 10.4749L32 10.4741Z" fill="currentColor"/>
</svg>
