<svg viewBox="0 0 32 32" fill="none" xmlns="http://www.w3.org/2000/svg">
<path d="M12.2881 24.7456C12.142 25.1574 12.0625 25.6007 12.0625 26.0625C12.0625 28.2371 13.8254 30 16 30C18.1746 30 19.9375 28.2371 19.9375 26.0625C19.9375 25.6007 19.858 25.1574 19.7119 24.7456C18.273 24.6895 16.9714 24.0988 16 23.1666C15.0286 24.0988 13.727 24.6895 12.2881 24.7456ZM8.125 19.0625C8.125 18.6007 8.20452 18.1574 8.35059 17.7456C9.78947 17.6895 11.0911 17.0988 12.0625 16.1666C12.7267 16.804 13.5453 17.2818 14.4566 17.5381C14.322 18.0233 14.25 18.5345 14.25 19.0625C14.25 20.0391 14.4961 20.9582 14.9298 21.7612C14.2117 22.5238 13.1927 23 12.0625 23C9.88785 23 8.125 21.2371 8.125 19.0625ZM23.4375 17.9688C23.5319 17.9688 23.6258 17.9665 23.7191 17.9619C23.8206 18.3112 23.875 18.6805 23.875 19.0625C23.875 21.2371 22.1121 23 19.9375 23C17.7629 23 16 21.2371 16 19.0625C16 18.6007 16.0795 18.1574 16.2256 17.7456C17.5003 17.6959 18.6673 17.2266 19.5924 16.4721C20.6048 17.4015 21.9549 17.9688 23.4375 17.9688ZM8.5625 8.125C9.55218 8.125 10.4565 8.49015 11.1483 9.09302C10.6181 9.95736 10.3125 10.9742 10.3125 12.0625C10.3125 13.1508 10.6181 14.1677 11.1483 15.032C10.4565 15.6349 9.55218 16 8.5625 16C6.38785 16 4.625 14.2371 4.625 12.0625C4.625 9.88791 6.38785 8.125 8.5625 8.125ZM20.8517 15.032C21.3819 14.1677 21.6875 13.1508 21.6875 12.0625C21.6875 10.9742 21.3819 9.95736 20.8517 9.09302C21.5435 8.49015 22.4478 8.125 23.4375 8.125C25.6121 8.125 27.375 9.88791 27.375 12.0625C27.375 14.2371 25.6121 16 23.4375 16C22.4478 16 21.5435 15.6349 20.8517 15.032ZM12.0625 12.0625C12.0625 10.0563 13.5629 8.40052 15.5028 8.15612C15.5562 7.69915 15.7042 6.59856 15.947 6.05223C16.2581 5.35223 16.6781 4.75592 17.207 4.26335C17.7359 3.77073 18.3607 3.35592 19.0815 3.01888C19.8022 2.68184 20.567 2.43039 21.3759 2.26447C22.1848 2.09849 23.0352 2.01039 23.927 2V3.55553C22.6722 3.57631 21.5418 3.74743 20.5359 4.06888C19.53 4.39039 18.6822 4.91927 17.9926 5.65553C17.4134 6.27388 17.0445 7.77363 16.9412 8.2382C18.6613 8.66012 19.9375 10.2123 19.9375 12.0625C19.9375 14.2371 18.1746 16 16 16C13.8254 16 12.0625 14.2371 12.0625 12.0625ZM4.07812 2.59112C4.35812 3.80447 4.75997 4.76112 5.28366 5.46112C5.8074 6.16112 6.4374 6.63553 7.17366 6.88447C7.90997 7.13335 8.76813 7.28112 9.74813 7.32777C10.7281 7.37447 11.8092 7.35631 12.9915 7.27335C13.624 7.24223 14.1063 7.22151 14.4381 7.21112C13.8885 2.63777 10.4352 1.09777 4.07812 2.59112Z" fill="currentColor"/>
</svg>
