<svg viewBox="0 0 32 32" fill="none" xmlns="http://www.w3.org/2000/svg">
<path d="M24.1429 18.0263H7.85714C8.57904 20.0319 9.98059 21.6929 11.7695 22.725L9.07314 28.9048C8.93303 29.287 9.11953 29.714 9.48977 29.8591C9.86037 30.0037 10.2743 29.8109 10.4148 29.4292L13.439 23.4651C13.9619 23.6316 14.506 23.7453 15.066 23.8072L15.264 30.7606C15.264 31.1688 15.5853 31.5 15.9813 31.5C16.3775 31.5 16.6984 31.1688 16.6984 30.7606L16.8967 23.8118C17.4578 23.7524 18.0032 23.6391 18.5275 23.4748L21.5482 29.4292C21.6885 29.8109 22.1025 30.0037 22.4731 29.8591C22.8433 29.7139 23.0298 29.287 22.8895 28.9048L20.1992 22.7425C22.0032 21.7117 23.4166 20.0432 24.1429 18.0263Z" fill="currentColor"/>
<path d="M24.4512 15.5H7.54884C7.24559 15.5 7 15.7846 7 16.1362V16.5475C7 16.899 7.24554 17.1842 7.54884 17.1842H24.4512C24.7542 17.1842 25 16.899 25 16.5475V16.1362C25 15.7846 24.7542 15.5 24.4512 15.5Z" fill="currentColor"/>
<path d="M21 6.88462C21 5.52569 20.5385 4.39692 19.6154 3.5C19.6154 7.90846 15 9.43831 15 12.3846C15 13.3086 15.3074 14.0135 15.9231 14.5C17.5846 10.5028 21 9.81738 21 6.88462Z" fill="currentColor"/>
<path d="M18 3.88462C18 2.52569 17.5385 1.39692 16.6154 0.5C16.6154 4.90846 12 6.43831 12 9.38462C12 10.3086 12.3074 11.0135 12.9231 11.5C14.5846 7.50277 18 6.81738 18 3.88462Z" fill="currentColor"/>
<path d="M23 9.34615C23 8.60492 22.7692 7.98923 22.3077 7.5C22.3077 9.90462 20 10.7391 20 12.3462C20 12.8502 20.1537 13.2346 20.4615 13.5C21.2923 11.3197 23 10.9458 23 9.34615Z" fill="currentColor"/>
</svg>
