<svg viewBox="0 0 32 32" fill="none" xmlns="http://www.w3.org/2000/svg">
<g clip-path="url(#clip0_256_179)">
<path d="M31.4187 2.43875L29.5625 0.585621C28.7812 -0.19563 27.5162 -0.195005 26.735 0.586283L23.845 3.48441C23.6028 3.7266 23.417 4.01603 23.3076 4.34441L22.5457 6.62629L17.7812 11.3938C17.025 10.8438 16.1875 10.4063 15.275 10.1938C13.1875 9.7125 11.0875 10.1438 9.65625 11.5688C9.08125 12.1563 8.64375 12.875 8.39375 13.6625C8.01875 14.8188 6.94375 15.7063 5.75875 15.8125C4.2825 15.9625 2.89937 16.5313 1.845 17.5938C-1.00625 20.4375 -0.491252 25.5625 2.9775 29.0313C6.43812 32.4925 11.565 33.0006 14.4087 30.1563C15.415 29.1013 16.0494 27.7281 16.19 26.2363C16.2994 25.0644 17.18 23.9763 18.3444 23.6013C19.1256 23.3591 19.8462 22.9219 20.4319 22.3356C21.8612 20.9056 22.2912 18.8119 21.7506 16.7256C21.5397 15.8113 21.1012 14.9763 20.5544 14.2188L25.32 9.4525L27.6031 8.69187C27.9234 8.5825 28.2215 8.39719 28.4637 8.155L31.3612 5.26187C32.2 4.4825 32.2 3.22 31.4187 2.43875ZM13 22C11.3437 22 10 20.6563 10 19C10 17.3438 11.3437 16 13 16C14.6562 16 15.9437 17.3438 15.9437 19C16 20.6563 14.6562 22 13 22Z" fill="currentColor"/>
</g>
<defs>
<clipPath id="clip0_256_179">
<rect width="32" height="32" fill="white"/>
</clipPath>
</defs>
</svg>
