<svg viewBox="0 0 32 32" fill="none" xmlns="http://www.w3.org/2000/svg">
<path d="M16 2.66675C18.4753 2.66675 20.8493 3.65008 22.5996 5.40042C24.35 7.15076 25.3333 9.52473 25.3333 12.0001H26.7653C27.1012 12.0001 27.4246 12.1268 27.6711 12.355C27.9175 12.5831 28.0688 12.8959 28.0946 13.2307L29.2226 27.8974C29.2499 28.25 29.1359 28.5989 28.9059 28.8675C28.6758 29.136 28.3485 29.3022 27.996 29.3294L27.8933 29.3334H4.10665C3.75303 29.3334 3.41389 29.1929 3.16384 28.9429C2.91379 28.6928 2.77332 28.3537 2.77332 28.0001L2.77732 27.8974L3.90532 13.2307C3.93118 12.8959 4.08244 12.5831 4.32889 12.355C4.57534 12.1268 4.89881 12.0001 5.23465 12.0001H6.66665C6.66665 9.52473 7.64998 7.15076 9.40032 5.40042C11.1507 3.65008 13.5246 2.66675 16 2.66675V2.66675ZM18.6666 17.3334H13.3333V20.0001H18.6666V17.3334ZM16 5.33341C14.282 5.33351 12.6304 5.9968 11.3896 7.18496C10.1488 8.37312 9.41454 9.99442 9.33998 11.7107L9.33332 12.0001H22.6666C22.6666 10.2821 22.0033 8.63053 20.8151 7.38971C19.6269 6.14889 18.0056 5.41464 16.2893 5.34008L16 5.33341Z" fill="currentColor"/>
</svg>
