<svg viewBox="0 0 32 32" fill="none" xmlns="http://www.w3.org/2000/svg">
<path d="M5.6 16.6316H9.5C10.1896 16.6316 10.8509 16.8977 11.3385 17.3715C11.8261 17.8453 12.1 18.4879 12.1 19.1579V25.4737C12.1 26.1437 11.8261 26.7863 11.3385 27.2601C10.8509 27.7338 10.1896 28 9.5 28H5.6C4.91044 28 4.24912 27.7338 3.76152 27.2601C3.27393 26.7863 3 26.1437 3 25.4737V16.6316C3 9.65516 8.8201 4 16 4C23.1799 4 29 9.65516 29 16.6316V25.4737C29 26.1437 28.7261 26.7863 28.2385 27.2601C27.7509 27.7338 27.0896 28 26.4 28H22.5C21.8104 28 21.1491 27.7338 20.6615 27.2601C20.1739 26.7863 19.9 26.1437 19.9 25.4737V19.1579C19.9 18.4879 20.1739 17.8453 20.6615 17.3715C21.1491 16.8977 21.8104 16.6316 22.5 16.6316H26.4C26.4 13.9515 25.3043 11.3812 23.3539 9.48608C21.4035 7.59097 18.7583 6.52632 16 6.52632C13.2417 6.52632 10.5965 7.59097 8.64609 9.48608C6.69571 11.3812 5.6 13.9515 5.6 16.6316V16.6316Z" fill="currentColor"/>
</svg>
