<svg viewBox="0 0 32 32" fill="none" xmlns="http://www.w3.org/2000/svg">
<g clip-path="url(#clip0_102_72)">
<path d="M29.688 10.625C29.688 9.66632 29.563 8.81199 29.313 8.06199C29.021 7.31199 28.7083 6.72865 28.375 6.31199C28.0417 5.97865 27.5417 5.62432 26.875 5.24899C26.2917 4.99899 25.729 4.81132 25.187 4.68599C24.5203 4.60265 23.937 4.56099 23.437 4.56099C22.9783 4.56099 22.3117 4.70699 21.437 4.99899C20.6037 5.37432 19.9577 5.77032 19.499 6.18699C19.1237 6.43699 18.6027 6.85365 17.936 7.43699C17.7693 7.60365 17.5713 7.81199 17.342 8.06199C17.1127 8.31199 16.9563 8.47866 16.873 8.56199C16.7063 8.81199 16.4147 8.93699 15.998 8.93699C15.5813 8.93699 15.2897 8.81199 15.123 8.56199C15.0397 8.47866 14.8833 8.31199 14.654 8.06199C14.4247 7.81199 14.2267 7.60365 14.06 7.43699C13.3933 6.85365 12.8723 6.43699 12.497 6.18699C12.0383 5.77032 11.3923 5.37432 10.559 4.99899C9.68368 4.70699 9.01701 4.56099 8.55901 4.56099C8.05901 4.56099 7.47568 4.60265 6.80901 4.68599C6.26701 4.81132 5.70434 4.99899 5.12101 5.24899C4.45434 5.62432 3.95434 5.97865 3.62101 6.31199C3.28768 6.72865 2.97501 7.31199 2.68301 8.06199C2.43301 8.81199 2.30801 9.66632 2.30801 10.625C2.30801 12.667 3.41234 14.792 5.62101 17L15.996 27L26.371 17C28.5797 14.7913 29.684 12.6663 29.684 10.625H29.688ZM32 10.625C32 13.2083 30.6457 15.896 27.937 18.688L16.812 29.376C16.6033 29.5847 16.3323 29.689 15.999 29.689C15.6657 29.689 15.3947 29.5847 15.186 29.376L4.06101 18.626C4.01901 18.626 3.94601 18.574 3.84201 18.47L3.56101 18.189C3.35234 17.939 3.01901 17.543 2.56101 17.001C2.14434 16.501 1.74834 15.9177 1.37301 15.251C1.03968 14.709 0.727009 14.0007 0.435009 13.126C0.143009 12.2927 -0.00299072 11.4593 -0.00299072 10.626C-0.00299072 8.04266 0.747009 6.00099 2.24701 4.50099C3.70568 3.04232 5.81001 2.31299 8.56001 2.31299C9.26868 2.31299 10.0187 2.43799 10.81 2.68799C11.6013 2.93799 12.3097 3.27132 12.935 3.68799C13.5183 4.06332 14.081 4.47999 14.623 4.93799C15.123 5.31332 15.5813 5.70932 15.998 6.12599C16.4147 5.70932 16.873 5.31332 17.373 4.93799C17.915 4.47932 18.4777 4.06265 19.061 3.68799C19.6863 3.27132 20.3947 2.93799 21.186 2.68799C21.9773 2.43799 22.7273 2.31299 23.436 2.31299C26.186 2.31299 28.2903 3.04232 29.749 4.50099C31.249 6.00099 31.999 8.04266 31.999 10.626L32 10.625Z" fill="currentColor"/>
</g>
<defs>
<clipPath id="clip0_102_72">
<rect width="32" height="32" fill="white"/>
</clipPath>
</defs>
</svg>
