<svg viewBox="0 0 32 32" fill="none" xmlns="http://www.w3.org/2000/svg">
<path d="M19.5221 15.8192L16.7969 21.3716C16.4682 22.0412 15.5166 22.02 15.2152 21.3367L12.1006 14.2846L10.4571 18.2885L5.0919 18.2857L14.7394 28.453C15.4318 29.1823 16.5639 29.1823 17.2568 28.453L26.9043 18.2857L20.7735 18.286L19.5221 15.8192ZM27.332 5.72219C24.359 3.10056 19.812 3.57377 17.0774 6.45098L16 7.58545L14.9226 6.45098C12.1881 3.57377 7.64324 3.10056 4.6686 5.72219C1.52714 8.49225 1.17001 13.2411 3.54032 16.5H9.28288L11.2479 11.687C11.5492 10.9682 12.5419 10.9548 12.8635 11.666L16.0471 18.887L18.7308 13.4183C19.0526 12.7626 19.9766 12.7626 20.2987 13.4183L21.812 16.5014H28.457C30.8322 13.2411 30.4713 8.49225 27.332 5.72219Z" fill="currentColor"/>
</svg>
