<svg viewBox="0 0 32 32" fill="none" xmlns="http://www.w3.org/2000/svg">
<g clip-path="url(#clip0_102_70)">
<path d="M16 29.688C15.6667 29.688 15.3957 29.5837 15.187 29.375L4.06199 18.625C4.01999 18.625 3.94699 18.573 3.84299 18.469L3.56199 18.188C3.35332 17.938 3.01999 17.542 2.56199 17C2.14532 16.5 1.74932 15.9167 1.37399 15.25C1.04065 14.708 0.727986 13.9997 0.435986 13.125C0.143986 12.2917 -0.00201416 11.4583 -0.00201416 10.625C-0.00201416 8.04168 0.747986 6.00001 2.24799 4.50001C3.70665 3.04135 5.81099 2.31201 8.56099 2.31201C9.26965 2.31201 10.0197 2.43701 10.811 2.68701C11.6023 2.93701 12.3107 3.27035 12.936 3.68701C13.5193 4.06235 14.082 4.47901 14.624 4.93701C15.124 5.31234 15.5823 5.70835 15.999 6.12501C16.4157 5.70835 16.874 5.31234 17.374 4.93701C17.916 4.47834 18.4787 4.06168 19.062 3.68701C19.6873 3.27035 20.3957 2.93701 21.187 2.68701C21.9783 2.43701 22.7283 2.31201 23.437 2.31201C26.187 2.31201 28.2913 3.04135 29.75 4.50001C31.25 6.00001 32 8.04168 32 10.625C32 13.2083 30.6457 15.896 27.937 18.688L16.812 29.376C16.6033 29.5847 16.3323 29.689 15.999 29.689L16 29.688Z" fill="currentColor"/>
</g>
<defs>
<clipPath id="clip0_102_70">
<rect width="32" height="32" fill="white"/>
</clipPath>
</defs>
</svg>
