<svg viewBox="0 0 32 32" fill="none" xmlns="http://www.w3.org/2000/svg">
<path d="M16 2C12.1247 2 8.82267 3.36467 6.094 6.094C3.36533 8.82333 2.00067 12.1253 2 16C1.99933 19.8747 3.364 23.1767 6.094 25.906C8.824 28.6353 12.126 30 16 30C19.874 30 23.176 28.6353 25.906 25.906C28.636 23.1767 30.0007 19.8747 30 16C29.9993 12.1253 28.6347 8.82333 25.906 6.094C23.1773 3.36467 19.8753 2 16 2ZM27.125 11.563L23.312 12.688C22.9787 11.938 22.437 11.1463 21.687 10.313C20.8537 9.563 20.062 9.02133 19.312 8.688L20.437 4.875C21.8537 5.417 23.208 6.292 24.5 7.5C25.7087 8.792 26.5837 10.1463 27.125 11.563ZM16 22C14.3333 22 12.9167 21.4167 11.75 20.25C10.5833 19.0833 10 17.6667 10 16C10 14.3333 10.5833 12.9167 11.75 11.75C12.9167 10.5833 14.3333 10 16 10C17.6667 10 19.0833 10.5833 20.25 11.75C21.4167 12.9167 22 14.3333 22 16C22 17.6667 21.4167 19.0833 20.25 20.25C19.0833 21.4167 17.6667 22 16 22ZM7.5 7.5C8.792 6.29133 10.1463 5.41633 11.563 4.875L12.688 8.688C11.7713 9.14667 10.9797 9.70933 10.313 10.376C9.60433 11.0847 9.06267 11.8763 8.688 12.751L4.875 11.563C5.417 10.1463 6.292 8.792 7.5 7.5ZM4.875 20.5L8.688 19.312C9.14667 20.2287 9.70933 21.0203 10.376 21.687C11.0847 22.3957 11.8763 22.9373 12.751 23.312L11.563 27.125C10.021 26.5417 8.66667 25.6667 7.5 24.5C6.29133 23.25 5.41633 21.9167 4.875 20.5ZM24.5 24.5C23.3333 25.6667 22 26.5417 20.5 27.125L19.312 23.312C20.062 22.9787 20.8537 22.437 21.687 21.687C22.437 20.8537 22.9787 20.062 23.312 19.312L27.125 20.437C26.583 21.8537 25.708 23.208 24.5 24.5Z" fill="currentColor"/>
</svg>
