<svg viewBox="0 0 32 32" fill="none" xmlns="http://www.w3.org/2000/svg">
<g clip-path="url(#clip0_103_300)">
<path d="M30.438 24.875C30.8967 24.875 31.2717 25.021 31.563 25.313C31.8543 25.605 32.0003 25.98 32.001 26.438V28.563C32.001 29.0217 31.855 29.3967 31.563 29.688C31.271 29.9793 30.896 30.1253 30.438 30.126H17.375C16.9583 30.126 16.604 29.9697 16.312 29.657C16.02 29.3443 15.874 28.9797 15.874 28.563V26.438C15.874 26.0213 16.02 25.6567 16.312 25.344C16.604 25.0313 16.9583 24.875 17.375 24.875H30.438ZM3.563 9.938C3.855 9.938 4.11533 10.0423 4.344 10.251C4.57267 10.4597 4.68733 10.7097 4.688 11.001V14.939H12.876C13.626 14.939 14.001 15.2933 14.001 16.002C14.001 16.7107 13.626 17.065 12.876 17.065H4.688V27.94H12.876C13.2093 27.94 13.4803 28.0547 13.689 28.284C13.8977 28.5133 14.002 28.7737 14.002 29.065C14.002 29.3563 13.8873 29.6063 13.658 29.815C13.4287 30.0237 13.1683 30.128 12.877 30.128H3.564C3.272 30.128 3.022 30.0237 2.814 29.815C2.606 29.6063 2.50167 29.3563 2.501 29.065V11.002C2.501 10.71 2.60533 10.46 2.814 10.252C3.02267 10.044 3.27267 9.93967 3.564 9.939L3.563 9.938ZM30.438 14C30.8967 14 31.2717 14.146 31.563 14.438C31.8543 14.73 32.0003 15.105 32.001 15.563V18.001C32.001 18.4177 31.855 18.7823 31.563 19.095C31.271 19.4077 30.896 19.564 30.438 19.564H17.375C16.9583 19.564 16.604 19.4077 16.312 19.095C16.02 18.7823 15.874 18.4177 15.874 18.001V15.563C15.874 15.1463 16.02 14.7817 16.312 14.469C16.604 14.1563 16.9583 14 17.375 14H30.438ZM30.438 1.875C30.8967 1.875 31.2717 2.021 31.563 2.313C31.8543 2.605 32.0003 2.98 32.001 3.438V6.501C32.001 6.91767 31.855 7.28233 31.563 7.595C31.271 7.90767 30.896 8.064 30.438 8.064H1.563C1.10433 8.064 0.729333 7.90767 0.438 7.595C0.146667 7.28233 0.000666667 6.91767 0 6.501V3.438C0 2.97933 0.146 2.60433 0.438 2.313C0.73 2.02167 1.105 1.87567 1.563 1.875H30.438Z" fill="currentColor"/>
</g>
<defs>
<clipPath id="clip0_103_300">
<rect width="32" height="32" fill="white"/>
</clipPath>
</defs>
</svg>
