<svg viewBox="0 0 32 32" fill="none" xmlns="http://www.w3.org/2000/svg">
<path d="M26.313 17.688V26.313C26.313 26.605 26.188 26.855 25.938 27.063C25.7293 27.313 25.4583 27.438 25.125 27.438H18.312V20.563H13.687V27.438H6.87399C6.49865 27.438 6.22765 27.313 6.06099 27.063C5.81099 26.8544 5.68599 26.6044 5.68599 26.313V17.688H5.74899V17.625L15.999 9.12502L26.249 17.625L26.313 17.688ZM30.25 16.5L29.187 17.813C29.0617 17.9384 28.9367 18.001 28.812 18.001H28.749C28.5823 18.001 28.4573 17.9594 28.374 17.876L15.999 7.56302L3.62399 17.876C3.54065 17.9594 3.39465 18.001 3.18599 18.001C3.06065 18.001 2.93565 17.9384 2.81099 17.813L1.74799 16.5C1.66465 16.4167 1.62299 16.2707 1.62299 16.062C1.62299 15.8534 1.68565 15.7284 1.81099 15.687L14.624 4.99902C15.0407 4.66569 15.499 4.49902 15.999 4.49902C16.499 4.49902 16.9573 4.66569 17.374 4.99902L21.687 8.62402V5.12402C21.687 4.95736 21.7497 4.83236 21.875 4.74902C22.0003 4.62369 22.1463 4.56102 22.313 4.56102H25.688C25.8547 4.56102 26.0007 4.62369 26.126 4.74902C26.2513 4.83236 26.314 4.95736 26.314 5.12402V12.437L30.189 15.687C30.3143 15.729 30.377 15.854 30.377 16.062C30.377 16.27 30.3353 16.416 30.252 16.5H30.25Z" fill="currentColor"/>
</svg>
