<svg viewBox="0 0 32 32" fill="none" xmlns="http://www.w3.org/2000/svg">
<path d="M28 26.667C27.9999 27.0205 27.8593 27.3594 27.6094 27.6094C27.3594 27.8593 27.0205 27.9999 26.667 28H18V20H14V28H5.33301C4.9795 27.9999 4.6406 27.8593 4.39063 27.6094C4.14066 27.3594 4.00005 27.0205 4 26.667V12.6533C3.99988 12.4502 4.04657 12.2499 4.13574 12.0674C4.2249 11.8849 4.35439 11.7253 4.51465 11.6006L15.1816 3.30371C15.4156 3.12183 15.7036 3.02344 16 3.02344C16.2964 3.02344 16.5844 3.12183 16.8184 3.30371L27.4854 11.6006C27.6456 11.7253 27.7751 11.8849 27.8643 12.0674C27.9534 12.2499 28.0001 12.4502 28 12.6533V26.667ZM20.5 25.5H25.5V13.2236L16 5.83398L6.5 13.2236V25.5H11.5V17.5H20.5V25.5Z" fill="currentColor"/>
</svg>
