<svg viewBox="0 0 32 32" fill="none" xmlns="http://www.w3.org/2000/svg">
<path d="M24 8.39807C24 9.20006 23.5525 10.0933 22.6574 11.0779C21.4264 12.354 20.4941 13.2838 19.8604 13.867C18.9277 14.7419 18.4614 15.4529 18.4614 16C18.4614 16.5471 18.9277 17.2581 19.8604 18.133C20.793 19.0079 21.7254 19.9192 22.6574 20.867C23.5525 21.7787 24 22.6719 24 23.5468V26.8828C24 27.5389 23.1795 28.2135 21.5386 28.9064C19.8601 29.6355 18.0139 30 16 30C13.9861 30 12.1399 29.6355 10.4614 28.9064C8.82047 28.2135 8 27.5389 8 26.8828V23.5468C8 22.6719 8.44753 21.7787 9.34258 20.867C10.2752 19.9192 11.2076 19.0079 12.1396 18.133C13.0717 17.2581 13.538 16.5471 13.5386 16C13.5392 15.4529 13.0729 14.7419 12.1396 13.867C11.5053 13.2838 10.573 12.354 9.34258 11.0779C8.44753 10.0933 8 9.20006 8 8.39807V5.06212C8 4.44211 8.82047 3.78594 10.4614 3.09361C12.1769 2.36454 14.0231 2 16 2C17.9769 2 19.8231 2.36454 21.5386 3.09361C23.1795 3.78653 24 4.44269 24 5.06212V8.39807ZM10.2385 5.2266L9.67912 5.66404C9.60453 5.77369 9.64183 5.90143 9.791 6.04724C11.6187 6.99504 13.6887 7.46894 16.0009 7.46894C18.5745 7.46894 20.6817 7.01312 22.3227 6.10149C22.5464 5.88276 22.3785 5.59113 21.8188 5.2266C20.0286 4.24205 18.1079 3.74978 16.0564 3.74978C13.7442 3.74978 11.8049 4.24205 10.2385 5.2266ZM16.7277 15.9982C16.7277 15.7428 16.765 15.4328 16.8396 15.0682C16.9887 14.7037 17.1752 14.3937 17.399 14.1382C17.4736 14.0286 17.5762 13.8918 17.7069 13.7279C17.8375 13.564 17.9214 13.4637 17.9584 13.4269C18.2197 13.1715 18.5181 12.8979 18.8534 12.6063L19.693 11.7857C21.4461 10.072 22.3227 8.94196 22.3227 8.39545L22.3791 6.97375C20.5144 7.99446 18.3886 8.50481 16.0018 8.50481C13.615 8.50481 11.4892 7.99446 9.62452 6.97375L9.73641 8.39545C9.73641 8.9058 10.5942 10.0359 12.3097 11.7857C12.3843 11.8224 12.4869 11.9137 12.6176 12.0595C12.7483 12.2053 12.8694 12.3147 12.981 12.3876C13.3169 12.716 13.5407 12.9166 13.6523 12.9895L14.1562 13.5363C14.2684 13.6821 14.4363 13.8828 14.6601 14.1382C14.996 14.5028 15.1079 14.685 14.9957 14.685C14.8836 14.685 14.9674 14.9038 15.2473 15.3412C15.5271 15.7787 15.5552 15.9974 15.3314 15.9974C15.3314 16.2528 15.3126 16.4351 15.275 16.5442C15.275 16.69 15.2189 16.8542 15.1067 17.0367C15.0691 17.0735 15.0411 17.119 15.0226 17.1732C15.0041 17.2275 14.9761 17.2823 14.9385 17.3377C14.9009 17.3931 14.8821 17.4386 14.8821 17.4742C14.8445 17.5471 14.7326 17.7113 14.5464 17.9668L14.2108 18.4042C14.1362 18.4771 14.0055 18.6229 13.8188 18.8416L13.3148 19.2248L12.8109 19.7174L12.307 20.1549C10.5915 21.8317 9.73372 22.9618 9.73372 23.5451V25.4042C9.77131 25.4042 9.8647 25.3768 10.0139 25.322C10.163 25.2671 10.3961 25.1852 10.7129 25.0761C11.0298 24.967 11.3374 24.8577 11.6357 24.748C12.7175 24.4197 13.5941 24.0187 14.2654 23.5451C14.9367 23.1076 15.2723 22.5789 15.2723 21.9589C15.2723 21.3756 15.5149 21.084 16 21.084C16.4851 21.084 16.7277 21.3756 16.7277 21.9589C16.7277 22.5789 17.0448 23.1076 17.6791 23.5451C18.3504 24.0192 19.2455 24.4202 20.3643 24.748C21.5953 25.1493 22.2481 25.368 22.3227 25.4042V23.5451C22.3227 22.998 21.4461 21.8679 19.693 20.1549C19.5062 19.9723 19.301 19.79 19.0772 19.608L17.902 18.4593C17.8274 18.3864 17.734 18.2861 17.6218 18.1584C17.5097 18.0306 17.4351 17.9303 17.3981 17.8574C17.2489 17.6387 17.137 17.4564 17.0624 17.3106C17.0248 17.2377 16.9783 17.1283 16.9228 16.9825C16.8673 16.8367 16.8208 16.7273 16.7832 16.6544C16.7832 16.5815 16.7739 16.4721 16.7554 16.3263C16.7369 16.1805 16.7277 16.0712 16.7277 15.9982Z" fill="currentColor"/>
</svg>
