<svg viewBox="0 0 32 32" fill="none" xmlns="http://www.w3.org/2000/svg">
<path d="M9.00329 18.7664H22.9945L17.5641 30.0047C17.4273 30.3 17.2031 30.5516 16.8805 30.732C16.6508 30.907 16.3281 31 16 31C15.6227 31 15.3492 30.907 15.0703 30.732C14.7477 30.5516 14.5727 30.3 14.4359 30.0047L9.00329 18.7664ZM24.8758 11.9688C25.193 12.1 25.4828 12.2914 25.7289 12.5375C25.9695 12.7781 26.1664 13.068 26.2977 13.3852C26.4289 13.7023 26.4508 13.9977 26.5 14.3914C26.5 14.7305 26.4344 15.075 26.3031 15.3922C26.1227 15.7094 25.9805 15.9992 25.7344 16.2453C25.4938 16.4859 25.2039 16.6828 24.8867 16.8141C24.5695 16.9453 24.225 17.0164 23.8805 17.0164H8.11844C7.42282 17.0164 6.75563 16.7375 6.26454 16.2453C5.77344 15.7531 5.49837 15.0367 5.50001 14.3914C5.50165 13.6914 5.77891 13.0297 6.27219 12.5375C6.76548 12.0453 7.43321 11.7719 8.12883 11.7719H8.18298C8.14688 11.4711 8.12829 11.1703 8.12719 10.8641C8.12719 8.78047 8.95626 6.77945 10.4328 5.30398C11.9094 3.82852 13.9109 3 15.9508 3C18.0836 3 20.0852 3.82852 21.5617 5.30398C23.0383 6.77945 23.8695 8.78047 23.8695 10.8641C23.8695 11.1703 23.8531 11.4711 23.8148 11.7719H23.8695C24.2141 11.7719 24.5586 11.8375 24.8758 11.9688Z" fill="currentColor"/>
</svg>
