<svg viewBox="0 0 32 32" fill="none" xmlns="http://www.w3.org/2000/svg">
<path d="M28.6251 8.74999L23.4371 8.49999L23.1241 5.12499C23.0821 4.79165 22.9257 4.51032 22.6551 4.28099C22.3844 4.05165 22.0614 3.95799 21.6861 3.99999L3.18605 5.49999C2.85272 5.54199 2.56105 5.69832 2.31105 5.96899C2.06105 6.23965 1.95672 6.54165 1.99805 6.87499L3.31105 21.625C3.35305 21.9583 3.50939 22.2397 3.78005 22.469C4.05072 22.6983 4.37372 22.792 4.74905 22.75L5.68705 22.687L5.56205 25.562C5.52005 25.9373 5.63472 26.2707 5.90605 26.562C6.17739 26.8533 6.52105 26.9993 6.93705 27L27.5621 28C27.9787 28.042 28.3331 27.9273 28.6251 27.656C28.9171 27.3847 29.0837 27.0617 29.1251 26.687L30.0001 10.249C30.0421 9.83232 29.9274 9.48865 29.6561 9.21799C29.3847 8.94732 29.0411 8.79099 28.6251 8.74899V8.74999ZM6.43805 9.12499L6.00005 17.5L4.87505 19.063L3.87505 7.93799V7.87499C3.95839 7.49965 4.16672 7.31199 4.50005 7.31199L20.8131 5.93699C21.1464 5.93699 21.3547 6.10365 21.4381 6.43699V6.49999H21.5011L21.6261 8.43799L7.93805 7.74999C7.52139 7.74999 7.16705 7.87499 6.87505 8.12499C6.58305 8.37499 6.43705 8.70832 6.43705 9.12499H6.43805ZM27.3131 23.875L24.3751 20.437L22.6871 18.374C22.3951 18.1653 22.1657 18.061 21.9991 18.061C21.7071 18.061 21.4777 18.1443 21.3111 18.311L20.2481 19.061C20.0814 19.1863 19.8937 19.249 19.6851 19.249C19.4351 19.249 19.2267 19.1657 19.0601 18.999L18.8721 18.811L16.1841 15.748C16.0174 15.5393 15.7257 15.3933 15.3091 15.31C14.9757 15.31 14.6841 15.435 14.4341 15.685L8.05905 22.498L7.68405 22.936V22.498L8.12205 14.498L8.31005 10.56V10.497C8.39339 10.0383 8.64339 9.85065 9.06005 9.93399L21.8101 10.497L23.6231 10.622L27.2481 10.81C27.6234 10.81 27.8527 11.0183 27.9361 11.435V11.498L27.3131 23.875ZM23.3131 16.375C23.9384 16.375 24.4594 16.1667 24.8761 15.75C25.2927 15.3333 25.5011 14.8123 25.5011 14.187C25.5011 13.6037 25.2927 13.0933 24.8761 12.656C24.4594 12.2187 23.9384 12 23.3131 12C22.7297 12 22.2194 12.2187 21.7821 12.656C21.3447 13.0933 21.1261 13.6037 21.1261 14.187C21.1261 14.8123 21.3447 15.3333 21.7821 15.75C22.2194 16.1667 22.7297 16.375 23.3131 16.375Z" fill="currentColor"/>
</svg>
