<svg viewBox="0 0 32 32" fill="none" xmlns="http://www.w3.org/2000/svg">
<path d="M23 14C23.8333 14 24.5417 13.7083 25.125 13.125C25.7083 12.5417 26 11.8333 26 11C26 10.1667 25.7083 9.45833 25.125 8.875C24.5417 8.29167 23.8333 8 23 8C22.1667 8 21.4583 8.29167 20.875 8.875C20.2917 9.45833 20 10.1667 20 11C20 11.8333 20.2917 12.5417 20.875 13.125C21.4583 13.7083 22.1667 14 23 14ZM28.25 4H3.75C3.25 4 2.83333 4.177 2.5 4.531C2.16667 4.885 2 5.29133 2 5.75V26.25C2 26.7087 2.16667 27.115 2.5 27.469C2.83333 27.823 3.25 28 3.75 28H28.25C28.75 28 29.1667 27.823 29.5 27.469C29.8333 27.115 30 26.7087 30 26.25V5.75C30 5.29133 29.8333 4.885 29.5 4.531C29.1667 4.177 28.75 4 28.25 4ZM21.813 16.375C21.6043 16.125 21.3333 16 21 16C20.75 16 20.479 16.1043 20.187 16.313L19.062 17.313C18.77 17.5217 18.52 17.626 18.312 17.626C18.104 17.626 17.8747 17.5427 17.624 17.376L17.374 17.126L13.999 13.438C13.707 13.146 13.3527 13 12.936 13C12.4773 13 12.144 13.1667 11.936 13.5L3.998 23V6.75C4.08133 6.25 4.35233 6 4.811 6H27.186C27.6447 6 27.9157 6.25 27.999 6.75V23L21.813 16.375Z" fill="currentColor"/>
</svg>
