<svg viewBox="0 0 32 32" fill="none" xmlns="http://www.w3.org/2000/svg">
<path fill-rule="evenodd" clip-rule="evenodd" d="M16 2C18.6421 2 20.9857 2.61838 23.0312 3.85449C25.1621 5.13298 26.867 6.83793 28.1455 8.96875C29.3816 11.0143 30 13.3579 30 16C30 18.6421 29.3816 20.9857 28.1455 23.0312C26.867 25.1621 25.1621 26.867 23.0312 28.1455C20.9857 29.3816 18.6421 30 16 30C13.3579 30 11.0143 29.3816 8.96875 28.1455C6.83793 26.867 5.13298 25.1621 3.85449 23.0312C2.61838 20.9857 2 18.6421 2 16C2 13.3579 2.61838 11.0143 3.85449 8.96875C5.13298 6.83793 6.83793 5.13298 8.96875 3.85449C11.0143 2.61838 13.3579 2 16 2ZM13 13.9229H14.5V24.3076H13V25H19V24.3076H17.5V13.2305H13V13.9229ZM15.75 7C14.7835 7 14 7.7835 14 8.75C14 9.7165 14.7835 10.5 15.75 10.5C16.7165 10.5 17.5 9.7165 17.5 8.75C17.5 7.7835 16.7165 7 15.75 7Z" fill="currentColor"/>
</svg>
