<svg viewBox="0 0 32 32" fill="none" xmlns="http://www.w3.org/2000/svg">
<path d="M18 28V12H12V13H14V28H12V29H20V28H18ZM16 9.06298C16.8333 9.06298 17.5417 8.76098 18.125 8.15698C18.7083 7.55298 19 6.83431 19 6.00098C19 5.16764 18.7083 4.45931 18.125 3.87598C17.5417 3.29264 16.8333 3.00098 16 3.00098C15.1667 3.00098 14.4583 3.29264 13.875 3.87598C13.2917 4.45931 13 5.16764 13 6.00098C13 6.83431 13.2917 7.55298 13.875 8.15698C14.4583 8.76098 15.1667 9.06298 16 9.06298Z" fill="currentColor"/>
</svg>
