<svg viewBox="0 0 32 32" fill="none" xmlns="http://www.w3.org/2000/svg">
<path d="M16 2C12.1413 2 8.84332 3.36866 6.10599 6.10599C3.36866 8.84332 2 12.1413 2 16C2 19.8587 3.36866 23.1567 6.10599 25.894C8.84332 28.6313 12.1413 30 16 30C19.8587 30 23.1567 28.6313 25.894 25.894C28.6313 23.1567 30 19.8587 30 16C30 12.1413 28.6313 8.84332 25.894 6.10599C23.1567 3.36866 19.8587 2 16 2ZM16 28.8542C12.455 28.8542 9.42625 27.5979 6.91362 25.0853C4.40099 22.5727 3.14468 19.5439 3.14468 15.9989C3.14468 12.454 4.40099 9.42517 6.91362 6.91255C9.42625 4.39992 12.455 3.1436 16 3.1436C19.545 3.1436 22.5738 4.39992 25.0864 6.91255C27.599 9.42517 28.8553 12.454 28.8553 15.9989C28.8553 19.5439 27.599 22.5727 25.0864 25.0853C22.5738 27.5979 19.545 28.8542 16 28.8542Z" fill="currentColor"/>
<path d="M15.72 12.32C15.3467 12.32 15.0333 12.2 14.78 11.96C14.5267 11.72 14.4 11.42 14.4 11.06C14.4 10.7 14.5267 10.4067 14.78 10.18C15.0333 9.94 15.3467 9.82 15.72 9.82C16.08 9.82 16.3867 9.94 16.64 10.18C16.8933 10.4067 17.02 10.7 17.02 11.06C17.02 11.42 16.8933 11.72 16.64 11.96C16.3867 12.2 16.08 12.32 15.72 12.32ZM14.84 15.1C14.84 14.66 14.98 14.34 15.26 14.14C15.5533 13.9267 15.9933 13.82 16.58 13.82V22.9C16.58 23.34 16.4333 23.6667 16.14 23.88C15.86 24.08 15.4267 24.18 14.84 24.18V15.1Z" fill="currentColor"/>
</svg>
