<svg viewBox="0 0 32 32" fill="none" xmlns="http://www.w3.org/2000/svg">
<path d="M21.7084 24.1245C22.5589 26.097 26.3093 29.0705 27.4061 29.9114C27.5802 30.0447 27.8228 30.025 27.9777 29.8696L29.8705 27.972C30.0275 27.8144 30.0445 27.5662 29.9066 27.3915C29.0555 26.3136 26.1125 22.698 24.1452 21.6814C23.3655 21.2785 22.7219 21.161 22.2488 21.2699L10.6447 9.63551C10.6967 9.16271 10.5882 8.56272 10.2918 7.87531C9.44139 5.90291 5.69139 2.92979 4.59441 2.08878C4.42033 1.95532 4.17747 1.9749 4.02247 2.1302L2.12976 4.02785C1.97264 4.1854 1.95543 4.43396 2.09334 4.60865C2.94433 5.68654 5.88768 9.30186 7.85502 10.3185C8.6345 10.7213 9.27778 10.8386 9.75079 10.7299L21.3552 22.3646C21.3033 22.8374 21.4121 23.4373 21.7084 24.1245Z" fill="currentColor"/>
<path d="M12.2815 14.1348C11.792 15.5082 12.1315 17.148 13.2795 18.299C14.4274 19.4498 16.0623 19.7893 17.4319 19.2987L19.511 21.3832C15.1306 25.0114 7.62831 27.2342 4.58898 28.0253C3.96362 28.1881 3.41619 27.6392 3.57846 27.0122C4.36753 23.9649 6.58406 16.4427 10.2029 12.0508L12.2815 14.1348Z" fill="currentColor"/>
<path d="M26.9837 3.54546C27.609 3.38271 28.1565 3.93164 27.9942 4.55862C27.2094 7.58947 25.0125 15.0482 21.4277 19.4497L19.4569 17.4737C20.1463 16.0374 19.8545 14.2089 18.6065 12.9577C17.3585 11.7066 15.5347 11.4134 14.1022 12.1046L12.1313 10.1291C16.5214 6.53497 23.9606 4.33235 26.9837 3.54546Z" fill="currentColor"/>
</svg>
