<svg viewBox="0 0 32 32" fill="none" xmlns="http://www.w3.org/2000/svg">
<path d="M27.8305 8.48716C28.2147 10.6438 27.9458 12.6889 27.0237 14.6224C26.1017 16.5191 24.6225 17.6346 22.5861 17.9689C21.3948 18.192 20.127 18.2108 18.7827 18.0252L15.2671 23.5473L13.1925 23.882L10.1379 28.6233C9.86866 29.1439 9.4267 29.4601 8.81202 29.5719L6.56414 29.9628C6.29491 30.0372 6.06441 30 5.87263 29.8513C5.71896 29.7025 5.6037 29.4979 5.52687 29.2373L5.06586 26.3923C4.91219 25.8343 5.02744 25.3137 5.41162 24.8306L13.0183 13.7871C12.5954 12.8947 12.2303 11.7605 11.9229 10.3844C11.5769 8.3765 12.0956 6.5917 13.4793 5.02999C14.8242 3.50517 16.6492 2.53841 18.9542 2.12969C20.9907 1.75785 22.9115 2.18561 24.7169 3.41296C26.4459 4.64031 27.4832 6.3323 27.8287 8.48894L27.8305 8.48716ZM24.1424 10.6628C24.719 9.80732 24.9305 8.87773 24.7768 7.87408C24.5844 6.86983 24.0656 6.08898 23.2204 5.53152C22.4133 4.89911 21.5104 4.67601 20.5115 4.86222C19.5508 5.08532 18.7631 5.60589 18.1484 6.42392L17.8026 7.09323C17.7639 7.31633 17.7639 7.50224 17.8026 7.65098C17.8795 7.87408 17.9179 8.02281 17.9179 8.09718C17.9566 8.20903 18.0912 8.3765 18.3217 8.5996C18.4754 8.71145 18.6484 8.86018 18.8408 9.0458C18.9177 9.08328 19.1291 9.23202 19.4752 9.492C19.552 9.52948 19.6482 9.58541 19.7638 9.65977L20.0229 9.82755C20.0229 9.82755 20.0708 9.86473 20.1667 9.9391C20.2626 10.0135 20.474 10.1809 20.801 10.4415C20.8779 10.479 20.9741 10.5349 21.0896 10.6093C21.2052 10.6837 21.2916 10.7488 21.3487 10.8047C21.4059 10.8607 21.4538 10.8886 21.4926 10.8886C21.6462 10.9261 21.8383 11.0376 22.0688 11.2233C22.2612 11.372 22.4533 11.4464 22.6451 11.4464H23.1061C23.3753 11.372 23.5674 11.2789 23.6823 11.167C23.8747 10.9808 24.0284 10.8134 24.1434 10.6646L24.1424 10.6628Z" fill="currentColor"/>
</svg>
