<svg viewBox="0 0 32 32" fill="none" xmlns="http://www.w3.org/2000/svg">
<path fill-rule="evenodd" clip-rule="evenodd" d="M25.3602 2C24.8567 5.65358 21.2744 8.56214 16.7411 9.0166V10.4316H22.4882C22.7409 10.4319 22.9911 10.6358 23.0438 10.8848L26.9901 29.5479C27.0431 29.797 26.879 30.001 26.6268 30H4.37391C4.12074 29.9998 3.95694 29.7966 4.00965 29.5479L7.95594 10.8848C8.00876 10.6358 8.25859 10.4318 8.51161 10.4316H14.2587V9.0166C9.72568 8.56225 6.14287 5.65368 5.63954 2H25.3602ZM15.4999 12.8906C11.6151 12.8906 8.46491 16.0591 8.46473 19.9688C8.46473 23.8776 11.615 27.0469 15.4999 27.0469C19.385 27.0467 22.5341 23.8775 22.5341 19.9688C22.5339 16.0588 19.3855 12.8908 15.4999 12.8906Z" fill="currentColor"/>
<path d="M20.674 17.1853C20.5725 17.0083 20.3476 16.9473 20.1716 17.0497L16.8544 18.9763C16.5257 18.5911 16.0385 18.3464 15.4937 18.3464C14.5032 18.3464 13.7 19.1542 13.7 20.1517C13.7 21.1481 14.5033 21.9564 15.4937 21.9564C16.4845 21.9564 17.2874 21.1482 17.2874 20.1517C17.2874 19.9683 17.2603 19.7915 17.2098 19.625L20.5393 17.6906C20.7151 17.5887 20.7763 17.362 20.674 17.1853Z" fill="currentColor"/>
</svg>
