<svg viewBox="0 0 32 32" fill="none" xmlns="http://www.w3.org/2000/svg">
<path d="M5.7893 1.8772L29.8306 25.9199C30.2058 26.2949 30.4167 26.8036 30.4168 27.3341C30.4169 27.8645 30.2063 28.3733 29.8313 28.7485C29.4563 29.1237 28.9476 29.3346 28.4171 29.3347C27.8866 29.3348 27.3778 29.1242 27.0026 28.7492L20.8746 22.6199L16.16 27.3332L5.7893 16.9625C3.8294 15.0029 2.70919 12.3574 2.66588 9.58619C2.62258 6.81501 3.65959 4.13577 5.5573 2.11586L5.7893 1.8772V1.8772ZM6.11064 5.97053L6.04264 6.1172C5.39609 7.54661 5.18372 9.13446 5.4319 10.6835C5.68009 12.2326 6.37789 13.6747 7.43864 14.8305L7.67464 15.0772L16.1586 23.5612L19.9306 19.7905L6.11064 5.97053V5.97053Z" fill="currentColor"/>
</svg>
