<svg viewBox="0 0 32 32" fill="none" xmlns="http://www.w3.org/2000/svg">
<path d="M16.375 0.187994L29.375 9.31299C29.7503 9.52166 29.792 9.81333 29.5 10.188L29.375 10.313L16.375 20.251C16.125 20.4177 15.875 20.4177 15.625 20.251L2.62499 10.313C2.20833 10.063 2.16666 9.77133 2.49999 9.43799C2.49999 9.35466 2.54166 9.31299 2.62499 9.31299L15.625 0.187994C15.875 0.0626608 16.125 0.0626608 16.375 0.187994ZM27.188 13.5L29.376 15C29.7513 15.292 29.793 15.5837 29.501 15.875C29.501 15.917 29.4593 15.9797 29.376 16.063L16.376 25.938C16.126 26.1467 15.876 26.1467 15.626 25.938L2.62599 16.063C2.25066 15.771 2.20899 15.4793 2.50099 15.188C2.50099 15.146 2.54266 15.0833 2.62599 15L4.81399 13.5L15.627 21.75C15.8357 21.9167 16.065 21.9167 16.315 21.75H16.378L27.188 13.5ZM27.188 19.188L29.376 20.751C29.7513 20.9597 29.793 21.2513 29.501 21.626L29.376 21.751L16.376 31.689C16.126 31.8977 15.876 31.8977 15.626 31.689L2.62599 21.751C2.20933 21.501 2.16766 21.2093 2.50099 20.876C2.50099 20.7927 2.54266 20.751 2.62599 20.751L4.81399 19.188L15.627 27.438C15.8357 27.6467 16.065 27.6677 16.315 27.501L16.378 27.438L27.188 19.188Z" fill="currentColor"/>
</svg>
