<svg viewBox="0 0 32 32" fill="none" xmlns="http://www.w3.org/2000/svg">
<path d="M29.3766 20.7512C29.7515 20.9599 29.7935 21.2517 29.5016 21.6262L29.3766 21.7512L16.3765 31.6888C16.1265 31.8974 15.8765 31.8974 15.6265 31.6888L2.6264 21.7512C2.20973 21.5012 2.16806 21.2096 2.5014 20.8762C2.5014 20.7929 2.54307 20.7512 2.6264 20.7512L4.81392 19.1877L15.6275 27.4378C15.8361 27.6463 16.0651 27.6678 16.315 27.5013L16.3785 27.4378L27.1881 19.1877L29.3766 20.7512ZM29.3766 15.0002C29.7516 15.2921 29.7934 15.584 29.5016 15.8752C29.5014 15.9172 29.4596 15.9797 29.3766 16.0627L16.3765 25.9378C16.1265 26.1464 15.8765 26.1464 15.6265 25.9378L2.6264 16.0627C2.25106 15.7707 2.2094 15.4791 2.5014 15.1877C2.50148 15.1667 2.51185 15.1409 2.53265 15.1096L2.6264 15.0002L4.81392 13.5002L15.6275 21.7503C15.836 21.9166 16.0652 21.9167 16.315 21.7503H16.3785L27.1881 13.5002L29.3766 15.0002ZM15.6255 0.187639C15.8754 0.0625285 16.1257 0.0623792 16.3755 0.187639L29.3756 9.31269C29.7506 9.52128 29.7923 9.81328 29.5006 10.1877L29.3756 10.3127L16.3755 20.2512C16.1257 20.4178 15.8754 20.4176 15.6255 20.2512L2.62542 10.3127C2.20875 10.0627 2.16709 9.77103 2.50042 9.43769C2.50051 9.35452 2.54217 9.31269 2.62542 9.31269L15.6255 0.187639ZM7.01706 9.89472L15.9996 16.761L24.982 9.89472L15.9996 3.59L7.01706 9.89472Z" fill="currentColor"/>
</svg>
