<svg viewBox="0 0 32 32" fill="none" xmlns="http://www.w3.org/2000/svg">
<path d="M9.12572 22.9007V26.2588C9.12572 26.7981 8.95905 27.2126 8.62573 27.5025C8.29241 27.8342 7.89642 28 7.43777 28H1.68795C1.2293 28 0.833307 27.8342 0.499984 27.5025C0.166661 27.1708 0 26.7563 0 26.2588V22.9007C0 22.4032 0.166661 21.9886 0.499984 21.657C0.833307 21.3253 1.2293 21.1595 1.68795 21.1595H7.43777C7.89642 21.1595 8.29241 21.3253 8.62573 21.657C8.95905 21.9475 9.12572 22.3621 9.12572 22.9007ZM9.12572 13.7588V17.1795C9.12572 17.677 8.95905 18.0916 8.62573 18.4233C8.29241 18.7549 7.89642 18.9208 7.43777 18.9208H1.68795C1.2293 18.9208 0.833307 18.7549 0.499984 18.4233C0.166661 18.0087 0 17.5941 0 17.1795V13.7588C0 13.3024 0.166661 12.9084 0.499984 12.5767C0.833307 12.2451 1.2293 12.0792 1.68795 12.0792H7.43777C7.89642 12.0792 8.29241 12.2451 8.62573 12.5767C8.95905 12.8673 9.12572 13.2613 9.12572 13.7588ZM20.5634 22.9007V26.2588C20.5634 26.7563 20.3967 27.1708 20.0634 27.5025C19.73 27.8342 19.3341 28 18.8754 28H13.1256C12.6669 28 12.271 27.8342 11.9376 27.5025C11.6043 27.1708 11.4376 26.7563 11.4376 26.2588V22.9007C11.4376 22.4032 11.6043 21.9886 11.9376 21.657C12.271 21.3253 12.6669 21.1595 13.1256 21.1595H18.8754C19.3341 21.1595 19.73 21.3253 20.0634 21.657C20.3967 21.9886 20.5634 22.4032 20.5634 22.9007ZM9.12572 4.67954V8.1003C9.12572 8.59779 8.95905 8.9918 8.62573 9.28234C8.33374 9.614 7.93775 9.77983 7.43777 9.77983H1.68795C1.18796 9.77983 0.791975 9.614 0.499984 9.28234C0.166661 8.95068 0 8.55666 0 8.1003V4.67954C0 4.22317 0.166661 3.82915 0.499984 3.49749C0.791975 3.16583 1.18796 3 1.68795 3H7.43777C7.93775 3 8.33374 3.16583 8.62573 3.49749C8.95905 3.78803 9.12572 4.18204 9.12572 4.67954ZM20.5634 13.7588V17.1795C20.5634 17.5941 20.3967 18.0087 20.0634 18.4233C19.73 18.7549 19.3341 18.9208 18.8754 18.9208H13.1256C12.6669 18.9208 12.271 18.7549 11.9376 18.4233C11.6043 18.0087 11.4376 17.5941 11.4376 17.1795V13.7588C11.4376 13.3024 11.6043 12.9084 11.9376 12.5767C12.271 12.2451 12.6669 12.0792 13.1256 12.0792H18.8754C19.3341 12.0792 19.73 12.2451 20.0634 12.5767C20.3967 12.9084 20.5634 13.3024 20.5634 13.7588ZM32 22.9007V26.2588C32 26.7563 31.8333 27.1708 31.5 27.5025C31.1667 27.8342 30.7707 28 30.3121 28H24.5622C24.1036 28 23.7076 27.8342 23.3743 27.5025C23.0409 27.212 22.8743 26.7974 22.8743 26.2588V22.9007C22.8743 22.3614 23.0409 21.9468 23.3743 21.657C23.7076 21.3253 24.1036 21.1595 24.5622 21.1595H30.3121C30.7707 21.1595 31.1667 21.3253 31.5 21.657C31.8333 21.9886 32 22.4032 32 22.9007ZM20.5634 4.67954V8.1003C20.5634 8.55666 20.3967 8.95068 20.0634 9.28234C19.7714 9.614 19.3754 9.77983 18.8754 9.77983H13.1256C12.6256 9.77983 12.2296 9.614 11.9376 9.28234C11.6043 8.95068 11.4376 8.55666 11.4376 8.1003V4.67954C11.4376 4.22317 11.6043 3.82915 11.9376 3.49749C12.2296 3.16583 12.6256 3 13.1256 3H18.8754C19.3754 3 19.7714 3.16583 20.0634 3.49749C20.3967 3.82915 20.5634 4.22317 20.5634 4.67954ZM32 13.7588V17.1795C32 17.5941 31.8333 18.0087 31.5 18.4233C31.1667 18.7549 30.7707 18.9208 30.3121 18.9208H24.5622C24.1036 18.9208 23.7076 18.7549 23.3743 18.4233C23.0409 18.0916 22.8743 17.677 22.8743 17.1795V13.7588C22.8743 13.2613 23.0409 12.8673 23.3743 12.5767C23.7076 12.2451 24.1036 12.0792 24.5622 12.0792H30.3121C30.7707 12.0792 31.1667 12.2451 31.5 12.5767C31.8333 12.9084 32 13.3024 32 13.7588ZM32 4.67954V8.1003C32 8.55666 31.8333 8.95068 31.5 9.28234C31.208 9.614 30.812 9.77983 30.3121 9.77983H24.5622C24.0622 9.77983 23.6663 9.614 23.3743 9.28234C23.0409 8.9918 22.8743 8.59779 22.8743 8.1003V4.67954C22.8743 4.18204 23.0409 3.78803 23.3743 3.49749C23.6663 3.16583 24.0622 3 24.5622 3H30.3121C30.812 3 31.208 3.16583 31.5 3.49749C31.8333 3.82915 32 4.22317 32 4.67954Z" fill="currentColor"/>
</svg>
