<svg viewBox="0 0 32 32" fill="none" xmlns="http://www.w3.org/2000/svg">
<path d="M28 28C28.3536 28 28.6928 27.8595 28.9428 27.6095C29.1929 27.3594 29.3334 27.0203 29.3334 26.6667V5.33333C29.3334 4.97971 29.1929 4.64057 28.9428 4.39052C28.6928 4.14047 28.3536 4 28 4H4.00002C3.6464 4 3.30726 4.14047 3.05721 4.39052C2.80716 4.64057 2.66669 4.97971 2.66669 5.33333V26.6667C2.66669 27.0203 2.80716 27.3594 3.05721 27.6095C3.30726 27.8595 3.6464 28 4.00002 28H28ZM5.33335 18.6667V6.66667H26.6667V18.6667H5.33335ZM5.33335 21.3333H26.6667V25.3333H5.33335V21.3333Z" fill="currentColor"/>
</svg>
