<svg viewBox="0 0 32 32" fill="none" xmlns="http://www.w3.org/2000/svg">
<path d="M5.33332 10.6667H26.6667V6.66667H5.33332V10.6667ZM18.6667 25.3333V13.3333H13.3333V25.3333H18.6667ZM21.3333 25.3333H26.6667V13.3333H21.3333V25.3333ZM10.6667 25.3333V13.3333H5.33332V25.3333H10.6667ZM3.99999 4H28C28.3536 4 28.6927 4.14048 28.9428 4.39052C29.1928 4.64057 29.3333 4.97971 29.3333 5.33333V26.6667C29.3333 27.0203 29.1928 27.3594 28.9428 27.6095C28.6927 27.8595 28.3536 28 28 28H3.99999C3.64637 28 3.30723 27.8595 3.05718 27.6095C2.80713 27.3594 2.66666 27.0203 2.66666 26.6667V5.33333C2.66666 4.97971 2.80713 4.64057 3.05718 4.39052C3.30723 4.14048 3.64637 4 3.99999 4V4Z" fill="currentColor"/>
</svg>
