<svg viewBox="0 0 32 32" fill="none" xmlns="http://www.w3.org/2000/svg">
<path d="M29.3333 17.332V26.6667C29.3333 27.0203 29.1929 27.3594 28.9428 27.6095C28.6928 27.8595 28.3536 28 28 28H17.3333V17.332H29.3333ZM14.6667 17.332V28H4.00001C3.64638 28 3.30724 27.8595 3.0572 27.6095C2.80715 27.3594 2.66667 27.0203 2.66667 26.6667V17.332H14.6667V17.332ZM14.6667 4V14.6653H2.66667V5.33333C2.66667 4.97971 2.80715 4.64057 3.0572 4.39052C3.30724 4.14048 3.64638 4 4.00001 4H14.6667ZM28 4C28.3536 4 28.6928 4.14048 28.9428 4.39052C29.1929 4.64057 29.3333 4.97971 29.3333 5.33333V14.6653H17.3333V4H28Z" fill="currentColor"/>
</svg>
