<svg viewBox="0 0 32 32" fill="none" xmlns="http://www.w3.org/2000/svg">
<g clip-path="url(#clip0_82_509)">
<path d="M4.564 24.126V27.564C4.564 27.6893 4.50133 27.8143 4.376 27.939C4.29267 28.0643 4.16767 28.127 4.001 28.127H0.563C0.437667 28.127 0.312667 28.0643 0.188 27.939C0.0633333 27.8137 0.000666667 27.6887 0 27.564V24.126C0 23.9593 0.0626667 23.8133 0.188 23.688C0.354667 23.6047 0.479667 23.563 0.563 23.563H4.001C4.16767 23.563 4.29267 23.6047 4.376 23.688C4.50133 23.8133 4.564 23.9593 4.564 24.126ZM4.564 17.251V20.689C4.564 20.8557 4.50133 20.9807 4.376 21.064C4.29267 21.1893 4.16767 21.252 4.001 21.252H0.563C0.437667 21.252 0.312667 21.1893 0.188 21.064C0.0626667 20.9807 0 20.8557 0 20.689V17.251C0 17.1257 0.0626667 17.0007 0.188 16.876C0.313333 16.7513 0.438333 16.6887 0.563 16.688H4.001C4.16767 16.688 4.29267 16.7507 4.376 16.876C4.50133 17.0013 4.564 17.1263 4.564 17.251ZM4.564 10.376V13.814C4.564 13.9807 4.50133 14.1267 4.376 14.252C4.334 14.3353 4.209 14.377 4.001 14.377H0.563C0.396333 14.377 0.271333 14.3353 0.188 14.252C0.0626667 14.1267 0 13.9807 0 13.814V10.376C0 10.2507 0.0626667 10.1257 0.188 10.001C0.313333 9.87633 0.438333 9.81367 0.563 9.813H4.001C4.16767 9.813 4.29267 9.87567 4.376 10.001C4.50133 10.1263 4.564 10.2513 4.564 10.376ZM32.001 24.126V27.564C32.001 27.6893 31.9383 27.8143 31.813 27.939C31.6877 28.0637 31.5627 28.1263 31.438 28.127H7.438C7.27133 28.127 7.12533 28.0643 7 27.939C6.91667 27.7723 6.875 27.6473 6.875 27.564V24.126C6.875 24.0007 6.91667 23.8547 7 23.688C7.16667 23.6047 7.31267 23.563 7.438 23.563H31.438C31.5213 23.563 31.6463 23.6047 31.813 23.688C31.9383 23.8133 32.001 23.9593 32.001 24.126ZM4.564 3.563V7.001C4.564 7.12633 4.50133 7.25133 4.376 7.376C4.29267 7.50133 4.16767 7.564 4.001 7.564H0.563C0.437667 7.564 0.312667 7.50133 0.188 7.376C0.0633333 7.25067 0.000666667 7.12567 0 7.001V3.563C0 3.39633 0.0626667 3.25033 0.188 3.125C0.271333 3.04167 0.396333 3 0.563 3H4.001C4.20967 3 4.33467 3.04167 4.376 3.125C4.50133 3.25033 4.564 3.39633 4.564 3.563ZM32.001 17.251V20.689C32.001 20.8557 31.9383 20.9807 31.813 21.064C31.6877 21.1893 31.5627 21.252 31.438 21.252H7.438C7.27133 21.252 7.12533 21.1893 7 21.064C6.91667 20.9807 6.875 20.8557 6.875 20.689V17.251C6.875 17.1677 6.91667 17.0427 7 16.876C7.12533 16.7507 7.27133 16.688 7.438 16.688H31.438C31.5633 16.688 31.6883 16.7507 31.813 16.876C31.9377 17.0013 32.0003 17.1263 32.001 17.251ZM32.001 10.376V13.814C32.001 13.9807 31.9383 14.1267 31.813 14.252C31.7297 14.3353 31.6047 14.377 31.438 14.377H7.438C7.22933 14.377 7.08333 14.3353 7 14.252C6.91667 14.0853 6.875 13.9393 6.875 13.814V10.376C6.875 10.2927 6.91667 10.1677 7 10.001C7.12533 9.87567 7.27133 9.813 7.438 9.813H31.438C31.5633 9.813 31.6883 9.87567 31.813 10.001C31.9377 10.1263 32.0003 10.2513 32.001 10.376ZM32.001 3.563V7.001C32.001 7.12633 31.9383 7.25133 31.813 7.376C31.6877 7.50067 31.5627 7.56333 31.438 7.564H7.438C7.27133 7.564 7.12533 7.50133 7 7.376C6.91667 7.20933 6.875 7.08433 6.875 7.001V3.563C6.875 3.43767 6.91667 3.29167 7 3.125C7.08333 3.04167 7.22933 3 7.438 3H31.438C31.6047 3 31.7297 3.04167 31.813 3.125C31.9383 3.25033 32.001 3.39633 32.001 3.563Z" fill="currentColor"/>
</g>
<defs>
<clipPath id="clip0_82_509">
<rect width="32" height="32" fill="white"/>
</clipPath>
</defs>
</svg>
