<svg viewBox="0 0 32 32" fill="none" xmlns="http://www.w3.org/2000/svg">
<g clip-path="url(#clip0_82_511)">
<path d="M9.125 22.313V25.688C9.125 26.23 8.95833 26.6467 8.625 26.938C8.29167 27.2713 7.89567 27.438 7.437 27.438H1.687C1.22833 27.438 0.832334 27.2713 0.499001 26.938C0.165667 26.6047 -0.000999451 26.188 -0.000999451 25.688V22.313C-0.000999451 21.813 0.165667 21.3963 0.499001 21.063C0.832334 20.7297 1.22833 20.563 1.687 20.563H7.437C7.89567 20.563 8.29167 20.7297 8.625 21.063C8.95833 21.355 9.125 21.7717 9.125 22.313ZM9.125 13.125V16.563C9.125 17.063 8.95833 17.4797 8.625 17.813C8.29167 18.1463 7.89567 18.313 7.437 18.313H1.687C1.22833 18.313 0.832334 18.1463 0.499001 17.813C0.165667 17.3963 -0.000999451 16.9797 -0.000999451 16.563V13.125C-0.000999451 12.6663 0.165667 12.2703 0.499001 11.937C0.832334 11.6037 1.22833 11.437 1.687 11.437H7.437C7.89567 11.437 8.29167 11.6037 8.625 11.937C8.95833 12.229 9.125 12.625 9.125 13.125ZM32 22.313V25.688C32 26.188 31.8333 26.6047 31.5 26.938C31.1667 27.2713 30.7707 27.438 30.312 27.438H13.124C12.6653 27.438 12.2693 27.2713 11.936 26.938C11.6027 26.6047 11.436 26.188 11.436 25.688V22.313C11.436 21.813 11.6027 21.3963 11.936 21.063C12.2693 20.7297 12.6653 20.563 13.124 20.563H30.312C30.7707 20.563 31.1667 20.7297 31.5 21.063C31.8333 21.3963 32 21.813 32 22.313ZM9.125 4.00001V7.43801C9.125 7.93801 8.95833 8.33401 8.625 8.62601C8.333 8.95935 7.937 9.12601 7.437 9.12601H1.687C1.187 9.12601 0.791001 8.95935 0.499001 8.62601C0.165667 8.29268 -0.000999451 7.89668 -0.000999451 7.43801V4.00001C-0.000999451 3.54135 0.165667 3.14535 0.499001 2.81201C0.791001 2.47868 1.187 2.31201 1.687 2.31201H7.437C7.937 2.31201 8.333 2.47868 8.625 2.81201C8.95833 3.10401 9.125 3.50001 9.125 4.00001ZM32 13.125V16.563C32 16.9797 31.8333 17.3963 31.5 17.813C31.1667 18.1463 30.7707 18.313 30.312 18.313H13.124C12.6653 18.313 12.2693 18.1463 11.936 17.813C11.6027 17.3963 11.436 16.9797 11.436 16.563V13.125C11.436 12.6663 11.6027 12.2703 11.936 11.937C12.2693 11.6037 12.6653 11.437 13.124 11.437H30.312C30.7707 11.437 31.1667 11.6037 31.5 11.937C31.8333 12.2703 32 12.6663 32 13.125ZM32 4.00001V7.43801C32 7.89668 31.8333 8.29268 31.5 8.62601C31.208 8.95935 30.812 9.12601 30.312 9.12601H13.124C12.624 9.12601 12.228 8.95935 11.936 8.62601C11.6027 8.29268 11.436 7.89668 11.436 7.43801V4.00001C11.436 3.54135 11.6027 3.14535 11.936 2.81201C12.228 2.47868 12.624 2.31201 13.124 2.31201H30.312C30.812 2.31201 31.208 2.47868 31.5 2.81201C31.8333 3.14535 32 3.54135 32 4.00001Z" fill="currentColor"/>
</g>
<defs>
<clipPath id="clip0_82_511">
<rect width="32" height="32" fill="white"/>
</clipPath>
</defs>
</svg>
