<svg viewBox="0 0 32 32" fill="none" xmlns="http://www.w3.org/2000/svg">
<path d="M28 3V5.63158C28 18.2987 20.836 24.0526 12 24.0526H6.99067C6.77333 25.2526 6.66667 26.5618 6.66667 28H4C4 26.2066 4.15467 24.5789 4.46133 23.0895C4.15467 21.3868 4 19.0763 4 16.1579C4 8.89079 9.96933 3 17.3333 3C20 3 22.6667 4.31579 28 3ZM17.3333 5.63158C11.4427 5.63158 6.66667 10.3447 6.66667 16.1579C6.66667 16.6342 6.67067 17.0934 6.68 17.5342C8.352 14.9316 10.8013 12.875 14.0053 11.0684L15.328 13.3526C11.5213 15.5 8.996 17.9395 7.70133 21.4211H12C20.02 21.4211 25.1613 16.1934 25.3293 6.14211C23.5 6.31711 21.8 6.20526 19.7027 5.89474C18.1693 5.6671 17.868 5.63158 17.3333 5.63158Z" fill="currentColor"/>
</svg>
