<svg viewBox="0 0 32 32" fill="none" xmlns="http://www.w3.org/2000/svg">
<g clip-path="url(#clip0_256_150)">
<path d="M14.7502 24.8092H10.9265C10.5553 23.2331 8.88025 21.9441 8.19275 21.0948C7.01549 19.6378 6.27769 17.8811 6.06434 16.027C5.85098 14.1728 6.17076 12.2967 6.98682 10.6147C7.80289 8.93272 9.08205 7.51329 10.6769 6.51994C12.2718 5.52658 14.1176 4.9997 16.0016 5C17.8856 5.0003 19.7312 5.52776 21.3258 6.52162C22.9203 7.51549 24.199 8.93532 25.0146 10.6176C25.8301 12.2998 26.1493 14.176 25.9353 16.0301C25.7213 17.8842 24.983 19.6407 23.8052 21.0972C23.1177 21.9454 21.4452 23.2343 21.074 24.8092H17.2502V18.6185H14.7502V24.8092ZM21.0002 27.2855V28.5237C21.0002 29.1804 20.7369 29.8103 20.268 30.2747C19.7992 30.7391 19.1633 31 18.5002 31H13.5003C12.8372 31 12.2013 30.7391 11.7325 30.2747C11.2636 29.8103 11.0003 29.1804 11.0003 28.5237V27.2855H21.0002Z" fill="currentColor"/>
<path d="M7.25 6.37502L5.812 5.00002C5.60333 4.83336 5.35333 4.75002 5.062 4.75002C4.77067 4.75002 4.54133 4.83336 4.374 5.00002C3.91533 5.45869 3.91533 5.91702 4.374 6.37502L5.812 7.81302C6.27067 8.27169 6.75 8.27169 7.25 7.81302C7.70867 7.35436 7.70867 6.87502 7.25 6.37502ZM3 14H1C0.333333 14 0 14.3334 0 15C0 15.6667 0.333333 16 1 16H3C3.66667 16 4 15.6667 4 15C4 14.3334 3.66667 14 3 14ZM31 14H29C28.3333 14 28 14.3334 28 15C28 15.6667 28.3333 16 29 16H31C31.6667 16 32 15.6667 32 15C32 14.3334 31.6667 14 31 14ZM28 5.37502C27.5413 4.91636 27.083 4.91636 26.625 5.37502L25.187 6.81302C24.7283 7.27169 24.7283 7.75102 25.187 8.25102C25.6457 8.70969 26.125 8.70969 26.625 8.25102L28 6.81302C28.4587 6.35436 28.4587 5.87502 28 5.37502ZM16 4.00002C16.25 4.00002 16.4793 3.89569 16.688 3.68702C16.8967 3.47836 17.001 3.24902 17.001 2.99902V0.999023C17.001 0.332357 16.6677 -0.000976562 16.001 -0.000976562C15.5843 -0.000976562 15.2717 0.207357 15.063 0.624023L15 0.999023V2.99902C15 3.66569 15.3333 4.00002 16 4.00002Z" fill="currentColor"/>
</g>
<defs>
<clipPath id="clip0_256_150">
<rect width="32" height="32" fill="white"/>
</clipPath>
</defs>
</svg>
