<svg viewBox="0 0 32 32" fill="none" xmlns="http://www.w3.org/2000/svg">
<path d="M14.6667 24H10.588C10.192 22.3026 8.40533 20.9146 7.67199 20C6.41625 18.431 5.62926 16.5393 5.40168 14.5426C5.1741 12.5459 5.51519 10.5256 6.38566 8.71429C7.25613 6.90301 8.62057 5.37446 10.3218 4.30474C12.023 3.23502 13.9918 2.66765 16.0014 2.66797C18.011 2.66829 19.9797 3.2363 21.6805 4.30656C23.3814 5.37683 24.7454 6.90581 25.6153 8.71737C26.4852 10.5289 26.8256 12.5494 26.5974 14.546C26.3692 16.5426 25.5816 18.4341 24.3253 20.0026C23.592 20.916 21.808 22.304 21.412 24H17.3333V17.3333H14.6667V24ZM21.3333 26.6666V28C21.3333 28.7072 21.0524 29.3855 20.5523 29.8856C20.0522 30.3857 19.3739 30.6666 18.6667 30.6666H13.3333C12.6261 30.6666 11.9478 30.3857 11.4477 29.8856C10.9476 29.3855 10.6667 28.7072 10.6667 28V26.6666H21.3333Z" fill="currentColor"/>
</svg>
