<svg viewBox="0 0 32 32" fill="none" xmlns="http://www.w3.org/2000/svg">
<path d="M23.5427 19.7706L21.6574 17.8853L23.5427 15.9999C24.0379 15.5047 24.4308 14.9167 24.6988 14.2696C24.9669 13.6225 25.1048 12.929 25.1048 12.2286C25.1048 11.5282 24.9669 10.8346 24.6988 10.1876C24.4308 9.54047 24.0379 8.95252 23.5427 8.45726C23.0474 7.962 22.4595 7.56914 21.8124 7.30111C21.1653 7.03307 20.4718 6.89512 19.7713 6.89512C19.0709 6.89512 18.3774 7.03307 17.7303 7.30111C17.0832 7.56914 16.4953 7.962 16 8.45726L14.1147 10.3426L12.2294 8.45726L14.1147 6.57192C15.6191 5.09182 17.6474 4.26613 19.7579 4.27472C21.8683 4.28332 23.8898 5.12549 25.3821 6.6178C26.8744 8.11011 27.7166 10.1317 27.7252 12.2421C27.7338 14.3525 26.9081 16.3808 25.428 17.8853L23.5427 19.7706V19.7706ZM19.7707 23.5426L17.8853 25.4279C17.1447 26.1807 16.2624 26.7794 15.2892 27.1895C14.316 27.5996 13.2712 27.813 12.2152 27.8173C11.1591 27.8216 10.1127 27.6167 9.1362 27.2146C8.15971 26.8124 7.27251 26.2209 6.52576 25.4742C5.77902 24.7274 5.18751 23.8402 4.78536 22.8637C4.38321 21.8872 4.17838 20.8408 4.18268 19.7847C4.18698 18.7287 4.40033 17.684 4.81042 16.7108C5.2205 15.7376 5.81922 14.8552 6.57202 14.1146L8.45735 12.2293L10.3427 14.1146L8.45735 15.9999C7.96209 16.4952 7.56923 17.0831 7.3012 17.7302C7.03317 18.3773 6.89521 19.0709 6.89521 19.7713C6.89521 20.4717 7.03317 21.1652 7.3012 21.8123C7.56923 22.4594 7.96209 23.0473 8.45735 23.5426C8.95261 24.0378 9.54057 24.4307 10.1877 24.6987C10.8347 24.9668 11.5283 25.1047 12.2287 25.1047C12.9291 25.1047 13.6226 24.9668 14.2697 24.6987C14.9168 24.4307 15.5048 24.0378 16 23.5426L17.8853 21.6573L19.7707 23.5426ZM19.7707 10.3426L21.6574 12.2293L12.2294 21.6559L10.3427 19.7706L19.7707 10.3439V10.3426Z" fill="currentColor"/>
</svg>
