<svg viewBox="0 0 32 32" fill="none" xmlns="http://www.w3.org/2000/svg">
<path d="M16.6631 30.9081L16 31.5014L15.3369 30.9081L16 30.1509L16.6631 30.9081ZM26 12.9211C25.9997 7.36632 21.5264 2.85652 16 2.85652C10.4736 2.85652 6.00025 7.36632 6 12.9211C6 14.5307 6.60567 16.3598 7.60156 18.254C8.59067 20.1352 9.92163 22.0015 11.2725 23.6639C12.6206 25.323 13.9722 26.7585 14.9873 27.7806C15.3836 28.1796 15.7283 28.5141 16 28.7737C16.2717 28.5141 16.6164 28.1796 17.0127 27.7806C18.0278 26.7585 19.3794 25.323 20.7275 23.6639C22.0784 22.0015 23.4093 20.1352 24.3984 18.254C25.3943 16.3598 26 14.5307 26 12.9211ZM18.5146 12.4601C18.5145 11.0682 17.392 9.93284 16 9.93284C14.6082 9.93308 13.4864 11.0683 13.4863 12.4601C13.4863 13.8519 14.6081 14.9871 16 14.9873C17.3921 14.9873 18.5146 13.8521 18.5146 12.4601ZM28 12.9211C28 15.0035 27.2306 17.1753 26.1641 19.2037C25.0907 21.2451 23.6715 23.2255 22.2725 24.9473C20.8709 26.6721 19.4721 28.1585 18.4248 29.213C17.9005 29.7409 17.4621 30.1628 17.1543 30.453C17.0008 30.5977 16.8796 30.7099 16.7959 30.7866C16.7541 30.825 16.7216 30.8553 16.6992 30.8755C16.6881 30.8856 16.6789 30.8928 16.6729 30.8982L16.6641 30.9071H16.6631C16.6597 30.9037 16.6155 30.8537 16 30.1509C15.3845 30.8536 15.3403 30.9037 15.3369 30.9071H15.3359L15.3271 30.8982C15.3211 30.8928 15.3119 30.8856 15.3008 30.8755C15.2784 30.8553 15.2459 30.825 15.2041 30.7866C15.1204 30.7099 14.9992 30.5977 14.8457 30.453C14.5379 30.1628 14.0995 29.7409 13.5752 29.213C12.5279 28.1585 11.1291 26.6721 9.72754 24.9473C8.32847 23.2255 6.9093 21.2451 5.83594 19.2037C4.76943 17.1753 4 15.0035 4 12.9211C4.00025 6.24217 9.37648 0.834717 16 0.834717C22.6235 0.834717 27.9997 6.24217 28 12.9211ZM20.5146 12.4601C20.5146 14.9762 18.4892 17.0091 16 17.0091C13.511 17.0089 11.4863 14.9761 11.4863 12.4601C11.4864 9.9442 13.5111 7.91128 16 7.91103C18.4891 7.91103 20.5145 9.94405 20.5146 12.4601Z" fill="currentColor"/>
</svg>
