<svg viewBox="0 0 32 32" fill="none" xmlns="http://www.w3.org/2000/svg">
<g clip-path="url(#clip0_154_90)">
<path d="M16.125 2.34375e-05C13.0417 2.34375e-05 10.4063 1.09369 8.219 3.28102C6.03167 5.46836 4.938 8.10369 4.938 11.187C4.938 12.7704 5.32334 14.5517 6.094 16.531C6.86467 18.5104 7.79167 20.3647 8.875 22.094C9.95834 23.8234 11.052 25.4484 12.156 26.969C13.26 28.4897 14.208 29.6877 15 30.563L16.125 31.876C16.417 31.5427 16.813 31.0844 17.313 30.501C17.813 29.9177 18.709 28.7614 20.001 27.032C21.293 25.3027 22.4283 23.636 23.407 22.032C24.3857 20.428 25.2817 18.605 26.095 16.563C26.9083 14.521 27.3147 12.7084 27.314 11.125C27.272 8.08302 26.1677 5.47869 24.001 3.31202C21.8343 1.14536 19.2093 0.0410234 16.126 -0.000976562L16.125 2.34375e-05ZM16.125 15.125C15.0417 15.125 14.1147 14.7397 13.344 13.969C12.5733 13.1984 12.188 12.2714 12.188 11.188C12.188 10.1047 12.5733 9.16702 13.344 8.37502C14.1147 7.58302 15.0417 7.18702 16.125 7.18702C17.2083 7.18702 18.146 7.58302 18.938 8.37502C19.73 9.16702 20.126 10.1047 20.126 11.188C20.126 12.2714 19.73 13.1984 18.938 13.969C18.146 14.7397 17.2083 15.125 16.125 15.125Z" fill="currentColor"/>
</g>
<defs>
<clipPath id="clip0_154_90">
<rect width="32" height="32" fill="white"/>
</clipPath>
</defs>
</svg>
