<svg viewBox="0 0 32 32" fill="none" xmlns="http://www.w3.org/2000/svg">
<g clip-path="url(#clip0_154_94)">
<path d="M14.125 5.5C13.5417 5.5 13.25 5.18733 13.25 4.562C13.25 3.97867 13.5417 3.687 14.125 3.687C14.7503 3.687 15.063 3.97867 15.063 4.562C15.063 5.18733 14.7503 5.5 14.125 5.5ZM17.188 13.438V28.313L16 32.001L14.75 28.313V13.438C15.042 13.5213 15.4587 13.563 16 13.563C16.5413 13.563 16.9373 13.5213 17.188 13.438ZM16 0C17.6667 0 19.1043 0.604333 20.313 1.813C21.5217 3.02167 22.126 4.45933 22.126 6.126C22.126 7.79267 21.5217 9.23033 20.313 10.439C19.1043 11.6477 17.6667 12.252 16 12.252C14.2913 12.252 12.833 11.6583 11.625 10.471C10.417 9.28367 9.81266 7.83567 9.812 6.127C9.81133 4.41833 10.4157 2.97033 11.625 1.783C12.8343 0.595667 14.2927 0.002 16 0.002V0Z" fill="currentColor"/>
</g>
<defs>
<clipPath id="clip0_154_94">
<rect width="32" height="32" fill="white"/>
</clipPath>
</defs>
</svg>
