<svg viewBox="0 0 32 32" fill="none" xmlns="http://www.w3.org/2000/svg">
<path d="M28.438 6.25004L17 29.063C16.8333 29.4797 16.5 29.688 16 29.688H15.75C15.458 29.6047 15.2497 29.4587 15.125 29.25C14.9583 29.0834 14.875 28.854 14.875 28.562V18.312H4.562C4.35333 18.312 4.124 18.2287 3.874 18.062C3.624 17.812 3.478 17.6037 3.436 17.437C3.394 17.145 3.43567 16.895 3.561 16.687C3.603 16.437 3.76967 16.2494 4.061 16.124L26.936 4.68604C27.1027 4.6027 27.2693 4.56104 27.436 4.56104C27.728 4.56104 27.999 4.68604 28.249 4.93604C28.3743 5.01937 28.4787 5.20704 28.562 5.49904C28.604 5.7077 28.5623 5.9577 28.437 6.24904L28.438 6.25004Z" fill="currentColor"/>
</svg>
