<svg viewBox="0 0 32 32" fill="none" xmlns="http://www.w3.org/2000/svg">
<path d="M16.6631 30.8498L16 31.4407L15.3369 30.8498L16 30.0956L16.6631 30.8498ZM26 12.9339C25.9997 7.40105 21.5264 2.90908 16 2.90908C10.4736 2.90908 6.00025 7.40105 6 12.9339C6 14.5371 6.60567 16.359 7.60156 18.2457C8.59067 20.1195 9.92163 21.9784 11.2725 23.6342C12.6206 25.2868 13.9722 26.7166 14.9873 27.7346C15.3836 28.1321 15.7283 28.4653 16 28.7238C16.2717 28.4653 16.6164 28.1321 17.0127 27.7346C18.0278 26.7166 19.3794 25.2868 20.7275 23.6342C22.0784 21.9784 23.4093 20.1195 24.3984 18.2457C25.3943 16.359 26 14.5371 26 12.9339ZM28 12.9339C28 15.008 27.2306 17.1713 26.1641 19.1917C25.0907 21.2249 23.6715 23.1976 22.2725 24.9125C20.8709 26.6306 19.4721 28.1111 18.4248 29.1614C17.9005 29.6872 17.4621 30.1074 17.1543 30.3964C17.0008 30.5406 16.8796 30.6524 16.7959 30.7288C16.7541 30.767 16.7216 30.7972 16.6992 30.8173C16.6881 30.8273 16.6789 30.8345 16.6729 30.8399L16.6641 30.8488H16.6631C16.6597 30.8454 16.6155 30.7956 16 30.0956C15.3845 30.7956 15.3403 30.8454 15.3369 30.8488H15.3359L15.3271 30.8399C15.3211 30.8345 15.3119 30.8273 15.3008 30.8173C15.2784 30.7972 15.2459 30.767 15.2041 30.7288C15.1204 30.6524 14.9992 30.5406 14.8457 30.3964C14.5379 30.1074 14.0995 29.6872 13.5752 29.1614C12.5279 28.1111 11.1291 26.6306 9.72754 24.9125C8.32847 23.1976 6.9093 21.2249 5.83594 19.1917C4.76943 17.1713 4 15.008 4 12.9339C4.00025 6.28134 9.37648 0.895264 16 0.895264C22.6235 0.895264 27.9997 6.28134 28 12.9339Z" fill="currentColor"/>
</svg>
