<svg viewBox="0 0 32 32" fill="none" xmlns="http://www.w3.org/2000/svg">
<path d="M5.37505 30H26.625C27.0004 30 27.3234 29.8647 27.594 29.594C27.8647 29.3234 28 29.0004 28 28.625V15.375C28 14.9997 27.8647 14.6767 27.594 14.406C27.3234 14.1354 27.0004 14 26.625 14H25.25V12.062C25.25 9.14536 24.354 6.74936 22.562 4.87402C20.77 2.95736 18.5824 1.99902 15.999 1.99902C13.4157 1.99902 11.228 2.95736 9.43605 4.87402C7.64405 6.66602 6.74805 9.06202 6.74805 12.062V14H5.37305C4.99771 14 4.67471 14.1354 4.40405 14.406C4.13338 14.6767 3.99805 14.9997 3.99805 15.375V28.625C3.99805 29.0004 4.13338 29.3234 4.40405 29.594C4.67471 29.8647 4.99771 30 5.37305 30H5.37505ZM10.063 12.063C10.063 9.97969 10.6464 8.31302 11.813 7.06302C12.9797 5.81302 14.3757 5.18802 16.001 5.18802C17.6264 5.18802 19.0224 5.81302 20.189 7.06302C21.3557 8.31302 21.939 9.97969 21.939 12.063V14.001H10.064V12.063H10.063Z" fill="currentColor"/>
</svg>
