<svg viewBox="0 0 32 32" fill="none" xmlns="http://www.w3.org/2000/svg">
<path d="M5.37502 30H26.625C27.0004 30 27.3234 29.8647 27.594 29.594C27.8647 29.3233 28 29.0003 28 28.625V15.375C28 14.9997 27.8647 14.6767 27.594 14.406C27.3234 14.1353 27.0004 14 26.625 14H10.062V12.062C10.062 9.97867 10.6454 8.312 11.812 7.062C12.9787 5.812 14.3747 5.187 16 5.187C17.6254 5.187 19.0214 5.812 20.188 7.062C20.8547 7.77067 21.3547 8.75 21.688 10H25.001C24.5844 7.79133 23.7717 6.083 22.563 4.875C20.771 2.95833 18.5834 2 16 2C13.4167 2 11.229 2.95833 9.43702 4.875C7.64502 6.667 6.74902 9.063 6.74902 12.063V14.001H5.37402C4.99869 14.001 4.67569 14.1363 4.40502 14.407C4.13436 14.6777 3.99902 15.0007 3.99902 15.376V28.626C3.99902 29.0013 4.13436 29.3243 4.40502 29.595C4.67569 29.8657 4.99869 30.001 5.37402 30.001L5.37502 30Z" fill="currentColor"/>
</svg>
