<svg viewBox="0 0 32 32" fill="none" xmlns="http://www.w3.org/2000/svg">
<path d="M3.27386 19.9H6.07001C6.98895 22.1348 8.66567 23.9849 10.8133 25.1337C12.961 26.2826 15.4462 26.6589 17.8438 26.1982C20.2414 25.7375 22.4023 24.4685 23.9571 22.6082C25.5119 20.7479 26.3638 18.412 26.3671 16C26.3685 13.5855 25.519 11.2457 23.9644 9.38199C22.4099 7.51829 20.2471 6.24682 17.847 5.78566C15.4469 5.32449 12.9591 5.70236 10.8103 6.85447C8.66146 8.00658 6.98556 9.86112 6.07001 12.1H3.27386C4.95102 6.8259 9.94038 3 15.8355 3C23.1062 3 29 8.8201 29 16C29 23.1799 23.1062 29 15.8355 29C9.94038 29 4.95102 25.1741 3.27386 19.9Z" fill="currentColor"/>
<path d="M14.8481 14.7324V10.8324L20.9485 15.6517C21.1955 15.8469 21.1955 16.2179 20.9485 16.4131L14.8481 21.2324V17.3324H3V14.7324H14.8481Z" fill="currentColor"/>
</svg>
