<svg viewBox="0 0 32 32" fill="none" xmlns="http://www.w3.org/2000/svg">
<path d="M28.724 8.66367C29.3334 11.0397 29.3334 15.9997 29.3334 15.9997C29.3334 15.9997 29.3334 20.9597 28.724 23.3357C28.3854 24.649 27.3947 25.6823 26.14 26.0317C23.8614 26.6663 16 26.6663 16 26.6663C16 26.6663 8.14269 26.6663 5.86002 26.0317C4.60002 25.677 3.61069 24.645 3.27602 23.3357C2.66669 20.9597 2.66669 15.9997 2.66669 15.9997C2.66669 15.9997 2.66669 11.0397 3.27602 8.66367C3.61469 7.35034 4.60535 6.31701 5.86002 5.96767C8.14269 5.33301 16 5.33301 16 5.33301C16 5.33301 23.8614 5.33301 26.14 5.96767C27.4 6.32234 28.3894 7.35434 28.724 8.66367V8.66367ZM13.3334 20.6663L21.3334 15.9997L13.3334 11.333V20.6663Z" fill="currentColor"/>
</svg>
