<svg viewBox="0 0 32 32" fill="none" xmlns="http://www.w3.org/2000/svg">
<path d="M21.292 30V19.164H24.9211L25.464 14.9516H21.292V12.2636C21.292 11.044 21.6311 10.2118 23.3796 10.2118H25.6102V6.44422C24.5304 6.32965 23.445 6.27408 22.3591 6.27778C19.1438 6.27778 16.9427 8.24089 16.9427 11.8467V14.9516H13.3058V19.164H16.9427V30H3.55556C3.143 30 2.74733 29.8361 2.45561 29.5444C2.16389 29.2527 2 28.857 2 28.4444V3.55556C2 3.143 2.16389 2.74733 2.45561 2.45561C2.74733 2.16389 3.143 2 3.55556 2H28.4444C28.857 2 29.2527 2.16389 29.5444 2.45561C29.8361 2.74733 30 3.143 30 3.55556V28.4444C30 28.857 29.8361 29.2527 29.5444 29.5444C29.2527 29.8361 28.857 30 28.4444 30H21.292V30Z" fill="currentColor"/>
</svg>
