<svg viewBox="0 0 32 32" fill="none" xmlns="http://www.w3.org/2000/svg">
<path d="M16 12.0003C14.9391 12.0003 13.9217 12.4218 13.1715 13.1719C12.4214 13.922 12 14.9395 12 16.0003C12 17.0612 12.4214 18.0786 13.1715 18.8288C13.9217 19.5789 14.9391 20.0003 16 20.0003C17.0608 20.0003 18.0782 19.5789 18.8284 18.8288C19.5785 18.0786 20 17.0612 20 16.0003C20 14.9395 19.5785 13.922 18.8284 13.1719C18.0782 12.4218 17.0608 12.0003 16 12.0003ZM16 9.33366C17.7681 9.33366 19.4638 10.036 20.714 11.2863C21.9642 12.5365 22.6666 14.2322 22.6666 16.0003C22.6666 17.7684 21.9642 19.4641 20.714 20.7144C19.4638 21.9646 17.7681 22.667 16 22.667C14.2318 22.667 12.5362 21.9646 11.2859 20.7144C10.0357 19.4641 9.33329 17.7684 9.33329 16.0003C9.33329 14.2322 10.0357 12.5365 11.2859 11.2863C12.5362 10.036 14.2318 9.33366 16 9.33366V9.33366ZM24.6666 9.00033C24.6666 9.44235 24.491 9.86628 24.1785 10.1788C23.8659 10.4914 23.442 10.667 23 10.667C22.5579 10.667 22.134 10.4914 21.8214 10.1788C21.5089 9.86628 21.3333 9.44235 21.3333 9.00033C21.3333 8.5583 21.5089 8.13437 21.8214 7.82181C22.134 7.50925 22.5579 7.33366 23 7.33366C23.442 7.33366 23.8659 7.50925 24.1785 7.82181C24.491 8.13437 24.6666 8.5583 24.6666 9.00033V9.00033ZM16 5.33366C12.7013 5.33366 12.1626 5.34299 10.628 5.41099C9.58263 5.46033 8.88129 5.60033 8.23063 5.85366C7.65196 6.07766 7.23463 6.34566 6.79063 6.79099C6.3733 7.19419 6.05243 7.68644 5.85196 8.23099C5.59863 8.88432 5.45863 9.58433 5.41063 10.6283C5.34129 12.1003 5.33329 12.615 5.33329 16.0003C5.33329 19.299 5.34263 19.8377 5.41063 21.3723C5.45996 22.4163 5.59996 23.119 5.85196 23.7683C6.07863 24.3483 6.34529 24.7657 6.78796 25.2083C7.23729 25.6563 7.65463 25.9243 8.22796 26.1457C8.88663 26.4003 9.58796 26.5417 10.628 26.5897C12.1 26.659 12.6146 26.667 16 26.667C19.2986 26.667 19.8373 26.6577 21.372 26.5897C22.4146 26.5403 23.1173 26.4003 23.768 26.1483C24.3453 25.923 24.7653 25.655 25.208 25.2123C25.6573 24.763 25.9253 24.3457 26.1466 23.7723C26.4 23.115 26.5413 22.4123 26.5893 21.3723C26.6586 19.9003 26.6666 19.3857 26.6666 16.0003C26.6666 12.7017 26.6573 12.163 26.5893 10.6283C26.54 9.58566 26.4 8.88166 26.1466 8.23099C25.9457 7.68699 25.6254 7.19494 25.2093 6.79099C24.8063 6.37345 24.314 6.05255 23.7693 5.85233C23.116 5.59899 22.4146 5.45899 21.372 5.41099C19.9 5.34166 19.3853 5.33366 16 5.33366ZM16 2.66699C19.6226 2.66699 20.0746 2.68033 21.496 2.74699C22.916 2.81366 23.8826 3.03633 24.7333 3.36699C25.6133 3.70566 26.3546 4.16433 27.096 4.90433C27.774 5.57085 28.2986 6.37711 28.6333 7.26699C28.9626 8.11632 29.1866 9.08432 29.2533 10.5043C29.316 11.9257 29.3333 12.3777 29.3333 16.0003C29.3333 19.623 29.32 20.075 29.2533 21.4963C29.1866 22.9163 28.9626 23.883 28.6333 24.7337C28.2995 25.624 27.7748 26.4305 27.096 27.0963C26.4292 27.7741 25.623 28.2987 24.7333 28.6337C23.884 28.963 22.916 29.187 21.496 29.2537C20.0746 29.3163 19.6226 29.3337 16 29.3337C12.3773 29.3337 11.9253 29.3203 10.504 29.2537C9.08396 29.187 8.11729 28.963 7.26663 28.6337C6.37639 28.2996 5.57 27.7749 4.90396 27.0963C4.22583 26.4299 3.7012 25.6236 3.36663 24.7337C3.03596 23.8843 2.81329 22.9163 2.74663 21.4963C2.68396 20.075 2.66663 19.623 2.66663 16.0003C2.66663 12.3777 2.67996 11.9257 2.74663 10.5043C2.81329 9.08299 3.03596 8.11766 3.36663 7.26699C3.70027 6.37656 4.22503 5.57009 4.90396 4.90433C5.57019 4.22597 6.37653 3.7013 7.26663 3.36699C8.11729 3.03633 9.08263 2.81366 10.504 2.74699C11.9253 2.68433 12.3773 2.66699 16 2.66699Z" fill="currentColor"/>
</svg>
