<svg viewBox="0 0 32 32" fill="none" xmlns="http://www.w3.org/2000/svg">
<path d="M25.8544 25.8607H21.7089V19.3631C21.7089 17.8138 21.6778 15.8196 19.5467 15.8196C17.386 15.8196 17.0562 17.5058 17.0562 19.2496V25.8607H12.9091V12.5H16.8913V14.32H16.9458C17.5027 13.2716 18.856 12.1624 20.8782 12.1624C25.0782 12.1624 25.856 14.9282 25.856 18.5262V25.8607H25.8544ZM8.22689 10.6722C7.91042 10.6726 7.59698 10.6106 7.30454 10.4896C7.0121 10.3686 6.74642 10.1912 6.52271 9.9673C6.29901 9.74345 6.12168 9.47765 6.00091 9.18513C5.88013 8.89261 5.81827 8.57914 5.81889 8.26267C5.8192 7.78641 5.96072 7.32094 6.22557 6.92512C6.49042 6.52929 6.8667 6.2209 7.30682 6.03893C7.74695 5.85695 8.23115 5.80958 8.69819 5.9028C9.16524 5.99601 9.59415 6.22563 9.9307 6.56261C10.2672 6.89959 10.4963 7.3288 10.5889 7.79597C10.6815 8.26314 10.6335 8.74727 10.451 9.18716C10.2685 9.62705 9.95957 10.0029 9.56341 10.2673C9.16724 10.5316 8.70159 10.6725 8.22533 10.6722H8.22689ZM10.3051 25.8607H6.14711V12.5H10.3067V25.8607H10.3051ZM27.9311 2H4.06733C2.92244 2 2 2.90222 2 4.01756V27.9824C2 29.0978 2.924 30 4.06578 30H27.9249C29.0667 30 30 29.0978 30 27.9824V4.01756C30 2.90222 29.0667 2 27.9249 2H27.9296H27.9311Z" fill="currentColor"/>
</svg>
