<svg viewBox="0 0 32 32" fill="none" xmlns="http://www.w3.org/2000/svg">
<path d="M16 2.66699C8.6333 2.66699 2.66663 8.63366 2.66663 16.0003C2.66512 18.7994 3.54505 21.5278 5.18158 23.7986C6.81812 26.0693 9.12815 27.7671 11.784 28.651C12.4506 28.767 12.7 28.367 12.7 28.0163C12.7 27.7003 12.6826 26.651 12.6826 25.5337C9.33329 26.151 8.46663 24.7177 8.19996 23.967C8.04929 23.583 7.39996 22.4003 6.83329 22.083C6.36663 21.8337 5.69996 21.2163 6.81596 21.2003C7.86663 21.183 8.61596 22.167 8.86663 22.567C10.0666 24.583 11.984 24.0163 12.7493 23.667C12.8666 22.8003 13.216 22.2177 13.6 21.8843C10.6333 21.551 7.53329 20.4003 7.53329 15.3003C7.53329 13.8497 8.04929 12.651 8.89996 11.7163C8.76663 11.383 8.29996 10.0163 9.03329 8.18299C9.03329 8.18299 10.1493 7.83366 12.7 9.55099C13.7854 9.24974 14.9068 9.09812 16.0333 9.10033C17.1666 9.10033 18.3 9.24966 19.3666 9.54966C21.916 7.81633 23.0333 8.18433 23.0333 8.18433C23.7666 10.0177 23.3 11.3843 23.1666 11.7177C24.016 12.651 24.5333 13.8337 24.5333 15.3003C24.5333 20.4177 21.4173 21.551 18.4506 21.8843C18.9333 22.3003 19.3506 23.1003 19.3506 24.351C19.3506 26.1337 19.3333 27.567 19.3333 28.0177C19.3333 28.367 19.584 28.783 20.2506 28.6497C22.8973 27.7561 25.1972 26.055 26.8265 23.7859C28.4558 21.5167 29.3325 18.7938 29.3333 16.0003C29.3333 8.63366 23.3666 2.66699 16 2.66699Z" fill="currentColor"/>
</svg>
