<svg viewBox="0 0 32 32" fill="none" xmlns="http://www.w3.org/2000/svg">
<path d="M27.3086 8.80531C27.1994 8.37694 26.8889 8.0535 26.5338 7.95431C25.9056 7.7775 22.8438 7.375 16.375 7.375C9.90625 7.375 6.84725 7.7775 6.21331 7.95431C5.86256 8.05206 5.55206 8.3755 5.44138 8.80531C5.28469 9.41481 4.875 11.9693 4.875 16C4.875 20.0307 5.28469 22.5838 5.44138 23.1961C5.55063 23.6231 5.86113 23.9465 6.21475 24.0443C6.84725 24.2225 9.90625 24.625 16.375 24.625C22.8438 24.625 25.9042 24.2225 26.5367 24.0457C26.8874 23.9479 27.1979 23.6245 27.3086 23.1947C27.4653 22.5852 27.875 20.025 27.875 16C27.875 11.975 27.4653 9.41625 27.3086 8.80531ZM30.0931 8.09088C30.75 10.6525 30.75 16 30.75 16C30.75 16 30.75 21.3475 30.0931 23.9091C29.7279 25.3251 28.6599 26.4391 27.3072 26.8158C24.8505 27.5 16.375 27.5 16.375 27.5C16.375 27.5 7.90381 27.5 5.44281 26.8158C4.08437 26.4334 3.01775 25.3208 2.65694 23.9091C2 21.3475 2 16 2 16C2 16 2 10.6525 2.65694 8.09088C3.02206 6.67494 4.09012 5.56087 5.44281 5.18425C7.90381 4.5 16.375 4.5 16.375 4.5C16.375 4.5 24.8505 4.5 27.3072 5.18425C28.6656 5.56662 29.7322 6.67925 30.0931 8.09088V8.09088ZM13.5 21.0312V10.9688L22.125 16L13.5 21.0312Z" fill="currentColor"/>
</svg>
