<svg viewBox="0 0 32 32" fill="none" xmlns="http://www.w3.org/2000/svg">
<path d="M9.25338 6.66654C9.25302 7.37378 8.97173 8.05192 8.47139 8.55176C7.97104 9.05161 7.29262 9.33222 6.58538 9.33187C5.87813 9.33152 5.2 9.05022 4.70015 8.54988C4.2003 8.04953 3.91969 7.37111 3.92004 6.66387C3.9204 5.95662 4.20169 5.27849 4.70204 4.77864C5.20238 4.27879 5.8808 3.99818 6.58804 3.99854C7.29529 3.99889 7.97342 4.28018 8.47327 4.78053C8.97312 5.28087 9.25373 5.95929 9.25338 6.66654V6.66654ZM9.33338 11.3065H4.00004V27.9999H9.33338V11.3065ZM17.76 11.3065H12.4534V27.9999H17.7067V19.2399C17.7067 14.3599 24.0667 13.9065 24.0667 19.2399V27.9999H29.3334V17.4265C29.3334 9.19987 19.92 9.50654 17.7067 13.5465L17.76 11.3065V11.3065Z" fill="currentColor"/>
</svg>
