<svg viewBox="0 0 32 32" fill="none" xmlns="http://www.w3.org/2000/svg">
<path d="M22.7222 14.7V10.7L28.815 15.6428C29.0617 15.843 29.0617 16.2236 28.815 16.4237L22.7222 21.3666V17.3666H10.8889V14.7H22.7222Z" fill="currentColor"/>
<path d="M16.1474 29C8.88608 29 3 23.1799 3 16C3 8.8201 8.88608 3 16.1474 3C18.1887 2.99849 20.2023 3.46771 22.0281 4.37039C23.8539 5.27307 25.4417 6.58433 26.6653 8.2H23.1023C21.5841 6.87629 19.7119 6.01387 17.7102 5.71622C15.7086 5.41858 13.6626 5.69835 11.8178 6.52198C9.97299 7.3456 8.40771 8.67809 7.3098 10.3595C6.21189 12.041 5.62799 14 5.62816 16.0014C5.62833 18.0029 6.21256 19.9618 7.31075 21.6431C8.40895 23.3243 9.97445 24.6566 11.8194 25.4799C13.6643 26.3032 15.7104 26.5826 17.712 26.2847C19.7135 25.9867 21.5857 25.124 23.1037 23.8H26.6666C25.4429 25.4158 23.8549 26.7272 22.0288 27.6299C20.2028 28.5326 18.1889 29.0017 16.1474 29Z" fill="currentColor"/>
</svg>
