<svg viewBox="0 0 32 32" fill="none" xmlns="http://www.w3.org/2000/svg">
<path d="M32 14.3129V17.6879C32 17.8546 31.9373 18.0006 31.812 18.1259C31.77 18.2512 31.645 18.3139 31.437 18.3139H9.12399V22.3139C9.12399 22.5226 9.01965 22.6892 8.81099 22.8139C8.56099 22.8972 8.35265 22.8556 8.18599 22.6889L1.31099 16.4389C1.18565 16.3969 1.12299 16.2719 1.12299 16.0639C1.12299 15.8972 1.18565 15.7512 1.31099 15.6259L8.18599 9.31291C8.35265 9.14624 8.56099 9.10457 8.81099 9.18791C9.01965 9.31324 9.12399 9.47991 9.12399 9.68791V13.6879H31.437C31.6457 13.6879 31.7707 13.7506 31.812 13.8759C31.9373 14.0012 32 14.1472 32 14.3139V14.3129Z" fill="currentColor"/>
</svg>
