<svg viewBox="0 0 32 32" fill="none" xmlns="http://www.w3.org/2000/svg">
<g clip-path="url(#clip0_72_64)">
<path d="M22.813 23.188C22.8963 23.438 22.8547 23.6464 22.688 23.813L16.438 30.688C16.396 30.8134 16.271 30.876 16.063 30.876C15.8963 30.876 15.7503 30.8134 15.625 30.688L9.31199 23.813C9.14532 23.6464 9.10366 23.438 9.18699 23.188C9.31232 22.9794 9.47899 22.875 9.68699 22.875H13.687V0.562023C13.687 0.353357 13.7497 0.228357 13.875 0.187023C14.0003 0.0616901 14.1463 -0.000976562 14.313 -0.000976562H17.688C17.8547 -0.000976562 18.0007 0.0616901 18.126 0.187023C18.2513 0.229023 18.314 0.354023 18.314 0.562023V22.875H22.314C22.5227 22.875 22.6883 22.9794 22.813 23.188Z" fill="currentColor"/>
</g>
<defs>
<clipPath id="clip0_72_64">
<rect width="32" height="32" fill="white"/>
</clipPath>
</defs>
</svg>
