<svg viewBox="0 0 32 32" fill="none" xmlns="http://www.w3.org/2000/svg">
<g clip-path="url(#clip0_72_60)">
<path d="M30.875 15.9379C30.875 16.1046 30.8123 16.2506 30.687 16.3759L23.812 22.6889C23.6453 22.8556 23.437 22.8973 23.187 22.8139C22.9783 22.6886 22.874 22.5219 22.874 22.3139V18.3139H0.560986C0.352319 18.3139 0.227319 18.2513 0.185986 18.1259C0.0606525 18.0006 -0.00201416 17.8546 -0.00201416 17.6879V14.3129C-0.00201416 14.1463 0.0606525 14.0003 0.185986 13.8749C0.227986 13.7496 0.352986 13.6869 0.560986 13.6869H22.874V9.68693C22.874 9.47826 22.9783 9.3116 23.187 9.18693C23.437 9.1036 23.6453 9.14526 23.812 9.31193L30.687 15.5619C30.8123 15.6039 30.875 15.7299 30.875 15.9379Z" fill="currentColor"/>
</g>
<defs>
<clipPath id="clip0_72_60">
<rect width="32" height="32" fill="white"/>
</clipPath>
</defs>
</svg>
