<svg viewBox="0 0 32 32" fill="none" xmlns="http://www.w3.org/2000/svg">
<g clip-path="url(#clip0_72_58)">
<path d="M22.813 8.813C22.6877 9.02167 22.521 9.126 22.313 9.126H18.313V31.439C18.313 31.6477 18.2503 31.7727 18.125 31.814C17.9997 31.9393 17.8537 32.002 17.687 32.002H14.312C14.1453 32.002 13.9993 31.9393 13.874 31.814C13.7487 31.772 13.686 31.647 13.686 31.439V9.126H9.68601C9.47735 9.126 9.31068 9.02167 9.18601 8.813C9.10268 8.563 9.14435 8.35467 9.31101 8.188L15.561 1.313C15.603 1.18767 15.728 1.125 15.936 1.125C16.1027 1.125 16.2487 1.18767 16.374 1.313L22.687 8.188C22.8537 8.35467 22.8963 8.563 22.813 8.813Z" fill="currentColor"/>
</g>
<defs>
<clipPath id="clip0_72_58">
<rect width="32" height="32" fill="white"/>
</clipPath>
</defs>
</svg>
