<svg viewBox="0 0 32 32" fill="none" xmlns="http://www.w3.org/2000/svg">
<path d="M30 11.25C30.5 11.25 30.9167 11.427 31.25 11.781C31.5833 12.135 31.75 12.5413 31.75 13V13.25L29.75 28.688C29.6667 29.1467 29.4583 29.5217 29.125 29.813C28.7917 30.1043 28.4167 30.2503 28 30.251H3.99999C3.58332 30.251 3.20832 30.105 2.87499 29.813C2.54165 29.521 2.33332 29.146 2.24999 28.688L0.249988 13.25C0.207988 12.75 0.332988 12.3123 0.624988 11.937C0.916988 11.5617 1.29199 11.3323 1.74999 11.249H30V11.25ZM15.625 14.438C15.0417 14.438 14.5103 14.6463 14.031 15.063C13.5517 15.4797 13.208 16.0213 13 16.688C12.9167 17.0213 12.875 17.334 12.875 17.626C12.875 18.168 13 18.689 13.25 19.189C13.5 19.689 13.8333 20.085 14.25 20.377L14.375 20.44L13.375 20.94L10.687 22.128C10.437 22.2533 10.312 22.4617 10.312 22.753V24.191C11.7707 25.6497 13.5207 26.379 15.562 26.379C17.812 26.379 19.6037 25.5873 20.937 24.004L21 23.941V22.816C21 22.524 20.875 22.3157 20.625 22.191L20.562 22.128L17.999 20.94L16.936 20.377C17.436 20.085 17.811 19.6473 18.061 19.064C18.2697 18.564 18.374 18.0847 18.374 17.626C18.374 17.376 18.3323 17.0843 18.249 16.751C18.0823 16.0843 17.7593 15.5323 17.28 15.095C16.8007 14.6577 16.2487 14.439 15.624 14.439L15.625 14.438ZM27.25 6.31299C27.6667 6.31299 28.0313 6.46932 28.344 6.78199C28.6567 7.09465 28.813 7.47999 28.813 7.93799C28.813 8.39599 28.6567 8.77099 28.344 9.06299C28.0313 9.35499 27.6667 9.50099 27.25 9.50099H4.06199C3.60332 9.50099 3.21799 9.34465 2.90599 9.03199C2.59399 8.71932 2.43765 8.35465 2.43699 7.93799C2.43699 7.47932 2.59332 7.09399 2.90599 6.78199C3.21865 6.46999 3.60399 6.31365 4.06199 6.31299H27.25ZM24.5 1.93799C24.9587 1.93799 25.344 2.09432 25.656 2.40699C25.968 2.71966 26.1243 3.08432 26.125 3.50099C26.1257 3.91765 25.959 4.29265 25.625 4.62599C25.291 4.95932 24.916 5.12599 24.5 5.12599H7.49999C7.08332 5.12599 6.70832 4.95932 6.37499 4.62599C6.04165 4.29265 5.87499 3.91765 5.87499 3.50099C5.87499 3.08432 6.03132 2.71966 6.34399 2.40699C6.65665 2.09432 7.04199 1.93799 7.49999 1.93799H24.5Z" fill="currentColor"/>
</svg>
