<svg viewBox="0 0 32 32" fill="none" xmlns="http://www.w3.org/2000/svg">
<path d="M9.98413 2C10.13 2 10.2577 2.05483 10.3674 2.16449C10.4403 2.2374 10.4767 2.34677 10.4767 2.49259V25.515C10.4767 25.6976 10.4038 25.8434 10.258 25.9525L2.71135 29.9449C2.6746 29.9816 2.60169 30 2.49261 30C2.38353 30 2.27416 29.9452 2.16449 29.8355C2.05483 29.7259 2 29.6165 2 29.5074V6.48497C2 6.3024 2.09129 6.15657 2.27387 6.0475L9.76626 2.05512C9.80301 2.01837 9.87592 2 9.985 2L9.98413 2ZM29.5074 2C29.6171 2 29.7264 2.05483 29.8355 2.16449C29.9446 2.27415 29.9994 2.38352 30 2.49259V25.515C30 25.6976 29.9087 25.8434 29.7261 25.9525L22.2337 29.9449C22.197 29.9816 22.1241 30 22.015 30C21.8692 30 21.7414 29.9452 21.6318 29.8355C21.5588 29.7626 21.5224 29.6532 21.5224 29.5074V6.48497C21.5224 6.3024 21.5953 6.15657 21.7411 6.0475L29.2878 2.05512C29.3245 2.01837 29.3983 2 29.5074 2ZM12.0079 2C12.1176 2 12.1905 2.01837 12.2267 2.05512L20.2108 6.0475C20.3934 6.12041 20.4847 6.26623 20.4847 6.48497V29.5074C20.4847 29.5803 20.4482 29.6897 20.3753 29.8355C20.2656 29.9452 20.1379 30 19.9921 30C19.8824 30 19.8095 29.9816 19.7733 29.9449L11.7892 25.9525C11.6066 25.8796 11.5153 25.7338 11.5153 25.515V2.49259C11.5153 2.41968 11.5518 2.31031 11.6247 2.16449C11.7344 2.05483 11.8621 2 12.0079 2Z" fill="currentColor"/>
</svg>
