<svg viewBox="0 0 32 32" fill="none" xmlns="http://www.w3.org/2000/svg">
<path d="M23.2312 21.2336C23.368 21.0969 28.9844 16.1805 28.9844 16.1805L28.0273 15.7703C27.4805 15.5023 27.6227 15.1414 27.7539 14.8187C27.8852 14.4031 28.8531 11.1383 28.8531 11.1383C28.8531 11.1383 26.2445 11.6852 25.6977 11.8219C25.2875 11.9531 25.1508 11.6852 25.0141 11.4117C24.8773 11.1383 24.1937 9.63984 24.1937 9.63984C24.1937 9.63984 21.3172 12.9156 21.1805 13.0469C20.6336 13.457 20.0813 13.0469 20.218 12.5C20.218 11.9531 21.7273 5.4125 21.7273 5.4125C21.7273 5.4125 20.0813 6.36406 19.5344 6.6375C19.1242 6.91094 18.8453 6.91094 18.5719 6.36406C18.293 5.95391 16.2367 2 16.2367 2C16.2367 2 14.1859 5.95391 13.9125 6.36406C13.6391 6.91094 13.3656 6.91094 12.95 6.6375C12.4031 6.36406 10.757 5.4125 10.757 5.4125C10.757 5.4125 12.2664 11.9531 12.2664 12.5C12.4031 13.0469 11.8562 13.457 11.3039 13.0469C11.1672 12.9102 8.29062 9.63984 8.29062 9.63984C8.29062 9.63984 7.60703 11.1328 7.47031 11.4062C7.33359 11.6797 7.19687 11.9477 6.78672 11.8164C6.23437 11.6797 3.63125 11.1328 3.63125 11.1328C3.63125 11.1328 4.59375 14.3977 4.73047 14.8133C4.86172 15.1414 5.00391 15.4969 4.45703 15.7648L3.5 16.1805C3.5 16.1805 9.11094 21.0969 9.25312 21.2336C9.53203 21.507 9.8 21.6438 9.53203 22.4641C9.25313 23.2844 8.97969 24.3836 8.97969 24.3836C8.97969 24.3836 14.1859 23.2844 14.7383 23.1477C15.2141 23.0984 15.7391 23.2844 15.7391 23.8313C15.7391 24.3781 15.4219 30 15.4219 30H17.0625C17.0625 30 16.7453 24.3836 16.7453 23.8313C16.7453 23.2789 17.2648 23.0984 17.7516 23.1477C18.2984 23.2844 23.5047 24.3836 23.5047 24.3836C23.5047 24.3836 23.2312 23.2844 22.9578 22.4641C22.6844 21.6438 22.9578 21.507 23.2312 21.2336V21.2336Z" fill="currentColor"/>
</svg>
