<svg viewBox="0 0 32 32" fill="none" xmlns="http://www.w3.org/2000/svg">
<path d="M13.9459 2V4.50037H5.94642C5.57607 4.50037 5.24276 4.63014 4.94648 4.88969C4.6502 5.14923 4.4834 5.46419 4.44607 5.83455V26.0561C4.44607 26.4638 4.58502 26.8063 4.86293 27.0836C5.14084 27.361 5.46497 27.4999 5.83531 27.5005H26.0563C26.4266 27.5005 26.7507 27.3708 27.0286 27.1112C27.3065 26.8517 27.4639 26.5367 27.5006 26.1663V17.9995H29.9449V27.4996C29.9449 28.2036 29.704 28.7962 29.2223 29.2774C28.7405 29.7585 28.1663 29.9994 27.4997 30H4.44518C3.77855 30 3.20437 29.7591 2.72262 29.2774C2.24087 28.7956 2 28.203 2 27.4996V4.50037C2 3.79639 2.24087 3.20381 2.72262 2.72264C3.20437 2.24147 3.77855 2.00059 4.44518 2H13.9459ZM27.5557 2.11111C28.2597 2.11111 28.843 2.34251 29.3058 2.80531C29.7686 3.26811 30 3.8515 30 4.55547V12.8334H27.6108V6.94473C27.6108 6.31483 27.3794 5.75929 26.9166 5.27812C26.4539 4.79695 25.9075 4.5377 25.2776 4.50037H19.222V2.11111H27.5557ZM28.889 2.83375L29.1112 3.00086C29.3334 3.2604 29.4445 3.55669 29.4445 3.88972C29.4445 4.22274 29.3334 4.50066 29.1112 4.72347L16.7786 17.0564C16.5191 17.2786 16.2228 17.3897 15.8898 17.3897C15.5568 17.3897 15.2789 17.2786 15.0561 17.0564L14.889 16.8893C14.2964 16.2967 14.2964 15.7042 14.889 15.1116L27.1664 2.83375C27.759 2.24118 28.3331 2.24118 28.889 2.83375Z" fill="currentColor"/>
</svg>
