<svg viewBox="0 0 32 32" fill="none" xmlns="http://www.w3.org/2000/svg">
<path d="M29.9719 7.80383C29.9563 7.08525 29.7374 6.34823 29.2812 5.69643C28.4804 4.54923 27.2374 3.92394 25.8152 4.00741C24.0364 4.11812 21.7831 4.87916 19.6039 5.61457L18.5205 5.97774C17.625 6.27589 16.769 6.31836 15.6852 6.37239C14.2781 6.44254 12.5289 6.52879 10.063 7.24238C6.34381 8.32076 3.77693 10.183 2.64251 12.626C2.22072 13.5319 2.02219 14.5081 2.01546 15.5077C2.01282 15.5103 2.00009 15.522 2.00009 15.522V18.5489C1.99453 19.6422 2.23579 20.7671 2.72151 21.8641C4.02258 24.7919 7.78883 27 11.4834 27C14.0598 27 16.4523 25.9783 18.4025 24.0441C20.1098 22.3522 20.723 21.2618 21.3768 20.1082C21.8289 19.3089 22.2919 18.4849 23.1984 17.3799C23.9747 16.4324 24.9684 15.9694 26.0201 15.4794C27.5101 14.7848 29.0508 14.0666 29.8117 11.9813C29.9507 11.596 30.0123 11.1835 29.9928 10.766L30 7.83355C29.9914 7.81964 29.9791 7.81261 29.9719 7.80383ZM4.01351 13.2644C4.9592 11.2295 7.19616 9.64998 10.483 8.69696C12.7789 8.03125 14.361 7.95319 15.7585 7.88305C16.9106 7.82667 17.9067 7.7763 18.996 7.41357L20.0866 7.04821C22.1725 6.34369 24.3295 5.61457 25.9084 5.51675L26.0667 5.51236C26.8564 5.51236 27.5742 5.8953 28.0407 6.56305C28.4577 7.15994 28.5913 7.87602 28.3897 8.43117C27.8432 9.92645 26.7574 10.4344 25.379 11.0761C24.2756 11.5915 23.0239 12.1753 22.0278 13.3894C21.041 14.5951 20.5404 15.4779 20.0585 16.3345C19.4358 17.4395 18.8952 18.3937 17.3365 19.9383C15.6755 21.5873 13.6522 22.4563 11.4824 22.4563C8.04135 22.4563 5.02753 20.3009 4.10319 18.2193C3.5705 17.0161 3.12238 15.1843 4.01351 13.2644Z" fill="currentColor"/>
<path d="M11.4836 20.941C13.2708 20.941 14.882 20.2425 16.2726 18.8605C17.6797 17.4673 18.1482 16.6396 18.7393 15.5922C19.2304 14.721 19.7856 13.7366 20.8592 12.4276C22.0735 10.9467 23.5544 10.2568 24.7422 9.70284C26.1752 9.03362 26.6653 8.74748 26.9685 7.91161C26.9819 7.85318 26.949 7.63938 26.8013 7.43012C26.6958 7.27841 26.4583 7.02434 26.0678 7.02434C24.6231 7.11293 22.5635 7.80837 20.5742 8.48081L19.4749 8.84969C18.1873 9.27744 17.047 9.33411 15.8375 9.39488C14.5177 9.46034 13.0294 9.53517 10.9046 10.1502C8.04955 10.9776 6.14059 12.2742 5.38363 13.9008C4.73258 15.3048 5.07961 16.6897 5.48618 17.6033C6.19897 19.209 8.69503 20.941 11.4836 20.941ZM11.3495 12.5396C13.3201 12.5396 14.9177 13.6617 14.9177 15.0484C14.9177 16.4326 13.3201 17.5565 11.3495 17.5565C9.37724 17.5565 7.77932 16.4324 7.77932 15.0484C7.77932 13.6617 9.37724 12.5396 11.3495 12.5396Z" fill="currentColor"/>
</svg>
