<svg viewBox="0 0 32 32" fill="none" xmlns="http://www.w3.org/2000/svg">
<path d="M9.35714 7H13.6429C13.7376 7 13.8284 7.13546 13.8954 7.37658C13.9624 7.6177 14 7.94472 14 8.28571V23.7143C14 24.0553 13.9624 24.3823 13.8954 24.6234C13.8284 24.8645 13.7376 25 13.6429 25H9.35714C9.26242 25 9.17158 24.8645 9.1046 24.6234C9.03763 24.3823 9 24.0553 9 23.7143V8.28571C9 7.94472 9.03763 7.6177 9.1046 7.37658C9.17158 7.13546 9.26242 7 9.35714 7Z" fill="currentColor"/>
<path d="M18.3571 7H22.6429C22.7376 7 22.8284 7.13546 22.8954 7.37658C22.9624 7.6177 23 7.94472 23 8.28571V23.7143C23 24.0553 22.9624 24.3823 22.8954 24.6234C22.8284 24.8645 22.7376 25 22.6429 25H18.3571C18.2624 25 18.1716 24.8645 18.1046 24.6234C18.0376 24.3823 18 24.0553 18 23.7143V8.28571C18 7.94472 18.0376 7.6177 18.1046 7.37658C18.1716 7.13546 18.2624 7 18.3571 7Z" fill="currentColor"/>
</svg>
