<svg viewBox="0 0 32 32" fill="none" xmlns="http://www.w3.org/2000/svg">
<path d="M16 17.7773L3.70263 25.976C3.60223 26.0428 3.4856 26.0811 3.36515 26.0869C3.2447 26.0927 3.12494 26.0656 3.01863 26.0087C2.91231 25.9518 2.82343 25.8671 2.76144 25.7637C2.69946 25.6602 2.66669 25.5419 2.66663 25.4213V6.57868C2.66669 6.45809 2.69946 6.33977 2.76144 6.23633C2.82343 6.1329 2.91231 6.04821 3.01863 5.99129C3.12494 5.93437 3.2447 5.90735 3.36515 5.91312C3.4856 5.91888 3.60223 5.9572 3.70263 6.02401L16 14.2227V6.57868C16 6.45809 16.0328 6.33977 16.0948 6.23633C16.1568 6.1329 16.2456 6.04821 16.352 5.99129C16.4583 5.93437 16.578 5.90735 16.6985 5.91312C16.8189 5.91888 16.9356 5.9572 17.036 6.02401L31.168 15.4453C31.2593 15.5062 31.3341 15.5887 31.3859 15.6855C31.4377 15.7822 31.4648 15.8903 31.4648 16C31.4648 16.1098 31.4377 16.2178 31.3859 16.3146C31.3341 16.4113 31.2593 16.4938 31.168 16.5547L17.036 25.976C16.9356 26.0428 16.8189 26.0811 16.6985 26.0869C16.578 26.0927 16.4583 26.0656 16.352 26.0087C16.2456 25.9518 16.1568 25.8671 16.0948 25.7637C16.0328 25.6602 16 25.5419 16 25.4213V17.7773V17.7773Z" fill="currentColor"/>
</svg>
