<svg viewBox="0 0 32 32" fill="none" xmlns="http://www.w3.org/2000/svg">
<path d="M18.1314 17.7773L30.4288 25.976C30.5292 26.0428 30.6458 26.0811 30.7663 26.0869C30.8867 26.0927 31.0065 26.0656 31.1128 26.0087C31.2191 25.9518 31.308 25.8671 31.37 25.7637C31.4319 25.6602 31.4647 25.5419 31.4648 25.4213V6.57868C31.4647 6.45809 31.4319 6.33977 31.37 6.23633C31.308 6.1329 31.2191 6.04821 31.1128 5.99129C31.0065 5.93437 30.8867 5.90735 30.7663 5.91312C30.6458 5.91888 30.5292 5.9572 30.4288 6.02401L18.1314 14.2227V6.57868C18.1314 6.45809 18.0986 6.33977 18.0366 6.23633C17.9746 6.1329 17.8858 6.04821 17.7794 5.99129C17.6731 5.93437 17.5534 5.90735 17.4329 5.91312C17.3125 5.91888 17.1958 5.9572 17.0954 6.02401L2.96344 15.4453C2.87214 15.5062 2.79727 15.5887 2.7455 15.6855C2.69372 15.7822 2.66663 15.8903 2.66663 16C2.66663 16.1098 2.69372 16.2178 2.7455 16.3146C2.79727 16.4113 2.87214 16.4938 2.96344 16.5547L17.0954 25.976C17.1958 26.0428 17.3125 26.0811 17.4329 26.0869C17.5534 26.0927 17.6731 26.0656 17.7794 26.0087C17.8858 25.9518 17.9746 25.8671 18.0366 25.7637C18.0986 25.6602 18.1314 25.5419 18.1314 25.4213V17.7773Z" fill="currentColor"/>
</svg>
