<svg viewBox="0 0 32 32" fill="none" xmlns="http://www.w3.org/2000/svg">
<path d="M6.66667 13.2054C5.2 13.2054 4 14.389 4 15.8355C4 17.2821 5.2 18.4657 6.66667 18.4657C8.13333 18.4657 9.33333 17.2821 9.33333 15.8355C9.33333 14.389 8.13333 13.2054 6.66667 13.2054ZM25.3333 13.2054C23.8667 13.2054 22.6667 14.389 22.6667 15.8355C22.6667 17.2821 23.8667 18.4657 25.3333 18.4657C26.8 18.4657 28 17.2821 28 15.8355C28 14.389 26.8 13.2054 25.3333 13.2054ZM16 13.2054C14.5333 13.2054 13.3333 14.389 13.3333 15.8355C13.3333 17.2821 14.5333 18.4657 16 18.4657C17.4667 18.4657 18.6667 17.2821 18.6667 15.8355C18.6667 14.389 17.4667 13.2054 16 13.2054Z" fill="currentColor"/>
<path d="M6.66667 4C5.2 4 4 5.18356 4 6.63014C4 8.07671 5.2 9.26027 6.66667 9.26027C8.13333 9.26027 9.33333 8.07671 9.33333 6.63014C9.33333 5.18356 8.13333 4 6.66667 4ZM25.3333 4C23.8667 4 22.6667 5.18356 22.6667 6.63014C22.6667 8.07671 23.8667 9.26027 25.3333 9.26027C26.8 9.26027 28 8.07671 28 6.63014C28 5.18356 26.8 4 25.3333 4ZM16 4C14.5333 4 13.3333 5.18356 13.3333 6.63014C13.3333 8.07671 14.5333 9.26027 16 9.26027C17.4667 9.26027 18.6667 8.07671 18.6667 6.63014C18.6667 5.18356 17.4667 4 16 4Z" fill="currentColor"/>
<path d="M6.66667 22.7397C5.2 22.7397 4 23.9233 4 25.3699C4 26.8164 5.2 28 6.66667 28C8.13333 28 9.33333 26.8164 9.33333 25.3699C9.33333 23.9233 8.13333 22.7397 6.66667 22.7397ZM25.3333 22.7397C23.8667 22.7397 22.6667 23.9233 22.6667 25.3699C22.6667 26.8164 23.8667 28 25.3333 28C26.8 28 28 26.8164 28 25.3699C28 23.9233 26.8 22.7397 25.3333 22.7397ZM16 22.7397C14.5333 22.7397 13.3333 23.9233 13.3333 25.3699C13.3333 26.8164 14.5333 28 16 28C17.4667 28 18.6667 26.8164 18.6667 25.3699C18.6667 23.9233 17.4667 22.7397 16 22.7397Z" fill="currentColor"/>
</svg>
