<svg viewBox="0 0 32 32" fill="none" xmlns="http://www.w3.org/2000/svg">
<path d="M18.6667 6.66667C18.6667 5.2 17.4667 4 16.0001 4C14.5334 4 13.3334 5.2 13.3334 6.66667C13.3334 8.13333 14.5334 9.33333 16.0001 9.33333C17.4667 9.33333 18.6667 8.13333 18.6667 6.66667ZM18.6667 25.3333C18.6667 23.8667 17.4667 22.6667 16.0001 22.6667C14.5334 22.6667 13.3334 23.8667 13.3334 25.3333C13.3334 26.8 14.5334 28 16.0001 28C17.4667 28 18.6667 26.8 18.6667 25.3333ZM18.6667 16C18.6667 14.5333 17.4667 13.3333 16.0001 13.3333C14.5334 13.3333 13.3334 14.5333 13.3334 16C13.3334 17.4667 14.5334 18.6667 16.0001 18.6667C17.4667 18.6667 18.6667 17.4667 18.6667 16Z" fill="currentColor"/>
</svg>
