<svg viewBox="0 0 32 32" fill="none" xmlns="http://www.w3.org/2000/svg">
<path d="M29 23.6935V25.918C29 26.2386 28.9009 26.4791 28.7027 26.6393C28.4653 26.8798 28.2079 27 27.9306 27H4.06936C3.79205 27 3.53468 26.8798 3.29726 26.6393C3.09909 26.4791 3 26.2386 3 25.918V23.6935C3 23.3729 3.09909 23.1123 3.29726 22.9116C3.57457 22.7109 3.83194 22.6106 4.06936 22.6106H27.9306C28.1681 22.6106 28.4254 22.7109 28.7027 22.9116C28.9009 23.1123 29 23.3729 29 23.6935ZM29 14.9176V17.0815C29 17.4425 28.9009 17.7031 28.7027 17.8634C28.4653 18.1038 28.2079 18.224 27.9306 18.224H4.06936C3.79205 18.224 3.53468 18.1038 3.29726 17.8634C3.09909 17.7031 3 17.4425 3 17.0815V14.9176C3 14.5566 3.09909 14.2959 3.29726 14.1357C3.53468 13.8952 3.79205 13.775 4.06936 13.775H27.9306C28.2079 13.775 28.4653 13.8952 28.7027 14.1357C28.9009 14.2959 29 14.5566 29 14.9176ZM29 6.08197V8.30649C29 8.62707 28.9009 8.88771 28.7027 9.08839C28.4254 9.28908 28.1681 9.38942 27.9306 9.38942H4.06936C3.83194 9.38942 3.57457 9.28908 3.29726 9.08839C3.09909 8.88771 3 8.62707 3 8.30649V6.08197C3 5.76138 3.09909 5.52095 3.29726 5.36066C3.53468 5.12022 3.79205 5 4.06936 5H27.9306C28.2079 5 28.4653 5.12022 28.7027 5.36066C28.9009 5.52095 29 5.76138 29 6.08197Z" fill="currentColor"/>
</svg>
