<svg viewBox="0 0 32 32" fill="none" xmlns="http://www.w3.org/2000/svg">
<path d="M16.125 21.25C19.0251 21.25 21.375 18.9001 21.375 16V7.25C21.375 4.34992 19.0251 2 16.125 2C13.2249 2 10.875 4.34992 10.875 7.25V16C10.875 18.8984 13.1773 21.25 16.125 21.25ZM24.4375 12.5C23.7102 12.5 23.125 13.0852 23.125 13.7633V16C23.125 20.0102 19.736 23.2406 15.6711 22.9836C12.0573 22.7556 9.125 19.342 9.125 15.7211V13.7633C9.125 13.0852 8.53711 12.5 7.8125 12.5C7.08789 12.5 6.5 13.0852 6.5 13.7633V15.5215C6.5 20.4248 9.99836 24.7965 14.8125 25.4582V27.375H12.625C11.6302 27.375 10.8291 28.2052 10.8772 29.2109C10.8985 29.6609 11.3016 30 11.75 30H20.5C20.9496 30 21.3515 29.6601 21.3728 29.2109C21.4187 28.2063 20.6203 27.375 19.625 27.375H17.4375V25.5282C22.1242 24.8867 25.75 20.8617 25.75 16V13.7633C25.75 13.0852 25.1648 12.5 24.4375 12.5Z" fill="currentColor"/>
</svg>
