<svg viewBox="0 0 32 32" fill="none" xmlns="http://www.w3.org/2000/svg">
<path d="M23.9375 12.5C23.2102 12.5 22.625 13.0851 22.625 13.7632V16C22.625 20.0102 19.236 23.2406 15.1711 22.9835C11.5573 22.7556 8.625 19.3419 8.625 15.721V13.7632C8.625 13.0851 8.03711 12.5 7.3125 12.5C6.58789 12.5 6 13.0851 6 13.7632V15.5214C6 20.4247 9.49836 24.7964 14.3125 25.4582V27.375H12.125C11.1302 27.375 10.3291 28.2051 10.3772 29.2108C10.3985 29.6609 10.8016 30 11.25 30H20C20.4496 30 20.8515 29.66 20.8728 29.2108C20.9187 28.2062 20.1203 27.375 19.125 27.375H16.9375V25.5282C21.6242 24.8867 25.25 20.8617 25.25 16V13.7632C25.25 13.0851 24.6648 12.5 23.9375 12.5Z" fill="currentColor"/>
<path fill-rule="evenodd" clip-rule="evenodd" d="M15.7 2.19995C18.7374 2.19995 21.1997 4.66256 21.2 7.69995V15.7C21.2 18.7375 18.7375 21.2 15.7 21.2C12.6624 21.2 10.2 18.7375 10.2 15.7V7.69995C10.2002 4.66257 12.6625 2.19995 15.7 2.19995ZM15.7 4.60034C13.8223 4.60039 12.3007 6.12213 12.3005 7.99976V15.2C12.3005 17.0777 13.8222 18.6003 15.7 18.6003C17.5777 18.6003 19.1003 17.0777 19.1003 15.2V7.99976C19.1002 6.1221 17.5776 4.60034 15.7 4.60034Z" fill="currentColor"/>
</svg>
