<svg viewBox="0 0 32 32" fill="none" xmlns="http://www.w3.org/2000/svg">
<path d="M13.9996 3V5.36164H5.94387C5.53618 5.36164 5.19368 5.4959 4.91635 5.76441C4.63903 6.03292 4.50007 6.34609 4.49948 6.70391V26.1879C4.49948 26.5457 4.62925 26.8677 4.8888 27.154C5.14834 27.4403 5.4633 27.6014 5.83366 27.6375H26.0552C26.4629 27.6375 26.8054 27.5032 27.0828 27.2347C27.3601 26.9662 27.499 26.6531 27.4996 26.2952V18.4589H30V27.6375C30 28.2816 29.7591 28.8364 29.2774 29.3018C28.7956 29.7673 28.203 30 27.4996 30H4.50037C3.79639 30 3.20381 29.7673 2.72264 29.3018C2.24147 28.8364 2.00059 28.2816 2 27.6375V5.3625C2 4.68235 2.24088 4.1187 2.72264 3.67156C3.20441 3.22443 3.79698 3.00086 4.50037 3.00086H14.0005L13.9996 3ZM15.8333 18.458C15.1294 18.458 14.546 18.2253 14.0832 17.7598C13.6204 17.2944 13.389 16.7219 13.389 16.0423V8.09857H15.7782V13.7347C15.7782 14.3788 16.0096 14.9244 16.4724 15.3716C16.9352 15.8187 17.4816 16.0603 18.1115 16.0964H24.1673V18.458H15.8342H15.8333ZM14.5 17.7066L14.3329 17.5451C13.7404 17.0081 13.7404 16.4533 14.3329 15.8808L26.6108 4.01851C27.2033 3.44599 27.7776 3.44599 28.3334 4.01851L28.5005 4.17996C29.0931 4.71698 29.0931 5.27176 28.5005 5.84427L16.2227 17.7066C15.6301 18.2791 15.0559 18.2791 14.5 17.7066Z" fill="currentColor"/>
</svg>
