<svg viewBox="0 0 32 32" fill="none" xmlns="http://www.w3.org/2000/svg">
<path d="M15.2062 3C14.2473 3.89346 13.4782 4.97088 12.9448 6.16801C12.4114 7.36514 12.1245 8.65744 12.1014 9.96783C12.0783 11.2782 12.3194 12.5798 12.8102 13.795C13.3011 15.0102 14.0317 16.1141 14.9585 17.0408C15.8852 17.9676 16.9892 18.6981 18.2044 19.189C19.4197 19.6798 20.7214 19.9209 22.0318 19.8977C23.3423 19.8746 24.6346 19.5878 25.8318 19.0544C27.029 18.521 28.1065 17.7519 29 16.7931C28.5862 23.6051 22.9307 29 16.0143 29C8.82593 29 3 23.1744 3 15.9876C3 9.07157 8.3952 3.4164 15.2062 3Z" fill="currentColor"/>
</svg>
