<svg viewBox="0 0 32 32" fill="none" xmlns="http://www.w3.org/2000/svg">
<path d="M3 15.9873C3.00017 9.07144 8.39522 3.41646 15.2061 3C14.2472 3.89344 13.4777 4.97087 12.9443 6.16797C12.411 7.36504 12.1247 8.65746 12.1016 9.96777L12.1055 10.459C12.1429 11.6025 12.3811 12.7317 12.8105 13.7949C13.3014 15.0101 14.0313 16.1143 14.958 17.041C15.8847 17.9677 16.9889 18.6986 18.2041 19.1895C19.2675 19.6189 20.3973 19.8572 21.541 19.8945L22.0322 19.8975C23.1788 19.8772 24.3117 19.6557 25.3789 19.2432L25.832 19.0547C27.0292 18.5213 28.1065 17.7518 29 16.793C28.5862 23.6048 22.9309 28.9998 16.0146 29V27C20.1876 26.9999 23.8163 24.6777 25.6836 21.2568C24.5207 21.6568 23.3012 21.8757 22.0674 21.8975C20.4884 21.9253 18.9194 21.6344 17.4551 21.043C15.991 20.4515 14.6605 19.5716 13.5439 18.4551C12.4273 17.3385 11.5475 16.0081 10.9561 14.5439C10.3646 13.0797 10.0737 11.5115 10.1016 9.93262C10.1233 8.69924 10.3415 7.47989 10.7412 6.31738C7.32106 8.18575 5.00012 11.8153 5 15.9873C5 22.0692 9.9306 27 16.0146 27V29L15.6787 28.9961C8.64546 28.8181 3 23.0619 3 15.9873Z" fill="currentColor"/>
</svg>
