<svg viewBox="0 0 32 32" fill="none" xmlns="http://www.w3.org/2000/svg">
<path d="M29.4258 5.32936C30.3691 4.39314 30.1094 2.80012 28.9199 2.20514C28.2571 1.87702 27.4707 1.94538 26.8757 2.3897L15.732 10.7012H24.0117L29.4258 5.32936ZM29.125 12.4512H2.875C2.38965 12.4512 2 12.8408 2 13.3261V15.0761C2 15.5614 2.38965 15.9511 2.875 15.9511L3.70078 16.0003C3.70078 20.4299 6.44883 24.2087 10.3234 25.7563C9.62617 26.6794 9.13398 27.7661 8.95625 28.9626C8.93437 29.5024 9.33906 30 9.88594 30H22.1086C22.6555 30 23.0662 29.501 22.9907 28.961C22.813 27.7644 22.3208 26.6778 21.6235 25.7547C25.5047 24.2087 28.2008 20.4299 28.2008 16.0003L29.125 15.9511C29.6104 15.9511 30 15.5614 30 15.0761V13.3261C30 12.8887 29.6117 12.4512 29.125 12.4512Z" fill="currentColor"/>
</svg>
