<svg viewBox="0 0 32 32" fill="none" xmlns="http://www.w3.org/2000/svg">
<path d="M4.66663 26H27.3336V6H4.66663V26ZM29.3336 26.6758C29.3312 27.0259 29.1905 27.3616 28.943 27.6094L28.8463 27.6973C28.6117 27.89 28.3166 27.9976 28.0104 28H3.98889C3.6819 27.9996 3.38627 27.8923 3.151 27.6992L3.05432 27.6113C2.80632 27.3631 2.66663 27.0267 2.66663 26.6758V5.32422C2.66907 4.97406 2.8088 4.63836 3.05627 4.39062C3.30366 4.14299 3.63888 4.0029 3.98889 4H28.0104C28.741 4 29.3336 4.59355 29.3336 5.32422V26.6758Z" fill="currentColor"/>
<path d="M21.3843 15.5853C21.6786 15.7835 21.6786 16.2165 21.3843 16.4147L13.7793 21.5372C13.4472 21.7609 13 21.523 13 21.1225L13 10.8775C13 10.477 13.4472 10.2391 13.7793 10.4628L21.3843 15.5853Z" fill="currentColor"/>
</svg>
