<svg viewBox="0 0 32 32" fill="none" xmlns="http://www.w3.org/2000/svg">
<path d="M2.66663 5.324C2.66907 4.97384 2.80916 4.63869 3.05664 4.39096C3.30413 4.14322 3.63913 4.00279 3.98929 4H28.0106C28.7413 4 29.3333 4.59333 29.3333 5.324V26.676C29.3309 27.0262 29.1908 27.3613 28.9433 27.609C28.6958 27.8568 28.3608 27.9972 28.0106 28H3.98929C3.63838 27.9996 3.30196 27.86 3.05395 27.6117C2.80594 27.3635 2.66663 27.0269 2.66663 26.676V5.324ZM5.33329 6.66667V9.33333H7.99996V6.66667H5.33329ZM24 6.66667V9.33333H26.6666V6.66667H24ZM5.33329 12V14.6667H7.99996V12H5.33329ZM24 12V14.6667H26.6666V12H24ZM5.33329 17.3333V20H7.99996V17.3333H5.33329ZM24 17.3333V20H26.6666V17.3333H24ZM5.33329 22.6667V25.3333H7.99996V22.6667H5.33329ZM24 22.6667V25.3333H26.6666V22.6667H24Z" fill="currentColor"/>
</svg>
