<svg viewBox="0 0 32 32" fill="none" xmlns="http://www.w3.org/2000/svg">
<path d="M2.66663 5.324C2.66907 4.97384 2.80916 4.63869 3.05664 4.39096C3.30413 4.14322 3.63913 4.00279 3.98929 4H28.0106C28.7413 4 29.3333 4.59333 29.3333 5.324V26.676C29.3309 27.0262 29.1908 27.3613 28.9433 27.609C28.6958 27.8568 28.3608 27.9972 28.0106 28H3.98929C3.63838 27.9996 3.30196 27.86 3.05395 27.6117C2.80594 27.3635 2.66663 27.0269 2.66663 26.676V5.324ZM14.1626 11.22C14.0824 11.1665 13.9891 11.1357 13.8928 11.131C13.7964 11.1262 13.7006 11.1477 13.6155 11.1931C13.5304 11.2386 13.4592 11.3062 13.4095 11.3889C13.3598 11.4716 13.3335 11.5662 13.3333 11.6627V20.3373C13.3335 20.4338 13.3598 20.5284 13.4095 20.6111C13.4592 20.6938 13.5304 20.7614 13.6155 20.8069C13.7006 20.8523 13.7964 20.8738 13.8928 20.869C13.9891 20.8643 14.0824 20.8335 14.1626 20.78L20.668 16.444C20.7411 16.3953 20.8011 16.3293 20.8426 16.2518C20.8841 16.1744 20.9058 16.0879 20.9058 16C20.9058 15.9121 20.8841 15.8256 20.8426 15.7482C20.8011 15.6707 20.7411 15.6047 20.668 15.556L14.1613 11.22H14.1626Z" fill="currentColor"/>
</svg>
