<svg viewBox="0 0 32 32" fill="none" xmlns="http://www.w3.org/2000/svg">
<path d="M16.083 2C24.137 2 30.6668 7.7455 30.667 14.833H21.5L23.6514 25.917C23.8268 26.6379 22.4868 29.9999 20.0068 30V27.5C20.0314 27.5 20.0934 27.499 20.2246 27.4082C20.3741 27.3047 20.5607 27.1163 20.7471 26.8379C20.9306 26.5637 21.0625 26.2783 21.1338 26.0664L18.4678 12.333H27.8008C26.5161 7.99271 21.9685 4.5 16.083 4.5C10.1978 4.50013 5.65072 7.99272 4.36621 12.333H13.9697L11.5557 26.2871C11.5593 26.3118 11.5636 26.3413 11.5703 26.375C11.6112 26.5808 11.695 26.8398 11.8174 27.0742C11.942 27.3129 12.0586 27.4348 12.1191 27.4814C12.1483 27.5039 12.1425 27.5 12.1689 27.5V30C9.65906 30 8.86115 26.6457 9.08301 25.917L11 14.833H1.5C1.5002 7.7456 8.02913 2.00015 16.083 2ZM20.0068 27.5V30H12.1689V27.5H20.0068Z" fill="currentColor"/>
</svg>
