<svg viewBox="0 0 32 32" fill="none" xmlns="http://www.w3.org/2000/svg">
<path fill-rule="evenodd" clip-rule="evenodd" d="M17.2718 0C19.7204 0.000377447 21.8842 1.58565 22.6116 3.91211L26.7435 17.1299C27.863 20.7119 25.1726 24.3475 21.4027 24.3477H18.7298L20.0316 29.5654C20.1364 29.9957 19.3327 31.9997 17.847 32H13.1497C11.6457 31.9998 10.8331 29.9996 10.9661 29.5654L12.6292 24.3477H9.59699C5.75772 24.3473 3.05998 20.5864 4.30793 16.9736L8.87531 3.75586C9.65176 1.50908 11.7756 0.000243175 14.1634 0H17.2718ZM13.5111 20.1738C13.1742 20.1739 12.8484 20.2949 12.5941 20.5146C11.6182 21.3589 12.218 22.9558 13.5111 22.9561H16.7132C17.9722 22.9559 18.5906 21.4296 17.6829 20.5615C17.4226 20.3127 17.0742 20.1739 16.7132 20.1738H13.5111ZM23.9681 16.459C23.4058 16.3518 22.8193 16.6306 22.5413 17.1377L21.0657 19.8301C20.6212 20.6416 21.0674 21.6036 21.9671 21.7754L23.1448 22C24.0312 22.1691 24.8914 21.481 24.9017 20.5947L24.9349 17.624C24.9413 17.0508 24.5412 16.5686 23.9681 16.459ZM8.23078 14.6084C7.65952 14.6084 7.1659 15.0065 7.04719 15.5625L6.12434 19.8848C5.93988 20.75 6.60352 21.5654 7.4925 21.5654H8.8802C9.75795 21.5653 10.4185 20.7698 10.2532 19.9121L9.41828 15.5859C9.30886 15.0192 8.8107 14.6086 8.23078 14.6084ZM18.1595 14.6084C17.1945 14.6086 16.5194 15.5586 16.8411 16.4639L17.5833 18.5508C17.781 19.1064 18.3094 19.4784 18.9017 19.4785H19.2025C19.81 19.4782 20.348 19.0874 20.5335 18.5117L21.2054 16.4248C21.4942 15.5271 20.8207 14.6085 19.8734 14.6084H18.1595ZM13.2933 13.9131C12.701 13.9132 12.1735 14.2852 11.9759 14.8408L11.2337 16.9277C10.912 17.833 11.586 18.7821 12.5511 18.7822H14.265C15.2122 18.7821 15.8857 17.8645 15.597 16.9668L14.9251 14.8799C14.7397 14.3039 14.2009 13.9132 13.5931 13.9131H13.2933ZM21.305 9.04395C20.7127 9.044 20.1843 9.41511 19.9866 9.9707L19.2445 12.0576C18.9226 12.9629 19.5977 13.913 20.5628 13.9131H22.2777C23.2246 13.9126 23.8975 12.9942 23.6087 12.0967L22.9368 10.0098C22.7513 9.4342 22.2133 9.04415 21.6058 9.04395H21.305ZM10.0892 8.34766C9.4968 8.34766 8.96847 8.71973 8.77082 9.27539L8.02864 11.3623C7.70687 12.2675 8.3811 13.2175 9.34602 13.2178H11.0609C12.008 13.2175 12.6817 12.299 12.3929 11.4014L11.721 9.31445C11.5356 8.7386 10.9967 8.34782 10.389 8.34766H10.0892ZM14.9554 7.65234C13.9902 7.65234 13.3151 8.60244 13.637 9.50781L14.3782 11.5947C14.5759 12.1502 15.1045 12.5213 15.6966 12.5215H15.9974C16.6051 12.5213 17.143 12.1305 17.3284 11.5547L18.0003 9.46777C18.289 8.57009 17.6155 7.65245 16.6683 7.65234H14.9554ZM12.4925 2.08691C11.9001 2.08691 11.3718 2.45899 11.1741 3.01465L10.432 5.10156C10.1103 6.00685 10.7852 6.95605 11.7503 6.95605H13.4642C14.4113 6.95573 15.0849 6.03823 14.7962 5.14062L14.1243 3.05371C13.9389 2.47785 13.4 2.08702 12.7923 2.08691H12.4925ZM17.3577 2.08691C16.3928 2.08722 15.7176 3.03719 16.0394 3.94238L16.7816 6.0293C16.9792 6.5848 17.5077 6.95586 18.0999 6.95605H18.4007C19.0084 6.95599 19.5472 6.56599 19.7327 5.99023L20.4036 3.90332C20.6925 3.00565 20.0198 2.08716 19.0726 2.08691H17.3577Z" fill="currentColor"/>
</svg>
