<svg viewBox="0 0 32 32" fill="none" xmlns="http://www.w3.org/2000/svg">
<path d="M26.6667 4V22.6667C26.6665 23.8407 26.2788 24.9818 25.564 25.913C24.8491 26.8443 23.8469 27.5136 22.7129 27.8173C21.5788 28.121 20.3763 28.042 19.2917 27.5925C18.2071 27.1431 17.3012 26.3484 16.7143 25.3316C16.1274 24.3148 15.8924 23.1328 16.0457 21.9689C16.1991 20.8049 16.7322 19.7241 17.5624 18.894C18.3925 18.0639 19.4734 17.5309 20.6374 17.3777C21.8013 17.2245 22.9833 17.4597 24 18.0467V8H12V22.6667C11.9998 23.8407 11.6122 24.9818 10.8973 25.913C10.1824 26.8443 9.18026 27.5136 8.04622 27.8173C6.91217 28.121 5.70961 28.042 4.62504 27.5925C3.54048 27.1431 2.6345 26.3484 2.04761 25.3316C1.46073 24.3148 1.22573 23.1328 1.37907 21.9689C1.5324 20.8049 2.0655 19.7241 2.89569 18.894C3.72588 18.0639 4.80676 17.5309 5.97072 17.3777C7.13468 17.2245 8.31667 17.4597 9.33338 18.0467V4H26.6667Z" fill="currentColor"/>
</svg>
