<svg viewBox="0 0 32 32" fill="none" xmlns="http://www.w3.org/2000/svg">
<path d="M29 4V22.6676C28.9997 23.8417 28.6172 24.9828 27.9118 25.9141C27.2063 26.8454 26.2173 27.5148 25.0982 27.8185C23.9791 28.1222 22.7923 28.0432 21.722 27.5937C20.6517 27.1443 19.7577 26.3495 19.1785 25.3327C18.5994 24.3159 18.3675 23.1338 18.5188 21.9698C18.6701 20.8058 19.1962 19.7249 20.0154 18.8948C20.8347 18.0646 21.9014 17.5316 23.05 17.3784C24.1987 17.2252 25.3651 17.4603 26.3684 18.0474V6.6668H14.5263V22.6676C14.5261 23.8417 14.1435 24.9828 13.4381 25.9141C12.7326 26.8454 11.7436 27.5148 10.6245 27.8185C9.50539 28.1222 8.31866 28.0432 7.24836 27.5937C6.17806 27.1443 5.284 26.3495 4.70484 25.3327C4.12568 24.3159 3.89377 23.1338 4.04509 21.9698C4.19641 20.8058 4.72249 19.7249 5.54176 18.8948C6.36102 18.0646 7.42769 17.5316 8.57633 17.3784C9.72497 17.2252 10.8914 17.4603 11.8947 18.0474V4H29ZM9.26316 25.3344C9.9611 25.3344 10.6305 25.0534 11.124 24.5533C11.6175 24.0532 11.8947 23.3749 11.8947 22.6676C11.8947 21.9603 11.6175 21.282 11.124 20.7819C10.6305 20.2818 9.9611 20.0008 9.26316 20.0008C8.56523 20.0008 7.89587 20.2818 7.40236 20.7819C6.90884 21.282 6.63159 21.9603 6.63159 22.6676C6.63159 23.3749 6.90884 24.0532 7.40236 24.5533C7.89587 25.0534 8.56523 25.3344 9.26316 25.3344V25.3344ZM23.7368 25.3344C24.4348 25.3344 25.1041 25.0534 25.5977 24.5533C26.0912 24.0532 26.3684 23.3749 26.3684 22.6676C26.3684 21.9603 26.0912 21.282 25.5977 20.7819C25.1041 20.2818 24.4348 20.0008 23.7368 20.0008C23.0389 20.0008 22.3696 20.2818 21.876 20.7819C21.3825 21.282 21.1053 21.9603 21.1053 22.6676C21.1053 23.3749 21.3825 24.0532 21.876 24.5533C22.3696 25.0534 23.0389 25.3344 23.7368 25.3344Z" fill="currentColor"/>
</svg>
