<svg viewBox="0 0 32 32" fill="none" xmlns="http://www.w3.org/2000/svg">
<path d="M24.7813 26.6668H5.3333C5.20949 26.6668 5.08813 26.6323 4.98281 26.5672C4.87749 26.5021 4.79238 26.409 4.73701 26.2982C4.68165 26.1875 4.65821 26.0635 4.66933 25.9402C4.68045 25.8169 4.72568 25.6991 4.79997 25.6001L5.3333 24.8894V13.3334C5.3333 11.5601 5.7653 9.88809 6.53197 8.41742L1.8573 3.74409L3.74397 1.85742L30.1426 28.2574L28.256 30.1428L24.7813 26.6668ZM8.54397 10.4294C8.18346 11.3551 7.99896 12.34 7.99997 13.3334V24.0001H22.1146L8.54397 10.4294ZM26.6666 21.0481L24 18.3814V13.3334C24.0002 11.9303 23.6314 10.5518 22.9306 9.33625C22.2298 8.12068 21.2216 7.11082 20.0073 6.40798C18.7929 5.70515 17.415 5.33407 16.0119 5.33198C14.6088 5.32989 13.2298 5.69687 12.0133 6.39609L10.08 4.46009C11.6863 3.38838 13.5534 2.77282 15.4821 2.67907C17.4109 2.58532 19.3289 3.01691 21.0315 3.92778C22.7342 4.83866 24.1577 6.19466 25.1501 7.85113C26.1425 9.50761 26.6667 11.4024 26.6666 13.3334V21.0481ZM12.6666 28.0001H19.3333C19.3333 28.8841 18.9821 29.732 18.357 30.3571C17.7319 30.9822 16.884 31.3334 16 31.3334C15.1159 31.3334 14.2681 30.9822 13.6429 30.3571C13.0178 29.732 12.6666 28.8841 12.6666 28.0001V28.0001Z" fill="currentColor"/>
</svg>
