<svg viewBox="0 0 32 32" fill="none" xmlns="http://www.w3.org/2000/svg">
<path d="M24.7813 26.6668H5.33333C5.20952 26.6668 5.08816 26.6323 4.98284 26.5672C4.87753 26.5021 4.79241 26.409 4.73705 26.2982C4.68168 26.1875 4.65824 26.0635 4.66936 25.9402C4.68048 25.8169 4.72571 25.6991 4.8 25.6001L5.33333 24.8894V13.3334C5.33333 11.5601 5.76533 9.88809 6.532 8.41742L1.85733 3.74409L3.744 1.85742L30.1427 28.2574L28.256 30.1428L24.7813 26.6668ZM26.6667 21.0481L10.0787 4.46009C11.685 3.38802 13.5522 2.77216 15.4812 2.67823C17.4101 2.58429 19.3284 3.01581 21.0313 3.92673C22.7341 4.83765 24.1578 6.19379 25.1503 7.85047C26.1428 9.50715 26.6669 11.4022 26.6667 13.3334V21.0481ZM12.6667 28.0001H19.3333C19.3333 28.8841 18.9821 29.732 18.357 30.3571C17.7319 30.9822 16.8841 31.3334 16 31.3334C15.1159 31.3334 14.2681 30.9822 13.643 30.3571C13.0179 29.732 12.6667 28.8841 12.6667 28.0001V28.0001Z" fill="currentColor"/>
</svg>
