<svg viewBox="0 0 32 32" fill="none" xmlns="http://www.w3.org/2000/svg">
<path d="M26.6667 24.8894L27.2 25.6001C27.2743 25.6991 27.3195 25.8169 27.3306 25.9402C27.3417 26.0635 27.3183 26.1875 27.2629 26.2982C27.2076 26.409 27.1225 26.5021 27.0171 26.5672C26.9118 26.6323 26.7905 26.6667 26.6667 26.6667H5.33332C5.20952 26.6667 5.08815 26.6323 4.98284 26.5672C4.87752 26.5021 4.79241 26.409 4.73704 26.2982C4.68167 26.1875 4.65823 26.0635 4.66935 25.9402C4.68047 25.8169 4.72571 25.6991 4.79999 25.6001L5.33332 24.8894V13.3334C5.33332 10.5044 6.45713 7.79133 8.45752 5.79094C10.4579 3.79055 13.171 2.66675 16 2.66675C18.829 2.66675 21.5421 3.79055 23.5425 5.79094C25.5428 7.79133 26.6667 10.5044 26.6667 13.3334V24.8894ZM12.6667 28.0001H19.3333C19.3333 28.8841 18.9821 29.732 18.357 30.3571C17.7319 30.9822 16.884 31.3334 16 31.3334C15.1159 31.3334 14.2681 30.9822 13.643 30.3571C13.0178 29.732 12.6667 28.8841 12.6667 28.0001V28.0001Z" fill="currentColor"/>
</svg>
