<svg viewBox="0 0 32 32" fill="none" xmlns="http://www.w3.org/2000/svg">
<path d="M24 13.3334C24 11.2117 23.1572 9.17685 21.6569 7.67656C20.1566 6.17627 18.1218 5.33341 16 5.33341C13.8783 5.33341 11.8435 6.17627 10.3432 7.67656C8.84288 9.17685 8.00002 11.2117 8.00002 13.3334V24.0001H24V13.3334ZM26.6667 24.8894L27.2 25.6001C27.2743 25.6991 27.3195 25.8169 27.3307 25.9402C27.3418 26.0635 27.3183 26.1875 27.263 26.2982C27.2076 26.409 27.1225 26.5021 27.0172 26.5672C26.9119 26.6323 26.7905 26.6667 26.6667 26.6667H5.33335C5.20955 26.6667 5.08818 26.6323 4.98287 26.5672C4.87755 26.5021 4.79244 26.409 4.73707 26.2982C4.6817 26.1875 4.65826 26.0635 4.66938 25.9402C4.6805 25.8169 4.72574 25.6991 4.80002 25.6001L5.33335 24.8894V13.3334C5.33335 10.5044 6.45716 7.79133 8.45755 5.79094C10.4579 3.79055 13.171 2.66675 16 2.66675C18.829 2.66675 21.5421 3.79055 23.5425 5.79094C25.5429 7.79133 26.6667 10.5044 26.6667 13.3334V24.8894ZM12.6667 28.0001H19.3334C19.3334 28.8841 18.9822 29.732 18.357 30.3571C17.7319 30.9822 16.8841 31.3334 16 31.3334C15.116 31.3334 14.2681 30.9822 13.643 30.3571C13.0179 29.732 12.6667 28.8841 12.6667 28.0001V28.0001Z" fill="currentColor"/>
</svg>
