<svg viewBox="0 0 32 32" fill="none" xmlns="http://www.w3.org/2000/svg">
<path d="M25.7218 16.1781C24.7668 10.9112 21.3013 6.91391 17.0581 6.42211C17.5899 5.26695 18.9052 3.41983 21.8789 3.15677C22.1877 3.1339 22.4336 2.84797 22.3879 2.53344C22.365 2.20176 22.0791 1.97874 21.7645 2.00161C17.8759 2.35616 16.3433 5.02105 15.8286 6.38208C11.3166 6.55936 7.55947 10.671 6.56442 16.1838C5.38639 16.424 4.5 17.3104 4.5 18.3798C4.5 19.6264 5.70091 20.6443 7.18776 20.6443C8.11989 20.6443 8.94337 20.244 9.42946 19.6436C9.91554 20.244 10.739 20.6443 11.6712 20.6443C12.6033 20.6443 13.4268 20.244 13.9129 19.6436C14.3989 20.244 15.2224 20.6443 16.1546 20.6443C17.0867 20.6443 17.9102 20.244 18.3963 19.6436C18.8823 20.244 19.7058 20.6443 20.638 20.6443C21.5701 20.6443 22.3936 20.244 22.8797 19.6436C23.3658 20.244 24.1892 20.6443 25.1214 20.6443C26.6082 20.6443 27.8091 19.6207 27.8091 18.3798C27.7863 17.3104 26.8999 16.424 25.7218 16.1781Z" fill="currentColor"/>
<path d="M20.6093 21.7766C19.8087 21.7766 19.0081 21.5536 18.3676 21.1533C17.7443 21.5536 16.9437 21.7766 16.1431 21.7766C15.3425 21.7766 14.5419 21.5536 13.9014 21.1533C13.2552 21.5536 12.4775 21.7766 11.6769 21.7766C10.8762 21.7766 10.0756 21.5536 9.43515 21.1533C8.92619 21.4621 8.34861 21.6851 7.72528 21.7537C8.77179 26.5116 12.1458 30 16.1488 30C20.1519 30 23.5258 26.5116 24.5724 21.7537C23.949 21.6851 23.3714 21.4621 22.8625 21.1533C22.2106 21.5593 21.4328 21.7766 20.6093 21.7766Z" fill="currentColor"/>
</svg>
