<svg viewBox="0 0 32 32" fill="none" xmlns="http://www.w3.org/2000/svg">
<path d="M2 24H19V26H2V24ZM25 24H30V26H25V24ZM24 28C24 28.542 23.802 29.0107 23.406 29.406C23.01 29.8014 22.5413 29.9994 22 30C21.4587 30.0007 20.99 29.8027 20.594 29.406C20.198 29.0094 20 28.5407 20 28V22.062C20 21.4787 20.198 20.989 20.594 20.593C20.99 20.197 21.4587 19.999 22 19.999C22.5413 19.999 23.01 20.197 23.406 20.593C23.802 20.989 24 21.4787 24 22.062V28ZM2 15H7V17H2V15ZM13 15H30V17H13V15ZM12 19C12 19.542 11.802 20.0107 11.406 20.406C11.01 20.8014 10.5413 20.9994 10 21C9.45867 21.0007 8.99 20.8027 8.594 20.406C8.198 20.0094 8 19.5407 8 19V13.062C8 12.4787 8.198 11.989 8.594 11.593C8.99 11.197 9.45867 10.999 10 10.999C10.5413 10.999 11.01 11.197 11.406 11.593C11.802 11.989 12 12.4787 12 13.062V19ZM2 6.00002H19V8.00002H2V6.00002ZM25 6.00002H30V8.00002H25V6.00002ZM24 10C24 10.542 23.802 11.0107 23.406 11.406C23.01 11.8014 22.5413 11.9994 22 12C21.4587 12.0007 20.99 11.8027 20.594 11.406C20.198 11.0094 20 10.5407 20 10V4.06202C20 3.47869 20.198 2.98902 20.594 2.59302C20.99 2.19702 21.4587 1.99902 22 1.99902C22.5413 1.99902 23.01 2.19702 23.406 2.59302C23.802 2.98902 24 3.47869 24 4.06202V10Z" fill="currentColor"/>
</svg>
