<svg viewBox="0 0 32 32" fill="none" xmlns="http://www.w3.org/2000/svg">
<path d="M8.22663 23.9999C8.5021 23.2192 9.01294 22.5432 9.68876 22.065C10.3646 21.5868 11.1721 21.33 12 21.33C12.8278 21.33 13.6353 21.5868 14.3112 22.065C14.987 22.5432 15.4978 23.2192 15.7733 23.9999H29.3333V26.6666H15.7733C15.4978 27.4473 14.987 28.1234 14.3112 28.6015C13.6353 29.0797 12.8278 29.3365 12 29.3365C11.1721 29.3365 10.3646 29.0797 9.68876 28.6015C9.01294 28.1234 8.5021 27.4473 8.22663 26.6666H2.66663V23.9999H8.22663ZM16.2266 14.6666C16.5021 13.8859 17.0129 13.2098 17.6888 12.7316C18.3646 12.2535 19.1721 11.9967 20 11.9967C20.8278 11.9967 21.6353 12.2535 22.3112 12.7316C22.987 13.2098 23.4978 13.8859 23.7733 14.6666H29.3333V17.3333H23.7733C23.4978 18.114 22.987 18.79 22.3112 19.2682C21.6353 19.7464 20.8278 20.0032 20 20.0032C19.1721 20.0032 18.3646 19.7464 17.6888 19.2682C17.0129 18.79 16.5021 18.114 16.2266 17.3333H2.66663V14.6666H16.2266ZM8.22663 5.33326C8.5021 4.55255 9.01294 3.87651 9.68876 3.39832C10.3646 2.92012 11.1721 2.66333 12 2.66333C12.8278 2.66333 13.6353 2.92012 14.3112 3.39832C14.987 3.87651 15.4978 4.55255 15.7733 5.33326H29.3333V7.99993H15.7733C15.4978 8.78064 14.987 9.45669 14.3112 9.93488C13.6353 10.4131 12.8278 10.6699 12 10.6699C11.1721 10.6699 10.3646 10.4131 9.68876 9.93488C9.01294 9.45669 8.5021 8.78064 8.22663 7.99993H2.66663V5.33326H8.22663ZM12 7.99993C12.3536 7.99993 12.6927 7.85945 12.9428 7.60941C13.1928 7.35936 13.3333 7.02022 13.3333 6.6666C13.3333 6.31298 13.1928 5.97384 12.9428 5.72379C12.6927 5.47374 12.3536 5.33326 12 5.33326C11.6463 5.33326 11.3072 5.47374 11.0572 5.72379C10.8071 5.97384 10.6666 6.31298 10.6666 6.6666C10.6666 7.02022 10.8071 7.35936 11.0572 7.60941C11.3072 7.85945 11.6463 7.99993 12 7.99993V7.99993ZM20 17.3333C20.3536 17.3333 20.6927 17.1928 20.9428 16.9427C21.1928 16.6927 21.3333 16.3536 21.3333 15.9999C21.3333 15.6463 21.1928 15.3072 20.9428 15.0571C20.6927 14.8071 20.3536 14.6666 20 14.6666C19.6463 14.6666 19.3072 14.8071 19.0571 15.0571C18.8071 15.3072 18.6666 15.6463 18.6666 15.9999C18.6666 16.3536 18.8071 16.6927 19.0571 16.9427C19.3072 17.1928 19.6463 17.3333 20 17.3333V17.3333ZM12 26.6666C12.3536 26.6666 12.6927 26.5261 12.9428 26.2761C13.1928 26.026 13.3333 25.6869 13.3333 25.3333C13.3333 24.9796 13.1928 24.6405 12.9428 24.3905C12.6927 24.1404 12.3536 23.9999 12 23.9999C11.6463 23.9999 11.3072 24.1404 11.0572 24.3905C10.8071 24.6405 10.6666 24.9796 10.6666 25.3333C10.6666 25.6869 10.8071 26.026 11.0572 26.2761C11.3072 26.5261 11.6463 26.6666 12 26.6666V26.6666Z" fill="currentColor"/>
</svg>
