<svg viewBox="0 0 32 32" fill="none" xmlns="http://www.w3.org/2000/svg">
<path d="M27.5846 7.9747H26.5177V28.0665C26.5177 28.3402 26.3596 28.477 26.0435 28.477H11.0468V29.5314C11.0468 29.8438 11.2049 30 11.521 30H27.5846C27.8615 30 28 29.8438 28 29.5314V8.44424C28 8.13183 27.8615 7.97563 27.5846 7.97563V7.9747ZM24.9766 26.5426V5.45548C24.9766 5.14308 24.8381 4.98688 24.5612 4.98688H23.4943V25.0787C23.4943 25.3524 23.3362 25.4892 23.0201 25.4892H8.02342V26.5436C8.02342 26.856 8.16188 27.0122 8.43881 27.0122H24.5612C24.8381 27.0122 24.9766 26.855 24.9766 26.5426ZM21.9532 23.5558V2.4686C21.9532 2.1562 21.7951 2 21.479 2H5.41539C5.13846 2 5 2.1562 5 2.4686V23.5558C5 23.8682 5.13846 24.0244 5.41539 24.0244H21.479C21.7951 24.0244 21.9532 23.8682 21.9532 23.5558Z" fill="currentColor"/>
</svg>
