<svg viewBox="0 0 32 32" fill="none" xmlns="http://www.w3.org/2000/svg">
<path d="M25.6374 24.9762L27.9947 22.6189L30.3507 24.9762C30.817 25.4423 31.1345 26.0363 31.2632 26.6829C31.3919 27.3295 31.326 27.9998 31.0737 28.6089C30.8215 29.2181 30.3942 29.7387 29.846 30.1051C29.2979 30.4714 28.6533 30.6669 27.994 30.6669C27.3347 30.6669 26.6902 30.4714 26.142 30.1051C25.5938 29.7387 25.1666 29.2181 24.9143 28.6089C24.6621 27.9998 24.5961 27.3295 24.7248 26.6829C24.8535 26.0363 25.1711 25.4423 25.6374 24.9762ZM11.8374 1.44019L26.9227 16.5242C27.0467 16.648 27.145 16.7951 27.2121 16.9569C27.2792 17.1188 27.3137 17.2923 27.3137 17.4675C27.3137 17.6427 27.2792 17.8162 27.2121 17.9781C27.145 18.14 27.0467 18.287 26.9227 18.4109L15.6094 29.7242C15.3593 29.9741 15.0203 30.1146 14.6667 30.1146C14.3131 30.1146 13.9741 29.9741 13.724 29.7242L2.4107 18.4109C2.28673 18.287 2.18839 18.14 2.12129 17.9781C2.05419 17.8162 2.01965 17.6427 2.01965 17.4675C2.01965 17.2923 2.05419 17.1188 2.12129 16.9569C2.18839 16.7951 2.28673 16.648 2.4107 16.5242L12.7814 6.15352L9.95204 3.32552L11.84 1.44019H11.8374ZM14.6667 8.04019L5.2387 17.4669H24.0934L14.6667 8.04019Z" fill="currentColor"/>
</svg>
