<svg viewBox="0 0 32 32" fill="none" xmlns="http://www.w3.org/2000/svg">
<path d="M16 7.99992V27.9999H13.3333V21.3333C11.2116 21.3333 9.17675 20.4904 7.67646 18.9901C6.17617 17.4898 5.33331 15.455 5.33331 13.3333C5.33331 11.2115 6.17617 9.17669 7.67646 7.6764C9.17675 6.17611 11.2116 5.33325 13.3333 5.33325H26.6666V7.99992H22.6666V27.9999H20V7.99992H16ZM13.3333 7.99992C11.9188 7.99992 10.5623 8.56182 9.56208 9.56202C8.56188 10.5622 7.99998 11.9188 7.99998 13.3333C7.99998 14.7477 8.56188 16.1043 9.56208 17.1045C10.5623 18.1047 11.9188 18.6666 13.3333 18.6666V7.99992Z" fill="currentColor"/>
</svg>
