<svg viewBox="0 0 32 32" fill="none" xmlns="http://www.w3.org/2000/svg">
<path fill-rule="evenodd" clip-rule="evenodd" d="M16 2C18.6421 2 20.9857 2.61838 23.0312 3.85449C25.1621 5.13298 26.867 6.83793 28.1455 8.96875C29.3816 11.0143 30 13.3579 30 16C30 18.6421 29.3816 20.9857 28.1455 23.0312C26.867 25.1621 25.1621 26.867 23.0312 28.1455C20.9857 29.3816 18.6421 30 16 30C13.3579 30 11.0143 29.3816 8.96875 28.1455C6.83793 26.867 5.13298 25.1621 3.85449 23.0312C2.61838 20.9857 2 18.6421 2 16C2 13.3579 2.61838 11.0143 3.85449 8.96875C5.13298 6.83793 6.83793 5.13298 8.96875 3.85449C11.0143 2.61838 13.3579 2 16 2ZM8 19.9863V24H12.0127L21.3779 14.6357L17.3652 10.6221L8 19.9863ZM21.3779 7C21.1271 7.00003 20.8864 7.10003 20.709 7.27734L18.7031 9.28418L22.7158 13.2969L24.7227 11.291C24.9 11.1136 25 10.8729 25 10.6221C25 10.3712 24.9 10.1305 24.7227 9.95312L22.0469 7.27734C21.8695 7.1 21.6288 7 21.3779 7Z" fill="currentColor"/>
</svg>
