<svg viewBox="0 0 32 32" fill="none" xmlns="http://www.w3.org/2000/svg">
<path d="M26.2969 10.2907C27.3028 8.49168 27.2283 6.20465 26.032 4.52043C25.6785 4.01277 24.9862 3.88621 24.4758 4.24209C23.9709 4.59731 23.8458 5.29912 24.1994 5.80818C24.8749 6.78131 24.9086 8.04365 24.3915 9.07865C23.5828 8.69231 22.6875 8.45793 21.75 8.45793C20.0517 8.45793 18.5189 9.10621 17.3325 10.1417L21 11.7579V16.0001H25.245L26.8167 19.6672C27.8531 18.4798 28.5 16.947 28.5 15.2079C28.5 13.2814 27.6422 11.5282 26.2969 10.2907ZM19.5 17.5001V12.747L17.018 11.6834C14.6344 15.3111 13.3359 22.7501 7.125 22.7501C5.67797 22.7501 4.5 23.9267 4.5 25.3751C4.5 26.8236 5.67797 28.0001 7.125 28.0001C15.5766 28.0001 22.1297 23.8625 25.3734 20.1017L24.2578 17.5001H19.5Z" fill="currentColor"/>
</svg>
