<svg viewBox="0 0 32 32" fill="none" xmlns="http://www.w3.org/2000/svg">
<path d="M10.9001 7.98467C12.2648 7.98467 13.3711 6.86881 13.3711 5.49234C13.3711 4.11586 12.2648 3 10.9001 3C9.53532 3 8.42899 4.11586 8.42899 5.49234C8.42899 6.86881 9.53532 7.98467 10.9001 7.98467Z" fill="currentColor"/>
<path d="M29.8057 11.5116C29.2137 11.2598 28.58 10.9278 28.0687 10.566C27.8389 10.4043 27.7461 10.4693 27.8429 10.7338L28.0129 11.2005L26.0309 11.2123C25.6468 3.92868 19.092 3.24512 19.024 3.23897C18.608 3.20215 18.2351 3.51169 18.1976 3.93435C18.16 4.35594 18.4685 4.72996 18.887 4.76784C19.1092 4.7878 24.1508 5.31785 24.5064 11.221L20.4023 11.2455C20.2096 10.6203 19.6383 10.1633 18.9555 10.1633H13.6766C13.4437 9.61586 12.905 9.2321 12.2774 9.2321H9.61458L6.20295 7.51236C5.45063 7.13374 4.53645 7.44023 4.16106 8.19902C3.7852 8.95782 4.08955 9.87885 4.84134 10.2585L8.00134 11.8513V17.9063L4.96665 29.0583C4.74394 29.8758 5.22082 30.7202 6.03144 30.9453C6.1664 30.9821 6.30184 31 6.43527 31C7.10339 31 7.71624 30.5523 7.90192 29.8707L10.649 19.7761H11.1233L13.6684 29.8436C13.844 30.538 14.4629 31 15.1421 31C15.2664 31 15.3932 30.9852 15.519 30.952C16.3333 30.7432 16.8254 29.9066 16.6178 29.0853L13.7993 17.935V13.2339H18.9555C19.5957 13.2339 20.1411 12.8348 20.3663 12.2694C21.2572 12.2643 22.9205 12.2546 24.5084 12.2448C24.2989 17.4317 19.6824 18.9805 19.4831 19.0439C19.0818 19.1687 18.8575 19.5995 18.9818 20.0043C19.0833 20.3332 19.3836 20.5441 19.7083 20.5441C19.7829 20.5441 19.859 20.5333 19.9341 20.5103C19.9944 20.4919 25.8314 18.5849 26.0395 12.2361C26.8765 12.231 27.5923 12.2269 28.0189 12.2244L27.8535 12.692C27.7596 12.9586 27.8541 13.022 28.0818 12.8568C28.5891 12.4899 29.2187 12.1512 29.8077 11.8913C30.0649 11.7782 30.0639 11.6216 29.8057 11.5116Z" fill="currentColor"/>
</svg>
