<svg viewBox="0 0 32 32" fill="none" xmlns="http://www.w3.org/2000/svg">
<path d="M18.7501 6.83346C20.2683 6.83346 21.5 5.6017 21.5 4.08348C21.5 2.56526 20.2683 1.3335 18.7501 1.3335C17.2318 1.3335 16.0001 2.56526 16.0001 4.08348C16.0001 5.6017 17.2318 6.83346 18.7501 6.83346ZM9.58402 17.7818C10.0028 17.7818 10.3844 17.509 10.4932 17.1024L12.8491 8.03658C12.8689 7.96261 12.8784 7.88831 12.8784 7.81509C12.8784 7.41342 12.5928 7.04509 12.1686 6.94827C11.7834 6.85523 11.3996 6.81054 11.0215 6.81054C8.92173 6.81054 7.01107 8.17637 6.47711 10.2211L5.02947 15.8454C5.00952 15.9199 5 15.9943 5 16.0688C5 16.47 5.28422 16.8377 5.70812 16.9345L9.35485 17.8047C9.43162 17.8219 9.5084 17.7818 9.58402 17.7818ZM26.0833 10.5001H25.2182C24.7098 10.5001 24.3531 10.9083 24.3531 11.4168V12.3334H22.3623L19.6839 9.65506C18.9448 9.01626 18.0969 8.66678 17.1975 8.66678C15.6506 8.66678 14.31 9.71521 13.9319 11.2162L12.3907 17.3922C12.3563 17.5355 12.3334 17.6902 12.3334 17.8391C12.3334 18.3161 12.5205 18.781 12.8693 19.1299L17.8319 24.093V28.8333C17.8319 29.8428 18.6552 30.6666 19.6137 30.6666C20.5721 30.6666 21.447 29.8428 21.447 28.8333V24.0925C21.447 23.1116 21.0674 22.1944 20.3728 21.5L17.6875 18.8142C17.7019 18.7856 17.7162 18.7641 17.7233 18.7354L18.8176 14.1808L20.0992 15.463C20.549 15.8053 21.0131 16.0001 21.5 16.0001H24.1985V29.75C24.1985 30.2584 24.6067 30.6666 25.0636 30.6666H25.9287C26.5932 30.6666 27 30.2599 27 29.75V11.4168C27 10.9069 26.5932 10.5001 26.0833 10.5001ZM9.64131 28.3922C9.60281 28.5428 9.58442 28.6939 9.58442 28.8425C9.58442 29.6612 10.143 30.406 10.9732 30.6122C11.1246 30.6552 11.2735 30.6666 11.4168 30.6666C12.24 30.6666 12.9848 30.108 13.1412 29.2773L14.5878 23.4909L11.5657 20.4688L9.64131 28.3922Z" fill="currentColor"/>
</svg>
