<svg viewBox="0 0 32 32" fill="none" xmlns="http://www.w3.org/2000/svg">
<path d="M11.3537 18.6953C14.4346 18.6953 13.983 16.8012 15.9876 16.7845C18.0554 16.802 17.5338 18.6953 20.6497 18.6953C22.5585 18.6953 23.3581 17.8163 23.6736 17.5098L16.8489 11.9663C17.009 11.8857 18.3879 11.0973 20.5067 11.0973C21.1178 11.0973 21.7307 11.164 22.331 11.2984L24.2068 11.7206C24.3241 11.7473 24.4413 11.7601 24.5568 11.7601C25.3302 11.7601 26.1103 11.1485 26.1103 10.2303C26.1103 9.53417 25.6228 8.90438 24.9029 8.74252L23.0271 8.32025C22.1978 8.13384 21.352 8.04155 20.5087 8.04155C14.6708 8.04155 11.8855 12.1416 11.8515 12.2442L10.7073 13.6007C9.68647 14.9376 9.16636 16.4894 9.0497 18.108C9.65731 18.4757 10.4739 18.6953 11.3537 18.6953ZM30 22.3718C30 21.6489 29.4741 21.0067 28.724 20.8716C26.3655 20.4472 26.5123 19.464 25.3409 19.464C24.1247 19.464 23.8248 20.9819 20.6657 20.9819C18.3038 20.9819 17.1309 19.9286 17.0988 19.9019C16.8003 19.6079 16.4056 19.4632 16.009 19.4632C14.8059 19.4632 14.4734 20.982 11.3328 20.982C8.97096 20.982 7.79949 19.9301 7.76449 19.9034C7.46676 19.6094 7.06939 19.462 6.67274 19.462C6.28037 19.462 5.88917 19.6065 5.58488 19.887C4.17475 21.1403 2 20.4857 2 22.3736C2 23.1414 2.62073 23.9049 3.54138 23.9049C4.01628 23.9049 5.46871 23.5544 6.66497 22.8621C7.61575 23.4127 9.16636 24 11.3343 24C13.5022 24 15.0529 23.3736 16.0007 22.8226C16.9501 23.3731 18.5026 23.9967 20.6672 23.9967C22.8346 23.9967 24.3886 23.3717 25.3365 22.8211C26.5376 23.5168 27.9973 23.8634 28.4591 23.8634C29.3778 23.9045 30 23.1501 30 22.3718ZM6.62413 14.1116C8.34245 14.1116 9.73508 12.7437 9.73508 11.0558C9.73508 9.36795 8.34245 8 6.62413 8C4.90582 8 3.51319 9.36795 3.51319 11.0558C3.51319 12.7413 4.94957 14.1116 6.62413 14.1116Z" fill="currentColor"/>
</svg>
