<svg viewBox="0 0 32 32" fill="none" xmlns="http://www.w3.org/2000/svg">
<path d="M17.5 6.25C17.5 5.00734 18.5078 4 19.75 4C20.9922 4 22 5.00734 22 6.25C22 7.49266 20.9922 8.5 19.75 8.5C18.5078 8.5 17.5 7.49266 17.5 6.25ZM23.5 11.4578C24.3297 11.4578 25 12.1703 25 12.9578C25 13.8297 24.3297 14.4578 23.5 14.4578H20.5C20.1578 14.4578 19.8297 14.3828 19.5625 14.1297L17.6547 12.6437L14.8281 14.9172L16.8344 16.2531C17.2516 16.5297 17.5 16.9984 17.5 17.5V23.5C17.5 24.3297 16.8297 25 16 25C15.1703 25 14.5 24.3297 14.5 23.5V18.3016L11.6641 16.5062C10.1266 15.4891 10.0234 13.3234 11.4625 12.2125L15.3578 9.19844C16.1781 8.56797 17.3172 8.57406 18.1281 9.2125L21.025 11.4578H23.5ZM13 22C13 25.3141 10.3141 28 7 28C3.68641 28 1 25.3141 1 22C1 18.6859 3.68641 16 7 16C10.3141 16 13 18.6859 13 22ZM7 18.625C5.13625 18.625 3.625 20.1344 3.625 22C3.625 23.8656 5.13625 25.375 7 25.375C8.86562 25.375 10.375 23.8656 10.375 22C10.375 20.1344 8.86562 18.625 7 18.625ZM31 22C31 25.3141 28.3141 28 25 28C21.6859 28 19 25.3141 19 22C19 18.6859 21.6859 16 25 16C28.3141 16 31 18.6859 31 22ZM25 18.625C23.1344 18.625 21.625 20.1344 21.625 22C21.625 23.8656 23.1344 25.375 25 25.375C26.8656 25.375 28.375 23.8656 28.375 22C28.375 20.1344 26.8656 18.625 25 18.625Z" fill="currentColor"/>
</svg>
