<svg viewBox="0 0 32 32" fill="none" xmlns="http://www.w3.org/2000/svg">
<path d="M18.3333 8.6875C19.6215 8.6875 20.6667 7.6377 20.6667 6.34375C20.6667 5.0498 19.6215 4 18.3333 4C17.0451 4 16 5.0498 16 6.34375C16 7.6377 17.0451 8.6875 18.3333 8.6875ZM28.8333 24.3125C28.1892 24.3125 27.6667 24.8374 27.6667 25.4844C27.6667 26.1313 27.1441 26.6562 26.5 26.6562H23.1215L24.3611 17.9453C24.9323 17.7134 25.3353 17.1489 25.3353 16.4956C25.3353 15.6289 24.6363 14.9355 23.7792 14.9355L21.6452 14.9336L20.376 12.335C19.7683 11.0899 18.6503 10.1807 17.3742 9.85111L13.9122 8.81839C13.5488 8.72958 13.1791 8.6869 12.814 8.6869C11.8 8.6869 10.8088 9.02157 9.98681 9.64979L8.05694 11.1387C7.65347 11.4463 7.40069 11.8662 7.40069 12.3789C7.40069 13.0972 7.82419 13.4155 7.8397 13.4336L5.25111 26.6562H3.16667C2.52257 26.6562 2 27.1836 2 27.8281C2 28.4727 2.52257 29 3.16667 29H26.5C28.4323 29 30 27.4253 30 25.4844C30 24.8398 29.4799 24.3125 28.8333 24.3125ZM16.175 26.6514H11.4646L13.5597 22.2095L12.4908 21.6187C11.9011 21.2646 11.4218 20.7939 11.0572 20.2627L8.02 26.6934L6.83681 26.6562L9.37674 13.8926C9.57726 13.8438 9.77107 13.7536 9.94743 13.6193L11.8826 12.1325C12.1656 11.9135 12.5078 11.8019 12.8247 11.8019C12.923 11.8019 13.0199 11.8123 13.1105 11.8339L13.8265 12.0479L12.0042 16.3145C11.834 16.71 11.7563 17.1299 11.7563 17.54C11.7563 18.6172 12.3114 19.6577 13.2831 20.2363L17.4136 22.6851L16.175 26.6514ZM21.5465 26.6562L19.4281 26.6501L20.5753 22.9646C20.6346 22.754 20.663 22.5403 20.663 22.3284C20.663 21.5212 20.247 20.7449 19.525 20.3098L16.5495 18.5471L18.072 14.7273L19.0569 16.7468C19.4458 17.5403 20.2654 18.0598 21.1525 18.0598L22.7715 18.0625L21.5465 26.6562Z" fill="currentColor"/>
</svg>
