<svg viewBox="0 0 32 32" fill="none" xmlns="http://www.w3.org/2000/svg">
<path d="M15.9994 18.9494C16.9658 18.9494 17.7494 19.7223 17.7494 20.675C17.7493 21.6276 16.9658 22.3996 15.9994 22.3996C15.0331 22.3994 14.2494 21.6275 14.2494 20.675C14.2494 19.7224 15.0331 18.9496 15.9994 18.9494Z" fill="currentColor"/>
<path fill-rule="evenodd" clip-rule="evenodd" d="M2.38705 9.54706C9.89097 2.15006 22.1087 2.15061 29.6117 9.54706C30.0491 9.97824 30.125 10.6414 29.7982 11.1515L27.4915 14.7892C27.1575 15.3161 26.4802 15.5396 25.888 15.3078L21.2747 13.4894C20.73 13.2765 20.3941 12.7272 20.4564 12.1564L22.5003 9.50018C21.5137 9.16833 20.0853 8.94919 18.4994 8.83709L17.7494 14.3498H20.6703C21.5363 14.3499 22.3312 14.8229 22.7347 15.5783L27.0335 23.6281C27.8512 25.1596 26.7237 26.9999 24.9681 27.0002H6.85385C5.14097 27.0002 4.01218 25.2409 4.74545 23.715L8.61264 15.6652C8.99862 14.8621 9.82046 14.3499 10.722 14.3498H14.2494L13.3294 8.83807C11.6127 8.95668 10.0541 9.19249 9.00033 9.54706L11.5433 12.1564C11.6034 12.6846 11.2697 13.278 10.7269 13.4885L6.11361 15.3068C5.51862 15.5358 4.84397 15.3179 4.50814 14.7873L2.2015 11.1506C1.87444 10.6374 1.95099 9.97678 2.38705 9.54706ZM16.0003 16.6496C13.7452 16.6496 11.9173 18.452 11.9173 20.675C11.9174 22.8979 13.7452 24.6994 16.0003 24.6994C18.2552 24.6991 20.0833 22.8977 20.0833 20.675C20.0833 18.4522 18.2552 16.6499 16.0003 16.6496Z" fill="currentColor"/>
</svg>
