<svg viewBox="0 0 32 32" fill="none" xmlns="http://www.w3.org/2000/svg">
<path d="M23 3.75C23 2.78641 22.2136 2 21.25 2C20.2864 2 19.5 2.78641 19.5 3.75V9H23V3.75ZM25.625 10.7008H6.375C5.88965 10.7008 5.5 11.0904 5.5 11.5758V13.3258C5.5 13.8111 5.88965 14.2008 6.375 14.2008H7.25V16C7.25 20.1562 10.1758 23.7437 14.25 24.575V30H17.75V24.5723C21.8242 23.7438 24.75 20.1562 24.75 16V14.2008H25.625C26.1104 14.2008 26.5 13.8111 26.5 13.3258V11.5758C26.5 11.1383 26.1117 10.7008 25.625 10.7008ZM12.5 3.75C12.5 2.78641 11.7136 2 10.75 2C9.78641 2 9 2.78641 9 3.75V9H12.5V3.75Z" fill="currentColor"/>
</svg>
