<svg viewBox="0 0 32 32" fill="none" xmlns="http://www.w3.org/2000/svg">
<path d="M24.9149 15.3731V16.6269C24.9149 16.8594 24.845 16.9987 24.7054 17.0448C24.6585 17.1845 24.5192 17.2543 24.2874 17.2543H17.2521V24.2897C17.2521 24.3825 17.2056 24.5218 17.1128 24.7076C16.9731 24.8473 16.8104 24.9171 16.6246 24.9171H15.3709C15.1852 24.9171 15.0225 24.8473 14.8828 24.7076C14.7899 24.5218 14.7435 24.3825 14.7435 24.2897V17.2543H7.7081C7.47556 17.2543 7.33625 17.1845 7.29019 17.0448C7.15052 16.998 7.08068 16.8587 7.08068 16.6269V15.3731C7.08068 15.1874 7.15052 15.0247 7.29019 14.885C7.337 14.7453 7.4763 14.6755 7.7081 14.6755H14.7435V7.71033C14.7435 7.57065 14.7899 7.40795 14.8828 7.22221C15.0685 7.12934 15.2312 7.08291 15.3709 7.08291H16.6246C16.7643 7.08291 16.927 7.12934 17.1128 7.22221C17.2056 7.40795 17.2521 7.57065 17.2521 7.71033V14.6755H24.2874C24.52 14.6755 24.6593 14.7453 24.7054 14.885C24.845 15.0247 24.9149 15.1874 24.9149 15.3731ZM27.4925 24.2886V7.71144C27.4925 6.87562 27.1675 6.13267 26.5174 5.48259C25.8673 4.8325 25.1244 4.50746 24.2886 4.50746H7.71144C6.87562 4.50746 6.13267 4.8325 5.48259 5.48259C4.8325 6.13267 4.50746 6.87562 4.50746 7.71144V24.2886C4.50746 25.1244 4.8325 25.8673 5.48259 26.5174C6.08661 27.1214 6.82956 27.4234 7.71144 27.4234H24.2886C25.1712 27.4234 25.9141 27.1214 26.5174 26.5174C27.1675 25.8673 27.4925 25.1244 27.4925 24.2886ZM30 7.71144V24.2886C30 25.8673 29.4428 27.2139 28.3284 28.3284C27.2139 29.4428 25.8673 30 24.2886 30H7.71144C6.13267 30 4.78607 29.4428 3.67164 28.3284C2.55721 27.2139 2 25.8673 2 24.2886V7.71144C2 6.13267 2.55721 4.78607 3.67164 3.67164C4.78607 2.55721 6.13267 2 7.71144 2H24.2886C25.8673 2 27.2139 2.55721 28.3284 3.67164C29.4428 4.78607 30 6.13267 30 7.71144Z" fill="currentColor"/>
</svg>
