<svg viewBox="0 0 32 32" fill="none" xmlns="http://www.w3.org/2000/svg">
<path d="M16 2C12.1391 2 8.84048 3.3681 6.10429 6.10429C3.3681 8.84048 2 12.1391 2 16C2 19.8609 3.3681 23.1595 6.10429 25.8957C8.84048 28.6319 12.1391 30 16 30C19.8609 30 23.1595 28.6319 25.8957 25.8957C28.6319 23.1595 30 19.8609 30 16C30 12.1391 28.6319 8.84048 25.8957 6.10429C23.1595 3.3681 19.8609 2 16 2ZM16 5.05455C19.0125 5.05455 21.5898 6.12567 23.7321 8.26793C25.8743 10.4102 26.9455 12.9875 26.9455 16C26.9455 19.0125 25.8743 21.5898 23.7321 23.7321C21.5898 25.8743 19.0125 26.9455 16 26.9455C12.9875 26.9455 10.4102 25.8743 8.26793 23.7321C6.12567 21.5898 5.05455 19.0125 5.05455 16C5.05455 12.9875 6.12567 10.4102 8.26793 8.26793C10.4102 6.12567 12.9875 5.05455 16 5.05455Z" fill="currentColor"/>
<path d="M23.2019 17.4128H17.4139V23.2008H14.5872V17.4128H8.79916V14.5861H14.5872V8.7981H17.4139V14.5861H23.2019V17.4128Z" fill="currentColor"/>
</svg>
