<svg viewBox="0 0 32 32" fill="none" xmlns="http://www.w3.org/2000/svg">
<path d="M8.00002 25.3334H4.00002C3.6464 25.3334 3.30726 25.1929 3.05721 24.9429C2.80716 24.6928 2.66669 24.3537 2.66669 24.0001V10.6667C2.66669 10.3131 2.80716 9.97399 3.05721 9.72394C3.30726 9.47389 3.6464 9.33341 4.00002 9.33341H8.00002V4.00008C8.00002 3.64646 8.1405 3.30732 8.39054 3.05727C8.64059 2.80722 8.97973 2.66675 9.33335 2.66675H22.6667C23.0203 2.66675 23.3594 2.80722 23.6095 3.05727C23.8595 3.30732 24 3.64646 24 4.00008V9.33341H28C28.3536 9.33341 28.6928 9.47389 28.9428 9.72394C29.1929 9.97399 29.3334 10.3131 29.3334 10.6667V24.0001C29.3334 24.3537 29.1929 24.6928 28.9428 24.9429C28.6928 25.1929 28.3536 25.3334 28 25.3334H24V28.0001C24 28.3537 23.8595 28.6928 23.6095 28.9429C23.3594 29.1929 23.0203 29.3334 22.6667 29.3334H9.33335C8.97973 29.3334 8.64059 29.1929 8.39054 28.9429C8.1405 28.6928 8.00002 28.3537 8.00002 28.0001V25.3334ZM8.00002 22.6667V21.3334C8.00002 20.9798 8.1405 20.6407 8.39054 20.3906C8.64059 20.1406 8.97973 20.0001 9.33335 20.0001H22.6667C23.0203 20.0001 23.3594 20.1406 23.6095 20.3906C23.8595 20.6407 24 20.9798 24 21.3334V22.6667H26.6667V12.0001H5.33335V22.6667H8.00002ZM10.6667 5.33341V9.33341H21.3334V5.33341H10.6667ZM10.6667 22.6667V26.6667H21.3334V22.6667H10.6667ZM6.66669 13.3334H10.6667V16.0001H6.66669V13.3334Z" fill="currentColor"/>
</svg>
