<svg viewBox="0 0 32 32" fill="none" xmlns="http://www.w3.org/2000/svg">
<g clip-path="url(#clip0_102_289)">
<path d="M23.25 3.375C23.7087 3.375 24.094 3.53133 24.406 3.844C24.718 4.15667 24.8744 4.542 24.875 5V10.5H30.375C30.7917 10.5 31.1667 10.6667 31.5 11C31.8334 11.3333 32 11.7083 32 12.125V19.875C32 20.2917 31.8334 20.6667 31.5 21C31.1667 21.3333 30.7917 21.5 30.375 21.5H24.875V27C24.875 27.4587 24.7187 27.844 24.406 28.156C24.0934 28.468 23.708 28.6243 23.25 28.625H9.06202C8.60336 28.625 8.21802 28.4583 7.90602 28.125C7.59402 27.7917 7.43769 27.4167 7.43702 27V21.5H1.62402C1.20736 21.5 0.832357 21.3333 0.499023 21C0.16569 20.6667 -0.000976562 20.2917 -0.000976562 19.875V12.125C-0.000976562 11.7083 0.16569 11.3333 0.499023 11C0.832357 10.6667 1.20736 10.5 1.62402 10.5H7.43702V5C7.43702 4.58333 7.59336 4.20833 7.90602 3.875C8.21869 3.54167 8.60402 3.375 9.06202 3.375H23.25ZM21.688 17.625H10.688C10.2294 17.625 9.84402 17.7813 9.53202 18.094C9.22002 18.4067 9.06369 18.7713 9.06302 19.188V25.688C9.06302 26.1047 9.20902 26.4693 9.50102 26.782C9.79302 27.0947 10.168 27.2717 10.626 27.313H21.689C22.1057 27.313 22.4704 27.1567 22.783 26.844C23.0957 26.5313 23.252 26.1667 23.252 25.75V18.875C23.1687 18.7083 23.127 18.5833 23.127 18.5L23.002 18.375H23.065C23.023 18.375 23.002 18.354 23.002 18.312L22.939 18.249C22.939 18.207 22.918 18.186 22.876 18.186C22.876 18.144 22.855 18.123 22.813 18.123L22.75 18.06C22.75 18.018 22.729 17.997 22.687 17.997L22.562 17.872H22.499L22.436 17.809C22.394 17.809 22.373 17.788 22.373 17.746V17.809C22.373 17.767 22.352 17.746 22.31 17.746C22.268 17.704 22.2264 17.683 22.185 17.683H21.997C21.997 17.641 21.976 17.62 21.934 17.62H21.684L21.688 17.625ZM21.188 23.438C21.48 23.438 21.7404 23.5527 21.969 23.782C22.1977 24.0113 22.3124 24.2717 22.313 24.563C22.3137 24.8543 22.199 25.1147 21.969 25.344C21.739 25.5733 21.4787 25.688 21.188 25.688H11.5C11.1667 25.688 10.8854 25.5733 10.656 25.344C10.4267 25.1147 10.312 24.8543 10.312 24.563C10.312 24.2717 10.4267 24.0113 10.656 23.782C10.8854 23.5527 11.1667 23.438 11.5 23.438H21.188ZM21.188 19.25C21.48 19.25 21.7404 19.3543 21.969 19.563C22.1977 19.7717 22.3124 20.0427 22.313 20.376C22.3137 20.7093 22.199 20.9803 21.969 21.189C21.739 21.3977 21.4787 21.502 21.188 21.502H11.5C11.1667 21.502 10.8854 21.3873 10.656 21.158C10.4267 20.9287 10.312 20.6683 10.312 20.377C10.312 20.0857 10.4267 19.8253 10.656 19.596C10.8854 19.3667 11.1667 19.252 11.5 19.252H21.188V19.25ZM21.688 5H10.688C10.2294 5 9.84402 5.15633 9.53202 5.469C9.22002 5.78167 9.06369 6.14633 9.06302 6.563V10.501H23.251V6.626C23.251 6.16733 23.0947 5.782 22.782 5.47C22.4694 5.158 22.1047 5.00067 21.688 5Z" fill="currentColor"/>
</g>
<defs>
<clipPath id="clip0_102_289">
<rect width="32" height="32" fill="white"/>
</clipPath>
</defs>
</svg>
