<svg viewBox="0 0 32 32" fill="none" xmlns="http://www.w3.org/2000/svg">
<path d="M30 17.7294C30 19.6658 28.8248 21.2353 27.375 21.2353C25.6015 21.2353 25.6403 19.4823 24.3322 19.4823C23.5961 19.4823 23 20.0794 23 20.819V28.2471C23 29.215 22.2163 30 21.25 30H17.3322C16.5961 30 16 29.4029 16 28.6634C16 27.3213 17.75 27.3925 17.75 25.6176C17.75 24.1654 16.1832 22.9882 14.25 22.9882C12.3168 22.9882 10.75 24.1654 10.75 25.6176C10.75 27.3941 12.5 27.3552 12.5 28.6656C12.5 29.4029 11.9039 30 11.1656 30H3.75C2.78367 30 2 29.215 2 28.2471V20.819C2 20.0794 2.59664 19.4823 3.33219 19.4823C4.62773 19.4823 4.60312 21.2353 6.375 21.2353C7.82422 21.2353 9 19.6631 9 17.7294C9 15.7957 7.82422 14.1742 6.375 14.1742C4.60148 14.1742 4.64031 15.9271 3.33219 15.9271C2.59664 15.9271 2 15.3793 2 14.6398V10.7154C2 9.74747 2.78367 9.01178 3.75 9.01178H11.1656C11.9039 8.91537 12.5 8.36757 12.5 7.62805C12.5 6.33032 10.75 6.35497 10.75 4.58011C10.75 3.12791 12.3168 2 14.25 2C16.1832 2 17.75 3.17721 17.75 4.58011C17.75 6.35661 16 6.31772 16 7.62805C16 8.36483 16.5966 8.96248 17.3322 8.96248H21.25C22.2163 8.96248 23 9.74747 23 10.6661V14.5905C23 15.3273 23.5966 15.925 24.3322 15.925C25.6277 15.925 25.6031 14.172 27.375 14.172C28.8242 14.1742 30 15.7957 30 17.7294Z" fill="currentColor"/>
</svg>
