<svg viewBox="0 0 32 32" fill="none" xmlns="http://www.w3.org/2000/svg">
<path d="M21.3333 22.6667V21.3333H17.3333V17.3333H21.3333V20H24V22.6667H22.6667V25.3333H20V28H17.3333V24H20V22.6667H21.3333ZM28 28H22.6667V25.3333H25.3333V22.6667H28V28ZM4 4H14.6667V14.6667H4V4ZM6.66667 6.66667V12H12V6.66667H6.66667ZM17.3333 4H28V14.6667H17.3333V4ZM20 6.66667V12H25.3333V6.66667H20ZM4 17.3333H14.6667V28H4V17.3333ZM6.66667 20V25.3333H12V20H6.66667ZM24 17.3333H28V20H24V17.3333ZM8 8H10.6667V10.6667H8V8ZM8 21.3333H10.6667V24H8V21.3333ZM21.3333 8H24V10.6667H21.3333V8Z" fill="currentColor"/>
</svg>
