<svg viewBox="0 0 32 32" fill="none" xmlns="http://www.w3.org/2000/svg">
<path d="M16 2C12.1391 2 8.84048 3.3681 6.10429 6.10429C3.3681 8.84048 2 12.1391 2 16C2 19.8609 3.3681 23.1595 6.10429 25.8957C8.84048 28.6319 12.1391 30 16 30C19.8609 30 23.1595 28.6319 25.8957 25.8957C28.6319 23.1595 30 19.8609 30 16C30 12.1391 28.6319 8.84048 25.8957 6.10429C23.1595 3.3681 19.8609 2 16 2ZM16 5.05455C19.0125 5.05455 21.5898 6.12567 23.7321 8.26793C25.8743 10.4102 26.9455 12.9875 26.9455 16C26.9455 19.0125 25.8743 21.5898 23.7321 23.7321C21.5898 25.8743 19.0125 26.9455 16 26.9455C12.9875 26.9455 10.4102 25.8743 8.26793 23.7321C6.12567 21.5898 5.05455 19.0125 5.05455 16C5.05455 12.9875 6.12567 10.4102 8.26793 8.26793C10.4102 6.12567 12.9875 5.05455 16 5.05455Z" fill="currentColor"/>
<path d="M19.4748 9.08193C18.5375 8.36064 17.2618 8 15.6476 8C14.45 8 13.4735 8.2576 12.7183 8.77281C11.5728 9.52007 11 10.9111 11 12.946H14.0074C14.0074 12.0957 14.0986 11.5417 14.2811 11.2841C14.6718 10.6659 15.1925 10.3568 15.8432 10.3568C16.5201 10.3568 17.0539 10.5886 17.4446 11.0523C17.7312 11.4389 17.8745 11.9026 17.8745 12.4434C17.8745 12.83 17.7183 13.2421 17.4059 13.6798C17.2497 13.8859 17.0543 14.0792 16.8198 14.2598C15.7263 14.904 14.9973 15.5222 14.6328 16.1145C14.2683 16.7328 14.0601 17.5829 14.008 18.6648C14.008 18.7938 14.0992 18.8583 14.2817 18.8583H16.7029C16.8854 18.8583 16.9766 18.781 16.9766 18.6265C16.9766 18.2658 17.0158 17.8922 17.0941 17.5056C17.2503 17.0674 17.5107 16.7068 17.8752 16.4236L18.6956 15.8827C19.6328 15.1099 20.1535 14.6462 20.2577 14.4916C20.7526 13.8218 21 13.0876 21 12.2888C21 10.8977 20.4922 9.82857 19.4766 9.08132L19.4748 9.08193ZM15.452 20.4033C14.9313 20.3773 14.4952 20.5319 14.1436 20.867C13.792 21.2021 13.6033 21.64 13.5775 22.1808C13.5517 22.7215 13.7079 23.1531 14.0461 23.4754C14.3844 23.7977 14.814 23.9716 15.3352 23.9972C15.8563 24.0227 16.2989 23.8746 16.663 23.5527C17.027 23.2308 17.2224 22.7992 17.2491 22.258C17.2757 21.7169 17.1195 21.2789 16.7804 20.9443C16.4413 20.6096 15.9981 20.4293 15.452 20.4033Z" fill="currentColor"/>
</svg>
