<svg viewBox="0 0 32 32" fill="none" xmlns="http://www.w3.org/2000/svg">
<path d="M7.27337 20.0001L1.33337 24.6667V4.00008C1.33337 3.64646 1.47385 3.30732 1.7239 3.05727C1.97395 2.80722 2.31309 2.66675 2.66671 2.66675H22.6667C23.0203 2.66675 23.3595 2.80722 23.6095 3.05727C23.8596 3.30732 24 3.64646 24 4.00008V20.0001H7.27337ZM6.35071 17.3334H21.3334V5.33341H4.00004V19.1801L6.35071 17.3334ZM10.6667 22.6667H24.316L26.6667 24.5134V10.6667H28C28.3537 10.6667 28.6928 10.8072 28.9429 11.0573C29.1929 11.3073 29.3334 11.6465 29.3334 12.0001V30.0001L23.3934 25.3334H12C11.6464 25.3334 11.3073 25.1929 11.0572 24.9429C10.8072 24.6928 10.6667 24.3537 10.6667 24.0001V22.6667Z" fill="currentColor"/>
</svg>
