<svg viewBox="0 0 32 32" fill="none" xmlns="http://www.w3.org/2000/svg">
<path d="M16 2C12.1247 2 8.82267 3.36467 6.094 6.094C3.36533 8.82333 2.00067 12.1253 2 16C1.99933 19.8747 3.364 23.1767 6.094 25.906C8.824 28.6353 12.126 30 16 30C19.874 30 23.176 28.6353 25.906 25.906C28.636 23.1767 30.0007 19.8747 30 16C29.9993 12.1253 28.6347 8.82333 25.906 6.094C23.1773 3.36467 19.8753 2 16 2ZM17.25 22.438C17.25 22.98 17.073 23.4177 16.719 23.751C16.365 24.0843 15.8963 24.2303 15.313 24.189C14.813 24.189 14.386 24.012 14.032 23.658C13.678 23.304 13.5217 22.856 13.563 22.314C13.563 21.772 13.7507 21.3343 14.126 21.001C14.5013 20.6677 14.939 20.501 15.439 20.501C15.981 20.543 16.429 20.741 16.783 21.095C17.137 21.449 17.2933 21.897 17.252 22.439L17.25 22.438ZM20.313 14.438C20.1463 14.688 19.6253 15.1673 18.75 15.876L17.875 16.439C17.4997 16.731 17.2497 17.0853 17.125 17.502C17.0417 17.8353 17 18.2313 17 18.69C17 18.8567 16.8957 18.94 16.687 18.94H14.249C14.0823 18.94 13.999 18.8567 13.999 18.69C13.999 17.648 14.2073 16.7937 14.624 16.127C14.7907 15.835 15.0617 15.533 15.437 15.221C15.8123 14.909 16.125 14.6693 16.375 14.502L16.813 14.252C17.063 14.0853 17.2713 13.877 17.438 13.627C17.7713 13.127 17.938 12.7103 17.938 12.377C17.938 11.7937 17.7713 11.3143 17.438 10.939C17.0627 10.4803 16.5417 10.251 15.875 10.251C15.125 10.251 14.5833 10.5637 14.25 11.189C14.0833 11.439 14 12.0017 14 12.877H10.937C10.937 10.7937 11.5203 9.377 12.687 8.627C13.3957 8.085 14.3957 7.814 15.687 7.814C17.229 7.814 18.5 8.189 19.5 8.939C20.542 9.689 21.063 10.7723 21.063 12.189C21.063 13.0643 20.813 13.8143 20.313 14.439V14.438Z" fill="currentColor"/>
</svg>
