<svg viewBox="0 0 32 32" fill="none" xmlns="http://www.w3.org/2000/svg">
<path d="M16 2C12.1413 2 8.84332 3.36866 6.10599 6.10599C3.36866 8.84332 2 12.1413 2 16C2 19.8587 3.36866 23.1567 6.10599 25.894C8.84332 28.6313 12.1413 30 16 30C19.8587 30 23.1567 28.6313 25.894 25.894C28.6313 23.1567 30 19.8587 30 16C30 12.1413 28.6313 8.84332 25.894 6.10599C23.1567 3.36866 19.8587 2 16 2ZM16 28.8542C12.455 28.8542 9.42625 27.5979 6.91362 25.0853C4.40099 22.5727 3.14468 19.5439 3.14468 15.9989C3.14468 12.454 4.40099 9.42517 6.91362 6.91255C9.42625 4.39992 12.455 3.1436 16 3.1436C19.545 3.1436 22.5738 4.39992 25.0864 6.91255C27.599 9.42517 28.8553 12.454 28.8553 15.9989C28.8553 19.5439 27.599 22.5727 25.0864 25.0853C22.5738 27.5979 19.545 28.8542 16 28.8542Z" fill="currentColor"/>
<path d="M15.199 17.794C15.199 17.224 15.3447 16.7617 15.636 16.407C15.94 16.0523 16.3833 15.6723 16.966 15.267C17.5107 14.8997 17.916 14.5577 18.182 14.241C18.4607 13.9243 18.6 13.5253 18.6 13.044C18.6 12.3853 18.4037 11.8913 18.011 11.562C17.6183 11.2327 17.004 11.068 16.168 11.068C15.408 11.068 14.7873 11.2833 14.306 11.714C13.8373 12.132 13.603 12.7147 13.603 13.462C13.603 13.7027 13.6157 13.9053 13.641 14.07C13.5777 14.0827 13.489 14.089 13.375 14.089C12.9443 14.089 12.5833 13.9813 12.292 13.766C12.0007 13.538 11.855 13.234 11.855 12.854C11.855 12.246 12.0513 11.6887 12.444 11.182C12.8493 10.6627 13.3813 10.2573 14.04 9.966C14.6987 9.67467 15.408 9.529 16.168 9.529C17.3967 9.529 18.4037 9.833 19.189 10.441C19.9743 11.049 20.367 11.8913 20.367 12.968C20.367 13.4493 20.2657 13.8737 20.063 14.241C19.873 14.5957 19.6387 14.8933 19.36 15.134C19.094 15.3747 18.7457 15.647 18.315 15.951C17.8463 16.2803 17.498 16.5653 17.27 16.806C17.042 17.034 16.928 17.3 16.928 17.604V17.984C16.928 18.7693 16.3517 19.162 15.199 19.162V17.794ZM16.035 23.171C15.6423 23.171 15.313 23.0507 15.047 22.81C14.7937 22.5567 14.667 22.24 14.667 21.86C14.667 21.4927 14.7937 21.1823 15.047 20.929C15.313 20.6757 15.6423 20.549 16.035 20.549C16.4277 20.549 16.757 20.6757 17.023 20.929C17.289 21.1823 17.422 21.4927 17.422 21.86C17.422 22.24 17.289 22.5567 17.023 22.81C16.757 23.0507 16.4277 23.171 16.035 23.171Z" fill="currentColor"/>
</svg>
