<svg viewBox="0 0 32 32" fill="none" xmlns="http://www.w3.org/2000/svg">
<path d="M21.563 4.81299C20.063 3.64632 18.0213 3.06299 15.438 3.06299C13.5213 3.06299 11.9587 3.47966 10.75 4.31299C8.91667 5.52166 8 7.77165 8 11.063H12.813C12.813 9.68765 12.959 8.79166 13.251 8.37499C13.8763 7.37499 14.7097 6.87499 15.751 6.87499C16.8343 6.87499 17.6887 7.24999 18.314 7.99999C18.7727 8.62532 19.002 9.37532 19.002 10.25C19.002 10.8753 18.752 11.542 18.252 12.25C18.002 12.5833 17.6893 12.896 17.314 13.188C15.564 14.23 14.3973 15.23 13.814 16.188C13.2307 17.188 12.8973 18.563 12.814 20.313C12.814 20.5217 12.96 20.626 13.252 20.626H17.127C17.419 20.626 17.565 20.501 17.565 20.251C17.565 19.6677 17.6277 19.0633 17.753 18.438C18.003 17.7293 18.4197 17.146 19.003 16.688L20.316 15.813C21.816 14.563 22.6493 13.813 22.816 13.563C23.608 12.4797 24.004 11.292 24.004 9.99999C24.004 7.74999 23.1913 6.02065 21.566 4.81199L21.563 4.81299ZM15.125 23.125C14.2917 23.083 13.5937 23.333 13.031 23.875C12.4683 24.417 12.1663 25.1253 12.125 26C12.0837 26.8747 12.3337 27.5727 12.875 28.094C13.4163 28.6153 14.104 28.8967 14.938 28.938C15.772 28.9793 16.4803 28.7397 17.063 28.219C17.6457 27.6983 17.9583 27.0003 18.001 26.125C18.0437 25.2497 17.7937 24.5413 17.251 24C16.7083 23.4587 16 23.167 15.126 23.125H15.125Z" fill="currentColor"/>
</svg>
