<svg viewBox="0 0 32 32" fill="none" xmlns="http://www.w3.org/2000/svg">
<path d="M1 26.4V4.8C1 3.52696 1.50922 2.30606 2.41565 1.40589C3.32208 0.505713 4.55145 0 5.83333 0H28.3889C28.8162 0 29.226 0.168571 29.5281 0.468629C29.8303 0.768687 30 1.17565 30 1.6V30.4C30 30.8243 29.8303 31.2313 29.5281 31.5314C29.226 31.8314 28.8162 32 28.3889 32H6.63889C5.14336 32 3.70909 31.41 2.65159 30.3598C1.5941 29.3096 1 27.8852 1 26.4ZM26.7778 28.8V24H6.63889C5.99795 24 5.38326 24.2529 4.93005 24.7029C4.47683 25.153 4.22222 25.7635 4.22222 26.4C4.22222 27.0365 4.47683 27.647 4.93005 28.0971C5.38326 28.5471 5.99795 28.8 6.63889 28.8H26.7778ZM4.22222 21.3392C4.97733 20.9831 5.80297 20.7989 6.63889 20.8H26.7778V3.2H5.83333C5.40604 3.2 4.99625 3.36857 4.69411 3.66863C4.39196 3.96869 4.22222 4.37565 4.22222 4.8V21.3392Z" fill="currentColor"/>
<path fill-rule="evenodd" clip-rule="evenodd" d="M22.5312 11.4562C22.792 11.4562 23 11.683 23 11.9099V12.8173C23 13.0689 22.7912 13.271 22.5312 13.271L22.0363 13.2963C22.0363 15.5931 20.5915 17.5528 18.5123 18.3544C18.7307 18.6342 18.4985 19 18.1362 19H12.8345C12.4726 18.9999 12.2408 18.6344 12.4589 18.3549C10.3833 17.5524 8.91134 15.5931 8.91134 13.2963L8.46875 13.271C8.20875 13.271 8.00002 13.0689 8 12.8173V11.9099C8 11.6582 8.20874 11.4562 8.46875 11.4562H22.5312ZM11.1478 13.3003C10.8543 13.3359 10.6461 13.595 10.6828 13.8791C10.7364 14.2941 10.9214 14.9136 11.3053 15.4944C11.6936 16.0818 12.3042 16.6556 13.2101 16.9062C13.4946 16.9847 13.7912 16.825 13.8725 16.5497C13.9536 16.2744 13.7886 15.9873 13.5042 15.9086C12.9102 15.7443 12.4936 15.3677 12.2078 14.9354C11.9176 14.4965 11.7815 14.0268 11.7458 13.7505C11.7091 13.4664 11.4414 13.2648 11.1478 13.3003Z" fill="currentColor"/>
<path d="M14.9643 6.75499C14.9643 6.05036 14.717 5.46507 14.2225 5C14.2225 7.28587 11.75 8.07912 11.75 9.60684C11.75 10.0859 11.9147 10.4514 12.2445 10.7037C13.1346 8.63107 14.9643 8.27568 14.9643 6.75499Z" fill="currentColor"/>
<path d="M17.6429 6.75499C17.6429 6.05036 17.3956 5.46507 16.9011 5C16.9011 7.28587 14.4286 8.07912 14.4286 9.60684C14.4286 10.0859 14.5932 10.4514 14.9231 10.7037C15.8132 8.63107 17.6429 8.27568 17.6429 6.75499Z" fill="currentColor"/>
<path d="M19.4551 7.50094C19.8032 7.03792 20.4734 6.93575 20.9518 7.27257C21.4302 7.60948 21.5358 8.25816 21.1878 8.72128L16.9021 14.425C16.554 14.888 15.8838 14.9902 15.4053 14.6534C14.9269 14.3164 14.8214 13.6678 15.1694 13.2046L19.4551 7.50094Z" fill="currentColor"/>
</svg>
