<svg viewBox="0 0 32 32" fill="none" xmlns="http://www.w3.org/2000/svg">
<path d="M25 29.5V32H7V29.5H25ZM25.5 29V7C25.5 6.72389 25.2762 6.5 25 6.5H19.8682L19.2764 4.83691C18.7873 3.46114 17.4982 2.5 16 2.5C14.5014 2.5 13.2124 3.46118 12.7246 4.83594L12.1348 6.5H7C6.72378 6.5 6.5 6.72389 6.5 7V29C6.5 29.2755 6.72446 29.5 7 29.5V32C5.34375 32 4 30.6563 4 29V7C4 5.3425 5.34375 4 7 4H10.3691L10.4502 3.78418C11.3317 1.57208 13.4751 9.89623e-08 16 0C18.5248 0 20.6681 1.57211 21.5508 3.78418L21.6328 4H25C26.6562 4 28 5.3425 28 7V29C28 30.6575 26.6562 32 25 32V29.5C25.2762 29.5 25.5 29.2761 25.5 29Z" fill="currentColor"/>
<path d="M18 7C18 8.10457 17.1046 9 16 9C14.8954 9 14 8.10457 14 7C14 5.89543 14.8954 5 16 5C17.1046 5 18 5.89543 18 7Z" fill="currentColor"/>
<path d="M22 25C22.5523 25 23 25.4477 23 26C23 26.5523 22.5523 27 22 27H10C9.44772 27 9 26.5523 9 26C9 25.4477 9.44772 25 10 25H22Z" fill="currentColor"/>
<path fill-rule="evenodd" clip-rule="evenodd" d="M21.625 16.5339C21.8336 16.5339 22 16.7283 22 16.9227V17.7005C22 17.9162 21.833 18.0894 21.625 18.0894L21.2291 18.1111C21.2291 20.0798 20.0732 21.7595 18.4099 22.4466C18.5846 22.6865 18.3988 23 18.109 23H13.8676C13.5781 23 13.3926 22.6866 13.5671 22.447C11.9066 21.7592 10.7291 20.0798 10.7291 18.1111L10.375 18.0894C10.167 18.0894 10 17.9162 10 17.7005V16.9227C10 16.707 10.167 16.5339 10.375 16.5339H21.625ZM12.5183 18.1146C12.2834 18.145 12.1169 18.3671 12.1462 18.6107C12.1891 18.9664 12.3371 19.4974 12.6443 19.9952C12.9549 20.4987 13.4434 20.9906 14.1681 21.2053C14.3956 21.2726 14.633 21.1357 14.698 20.8997C14.7629 20.6638 14.6308 20.4177 14.4033 20.3503C13.9282 20.2094 13.5948 19.8866 13.3662 19.5161C13.1341 19.1398 13.0252 18.7373 12.9967 18.5004C12.9673 18.2569 12.7531 18.0841 12.5183 18.1146Z" fill="currentColor"/>
<path d="M15.5714 12.5043C15.5714 11.9003 15.3736 11.3986 14.978 11C14.978 12.9593 13 13.6392 13 14.9487C13 15.3594 13.1317 15.6727 13.3956 15.8889C14.1077 14.1123 15.5714 13.8077 15.5714 12.5043Z" fill="currentColor"/>
<path d="M17.7143 12.5043C17.7143 11.9003 17.5165 11.3986 17.1209 11C17.1209 12.9593 15.1429 13.6392 15.1429 14.9487C15.1429 15.3594 15.2746 15.6727 15.5385 15.8889C16.2505 14.1123 17.7143 13.8077 17.7143 12.5043Z" fill="currentColor"/>
<path d="M19.1641 13.1437C19.4425 12.7468 19.9787 12.6592 20.3615 12.9479C20.7442 13.2367 20.8286 13.7927 20.5502 14.1897L17.1217 19.0786C16.8432 19.4754 16.307 19.563 15.9242 19.2743C15.5416 18.9855 15.4571 18.4295 15.7355 18.0326L19.1641 13.1437Z" fill="currentColor"/>
</svg>
