<svg viewBox="0 0 32 32" fill="none" xmlns="http://www.w3.org/2000/svg">
<path d="M11.1475 13.3008C11.441 13.2653 11.7094 13.4668 11.7461 13.751C11.7819 14.0274 11.918 14.4969 12.208 14.9355C12.4937 15.3677 12.9103 15.7439 13.5039 15.9082C13.7883 15.9869 13.9532 16.2745 13.8721 16.5498C13.7907 16.825 13.4943 16.9848 13.21 16.9062C12.3041 16.6557 11.6939 16.0815 11.3057 15.4941C10.9217 14.9134 10.7362 14.2939 10.6826 13.8789C10.6461 13.595 10.8542 13.3365 11.1475 13.3008Z" fill="currentColor"/>
<path fill-rule="evenodd" clip-rule="evenodd" d="M28.3887 0C28.816 0 29.2262 0.168692 29.5283 0.46875C29.8303 0.768701 29.9999 1.17548 30 1.59961V30.4004C29.9999 30.8245 29.8303 31.2313 29.5283 31.5312C29.2262 31.8313 28.816 32 28.3887 32H6.63867C5.14322 31.9999 3.70881 31.4095 2.65137 30.3594C1.59417 29.3093 1.0001 27.8853 1 26.4004V4.7998C1.00005 3.52684 1.50964 2.30638 2.41602 1.40625C3.32236 0.506153 4.55125 8.5648e-05 5.83301 0H28.3887ZM6.63867 24C5.99781 24.0001 5.38285 24.2531 4.92969 24.7031C4.47664 25.1532 4.22266 25.764 4.22266 26.4004C4.22276 27.0366 4.4768 27.6467 4.92969 28.0967C5.38285 28.5467 5.99781 28.7997 6.63867 28.7998H26.7773V24H6.63867ZM20.9521 7.27246C20.4737 6.93564 19.8032 7.03796 19.4551 7.50098L16.4834 11.4561H8.46875C8.20874 11.4561 8 11.6585 8 11.9102V12.8174C8.00008 13.069 8.20879 13.2705 8.46875 13.2705L8.91113 13.2959C8.91113 15.5926 10.3834 17.552 12.459 18.3545C12.2409 18.634 12.4731 18.9999 12.835 19H18.1357C18.4979 19 18.7307 18.6343 18.5127 18.3545C20.5918 17.5528 22.0361 15.5926 22.0361 13.2959L22.5312 13.2705C22.7912 13.2705 22.9999 13.069 23 12.8174V11.9102C23 11.6833 22.792 11.4561 22.5312 11.4561H19.1328L21.1875 8.72168C21.5355 8.25861 21.4304 7.60941 20.9521 7.27246ZM14.2227 5C14.2227 7.28567 11.7504 8.07899 11.75 9.60645C11.75 10.0855 11.9143 10.4518 12.2441 10.7041C13.1343 8.63146 14.9639 8.27558 14.9639 6.75488C14.9638 6.05033 14.7171 5.46504 14.2227 5ZM16.9014 5C16.9014 7.28567 14.4291 8.07899 14.4287 9.60645C14.4287 10.0856 14.593 10.4518 14.9229 10.7041C15.813 8.63146 17.6426 8.27558 17.6426 6.75488C17.6426 6.05037 17.3958 5.46503 16.9014 5Z" fill="currentColor"/>
</svg>
