<svg viewBox="0 0 32 32" fill="none" xmlns="http://www.w3.org/2000/svg">
<path d="M12.5186 18.1143C12.7532 18.084 12.9675 18.2567 12.9971 18.5C13.0256 18.7368 13.1342 19.1395 13.3662 19.5156C13.5948 19.8862 13.9282 20.2098 14.4033 20.3506C14.6307 20.418 14.7629 20.6636 14.6982 20.8994C14.6332 21.1354 14.3955 21.2724 14.168 21.2051C13.4433 20.9903 12.9551 20.4985 12.6445 19.9951C12.3374 19.4973 12.1894 18.9661 12.1465 18.6104C12.1173 18.3669 12.2838 18.1447 12.5186 18.1143Z" fill="currentColor"/>
<path fill-rule="evenodd" clip-rule="evenodd" d="M16 0C18.6063 0 20.8066 1.675 21.6328 4H25C26.6562 4 28 5.3425 28 7V29C28 30.6575 26.6563 32 25 32H7C5.34375 32 4 30.6562 4 29V7C4 5.3425 5.34375 4 7 4H10.3691C11.1942 1.67506 13.3938 2.29839e-07 16 0ZM10 26C9.44772 26 9 26.4477 9 27C9 27.5523 9.44772 28 10 28H22C22.5523 28 23 27.5523 23 27C23 26.4477 22.5523 26 22 26H10ZM20.3613 12.9482C19.9786 12.6596 19.4425 12.7467 19.1641 13.1436L16.7861 16.5342H10.375C10.167 16.5342 10 16.7071 10 16.9229V17.7002C10 17.9159 10.167 18.0898 10.375 18.0898L10.7295 18.1113C10.7296 20.0799 11.907 21.7594 13.5674 22.4473C13.393 22.6867 13.5779 22.9996 13.8672 23H18.1094C18.399 22.9997 18.5848 22.686 18.4102 22.4463C20.0733 21.7591 21.2294 20.0798 21.2295 18.1113L21.625 18.0898C21.833 18.0898 22 17.9159 22 17.7002V16.9229C22 16.7284 21.8336 16.5342 21.625 16.5342H18.9062L20.5498 14.1895C20.8282 13.7925 20.744 13.237 20.3613 12.9482ZM14.9775 11C14.9775 12.9591 13.0005 13.6391 13 14.9482C13 15.3588 13.1317 15.6724 13.3955 15.8887C14.1076 14.1123 15.5713 13.8073 15.5713 12.5039C15.5712 11.9001 15.3731 11.3986 14.9775 11ZM17.1211 11C17.1211 12.9591 15.1431 13.6391 15.1426 14.9482C15.1426 15.3587 15.2744 15.6724 15.5381 15.8887C16.2502 14.1122 17.7139 13.8073 17.7139 12.5039C17.7138 11.9002 17.5165 11.3985 17.1211 11ZM16 4C14.8938 4 14 4.89563 14 6C14 7.10625 14.8956 8 16 8C17.1044 8 18 7.10438 18 6C18 4.89562 17.1044 4 16 4Z" fill="currentColor"/>
</svg>
