<svg viewBox="0 0 32 32" fill="none" xmlns="http://www.w3.org/2000/svg">
<path d="M2.31401 16C2.31401 17.9587 2.66835 19.7297 3.37701 21.313C4.21035 23.1464 5.18968 24.6047 6.31501 25.688C7.39835 26.8134 8.85668 27.7927 10.69 28.626C12.2733 29.3347 14.0443 29.689 16.003 29.689C18.1697 29.689 20.1073 29.2724 21.816 28.439C23.608 27.6057 25.1913 26.3764 26.566 24.751C26.6493 24.5844 26.691 24.4594 26.691 24.376C26.691 24.2507 26.6283 24.1257 26.503 24.001L24.065 21.563C23.9397 21.4377 23.7937 21.375 23.627 21.375C23.585 21.375 23.439 21.4377 23.189 21.563C22.397 22.7297 21.3343 23.6047 20.001 24.188C18.751 24.8134 17.4177 25.126 16.001 25.126C14.7923 25.126 13.6047 24.8967 12.438 24.438C11.2713 23.938 10.313 23.2714 9.56301 22.438C8.72968 21.688 8.06301 20.7297 7.56301 19.563C7.10435 18.3964 6.87501 17.2087 6.87501 16C6.87501 14.7914 7.10435 13.6037 7.56301 12.437C8.06301 11.2704 8.72968 10.312 9.56301 9.56204C10.313 8.7287 11.2713 8.06203 12.438 7.56203C13.6047 7.10337 14.7923 6.87403 16.001 6.87403C17.251 6.87403 18.376 7.08237 19.376 7.49903C20.5013 7.9577 21.439 8.56204 22.189 9.31204L19.751 11.75C19.3757 12.1254 19.2923 12.542 19.501 13C19.751 13.4587 20.1053 13.688 20.564 13.688H28.564C28.8973 13.688 29.1683 13.5837 29.377 13.375C29.5857 13.1664 29.69 12.8954 29.69 12.562V4.56203C29.69 4.10337 29.4607 3.74904 29.002 3.49904C28.5433 3.29037 28.1267 3.3737 27.752 3.74904L25.439 6.06203C24.2303 4.89537 22.772 3.9577 21.064 3.24904C19.4387 2.6237 17.751 2.31104 16.001 2.31104C14.0423 2.31104 12.2713 2.66537 10.688 3.37404C8.85468 4.20737 7.39635 5.1867 6.31301 6.31203C5.18768 7.39537 4.20834 8.8537 3.37501 10.687C2.66634 12.2704 2.31201 14.0414 2.31201 16H2.31401Z" fill="currentColor"/>
</svg>
