<svg viewBox="0 0 32 32" fill="none" xmlns="http://www.w3.org/2000/svg">
<path d="M5 26.4375V22.9883C7.38003 26.6068 11.4429 29 16.0635 29C21.654 28.9998 26.4254 25.4982 28.3926 20.5576C28.5968 20.0446 28.3469 19.4632 27.834 19.2588C27.321 19.0545 26.7395 19.3045 26.5352 19.8174C24.8547 24.0383 20.7919 26.9998 16.0635 27C11.8924 27 8.24041 24.6973 6.28223 21.2559C6.26883 21.2323 6.25422 21.2095 6.23926 21.1875H10.1475C10.6997 21.1874 11.1475 20.7397 11.1475 20.1875C11.1475 19.6353 10.6997 19.1876 10.1475 19.1875H4C3.44772 19.1875 3 19.6352 3 20.1875V26.4375C3 26.9898 3.44772 27.4375 4 27.4375C4.55228 27.4375 5 26.9898 5 26.4375ZM15.9365 3C10.346 3.00019 5.57463 6.50176 3.60742 11.4424C3.40316 11.9554 3.65306 12.5368 4.16602 12.7412C4.67904 12.9455 5.26046 12.6955 5.46484 12.1826C7.14535 7.96172 11.2081 5.00019 15.9365 5C20.1076 5 23.7596 7.30265 25.7178 10.7441C25.7312 10.7677 25.7458 10.7905 25.7607 10.8125H21.8525C21.3003 10.8126 20.8525 11.2603 20.8525 11.8125C20.8525 12.3647 21.3003 12.8124 21.8525 12.8125H28C28.5523 12.8125 29 12.3648 29 11.8125V5.5625C29 5.01022 28.5523 4.5625 28 4.5625C27.4477 4.5625 27 5.01022 27 5.5625V9.01074C24.6199 5.39256 20.5568 3 15.9365 3Z" fill="currentColor"/>
</svg>
