<svg viewBox="0 0 32 32" fill="none" xmlns="http://www.w3.org/2000/svg">
<path d="M29.25 18.875V19C28.5 22.1254 26.8956 24.7087 24.437 26.75C22.1036 28.7087 19.2703 29.688 15.937 29.688C14.187 29.688 12.4993 29.3754 10.874 28.75C9.24863 28.0834 7.81096 27.1457 6.56096 25.937L4.24796 28.25C3.95596 28.4587 3.68496 28.563 3.43496 28.563C3.18496 28.563 2.91396 28.4587 2.62196 28.25C2.41329 28.0414 2.30896 27.7704 2.30896 27.437V19.437C2.30896 19.1037 2.41329 18.8327 2.62196 18.624C2.83063 18.4154 3.10163 18.311 3.43496 18.311H11.435C11.7683 18.311 12.0393 18.4154 12.248 18.624C12.4566 18.916 12.561 19.187 12.561 19.437C12.561 19.687 12.4566 19.958 12.248 20.25L9.80996 22.688C10.6853 23.48 11.6436 24.0844 12.685 24.501C13.685 24.9177 14.7893 25.126 15.998 25.126C17.5813 25.126 19.0606 24.751 20.436 24.001C21.7693 23.251 22.8943 22.1884 23.811 20.813C23.9776 20.4377 24.2903 19.7294 24.749 18.688C24.8323 18.438 24.999 18.313 25.249 18.313H28.687C28.8956 18.313 29.0416 18.3547 29.125 18.438C29.2083 18.6047 29.25 18.7497 29.25 18.875ZM29.688 4.56304V12.563C29.688 12.8964 29.5836 13.1674 29.375 13.376C29.1663 13.5847 28.8953 13.689 28.562 13.689H20.562C20.2286 13.689 19.9576 13.5847 19.749 13.376C19.5403 13.084 19.436 12.813 19.436 12.563C19.436 12.313 19.5403 12.042 19.749 11.75L22.249 9.31204C20.499 7.6867 18.4156 6.87403 15.999 6.87403C14.4156 6.87403 12.9363 7.24903 11.561 7.99903C10.2276 8.74903 9.10263 9.8117 8.18596 11.187C8.01929 11.5624 7.70663 12.2707 7.24796 13.312C7.16463 13.562 6.99796 13.687 6.74796 13.687H3.18496C2.97629 13.687 2.83029 13.6454 2.74696 13.562C2.66363 13.3954 2.62196 13.2494 2.62196 13.124V12.999C3.37196 9.8737 4.97629 7.29037 7.43496 5.24904C9.81029 3.29037 12.6646 2.31104 15.998 2.31104C17.748 2.31104 19.4356 2.6237 21.061 3.24904C22.7696 3.9577 24.228 4.89537 25.436 6.06203L27.749 3.74904C28.041 3.54037 28.312 3.43604 28.562 3.43604C28.812 3.43604 29.083 3.54037 29.375 3.74904C29.5836 3.9577 29.688 4.2287 29.688 4.56203V4.56304Z" fill="currentColor"/>
</svg>
