<svg viewBox="0 0 32 32" fill="none" xmlns="http://www.w3.org/2000/svg">
<path d="M8.36364 5.81818H27.4545C27.7921 5.81818 28.1158 5.95227 28.3545 6.19096C28.5932 6.42964 28.7273 6.75336 28.7273 7.09091V16H26.1818V8.36364H8.36364V12.1818L2.48804 7.48134C2.23784 7.28118 2.23784 6.90064 2.48804 6.70047L8.36364 2V5.81818ZM23.6364 26.1818H4.54545C4.20791 26.1818 3.88418 26.0477 3.6455 25.809C3.40682 25.5704 3.27273 25.2466 3.27273 24.9091V16H5.81818V23.6364H23.6364V19.8182L29.512 24.5187C29.7622 24.7188 29.7622 25.0994 29.512 25.2995L23.6364 30V26.1818Z" fill="currentColor"/>
</svg>
