<svg viewBox="0 0 32 32" fill="none" xmlns="http://www.w3.org/2000/svg">
<path d="M18.6667 6V12C26.0307 12 32 17.9693 32 25.3333C32 25.6973 31.9867 26.0573 31.9573 26.4133C30.0067 22.7147 26.184 20.1587 21.7507 20.0067L21.3333 20H18.6667V26L8 16L18.6667 6ZM10.6667 6V9.64933L3.89333 16L10.6653 22.348L10.6667 26L0 16L10.6667 6ZM16 12.1547L11.8987 16L16 19.844V17.3333H21.3787L21.8413 17.3427C23.5547 17.4 25.2067 17.756 26.7427 18.364C24.7867 16.1 21.8933 14.6667 18.6667 14.6667H16V12.1547Z" fill="currentColor"/>
</svg>
