<svg viewBox="0 0 32 32" fill="none" xmlns="http://www.w3.org/2000/svg">
<path d="M22.0943 18.624H9.73574C9.48025 18.624 9.26151 18.7059 9.07953 18.8698C8.89754 19.0337 8.80625 19.2434 8.80567 19.4989C8.80508 19.7544 8.89637 19.9641 9.07953 20.128C9.26268 20.2919 9.48142 20.3739 9.73574 20.3739H22.0943C22.3498 20.3739 22.5686 20.2919 22.7505 20.128C22.9325 19.9641 23.0238 19.7544 23.0244 19.4989C23.025 19.2434 22.9337 19.0337 22.7505 18.8698C22.5674 18.7059 22.3487 18.624 22.0943 18.624ZM22.0943 22.9987H9.73574C9.48025 22.9987 9.26151 23.0806 9.07953 23.2445C8.89754 23.4085 8.80625 23.6181 8.80567 23.8736C8.80508 24.1291 8.89637 24.3388 9.07953 24.5027C9.26268 24.6666 9.48142 24.7486 9.73574 24.7486H22.0943C22.3498 24.7486 22.5686 24.6666 22.7505 24.5027C22.9325 24.3388 23.0238 24.1291 23.0244 23.8736C23.025 23.6181 22.9337 23.4085 22.7505 23.2445C22.5674 23.0806 22.3487 22.9987 22.0943 22.9987ZM24.7743 5.49978H22.0943V3.74989H19.7425C18.8675 2.5833 17.5916 2 15.9146 2C14.2376 2 12.9617 2.5833 12.0867 3.74989H9.73486V5.49978H7.0549C6.0703 5.49978 5.23181 5.84626 4.53944 6.53922C3.84706 7.23217 3.50058 8.05258 3.5 9.00044V26.4993C3.5 27.4472 3.84648 28.2676 4.53944 28.9606C5.23239 29.6535 6.07088 30 7.0549 30H24.7725C25.7572 30 26.5956 29.6535 27.288 28.9606C27.9804 28.2676 28.3269 27.4472 28.3275 26.4993V9.00044C28.3275 8.05258 27.981 7.23217 27.288 6.53922C26.5951 5.84626 25.7566 5.49978 24.7725 5.49978H24.7743ZM11.4856 5.49978H13.4543C13.4543 5.02556 13.6914 4.6155 14.1656 4.26961C14.6398 3.92371 15.2231 3.75047 15.9155 3.74989C16.6078 3.74931 17.1911 3.92255 17.6654 4.26961C18.1396 4.61667 18.3767 5.02673 18.3767 5.49978H20.3453V8.99956H11.4865V5.49978H11.4856ZM26.5242 26.4985C26.5242 27.0089 26.3509 27.4282 26.0045 27.7566C25.658 28.085 25.2479 28.2492 24.7743 28.2492H7.05665C6.58243 28.2492 6.17237 28.085 5.82648 27.7566C5.48058 27.4282 5.30735 27.0089 5.30676 26.4985V8.99956C5.30676 8.48918 5.48 8.06979 5.82648 7.74139C6.17296 7.413 6.58302 7.2488 7.05665 7.2488H9.73661V10.7486H22.0952V7.2488H24.7752C25.2494 7.2488 25.6594 7.413 26.0053 7.74139C26.3512 8.06979 26.5245 8.48918 26.5251 8.99956L26.5242 26.4985ZM22.0943 14.2492H9.73574C9.48025 14.2492 9.26151 14.3312 9.07953 14.4951C8.89754 14.659 8.80625 14.8687 8.80567 15.1242C8.80508 15.3797 8.89637 15.5894 9.07953 15.7533C9.26268 15.9172 9.48142 15.9991 9.73574 15.9991H22.0943C22.3498 15.9991 22.5686 15.9172 22.7505 15.7533C22.9325 15.5894 23.0238 15.3797 23.0244 15.1242C23.025 14.8687 22.9337 14.659 22.7505 14.4951C22.5674 14.3312 22.3487 14.2492 22.0943 14.2492Z" fill="currentColor"/>
</svg>
