<svg viewBox="0 0 32 32" fill="none" xmlns="http://www.w3.org/2000/svg">
<path d="M16.0001 2.83325C8.63608 2.83325 2.66675 9.17567 2.66675 16.9999C2.66675 24.8242 8.63608 31.1666 16.0001 31.1666C23.3641 31.1666 29.3334 24.8242 29.3334 16.9999H26.6667C26.6667 23.2588 21.8907 28.3333 16.0001 28.3333C10.1094 28.3333 5.33342 23.2588 5.33342 16.9999C5.33342 10.7411 10.1094 5.66659 16.0001 5.66659C19.2854 5.66659 22.2241 7.24475 24.1801 9.72533L21.3334 12.7499H29.3334V4.24992L26.0707 7.71509C23.6267 4.72592 20.0214 2.83325 16.0001 2.83325Z" fill="currentColor"/>
<path d="M11.0009 24H21.0001C21.1767 24 21.3287 23.9323 21.4561 23.797C21.5834 23.6617 21.6471 23.5002 21.6471 23.3125V16.6878C21.6471 16.5001 21.5834 16.3386 21.4561 16.2033C21.3287 16.068 21.1767 16.0003 21.0001 16.0003H20.3531V15.0313C20.3531 13.573 19.9315 12.3751 19.0883 11.4374C18.245 10.4791 17.2156 10 16 10C14.7845 10 13.7551 10.4791 12.9118 11.4374C12.0686 12.3334 11.647 13.5314 11.647 15.0313V16.0003H11C10.8234 16.0003 10.6714 16.068 10.544 16.2033C10.4167 16.3386 10.353 16.5001 10.353 16.6878V23.3125C10.353 23.5002 10.4167 23.6617 10.544 23.797C10.6714 23.9323 10.8243 24 11.0009 24ZM13.2069 15.0318C13.2069 13.9902 13.4814 13.1569 14.0303 12.5319C14.5793 11.9069 15.2362 11.5944 16.001 11.5944C16.7658 11.5944 17.4227 11.9069 17.9716 12.5319C18.5206 13.1569 18.7951 13.9902 18.7951 15.0318V16.0008H13.2073L13.2069 15.0318Z" fill="currentColor"/>
</svg>
