<svg viewBox="0 0 32 32" fill="none" xmlns="http://www.w3.org/2000/svg">
<path d="M25.9095 2L20.2837 7.62557L16.9814 4.32332C16.6664 4.00835 16.1278 4.23144 16.1278 4.67688V15.3716C16.1278 15.6478 16.3517 15.8716 16.6278 15.8716H27.3229C27.7684 15.8716 27.9915 15.3331 27.6765 15.0181L24.3742 11.7159L30 6.0903L25.9095 2Z" fill="currentColor"/>
<path d="M6.09045 29.8716L11.7162 24.2461L15.0186 27.5483C15.3336 27.8633 15.8721 27.6402 15.8721 27.1948V16.5C15.8721 16.2239 15.6483 16 15.3721 16H4.677C4.23154 16 4.00846 16.5386 4.32345 16.8536L7.62578 20.1558L2 25.7813L6.09045 29.8716Z" fill="currentColor"/>
</svg>
