<svg viewBox="0 0 32 32" fill="none" xmlns="http://www.w3.org/2000/svg">
<path d="M18.8826 2C18.4352 2 18.213 2.54246 18.5318 2.8563L21.8177 6.09132L16.1279 11.7813L20.219 15.8727L25.9088 10.1826L29.1437 13.4686C29.4575 13.7874 30 13.5652 30 13.1178V2.5C30 2.22386 29.7761 2 29.5 2H18.8826ZM11.781 16.1273L6.09117 21.8174L2.85631 18.5314C2.54248 18.2126 2 18.4348 2 18.8822V29.5C2 29.7761 2.22386 30 2.5 30H13.1174C13.5648 30 13.787 29.4575 13.4682 29.1437L10.1824 25.9087L15.8722 20.2187L11.781 16.1273Z" fill="currentColor"/>
</svg>
