<svg viewBox="0 0 32 32" fill="none" xmlns="http://www.w3.org/2000/svg">
<path d="M28 3V29H25.4444V18.6H21.6111V9.5C21.6111 7.77609 22.2842 6.12279 23.4824 4.90381C24.6805 3.68482 26.3056 3 28 3V3ZM12.6667 18.47V29H10.1111V18.47C8.66826 18.1699 7.37155 17.372 6.44024 16.2113C5.50894 15.0506 5.00018 13.5983 5 12.1V4.3H7.55556V13.4H10.1111V4.3H12.6667V13.4H15.2222V4.3H17.7778V12.1C17.7776 13.5983 17.2688 15.0506 16.3375 16.2113C15.4062 17.372 14.1095 18.1699 12.6667 18.47V18.47Z" fill="currentColor"/>
</svg>
