<svg viewBox="0 0 32 32" fill="none" xmlns="http://www.w3.org/2000/svg">
<path d="M27.6364 2C28.7937 2 29.9036 2.4583 30.7219 3.27409C31.5403 4.08987 32 5.19631 32 6.35V9.25H29.0909V26.65C29.0909 27.8037 28.6312 28.9101 27.8128 29.7259C26.9945 30.5417 25.8846 31 24.7273 31H4.36364C3.20633 31 2.09642 30.5417 1.27808 29.7259C0.459739 28.9101 0 27.8037 0 26.65V25H23.2727V26.65C23.2728 27.0052 23.4036 27.3479 23.6403 27.6133C23.8771 27.8787 24.2033 28.0483 24.5571 28.0899L24.7273 28.1C25.0835 28.1 25.4274 27.9696 25.6936 27.7336C25.9599 27.4976 26.13 27.1724 26.1716 26.8197L26.1818 26.65V4.9H7.27273C6.91646 4.90005 6.5726 5.03044 6.30637 5.26644C6.04014 5.50244 5.87005 5.82764 5.82836 6.18035L5.81818 6.35V23H2.90909V6.35C2.90909 5.19631 3.36883 4.08987 4.18717 3.27409C5.00551 2.4583 6.11542 2 7.27273 2H27.6364Z" fill="currentColor"/>
<path d="M22 8V22H20.5556V16.4H18.3889V11.5C18.3889 10.5717 18.7693 9.6815 19.4466 9.02513C20.1238 8.36875 21.0423 8 22 8ZM13.3333 16.33V22H11.8889V16.33C11.0734 16.1684 10.3404 15.7388 9.81405 15.1138C9.28766 14.4888 9.0001 13.7068 9 12.9V8.7H10.4444V13.6H11.8889V8.7H13.3333V13.6H14.7778V8.7H16.2222V12.9C16.2221 13.7068 15.9346 14.4888 15.4082 15.1138C14.8818 15.7388 14.1489 16.1684 13.3333 16.33Z" fill="currentColor"/>
</svg>
