<svg viewBox="0 0 32 32" fill="none" xmlns="http://www.w3.org/2000/svg">
<path d="M4.60526 23.2177H26.3947C26.5071 23.2177 26.6173 23.2486 26.7129 23.307C26.8086 23.3654 26.8858 23.4489 26.9361 23.5482C26.9864 23.6475 27.0077 23.7586 26.9976 23.8692C26.9875 23.9798 26.9464 24.0854 26.8789 24.1742L24.3368 27.5218C24.2241 27.6703 24.0779 27.7908 23.9098 27.8738C23.7417 27.9568 23.5563 28 23.3684 28H7.63158C7.44365 28 7.2583 27.9568 7.09022 27.8738C6.92213 27.7908 6.77591 27.6703 6.66316 27.5218L4.12105 24.1742C4.05361 24.0854 4.01254 23.9798 4.00245 23.8692C3.99235 23.7586 4.01363 23.6475 4.0639 23.5482C4.11417 23.4489 4.19144 23.3654 4.28706 23.307C4.38267 23.2486 4.49286 23.2177 4.60526 23.2177V23.2177ZM19.1316 4.59672V19.631C19.1316 19.9481 19.004 20.2522 18.777 20.4764C18.55 20.7006 18.2421 20.8266 17.9211 20.8266H5.86421C5.75032 20.8264 5.63878 20.7945 5.54242 20.7346C5.44606 20.6746 5.36879 20.589 5.31948 20.4876C5.27017 20.3862 5.25082 20.2731 5.26367 20.1614C5.27652 20.0496 5.32104 19.9437 5.39211 19.8558L18.0542 4.2237C18.1326 4.12721 18.2394 4.05711 18.3598 4.02307C18.4802 3.98904 18.6083 3.99273 18.7266 4.03366C18.8448 4.07459 18.9472 4.15072 19.0197 4.25157C19.0923 4.35242 19.1314 4.47301 19.1316 4.59672Z" fill="currentColor"/>
</svg>
