<svg viewBox="0 0 32 32" fill="none" xmlns="http://www.w3.org/2000/svg">
<path d="M3.55556 2H25.3333L29.5442 6.21089C29.836 6.50254 29.9999 6.89814 30 7.31067V28.4444C30 28.857 29.8361 29.2527 29.5444 29.5444C29.2527 29.8361 28.857 30 28.4444 30H3.55556C3.143 30 2.74733 29.8361 2.45561 29.5444C2.16389 29.2527 2 28.857 2 28.4444V3.55556C2 3.143 2.16389 2.74733 2.45561 2.45561C2.74733 2.16389 3.143 2 3.55556 2V2ZM8.22222 3.55556V11.3333H22.2222V3.55556H8.22222ZM6.66667 16V26.8889H25.3333V16H6.66667ZM17.5556 5.11111H20.6667V9.77778H17.5556V5.11111Z" fill="currentColor"/>
</svg>
