<svg viewBox="0 0 32 32" fill="none" xmlns="http://www.w3.org/2000/svg">
<path fill-rule="evenodd" clip-rule="evenodd" d="M7.2627 5.9999C7.56256 5.99996 7.80243 6.13475 7.98242 6.40419L8.07227 6.53994C8.13228 6.65971 8.22276 6.83188 8.34277 7.05654C8.46278 7.28119 8.58311 7.49858 8.70312 7.7079C8.77816 7.82754 8.87 7.98441 8.97852 8.17861L9.73242 9.57119C9.84113 9.76574 9.93269 9.9231 10.0078 10.0429C10.608 11.1208 11.073 11.9596 11.4033 12.5585C11.7634 13.2772 12.1541 14.026 12.5742 14.8046C12.8742 15.3736 13.0254 15.718 13.0254 15.8378C13.0254 16.4366 12.8298 17.0059 12.4395 17.5448C12.0794 17.994 11.5691 18.3828 10.9092 18.7118C10.1892 19.0112 9.57377 19.2209 9.06348 19.3407C8.49313 19.4605 7.89257 19.5204 7.2627 19.5204C6.63274 19.5204 6.03233 19.4605 5.46191 19.3407C4.86176 19.2209 4.24661 19.0112 3.61621 18.7118C2.95622 18.3823 2.44602 17.9936 2.08594 17.5448C1.69561 17.0657 1.50003 16.4965 1.5 15.8378C1.5 15.718 1.6502 15.3736 1.9502 14.8046C2.04045 14.6547 2.21289 14.325 2.46777 13.8163C2.72267 13.3076 2.94009 12.8881 3.12012 12.5585C3.45046 11.9596 3.91642 11.1209 4.5166 10.0429C4.93664 9.23433 5.372 8.4561 5.82227 7.7079C5.9423 7.49806 6.06258 7.28076 6.18262 7.05654C6.30255 6.83251 6.39213 6.66017 6.45215 6.53994L6.54199 6.40419C6.69228 6.13454 6.93288 5.9999 7.2627 5.9999ZM7.64648 9.88369C7.46156 9.51763 6.93883 9.51763 6.75391 9.88369L4.16895 14.9999H10.2314L7.64648 9.88369Z" fill="currentColor"/>
<path fill-rule="evenodd" clip-rule="evenodd" d="M24.7627 10.9999C25.0626 11 25.3024 11.1347 25.4824 11.4042L25.5723 11.5399C25.6323 11.6597 25.7228 11.8319 25.8428 12.0565C25.9628 12.2812 26.0831 12.4986 26.2031 12.7079C26.2782 12.8275 26.37 12.9844 26.4785 13.1786L27.2324 14.5712C27.3411 14.7657 27.4327 14.9231 27.5078 15.0429C28.108 16.1208 28.573 16.9596 28.9033 17.5585C29.2634 18.2772 29.6541 19.026 30.0742 19.8046C30.3742 20.3736 30.5254 20.718 30.5254 20.8378C30.5254 21.4366 30.3298 22.0059 29.9395 22.5448C29.5794 22.994 29.0691 23.3828 28.4092 23.7118C27.6892 24.0112 27.0738 24.2209 26.5635 24.3407C25.9931 24.4605 25.3926 24.5204 24.7627 24.5204C24.1327 24.5204 23.5323 24.4605 22.9619 24.3407C22.3618 24.2209 21.7466 24.0112 21.1162 23.7118C20.4562 23.3823 19.946 22.9936 19.5859 22.5448C19.1956 22.0657 19 21.4965 19 20.8378C19 20.718 19.1502 20.3736 19.4502 19.8046C19.5404 19.6547 19.7129 19.325 19.9678 18.8163C20.2227 18.3076 20.4401 17.8881 20.6201 17.5585C20.9505 16.9596 21.4164 16.1209 22.0166 15.0429C22.4366 14.2343 22.872 13.4561 23.3223 12.7079C23.4423 12.4981 23.5626 12.2808 23.6826 12.0565C23.8025 11.8325 23.8921 11.6602 23.9521 11.5399L24.042 11.4042C24.1923 11.1345 24.4329 10.9999 24.7627 10.9999ZM25.1465 14.8837C24.9616 14.5176 24.4388 14.5176 24.2539 14.8837L21.6689 19.9999H27.7314L25.1465 14.8837Z" fill="currentColor"/>
<path d="M15 6.9999C15 6.44761 15.4477 5.9999 16 5.9999C16.5523 5.9999 17 6.44761 17 6.9999V26.9999C17 27.5522 16.5523 27.9999 16 27.9999C15.4477 27.9999 15 27.5522 15 26.9999V6.9999Z" fill="currentColor"/>
<path d="M22 25.9999C22.5523 25.9999 23 26.4476 23 26.9999V27.9999C23 28.5522 22.5523 28.9999 22 28.9999H10C9.44772 28.9999 9 28.5522 9 27.9999V26.9999C9 26.4476 9.44772 25.9999 10 25.9999H22Z" fill="currentColor"/>
<path d="M26.3663 9.81278C26.8998 9.95572 27.4481 9.63914 27.5911 9.10567C27.734 8.57221 27.4174 8.02387 26.884 7.88093L5.63361 2.18691C5.10014 2.04397 4.5518 2.36055 4.40886 2.89402C4.26592 3.42748 4.5825 3.97582 5.11597 4.11876L26.3663 9.81278Z" fill="currentColor"/>
</svg>
