<svg viewBox="0 0 32 32" fill="none" xmlns="http://www.w3.org/2000/svg">
<path fill-rule="evenodd" clip-rule="evenodd" d="M7.2627 8C7.56256 8.00006 7.80243 8.13485 7.98242 8.4043L8.07227 8.54004C8.13228 8.65981 8.22276 8.83199 8.34277 9.05664C8.46278 9.28129 8.58311 9.49868 8.70312 9.70801C8.77816 9.82764 8.87 9.98451 8.97852 10.1787L9.73242 11.5713C9.84113 11.7658 9.93269 11.9232 10.0078 12.043C10.608 13.1209 11.073 13.9597 11.4033 14.5586C11.7634 15.2773 12.1541 16.0261 12.5742 16.8047C12.8742 17.3737 13.0254 17.7181 13.0254 17.8379C13.0254 18.4367 12.8298 19.006 12.4395 19.5449C12.0794 19.9942 11.5691 20.3829 10.9092 20.7119C10.1892 21.0113 9.57377 21.221 9.06348 21.3408C8.49313 21.4606 7.89257 21.5205 7.2627 21.5205C6.63274 21.5205 6.03233 21.4606 5.46191 21.3408C4.86176 21.221 4.24661 21.0113 3.61621 20.7119C2.95622 20.3824 2.44602 19.9937 2.08594 19.5449C1.69561 19.0659 1.50003 18.4966 1.5 17.8379C1.5 17.7181 1.6502 17.3737 1.9502 16.8047C2.04045 16.6548 2.21289 16.3251 2.46777 15.8164C2.72267 15.3077 2.94009 14.8882 3.12012 14.5586C3.45046 13.9597 3.91642 13.121 4.5166 12.043C4.93664 11.2344 5.372 10.4562 5.82227 9.70801C5.9423 9.49816 6.06258 9.28086 6.18262 9.05664C6.30255 8.83262 6.39213 8.66028 6.45215 8.54004L6.54199 8.4043C6.69228 8.13464 6.93288 8 7.2627 8ZM7.64648 11.8838C7.46156 11.5177 6.93883 11.5177 6.75391 11.8838L4.16895 17H10.2314L7.64648 11.8838Z" fill="currentColor"/>
<path fill-rule="evenodd" clip-rule="evenodd" d="M24.7627 8C25.0626 8.00006 25.3024 8.13485 25.4824 8.4043L25.5723 8.54004C25.6323 8.65981 25.7228 8.83199 25.8428 9.05664C25.9628 9.28129 26.0831 9.49868 26.2031 9.70801C26.2782 9.82764 26.37 9.98451 26.4785 10.1787L27.2324 11.5713C27.3411 11.7658 27.4327 11.9232 27.5078 12.043C28.108 13.1209 28.573 13.9597 28.9033 14.5586C29.2634 15.2773 29.6541 16.0261 30.0742 16.8047C30.3742 17.3737 30.5254 17.7181 30.5254 17.8379C30.5254 18.4367 30.3298 19.006 29.9395 19.5449C29.5794 19.9942 29.0691 20.3829 28.4092 20.7119C27.6892 21.0113 27.0738 21.221 26.5635 21.3408C25.9931 21.4606 25.3926 21.5205 24.7627 21.5205C24.1327 21.5205 23.5323 21.4606 22.9619 21.3408C22.3618 21.221 21.7466 21.0113 21.1162 20.7119C20.4562 20.3824 19.946 19.9937 19.5859 19.5449C19.1956 19.0659 19 18.4966 19 17.8379C19 17.7181 19.1502 17.3737 19.4502 16.8047C19.5404 16.6548 19.7129 16.3251 19.9678 15.8164C20.2227 15.3077 20.4401 14.8882 20.6201 14.5586C20.9505 13.9597 21.4164 13.121 22.0166 12.043C22.4366 11.2344 22.872 10.4562 23.3223 9.70801C23.4423 9.49816 23.5626 9.28086 23.6826 9.05664C23.8025 8.83262 23.8921 8.66028 23.9521 8.54004L24.042 8.4043C24.1923 8.13464 24.4329 8 24.7627 8ZM25.1465 11.8838C24.9616 11.5177 24.4388 11.5177 24.2539 11.8838L21.6689 17H27.7314L25.1465 11.8838Z" fill="currentColor"/>
<path d="M15 7C15 6.44772 15.4477 6 16 6C16.5523 6 17 6.44772 17 7V27C17 27.5523 16.5523 28 16 28C15.4477 28 15 27.5523 15 27V7Z" fill="currentColor"/>
<path d="M22 26C22.5523 26 23 26.4477 23 27V28C23 28.5523 22.5523 29 22 29H10C9.44772 29 9 28.5523 9 28V27C9 26.4477 9.44772 26 10 26H22Z" fill="currentColor"/>
<path d="M27 5C27.5523 5 28 5.44772 28 6C28 6.55228 27.5523 7 27 7H5C4.44772 7 4 6.55228 4 6C4 5.44772 4.44772 5 5 5H27Z" fill="currentColor"/>
</svg>
