<svg viewBox="0 0 32 32" fill="none" xmlns="http://www.w3.org/2000/svg">
<path d="M16.0007 18.7428L12.9883 21.7593C13.4594 22.872 13.5295 24.1141 13.1864 25.2728C12.8433 26.4315 12.1084 27.4346 11.1078 28.1102C10.1071 28.7858 8.90289 29.0919 7.70157 28.976C6.50024 28.86 5.37659 28.3293 4.52319 27.4747C3.66979 26.6201 3.13978 25.4949 3.024 24.292C2.90821 23.089 3.21386 21.8831 3.88857 20.8811C4.56327 19.879 5.56501 19.1432 6.72211 18.7996C7.8792 18.456 9.11961 18.5262 10.2307 18.998L13.2444 15.9815L5.87273 8.60355C5.63117 8.36175 5.43954 8.07466 5.3088 7.75868C5.17806 7.4427 5.11077 7.10402 5.11077 6.762C5.11077 6.41997 5.17806 6.08129 5.3088 5.76532C5.43954 5.44934 5.63117 5.16225 5.87273 4.92045L6.79322 4L16.0007 13.2214L25.2068 4.0013L26.1273 4.92175C26.3688 5.16355 26.5605 5.45064 26.6912 5.76662C26.8219 6.0826 26.8892 6.42127 26.8892 6.7633C26.8892 7.10533 26.8219 7.444 26.6912 7.75998C26.5605 8.07596 26.3688 8.36305 26.1273 8.60485L18.7569 15.9815L21.7693 18.998C22.8804 18.5262 24.1208 18.456 25.2779 18.7996C26.435 19.1432 27.4367 19.879 28.1114 20.8811C28.7861 21.8831 29.0918 23.089 28.976 24.292C28.8602 25.4949 28.3302 26.6201 27.4768 27.4747C26.6234 28.3293 25.4998 28.86 24.2984 28.976C23.0971 29.0919 21.8929 28.7858 20.8922 28.1102C19.8916 27.4346 19.1567 26.4315 18.8136 25.2728C18.4705 24.1141 18.5406 22.872 19.0117 21.7593L16.0007 18.7415V18.7428ZM8.19994 26.3967C8.88957 26.3967 9.55095 26.1224 10.0386 25.6341C10.5262 25.1458 10.8002 24.4835 10.8002 23.7929C10.8002 23.1023 10.5262 22.44 10.0386 21.9517C9.55095 21.4634 8.88957 21.1891 8.19994 21.1891C7.51032 21.1891 6.84894 21.4634 6.3613 21.9517C5.87366 22.44 5.59971 23.1023 5.59971 23.7929C5.59971 24.4835 5.87366 25.1458 6.3613 25.6341C6.84894 26.1224 7.51032 26.3967 8.19994 26.3967V26.3967ZM23.8014 26.3967C24.491 26.3967 25.1524 26.1224 25.64 25.6341C26.1276 25.1458 26.4016 24.4835 26.4016 23.7929C26.4016 23.1023 26.1276 22.44 25.64 21.9517C25.1524 21.4634 24.491 21.1891 23.8014 21.1891C23.1117 21.1891 22.4504 21.4634 21.9627 21.9517C21.4751 22.44 21.2011 23.1023 21.2011 23.7929C21.2011 24.4835 21.4751 25.1458 21.9627 25.6341C22.4504 26.1224 23.1117 26.3967 23.8014 26.3967V26.3967Z" fill="currentColor"/>
</svg>
