<svg viewBox="0 0 32 32" fill="none" xmlns="http://www.w3.org/2000/svg">
<path fill-rule="evenodd" clip-rule="evenodd" d="M13.6682 1C15.3905 1 17.0506 1.31611 18.6478 1.94796C20.2866 2.70576 21.6315 3.61139 22.6815 4.6642C23.7736 5.75871 24.6771 7.12694 25.3915 8.7689C26.0638 10.3687 26.4002 12.011 26.4002 13.695C26.4002 16.3477 25.6432 18.7478 24.1307 20.8947L30.3073 27.0836C30.7697 27.547 30.9999 28.0733 31 28.6625C31 29.2944 30.7688 29.8425 30.3063 30.3052C29.8438 30.7679 29.2975 30.9993 28.6677 31C28.0379 31.0007 27.4915 30.7692 27.0291 30.3052L20.8525 24.1163C18.7095 25.6317 16.3146 26.3889 13.6682 26.3889C11.9036 26.3889 10.2649 26.0528 8.75243 25.3792C7.19753 24.7056 5.85282 23.8 4.71874 22.6629C3.58401 21.5683 2.68093 20.2209 2.00868 18.621C1.33644 16.937 1 15.2948 1 13.695C1.00003 12.011 1.33647 10.3687 2.00868 8.7689C2.7232 7.12691 3.62654 5.75871 4.71874 4.6642C5.81114 3.56956 7.15585 2.66403 8.75243 1.94796C10.3073 1.3161 11.9459 1 13.6682 1ZM13.5897 4.21429C8.41188 4.21429 4.2144 8.41162 4.2144 13.5893C4.2144 18.767 8.41188 22.9643 13.5897 22.9643C18.7676 22.9643 22.9651 18.767 22.9651 13.5893C22.9651 8.41162 18.7676 4.21429 13.5897 4.21429Z" fill="currentColor"/>
</svg>
