<svg viewBox="0 0 32 32" fill="none" xmlns="http://www.w3.org/2000/svg">
<path d="M8.74997 1.87502L9.37497 2.81302C6.91631 4.06302 4.93697 5.86502 3.43697 8.21902C1.93697 10.573 1.18697 13.1667 1.18697 16C1.18697 18.8334 1.92664 21.427 3.40597 23.781C4.88531 26.135 6.83331 27.937 9.24997 29.187L8.68697 30.062C6.10364 28.7287 4.04097 26.8017 2.49897 24.281C0.956974 21.7604 0.185974 19 0.185974 16C0.185974 13 0.967307 10.229 2.52997 7.68702C4.09264 5.14502 6.16564 3.20736 8.74897 1.87402L8.74997 1.87502ZM23.25 1.87502C25.8333 3.20836 27.9063 5.14602 29.469 7.68802C31.0316 10.23 31.813 13.001 31.813 16.001C31.813 19.001 31.042 21.7614 29.5 24.282C27.958 26.8027 25.8953 28.7297 23.312 30.063L22.749 29.188C25.1656 27.938 27.1136 26.136 28.593 23.782C30.0723 21.428 30.812 18.8344 30.812 16.001C30.812 13.1677 30.062 10.574 28.562 8.22002C27.062 5.86602 25.0826 4.06402 22.624 2.81402L23.25 1.87502ZM21.063 5.25002C23.105 6.20869 24.751 7.65669 26.001 9.59402C27.251 11.5314 27.876 13.6667 27.876 16C27.876 18.3334 27.2613 20.4584 26.032 22.375C24.8026 24.2917 23.1673 25.7294 21.126 26.688L20.563 25.813C22.4383 24.9377 23.9486 23.625 25.094 21.875C26.2393 20.125 26.8123 18.1667 26.813 16C26.8136 13.8334 26.2406 11.8647 25.094 10.094C23.9473 8.32336 22.416 7.00036 20.5 6.12502L21.063 5.25002ZM10.938 5.25002L11.501 6.12502C9.58431 7.00036 8.05297 8.32336 6.90697 10.094C5.76097 11.8647 5.18797 13.8334 5.18797 16C5.18797 18.1667 5.76097 20.125 6.90697 21.875C8.05297 23.625 9.56331 24.9377 11.438 25.813L10.875 26.688C8.83297 25.7294 7.19764 24.2917 5.96897 22.375C4.74031 20.4584 4.12564 18.3334 4.12497 16C4.12431 13.6667 4.74931 11.5314 5.99997 9.59402C7.25064 7.65669 8.89664 6.20869 10.938 5.25002ZM16 8.06302C18.1666 8.06302 20.0313 8.84436 21.594 10.407C23.1566 11.9697 23.938 13.8344 23.938 16.001C23.938 18.1677 23.1566 20.0324 21.594 21.595C20.0313 23.1577 18.1666 23.939 16 23.939C13.8333 23.939 11.9686 23.1577 10.406 21.595C8.84331 20.0324 8.06197 18.1677 8.06197 16.001C8.06197 13.8344 8.84331 11.9697 10.406 10.407C11.9686 8.84436 13.8333 8.06302 16 8.06302ZM16 10.625C14.5 10.625 13.229 11.146 12.187 12.188C11.145 13.23 10.624 14.501 10.624 16.001C10.624 17.501 11.145 18.772 12.187 19.814C13.229 20.856 14.5 21.377 16 21.377C17.5 21.377 18.771 20.856 19.813 19.814C20.855 18.772 21.376 17.501 21.376 16.001C21.376 14.501 20.855 13.23 19.813 12.188C18.771 11.146 17.5 10.625 16 10.625Z" fill="currentColor"/>
</svg>
