<svg viewBox="0 0 32 32" fill="none" xmlns="http://www.w3.org/2000/svg">
<path d="M14.9509 15.969C14.9509 14.7762 14.5227 13.7425 13.6664 12.8677C12.8486 12.0325 11.8559 11.6148 10.6882 11.6148C9.48117 11.6148 8.46912 12.0325 7.65201 12.8677C6.79566 13.822 6.36749 14.8557 6.36749 15.969C6.36749 17.0823 6.79566 18.116 7.65201 19.0702C8.46975 19.9055 9.48179 20.3231 10.6882 20.3231C11.8559 20.3231 12.8486 19.9055 13.6664 19.0702C14.5227 18.1955 14.9509 17.1618 14.9509 15.969ZM27.7382 24.6763C27.7382 24.0796 27.5239 23.5825 27.0955 23.1849C26.7062 22.7472 26.2195 22.5284 25.6353 22.5284C25.0125 22.5284 24.5065 22.7472 24.1172 23.1849C23.6888 23.6225 23.4745 24.1197 23.4745 24.6763C23.4745 25.273 23.6888 25.7899 24.1172 26.2269C24.5457 26.664 25.0517 26.8828 25.6353 26.8835C26.1803 26.8835 26.667 26.6646 27.0955 26.2269C27.5239 25.8294 27.7382 25.3125 27.7382 24.6763ZM27.7382 7.26165C27.7382 6.6255 27.5239 6.10862 27.0955 5.71103C26.667 5.27335 26.1803 5.05452 25.6353 5.05452C25.0511 5.05452 24.5451 5.27335 24.1172 5.71103C23.6894 6.1487 23.4751 6.66557 23.4745 7.26165C23.4745 7.77884 23.6888 8.29572 24.1172 8.81227C24.5065 9.20987 25.0125 9.40866 25.6353 9.40866C26.2195 9.40866 26.7062 9.20987 27.0955 8.81227C27.5239 8.3746 27.7382 7.85772 27.7382 7.26165ZM21.3156 14.4184V17.5797C21.3156 17.7388 21.2767 17.8383 21.1988 17.8784C21.1596 17.998 21.0817 18.0578 20.9653 18.0578L18.3962 18.4757C18.1627 19.0324 17.968 19.4697 17.8123 19.7878C18.6687 20.9011 19.1747 21.5573 19.3304 21.7564C19.4083 21.9154 19.4472 22.0347 19.4472 22.1142C19.4472 22.2338 19.4083 22.3334 19.3304 22.4129C19.2526 22.5325 18.8048 23.0494 17.987 23.9635C17.2472 24.6397 16.7994 24.9779 16.6437 24.9779C16.5658 24.9779 16.449 24.9381 16.2933 24.8586L14.3661 23.308C13.8211 23.5465 13.393 23.7256 13.0816 23.8452C12.9645 25.0781 12.8477 25.9528 12.7312 26.4693C12.6142 26.748 12.4388 26.8873 12.2053 26.8873H9.11029C9.03244 26.8873 8.91567 26.8475 8.75997 26.768C8.75997 26.7279 8.74035 26.6783 8.70111 26.6191C8.66188 26.56 8.62295 26.5104 8.58434 26.4703L8.23402 23.8461C7.88338 23.7265 7.45521 23.5475 6.94949 23.3089L5.02225 24.8595C4.86655 24.9391 4.74977 24.9788 4.67192 24.9788C4.55484 24.9788 4.43806 24.919 4.3216 24.7994C2.72537 23.2886 1.92725 22.3938 1.92725 22.1152C1.92725 22.0357 1.96617 21.9164 2.04402 21.7573C2.16111 21.5582 2.39466 21.2599 2.74467 20.8623C2.86176 20.7032 3.01746 20.5044 3.21177 20.2659C3.40608 20.0273 3.50355 19.888 3.50417 19.8479C3.15354 19.0527 2.95891 18.5756 2.9203 18.4166L0.409178 17.9986C0.292092 17.9986 0.194624 17.9589 0.116775 17.8794C0.0389249 17.7998 0 17.6806 0 17.5215V14.3602C0 14.2011 0.0389249 14.1016 0.116775 14.0615C0.194624 13.9419 0.272474 13.8821 0.350324 13.8821L2.97822 13.4641C3.09531 13.106 3.27063 12.6686 3.50417 12.1521C2.64783 11.0388 2.1418 10.3826 1.9861 10.1835C1.90825 10.0245 1.86933 9.90518 1.86933 9.82566C1.86933 9.70607 1.90825 9.60651 1.9861 9.52699C2.06395 9.40739 2.51175 8.89052 3.32948 7.97637C4.06936 7.30014 4.51716 6.96202 4.67286 6.96202C4.75071 6.96202 4.86748 7.00178 5.02318 7.0813L6.95043 8.63192C7.18398 8.51233 7.61215 8.33325 8.23495 8.09469C8.35204 6.90191 8.46881 6.0272 8.58527 5.47056C8.70236 5.19193 8.87768 5.05261 9.11123 5.05261H12.2062C12.2841 5.05261 12.4008 5.09237 12.5565 5.17189C12.6736 5.29148 12.7322 5.39104 12.7322 5.47056L13.0825 8.09469C13.4331 8.21429 13.8613 8.39336 14.367 8.63192L16.2943 7.0813C16.45 7.00178 16.5667 6.96202 16.6446 6.96202C16.7617 6.96202 16.8785 7.02182 16.9949 7.14142C18.5912 8.61284 19.3893 9.50759 19.3893 9.82566C19.3893 9.9847 19.3503 10.104 19.2725 10.1835C19.1554 10.3826 18.9219 10.681 18.5718 11.0786C18.494 11.2376 18.4065 11.3769 18.3093 11.4965L18.0169 11.8544C18.0169 11.8544 17.9487 11.9339 17.8123 12.0929C18.0851 12.6896 18.2798 13.1667 18.3962 13.5243L20.9653 13.8821L21.082 14.0014C21.082 14.0014 21.121 14.0214 21.1988 14.0615C21.2767 14.141 21.3156 14.2603 21.3156 14.4193V14.4184ZM32 23.4835V25.8691C32 26.0281 31.1826 26.2072 29.5477 26.4063L29.402 26.705C29.402 26.705 29.3435 26.8144 29.2264 27.0333C29.1093 27.2521 29.0411 27.3415 29.0218 27.3014C29.606 28.6138 29.8981 29.3893 29.8981 29.6278L29.8392 29.7471L27.7373 31C27.6594 31 27.4062 30.7217 26.9778 30.1651C26.8221 30.006 26.6567 29.7974 26.4817 29.5391C26.3067 29.2808 26.1803 29.1119 26.1024 29.0324H25.1094C25.0315 29.1119 24.8951 29.2808 24.7002 29.5391C24.5052 29.7974 24.3495 30.006 24.2331 30.1651C23.8046 30.7217 23.5514 31 23.4736 31C23.0065 30.7214 22.3251 30.3037 21.4296 29.7471C21.3517 29.7471 21.3128 29.7073 21.3128 29.6278C21.3128 29.3893 21.6049 28.6138 22.1891 27.3014L21.6631 26.4063C20.0283 26.2072 19.2108 26.0281 19.2108 25.8691V23.4835C19.2108 23.3245 20.0283 23.1454 21.6631 22.9463C21.8967 22.5487 22.072 22.2704 22.1891 22.1114C21.6049 20.799 21.3128 20.0038 21.3128 19.7258L21.4296 19.6065C21.5853 19.527 21.7799 19.4077 22.0134 19.2487C22.1305 19.1692 22.2959 19.0696 22.5095 18.95C22.7231 18.8304 22.8692 18.7509 22.9476 18.7114L23.4736 18.4128C23.5514 18.4128 23.8046 18.6714 24.2331 19.1886L24.5834 19.6657C24.5834 19.6657 24.6905 19.8148 24.9048 20.1132C25.119 20.4116 25.1872 20.5009 25.1094 20.3813C25.2651 20.3413 25.4404 20.3212 25.6353 20.3212C25.791 20.3212 25.9467 20.3413 26.1024 20.3813C26.453 19.9042 26.9591 19.2681 27.6205 18.4729L27.7373 18.4128C27.7765 18.4128 28.4771 18.8104 29.8392 19.6056C29.8392 19.6456 29.8489 19.6657 29.8682 19.6657C29.8875 19.6657 29.8971 19.6857 29.8971 19.7258C29.8971 20.0044 29.605 20.7996 29.0208 22.1114C29.1379 22.2704 29.3132 22.5487 29.5468 22.9463C31.1816 23.1454 32 23.3245 32 23.4835ZM32 6.06886V8.45444C32 8.61347 31.1826 8.79255 29.5477 8.99167C29.2363 9.46878 29.061 9.7471 29.0218 9.82662C29.606 11.139 29.8981 11.9342 29.8981 12.2122C29.8981 12.2523 29.8884 12.2723 29.8691 12.2723C29.8498 12.2723 29.8401 12.2923 29.8401 12.3324C29.6452 12.452 29.4602 12.5614 29.2852 12.6607C29.1102 12.7599 28.9545 12.8493 28.8181 12.9288C28.6817 13.0083 28.5553 13.078 28.4388 13.1378L28.1464 13.2867C28.1464 13.2867 28.0782 13.3264 27.9418 13.4059C27.8055 13.4854 27.7569 13.5055 27.7961 13.466L27.7373 13.5262C27.6202 13.5262 27.367 13.2676 26.9778 12.7504L26.6274 12.2733C26.6274 12.2733 26.5203 12.1241 26.3061 11.8257C26.0918 11.5274 26.0236 11.438 26.1015 11.5576C25.9458 11.5977 25.7901 11.6177 25.6344 11.6177C25.4394 11.6177 25.2641 11.5977 25.1084 11.5576C25.0692 11.5977 25.001 11.687 24.9038 11.8257C24.8067 11.9644 24.6996 12.1136 24.5825 12.2733L24.2321 12.7504C23.8429 13.2676 23.5897 13.5262 23.4726 13.5262C23.0055 13.2475 22.3242 12.8499 21.4286 12.3334L21.3118 12.2141C21.3118 11.9355 21.6039 11.1403 22.1881 9.82852C22.071 9.66949 21.8957 9.39117 21.6622 8.99357C20.0273 8.79446 19.2099 8.61538 19.2099 8.45634V6.07077C19.2099 5.91173 20.0273 5.73266 21.6622 5.53354C21.8571 5.17539 22.0324 4.87703 22.1881 4.63847C21.6039 3.32609 21.3118 2.55062 21.3118 2.31206C21.3118 2.23255 21.3508 2.19279 21.4286 2.19279C21.4286 2.15271 21.6232 2.03343 22.0125 1.83495C22.0903 1.75543 22.4017 1.55663 22.9467 1.23856L23.4726 1C23.5897 1 23.8429 1.2586 24.2321 1.77579C24.3492 1.93483 24.5049 2.14348 24.6992 2.40176C24.8936 2.66004 25.03 2.82894 25.1084 2.90846H26.1015C26.6857 2.15271 27.1917 1.51656 27.6195 1H27.7363C27.8534 1 28.5541 1.3976 29.8383 2.19279C29.8775 2.23286 29.8971 2.27262 29.8971 2.31206C29.8971 2.55062 29.605 3.32609 29.0208 4.63847C29.2158 4.87703 29.3911 5.17539 29.5468 5.53354C31.1816 5.73266 31.9991 5.91173 31.9991 6.07077L32 6.06886Z" fill="currentColor"/>
</svg>
