<svg viewBox="0 0 32 32" fill="none" xmlns="http://www.w3.org/2000/svg">
<path d="M29.042 8.01797C29.7605 8.46984 30.0748 9.28322 29.985 10.4581C29.8952 11.8593 29.3337 13.0793 28.3005 14.1183C28.2552 14.1183 28.2326 14.141 28.2326 14.1866L28.0978 14.2549C26.3461 15.9272 24.2354 16.3791 21.7659 15.6105C21.6761 15.5202 21.5863 15.475 21.4964 15.475C21.0919 15.3846 20.7998 15.475 20.6202 15.7461L18.1952 18.3901L25.4034 24.8971C25.583 25.033 25.583 25.1914 25.4034 25.3721L22.0353 28.8295C21.8557 28.9654 21.6983 28.9654 21.5633 28.8295C19.5873 26.3438 17.499 23.9261 15.2981 21.5764L9.10089 28.2189C8.60655 28.7612 7.98898 29.0211 7.24819 28.9987C6.50739 28.9763 5.88982 28.7163 5.39548 28.2189C4.90114 27.6767 4.65397 27.0213 4.65397 26.2527C4.65397 25.4842 4.92342 24.874 5.46231 24.4221L11.9969 18.1179L11.1886 17.3045C10.9637 17.0782 10.941 16.8523 11.1206 16.6267L11.2554 16.2873C10.4018 15.3835 9.72816 14.7849 9.23453 14.4913C8.74091 14.1978 8.15711 14.0734 7.48314 14.1183C6.27028 14.1638 5.1925 14.7964 4.2498 16.0161C3.53128 16.9199 3.35165 18.3207 3.71091 20.2186C3.75618 20.4897 3.71127 20.6253 3.57619 20.6253C3.35129 20.5797 3.12676 20.4441 2.90258 20.2186C2.49805 19.7667 2.21747 18.9985 2.06083 17.914C1.90419 16.8295 2.05005 15.4963 2.49841 13.9144C3.30675 11.8806 4.38453 10.1859 5.73175 8.83026C6.27064 8.28801 6.80953 7.81336 7.34842 7.40631C7.52805 7.27039 7.8424 7.214 8.29148 7.23713C8.74055 7.26027 9.03263 7.20387 9.16771 7.06795C9.39261 6.84165 9.50506 6.48015 9.50506 5.98345L9.23561 5.71233C9.05598 5.53158 9.05598 5.37324 9.23561 5.23732L11.3243 3.13556C11.4594 2.95481 11.6168 2.95481 11.7964 3.13556L15.1645 6.52462C15.3441 6.70537 15.3441 6.88612 15.1645 7.06687L13.0757 9.16862C12.9407 9.30455 12.7833 9.30455 12.6037 9.16862L12.0648 8.55805C11.4806 8.55805 11.0987 8.78399 10.9191 9.23586C10.6044 9.91403 10.5369 10.6598 10.7165 11.4732C10.8516 11.9251 11.6599 12.8968 13.1415 14.3883L13.4788 14.1844C13.7483 14.0485 13.9728 14.0713 14.1524 14.2527C14.1977 14.3431 14.4898 14.6594 15.0287 15.2017L17.5884 12.6932C17.8133 12.5125 17.9031 12.2186 17.8579 11.8115C17.8579 11.6308 17.8352 11.5176 17.79 11.4721C17.0262 8.89605 17.453 6.72706 19.0704 4.96511L19.2051 4.82955C20.2829 3.74505 21.4731 3.15761 22.7758 3.06724C23.135 3.02169 23.5841 3.10086 24.123 3.30474C24.6619 3.50863 24.9989 3.76855 25.1339 4.0845L21.9006 7.33799L21.7659 7.54188L21.698 7.6102C21.6527 7.65575 21.6301 7.74612 21.6301 7.88132C21.6301 8.01652 21.6527 8.12967 21.698 8.22077L21.9674 8.4919L24.7298 11.3387L24.9992 11.6098C25.0445 11.6554 25.1343 11.6782 25.2687 11.6782C25.403 11.6782 25.4928 11.6554 25.5381 11.6098L25.6728 11.5415L25.8076 11.3376L29.042 8.01797Z" fill="currentColor"/>
</svg>
