<svg viewBox="0 0 32 32" fill="none" xmlns="http://www.w3.org/2000/svg">
<path d="M20.5631 16.0001C20.5631 14.7501 20.1254 13.6667 19.2501 12.7501C18.3334 11.8747 17.2501 11.4371 16.0001 11.4371C14.7501 11.4371 13.6667 11.8747 12.7501 12.7501C11.8747 13.6667 11.4371 14.7501 11.4371 16.0001C11.4371 17.2501 11.8747 18.3334 12.7501 19.2501C13.6667 20.1254 14.7501 20.5631 16.0001 20.5631C17.2501 20.5631 18.3334 20.1254 19.2501 19.2501C20.1254 18.3334 20.5631 17.2501 20.5631 16.0001ZM29.6881 14.0631V18.0011C29.6881 18.2097 29.6464 18.3557 29.5631 18.4391C29.5211 18.5224 29.3961 18.6057 29.1881 18.6891L25.9381 19.1891C25.6461 19.8977 25.3961 20.4394 25.1881 20.8141C25.9801 21.8141 26.6261 22.6267 27.1261 23.2521C27.2514 23.3774 27.3141 23.5234 27.3141 23.6901C27.3141 23.8567 27.2514 24.0027 27.1261 24.1281C26.7927 24.5447 26.2094 25.1907 25.3761 26.0661C24.4594 26.8994 23.8967 27.3161 23.6881 27.3161C23.5214 27.3161 23.3754 27.2534 23.2501 27.1281L20.7501 25.1901C20.4167 25.3987 19.8751 25.6281 19.1251 25.8781C18.9584 27.3367 18.7917 28.4411 18.6251 29.1911C18.5831 29.5244 18.3747 29.6911 18.0001 29.6911H14.0001C13.7914 29.6911 13.6454 29.6494 13.5621 29.5661C13.4367 29.4407 13.3741 29.3157 13.3741 29.1911L12.8741 25.8781C12.1241 25.6281 11.5824 25.4197 11.2491 25.2531L8.74906 27.1281C8.62372 27.2534 8.47773 27.3161 8.31106 27.3161C8.14439 27.3161 7.99839 27.2534 7.87306 27.1281C6.33106 25.7114 5.35173 24.7114 4.93506 24.1281C4.85173 24.0447 4.81006 23.8987 4.81006 23.6901C4.81006 23.5234 4.85173 23.3984 4.93506 23.3151C4.97706 23.2731 5.10206 23.1167 5.31006 22.8461C5.51806 22.5754 5.68473 22.3357 5.81006 22.1271C5.93539 21.9604 6.11239 21.7207 6.34106 21.4081C6.56973 21.0954 6.72606 20.8974 6.81006 20.8141C6.51806 20.3141 6.26806 19.7307 6.06006 19.0641L2.81006 18.5641C2.60139 18.5641 2.47639 18.5014 2.43506 18.3761C2.35173 18.2927 2.31006 18.1467 2.31006 17.9381V14.0001C2.31006 13.7914 2.35173 13.6454 2.43506 13.5621C2.47706 13.4787 2.58139 13.3954 2.74806 13.3121L6.06106 12.8121C6.26973 12.2287 6.51973 11.6871 6.81106 11.1871C6.18573 10.3537 5.53973 9.54106 4.87306 8.74906C4.74773 8.58239 4.68506 8.43639 4.68506 8.31106C4.68506 8.18573 4.74773 8.03973 4.87306 7.87306C5.20639 7.37306 5.78973 6.74806 6.62306 5.99806C7.49839 5.12273 8.06106 4.68506 8.31106 4.68506C8.47773 4.68506 8.62372 4.74773 8.74906 4.87306L11.2491 6.81106C11.5824 6.60239 12.1241 6.37306 12.8741 6.12306C13.0407 4.66439 13.2074 3.56006 13.3741 2.81006C13.4161 2.47673 13.6244 2.31006 13.9991 2.31006H17.9991C18.2077 2.31006 18.3537 2.35173 18.4371 2.43506C18.5624 2.56039 18.6251 2.68539 18.6251 2.81006L19.1251 6.12306C19.8751 6.37306 20.4167 6.58139 20.7501 6.74806L23.2501 4.87306C23.3754 4.74773 23.5214 4.68506 23.6881 4.68506C23.8547 4.68506 24.0007 4.74773 24.1261 4.87306C25.7514 6.37306 26.7307 7.39406 27.0641 7.93606C27.1474 7.97806 27.1891 8.10306 27.1891 8.31106C27.1891 8.47773 27.1474 8.60273 27.0641 8.68606C27.0221 8.76939 26.8971 8.94639 26.6891 9.21706C26.4811 9.48773 26.3144 9.70639 26.1891 9.87306C26.0637 10.0817 25.8867 10.3214 25.6581 10.5921C25.4294 10.8627 25.2731 11.0607 25.1891 11.1861C25.5224 11.7694 25.7724 12.3527 25.9391 12.9361L29.1891 13.4361C29.3977 13.4361 29.5227 13.4987 29.5641 13.6241C29.6474 13.7074 29.6891 13.8534 29.6891 14.0621L29.6881 14.0631Z" fill="currentColor"/>
</svg>
