<svg viewBox="0 0 32 32" fill="none" xmlns="http://www.w3.org/2000/svg">
<path d="M15.1333 4.31007C15.0465 4.86278 14.9534 5.53998 14.8609 6.35012L14.7164 7.61673L13.5064 8.02005C12.7878 8.25959 12.4332 8.42931 12.3101 8.50638L11.1275 9.24662L8.35695 7.09915C8.25975 7.19198 8.15373 7.29652 8.03762 7.41262L8.00051 7.44973L7.96145 7.48489C7.60694 7.80394 7.32474 8.0792 7.10304 8.31107C7.54798 8.86073 7.98447 9.41889 8.41067 9.98686L9.20657 11.0474L8.53957 12.1939C8.31422 12.5807 8.11406 13.0101 7.94387 13.4859L7.54152 14.6109L4.31007 15.0982V16.7711L7.59719 17.2769L7.96926 18.4683C8.14118 19.0194 8.33542 19.459 8.53762 19.8053L9.3179 21.1432L8.25246 22.1998C8.24331 22.2106 8.22597 22.231 8.19973 22.2643C8.1426 22.3366 8.06208 22.4429 7.95559 22.5885C7.75664 22.8605 7.59226 23.0827 7.46535 23.2525C7.37831 23.3922 7.28177 23.533 7.18019 23.6764C7.48228 23.9941 7.8852 24.396 8.40285 24.8873L11.0376 22.9117L12.1431 23.4645C12.292 23.5389 12.5702 23.6537 13.0103 23.8102L13.5064 23.9811L14.6685 24.3678L15.1705 27.691H16.8658C16.9526 27.1384 17.0457 26.4611 17.1382 25.651L17.2828 24.3844L18.4927 23.9811C19.2114 23.7415 19.5659 23.5718 19.689 23.4947L20.8726 22.7545L23.6578 24.9137C23.7553 24.8286 23.8635 24.736 23.9791 24.6315C24.3395 24.2523 24.642 23.9273 24.8902 23.6539C24.5194 23.1879 24.0955 22.6558 23.6207 22.0563L22.7916 21.0103L23.439 19.8434C23.5912 19.5692 23.8078 19.1108 24.0894 18.4273L24.5191 17.3844L27.6881 16.8961V15.2281L24.3678 14.7183L24.0162 13.4859C23.8981 13.0727 23.7147 12.6368 23.4527 12.1783L22.8375 11.1021L23.5279 10.0728C23.6797 9.84631 23.9003 9.57369 24.1304 9.30131C24.318 9.07934 24.4226 8.92909 24.4742 8.8433L24.5279 8.75443L24.5904 8.67142C24.6591 8.58004 24.7392 8.47462 24.8297 8.35599C24.7706 8.29235 24.7073 8.22197 24.6363 8.14798C24.355 7.85474 24.0072 7.51185 23.5924 7.11575L20.9615 9.08939L19.856 8.53665C19.6574 8.43734 19.2293 8.26557 18.4927 8.02005L17.3306 7.63333L16.8287 4.31007H15.1333ZM20.5631 16.0006C20.5631 14.7508 20.1256 13.6671 19.2505 12.7505C18.3913 11.93 17.3851 11.4933 16.233 11.4419L16.0005 11.4371C14.7505 11.4371 13.6672 11.8752 12.7505 12.7505C11.8752 13.6672 11.437 14.7506 11.437 16.0006L11.4419 16.233C11.4933 17.3852 11.93 18.3913 12.7505 19.2506C13.6099 20.071 14.6158 20.507 15.7681 20.5582L16.0005 20.5631C17.1724 20.563 18.1978 20.1783 19.0767 19.4088L19.2505 19.2506C20.0711 18.3913 20.5068 17.3852 20.5582 16.233L20.5631 16.0006ZM22.5631 16.0006C22.563 17.7728 21.9218 19.3486 20.6968 20.6314L20.6646 20.6646L20.6314 20.6969C19.3486 21.9218 17.7728 22.563 16.0005 22.5631C14.2281 22.5631 12.6516 21.9219 11.3687 20.6969L11.3355 20.6646L11.3033 20.6314C10.0784 19.3486 9.43714 17.7727 9.43704 16.0006C9.43704 14.2282 10.0782 12.6516 11.3033 11.3687L11.3355 11.3355L11.3687 11.3033C12.6516 10.0782 14.2281 9.43705 16.0005 9.43705C17.662 9.43715 19.1507 10.0009 20.3873 11.0806L20.6314 11.3033L20.6646 11.3355L20.6968 11.3687C21.9219 12.6516 22.5631 14.2281 22.5631 16.0006ZM27.1891 8.31107C27.1891 8.47773 27.1474 8.60273 27.0641 8.68607C27.022 8.76941 26.897 8.94667 26.689 9.21732L26.189 9.87357C26.0637 10.0821 25.8863 10.3218 25.6578 10.5923L25.3697 10.9439C25.2916 11.0429 25.231 11.1234 25.189 11.1861C25.5224 11.7694 25.7724 12.3528 25.939 12.9361L29.1891 13.4361C29.3977 13.4361 29.5227 13.4992 29.5641 13.6246C29.6473 13.7079 29.6891 13.8536 29.6891 14.0621L29.6881 14.063V18.0015L29.6803 18.1461C29.6646 18.279 29.6255 18.3766 29.5631 18.439C29.5211 18.5224 29.3961 18.6057 29.1881 18.689L25.9381 19.1891C25.6461 19.8977 25.3961 20.4394 25.1881 20.8141C25.9801 21.8141 26.6265 22.6272 27.1266 23.2525C27.2516 23.3778 27.314 23.5236 27.3141 23.6901C27.3141 23.8567 27.2519 24.0032 27.1266 24.1285C26.7932 24.5452 26.2097 25.1909 25.3765 26.066L24.7554 26.6129C24.2005 27.0819 23.8446 27.316 23.6881 27.316C23.5216 27.316 23.3758 27.2536 23.2506 27.1285L20.7506 25.1901C20.4173 25.3987 19.8754 25.6286 19.1255 25.8785C18.9589 27.3369 18.7922 28.4411 18.6255 29.1911C18.5888 29.4829 18.4241 29.6469 18.1324 29.6832L18.0005 29.6911H14.0005L13.855 29.6832C13.7222 29.6676 13.6245 29.6285 13.5621 29.5661C13.4682 29.4721 13.4098 29.3784 13.3863 29.2848L13.3745 29.1911L12.8745 25.8785C12.1249 25.6287 11.5829 25.4202 11.2495 25.2535L8.74953 27.1285C8.6242 27.2539 8.47772 27.316 8.31106 27.316C8.14458 27.316 7.99879 27.2536 7.87355 27.1285C6.33176 25.7121 5.35183 24.7119 4.93507 24.1285C4.85173 24.0452 4.81007 23.8987 4.81007 23.6901C4.81009 23.5234 4.85175 23.3984 4.93507 23.315C4.95607 23.294 4.99773 23.2446 5.06007 23.1666L5.31007 22.8463C5.41409 22.7109 5.50797 22.5833 5.59132 22.4635L5.81007 22.1275L6.34132 21.4078C6.56985 21.0953 6.7261 20.8974 6.81007 20.8141C6.51809 20.3141 6.26806 19.7307 6.06007 19.0641L2.81006 18.564C2.6016 18.564 2.47652 18.5016 2.43506 18.3765C2.35173 18.2932 2.31006 18.1467 2.31006 17.9381V14.0005C2.31006 13.7919 2.35173 13.6454 2.43506 13.5621C2.46653 13.4996 2.53285 13.437 2.63428 13.3746L2.74854 13.3121L6.06105 12.8121C6.26971 12.2287 6.51972 11.687 6.81105 11.1871C6.34215 10.5622 5.86178 9.94883 5.36964 9.3472L4.87354 8.74954C4.74821 8.58288 4.68507 8.4364 4.68507 8.31107C4.68507 8.18576 4.74826 8.04019 4.87354 7.87356C5.20688 7.37356 5.79021 6.74856 6.62355 5.99855C7.49886 5.12324 8.06104 4.6851 8.31106 4.68507C8.47772 4.68507 8.6242 4.74821 8.74953 4.87355L11.2495 6.81106C11.5829 6.60245 12.1248 6.37347 12.8745 6.12355C13.0412 4.66488 13.2079 3.56007 13.3745 2.81006C13.4113 2.51832 13.5751 2.35424 13.8667 2.31787L13.9996 2.31006H17.9996L18.1441 2.31787C18.277 2.33351 18.3746 2.37261 18.4371 2.43506C18.5624 2.56039 18.6255 2.68539 18.6255 2.81006L19.1255 6.12355C19.6881 6.31108 20.1334 6.47511 20.4615 6.61574L20.7506 6.74856L23.2506 4.87355C23.3759 4.74823 23.5214 4.68509 23.6881 4.68507C23.8547 4.68507 24.0012 4.74821 24.1265 4.87355L24.7056 5.41359C25.9862 6.62107 26.7724 7.46185 27.0641 7.93606C27.1474 7.97806 27.189 8.10308 27.1891 8.31107Z" fill="currentColor"/>
</svg>
