<svg viewBox="0 0 32 32" fill="none" xmlns="http://www.w3.org/2000/svg">
<path d="M27 9.00001C28.1046 9.00001 29 9.75775 29 10.6924V29.3076C29 30.2423 28.1046 31 27 31H5C3.89543 31 3 30.2423 3 29.3076V10.6924C3 9.75775 3.89543 9.00001 5 9.00001H9V11.3574H5.78613V28.6426H26.2139V11.3574H23V9.00001H27Z" fill="currentColor"/>
<path d="M15.5459 0.353478C15.7412 0.158216 16.0578 0.158215 16.253 0.353477L22.9661 7.06657L21.1995 8.83324L17.1476 4.7814L17.1485 18.5499H14.6505L14.6496 4.78316L10.5995 8.83324L8.83284 7.06658L15.5459 0.353478Z" fill="currentColor"/>
</svg>
