<svg viewBox="0 0 32 32" fill="none" xmlns="http://www.w3.org/2000/svg">
<path fill-rule="evenodd" clip-rule="evenodd" d="M26.9561 3.76758C27.2521 3.8334 27.5172 3.99877 27.707 4.23535C27.8967 4.47188 27.9999 4.76616 28 5.06934V18.3848C27.9999 19.7017 27.6742 20.999 27.0527 22.1602C26.4313 23.321 25.5331 24.3106 24.4375 25.041L16 30.667L7.5625 25.041C6.46697 24.3107 5.56871 23.3209 4.94727 22.1602C4.32588 20.9994 4.00034 19.7033 4 18.3867V5.06934C4.00005 4.76616 4.10332 4.47188 4.29297 4.23535C4.48277 3.99877 4.74786 3.8334 5.04395 3.76758L16 1.33301L26.9561 3.76758ZM16 27L22.3281 22.7812C23.15 22.2334 23.8239 21.4909 24.29 20.6201C24.7561 19.7493 24.9999 18.7768 25 17.7891V7.80176C24.9999 7.57451 24.9224 7.35408 24.7803 7.17676C24.6379 6.99932 24.4389 6.87554 24.2168 6.82617L16 5V27Z" fill="currentColor"/>
</svg>
