<svg viewBox="0 0 32 32" fill="none" xmlns="http://www.w3.org/2000/svg">
<path d="M5.044 3.76792L16 1.33325L26.956 3.76792C27.2521 3.83374 27.5169 3.99854 27.7067 4.23513C27.8965 4.47171 27.9999 4.76594 28 5.06925V18.3853C27.9999 19.7022 27.6747 20.9988 27.0532 22.1599C26.4317 23.321 25.5332 24.3108 24.4373 25.0413L16 30.6666L7.56267 25.0413C6.46703 24.3109 5.56861 23.3214 4.94713 22.1605C4.32565 20.9997 4.00032 19.7033 4 18.3866V5.06925C4.00005 4.76594 4.10352 4.47171 4.29332 4.23513C4.48312 3.99854 4.74792 3.83374 5.044 3.76792V3.76792ZM6.66667 6.13859V18.3853C6.66668 19.2632 6.88343 20.1276 7.29768 20.9016C7.71193 21.6757 8.31087 22.3355 9.04133 22.8226L16 27.4626L22.9587 22.8226C23.6889 22.3357 24.2878 21.676 24.702 20.9022C25.1162 20.1284 25.3331 19.2643 25.3333 18.3866V6.13859L16 4.06659L6.66667 6.13859Z" fill="currentColor"/>
</svg>
