<svg viewBox="0 0 32 32" fill="none" xmlns="http://www.w3.org/2000/svg">
<path d="M6.4 14.1905V6.57143C6.4 6.25569 6.52643 5.95289 6.75147 5.72963C6.97652 5.50638 7.28174 5.38095 7.6 5.38095H13.6V3H18.4V5.38095H24.4C24.7183 5.38095 25.0235 5.50638 25.2485 5.72963C25.4736 5.95289 25.6 6.25569 25.6 6.57143V14.1905L26.9032 14.5786C27.1985 14.6667 27.4483 14.8643 27.6007 15.1303C27.7531 15.3963 27.7964 15.7103 27.7216 16.0071L25.9024 23.2309C24.9209 23.2809 23.9421 23.0904 23.0522 22.6765C22.1624 22.2625 21.3889 21.6377 20.8 20.8571C20.2416 21.5969 19.517 22.1974 18.6838 22.6107C17.8505 23.024 16.9316 23.2388 16 23.2381C15.0684 23.2388 14.1495 23.024 13.3162 22.6107C12.483 22.1974 11.7584 21.5969 11.2 20.8571C10.6111 21.6377 9.83757 22.2625 8.94775 22.6765C8.05794 23.0904 7.07912 23.2809 6.0976 23.2309L4.2784 16.0071C4.20364 15.7103 4.24694 15.3963 4.39933 15.1303C4.55171 14.8643 4.80148 14.6667 5.0968 14.5786L6.4 14.1905ZM8.8 13.4762L16 11.3333L19.3048 12.3167L21.4756 12.9631L23.2 13.4762V7.7619H8.8V13.4762ZM6.4 25.619C8.17152 25.6215 9.88129 24.9735 11.2 23.8C12.5187 24.9735 14.2285 25.6215 16 25.619C17.7715 25.6215 19.4813 24.9735 20.8 23.8C22.1187 24.9735 23.8285 25.6215 25.6 25.619H28V28H25.6C23.9148 28.0027 22.2588 27.5633 20.8 26.7262C19.3412 27.5633 17.6852 28.0027 16 28C14.3148 28.0027 12.6588 27.5633 11.2 26.7262C9.74122 27.5633 8.08523 28.0027 6.4 28H4V25.619H6.4Z" fill="currentColor"/>
</svg>
