<svg viewBox="0 0 32 32" fill="none" xmlns="http://www.w3.org/2000/svg">
<path d="M16 2.66675C18.1217 2.66675 20.1566 3.5096 21.6569 5.00989C23.1571 6.51018 24 8.54502 24 10.6667V12.0001H29.3333V14.6667H27.7773L26.768 26.7774C26.7403 27.1106 26.5883 27.4212 26.3424 27.6477C26.0964 27.8741 25.7743 27.9999 25.44 28.0001H6.56C6.22566 27.9999 5.9036 27.8741 5.65763 27.6477C5.41166 27.4212 5.25975 27.1106 5.232 26.7774L4.22133 14.6667H2.66667V12.0001H8V10.6667C8 8.54502 8.84286 6.51018 10.3431 5.00989C11.8434 3.5096 13.8783 2.66675 16 2.66675V2.66675ZM25.1013 14.6667H6.89733L7.78667 25.3334H24.212L25.1013 14.6667ZM17.3333 17.3334V22.6667H14.6667V17.3334H17.3333ZM12 17.3334V22.6667H9.33333V17.3334H12ZM22.6667 17.3334V22.6667H20V17.3334H22.6667ZM16 5.33341C14.6317 5.33341 13.3157 5.85933 12.3243 6.80238C11.3328 7.74543 10.7418 9.03347 10.6733 10.4001L10.6667 10.6667V12.0001H21.3333V10.6667C21.3333 9.29842 20.8074 7.98244 19.8644 6.991C18.9213 5.99955 17.6333 5.4085 16.2667 5.34008L16 5.33341Z" fill="currentColor"/>
</svg>
