<svg viewBox="0 0 32 32" fill="none" xmlns="http://www.w3.org/2000/svg">
<path d="M16 2.66675C18.1217 2.66675 20.1566 3.5096 21.6568 5.00989C23.1571 6.51018 24 8.54502 24 10.6667V12.0001H29.3333V14.6667H27.7773L26.768 26.7774C26.7402 27.1106 26.5883 27.4212 26.3424 27.6477C26.0964 27.8741 25.7743 27.9999 25.44 28.0001H6.55999C6.22565 27.9999 5.90358 27.8741 5.65762 27.6477C5.41165 27.4212 5.25974 27.1106 5.23199 26.7774L4.22132 14.6667H2.66666V12.0001H7.99999V10.6667C7.99999 8.54502 8.84284 6.51018 10.3431 5.00989C11.8434 3.5096 13.8783 2.66675 16 2.66675V2.66675ZM17.3333 17.3334H14.6667V22.6667H17.3333V17.3334ZM12 17.3334H9.33332V22.6667H12V17.3334ZM22.6667 17.3334H20V22.6667H22.6667V17.3334ZM16 5.33341C14.6317 5.33341 13.3157 5.85933 12.3242 6.80238C11.3328 7.74543 10.7417 9.03347 10.6733 10.4001L10.6667 10.6667V12.0001H21.3333V10.6667C21.3333 9.29842 20.8074 7.98244 19.8644 6.991C18.9213 5.99955 17.6333 5.4085 16.2667 5.34008L16 5.33341Z" fill="currentColor"/>
</svg>
