<svg viewBox="0 0 32 32" fill="none" xmlns="http://www.w3.org/2000/svg">
<path d="M5.33334 8.55211L1.00934 4.22944L2.896 2.34277L7.21867 6.66677H27.5413C27.7492 6.66676 27.9541 6.71533 28.1398 6.8086C28.3255 6.90187 28.4869 7.03726 28.611 7.20397C28.7351 7.37068 28.8185 7.56408 28.8545 7.76876C28.8906 7.97343 28.8783 8.18369 28.8187 8.38277L25.6187 19.0494C25.5363 19.3242 25.3676 19.5651 25.1375 19.7364C24.9074 19.9076 24.6282 20.0001 24.3413 20.0001H8V22.6668H22.6667V25.3334H6.66667C6.31305 25.3334 5.97391 25.193 5.72386 24.9429C5.47381 24.6929 5.33334 24.3537 5.33334 24.0001V8.55211ZM8 9.33344V17.3334H23.3493L25.7493 9.33344H8ZM7.33334 30.6668C6.80291 30.6668 6.2942 30.4561 5.91912 30.081C5.54405 29.7059 5.33334 29.1972 5.33334 28.6668C5.33334 28.1363 5.54405 27.6276 5.91912 27.2526C6.2942 26.8775 6.80291 26.6668 7.33334 26.6668C7.86377 26.6668 8.37248 26.8775 8.74755 27.2526C9.12262 27.6276 9.33334 28.1363 9.33334 28.6668C9.33334 29.1972 9.12262 29.7059 8.74755 30.081C8.37248 30.4561 7.86377 30.6668 7.33334 30.6668ZM23.3333 30.6668C22.8029 30.6668 22.2942 30.4561 21.9191 30.081C21.5441 29.7059 21.3333 29.1972 21.3333 28.6668C21.3333 28.1363 21.5441 27.6276 21.9191 27.2526C22.2942 26.8775 22.8029 26.6668 23.3333 26.6668C23.8638 26.6668 24.3725 26.8775 24.7475 27.2526C25.1226 27.6276 25.3333 28.1363 25.3333 28.6668C25.3333 29.1972 25.1226 29.7059 24.7475 30.081C24.3725 30.4561 23.8638 30.6668 23.3333 30.6668Z" fill="currentColor"/>
</svg>
