<svg viewBox="0 0 32 32" fill="none" xmlns="http://www.w3.org/2000/svg">
<path d="M17.7493 19.4286V9.14286H5.49985C4.53411 9.14286 3.74992 8.37143 3.74992 7.42857C3.74992 6.48571 4.53411 5.71429 5.49985 5.71429H25.624C26.1076 5.71429 26.4989 5.33093 26.4989 4.85714C26.4989 4.38336 26.1076 4 25.624 4H5.49985C3.57056 4 2 5.5375 2 7.42857C2 9.31964 3.57056 10.8571 5.49985 10.8571H5.65729C6.49178 15.7198 10.7982 19.4286 15.9982 19.4286H17.7493ZM12.4995 13.8571C11.775 13.8571 11.1871 13.2813 11.1871 12.5714C11.1871 11.8611 11.775 11.2857 12.4995 11.2857C13.2241 11.2857 13.812 11.8611 13.812 12.5714C13.812 13.2839 13.2269 13.8571 12.4995 13.8571ZM14.337 23.6821C14.0772 24.3443 14.4139 25.0884 15.0905 25.3439L15.4016 25.4611C14.758 25.5411 14.2495 26.0607 14.2495 26.7143C14.2495 27.4241 14.8373 28 15.5619 28H19.4992V24.2484L16.0333 22.9423C15.3596 22.6911 14.5995 22.9696 14.337 23.6821ZM29.955 17.6446C29.925 17.3364 29.8347 17.05 29.7738 16.7527L22.96 21.6073C22.9803 21.7361 23.0004 21.8652 23.0004 21.9996C23.0004 22.0979 22.9819 22.1911 22.9709 22.2866L27.9008 24.4326C29.3863 22.6 30.2066 20.2214 29.955 17.6446ZM21.2492 24.4161V27.9561C23.2851 27.7759 25.134 26.9757 26.605 25.7484L22.2116 23.8354C21.9437 24.0946 21.6101 24.2875 21.2492 24.4161ZM29.2277 15.0196C27.7075 11.5214 24.0272 9.14286 19.9586 9.14286H19.4973V19.4286H20.3722C21.0438 19.4286 21.6497 19.6829 22.114 20.0891L29.2277 15.0196Z" fill="currentColor"/>
</svg>
