<svg viewBox="0 0 32 32" fill="none" xmlns="http://www.w3.org/2000/svg">
<path fill-rule="evenodd" clip-rule="evenodd" d="M6.28223 11.4523C6.99736 13.3571 9.0923 14.7362 11.5656 14.7363C12.4071 14.7363 13.2042 14.5753 13.9185 14.2894L15.1327 16.2844C15.4451 16.7968 16.5361 16.8081 16.8722 16.3022L18.4256 13.9618C19.0946 14.1954 19.831 14.3259 20.6049 14.3259C22.9539 14.3258 24.9596 13.1345 25.7681 11.4541C28.331 11.5543 30.3919 15.4676 30.3919 20.2832C30.3918 25.1615 27.1365 28.2941 24.5272 28.2942C23.3209 28.2942 23.0343 27.625 23.0752 26.423C22.3144 26.7833 21.4952 27.085 20.6289 27.3186C20.6274 27.3206 20.626 27.3227 20.6245 27.3248C20.7865 27.5499 20.8975 27.9093 20.9084 28.3174C20.9268 29.0104 20.6516 29.5799 20.2933 29.5895C20.0235 29.5967 19.7837 29.2843 19.6737 28.8337C19.6631 29.4781 19.4003 29.9908 19.0603 29.9999C18.7227 30.0085 18.435 29.5169 18.3873 28.88C18.2918 29.2939 18.0822 29.5826 17.8283 29.5895C17.47 29.599 17.1641 29.045 17.1455 28.3521C17.1408 28.1774 17.1545 28.01 17.1838 27.858C16.8889 27.8732 16.5912 27.8838 16.2909 27.8838C15.8873 27.8838 15.4881 27.8683 15.0944 27.8411C15.1297 27.9875 15.1523 28.1483 15.1568 28.3174C15.1751 29.0102 14.8998 29.5796 14.5416 29.5895C14.2711 29.5967 14.0307 29.2826 13.9211 28.8301C13.9115 29.4762 13.6493 29.9908 13.3087 29.9999C12.9704 30.0088 12.6818 29.5157 12.6348 28.8773C12.5395 29.2924 12.3309 29.5824 12.0766 29.5895C11.7183 29.599 11.4124 29.045 11.3938 28.3521C11.3836 27.968 11.4633 27.6211 11.5977 27.3871C11.5418 27.3164 11.4897 27.2446 11.4419 27.1726C10.4454 26.8666 9.5176 26.468 8.6769 25.9939C8.73644 27.4647 8.4745 28.2942 7.13149 28.2942C4.52209 28.2942 1.5001 25.1616 1.5 20.2832C1.5 15.405 3.61513 11.4501 6.22436 11.4496C6.24369 11.4496 6.26324 11.4519 6.28223 11.4523ZM13.849 28.2034C13.8528 28.2173 13.8572 28.2311 13.8606 28.2453C13.8609 28.2304 13.861 28.2155 13.8615 28.2008C13.8574 28.2019 13.8531 28.2023 13.849 28.2034ZM19.5891 28.1669C19.5966 28.1928 19.6066 28.2184 19.6132 28.2453C19.6137 28.2153 19.6143 28.1856 19.6158 28.1563C19.607 28.16 19.598 28.1633 19.5891 28.1669Z" fill="currentColor"/>
<path d="M15.4674 11.4558C15.6929 11.1289 16.3466 11.1206 16.5882 11.4416L17.8345 13.0983C17.9251 13.2188 17.9325 13.3623 17.855 13.4873L16.6096 15.4974C16.3853 15.8585 15.6576 15.8502 15.4496 15.4841L14.3075 13.4731C14.241 13.356 14.2479 13.2242 14.3262 13.1108L15.4674 11.4558Z" fill="currentColor"/>
<path fill-rule="evenodd" clip-rule="evenodd" d="M11.9832 7.55938C13.2418 7.55938 14.2621 8.5797 14.2621 9.83833C14.2621 11.097 13.2418 12.1173 11.9832 12.1173C10.7245 12.1173 9.70421 11.097 9.70421 9.83833C9.70421 8.5797 10.7245 7.55938 11.9832 7.55938ZM11.0716 8.47096C10.8198 8.47096 10.6158 8.67503 10.6158 8.92675C10.6158 9.17848 10.8198 9.38254 11.0716 9.38254C11.3233 9.38254 11.5274 9.17848 11.5274 8.92675C11.5274 8.67503 11.3233 8.47096 11.0716 8.47096Z" fill="currentColor"/>
<path fill-rule="evenodd" clip-rule="evenodd" d="M20.1874 7.55938C21.446 7.55938 22.4663 8.5797 22.4663 9.83833C22.4663 11.097 21.446 12.1173 20.1874 12.1173C18.9287 12.1173 17.9084 11.097 17.9084 9.83833C17.9084 8.5797 18.9287 7.55938 20.1874 7.55938ZM19.2758 8.47096C19.0241 8.47096 18.82 8.67503 18.82 8.92675C18.82 9.17848 19.0241 9.38254 19.2758 9.38254C19.5275 9.38254 19.7316 9.17848 19.7316 8.92675C19.7316 8.67503 19.5275 8.47096 19.2758 8.47096Z" fill="currentColor"/>
<path d="M16.0853 2C17.3906 2 18.6323 2.23574 19.7583 2.65876C20.8464 2.24666 22.0777 2.15263 23.2755 2.5457C25.1462 3.15975 26.4116 5.2664 26.9539 6.77065C26.2512 5.70984 25.1099 4.82341 23.6841 4.3555C23.2091 4.19962 22.7318 4.09959 22.2624 4.05194C22.3957 4.15577 22.5254 4.26301 22.6515 4.37331C24.7013 5.03701 26.1507 6.66668 26.1509 8.57334C26.1509 8.78232 26.1312 8.98791 26.0975 9.18936C25.7281 6.98547 23.411 5.28676 20.6049 5.28667C18.7172 5.28667 17.0505 6.05614 16.0488 7.23C15.04 6.05258 13.4078 5.28667 11.5656 5.28667C8.79605 5.28677 6.50087 7.01635 6.08638 9.2766C6.04247 9.04752 6.01961 8.81246 6.01961 8.57334C6.01979 6.66693 7.46872 5.03718 9.51815 4.37331C9.8304 4.10016 10.165 3.84608 10.5196 3.61396C9.92704 3.6383 9.31714 3.74612 8.71073 3.94512C7.28487 4.41306 6.14368 5.29934 5.44097 6.36027C5.98318 4.85592 7.37744 3.15968 9.24842 2.5457C10.4701 2.1448 11.7032 2.17959 12.7808 2.52879C13.8071 2.18819 14.9208 2 16.0853 2Z" fill="currentColor"/>
</svg>
