<svg viewBox="0 0 32 32" fill="none" xmlns="http://www.w3.org/2000/svg">
<path d="M28.5258 18.1C28.6196 18.4501 28.5628 18.8049 28.3948 19.0959C28.2269 19.3868 27.9479 19.6134 27.5981 19.7073L25.8776 20.1683L27.6801 21.209C28.3071 21.5672 28.5258 22.3711 28.1649 23C27.8039 23.6289 26.9957 23.8427 26.3679 23.4803L24.5654 22.4396L25.0264 24.1601C25.2141 24.8606 24.7988 25.5798 24.0983 25.7674C23.3979 25.9549 22.6786 25.5397 22.4911 24.8393L21.3508 20.5835L17.3477 18.275V22.8955L20.4632 26.0111C20.9759 26.5238 20.9759 27.3542 20.4632 27.8672C20.2079 28.1242 19.8688 28.25 19.5352 28.25C19.2016 28.25 18.8636 28.1218 18.6072 27.8655L17.3477 26.6039V28.6875C17.3477 29.4121 16.7598 30 16.0352 30C15.3106 30 14.7227 29.4121 14.7227 28.6875V26.6061L13.4632 27.8655C12.9505 28.3782 12.1201 28.3782 11.6072 27.8655C11.0942 27.3529 11.0945 26.5224 11.6072 26.0095L14.7227 22.8961V18.275L10.7212 20.5855L9.58098 24.8413C9.39329 25.5419 8.67426 25.957 7.97371 25.7694C7.27317 25.5818 6.85809 24.8627 7.04567 24.1621L7.50668 22.4416L5.70418 23.4823C5.07637 23.8422 4.26918 23.6289 3.9066 23C3.54402 22.3711 3.76359 21.5694 4.39108 21.2068L6.19358 20.1661L4.47311 19.7051C3.77256 19.5174 3.35749 18.7984 3.54506 18.0978C3.73264 17.3973 4.45178 16.9822 5.15233 17.1698L9.40811 18.31L13.4102 15.9508L9.40707 13.6922L5.15293 14.8297C4.45238 15.0156 3.73324 14.6 3.54567 13.9C3.35809 13.2 3.77327 12.4803 4.47371 12.2927L6.19418 11.8316L4.39113 10.7938C3.76387 10.4328 3.54457 9.62891 3.9066 9C4.26863 8.37109 5.07582 8.15727 5.70363 8.51957L7.50613 9.56027L7.04567 7.84063C6.85754 7.13953 7.27317 6.42039 7.97426 6.23227C8.67535 6.04414 9.39395 6.45988 9.58153 7.16031L10.7218 11.4161L14.7227 13.725V9.10391L11.6055 5.99055C11.0928 5.47785 11.0928 4.64742 11.6055 4.13445C12.1182 3.62148 12.9486 3.62176 13.4616 4.13445L14.7227 5.39391V3.3125C14.7227 2.58789 15.3133 2 16.0352 2C16.7571 2 17.3477 2.58789 17.3477 3.3125V5.39391L18.6072 4.13445C19.1198 3.62176 19.9503 3.62176 20.4632 4.13445C20.9762 4.64715 20.9759 5.47758 20.4632 5.99055L17.3477 9.10391V13.7245L21.3492 11.4139L22.4894 7.15812C22.6771 6.45758 23.3961 6.0425 24.0967 6.23008C24.4468 6.32387 24.7256 6.5506 24.8935 6.84148C25.0614 7.13237 25.1182 7.48734 25.0245 7.83734L24.5634 9.55781L26.3659 8.51711C26.9946 8.15781 27.8039 8.37109 28.1649 9C28.5258 9.62891 28.3079 10.4306 27.6804 10.7927L25.8779 11.8334L27.5984 12.2945C28.2989 12.4822 28.714 13.2012 28.5264 13.9018C28.3388 14.6023 27.6197 15.0174 26.9192 14.8298L22.6634 13.6896L18.6602 15.9508L22.6617 18.2613L26.9175 17.1211C27.618 16.9352 28.2907 17.4 28.5258 18.1Z" fill="currentColor"/>
</svg>
