<svg viewBox="0 0 32 32" fill="none" xmlns="http://www.w3.org/2000/svg">
<path d="M25.125 19.438C25.125 19.688 25.0207 19.959 24.812 20.251L16.812 28.251C16.52 28.4597 16.249 28.564 15.999 28.564C15.749 28.564 15.478 28.4597 15.186 28.251L7.18605 20.251C6.97738 19.959 6.87305 19.688 6.87305 19.438C6.87305 19.188 6.97738 18.917 7.18605 18.625C7.39471 18.4163 7.66571 18.312 7.99905 18.312H23.999C24.3324 18.312 24.6034 18.4163 24.812 18.625C25.0207 18.917 25.125 19.188 25.125 19.438ZM25.125 12.563C25.125 12.813 25.0207 13.084 24.812 13.376C24.6034 13.5847 24.3324 13.689 23.999 13.689H7.99905C7.66571 13.689 7.39471 13.5847 7.18605 13.376C6.97738 13.084 6.87305 12.813 6.87305 12.563C6.87305 12.313 6.97738 12.042 7.18605 11.75L15.186 3.75001C15.478 3.54135 15.749 3.43701 15.999 3.43701C16.249 3.43701 16.52 3.54135 16.812 3.75001L24.812 11.75C25.0207 12.042 25.125 12.313 25.125 12.563Z" fill="currentColor"/>
</svg>
