<svg viewBox="0 0 32 32" fill="none" xmlns="http://www.w3.org/2000/svg">
<g clip-path="url(#clip0_79_195)">
<path d="M21.688 28V31.438C21.688 31.6467 21.6463 31.7717 21.563 31.813C21.4376 31.9383 21.2916 32.001 21.125 32.001H16.562C16.3533 32.001 16.2283 31.9383 16.187 31.813C16.0616 31.771 15.999 31.646 15.999 31.438V28C15.999 27.8333 16.0616 27.6873 16.187 27.562C16.2703 27.4787 16.3953 27.437 16.562 27.437H21.125C21.2503 27.437 21.3963 27.4787 21.563 27.562C21.6463 27.6453 21.688 27.7913 21.688 28ZM13.125 25.688C13.125 25.8547 13.0623 26.0007 12.937 26.126L7.24898 31.814C7.12364 31.9393 6.99864 32.002 6.87398 32.002C6.70731 32.002 6.56131 31.9393 6.43598 31.814L0.747976 26.126C0.539309 25.9173 0.497643 25.709 0.622976 25.501C0.706309 25.251 0.872976 25.126 1.12298 25.126H4.56098V0.563C4.56098 0.354333 4.62364 0.229333 4.74898 0.188C4.83231 0.0626667 4.95731 0 5.12398 0H8.56198C8.72864 0 8.87464 0.0626667 8.99998 0.188C9.08331 0.271333 9.12498 0.396333 9.12498 0.563V25.126H12.563C12.7296 25.126 12.8756 25.1887 13.001 25.314C13.0843 25.4807 13.126 25.6057 13.126 25.689L13.125 25.688ZM25.125 18.875V22.313C25.125 22.3963 25.0833 22.5213 25 22.688C24.8746 22.8133 24.7286 22.876 24.562 22.876H16.562C16.3533 22.876 16.2283 22.8133 16.187 22.688C16.0616 22.5627 15.999 22.4377 15.999 22.313V18.875C15.999 18.7083 16.0616 18.5623 16.187 18.437C16.229 18.3537 16.354 18.312 16.562 18.312H24.562C24.7706 18.312 24.9166 18.3537 25 18.437C25.0833 18.6037 25.125 18.7497 25.125 18.875ZM28.563 9.688V13.126C28.563 13.2513 28.5213 13.3973 28.438 13.564C28.3546 13.6473 28.2086 13.689 28 13.689H16.562C16.3533 13.689 16.2283 13.6473 16.187 13.564C16.0616 13.4387 15.999 13.2927 15.999 13.126V9.688C15.999 9.56267 16.0616 9.43767 16.187 9.313C16.229 9.18767 16.354 9.125 16.562 9.125H28C28.1666 9.125 28.3126 9.18767 28.438 9.313C28.5213 9.47967 28.563 9.60467 28.563 9.688ZM32 0.563V4.001C32 4.16767 31.9373 4.31367 31.812 4.439C31.7286 4.52233 31.6036 4.564 31.437 4.564H16.562C16.3953 4.564 16.2703 4.52233 16.187 4.439C16.0616 4.31367 15.999 4.16767 15.999 4.001V0.563C15.999 0.354333 16.0616 0.229333 16.187 0.188C16.229 0.0626667 16.354 0 16.562 0H31.437C31.6456 0 31.7706 0.0626667 31.812 0.188C31.9373 0.23 32 0.355 32 0.563Z" fill="currentColor"/>
</g>
<defs>
<clipPath id="clip0_79_195">
<rect width="32" height="32" fill="white"/>
</clipPath>
</defs>
</svg>
