<svg viewBox="0 0 32 32" fill="none" xmlns="http://www.w3.org/2000/svg">
<g clip-path="url(#clip0_79_193)">
<path d="M13.125 25.688C13.125 25.8547 13.0624 26.0007 12.937 26.126L7.24904 31.814C7.1237 31.9393 6.9987 32.002 6.87404 32.002C6.70737 32.002 6.56137 31.9393 6.43604 31.814L0.748037 26.126C0.53937 25.9173 0.497704 25.709 0.623037 25.501C0.70637 25.251 0.873037 25.126 1.12304 25.126H4.56104V0.563C4.56104 0.354333 4.6237 0.229333 4.74904 0.188C4.83237 0.0626667 4.95737 0 5.12404 0H8.56204C8.7287 0 8.8747 0.0626667 9.00004 0.188C9.08337 0.271333 9.12504 0.396333 9.12504 0.563V25.126H12.563C12.7297 25.126 12.8757 25.1887 13.001 25.314C13.0844 25.4807 13.126 25.6057 13.126 25.689L13.125 25.688ZM32 28V31.438C32 31.6467 31.9374 31.7717 31.812 31.813C31.77 31.9383 31.645 32.001 31.437 32.001H16.562C16.3534 32.001 16.2284 31.9383 16.187 31.813C16.0617 31.771 15.999 31.646 15.999 31.438V28C15.999 27.8333 16.0617 27.6873 16.187 27.562C16.2704 27.4787 16.3954 27.437 16.562 27.437H31.437C31.6037 27.437 31.7287 27.4787 31.812 27.562C31.9374 27.6873 32 27.8333 32 28ZM28.563 18.875V22.313C28.563 22.3963 28.5214 22.5213 28.438 22.688C28.3127 22.8133 28.1667 22.876 28 22.876H16.562C16.3534 22.876 16.2284 22.8133 16.187 22.688C16.0617 22.5627 15.999 22.4377 15.999 22.313V18.875C15.999 18.7083 16.0617 18.5623 16.187 18.437C16.229 18.3537 16.354 18.312 16.562 18.312H28C28.2087 18.312 28.3547 18.3537 28.438 18.437C28.5214 18.6037 28.563 18.7497 28.563 18.875ZM25.125 9.688V13.126C25.125 13.2513 25.0834 13.3973 25 13.564C24.9167 13.6473 24.7707 13.689 24.562 13.689H16.562C16.3534 13.689 16.2284 13.6473 16.187 13.564C16.0617 13.4387 15.999 13.2927 15.999 13.126V9.688C15.999 9.56267 16.0617 9.43767 16.187 9.313C16.229 9.18767 16.354 9.125 16.562 9.125H24.562C24.7287 9.125 24.8747 9.18767 25 9.313C25.0834 9.47967 25.125 9.60467 25.125 9.688ZM21.688 0.563V4.001C21.688 4.20967 21.6464 4.35567 21.563 4.439C21.3964 4.52233 21.2504 4.564 21.125 4.564H16.562C16.3954 4.564 16.2704 4.52233 16.187 4.439C16.0617 4.31367 15.999 4.16767 15.999 4.001V0.563C15.999 0.354333 16.0617 0.229333 16.187 0.188C16.229 0.0626667 16.354 0 16.562 0H21.125C21.2917 0 21.4377 0.0626667 21.563 0.188C21.6464 0.23 21.688 0.355 21.688 0.563Z" fill="currentColor"/>
</g>
<defs>
<clipPath id="clip0_79_193">
<rect width="32" height="32" fill="white"/>
</clipPath>
</defs>
</svg>
