<svg viewBox="0 0 32 32" fill="none" xmlns="http://www.w3.org/2000/svg">
<g clip-path="url(#clip0_79_199)">
<path d="M26.313 23.438C26.313 22.688 26.063 22.0003 25.563 21.375C25.021 20.7497 24.396 20.437 23.688 20.437C23.0627 20.437 22.5627 20.6453 22.188 21.062C21.8547 21.5207 21.688 22.0833 21.688 22.75C21.688 23.4587 21.8963 24.0213 22.313 24.438C22.7297 24.8967 23.3547 25.126 24.188 25.126C24.7713 25.126 25.2713 24.98 25.688 24.688C26.1047 24.3127 26.313 23.896 26.313 23.438ZM15.438 25.688C15.438 25.8547 15.3753 26.0007 15.25 26.126L9.562 31.814C9.43667 31.9393 9.29067 32.002 9.124 32.002C8.99867 32.002 8.87367 31.9393 8.749 31.814L2.999 26.126C2.83234 25.9593 2.79067 25.751 2.874 25.501C2.99934 25.251 3.187 25.126 3.437 25.126H6.875V0.563C6.875 0.396333 6.91667 0.271333 7 0.188C7.12534 0.0626667 7.27134 0 7.438 0H10.876C11.0427 0 11.1677 0.0626667 11.251 0.188C11.3763 0.23 11.439 0.355 11.439 0.563V25.126H14.877C15.0437 25.126 15.1687 25.1887 15.252 25.314C15.3773 25.4393 15.44 25.5643 15.44 25.689L15.438 25.688ZM28.813 24.5C28.813 25.292 28.7297 26.0003 28.563 26.625C28.4377 27.2917 28.2083 27.9793 27.875 28.688C27.4583 29.438 27.0417 30.0007 26.625 30.376C26.2497 30.7927 25.6663 31.1887 24.875 31.564C24.2497 31.856 23.4997 32.002 22.625 32.002C21.9583 32.002 21.3123 31.8977 20.687 31.689L19.937 31.439L20.625 29.439L21.188 29.627C21.7713 29.7937 22.209 29.877 22.501 29.877C23.501 29.877 24.3137 29.5227 24.939 28.814C25.5643 28.064 25.9603 27.189 26.127 26.189H26.064C25.8553 26.439 25.501 26.6683 25.001 26.877C24.5423 27.0437 24.0213 27.127 23.438 27.127C22.2293 27.127 21.2083 26.7103 20.375 25.877C19.583 25.0437 19.187 24.002 19.187 22.752C19.187 21.5433 19.6037 20.4807 20.437 19.564C21.3537 18.7307 22.437 18.314 23.687 18.314C25.1457 18.314 26.375 18.8767 27.375 20.002C28.3337 21.1687 28.813 22.6687 28.813 24.502V24.5ZM28.313 11.688V13.688H19.938V11.688H22.876V3.063H22.813L22.688 3.251C22.688 3.293 22.6567 3.345 22.594 3.407L22.406 3.595C22.406 3.595 22.354 3.668 22.25 3.814L21.125 4.814L19.687 3.314L23.125 0.001H25.313V11.689H28.313V11.688Z" fill="currentColor"/>
</g>
<defs>
<clipPath id="clip0_79_199">
<rect width="32" height="32" fill="white"/>
</clipPath>
</defs>
</svg>
