<svg viewBox="0 0 32 32" fill="none" xmlns="http://www.w3.org/2000/svg">
<g clip-path="url(#clip0_79_191)">
<path d="M22.438 7.313H25.563L24.313 3.375L24.063 2.562V2.187H23.938V2.562C23.896 2.64533 23.875 2.74967 23.875 2.875C23.7917 3.125 23.729 3.29167 23.687 3.375L22.438 7.313ZM14.313 25.688C14.313 25.8547 14.2504 26.0007 14.125 26.126L8.43704 31.814C8.3117 31.9393 8.1657 32.002 7.99904 32.002C7.8737 32.002 7.7277 31.9393 7.56104 31.814L1.87304 26.126C1.66437 25.9173 1.6227 25.709 1.74804 25.501C1.87337 25.251 2.06104 25.126 2.31104 25.126H5.68604V0.563C5.68604 0.354333 5.7487 0.229333 5.87404 0.188C5.99937 0.0626667 6.14537 0 6.31204 0H9.68704C9.8537 0 9.9997 0.0626667 10.125 0.188C10.2504 0.23 10.313 0.355 10.313 0.563V25.126H13.688C13.8547 25.126 14.0007 25.1887 14.126 25.314C14.2514 25.4393 14.314 25.5643 14.314 25.689L14.313 25.688ZM29.188 27.813V32.001H18.813V30.376L25.376 20.938C25.5427 20.688 25.6677 20.5213 25.751 20.438L25.939 20.313V20.25C25.897 20.25 25.8554 20.271 25.814 20.313L25.689 20.438C25.647 20.438 25.574 20.4483 25.47 20.469C25.366 20.4897 25.2724 20.5 25.189 20.5H21.001V22.563H18.876V18.438H29.001V20.063L22.438 29.501C22.2714 29.6677 22.1464 29.8137 22.063 29.939L21.813 30.189H22.063C22.1464 30.147 22.334 30.126 22.626 30.126H27.064V28.001H29.189L29.188 27.813ZM30.813 11.813V13.688H25.688V11.813H27.001L26.188 9.25H21.813L21 11.813H22.313V13.688H17.188V11.813H18.438L22.563 0H25.438L29.563 11.813H30.813Z" fill="currentColor"/>
</g>
<defs>
<clipPath id="clip0_79_191">
<rect width="32" height="32" fill="white"/>
</clipPath>
</defs>
</svg>
