<svg viewBox="0 0 32 32" fill="none" xmlns="http://www.w3.org/2000/svg">
<g clip-path="url(#clip0_79_197)">
<path d="M26.313 5.18805C26.313 4.47938 26.063 3.77105 25.563 3.06305C25.021 2.43771 24.396 2.12505 23.688 2.12505C23.0627 2.12505 22.5627 2.35438 22.188 2.81305C21.8547 3.27171 21.688 3.83438 21.688 4.50105C21.688 5.20971 21.8963 5.77238 22.313 6.18905C22.7717 6.64771 23.3967 6.87705 24.188 6.87705C24.73 6.87705 25.23 6.71038 25.688 6.37705C26.1047 6.08505 26.313 5.68805 26.313 5.18805ZM15.438 25.688C15.438 25.8547 15.3753 26.0007 15.25 26.126L9.562 31.814C9.43667 31.9394 9.29067 32.002 9.124 32.002C8.99867 32.002 8.87367 31.9394 8.749 31.814L2.999 26.126C2.83234 25.9594 2.79067 25.751 2.874 25.501C2.99934 25.251 3.187 25.126 3.437 25.126H6.875V0.563047C6.875 0.39638 6.91667 0.27138 7 0.188047C7.12534 0.0627135 7.27134 4.68751e-05 7.438 4.68751e-05H10.876C11.0427 4.68751e-05 11.1677 0.0627135 11.251 0.188047C11.3763 0.230047 11.439 0.355047 11.439 0.563047V25.126H14.877C15.0437 25.126 15.1687 25.1887 15.252 25.314C15.3773 25.4394 15.44 25.5644 15.44 25.689L15.438 25.688ZM28.313 29.938V32.001H19.938V29.938H22.876V21.313H22.813L22.688 21.563C22.646 21.6464 22.5 21.813 22.25 22.063L21.125 23.126L19.687 21.563L23.125 18.313H25.313V29.938H28.313ZM28.813 6.18805C28.813 7.02138 28.7297 7.75071 28.563 8.37605C28.4377 9.04271 28.2083 9.70938 27.875 10.376C27.4583 11.126 27.0417 11.7094 26.625 12.126C26.2083 12.5847 25.625 12.9597 24.875 13.251C24.2497 13.543 23.4997 13.689 22.625 13.689C21.833 13.689 21.187 13.6057 20.687 13.439C20.6037 13.397 20.51 13.3657 20.406 13.345C20.302 13.3244 20.2083 13.293 20.125 13.251C20.0417 13.209 19.979 13.188 19.937 13.188L20.625 11.125C20.7917 11.2504 20.9793 11.313 21.188 11.313C21.5633 11.4797 22.001 11.563 22.501 11.563C23.543 11.563 24.3557 11.2087 24.939 10.5C25.5643 9.75005 25.9603 8.89571 26.127 7.93705H26.064C25.772 8.22905 25.4177 8.43738 25.001 8.56205C24.5423 8.72871 24.0213 8.81205 23.438 8.81205C22.188 8.81205 21.167 8.39538 20.375 7.56205C19.583 6.72871 19.187 5.70771 19.187 4.49905C19.187 3.29038 19.6037 2.22771 20.437 1.31105C21.3123 0.435714 22.3957 -0.00195312 23.687 -0.00195312C25.1457 -0.00195312 26.375 0.560714 27.375 1.68605C28.3337 2.85271 28.813 4.35271 28.813 6.18605V6.18805Z" fill="currentColor"/>
</g>
<defs>
<clipPath id="clip0_79_197">
<rect width="32" height="32" fill="white"/>
</clipPath>
</defs>
</svg>
