<svg viewBox="0 0 32 32" fill="none" xmlns="http://www.w3.org/2000/svg">
<g clip-path="url(#clip0_79_189)">
<path d="M22.438 25.563H25.563L24.313 21.688L24.063 20.813V20.5H23.938V20.813L23.875 20.938V21.188C23.7917 21.438 23.729 21.6047 23.687 21.688L22.438 25.563ZM14.313 25.688C14.313 25.8547 14.2504 26.0007 14.125 26.126L8.43704 31.814C8.3117 31.9393 8.1657 32.002 7.99904 32.002C7.8737 32.002 7.7277 31.9393 7.56104 31.814L1.87304 26.126C1.66437 25.9173 1.6227 25.709 1.74804 25.501C1.87337 25.251 2.06104 25.126 2.31104 25.126H5.68604V0.563C5.68604 0.354333 5.7487 0.229333 5.87404 0.188C5.99937 0.0626667 6.14537 0 6.31204 0H9.68704C9.8537 0 9.9997 0.0626667 10.125 0.188C10.2504 0.23 10.313 0.355 10.313 0.563V25.126H13.688C13.8547 25.126 14.0007 25.1887 14.126 25.314C14.2514 25.4393 14.314 25.5643 14.314 25.689L14.313 25.688ZM30.813 30.125V32H25.688V30.125H27.001L26.188 27.562H21.813L21 30.125H22.313V32H17.188V30.125H18.438L22.563 18.312H25.438L29.563 30.125H30.813ZM29.188 9.563V13.688H18.813V12.125L25.376 2.687C25.4594 2.52033 25.5844 2.35367 25.751 2.187L25.939 1.999V1.936L25.814 2.061C25.772 2.103 25.7304 2.124 25.689 2.124C25.6057 2.166 25.439 2.187 25.189 2.187H21.001V4.25H18.876V0.187H29.001V1.75L22.438 11.188C22.2714 11.3547 22.1464 11.5213 22.063 11.688L21.813 11.876V11.939L22.063 11.876C22.105 11.876 22.1884 11.8657 22.313 11.845C22.4377 11.8243 22.542 11.814 22.626 11.814H27.064V9.689H29.189V9.564L29.188 9.563Z" fill="currentColor"/>
</g>
<defs>
<clipPath id="clip0_79_189">
<rect width="32" height="32" fill="white"/>
</clipPath>
</defs>
</svg>
