<svg viewBox="0 0 32 32" fill="none" xmlns="http://www.w3.org/2000/svg">
<path fill-rule="evenodd" clip-rule="evenodd" d="M29.125 15.4512C29.6117 15.4512 30 15.8887 30 16.3262V18.0762C30 18.5615 29.6103 18.9512 29.125 18.9512L28.2012 19C28.2012 23.4296 25.5042 27.2089 21.623 28.7549C22.0307 29.2945 21.5972 30 20.9209 30H11.0244C10.3489 29.9999 9.91609 29.2949 10.3232 28.7559C6.44881 27.2082 3.70117 23.4295 3.70117 19L2.875 18.9512C2.38967 18.9512 2.00004 18.5615 2 18.0762V16.3262C2 15.8408 2.38965 15.4512 2.875 15.4512H29.125ZM7.87598 19.0078C7.32797 19.0763 6.93932 19.576 7.00781 20.124C7.10786 20.9244 7.45324 22.1191 8.16992 23.2393C8.89471 24.372 10.0345 25.4787 11.7256 25.9619C12.2565 26.1134 12.8102 25.8053 12.9619 25.2744C13.1134 24.7435 12.8053 24.1898 12.2744 24.0381C11.1658 23.7212 10.388 22.9949 9.85449 22.1611C9.3129 21.3146 9.0588 20.4089 8.99219 19.876C8.92368 19.328 8.42399 18.9393 7.87598 19.0078Z" fill="currentColor"/>
<path d="M15 6.38462C15 5.02569 14.5385 3.89692 13.6154 3C13.6154 7.40846 9 8.93831 9 11.8846C9 12.8086 9.30738 13.5135 9.92308 14C11.5846 10.0028 15 9.31738 15 6.38462Z" fill="currentColor"/>
<path d="M20 6.38462C20 5.02569 19.5385 3.89692 18.6154 3C18.6154 7.40846 14 8.93831 14 11.8846C14 12.8086 14.3074 13.5135 14.9231 14C16.5846 10.0028 20 9.31738 20 6.38462Z" fill="currentColor"/>
<path d="M23.3828 7.82324C24.0326 6.93028 25.2836 6.73323 26.1768 7.38281C27.0697 8.03257 27.2668 9.28359 26.6172 10.1768L18.6172 21.1768C17.9674 22.0697 16.7164 22.2668 15.8232 21.6172C14.9303 20.9674 14.7332 19.7164 15.3828 18.8232L23.3828 7.82324Z" fill="currentColor"/>
</svg>
