<svg viewBox="0 0 32 32" fill="none" xmlns="http://www.w3.org/2000/svg">
<path d="M25.0705 15.3526C24.4564 16.0839 23.6783 16.6557 22.7549 17.0214C21.9158 17.387 20.9549 17.537 20.0033 17.4526C19.2908 17.3354 18.6158 17.0495 18.0392 16.6136L7.20128 27.4511C6.84971 27.8026 6.37253 27.9995 5.87518 27.9995C5.37784 27.9995 4.90112 27.8026 4.54909 27.4511C4.19757 27.0995 4 26.6214 4 26.1245C4 25.6276 4.19757 25.1495 4.54909 24.7979L15.3908 13.9604C14.9549 13.3839 14.6689 12.7089 14.5517 11.9964C14.4674 11.0448 14.6174 10.0886 14.983 9.20262C15.3486 8.32231 15.9205 7.54137 16.6517 6.92778C19.8346 3.74464 24.3018 3.04887 26.6268 5.37528C28.9518 7.70028 28.2533 12.1651 25.0705 15.3526Z" fill="currentColor"/>
</svg>
