<svg viewBox="0 0 32 32" fill="none" xmlns="http://www.w3.org/2000/svg">
<path d="M27.4925 24.2886V7.71144C27.4925 6.87562 27.1675 6.13267 26.5174 5.48259C25.8673 4.8325 25.1244 4.50746 24.2886 4.50746H7.71144C6.87562 4.50746 6.13267 4.8325 5.48259 5.48259C4.8325 6.13267 4.50746 6.87562 4.50746 7.71144V24.2886C4.50746 25.1244 4.8325 25.8673 5.48259 26.5174C6.08661 27.1214 6.82956 27.4234 7.71144 27.4234H24.2886C25.1712 27.4234 25.9141 27.1214 26.5174 26.5174C27.1675 25.8673 27.4925 25.1244 27.4925 24.2886ZM30 7.71144V24.2886C30 25.8673 29.4428 27.2139 28.3284 28.3284C27.2139 29.4428 25.8673 30 24.2886 30H7.71144C6.13267 30 4.78607 29.4428 3.67164 28.3284C2.55721 27.2139 2 25.8673 2 24.2886V7.71144C2 6.13267 2.55721 4.78607 3.67164 3.67164C4.78607 2.55721 6.13267 2 7.71144 2H24.2886C25.8673 2 27.2139 2.55721 28.3284 3.67164C29.4428 4.78607 30 6.13267 30 7.71144Z" fill="currentColor"/>
</svg>
