<svg viewBox="0 0 32 32" fill="none" xmlns="http://www.w3.org/2000/svg">
<path d="M28.8333 2H3.16667C2.52153 2 2 2.52153 2 3.16667V28.8333C2 29.4785 2.52153 30 3.16667 30H28.8333C29.4785 30 30 29.4785 30 28.8333V3.16667C30 2.52153 29.4785 2 28.8333 2ZM11.3333 26.5H9C8.35486 26.5 7.83333 25.9785 7.83333 25.3333C7.83333 24.6882 8.35486 24.1667 9 24.1667H11.3333C11.9785 24.1667 12.5 24.6882 12.5 25.3333C12.5 25.9785 11.9785 26.5 11.3333 26.5ZM10.1667 23C8.237 23 6.66667 21.4297 6.66667 19.5C6.66667 17.5703 8.237 16 10.1667 16C12.0963 16 13.6667 17.5703 13.6667 19.5C13.6667 21.4297 12.0963 23 10.1667 23ZM10.1667 14.8333C7.59299 14.8333 5.5 12.7403 5.5 10.1667C5.5 7.59299 7.59299 5.5 10.1667 5.5C12.7403 5.5 14.8333 7.59299 14.8333 10.1667C14.8333 12.7403 12.7403 14.8333 10.1667 14.8333ZM23 26.5H20.6667C20.0215 26.5 19.5 25.9785 19.5 25.3333C19.5 24.6882 20.0215 24.1667 20.6667 24.1667H23C23.6451 24.1667 24.1667 24.6882 24.1667 25.3333C24.1667 25.9785 23.6451 26.5 23 26.5ZM21.8333 23C19.9037 23 18.3333 21.4297 18.3333 19.5C18.3333 17.5703 19.9037 16 21.8333 16C23.763 16 25.3333 17.5703 25.3333 19.5C25.3333 21.4297 23.763 23 21.8333 23ZM21.8333 14.8333C19.2597 14.8333 17.1667 12.7403 17.1667 10.1667C17.1667 7.59299 19.2597 5.5 21.8333 5.5C24.407 5.5 26.5 7.59299 26.5 10.1667C26.5 12.7403 24.407 14.8333 21.8333 14.8333Z" fill="currentColor"/>
</svg>
