<svg viewBox="0 0 32 32" fill="none" xmlns="http://www.w3.org/2000/svg">
<path d="M20.125 2C19.1041 2 18.2447 2.581 17.5764 3.4H14.4236C13.7553 2.581 12.8959 2 11.875 2C10.8541 2 9.99469 2.581 9.32644 3.4H5V30H27V3.4H22.6736C22.0053 2.581 21.1459 2 20.125 2ZM24.25 27.2H7.75V13.2H24.25V27.2ZM11.875 8.3C11.875 9.0728 11.2597 9.7 10.5 9.7C9.74031 9.7 9.125 9.0728 9.125 8.3C9.125 7.5265 9.74031 6.9 10.5 6.9C11.2597 6.9 11.875 7.5265 11.875 8.3ZM16 9.7C15.2403 9.7 14.625 9.0728 14.625 8.3C14.625 7.5265 15.2403 6.9 16 6.9C16.7597 6.9 17.375 7.5265 17.375 8.3C17.375 9.0728 16.7597 9.7 16 9.7ZM21.5 9.7C20.7403 9.7 20.125 9.0728 20.125 8.3C20.125 7.5265 20.7403 6.9 21.5 6.9C22.2597 6.9 22.875 7.5265 22.875 8.3C22.875 9.0728 22.2597 9.7 21.5 9.7Z" fill="currentColor"/>
<path d="M10 15.2H22V25.2H10V15.2Z" fill="currentColor"/>
</svg>
