<svg viewBox="0 0 32 32" fill="none" xmlns="http://www.w3.org/2000/svg">
<path d="M23.375 9H20.7527L20.7534 4.625C20.7534 3.17578 19.5776 2 18.1284 2H12.8784C11.4292 2 10.2534 3.17578 10.2534 4.625L10.25 9H7.625C6.17578 9 5 10.1758 5 11.625V25.625C5 27.0742 6.17578 28.25 7.625 28.25H8.50273L8.5 29.125C8.5 29.6117 8.88828 30 9.375 30H11.125C11.6117 30 12 29.6117 12 29.125L12.0055 28.25H19.0055L19 29.125C19 29.6104 19.3896 30 19.875 30H21.625C22.1104 30 22.5 29.6104 22.5 29.125L22.5027 28.25H23.375C24.8242 28.25 26 27.0742 26 25.625V11.625C26 10.1758 24.8242 9 23.375 9ZM12.8805 4.625H18.1305V9H12.8805V4.625V4.625ZM21.625 23H9.375C8.89375 23 8.5 22.6063 8.5 22.125C8.5 21.6437 8.89375 21.25 9.375 21.25H21.625C22.1063 21.25 22.5 21.6437 22.5 22.125C22.5 22.6063 22.1063 23 21.625 23ZM21.625 16H9.375C8.89375 16 8.5 15.6063 8.5 15.125C8.5 14.6437 8.89375 14.25 9.375 14.25H21.625C22.1063 14.25 22.5 14.6437 22.5 15.125C22.5 15.6063 22.1063 16 21.625 16Z" fill="currentColor"/>
</svg>
