<svg viewBox="0 0 32 32" fill="none" xmlns="http://www.w3.org/2000/svg">
<path d="M20.2 3C20.9728 3 21.6 3.62222 21.6 4.38889V7.16667H28.6C29.3728 7.16667 30 7.78889 30 8.55556V26.6111C30 27.3778 29.3728 28 28.6 28H3.4C2.6272 28 2 27.3778 2 26.6111V8.55556C2 7.78889 2.6272 7.16667 3.4 7.16667H10.4V4.38889C10.4 3.62222 11.0272 3 11.8 3H20.2ZM21.6 9.94444H10.4V25.2222H21.6V9.94444ZM4.8 9.94444V25.2222H7.6V9.94444H4.8ZM18.8 5.77778H13.2V7.16667H18.8V5.77778ZM24.4 9.94444V25.2222H27.2V9.94444H24.4Z" fill="currentColor"/>
</svg>
