<svg viewBox="0 0 32 32" fill="none" xmlns="http://www.w3.org/2000/svg">
<g clip-path="url(#clip0_102_453)">
<path d="M6.813 6.813C7.27167 7.27167 7.751 7.27167 8.251 6.813C8.70967 6.35433 8.70967 5.875 8.251 5.375L6.813 4C6.35433 3.54133 5.875 3.54133 5.375 4C4.91633 4.45867 4.91633 4.917 5.375 5.375L6.813 6.813ZM4 15C4 14.3333 3.66667 14 3 14H1C0.333333 14 0 14.3333 0 15C0 15.6667 0.333333 16 1 16H3C3.66667 16 4 15.6667 4 15ZM5.375 23.813L4 25.188C3.83333 25.3967 3.75 25.6467 3.75 25.938C3.75 26.2293 3.83333 26.4587 4 26.626C4.45867 27.0847 4.917 27.0847 5.375 26.626L6.813 25.188C7.27167 24.7293 7.27167 24.271 6.813 23.813C6.35433 23.313 5.875 23.313 5.375 23.813ZM15 28C14.3333 28 14 28.3333 14 29V31C14 31.6667 14.3333 32 15 32C15.6667 32 16 31.6667 16 31V29C16 28.3333 15.6667 28 15 28ZM17 4C17.6667 4 18 3.66667 18 3V1C18 0.333333 17.6667 0 17 0C16.3333 0 16 0.333333 16 1V3C16 3.66667 16.3333 4 17 4ZM25.188 25.188C24.7293 24.7293 24.271 24.7293 23.813 25.188C23.313 25.6467 23.313 26.126 23.813 26.626L25.188 28.001C25.6467 28.543 26.126 28.543 26.626 28.001C27.0847 27.5423 27.0847 27.084 26.626 26.626L25.188 25.188ZM31 16H29C28.3333 16 28 16.3333 28 17C28 17.6667 28.3333 18 29 18H31C31.6667 18 32 17.6667 32 17C32 16.3333 31.6667 16 31 16ZM26.625 8.188L28 6.813C28.5 6.35433 28.5 5.875 28 5.375C27.5413 4.91633 27.083 4.91633 26.625 5.375L25.187 6.813C24.7283 7.27167 24.7283 7.751 25.187 8.251C25.6457 8.70967 26.125 8.68867 26.625 8.188ZM16 6C13.25 6 10.8957 6.97933 8.937 8.938C6.97833 10.8967 5.999 13.251 5.999 16.001C5.999 18.751 6.97833 21.1053 8.937 23.064C10.8957 25.0227 13.25 26.002 16 26.002C18.75 26.002 21.1043 25.0227 23.063 23.064C25.0217 21.1053 26.001 18.751 26.001 16.001C26.001 13.251 25.0217 10.8967 23.063 8.938C21.1043 6.97933 18.75 6 16 6Z" fill="currentColor"/>
</g>
<defs>
<clipPath id="clip0_102_453">
<rect width="32" height="32" fill="white"/>
</clipPath>
</defs>
</svg>
