<svg viewBox="0 0 32 32" fill="none" xmlns="http://www.w3.org/2000/svg">
<path d="M2 21.2499C2 20.861 2.19444 20.6666 2.58333 20.6666H20.6667V16.9999C20.6667 16.5879 21.137 16.3527 21.4667 16.5999L29.4667 22.5999C29.7333 22.7999 29.7333 23.1999 29.4667 23.3999L21.4667 29.3999C21.137 29.6471 20.6667 29.412 20.6667 28.9999V25.3333H2.58333C2.19444 25.3333 2 25.1388 2 24.7499V21.2499ZM30 10.7499C30 11.1388 29.8056 11.3333 29.4167 11.3333H11.3333V14.9999C11.3333 15.412 10.863 15.6471 10.5333 15.3999L2.53333 9.39993C2.26667 9.19993 2.26667 8.79993 2.53333 8.59993L10.5333 2.59993C10.863 2.35272 11.3333 2.58791 11.3333 2.99993V6.6666H29.4167C29.8056 6.6666 30 6.86104 30 7.24993V10.7499Z" fill="currentColor"/>
</svg>
