<svg viewBox="0 0 32 32" fill="none" xmlns="http://www.w3.org/2000/svg">
<path d="M10.7501 2C11.1389 2 11.3334 2.19444 11.3334 2.58333V20.6667H15.0001C15.4121 20.6667 15.6473 21.137 15.4001 21.4667L9.40005 29.4667C9.20005 29.7333 8.80005 29.7333 8.60005 29.4667L2.60005 21.4667C2.35284 21.137 2.58803 20.6667 3.00005 20.6667H6.66672V2.58333C6.66672 2.19444 6.86116 2 7.25005 2H10.7501ZM21.2501 30C20.8612 30 20.6667 29.8056 20.6667 29.4167V11.3333H17.0001C16.588 11.3333 16.3528 10.863 16.6001 10.5333L22.6001 2.53333C22.8001 2.26667 23.2001 2.26667 23.4001 2.53333L29.4001 10.5333C29.6473 10.863 29.4121 11.3333 29.0001 11.3333H25.3334V29.4167C25.3334 29.8056 25.1389 30 24.7501 30H21.2501Z" fill="currentColor"/>
</svg>
