<svg viewBox="0 0 32 32" fill="none" xmlns="http://www.w3.org/2000/svg">
<path d="M27 3.5C28.9699 3.5 30.5714 5.09877 30.5714 7.07143V24.9286C30.5714 26.8984 28.9699 28.5 27 28.5H5.57143C3.59877 28.5 2 26.8984 2 24.9286V7.07143C2 5.09877 3.59877 3.5 5.57143 3.5H27ZM10.4821 7.07143H5.57143V10.6429H10.4821V7.07143ZM13.6071 10.6429H18.5179V7.07143H13.6071V10.6429ZM27 7.07143H22.0893V10.6429H27V7.07143ZM5.57143 17.7857H10.4821V14.2143H5.57143V17.7857ZM18.5179 14.2143H13.6071V17.7857H18.5179V14.2143ZM22.0893 17.7857H27V14.2143H22.0893V17.7857ZM10.4821 21.3571H5.57143V24.9286H10.4821V21.3571ZM13.6071 24.9286H18.5179V21.3571H13.6071V24.9286ZM27 21.3571H22.0893V24.9286H27V21.3571Z" fill="currentColor"/>
</svg>
