<svg viewBox="0 0 32 32" fill="none" xmlns="http://www.w3.org/2000/svg">
<path d="M1.31201 12.0005V4.56201C1.31201 3.69053 1.61176 2.90828 2.19775 2.26416L2.229 2.229L2.26416 2.19678C2.90851 1.61143 3.69093 1.31201 4.56201 1.31201H12.0005C12.8096 1.31208 13.6199 1.48934 14.4253 1.81885C15.2866 2.15418 16.0344 2.62035 16.645 3.23096L29.395 15.981C30.0245 16.6104 30.313 17.4191 30.313 18.313C30.313 19.1842 30.0117 19.9634 29.397 20.5796L29.3979 20.5806L20.6479 29.394L20.6108 29.4292C19.9665 30.0145 19.1841 30.314 18.313 30.314C17.4191 30.314 16.6104 30.0254 15.981 29.396L15.979 29.394L3.23584 16.5884C2.59979 16.0357 2.13637 15.2885 1.81201 14.4087L1.81299 14.4077C1.48797 13.6079 1.31208 12.8039 1.31201 12.0005ZM3.31201 12.0005C3.31207 12.4536 3.39853 12.9378 3.5874 13.4575L3.67432 13.6821L3.68213 13.6997L3.68799 13.7173C3.90587 14.3082 4.17097 14.7184 4.45557 14.9966L4.57861 15.1079L4.61377 15.1372L4.64697 15.1704L17.395 27.9819L17.4751 28.0552C17.6702 28.2162 17.9287 28.314 18.313 28.314C18.6878 28.314 18.9863 28.198 19.2573 27.9546L27.978 19.1714L27.981 19.1685C28.1976 18.9517 28.313 18.691 28.313 18.313C28.313 17.8736 28.1848 17.5989 27.981 17.395L15.231 4.64502C14.8417 4.25575 14.3391 3.93077 13.7007 3.68213L13.6909 3.67822L13.6821 3.67432C13.0766 3.42481 12.5182 3.31208 12.0005 3.31201H4.56201C4.19937 3.31201 3.90809 3.42052 3.64404 3.64795C3.41937 3.91001 3.31201 4.2002 3.31201 4.56201V12.0005Z" fill="currentColor"/>
<path d="M12 10.5C12 9.67158 11.3284 9.00001 10.5 9.00001C9.67158 9.00001 9.00001 9.67158 9.00001 10.5C9.00001 11.3284 9.67158 12 10.5 12V14C8.56701 14 7.00001 12.433 7.00001 10.5C7.00001 8.56701 8.56701 7.00001 10.5 7.00001C12.433 7.00001 14 8.56701 14 10.5C14 12.433 12.433 14 10.5 14V12C11.3284 12 12 11.3284 12 10.5Z" fill="currentColor"/>
</svg>
