<svg viewBox="0 0 32 32" fill="none" xmlns="http://www.w3.org/2000/svg">
<path d="M10.313 8.00001C10.313 7.37468 10.0837 6.83301 9.62501 6.37501C9.16634 5.91701 8.62468 5.68768 8.00001 5.68701C7.37534 5.68634 6.83368 5.91568 6.37501 6.37501C5.91634 6.83434 5.68701 7.37601 5.68701 8.00001C5.68701 8.62401 5.91634 9.16568 6.37501 9.62501C6.83368 10.0843 7.37534 10.3137 8.00001 10.313C8.62468 10.3123 9.16634 10.083 9.62501 9.62501C10.0837 9.16701 10.313 8.62534 10.313 8.00001ZM29.313 18.313C29.313 18.9383 29.1047 19.4593 28.688 19.876L19.938 28.689C19.4793 29.1057 18.9377 29.314 18.313 29.314C17.6463 29.314 17.1047 29.1057 16.688 28.689L3.93801 15.876C3.43801 15.4593 3.04201 14.855 2.75001 14.063C2.45801 13.3543 2.31201 12.6667 2.31201 12V4.56201C2.31201 3.93668 2.52035 3.39501 2.93701 2.93701C3.39568 2.52035 3.93734 2.31201 4.56201 2.31201H12C12.6667 2.31201 13.3543 2.45801 14.063 2.75001C14.813 3.04201 15.438 3.43801 15.938 3.93801L28.688 16.688C29.1047 17.1047 29.313 17.6463 29.313 18.313Z" fill="currentColor"/>
</svg>
