<svg viewBox="0 0 32 32" fill="none" xmlns="http://www.w3.org/2000/svg">
<path d="M7.55792 8.47693C7.55792 7.8748 7.34128 7.35323 6.90802 6.91223C6.47475 6.47122 5.96308 6.2504 5.37301 6.24976C4.78293 6.24912 4.27126 6.46994 3.838 6.91223C3.44441 7.31343 3.24761 7.835 3.24761 8.47693C3.24761 9.11886 3.44441 9.64042 3.838 10.0416C4.27126 10.4833 4.78293 10.7041 5.37301 10.7041C5.96308 10.7041 6.47475 10.4833 6.90802 10.0416C7.34128 9.59998 7.55792 9.07841 7.55792 8.47693ZM25.5652 18.4072C25.5652 18.9689 25.3486 19.4706 24.9153 19.9122L16.6499 28.3982C16.2166 28.7994 15.705 29 15.1149 29C14.4851 29 13.9735 28.7994 13.5799 28.3982L1.53595 16.0607C1.06364 15.6595 0.689574 15.0776 0.413744 14.3149C0.137915 13.6326 0 12.9704 0 12.3285V5.16651C0 4.56438 0.216633 4.04281 0.6499 3.60181C1.04349 3.2006 1.53564 3 2.12634 3H9.15244C9.78219 3 10.4513 3.14058 11.1598 3.42175C11.8292 3.70291 12.4 4.08422 12.8724 4.56566L24.9163 16.8425C25.3495 17.2842 25.5652 17.8057 25.5652 18.4072ZM32 18.4072C32 19.0094 31.8032 19.511 31.4096 19.9122L23.0847 28.3982C22.6911 28.7994 22.1794 29 21.5497 29C21.1164 29 20.8015 28.9198 20.605 28.7593C20.4866 28.7188 20.1718 28.4781 19.6604 28.0371L27.6311 19.9122C28.0247 19.511 28.2215 19.0094 28.2215 18.4072C28.2215 17.7653 28.0247 17.2437 27.6311 16.8425L15.5277 4.56566C15.1341 4.12402 14.5632 3.74271 13.8151 3.42175C13.1457 3.14058 12.4961 3 11.8663 3H15.6448C16.2746 3 16.9242 3.14058 17.5936 3.42175C18.3417 3.74271 18.9126 4.12402 19.3062 4.56566L31.4096 16.8425C31.8032 17.2437 32 17.7653 32 18.4072Z" fill="currentColor"/>
</svg>
