<svg viewBox="0 0 32 32" fill="none" xmlns="http://www.w3.org/2000/svg">
<path d="M19 4C19.8297 4 20.5 4.67172 20.5 5.5V7V7.00703C22.3094 7.10828 23.8891 8.28859 24.4938 10.0141L26.1437 14.725C27.2312 15.175 28 16.2484 28 17.5V26.5C28 27.3297 27.3297 28 26.5 28H25C24.1703 28 23.5 27.3297 23.5 26.5V24.25H8.5V26.5C8.5 27.3297 7.82969 28 7 28H5.5C4.67172 28 4 27.3297 4 26.5V17.5C4 16.2484 4.76688 15.175 5.85672 14.725L7.50625 10.0141C8.11094 8.28859 9.69063 7.10828 11.5 7.00703V7V5.5C11.5 4.67172 12.1703 4 13 4H19ZM11.7531 10C11.1156 10 10.5484 10.4031 10.3375 11.0031L9.11406 14.5H22.8859L21.6625 11.0031C21.4516 10.4031 20.8844 10 20.2469 10H11.7531ZM8.5 20.5C9.32969 20.5 10 19.8297 10 19C10 18.1703 9.32969 17.5 8.5 17.5C7.67031 17.5 7 18.1703 7 19C7 19.8297 7.67031 20.5 8.5 20.5ZM23.5 17.5C22.6703 17.5 22 18.1703 22 19C22 19.8297 22.6703 20.5 23.5 20.5C24.3297 20.5 25 19.8297 25 19C25 18.1703 24.3297 17.5 23.5 17.5Z" fill="currentColor"/>
</svg>
