<svg viewBox="0 0 32 32" fill="none" xmlns="http://www.w3.org/2000/svg">
<path d="M14.9947 19.9999H6.33872L3.67205 26.6666H0.800049L9.33338 5.33325H12L20.5334 26.6666H17.6614L14.9947 19.9999ZM13.928 17.3333L10.6667 9.17992L7.40538 17.3333H13.928V17.3333ZM28 16.7133V15.9999H30.6667V26.6666H28V25.9533C27.1892 26.4209 26.2697 26.6669 25.3337 26.6666C24.3977 26.6663 23.4782 26.4196 22.6678 25.9515C21.8573 25.4833 21.1843 24.81 20.7164 23.9994C20.2485 23.1888 20.0021 22.2692 20.0021 21.3333C20.0021 20.3973 20.2485 19.4778 20.7164 18.6671C21.1843 17.8565 21.8573 17.1832 22.6678 16.715C23.4782 16.2469 24.3977 16.0002 25.3337 15.9999C26.2697 15.9996 27.1892 16.2456 28 16.7133V16.7133ZM25.3334 23.9999C26.0406 23.9999 26.7189 23.719 27.219 23.2189C27.7191 22.7188 28 22.0405 28 21.3333C28 20.626 27.7191 19.9477 27.219 19.4476C26.7189 18.9475 26.0406 18.6666 25.3334 18.6666C24.6261 18.6666 23.9479 18.9475 23.4478 19.4476C22.9477 19.9477 22.6667 20.626 22.6667 21.3333C22.6667 22.0405 22.9477 22.7188 23.4478 23.2189C23.9479 23.719 24.6261 23.9999 25.3334 23.9999V23.9999Z" fill="currentColor"/>
</svg>
