<svg viewBox="0 0 32 32" fill="none" xmlns="http://www.w3.org/2000/svg">
<path d="M10.6667 4V16C10.6667 17.4145 11.2286 18.771 12.2288 19.7712C13.229 20.7714 14.5856 21.3333 16 21.3333C17.4145 21.3333 18.7711 20.7714 19.7713 19.7712C20.7715 18.771 21.3334 17.4145 21.3334 16V4H24V16C24 18.1217 23.1572 20.1566 21.6569 21.6569C20.1566 23.1571 18.1218 24 16 24C13.8783 24 11.8435 23.1571 10.3432 21.6569C8.8429 20.1566 8.00004 18.1217 8.00004 16V4H10.6667ZM5.33337 26.6667H26.6667V29.3333H5.33337V26.6667Z" fill="currentColor"/>
</svg>
