<svg viewBox="0 0 32 32" fill="none" xmlns="http://www.w3.org/2000/svg">
<path d="M25.664 8.00267C27.0373 9.46133 27.7747 11.0973 27.7747 13.7493C27.7747 18.416 24.4987 22.5987 19.7347 24.6667L18.544 22.8293C22.9907 20.424 23.86 17.3027 24.2067 15.3347C23.4907 15.7053 22.5533 15.8347 21.6347 15.7493C19.2293 15.5267 17.3333 13.552 17.3333 11.0973C17.3333 9.85965 17.825 8.67267 18.7002 7.7975C19.5753 6.92233 20.7623 6.43066 22 6.43066C23.4307 6.43066 24.7987 7.084 25.664 8.00267ZM12.3307 8.00267C13.704 9.46133 14.4413 11.0973 14.4413 13.7493C14.4413 18.416 11.1653 22.5987 6.40133 24.6667L5.21067 22.8293C9.65733 20.424 10.5267 17.3027 10.8733 15.3347C10.1573 15.7053 9.22 15.8347 8.30133 15.7493C5.896 15.5267 4 13.552 4 11.0973C4 9.85965 4.49166 8.67267 5.36683 7.7975C6.242 6.92233 7.42899 6.43066 8.66667 6.43066C10.0973 6.43066 11.4653 7.084 12.3307 8.00267Z" fill="currentColor"/>
</svg>
