<svg viewBox="0 0 32 32" fill="none" xmlns="http://www.w3.org/2000/svg">
<path d="M10.6667 5.33341H28V8.00008H10.6667V5.33341ZM6 8.66675C5.46957 8.66675 4.96086 8.45603 4.58579 8.08096C4.21071 7.70589 4 7.19718 4 6.66675C4 6.13632 4.21071 5.62761 4.58579 5.25253C4.96086 4.87746 5.46957 4.66675 6 4.66675C6.53043 4.66675 7.03914 4.87746 7.41421 5.25253C7.78929 5.62761 8 6.13632 8 6.66675C8 7.19718 7.78929 7.70589 7.41421 8.08096C7.03914 8.45603 6.53043 8.66675 6 8.66675ZM6 18.0001C5.46957 18.0001 4.96086 17.7894 4.58579 17.4143C4.21071 17.0392 4 16.5305 4 16.0001C4 15.4696 4.21071 14.9609 4.58579 14.5859C4.96086 14.2108 5.46957 14.0001 6 14.0001C6.53043 14.0001 7.03914 14.2108 7.41421 14.5859C7.78929 14.9609 8 15.4696 8 16.0001C8 16.5305 7.78929 17.0392 7.41421 17.4143C7.03914 17.7894 6.53043 18.0001 6 18.0001ZM6 27.2001C5.46957 27.2001 4.96086 26.9894 4.58579 26.6143C4.21071 26.2392 4 25.7305 4 25.2001C4 24.6696 4.21071 24.1609 4.58579 23.7859C4.96086 23.4108 5.46957 23.2001 6 23.2001C6.53043 23.2001 7.03914 23.4108 7.41421 23.7859C7.78929 24.1609 8 24.6696 8 25.2001C8 25.7305 7.78929 26.2392 7.41421 26.6143C7.03914 26.9894 6.53043 27.2001 6 27.2001ZM10.6667 14.6667H28V17.3334H10.6667V14.6667ZM10.6667 24.0001H28V26.6667H10.6667V24.0001Z" fill="currentColor"/>
</svg>
