<svg viewBox="0 0 32 32" fill="none" xmlns="http://www.w3.org/2000/svg">
<path d="M10.6667 14.6666H16.6667C17.5507 14.6666 18.3986 14.3154 19.0237 13.6903C19.6488 13.0652 20 12.2173 20 11.3333C20 10.4492 19.6488 9.60135 19.0237 8.97623C18.3986 8.35111 17.5507 7.99992 16.6667 7.99992H10.6667V14.6666ZM24 20.6666C24 21.4545 23.8448 22.2347 23.5433 22.9627C23.2417 23.6906 22.7998 24.3521 22.2426 24.9092C21.6855 25.4664 21.0241 25.9083 20.2961 26.2099C19.5681 26.5114 18.7879 26.6666 18 26.6666H8V5.33325H16.6667C17.8413 5.3333 18.99 5.67812 19.9705 6.32496C20.951 6.97179 21.72 7.89219 22.1823 8.97201C22.6445 10.0518 22.7797 11.2436 22.5709 12.3995C22.3622 13.5554 21.8187 14.6246 21.008 15.4746C21.9182 16.0016 22.6738 16.7588 23.1989 17.6701C23.7241 18.5814 24.0004 19.6148 24 20.6666ZM10.6667 17.3333V23.9999H18C18.8841 23.9999 19.7319 23.6487 20.357 23.0236C20.9821 22.3985 21.3333 21.5506 21.3333 20.6666C21.3333 19.7825 20.9821 18.9347 20.357 18.3096C19.7319 17.6844 18.8841 17.3333 18 17.3333H10.6667Z" fill="currentColor"/>
</svg>
