<svg viewBox="0 0 32 32" fill="none" xmlns="http://www.w3.org/2000/svg">
<path d="M10.6984 15.4899C9.01563 15.9821 7.88126 17.4258 7.99845 18.968C8.53282 18.368 9.34845 17.8524 10.3422 17.5196L10.6984 15.4899ZM5.48969 17.8243L4.00516 9.41489C3.98782 9.33989 4.01735 9.29301 4.01735 9.29301C6.72438 7.78692 9.78767 6.9966 12.8767 6.9966C12.9529 6.9966 13.0227 7.0001 13.0988 7.0001C13.7129 6.36728 14.5871 5.93369 15.5185 5.78135C16.403 5.64072 17.3054 5.57041 18.2021 5.53525C17.7334 4.879 17.0551 4.39759 16.2409 4.26869C15.122 4.08705 13.9955 4 12.8766 4C9.27945 4 5.73288 4.91172 2.55944 6.67516C1.42286 7.30879 0.819392 8.61801 1.04786 9.9352L2.5361 18.3446C3.20407 22.118 8.92517 25.0008 12.122 25.0008C12.292 25.0008 12.4397 24.9869 12.5922 24.9693C11.9594 24.1663 11.275 23.0709 10.7406 21.7991C8.5047 21.1946 5.76719 19.3758 5.48969 17.8243ZM10.0656 11.3883C10.0281 11.1915 9.95782 11.018 9.87345 10.8539C9.48678 11.27 8.90689 11.5922 8.2211 11.715C7.53579 11.8322 6.87345 11.7327 6.36954 11.469C6.3461 11.6565 6.34025 11.8439 6.3754 12.0371C6.55118 13.0567 7.52384 13.7359 8.54337 13.5545C9.55939 13.3805 10.2484 12.4055 10.0656 11.3883ZM29.4438 9.6727C25.278 7.35801 20.4719 6.51426 15.761 7.26426C14.4766 7.42739 13.4594 8.49379 13.225 9.77114L11.7344 18.2274C11.0139 22.3116 16.203 27.429 19.1547 27.9446C22.0656 28.4663 28.7407 25.4283 29.4625 21.3446L30.9508 12.9305C31.1828 11.6086 30.5782 10.3008 29.4438 9.6727ZM16.6328 14.2102C16.8145 13.1907 17.7869 12.511 18.8064 12.6929C19.826 12.8686 20.5056 13.8408 20.3299 14.8547C20.2947 15.0481 20.2244 15.2238 20.1365 15.3938C19.7498 14.9719 19.1699 14.6555 18.4842 14.5327C17.7928 14.4097 17.1365 14.5151 16.6326 14.7729C16.5672 14.5899 16.6047 14.4024 16.6328 14.2102ZM19.8953 23.5243C17.2881 23.0614 15.513 20.7479 15.7239 18.2696C16.6905 19.471 18.3606 20.4371 20.3875 20.7947C22.4149 21.1522 24.3128 20.8125 25.6328 20.0157C25.0094 22.4086 22.5485 23.9836 19.8953 23.5243ZM26.05 16.4321C25.6634 16.0161 25.0774 15.6938 24.3921 15.571C23.7067 15.4538 23.0505 15.5534 22.5405 15.817C22.5171 15.6295 22.5112 15.4421 22.5464 15.2489C22.728 14.2294 23.7004 13.5497 24.7199 13.7316C25.7395 13.9132 26.4192 14.8795 26.2373 15.8991C26.2 16.0899 26.1297 16.268 26.05 16.4321Z" fill="currentColor"/>
</svg>
