<svg viewBox="0 0 32 32" fill="none" xmlns="http://www.w3.org/2000/svg">
<g clip-path="url(#clip0_230_117)">
<path d="M20 17.125V4.00002C20 2.91669 19.604 1.97902 18.812 1.18702C18.02 0.395024 17.0823 -0.000976563 15.999 -0.000976562C14.9157 -0.000976562 13.978 0.395024 13.186 1.18702C12.394 1.97902 11.998 2.91669 11.998 4.00002V17.125C10.7893 17.8337 9.82067 18.792 9.092 20C8.36333 21.208 7.99867 22.5414 7.998 24C7.998 26.2087 8.77933 28.094 10.342 29.656C11.9047 31.218 13.79 31.9994 15.998 32C18.206 32.0007 20.0913 31.2194 21.654 29.656C23.2167 28.0927 23.998 26.2074 23.998 24C23.998 22.5414 23.6333 21.208 22.904 20C22.1747 18.792 21.206 17.8337 19.998 17.125H20ZM14 12H16V10H14V8.00002H16V6.00002H14V4.00002C14 3.41669 14.1877 2.93736 14.563 2.56202C14.9383 2.18669 15.4177 1.99902 16.001 1.99902C16.5843 1.99902 17.0637 2.18669 17.439 2.56202C17.8143 2.93736 18.002 3.41669 18.002 4.00002V14H14.002V12H14ZM16 30C14.3333 30 12.9167 29.4167 11.75 28.25C10.5833 27.0834 10 25.6667 10 24C10 23.75 10.0417 23.4167 10.125 23C10.3337 24.4167 11.0003 25.6044 12.125 26.563C13.2497 27.5217 14.5413 28.001 16 28.001C17.5 28.001 18.802 27.5217 19.906 26.563C21.01 25.6044 21.6663 24.4167 21.875 23C21.9583 23.4167 22 23.75 22 24C22 25.6667 21.4167 27.0834 20.25 28.25C19.0833 29.4167 17.6667 30 16 30Z" fill="currentColor"/>
</g>
<defs>
<clipPath id="clip0_230_117">
<rect width="32" height="32" fill="white"/>
</clipPath>
</defs>
</svg>
