<svg viewBox="0 0 32 32" fill="none" xmlns="http://www.w3.org/2000/svg">
<path d="M19.3091 12.4002H27.4545C28.1296 12.4002 28.7771 12.6693 29.2545 13.1482C29.7318 13.6272 30 14.2767 30 14.954V17.6406C30.0003 17.9744 29.9355 18.3049 29.8091 18.6136L25.87 28.2096C25.7739 28.4435 25.6107 28.6436 25.4011 28.7843C25.1915 28.925 24.9449 29.0001 24.6927 29H3.27273C2.93518 29 2.61146 28.8655 2.37277 28.626C2.13409 28.3865 2 28.0617 2 27.7231V14.954C2 14.6154 2.13409 14.2906 2.37277 14.0511C2.61146 13.8117 2.93518 13.6771 3.27273 13.6771H7.70436C7.90812 13.6772 8.10892 13.6281 8.28986 13.5342C8.47081 13.4402 8.62661 13.304 8.74418 13.137L15.6844 3.27035C15.7721 3.14561 15.9015 3.05654 16.049 3.01929C16.1966 2.98205 16.3526 2.99908 16.4887 3.06732L18.7975 4.22547C19.4472 4.55129 19.9662 5.09034 20.2684 5.75305C20.5705 6.41577 20.6376 7.16226 20.4584 7.86848L19.3091 12.4002ZM9.63636 15.7049V26.4462H23.84L27.4545 17.6406V14.954H19.3091C18.9214 14.954 18.5389 14.8651 18.1907 14.6941C17.8424 14.5232 17.5377 14.2747 17.2998 13.9676C17.0619 13.6605 16.897 13.303 16.8177 12.9223C16.7385 12.5415 16.747 12.1477 16.8425 11.7707L17.9918 7.24025C18.0278 7.09893 18.0144 6.94951 17.954 6.81686C17.8936 6.68421 17.7897 6.57632 17.6596 6.51113L16.8184 6.08975L10.8238 14.6093C10.5056 15.0613 10.0984 15.4316 9.63636 15.7049V15.7049ZM7.09091 16.2309H4.54545V26.4462H7.09091V16.2309Z" fill="currentColor"/>
</svg>
