<svg viewBox="0 0 32 32" fill="none" xmlns="http://www.w3.org/2000/svg">
<path d="M28.4618 18.621H24.6815V3.5H28.4618C28.7959 3.5 29.1165 3.63276 29.3528 3.86907C29.5891 4.10538 29.7218 4.42589 29.7218 4.76008V17.3609C29.7218 17.6951 29.5891 18.0156 29.3528 18.2519C29.1165 18.4882 28.7959 18.621 28.4618 18.621ZM21.7921 20.2503L13.7276 28.3148C13.6204 28.4223 13.478 28.4875 13.3266 28.4984C13.1752 28.5093 13.025 28.4651 12.9035 28.374L11.8287 27.5676C11.5301 27.3435 11.3047 27.036 11.1806 26.684C11.0566 26.3319 11.0396 25.951 11.1318 25.5893L12.5847 19.8811H4.52017C3.85178 19.8811 3.21076 19.6156 2.73814 19.1429C2.26552 18.6703 2 18.0293 2 17.3609V14.7097C1.99966 14.3804 2.06388 14.0542 2.18901 13.7495L6.09023 4.28125C6.18509 4.05034 6.3464 3.85282 6.55369 3.71373C6.76098 3.57463 7.00492 3.50025 7.25455 3.5H20.9013C21.2354 3.5 21.556 3.63276 21.7923 3.86907C22.0286 4.10538 22.1613 4.42589 22.1613 4.76008V19.3594C22.1613 19.6936 22.0285 20.014 21.7921 20.2503Z" fill="currentColor"/>
</svg>
