<svg viewBox="0 0 32 32" fill="none" xmlns="http://www.w3.org/2000/svg">
<path d="M12.7265 20.1006H4.55394C3.87659 20.1006 3.22699 19.8315 2.74803 19.3526C2.26908 18.8736 2 18.224 2 17.5467V14.8599C1.99966 14.5262 2.06473 14.1956 2.19155 13.8869L6.14504 4.29172C6.24117 4.05772 6.40464 3.85754 6.61471 3.71659C6.82478 3.57563 7.07198 3.50025 7.32496 3.5H28.8163C29.155 3.5 29.4798 3.63454 29.7193 3.87402C29.9588 4.11349 30.0933 4.4383 30.0933 4.77697V17.5467C30.0933 17.8853 29.9588 18.2101 29.7193 18.4496C29.4798 18.6891 29.155 18.8236 28.8163 18.8236H24.3699C24.1655 18.8236 23.964 18.8726 23.7825 18.9666C23.6009 19.0606 23.4446 19.1968 23.3267 19.3638L16.3633 29.2296C16.2753 29.3544 16.1455 29.4435 15.9974 29.4807C15.8494 29.518 15.6929 29.5009 15.5563 29.4327L13.2399 28.2732C12.588 27.9474 12.0672 27.4083 11.764 26.7455C11.4609 26.0828 11.3936 25.3363 11.5734 24.63L12.7265 20.1006ZM22.4315 16.7958V6.05394H8.18053L4.55394 14.8599V17.5467H12.7265C13.1155 17.5467 13.4993 17.6356 13.8487 17.8066C14.1981 17.9775 14.5038 18.226 14.7425 18.5331C14.9812 18.8402 15.1467 19.1978 15.2262 19.5785C15.3057 19.9593 15.2972 20.3532 15.2013 20.7301L14.0482 25.2608C14.0121 25.4021 14.0255 25.5516 14.0861 25.6842C14.1468 25.8169 14.251 25.9248 14.3815 25.99L15.2256 26.4114L21.2401 17.8914C21.5593 17.4394 21.968 17.0691 22.4315 16.7958V16.7958ZM24.9854 16.2697H27.5394V6.05394H24.9854V16.2697Z" fill="currentColor"/>
</svg>
