<svg viewBox="0 0 32 32" fill="none" xmlns="http://www.w3.org/2000/svg">
<path d="M3.27273 12.879H7.09091V28H3.27273C2.93518 28 2.61146 27.8672 2.37277 27.6309C2.13409 27.3946 2 27.0741 2 26.7399V14.1391C2 13.8049 2.13409 13.4844 2.37277 13.2481C2.61146 13.0118 2.93518 12.879 3.27273 12.879V12.879ZM10.0093 11.2497L18.1547 3.18518C18.263 3.07768 18.4068 3.0125 18.5597 3.00162C18.7127 2.99074 18.8644 3.03489 18.9871 3.12595L20.0727 3.93241C20.3742 4.1565 20.602 4.46398 20.7272 4.81605C20.8525 5.16812 20.8696 5.54902 20.7765 5.91074L19.3091 11.6189H27.4545C28.1296 11.6189 28.7771 11.8844 29.2545 12.3571C29.7318 12.8297 30 13.4707 30 14.1391V16.7903C30.0003 17.1196 29.9355 17.4458 29.8091 17.7505L25.87 27.22C25.7739 27.4509 25.6107 27.6483 25.4011 27.7871C25.1915 27.926 24.9449 28.0001 24.6927 28H10.9091C10.5715 28 10.2478 27.8672 10.0091 27.6309C9.77045 27.3946 9.63636 27.0741 9.63636 26.7399V12.1406C9.63643 11.8064 9.77057 11.486 10.0093 11.2497Z" fill="currentColor"/>
</svg>
