<svg viewBox="0 0 32 32" fill="none" xmlns="http://www.w3.org/2000/svg">
<path d="M16 19.313C13.958 19.313 12.2913 19.0214 11 18.438C9.58334 17.896 8.83334 17.2084 8.75001 16.375C9.00001 15.7084 9.27101 14.9687 9.56301 14.156C9.85501 13.3434 10.0737 12.7184 10.219 12.281C10.3643 11.8437 10.479 11.5207 10.563 11.312C10.7717 11.9374 11.3967 12.4374 12.438 12.812C13.4793 13.1867 14.667 13.3744 16.001 13.375C17.3763 13.375 18.564 13.1874 19.564 12.812C20.564 12.4367 21.189 11.9367 21.439 11.312C21.981 12.9374 22.5643 14.625 23.189 16.375C23.147 17.167 22.4177 17.8547 21.001 18.438C19.6677 19.0214 18 19.313 16 19.313ZM16 8.62502C13.958 8.62502 12.6247 8.16669 12 7.25002L13.688 2.68702C13.8547 1.97836 14.6257 1.62402 16.001 1.62402C17.3343 1.62402 18.126 1.97836 18.376 2.68702C18.7093 3.72902 19.2303 5.25002 19.939 7.25002C19.397 8.16669 18.0833 8.62502 16 8.62502ZM30.063 20.938C30.9383 21.23 31.376 21.6677 31.376 22.251C31.376 22.751 30.98 23.251 30.188 23.751L18.938 29.751C18.188 30.2097 17.2087 30.439 16 30.439C14.8333 30.439 13.875 30.2097 13.125 29.751L1.75001 23.751C0.916678 23.3344 0.541678 22.8344 0.625011 22.251C0.708344 21.6677 1.14601 21.23 1.93801 20.938L8.00101 18.5L7.25101 20.438C7.25101 21.438 8.10534 22.313 9.81401 23.063C11.606 23.7717 13.6687 24.126 16.002 24.126C18.3353 24.126 20.377 23.7717 22.127 23.063C23.7937 22.313 24.6687 21.438 24.752 20.438L24.064 18.5L30.063 20.938Z" fill="currentColor"/>
</svg>
