<svg viewBox="0 0 32 32" fill="none" xmlns="http://www.w3.org/2000/svg">
<path d="M22.4368 25.4737L24.7105 27.3684V28H7.02632V27.3684L9.3 25.4737H7.02632C6.3563 25.4737 5.71372 25.2075 5.23994 24.7337C4.76616 24.26 4.5 23.6174 4.5 22.9474V9.05263C4.5 7.71259 5.03233 6.42743 5.97988 5.47988C6.92743 4.53233 8.21259 4 9.55263 4H22.1842C23.5243 4 24.8094 4.53233 25.757 5.47988C26.7045 6.42743 27.2368 7.71259 27.2368 9.05263V22.9474C27.2368 23.6174 26.9707 24.26 26.4969 24.7337C26.0231 25.2075 25.3805 25.4737 24.7105 25.4737H22.4368ZM7.02632 9.05263V14.1053H24.7105V9.05263H7.02632ZM15.8684 22.9474C16.5384 22.9474 17.181 22.6812 17.6548 22.2074C18.1286 21.7337 18.3947 21.0911 18.3947 20.4211C18.3947 19.751 18.1286 19.1085 17.6548 18.6347C17.181 18.1609 16.5384 17.8947 15.8684 17.8947C15.1984 17.8947 14.5558 18.1609 14.082 18.6347C13.6083 19.1085 13.3421 19.751 13.3421 20.4211C13.3421 21.0911 13.6083 21.7337 14.082 22.2074C14.5558 22.6812 15.1984 22.9474 15.8684 22.9474Z" fill="currentColor"/>
</svg>
