<svg viewBox="0 0 32 32" fill="none" xmlns="http://www.w3.org/2000/svg">
<path d="M22.5 4C24.9844 4 27 6.01469 27 8.5V20.5C27 22.7078 25.35 24.6109 23.1984 24.9484L25.3547 27.1047C25.6828 27.4328 25.4484 28 24.9422 28H23.1234C22.725 28 22.3406 27.8406 22.0594 27.5594L19.5 25H13.5L10.9406 27.5594C10.658 27.8406 10.2764 28 9.87891 28H8.0175C7.54969 28 7.31531 27.4328 7.64625 27.1047L9.80344 24.9484C7.64906 24.6109 6 22.7078 6 20.5V8.5C6 6.01469 8.01469 4 10.5 4H22.5ZM9 14.5C9 15.3297 9.67172 16 10.5 16H14.25C15.0797 16 15.75 15.3297 15.75 14.5V10C15.75 9.17031 15.0797 8.5 14.25 8.5H10.5C9.67172 8.5 9 9.17031 9 10V14.5ZM18.75 8.5C17.9203 8.5 17.25 9.17031 17.25 10V14.5C17.25 15.3297 17.9203 16 18.75 16H22.5C23.3297 16 24 15.3297 24 14.5V10C24 9.17031 23.3297 8.5 22.5 8.5H18.75ZM10.5 19C9.67172 19 9 19.6703 9 20.5C9 21.3297 9.67172 22 10.5 22C11.3297 22 12 21.3297 12 20.5C12 19.6703 11.3297 19 10.5 19ZM22.5 22C23.3297 22 24 21.3297 24 20.5C24 19.6703 23.3297 19 22.5 19C21.6703 19 21 19.6703 21 20.5C21 21.3297 21.6703 22 22.5 22Z" fill="currentColor"/>
</svg>
