<svg viewBox="0 0 32 32" fill="none" xmlns="http://www.w3.org/2000/svg">
<path d="M22.2065 29.1506V23.4709H10.5646C9.05349 23.4709 7.82891 22.245 7.82891 20.7339V10.144H3.2C2.46362 10.144 1.86667 9.54709 1.86667 8.81071C1.86682 8.07446 2.46371 7.47738 3.2 7.47738H7.82891V3.20003C7.82891 2.46365 8.42586 1.8667 9.16224 1.8667C9.89834 1.86702 10.4956 2.46385 10.4956 3.20003V20.7339C10.4956 20.7722 10.5263 20.8042 10.5646 20.8042H28.8003C29.5365 20.8043 30.1336 21.4012 30.1336 22.1375C30.1333 22.8736 29.5363 23.4707 28.8003 23.4709H24.8732V29.1506C24.8732 29.8869 24.2762 30.4838 23.5398 30.4839C22.8035 30.4839 22.2065 29.8869 22.2065 29.1506ZM21.8562 17.9292V10.2144C21.8562 10.176 21.8243 10.144 21.7859 10.144H14.4214C13.6852 10.1437 13.088 9.5469 13.088 8.81071C13.0882 8.07465 13.6853 7.47768 14.4214 7.47738H21.7859C23.297 7.47738 24.5229 8.70326 24.5229 10.2144V17.9292C24.5227 18.6652 23.9256 19.2622 23.1896 19.2625C22.4533 19.2625 21.8565 18.6654 21.8562 17.9292Z" fill="currentColor"/>
</svg>
