<svg viewBox="0 0 32 32" fill="none" xmlns="http://www.w3.org/2000/svg">
<path d="M26.6667 21.3334H29.3333V29.3334H21.3333V26.6667H10.6667V29.3334H2.66667V21.3334H5.33333V10.6667H2.66667V2.66675H10.6667V5.33341H21.3333V2.66675H29.3333V10.6667H26.6667V21.3334ZM24 21.3334V10.6667H21.3333V8.00008H10.6667V10.6667H8V21.3334H10.6667V24.0001H21.3333V21.3334H24ZM5.33333 5.33341V8.00008H8V5.33341H5.33333ZM5.33333 24.0001V26.6667H8V24.0001H5.33333ZM24 5.33341V8.00008H26.6667V5.33341H24ZM24 24.0001V26.6667H26.6667V24.0001H24Z" fill="currentColor"/>
</svg>
