<svg viewBox="0 0 32 32" fill="none" xmlns="http://www.w3.org/2000/svg">
<path d="M12.4441 24.7563V11.9074C12.4441 11.7793 12.401 11.6299 12.3148 11.4595C12.1423 11.3742 11.9912 11.3316 11.8615 11.3316H10.6975C10.5678 11.3316 10.4167 11.3742 10.2442 11.4595C10.158 11.5447 10.1149 11.694 10.1149 11.9074V24.7563C10.1149 24.9697 10.158 25.1191 10.2442 25.2043C10.4167 25.2895 10.5678 25.3321 10.6975 25.3321H11.8615C11.9912 25.3321 12.1423 25.2895 12.3148 25.2043C12.401 25.0338 12.4441 24.8845 12.4441 24.7563ZM17.1646 24.7563V11.9074C17.1646 11.7793 17.1215 11.6299 17.0353 11.4595C16.8628 11.3742 16.7117 11.3316 16.582 11.3316H15.418C15.2883 11.3316 15.1372 11.3742 14.9647 11.4595C14.8785 11.6299 14.8354 11.7793 14.8354 11.9074V24.7563C14.8354 24.8845 14.8785 25.0338 14.9647 25.2043C15.1372 25.2895 15.2883 25.3321 15.418 25.3321H16.582C16.7117 25.3321 16.8628 25.2895 17.0353 25.2043C17.1215 25.0338 17.1646 24.8845 17.1646 24.7563ZM21.8861 24.7563V11.9074C21.8861 11.694 21.843 11.5447 21.7568 11.4595C21.5843 11.3742 21.4333 11.3316 21.3036 11.3316H20.1395C20.0098 11.3316 19.8587 11.3742 19.6863 11.4595C19.6 11.6299 19.5569 11.7793 19.5569 11.9074V24.7563C19.5569 24.8845 19.6 25.0338 19.6863 25.2043C19.8587 25.2895 20.0098 25.3321 20.1395 25.3321H21.3036C21.4333 25.3321 21.5843 25.2895 21.7568 25.2043C21.843 25.1191 21.8861 24.9697 21.8861 24.7563ZM11.8615 6.66581H20.1395L19.2341 4.49246C19.1906 4.4495 19.0827 4.38541 18.9102 4.30018H13.0898C12.9173 4.38541 12.8094 4.4495 12.7659 4.49246L11.8615 6.66581ZM29 7.24163V8.39223C29 8.52041 28.9569 8.66974 28.8707 8.8402C28.6982 8.92542 28.5471 8.96804 28.4174 8.96804H26.6708V26.2915C26.6708 27.3142 26.369 28.188 25.7654 28.9128C25.2046 29.6376 24.5147 30 23.6959 30H8.3041C7.48458 30 6.79475 29.6591 6.23461 28.9772C5.63101 28.2525 5.32921 27.3787 5.32921 26.3559V8.96906H3.58256C3.45287 8.96906 3.3018 8.92645 3.12934 8.84122C3.04311 8.67076 3 8.52144 3 8.39325V7.24265C3 7.11446 3.04311 6.96514 3.12934 6.79468C3.3018 6.70945 3.45287 6.66684 3.58256 6.66684H9.27365L10.5671 3.59857C10.783 3.12946 11.1279 2.74593 11.6018 2.44797C12.033 2.14932 12.5072 2 13.0246 2H18.9744C19.4917 2 19.966 2.14932 20.3971 2.44797C20.8717 2.74661 21.2167 3.13015 21.4319 3.59857L22.7253 6.66684H28.4164C28.5461 6.66684 28.6972 6.70945 28.8696 6.79468C28.9559 6.96514 28.999 7.11446 28.999 7.24265L29 7.24163Z" fill="currentColor"/>
</svg>
