<svg viewBox="0 0 32 32" fill="none" xmlns="http://www.w3.org/2000/svg">
<path d="M12.4441 13.058V23.6057C12.4441 23.7762 12.401 23.904 12.3148 23.9893C12.1851 24.1174 12.034 24.1815 11.8615 24.1815H10.6975C10.525 24.1815 10.3739 24.1174 10.2442 23.9893C10.158 23.9463 10.1149 23.8185 10.1149 23.6057V13.058C10.1149 12.8446 10.158 12.7168 10.2442 12.6745C10.3739 12.5463 10.525 12.4822 10.6975 12.4822H11.8615C12.034 12.4822 12.1851 12.5463 12.3148 12.6745C12.401 12.7597 12.4441 12.8876 12.4441 13.058ZM17.1646 13.058V23.6057C17.1646 23.7762 17.1215 23.904 17.0353 23.9893C16.9056 24.1174 16.7545 24.1815 16.582 24.1815H15.418C15.2455 24.1815 15.0944 24.1174 14.9647 23.9893C14.8785 23.904 14.8354 23.7762 14.8354 23.6057V13.058C14.8354 12.8876 14.8785 12.7597 14.9647 12.6745C15.0944 12.5463 15.2455 12.4822 15.418 12.4822H16.582C16.7545 12.4822 16.9056 12.5463 17.0353 12.6745C17.1215 12.7597 17.1646 12.8876 17.1646 13.058ZM21.8861 13.058V23.6057C21.8861 23.8191 21.843 23.947 21.7568 23.9893C21.6271 24.1174 21.476 24.1815 21.3036 24.1815H20.1395C19.967 24.1815 19.816 24.1174 19.6863 23.9893C19.6 23.904 19.5569 23.7762 19.5569 23.6057V13.058C19.5569 12.8876 19.6 12.7597 19.6863 12.6745C19.816 12.5463 19.967 12.4822 20.1395 12.4822H21.3036C21.476 12.4822 21.6271 12.5463 21.7568 12.6745C21.843 12.7175 21.8861 12.8453 21.8861 13.058ZM24.2785 26.2905V8.96702H7.72257V26.2905C7.72257 26.4609 7.76568 26.7166 7.85191 27.0575C7.93814 27.2709 8.02437 27.4203 8.1106 27.5055L8.30513 27.6978H23.6969L23.8915 27.5055C23.9777 27.4203 24.0639 27.2709 24.1502 27.0575C24.2364 26.7166 24.2785 26.4609 24.2785 26.2905ZM11.8615 6.66581H20.1395L19.2341 4.49246C19.1906 4.4495 19.0827 4.38541 18.9102 4.30018H13.0898C12.9173 4.38541 12.8094 4.4495 12.7659 4.49246L11.8615 6.66581ZM29 7.24163V8.39223C29 8.52041 28.9569 8.66974 28.8707 8.8402C28.6982 8.92542 28.5471 8.96804 28.4174 8.96804H26.6708V26.2915C26.6708 27.3142 26.369 28.188 25.7654 28.9128C25.2046 29.6376 24.5147 30 23.6959 30H8.3041C7.48458 30 6.79475 29.6591 6.23461 28.9772C5.63101 28.2525 5.32921 27.3787 5.32921 26.3559V8.96906H3.58256C3.45287 8.96906 3.3018 8.92645 3.12934 8.84122C3.04311 8.67076 3 8.52144 3 8.39325V7.24265C3 7.11446 3.04311 6.96514 3.12934 6.79468C3.3018 6.70945 3.45287 6.66684 3.58256 6.66684H9.27365L10.5671 3.59857C10.783 3.12946 11.1279 2.74593 11.6018 2.44797C12.033 2.14932 12.5072 2 13.0246 2H18.9744C19.4917 2 19.966 2.14932 20.3971 2.44797C20.8717 2.74661 21.2167 3.13015 21.4319 3.59857L22.7253 6.66684H28.4164C28.5461 6.66684 28.6972 6.70945 28.8696 6.79468C28.9559 6.96514 28.999 7.11446 28.999 7.24265L29 7.24163Z" fill="currentColor"/>
</svg>
