<svg viewBox="0 0 32 32" fill="none" xmlns="http://www.w3.org/2000/svg">
<path d="M15.0032 15.9017C15.0513 15.4266 15.5049 15.0625 16.0485 15.0625C16.5991 15.0625 17.0562 15.436 17.0952 15.9179L18.2255 29.8621C18.2753 30.4771 17.7201 31 17.0175 31H14.7969C14.0857 31 13.5276 30.4649 13.5906 29.8434L15.0032 15.9017Z" fill="currentColor"/>
<path d="M17.8571 1C21.9598 1 25.2857 4.35786 25.2857 8.5C25.2857 10.2113 24.7161 11.7872 23.7605 13.0493C26.7948 13.9925 29 16.8458 29 20.2188C29 24.3609 25.6741 27.7188 21.5714 27.7188C20.7396 27.7188 19.9405 27.5788 19.1938 27.3242L18.5771 21.8008L21.9124 19.6584C22.2368 19.45 22.3328 19.0156 22.1264 18.688C21.9199 18.3604 21.4888 18.2634 21.1643 18.4719L18.4039 20.2453L17.7873 14.7128C17.7208 14.1176 16.9442 13.6563 16.0082 13.6562C15.0842 13.6562 14.3128 14.1059 14.2308 14.6926L13.7965 17.8045L10.4993 15.0744C10.1787 14.8091 9.72122 14.8374 9.47733 15.1376C9.23354 15.4378 9.29555 15.8966 9.61607 16.162L13.4609 19.3453C13.496 19.3743 13.5328 19.3993 13.5707 19.4213L13.071 23.0093C12.2498 23.325 11.3596 23.5 10.4286 23.5C6.32588 23.5 3 20.1421 3 16C3 11.8579 6.32588 8.5 10.4286 8.5C10.4286 4.35786 13.7545 1 17.8571 1Z" fill="currentColor"/>
</svg>
