<svg viewBox="0 0 32 32" fill="none" xmlns="http://www.w3.org/2000/svg">
<path d="M20.3747 21.5032C20.2576 21.401 20.1908 21.2662 20.1874 21.1253C20.1881 20.9879 20.2536 20.8562 20.37 20.7584C20.4864 20.6607 20.6443 20.6047 20.8099 20.6025H24.4715C24.6393 20.6025 24.8002 20.5472 24.9189 20.4488C25.0375 20.3504 25.1042 20.2169 25.1042 20.0777C25.0996 19.9355 25.0278 19.8005 24.9042 19.7019L19.4688 15.1841C19.3725 15.0816 19.3168 14.9569 19.3093 14.8272C19.3093 14.7583 19.3257 14.6902 19.3575 14.6266C19.3894 14.5631 19.436 14.5054 19.4948 14.4568C19.5536 14.4082 19.6233 14.3698 19.7001 14.3436C19.7768 14.3175 19.859 14.3041 19.942 14.3044H22.8343C23.0023 14.3039 23.1632 14.2481 23.2818 14.1493C23.4004 14.0506 23.4669 13.9169 23.4669 13.7775C23.4665 13.7075 23.449 13.6383 23.4156 13.5741C23.3821 13.5099 23.3333 13.4519 23.2721 13.4038L17.8543 8.91744L17.8189 8.88805C17.7135 8.78951 17.6542 8.66287 17.6519 8.53115C17.6519 8.39268 17.7178 8.25982 17.8354 8.16151C17.9529 8.0632 18.1125 8.00742 18.2794 8.00631H20.4708C20.6386 8.00631 20.7995 7.95101 20.9182 7.85259C21.0368 7.75416 21.1035 7.62066 21.1035 7.48147C21.0998 7.35293 21.0384 7.23017 20.9314 7.13717H20.9466L16.002 2.20785C15.9712 2.17363 15.9355 2.14261 15.8957 2.11548C15.7825 2.03989 15.6412 1.9991 15.4959 2.00002C15.3506 1.9991 15.2093 2.03989 15.0961 2.11548C15.0563 2.14261 15.0206 2.17363 14.9898 2.20785L10.0604 7.13717C9.95339 7.23017 9.89203 7.35293 9.88833 7.48147C9.88833 7.62066 9.95498 7.75416 10.0736 7.85259C10.1923 7.95101 10.3532 8.00631 10.521 8.00631H12.7124C12.8406 7.99568 12.9696 8.01902 13.0808 8.07299C13.1921 8.12697 13.2799 8.20879 13.3316 8.30673C13.3833 8.40466 13.3963 8.51367 13.3687 8.61811C13.3411 8.72255 13.2743 8.81705 13.178 8.88805L13.1425 8.91744L7.72983 13.4038C7.66864 13.4519 7.61983 13.5099 7.58635 13.5741C7.55286 13.6383 7.53539 13.7075 7.53498 13.7775C7.53495 13.9154 7.60012 14.0479 7.71652 14.1464C7.83291 14.2449 7.99123 14.3017 8.15748 14.3044H11.0549C11.1378 14.3041 11.2201 14.3175 11.2968 14.3436C11.3735 14.3698 11.4433 14.4082 11.5021 14.4568C11.5608 14.5054 11.6075 14.5631 11.6393 14.6266C11.6711 14.6902 11.6875 14.7583 11.6875 14.8272C11.68 14.9569 11.6243 15.0816 11.5281 15.1841L6.08754 19.7019C5.96122 19.7995 5.88661 19.9346 5.88004 20.0777C5.88004 20.2169 5.94669 20.3504 6.06533 20.4488C6.18397 20.5472 6.34488 20.6025 6.51266 20.6025H10.1819C10.3483 20.6036 10.5076 20.6591 10.625 20.757C10.7425 20.8548 10.8088 20.9872 10.8094 21.1253C10.806 21.2662 10.7393 21.401 10.6222 21.5032L5.20693 25.979L5.18416 25.9979C5.12578 26.0463 5.07946 26.1037 5.04786 26.1669C5.01627 26.2301 5 26.2979 5 26.3663C5 26.4348 5.01627 26.5026 5.04786 26.5658C5.07946 26.629 5.12578 26.6864 5.18416 26.7348C5.24316 26.786 5.31378 26.827 5.39195 26.8554C5.47012 26.8839 5.5543 26.8992 5.63964 26.9006H14.2306V29.5H16.7611V26.9006H25.342C25.5133 26.8991 25.6773 26.8428 25.7999 26.7435C25.9224 26.6442 25.9941 26.5094 25.9999 26.3674C26.001 26.2987 25.9857 26.2305 25.9549 26.1667C25.9241 26.1029 25.8783 26.0448 25.8203 25.9958L20.3747 21.5032Z" fill="currentColor"/>
</svg>
