<svg viewBox="0 0 32 32" fill="none" xmlns="http://www.w3.org/2000/svg">
<g clip-path="url(#clip0_154_71)">
<path d="M1.99998 3.37502V26.813L6.93798 19.125L16.438 25.375L24.063 9.62502L32.001 28.625H0.000976562V3.37502H1.99998ZM14.813 3.37502C16.4796 3.37502 17.8546 3.95836 18.938 5.12502C20.1046 6.20836 20.688 7.58336 20.688 9.25002C20.688 10.8754 20.1046 12.2607 18.938 13.406C17.7713 14.5514 16.3753 15.145 14.75 15.187C13.5 15.187 12.354 14.791 11.312 13.999L7.18698 18.124C7.02031 18.374 6.72864 18.4574 6.31198 18.374C5.97864 18.2907 5.77031 18.0824 5.68698 17.749C5.60364 17.4157 5.68698 17.124 5.93698 16.874L10.062 12.749C9.31198 11.749 8.93698 10.603 8.93698 9.31102C8.93698 7.68569 9.50998 6.30036 10.656 5.15502C11.802 4.00969 13.1873 3.41602 14.812 3.37402L14.813 3.37502ZM14.75 4.50002C13.4166 4.54202 12.2813 5.03169 11.344 5.96902C10.4066 6.90636 9.93798 8.04169 9.93798 9.37502C9.85464 10.625 10.313 11.75 11.313 12.75C12.1883 13.7087 13.3133 14.188 14.688 14.188C16.0213 14.146 17.1566 13.6564 18.094 12.719C19.0313 11.7817 19.521 10.6464 19.563 9.31302C19.563 7.93769 19.0836 6.81269 18.125 5.93802C17.2496 4.97936 16.1246 4.50002 14.75 4.50002Z" fill="currentColor"/>
</g>
<defs>
<clipPath id="clip0_154_71">
<rect width="32" height="32" fill="white"/>
</clipPath>
</defs>
</svg>
