<svg viewBox="0 0 32 32" fill="none" xmlns="http://www.w3.org/2000/svg">
<path d="M10.318 25.1251C10.318 24.5418 10.0887 24.0208 9.63 23.5621C9.21333 23.1034 8.67167 22.8741 8.005 22.8741C7.37967 22.8741 6.85867 23.1034 6.442 23.5621C5.98333 23.9788 5.754 24.4998 5.754 25.1251C5.754 25.7918 5.98333 26.3334 6.442 26.7501C6.90067 27.2088 7.42167 27.4381 8.005 27.4381C8.63033 27.4381 9.172 27.2088 9.63 26.7501C10.088 26.2914 10.3173 25.7498 10.318 25.1251ZM3.443 16.0001H10.318V11.4371H7.505C7.37967 11.4371 7.23367 11.4788 7.067 11.5621L3.629 15.0621C3.50367 15.1874 3.441 15.3124 3.441 15.4371V16.0001H3.443ZM26.318 25.1251C26.318 24.5418 26.0887 24.0208 25.63 23.5621C25.2133 23.1034 24.6717 22.8741 24.005 22.8741C23.3797 22.8741 22.8587 23.1034 22.442 23.5621C21.9833 23.9788 21.754 24.4998 21.754 25.1251C21.754 25.7918 21.9833 26.3334 22.442 26.7501C22.9007 27.2088 23.4217 27.4381 24.005 27.4381C24.6303 27.4381 25.172 27.2088 25.63 26.7501C26.088 26.2914 26.3173 25.7498 26.318 25.1251ZM30.88 5.68809V24.0011C30.88 24.2098 30.859 24.3764 30.817 24.5011C30.7337 24.6678 30.6503 24.7721 30.567 24.8141C30.525 24.8561 30.473 24.8978 30.411 24.9391C30.349 24.9804 30.297 25.0014 30.255 25.0021C30.1717 25.0854 30.0467 25.1271 29.88 25.1271H29.442C29.4 25.1691 29.254 25.1691 29.004 25.1271H28.566C28.566 26.4191 28.1283 27.5024 27.253 28.3771C26.3777 29.2518 25.2943 29.6894 24.003 29.6901C22.753 29.6901 21.6903 29.2524 20.815 28.3771C19.8983 27.5018 19.44 26.4184 19.44 25.1271H12.565C12.565 26.4191 12.1273 27.5024 11.252 28.3771C10.3767 29.2518 9.29333 29.6894 8.002 29.6901C6.752 29.6901 5.68933 29.2524 4.814 28.3771C3.89733 27.5018 3.439 26.4184 3.439 25.1271H2.314C2.272 25.1271 2.23033 25.1481 2.189 25.1901C2.06367 25.2321 1.95933 25.2531 1.876 25.2531C1.66733 25.3364 1.52133 25.3364 1.438 25.2531C1.396 25.2111 1.271 25.1901 1.063 25.1901C0.854333 25.2734 0.708333 25.2318 0.625 25.0651C0.583 25.0231 0.478667 24.9604 0.312 24.8771C0.228667 24.8771 0.145333 24.7728 0.062 24.5641C0.062 24.4808 0.0516667 24.3871 0.031 24.2831C0.0103334 24.1791 0 24.1061 0 24.0641C0 23.7721 0.125 23.5011 0.375 23.2511C0.583667 23.0424 0.854667 22.9381 1.188 22.9381V17.2501C1.188 17.0414 1.167 16.8331 1.125 16.6251V15.9371C1.167 15.8538 1.188 15.6454 1.188 15.3121C1.188 15.2288 1.19833 15.1141 1.219 14.9681C1.23967 14.8221 1.271 14.7074 1.313 14.6241L1.563 14.1241C1.68833 13.8741 1.81333 13.6864 1.938 13.5611L5.501 9.99809C5.83433 9.74809 6.126 9.56043 6.376 9.43509C6.75133 9.30976 7.10567 9.24709 7.439 9.24709H10.314V5.80909C10.314 5.47576 10.4183 5.20476 10.627 4.99609C10.877 4.74609 11.148 4.62109 11.44 4.62109H29.753C30.045 4.62109 30.316 4.74609 30.566 4.99609C30.7747 5.20476 30.879 5.47576 30.879 5.80909V5.68409L30.88 5.68809Z" fill="currentColor"/>
</svg>
