<svg viewBox="0 0 32 32" fill="none" xmlns="http://www.w3.org/2000/svg">
<path d="M29.688 16C29.688 17.9587 29.3337 19.7297 28.625 21.313C27.7917 23.1464 26.8123 24.6047 25.687 25.688C24.6037 26.8134 23.1453 27.7927 21.312 28.626C19.7287 29.3347 17.9577 29.689 15.999 29.689C13.8323 29.689 11.8947 29.2724 10.186 28.439C8.39401 27.6057 6.81068 26.3764 5.43601 24.751C5.35268 24.5844 5.31101 24.4594 5.31101 24.376C5.31101 24.2507 5.37368 24.1257 5.49901 24.001L7.93701 21.563C8.06235 21.4377 8.20834 21.375 8.37501 21.375C8.41701 21.375 8.56301 21.4377 8.81301 21.563C9.60501 22.7297 10.6677 23.6047 12.001 24.188C13.251 24.8134 14.5843 25.126 16.001 25.126C17.2097 25.126 18.3973 24.8967 19.564 24.438C20.7307 23.938 21.689 23.2714 22.439 22.438C23.2723 21.688 23.939 20.7297 24.439 19.563C24.8977 18.3964 25.127 17.2087 25.127 16C25.127 14.7914 24.8977 13.6037 24.439 12.437C23.939 11.2704 23.2723 10.312 22.439 9.56204C21.689 8.7287 20.7307 8.06203 19.564 7.56203C18.3973 7.10337 17.2097 6.87403 16.001 6.87403C14.751 6.87403 13.626 7.08237 12.626 7.49903C11.5007 7.9577 10.563 8.56204 9.81301 9.31204L12.251 11.75C12.6263 12.1254 12.7097 12.542 12.501 13C12.251 13.4587 11.8967 13.688 11.438 13.688H3.43801C3.10468 13.688 2.83368 13.5837 2.62501 13.375C2.41635 13.1664 2.31201 12.8954 2.31201 12.562V4.56203C2.31201 4.10337 2.54135 3.74904 3.00001 3.49904C3.45868 3.29037 3.87535 3.3737 4.25001 3.74904L6.56301 6.06203C7.77168 4.89537 9.23001 3.9577 10.938 3.24904C12.5633 2.6237 14.251 2.31104 16.001 2.31104C17.9597 2.31104 19.7307 2.66537 21.314 3.37404C23.1473 4.20737 24.6057 5.1867 25.689 6.31203C26.8143 7.39537 27.7937 8.8537 28.627 10.687C29.3357 12.2704 29.69 14.0414 29.69 16H29.688Z" fill="currentColor"/>
</svg>
