<svg viewBox="0 0 32 32" fill="none" xmlns="http://www.w3.org/2000/svg">
<path d="M5.33335 25.3334H26.6667V16.0001H29.3334V26.6667C29.3334 27.0204 29.1929 27.3595 28.9428 27.6096C28.6928 27.8596 28.3536 28.0001 28 28.0001H4.00002C3.6464 28.0001 3.30726 27.8596 3.05721 27.6096C2.80716 27.3595 2.66669 27.0204 2.66669 26.6667V16.0001H5.33335V25.3334ZM18.6667 12.0001V20.0001H13.3334V12.0001H7.87379C7.42834 12.0001 7.20526 11.4615 7.52024 11.1465L15.2929 3.37385C15.6834 2.98333 16.3166 2.98333 16.7071 3.37385L24.4798 11.1465C24.7948 11.4615 24.5717 12.0001 24.1262 12.0001H18.6667Z" fill="currentColor"/>
</svg>
