<svg viewBox="0 0 32 32" fill="none" xmlns="http://www.w3.org/2000/svg">
<path d="M30.75 18.438L25.562 15.938C26.9373 15.1047 27.625 13.792 27.625 12C27.625 10.75 27.25 9.68738 26.5 8.81205C25.75 7.93671 24.8333 7.49905 23.75 7.49905C23 7.49905 22.3333 7.72838 21.75 8.18705C22.1253 9.06238 22.313 10.0207 22.313 11.062C22.313 12.6454 21.8963 14.0414 21.063 15.25C21.313 15.5834 21.6256 15.8334 22.001 16L25.314 17.563C26.356 18.105 26.877 18.9594 26.877 20.126V24.501H30.44C30.6486 24.501 30.8466 24.4074 31.034 24.22C31.2213 24.0327 31.315 23.793 31.315 23.501V19.376C31.315 18.9174 31.1273 18.6047 30.752 18.438H30.75ZM10.125 15.938C10.4583 15.688 10.7083 15.4797 10.875 15.313C9.99964 14.021 9.56197 12.6044 9.56197 11.063C9.56197 10.063 9.77031 9.08371 10.187 8.12505C9.47831 7.70838 8.83231 7.50005 8.24897 7.50005C7.16564 7.50005 6.24897 7.93771 5.49897 8.81305C4.74897 9.68838 4.37397 10.751 4.37397 12.001C4.37397 13.8344 5.08231 15.1677 6.49897 16.001L1.24897 18.439C0.873641 18.6057 0.685974 18.9184 0.685974 19.377V23.502C0.685974 23.794 0.779641 24.0337 0.966974 24.221C1.15431 24.4084 1.35231 24.502 1.56097 24.502H4.99897V20.127C4.99897 18.877 5.54064 18.0227 6.62397 17.564L10.125 15.938ZM24.625 19L20.125 16.875L18.187 15.937C19.0623 15.437 19.729 14.666 20.187 13.624C20.5623 12.7074 20.75 11.853 20.75 11.061C20.75 10.6444 20.6666 10.1444 20.5 9.56105C20.208 8.35238 19.6453 7.37305 18.812 6.62305C17.9786 5.87305 17.0203 5.49805 15.937 5.49805C14.895 5.49805 13.9573 5.86271 13.124 6.59205C12.2906 7.32138 11.7073 8.26938 11.374 9.43605C11.2486 9.93605 11.186 10.4777 11.186 11.061C11.186 12.103 11.3943 13.0197 11.811 13.811C12.311 14.7697 12.957 15.499 13.749 15.999L11.936 16.812L7.24797 19C6.83131 19.2087 6.62297 19.5837 6.62297 20.125V25.25C6.62297 26.0834 6.97731 26.5 7.68597 26.5H24.186C24.478 26.5 24.7383 26.375 24.967 26.125C25.1956 25.875 25.3103 25.5834 25.311 25.25V20.125C25.311 19.625 25.0816 19.25 24.623 19H24.625Z" fill="currentColor"/>
</svg>
