<svg viewBox="0 0 32 32" fill="none" xmlns="http://www.w3.org/2000/svg">
<path d="M26.0311 19.4001L20.8981 16.9619L18.7165 15.9353C19.6576 15.3789 20.4063 14.5018 20.9627 13.3041C21.3905 12.32 21.6044 11.3361 21.6044 10.3526C21.6044 9.71067 21.5188 9.13303 21.3477 8.61973C21.0055 7.29335 20.3639 6.1918 19.4228 5.31508C18.4818 4.43836 17.3908 4 16.15 4C14.9523 4 13.8723 4.41714 12.91 5.25143C11.9478 6.08572 11.2955 7.16571 10.9533 8.4914C10.7822 9.26136 10.6967 9.88177 10.6967 10.3526C10.6967 11.4224 10.9321 12.4705 11.403 13.4971C11.9594 14.6093 12.7081 15.4436 13.6492 16L11.596 16.963L6.26995 19.4011C5.75665 19.7009 5.5 20.1502 5.5 20.7491V26.5884C5.5 26.9737 5.61772 27.3053 5.85315 27.5832C6.08859 27.8611 6.37741 28 6.71961 28H25.5835C25.9257 28 26.2145 27.8611 26.45 27.5832C26.6854 27.3053 26.8031 26.9737 26.8031 26.5884V20.7491C26.8031 20.1071 26.5465 19.6578 26.0332 19.4011L26.0311 19.4001Z" fill="currentColor"/>
</svg>
