<svg viewBox="0 0 32 32" fill="none" xmlns="http://www.w3.org/2000/svg">
<path d="M12.938 15.938C13.2713 15.688 13.5423 15.4587 13.751 15.25C12.8343 13.958 12.376 12.458 12.376 10.75C12.376 9.58335 12.5843 8.52068 13.001 7.56201C12.2923 7.14535 11.6047 6.93701 10.938 6.93701C9.81267 6.93701 8.844 7.40568 8.032 8.34301C7.22 9.28035 6.81367 10.4157 6.813 11.749C6.813 13.6657 7.563 15.0823 9.063 15.999L3.438 18.562C3.06267 18.7707 2.875 19.104 2.875 19.562V24C2.875 24.292 2.96867 24.542 3.156 24.75C3.34333 24.958 3.562 25.0623 3.812 25.063H7.5V20.438C7.5 19.146 8.06267 18.2293 9.188 17.688L12.938 15.938ZM28.438 19.188L23.625 16.938L21.562 15.938C22.4787 15.3547 23.1663 14.542 23.625 13.5C24.0417 12.5413 24.25 11.6247 24.25 10.75C24.25 10.6667 24.1873 10.125 24.062 9.12501C23.7287 7.87501 23.114 6.84368 22.218 6.03101C21.322 5.21835 20.2907 4.81201 19.124 4.81201C17.9987 4.81201 16.9987 5.20801 16.124 6.00001C15.2493 6.79201 14.645 7.79201 14.311 9.00001C14.1443 9.50001 14.061 10.0833 14.061 10.75C14.061 11.75 14.2903 12.7083 14.749 13.625C15.1657 14.5837 15.8533 15.3753 16.812 16L14.874 16.875L9.874 19.188C9.41533 19.3967 9.186 19.8133 9.186 20.438V25.876C9.186 26.2513 9.29033 26.564 9.499 26.814C9.70767 27.064 9.97867 27.189 10.312 27.189H28C28.3333 27.189 28.6043 27.064 28.813 26.814C29.0217 26.564 29.126 26.2513 29.126 25.876V20.438C29.126 19.896 28.8967 19.4793 28.438 19.188Z" fill="currentColor"/>
</svg>
