<svg viewBox="0 0 32 32" fill="none" xmlns="http://www.w3.org/2000/svg">
<path d="M25.9161 22.1569L25.9815 24.1667C23.5617 27.1485 20.256 28.6394 16.0643 28.6394C14.0766 28.6394 12.3807 28.3694 10.9766 27.8295C9.57244 27.2895 8.09259 26.22 6.53704 24.6209V22.1579C6.53704 21.6394 6.77486 21.2287 7.25052 20.9259L12.1121 18.7222L13.927 17.8791C13.1056 17.3606 12.4357 16.6042 11.9172 15.6101C11.4851 14.6159 11.269 13.6435 11.269 12.6929C11.269 12.2608 11.3555 11.6991 11.5283 11.0077C11.874 9.79783 12.4682 8.81472 13.311 8.05837C14.1537 7.30202 15.1368 6.92385 16.2603 6.92385C17.3838 6.92385 18.3669 7.32346 19.2096 8.12267C20.0524 8.92188 20.6248 9.92642 20.927 11.1363C21.0998 11.612 21.1862 12.1305 21.1862 12.6919C21.1862 13.5132 20.9916 14.4206 20.6024 15.4141C20.0839 16.4947 19.4139 17.2942 18.5926 17.8127L20.537 18.7201L25.2037 20.9239C25.6794 21.1831 25.9172 21.5938 25.9172 22.1559L25.9161 22.1569ZM16 2C12.154 2 8.85931 3.372 6.116 6.116C3.37269 8.86 2.00069 12.1547 2 16C1.99931 19.8453 3.37131 23.14 6.116 25.884C8.86069 28.628 12.1554 30 16 30C19.8446 30 23.1393 28.628 25.884 25.884C28.6287 23.14 30.0007 19.8453 30 16C29.9993 12.1547 28.6273 8.86 25.884 6.116C23.1407 3.372 19.846 2 16 2Z" fill="currentColor"/>
</svg>
