<svg viewBox="0 0 32 32" fill="none" xmlns="http://www.w3.org/2000/svg">
<path d="M16 2C12.1391 2 8.84048 3.3681 6.10429 6.10429C3.3681 8.84048 2 12.1391 2 16C2 19.8609 3.3681 23.1595 6.10429 25.8957C8.84048 28.6319 12.1391 30 16 30C19.8609 30 23.1595 28.6319 25.8957 25.8957C28.6319 23.1595 30 19.8609 30 16C30 12.1391 28.6319 8.84048 25.8957 6.10429C23.1595 3.3681 19.8609 2 16 2ZM16 5.05455C19.0125 5.05455 21.5898 6.12567 23.7321 8.26793C25.8743 10.4102 26.9455 12.9875 26.9455 16C26.9455 19.0125 25.8743 21.5898 23.7321 23.7321C21.5898 25.8743 19.0125 26.9455 16 26.9455C12.9875 26.9455 10.4102 25.8743 8.26793 23.7321C6.12567 21.5898 5.05455 19.0125 5.05455 16C5.05455 12.9875 6.12567 10.4102 8.26793 8.26793C10.4102 6.12567 12.9875 5.05455 16 5.05455Z" fill="currentColor"/>
<path d="M15.999 8C17.0472 8.00008 17.9687 8.36537 18.7637 9.0957C19.5588 9.82628 20.1015 10.7444 20.3906 11.8496C20.5352 12.2774 20.6074 12.759 20.6074 13.2939C20.6074 14.1135 20.4268 14.9338 20.0654 15.7539C19.5953 16.7518 18.9621 17.4827 18.167 17.9463L20.0107 18.8018L24.3477 20.833L24.3496 20.834C24.7833 21.0479 25 21.423 25 21.958V22.3203C23.0095 25.1495 19.722 27 16 27C12.278 27 8.99045 25.1495 7 22.3203V21.958C7 21.459 7.21668 21.0838 7.65039 20.834L12.1504 18.8027L13.8857 18C13.0906 17.5363 12.4575 16.8409 11.9873 15.9141C11.5896 15.0587 11.3906 14.1852 11.3906 13.2939C11.3906 12.9016 11.4629 12.3846 11.6074 11.7432C11.8965 10.6385 12.4478 9.73818 13.2607 9.04297C14.0738 8.34773 14.987 8 15.999 8Z" fill="currentColor"/>
</svg>
