<svg viewBox="0 0 32 32" fill="none" xmlns="http://www.w3.org/2000/svg">
<path d="M21.3334 5.33325C21.687 5.33325 22.0261 5.47373 22.2762 5.72378C22.5262 5.97383 22.6667 6.31296 22.6667 6.66659V12.2666L29.6174 7.39992C29.7173 7.32986 29.8346 7.28858 29.9564 7.28059C30.0782 7.27259 30.1998 7.29819 30.3081 7.35458C30.4163 7.41097 30.507 7.496 30.5702 7.60039C30.6335 7.70478 30.6668 7.82453 30.6667 7.94659V24.0533C30.6668 24.1753 30.6335 24.2951 30.5702 24.3995C30.507 24.5038 30.4163 24.5889 30.3081 24.6453C30.1998 24.7017 30.0782 24.7272 29.9564 24.7193C29.8346 24.7113 29.7173 24.67 29.6174 24.5999L22.6667 19.7333V25.3333C22.6667 25.6869 22.5262 26.026 22.2762 26.2761C22.0261 26.5261 21.687 26.6666 21.3334 26.6666H2.66671C2.31309 26.6666 1.97395 26.5261 1.7239 26.2761C1.47385 26.026 1.33337 25.6869 1.33337 25.3333V6.66659C1.33337 6.31296 1.47385 5.97383 1.7239 5.72378C1.97395 5.47373 2.31309 5.33325 2.66671 5.33325H21.3334ZM20 7.99992H4.00004V23.9999H20V7.99992ZM9.86671 11.7719C9.96818 11.7716 10.0676 11.8003 10.1534 11.8546L15.96 15.5506C16.0355 15.5988 16.0975 15.6653 16.1405 15.7438C16.1835 15.8223 16.2061 15.9104 16.2061 15.9999C16.2061 16.0894 16.1835 16.1775 16.1405 16.2561C16.0975 16.3346 16.0355 16.401 15.96 16.4493L10.1534 20.1466C10.0725 20.1981 9.97922 20.2269 9.88335 20.2299C9.78749 20.2329 9.69259 20.21 9.60865 20.1636C9.52472 20.1172 9.45485 20.049 9.4064 19.9662C9.35795 19.8835 9.33273 19.7892 9.33337 19.6933V12.3066C9.33337 12.0119 9.57337 11.7733 9.86671 11.7733V11.7719ZM28 11.7866L22.6667 15.5199V16.4773L28 20.2106V11.7866Z" fill="currentColor"/>
</svg>
