<svg viewBox="0 0 32 32" fill="none" xmlns="http://www.w3.org/2000/svg">
<path d="M21.3334 5.33325C21.687 5.33325 22.0261 5.47373 22.2762 5.72378C22.5262 5.97383 22.6667 6.31296 22.6667 6.66659V12.2666L29.6174 7.39992C29.7173 7.32986 29.8346 7.28858 29.9564 7.28059C30.0782 7.27259 30.1998 7.29819 30.3081 7.35458C30.4163 7.41097 30.507 7.496 30.5702 7.60039C30.6335 7.70478 30.6668 7.82453 30.6667 7.94659V24.0533C30.6668 24.1753 30.6335 24.2951 30.5702 24.3995C30.507 24.5038 30.4163 24.5889 30.3081 24.6453C30.1998 24.7017 30.0782 24.7272 29.9564 24.7193C29.8346 24.7113 29.7173 24.67 29.6174 24.5999L22.6667 19.7333V25.3333C22.6667 25.6869 22.5262 26.026 22.2762 26.2761C22.0261 26.5261 21.687 26.6666 21.3334 26.6666H2.66671C2.31309 26.6666 1.97395 26.5261 1.7239 26.2761C1.47385 26.026 1.33337 25.6869 1.33337 25.3333V6.66659C1.33337 6.31296 1.47385 5.97383 1.7239 5.72378C1.97395 5.47373 2.31309 5.33325 2.66671 5.33325H21.3334ZM9.86671 11.7719C9.74376 11.7719 9.62458 11.8143 9.52933 11.8921C9.43409 11.9698 9.36863 12.0781 9.34404 12.1986L9.33337 12.3039V19.6933C9.33336 19.7796 9.35433 19.8647 9.39447 19.9412C9.4346 20.0177 9.49272 20.0832 9.5638 20.1323C9.63489 20.1813 9.71683 20.2124 9.80257 20.2228C9.88831 20.2332 9.9753 20.2226 10.056 20.1919L10.1534 20.1439L15.96 16.4479C16.0278 16.4046 16.0849 16.3465 16.127 16.2779C16.1691 16.2094 16.1952 16.1323 16.2033 16.0522C16.2113 15.9722 16.2012 15.8914 16.1736 15.8158C16.1461 15.7403 16.1018 15.6719 16.044 15.6159L15.96 15.5493L10.1534 11.8533C10.0673 11.7999 9.96792 11.7722 9.86671 11.7733V11.7719Z" fill="currentColor"/>
</svg>
