<svg viewBox="0 0 32 32" fill="none" xmlns="http://www.w3.org/2000/svg">
<path d="M6.49733 4H25.5027C25.713 3.99997 25.9205 4.04973 26.1079 4.1452C26.2954 4.24068 26.4576 4.37916 26.5813 4.54933L31.6787 11.5573C31.7693 11.682 31.8139 11.8343 31.8049 11.9882C31.7959 12.142 31.7339 12.288 31.6293 12.4013L16.4893 28.8027C16.4269 28.8701 16.3512 28.9239 16.267 28.9608C16.1828 28.9976 16.0919 29.0166 16 29.0166C15.9081 29.0166 15.8172 28.9976 15.733 28.9608C15.6488 28.9239 15.5731 28.8701 15.5107 28.8027L0.370664 12.4027C0.265799 12.2893 0.203551 12.143 0.194553 11.9888C0.185556 11.8347 0.230366 11.6821 0.321331 11.5573L5.41866 4.54933C5.54237 4.37916 5.70459 4.24068 5.89206 4.1452C6.07954 4.04973 6.28695 3.99997 6.49733 4Z" fill="currentColor"/>
</svg>
