<svg viewBox="0 0 32 32" fill="none" xmlns="http://www.w3.org/2000/svg">
<path d="M6.49734 4H25.5027C25.7131 3.99997 25.9205 4.04973 26.1079 4.1452C26.2954 4.24068 26.4576 4.37916 26.5813 4.54933L31.6787 11.5573C31.7693 11.682 31.8139 11.8343 31.8049 11.9882C31.7959 12.142 31.7339 12.288 31.6293 12.4013L16.4893 28.8027C16.3694 28.9323 16.2029 29.0091 16.0264 29.0161C15.8499 29.0231 15.6778 28.9597 15.548 28.84C15.5387 28.832 10.4813 23.3533 0.370671 12.4013C0.266142 12.288 0.204101 12.142 0.195106 11.9882C0.186112 11.8343 0.230719 11.682 0.321337 11.5573L5.41867 4.54933C5.54238 4.37916 5.7046 4.24068 5.89207 4.1452C6.07955 4.04973 6.28695 3.99997 6.49734 4ZM7.17734 6.66667L3.444 11.8L16 25.4L28.556 11.8L24.8227 6.66667H7.17734Z" fill="currentColor"/>
</svg>
