<svg viewBox="0 0 32 32" fill="none" xmlns="http://www.w3.org/2000/svg">
<path d="M22.875 6.31305V25.688C22.875 26.0634 22.75 26.3344 22.5 26.501C22.3334 26.751 22.0624 26.876 21.687 26.876C21.395 26.876 21.145 26.751 20.937 26.501L14.937 20.563H10.312C9.97869 20.563 9.70769 20.4587 9.49902 20.25C9.24902 20 9.12402 19.729 9.12402 19.437V12.562C9.12402 12.27 9.24902 11.999 9.49902 11.749C9.70769 11.5404 9.97869 11.436 10.312 11.436H14.937L20.937 5.49805C21.1457 5.24805 21.3957 5.12305 21.687 5.12305C22.0624 5.12305 22.3334 5.24805 22.5 5.49805C22.75 5.70671 22.875 5.97771 22.875 6.31105V6.31305Z" fill="currentColor"/>
</svg>
