<svg viewBox="0 0 32 32" fill="none" xmlns="http://www.w3.org/2000/svg">
<path d="M17.875 25.688C17.875 26.0634 17.75 26.3344 17.5 26.501C17.3334 26.751 17.0624 26.876 16.687 26.876C16.395 26.876 16.145 26.751 15.937 26.501L9.93702 20.563H5.31202C4.97869 20.563 4.70769 20.4587 4.49902 20.25C4.24902 20 4.12402 19.729 4.12402 19.437V12.562C4.12402 12.27 4.24902 11.999 4.49902 11.749C4.70769 11.5404 4.97869 11.436 5.31202 11.436H9.93702L15.937 5.49805C16.1457 5.24805 16.3957 5.12305 16.687 5.12305C17.0624 5.12305 17.3334 5.24805 17.5 5.49805C17.75 5.70671 17.875 5.97771 17.875 6.31105V25.688Z" fill="currentColor"/>
<path d="M30 12.6406L26.6406 16L30 19.3594L28.3594 21L25 17.6406L21.6406 21L20 19.3594L23.3594 16L20 12.6406L21.6406 11L25 14.3594L28.3594 11L30 12.6406Z" fill="currentColor"/>
</svg>
