<svg viewBox="0 0 32 32" fill="none" xmlns="http://www.w3.org/2000/svg">
<path d="M14.875 6.31289V25.6879C14.875 26.0632 14.75 26.3342 14.5 26.5009C14.3333 26.7509 14.0623 26.8759 13.687 26.8759C13.395 26.8759 13.145 26.7509 12.937 26.5009L6.93699 20.5629H2.31199C1.97866 20.5629 1.70766 20.4586 1.49899 20.2499C1.24899 19.9999 1.12399 19.7289 1.12399 19.4369V12.5619C1.12399 12.2699 1.24899 11.9989 1.49899 11.7489C1.70766 11.5402 1.97866 11.4359 2.31199 11.4359H6.93699L12.937 5.49788C13.1457 5.24788 13.3957 5.12288 13.687 5.12288C14.0623 5.12288 14.3333 5.24788 14.5 5.49788C14.75 5.70655 14.875 5.97755 14.875 6.31088V6.31289ZM21.688 15.9999C21.688 16.9166 21.438 17.7499 20.938 18.4999C20.438 19.2919 19.7713 19.8546 18.938 20.1879C18.7713 20.2712 18.6253 20.3129 18.5 20.3129C18.208 20.3129 17.937 20.1879 17.687 19.9379C17.4783 19.7292 17.374 19.4582 17.374 19.1249C17.374 18.8749 17.4367 18.6666 17.562 18.4999C17.6453 18.3746 17.812 18.2286 18.062 18.0619C18.312 17.9366 18.5203 17.7906 18.687 17.6239C18.8957 17.4572 19.0623 17.2489 19.187 16.9989C19.3537 16.7902 19.437 16.4569 19.437 15.9989C19.437 15.5409 19.3537 15.2076 19.187 14.9989C19.0617 14.7489 18.895 14.5406 18.687 14.3739C18.5203 14.2072 18.312 14.0612 18.062 13.9359C17.812 13.7692 17.6453 13.6232 17.562 13.4979C17.4367 13.3312 17.374 13.1229 17.374 12.8729C17.374 12.5396 17.4783 12.2686 17.687 12.0599C17.937 11.8099 18.208 11.6849 18.5 11.6849C18.6253 11.6849 18.7713 11.7266 18.938 11.8099C19.7713 12.1432 20.438 12.6849 20.938 13.4349C21.438 14.2682 21.688 15.1226 21.688 15.9979V15.9999ZM26.313 15.9999C26.313 17.7499 25.792 19.4376 24.75 21.0629C23.75 22.5629 22.4167 23.6879 20.75 24.4379C20.6667 24.4799 20.5207 24.5009 20.312 24.5009C19.9787 24.5009 19.7077 24.3966 19.499 24.1879C19.249 23.9379 19.124 23.6669 19.124 23.3749C19.124 22.9162 19.3533 22.5619 19.812 22.3119C20.5207 21.9366 20.979 21.6656 21.187 21.4989C22.0623 20.8736 22.75 20.0819 23.25 19.1239C23.75 18.1239 24 17.0822 24 15.9989C24 14.9156 23.75 13.8739 23.25 12.8739C22.75 11.9152 22.0623 11.1236 21.187 10.4989C20.9783 10.3322 20.52 10.0612 19.812 9.68588C19.3533 9.43588 19.124 9.08155 19.124 8.62288C19.124 8.33088 19.249 8.05989 19.499 7.80989C19.7077 7.60122 19.9787 7.49689 20.312 7.49689C20.5207 7.49689 20.6667 7.51789 20.75 7.55989C22.4167 8.30989 23.75 9.43489 24.75 10.9349C25.792 12.5602 26.313 14.2479 26.313 15.9979V15.9999ZM30.875 15.9999C30.875 18.7499 30.104 21.2709 28.562 23.5629C27.062 25.8129 25.062 27.5006 22.562 28.6259C22.4367 28.6679 22.27 28.6889 22.062 28.6889C21.77 28.6889 21.52 28.5846 21.312 28.3759C21.062 28.1259 20.937 27.8549 20.937 27.5629C20.937 27.1042 21.1663 26.7499 21.625 26.4999C21.7917 26.4166 21.9377 26.3539 22.063 26.3119C22.2717 26.2699 22.3967 26.2072 22.438 26.1239C22.98 25.7906 23.48 25.4779 23.938 25.1859C25.3547 24.1439 26.4797 22.8106 27.313 21.1859C28.1463 19.6439 28.563 17.9146 28.563 15.9979C28.563 14.0812 28.1463 12.3519 27.313 10.8099C26.4797 9.18455 25.3547 7.85122 23.938 6.80988C23.4793 6.51788 22.9793 6.20522 22.438 5.87189C22.396 5.78855 22.271 5.72588 22.063 5.68388C21.9377 5.64188 21.7917 5.57922 21.625 5.49588C21.1663 5.24588 20.937 4.89155 20.937 4.43288C20.937 4.14088 21.062 3.86988 21.312 3.61988C21.5207 3.41122 21.7707 3.30688 22.062 3.30688C22.2707 3.30688 22.4373 3.32788 22.562 3.36988C25.062 4.49522 27.062 6.18288 28.562 8.43288C30.104 10.7249 30.875 13.2459 30.875 15.9959V15.9999Z" fill="currentColor"/>
</svg>
