<svg viewBox="0 0 32 32" fill="none" xmlns="http://www.w3.org/2000/svg">
<path d="M19.438 6.31305V25.688C19.438 26.0634 19.313 26.3344 19.063 26.501C18.8543 26.751 18.6043 26.876 18.313 26.876C17.9376 26.876 17.6666 26.751 17.5 26.501L11.562 20.563H6.87397C6.54064 20.563 6.26964 20.4587 6.06097 20.25C5.81097 20 5.68597 19.729 5.68597 19.437V12.562C5.68597 12.27 5.81097 11.999 6.06097 11.749C6.26964 11.5404 6.54064 11.436 6.87397 11.436H11.562L17.5 5.49805C17.6666 5.24805 17.9376 5.12305 18.313 5.12305C18.605 5.12305 18.855 5.24805 19.063 5.49805C19.313 5.70671 19.438 5.97771 19.438 6.31105V6.31305ZM26.313 16C26.313 16.9587 26.042 17.792 25.5 18.5C25 19.3334 24.3333 19.896 23.5 20.188C23.3333 20.2714 23.1873 20.313 23.062 20.313C22.77 20.313 22.499 20.188 22.249 19.938C22.0403 19.7294 21.936 19.4584 21.936 19.125C21.936 18.875 21.9986 18.6667 22.124 18.5C22.3326 18.2914 22.5203 18.1454 22.687 18.062C22.937 17.8954 23.1246 17.7494 23.25 17.624C23.4166 17.5407 23.6043 17.3324 23.813 16.999C23.9383 16.749 24.001 16.4157 24.001 15.999C24.001 15.5824 23.9383 15.249 23.813 14.999C23.6043 14.6657 23.4166 14.4574 23.25 14.374C23.1246 14.2487 22.937 14.1027 22.687 13.936C22.5203 13.8527 22.3326 13.7067 22.124 13.498C21.9986 13.3314 21.936 13.123 21.936 12.873C21.936 12.5397 22.0403 12.2687 22.249 12.06C22.499 11.81 22.77 11.685 23.062 11.685C23.1873 11.685 23.3333 11.7267 23.5 11.81C24.292 12.102 24.9586 12.6437 25.5 13.435C26.0413 14.2264 26.3123 15.0807 26.313 15.998V16Z" fill="currentColor"/>
</svg>
