<svg viewBox="0 0 32 32" fill="none" xmlns="http://www.w3.org/2000/svg">
<path d="M6.65593 13.3748C6.70611 13.4786 6.83853 13.5625 6.95114 13.5625C6.95153 13.5625 6.95076 13.5625 6.95114 13.5625C7.06341 13.517 7.1938 13.4764 7.24319 13.3748L8.26658 10.8545L10.7174 9.80285C10.8173 9.75146 10.8983 9.61618 10.8989 9.50131C10.8981 9.38847 10.8191 9.24629 10.7203 9.1955L8.28041 8.1494L8.26065 8.12909L7.24319 5.62555C7.1938 5.52196 7.06341 5.43868 6.95129 5.43766C6.95091 5.43766 6.95168 5.43766 6.95129 5.43766C6.83873 5.43766 6.70602 5.5213 6.65588 5.62504L5.63354 8.14432L3.18176 9.1955C3.0815 9.25136 3 9.3834 3 9.45449C3 9.56956 3.08159 9.70581 3.18186 9.7574L5.63364 10.8086L6.65593 13.3748ZM13.2739 6.20446L13.8873 7.71674C13.9159 7.82491 13.995 7.87518 14.0641 7.87518C14.1333 7.87518 14.2107 7.8247 14.2407 7.7625L14.8544 6.20446L16.3252 5.57375C16.3854 5.54281 16.4344 5.46097 16.4344 5.39196C16.4344 5.32264 16.3854 5.24129 16.3252 5.21036L14.8544 4.62515L14.2419 3.11272C14.2123 3.05042 14.0888 3.00014 14.0641 3.00014C14.0394 3.00014 13.9159 3.05042 13.8863 3.11272L13.2739 4.62515L11.802 5.25586C11.7427 5.28684 11.6933 5.36809 11.6933 5.39196C11.6933 5.46097 11.7423 5.54283 11.8024 5.57375L13.2739 6.20446ZM28.3036 5.43766L26.6282 3.71413C25.7026 2.76197 24.2012 2.76197 23.2756 3.71403L4.40617 23.1148C3.48008 24.0664 3.48008 25.6097 4.40597 26.5618L6.08182 28.2859C7.00741 29.238 8.5089 29.238 9.43449 28.2861L28.3036 8.88574C29.2321 7.93256 29.2321 6.38982 28.3036 5.43766ZM20.8653 12.5115L19.7476 11.3624L24.9534 6.00997L26.0726 7.15916L20.8653 12.5115ZM28.106 22.1956L25.6577 21.146L24.6318 18.6236C24.5795 18.5241 24.4511 18.4378 24.3375 18.4378C24.2248 18.4378 24.093 18.5217 24.0429 18.6254L23.0205 21.1457L20.5687 22.1974C20.4686 22.249 20.3871 22.3843 20.3869 22.4998C20.3871 22.6147 20.4686 22.7515 20.5687 22.803L23.017 23.8527L24.0429 26.375C24.0905 26.4765 24.2239 26.5628 24.3375 26.5628C24.4499 26.5628 24.5816 26.4787 24.6318 26.375L25.6542 23.8547L28.1065 22.803C28.2066 22.7515 28.288 22.6155 28.2882 22.5006C28.2888 22.3835 28.2048 22.2515 28.106 22.1956Z" fill="currentColor"/>
</svg>
