<svg viewBox="0 0 32 32" fill="none" xmlns="http://www.w3.org/2000/svg">
<path fill-rule="evenodd" clip-rule="evenodd" d="M14.3477 4.0199C15.1026 2.66007 16.8975 2.66 17.6523 4.0199L29.7139 25.7601C30.4762 27.135 29.6286 28.8859 28.2012 28.9945L28.0606 29.0004H3.93946L3.79883 28.9945C2.37127 28.886 1.52368 27.135 2.28614 25.7601L14.3477 4.0199ZM4.74122 26.5502H27.2578L16 5.99939L4.74122 26.5502Z" fill="currentColor"/>
<path d="M17.5555 22.6282V24.5538C17.5555 24.6943 17.4954 24.8147 17.375 24.9148C17.2746 25.0352 17.1542 25.0953 17.014 25.0953H14.7875C14.647 25.0953 14.5266 25.0352 14.4265 24.9148C14.3062 24.8144 14.246 24.694 14.246 24.5538V22.6282C14.246 22.4475 14.3062 22.3171 14.4265 22.2369C14.527 22.1165 14.6473 22.0563 14.7875 22.0563H17.014C17.1545 22.0563 17.2749 22.1165 17.375 22.2369C17.4954 22.3171 17.5555 22.4475 17.5555 22.6282ZM17.7962 13.542L17.5555 20.1313C17.5555 20.2917 17.5053 20.4222 17.4049 20.5226C17.2845 20.643 17.154 20.7031 17.0135 20.7031H14.7871C14.6465 20.7031 14.516 20.643 14.3957 20.5226C14.2952 20.4222 14.245 20.2917 14.245 20.1313L14.0043 13.542C13.9841 13.4015 14.0343 13.271 14.155 13.1507C14.2352 13.0502 14.3556 13 14.516 13H17.284C17.4445 13 17.5648 13.0502 17.6451 13.1507C17.7654 13.271 17.8161 13.4015 17.7962 13.542Z" fill="currentColor"/>
</svg>
