<svg viewBox="0 0 32 32" fill="none" xmlns="http://www.w3.org/2000/svg">
<path d="M16 2C12.1413 2 8.84332 3.36866 6.10599 6.10599C3.36866 8.84332 2 12.1413 2 16C2 19.8587 3.36866 23.1567 6.10599 25.894C8.84332 28.6313 12.1413 30 16 30C19.8587 30 23.1567 28.6313 25.894 25.894C28.6313 23.1567 30 19.8587 30 16C30 12.1413 28.6313 8.84332 25.894 6.10599C23.1567 3.36866 19.8587 2 16 2ZM16 28.8542C12.455 28.8542 9.42625 27.5979 6.91362 25.0853C4.40099 22.5727 3.14468 19.5439 3.14468 15.9989C3.14468 12.454 4.40099 9.42517 6.91362 6.91255C9.42625 4.39992 12.455 3.1436 16 3.1436C19.545 3.1436 22.5738 4.39992 25.0864 6.91255C27.599 9.42517 28.8553 12.454 28.8553 15.9989C28.8553 19.5439 27.599 22.5727 25.0864 25.0853C22.5738 27.5979 19.545 28.8542 16 28.8542Z" fill="currentColor"/>
<path d="M16.75 8.45455L16.608 18.9091H14.9602L14.8182 8.45455H16.75ZM15.7841 23.1136C15.4337 23.1136 15.133 22.9882 14.8821 22.7372C14.6312 22.4863 14.5057 22.1856 14.5057 21.8352C14.5057 21.4848 14.6312 21.1842 14.8821 20.9332C15.133 20.6823 15.4337 20.5568 15.7841 20.5568C16.1345 20.5568 16.4351 20.6823 16.6861 20.9332C16.937 21.1842 17.0625 21.4848 17.0625 21.8352C17.0625 22.0672 17.0033 22.2803 16.8849 22.4744C16.7713 22.6686 16.6174 22.8248 16.4233 22.9432C16.2339 23.0568 16.0208 23.1136 15.7841 23.1136Z" fill="currentColor"/>
</svg>
