<svg viewBox="0 0 32 32" fill="none" xmlns="http://www.w3.org/2000/svg">
<path d="M18.0202 24.5117V21.5559C18.0202 21.41 17.9655 21.2821 17.856 21.1723C17.7466 21.0626 17.6191 21.0077 17.4736 21.0077H14.5264C14.3809 21.0077 14.2534 21.0626 14.144 21.1723C14.0345 21.2821 13.9798 21.41 13.9798 21.5559V24.5117C13.9798 24.6576 14.0345 24.7855 14.144 24.8952C14.2895 24.9682 14.417 25.0047 14.5264 25.0047H17.4736C17.583 25.0047 17.7105 24.9682 17.856 24.8952C17.9655 24.7855 18.0202 24.6576 18.0202 24.5117ZM17.9652 18.6545L18.2385 11.4836C18.2385 11.3739 18.1838 11.2644 18.0744 11.1552C17.9649 11.046 17.8374 10.9912 17.6919 10.9906H14.3081C14.1626 10.9906 14.0351 11.0455 13.9257 11.1552C13.8162 11.265 13.7615 11.3745 13.7615 11.4836L14.0348 18.6545C14.0348 18.7275 14.0895 18.8188 14.199 18.9286C14.2717 19.0016 14.3809 19.0381 14.5264 19.0381H17.4194C17.5289 19.0381 17.6564 19.0016 17.8019 18.9286C17.9113 18.8188 17.9652 18.7275 17.9652 18.6545ZM17.7469 4.04042L29.6996 26.0443C30.1001 26.7011 30.1001 27.3579 29.6996 28.0148C29.5902 28.2337 29.3535 28.4891 28.9897 28.7811C28.6986 28.927 28.3528 29 27.9523 29H4.04772C3.6472 29 3.3014 28.927 3.01032 28.7811C2.64648 28.4891 2.40983 28.2337 2.30039 28.0148C1.89987 27.3579 1.89987 26.7011 2.30039 26.0443L14.2531 4.04042C14.3626 3.82148 14.5992 3.56604 14.963 3.27412C15.3269 3.09137 15.6727 3 16.0004 3C16.3282 3 16.674 3.09137 17.0378 3.27412C17.4017 3.56604 17.6374 3.82148 17.7469 4.04042Z" fill="currentColor"/>
</svg>
