<svg viewBox="0 0 32 32" fill="none" xmlns="http://www.w3.org/2000/svg">
<path d="M16 2C12.1391 2 8.84048 3.3681 6.10429 6.10429C3.3681 8.84048 2 12.1391 2 16C2 19.8609 3.3681 23.1595 6.10429 25.8957C8.84048 28.6319 12.1391 30 16 30C19.8609 30 23.1595 28.6319 25.8957 25.8957C28.6319 23.1595 30 19.8609 30 16C30 12.1391 28.6319 8.84048 25.8957 6.10429C23.1595 3.3681 19.8609 2 16 2ZM16 5.05455C19.0125 5.05455 21.5898 6.12567 23.7321 8.26793C25.8743 10.4102 26.9455 12.9875 26.9455 16C26.9455 19.0125 25.8743 21.5898 23.7321 23.7321C21.5898 25.8743 19.0125 26.9455 16 26.9455C12.9875 26.9455 10.4102 25.8743 8.26793 23.7321C6.12567 21.5898 5.05455 19.0125 5.05455 16C5.05455 12.9875 6.12567 10.4102 8.26793 8.26793C10.4102 6.12567 12.9875 5.05455 16 5.05455Z" fill="currentColor"/>
<path d="M18.0202 22.5116V19.5558C18.0202 19.4099 17.9655 19.282 17.856 19.1722C17.7466 19.0625 17.6191 19.0076 17.4736 19.0076H14.5264C14.3809 19.0076 14.2534 19.0625 14.1439 19.1722C14.0345 19.282 13.9798 19.4099 13.9798 19.5558V22.5116C13.9798 22.6575 14.0345 22.7854 14.1439 22.8952C14.2895 22.9681 14.417 23.0046 14.5264 23.0046H17.4736C17.583 23.0046 17.7105 22.9681 17.856 22.8952C17.9655 22.7854 18.0202 22.6575 18.0202 22.5116ZM17.9652 16.6544L18.2385 9.48354C18.2385 9.37378 18.1838 9.2643 18.0743 9.15512C17.9649 9.04594 17.8374 8.99106 17.6919 8.99048H14.3081C14.1626 8.99048 14.0351 9.04536 13.9256 9.15512C13.8162 9.26489 13.7615 9.37436 13.7615 9.48354L14.0348 16.6544C14.0348 16.7274 14.0895 16.8187 14.199 16.9285C14.2717 17.0015 14.3809 17.038 14.5264 17.038H17.4194C17.5289 17.038 17.6564 17.0015 17.8019 16.9285C17.9113 16.8187 17.9652 16.7274 17.9652 16.6544Z" fill="currentColor"/>
</svg>
