<svg viewBox="0 0 32 32" fill="none" xmlns="http://www.w3.org/2000/svg">
<path fill-rule="evenodd" clip-rule="evenodd" d="M16 2C18.6421 2 20.9857 2.61838 23.0312 3.85449C25.1621 5.13298 26.867 6.83793 28.1455 8.96875C29.3816 11.0143 30 13.3579 30 16C30 18.6421 29.3816 20.9857 28.1455 23.0312C26.867 25.1621 25.1621 26.867 23.0312 28.1455C20.9857 29.3816 18.6421 30 16 30C13.3579 30 11.0143 29.3816 8.96875 28.1455C6.83793 26.867 5.13298 25.1621 3.85449 23.0312C2.61838 20.9857 2 18.6421 2 16C2 13.3579 2.61838 11.0143 3.85449 8.96875C5.13298 6.83793 6.83793 5.13298 8.96875 3.85449C11.0143 2.61838 13.3579 2 16 2ZM14.5264 19.0078C14.3809 19.0078 14.253 19.0621 14.1436 19.1719C14.0342 19.2816 13.9795 19.4098 13.9795 19.5557V22.5117C13.9795 22.6576 14.0342 22.7858 14.1436 22.8955C14.2891 22.9685 14.4169 23.0049 14.5264 23.0049H17.4736C17.5831 23.0049 17.7109 22.9685 17.8564 22.8955C17.9658 22.7858 18.0205 22.6576 18.0205 22.5117V19.5557C18.0205 19.4098 17.9658 19.2816 17.8564 19.1719C17.747 19.0621 17.6191 19.0078 17.4736 19.0078H14.5264ZM14.3086 8.99023C14.1631 8.99023 14.0352 9.04551 13.9258 9.15527C13.8164 9.26499 13.7618 9.37427 13.7617 9.4834L14.0352 16.6543C14.0352 16.7273 14.0898 16.8189 14.1992 16.9287C14.272 17.0015 14.381 17.0381 14.5264 17.0381H17.4189C17.5283 17.0381 17.6563 17.0016 17.8018 16.9287C17.9112 16.8189 17.9648 16.7273 17.9648 16.6543L18.2383 9.4834C18.2382 9.37369 18.1836 9.2644 18.0742 9.15527C17.9648 9.04609 17.8369 8.99082 17.6914 8.99023H14.3086Z" fill="currentColor"/>
</svg>
