<svg viewBox="0 0 32 32" fill="none" xmlns="http://www.w3.org/2000/svg">
<path fill-rule="evenodd" clip-rule="evenodd" d="M14.347 4.02032C15.1019 2.65993 16.8979 2.65986 17.6527 4.02032L29.7133 25.7596C30.4759 27.1346 29.6283 28.8856 28.2006 28.994L28.0609 28.9998H3.93884L3.79919 28.994C2.37132 28.8857 1.52373 27.1346 2.2865 25.7596L14.347 4.02032ZM16.4379 4.79669C16.2479 4.45124 15.7518 4.45124 15.5619 4.79669L3.41638 26.8836C3.23343 27.2168 3.47471 27.6248 3.85486 27.6248H28.1449C28.525 27.6246 28.7656 27.2167 28.5824 26.8836L16.4379 4.79669Z" fill="currentColor"/>
<path d="M16.7497 11.4542L16.6077 21.9087H14.9599L14.8179 11.4542H16.7497ZM15.7838 26.1133C15.4334 26.1133 15.1327 25.9878 14.8818 25.7369C14.6309 25.4859 14.5054 25.1852 14.5054 24.8349C14.5054 24.4845 14.6309 24.1838 14.8818 23.9329C15.1327 23.6819 15.4334 23.5565 15.7838 23.5565C16.1342 23.5565 16.4348 23.6819 16.6858 23.9329C16.9367 24.1838 17.0622 24.4845 17.0622 24.8349C17.0622 25.0669 17.003 25.2799 16.8846 25.4741C16.771 25.6682 16.6171 25.8244 16.423 25.9428C16.2336 26.0565 16.0205 26.1133 15.7838 26.1133Z" fill="currentColor"/>
</svg>
