<svg viewBox="0 0 32 32" fill="none" xmlns="http://www.w3.org/2000/svg">
<path d="M6.35252 2.10959C6.60147 3.8268 7.14088 5.2699 7.97072 6.43886C9.25732 8.4115 10.0251 9.56235 10.2741 9.89141C10.9798 10.878 11.3326 11.9374 11.3326 13.0695C11.3326 14.3116 10.8347 15.3709 9.83888 16.2477C8.80124 17.1244 7.57704 17.5628 6.1663 17.5628C4.75556 17.5628 3.55228 17.1244 2.55646 16.2477C1.51882 15.3341 1 14.2747 1 13.0695C1 12.0099 1.35285 10.9505 2.05855 9.89141C2.47348 9.34317 3.26183 8.19232 4.42362 6.43886C5.29529 5.12377 5.81411 3.68068 5.98008 2.10959C6.06307 2.03653 6.14605 2 6.22904 2C6.31202 2 6.35252 2.03653 6.35252 2.10959ZM26.0199 2.10959C26.1859 3.68068 26.7047 5.12377 27.5764 6.43886C28.7382 8.19232 29.5265 9.34317 29.9414 9.89141C30.6471 10.9511 31 12.0105 31 13.0695C31 14.2753 30.4812 15.3347 29.4435 16.2477C28.4477 17.1244 27.2444 17.5628 25.8337 17.5628C24.423 17.5628 23.1988 17.1244 22.1611 16.2477C21.1653 15.3709 20.6674 14.3116 20.6674 13.0695C20.6674 12.0829 20.8958 11.2062 21.3525 10.4394C21.8504 9.52582 22.3483 8.79521 22.8462 8.24755C23.386 7.66307 23.9463 6.80446 24.5272 5.67173C25.0669 4.57582 25.4404 3.38844 25.6475 2.10959C25.6475 2.03653 25.7099 2 25.8347 2C25.9595 2 26.0219 2.03653 26.0219 2.10959H26.0199ZM15.8128 14.5477C15.8958 14.4746 15.9788 14.4381 16.0617 14.4381C16.1447 14.4381 16.1862 14.4746 16.1862 14.5477C16.3522 16.1188 16.8916 17.58 17.8044 18.9313C18.0952 19.4065 18.5101 20.0366 19.0492 20.8216C19.5883 21.6065 19.9411 22.127 20.1077 22.383C20.8135 23.4059 21.1663 24.4471 21.1663 25.5068C21.1663 26.7488 20.6475 27.8082 19.6098 28.6849C18.614 29.5616 17.4107 30 16 30C14.5893 30 13.386 29.5616 12.3902 28.6849C11.3525 27.8082 10.8337 26.7488 10.8337 25.5068C10.8337 24.4471 11.1866 23.4059 11.8923 22.383C12.0582 22.127 12.4111 21.6065 12.9508 20.8216C13.4905 20.0366 13.9055 19.4065 14.1956 18.9313C15.1084 17.5794 15.6478 16.1182 15.8138 14.5477H15.8128Z" fill="currentColor"/>
</svg>
