<svg viewBox="0 0 32 32" fill="none" xmlns="http://www.w3.org/2000/svg">
<path d="M15.999 30C12.9506 30 10.3553 29.0521 8.21319 27.1563C6.07106 25.2606 5 22.9638 5 20.2659C5 18.8806 5.35032 17.5316 6.05096 16.2192C6.7516 14.9067 7.55507 13.7491 8.46135 12.7464C9.36764 11.7437 10.3873 10.3764 11.5203 8.64454C12.6533 6.91268 13.5494 5.09886 14.2085 3.20309C14.4972 2.40103 15.1151 2 16.0623 2C17.0094 2 17.6069 2.40103 17.8548 3.20309C18.6378 5.5731 19.8222 7.79699 21.4081 9.87475C22.9939 11.9525 24.3223 13.7663 25.3934 15.3162C26.4645 16.8661 27 18.5157 27 20.2651C27 22.9629 25.9289 25.2597 23.7868 27.1555C21.6447 29.0512 19.0494 29.9991 16.001 29.9991L15.999 30ZM13.4037 20.594C13.3213 20.4482 13.1978 20.3753 13.033 20.3753C12.8682 20.3753 12.7651 20.4482 12.7235 20.594C12.5172 21.1044 12.1775 21.6697 11.7042 22.2897C11.231 22.9098 10.994 23.4202 10.9933 23.8209C10.9933 24.2952 11.1891 24.7146 11.5806 25.0792C11.9721 25.4437 12.4563 25.626 13.033 25.626C13.6097 25.626 14.0938 25.4528 14.4853 25.1063C14.8769 24.7598 15.0726 24.3313 15.0726 23.8209C15.0726 23.4196 14.8357 22.9092 14.3618 22.2897C13.8879 21.6703 13.5685 21.105 13.4037 20.594Z" fill="currentColor"/>
</svg>
