<svg viewBox="0 0 32 32" fill="none" xmlns="http://www.w3.org/2000/svg">
<path d="M26.9126 12.2696C27.0673 11.4874 27.1447 10.9007 27.1447 10.5096C27.1447 8.4363 26.4192 6.66655 24.9681 5.2003C23.5171 3.73406 21.7664 3.00063 19.7161 3C18.2843 3 16.988 3.37172 15.8273 4.11517C14.6666 4.85862 13.7572 5.85614 13.0991 7.10773C12.5575 6.87306 11.9771 6.75572 11.3581 6.75572C10.12 6.75572 9.05583 7.19566 8.16564 8.07553C7.27545 8.9554 6.79167 10.0211 6.71429 11.2727C4.23809 12.4073 3 14.0306 3 16.1427C3 17.7072 3.72552 19.037 5.17657 20.1321C6.62762 21.2273 8.37829 21.7749 10.4286 21.7749H21.5714C23.6223 21.7749 25.373 21.2273 26.8234 20.1321C28.2739 19.037 28.9994 17.7072 29 16.1427C29 14.6564 28.3036 13.3657 26.9107 12.2706L26.9126 12.2696Z" fill="currentColor"/>
<path d="M21.64 26.0627L23.14 23.8127C23.4822 23.297 24.1806 23.1564 24.6561 23.5C25.1733 23.8441 25.3124 24.543 24.9681 25.06L23.4681 27.31C23.2516 27.6353 22.894 27.8111 22.5306 27.8111C22.3572 27.8111 22.1416 27.7502 21.9521 27.6227C21.4349 27.2786 21.2957 26.5797 21.64 26.0627Z" fill="currentColor"/>
<path d="M17.1353 26.0627L18.6353 23.8127C18.9822 23.297 19.6806 23.1564 20.1561 23.5C20.6733 23.8441 20.8124 24.543 20.4681 25.06L18.9681 27.31C18.7516 27.6353 18.394 27.8111 18.0306 27.8111C17.8572 27.8111 17.6416 27.7502 17.4474 27.6227C16.9302 27.2786 16.791 26.5797 17.1353 26.0627Z" fill="currentColor"/>
<path d="M12.6353 26.0627L14.1353 23.8127C14.4822 23.297 15.1806 23.1564 15.6561 23.5C16.1733 23.8441 16.3124 24.543 15.9681 25.06L14.4681 27.31C14.2516 27.6353 13.894 27.8111 13.5306 27.8111C13.3572 27.8111 13.1416 27.7502 12.9474 27.6227C12.4302 27.2786 12.291 26.5797 12.6353 26.0627Z" fill="currentColor"/>
<path d="M8.13674 26.0627L9.63674 23.8127C9.98267 23.297 10.6783 23.1564 11.1969 23.5C11.7141 23.8441 11.8532 24.543 11.5089 25.06L10.0089 27.31C9.79236 27.6353 9.43475 27.8111 9.07142 27.8111C8.85767 27.8111 8.64064 27.7502 8.44878 27.6227C7.93161 27.2786 7.79244 26.5797 8.13674 26.0627Z" fill="currentColor"/>
</svg>
