<svg viewBox="0 0 32 32" fill="none" xmlns="http://www.w3.org/2000/svg">
<path d="M26.9126 11.2696C27.0673 10.4874 27.1447 9.90069 27.1447 9.50957C27.1447 7.4363 26.4192 5.66655 24.9681 4.2003C23.5171 2.73406 21.7664 2.00063 19.7161 2C18.2843 2 16.988 2.37172 15.8273 3.11517C14.6666 3.85862 13.7572 4.85614 13.0991 6.10773C12.5575 5.87306 11.9771 5.75572 11.3581 5.75572C10.12 5.75572 9.05583 6.19566 8.16564 7.07553C7.27545 7.9554 6.79167 9.02113 6.71429 10.2727C4.2381 11.4073 3 13.0306 3 15.1427C3 16.7072 3.72552 18.037 5.17657 19.1321C6.62762 20.2273 8.37829 20.7749 10.4286 20.7749H21.5714C23.6223 20.7749 25.373 20.2273 26.8234 19.1321C28.2739 18.037 28.9994 16.7072 29 15.1427C29 13.6564 28.3036 12.3657 26.9107 11.2706L26.9126 11.2696ZM6.71614 26.5557C6.71614 27.1068 6.9 27.5737 7.26771 27.9563C7.63543 28.339 8.07062 28.5303 8.57329 28.5303C9.07595 28.5303 9.51114 28.339 9.87886 27.9563C10.2466 27.5737 10.4304 27.1068 10.4304 26.5557C10.4304 26.2495 10.2757 25.7672 9.96614 25.1087C9.65662 24.4503 9.34709 23.8761 9.03757 23.3862L8.57329 22.6513C7.33519 24.5497 6.71614 25.8512 6.71614 26.5557ZM14.1447 28.0254C14.1447 28.5766 14.3286 29.0434 14.6963 29.4261C15.064 29.8087 15.4992 30 16.0019 30C16.5045 30 16.9397 29.8087 17.3074 29.4261C17.6751 29.0434 17.859 28.5766 17.859 28.0254C17.859 27.7192 17.7042 27.2369 17.3947 26.5785C17.0852 25.92 16.7757 25.3458 16.4661 24.8559L16.0019 24.121C14.7638 26.0195 14.1447 27.3209 14.1447 28.0254ZM21.5733 26.5557C21.5733 27.1068 21.7571 27.5737 22.1249 27.9563C22.4926 28.339 22.9278 28.5303 23.4304 28.5303C23.9331 28.5303 24.3683 28.339 24.736 27.9563C25.1037 27.5737 25.2876 27.1068 25.2876 26.5557C25.2876 26.2495 25.1328 25.7672 24.8233 25.1087C24.5138 24.4503 24.2042 23.8761 23.8947 23.3862L23.4304 22.6513C22.1923 24.5497 21.5733 25.8512 21.5733 26.5557Z" fill="currentColor"/>
</svg>
