<svg viewBox="0 0 32 32" fill="none" xmlns="http://www.w3.org/2000/svg">
<path d="M19.7158 4C21.766 4.00063 23.5168 4.73411 24.9678 6.2002C26.4188 7.66644 27.1445 9.4365 27.1445 11.5098C27.1445 11.9009 27.0668 12.4874 26.9121 13.2695L26.9111 13.2705C28.3038 14.3656 29 15.6564 29 17.1426C28.9994 18.7071 28.2737 20.0367 26.8232 21.1318C25.4211 22.1905 23.7386 22.7352 21.7754 22.7705L24 18.1426H18.8203V9L10.2549 22.7715C8.27926 22.7413 6.58665 22.1959 5.17676 21.1318C3.72573 20.0367 3 18.7071 3 17.1426C3.00004 15.0306 4.23788 13.407 6.71387 12.2725C6.7913 11.021 7.27588 9.95501 8.16602 9.0752C9.05613 8.19556 10.1205 7.75586 11.3584 7.75586C11.9773 7.7559 12.558 7.87279 13.0996 8.10742C13.7576 6.85608 14.6666 5.85859 15.8271 5.11523C16.9878 4.37184 18.2841 4.00006 19.7158 4Z" fill="currentColor"/>
<path d="M17.0625 20.1364H21L15.9375 29V22.8636H12L17.0625 14V20.1364Z" fill="currentColor"/>
</svg>
