<svg viewBox="0 0 32 32" fill="none" xmlns="http://www.w3.org/2000/svg">
<path d="M21.9836 22.75C22.0173 22.875 21.9969 23.0018 21.9366 23.1057C21.8763 23.2096 21.7762 23.2905 21.6506 23.324L21.033 23.4887L21.68 23.8604C21.9051 23.9883 21.9836 24.2754 21.854 24.5C21.7245 24.7246 21.4343 24.801 21.209 24.6715L20.5619 24.2999L20.7274 24.9143C20.7948 25.1645 20.6457 25.4213 20.3943 25.4883C20.1428 25.5553 19.8846 25.4071 19.8173 25.1569L19.408 23.637L17.971 22.8125V24.4627L19.0894 25.5754C19.2734 25.7585 19.2734 26.0551 19.0894 26.2383C18.9977 26.3301 18.876 26.375 18.7562 26.375C18.6365 26.375 18.5151 26.3292 18.4231 26.2377L17.971 25.7871V26.5312C17.971 26.79 17.7599 27 17.4998 27C17.2397 27 17.0287 26.79 17.0287 26.5312V25.7879L16.5765 26.2377C16.3925 26.4208 16.0944 26.4208 15.9103 26.2377C15.7261 26.0546 15.7262 25.758 15.9103 25.5748L17.0287 24.4629V22.8125L15.5922 23.6377L15.1829 25.1576C15.1155 25.4078 14.8574 25.5561 14.6059 25.4891C14.3545 25.4221 14.2055 25.1652 14.2728 24.915L14.4383 24.3006L13.7912 24.6723C13.5659 24.8008 13.2761 24.7246 13.146 24.5C13.0158 24.2754 13.0946 23.9891 13.3199 23.8596L13.9669 23.4879L13.3493 23.3232C13.0978 23.2562 12.9488 22.9994 13.0162 22.7492C13.0835 22.499 13.3417 22.3508 13.5931 22.4178L15.1209 22.825L16.5575 21.9824L15.1205 21.1758L13.5934 21.582C13.3419 21.6484 13.0837 21.5 13.0164 21.25C12.9491 21 13.0981 20.743 13.3495 20.676L13.9671 20.5113L13.3199 20.1406C13.0947 20.0117 13.016 19.7246 13.146 19.5C13.2759 19.2754 13.5657 19.199 13.791 19.3284L14.4381 19.7001L14.2728 19.0859C14.2053 18.8355 14.3545 18.5787 14.6061 18.5115C14.8578 18.4443 15.1158 18.5928 15.1831 18.843L15.5924 20.3629L17.0287 21.1875V19.5371L15.9097 18.4252C15.7256 18.2421 15.7256 17.9455 15.9097 17.7623C16.0937 17.5791 16.3918 17.5792 16.576 17.7623L17.0287 18.2121V17.4688C17.0287 17.21 17.2407 17 17.4998 17C17.7589 17 17.971 17.21 17.971 17.4688V18.2121L18.4231 17.7623C18.6071 17.5792 18.9052 17.5792 19.0894 17.7623C19.2735 17.9454 19.2734 18.242 19.0894 18.4252L17.971 19.5371V21.1873L19.4074 20.3621L19.8167 18.8422C19.8841 18.592 20.1422 18.4437 20.3937 18.5107C20.5193 18.5442 20.6194 18.6252 20.6797 18.7291C20.74 18.833 20.7604 18.9598 20.7267 19.0848L20.5612 19.6992L21.2083 19.3275C21.4339 19.1992 21.7245 19.2754 21.854 19.5C21.9836 19.7246 21.9054 20.0109 21.6801 20.1402L21.0331 20.5119L21.6507 20.6766C21.9022 20.7436 22.0512 21.0004 21.9838 21.2506C21.9165 21.5008 21.6583 21.6491 21.4069 21.5821L19.8791 21.1748L18.4421 21.9824L19.8785 22.8076L21.4062 22.4004C21.6577 22.334 21.8992 22.5 21.9836 22.75Z" fill="currentColor"/>
<path d="M19.7158 5C21.766 5.00063 23.5168 5.73411 24.9678 7.2002C26.4188 8.66644 27.1445 10.4365 27.1445 12.5098C27.1445 12.9009 27.0668 13.4874 26.9121 14.2695L26.9111 14.2705C28.3038 15.3656 29 16.6564 29 18.1426C28.9994 19.7071 28.2737 21.0367 26.8232 22.1318C25.8936 22.8338 24.8404 23.3095 23.6641 23.5615C23.8807 22.9136 24 22.2208 24 21.5C24 17.9101 21.0899 15 17.5 15C13.9101 15 11 17.9101 11 21.5C11 22.3003 11.1456 23.0664 11.4102 23.7744H10.4287C8.37843 23.7744 6.62781 23.227 5.17676 22.1318C3.72573 21.0367 3 19.7071 3 18.1426C3.00004 16.0306 4.23788 14.407 6.71387 13.2725C6.7913 12.021 7.27588 10.955 8.16602 10.0752C9.05613 9.19556 10.1205 8.75586 11.3584 8.75586C11.9773 8.7559 12.558 8.87279 13.0996 9.10742C13.7576 7.85608 14.6666 6.85859 15.8271 6.11523C16.9878 5.37184 18.2841 5.00006 19.7158 5Z" fill="currentColor"/>
</svg>
