<svg viewBox="0 0 32 32" fill="none" xmlns="http://www.w3.org/2000/svg">
<path d="M26.9126 16.2696C27.0673 15.4874 27.1447 14.9007 27.1447 14.5096C27.1447 12.4363 26.4192 10.6665 24.9681 9.2003C23.5171 7.73406 21.7664 7.00063 19.7161 7C18.2843 7 16.988 7.37172 15.8273 8.11517C14.6666 8.85862 13.7572 9.85614 13.0991 11.1077C12.5575 10.8731 11.9771 10.7557 11.3581 10.7557C10.12 10.7557 9.05583 11.1957 8.16564 12.0755C7.27545 12.9554 6.79167 14.0211 6.71429 15.2727C4.23809 16.4073 3 18.0306 3 20.1427C3 21.7072 3.72552 23.037 5.17657 24.1321C6.62762 25.2273 8.37829 25.7749 10.4286 25.7749H21.5714C23.6223 25.7749 25.373 25.2273 26.8234 24.1321C28.2739 23.037 28.9994 21.7072 29 20.1427C29 18.6564 28.3036 17.3657 26.9107 16.2706L26.9126 16.2696Z" fill="currentColor"/>
</svg>
