<svg viewBox="0 0 32 32" fill="none" xmlns="http://www.w3.org/2000/svg">
<path d="M9.313 21.25L11.188 23.125C12.5213 21.7917 14.1257 21.125 16.001 21.125C17.8763 21.125 19.4807 21.7917 20.814 23.125L22.689 21.25C20.897 19.3747 18.6677 18.437 16.001 18.437C13.3343 18.437 11.105 19.3747 9.313 21.25ZM5 16.938L6.875 18.813C9.45833 16.313 12.5 15.063 16 15.063C19.5 15.063 22.5417 16.313 25.125 18.813L27 16.938C23.958 13.896 20.2913 12.375 16 12.375C11.7087 12.375 8.042 13.896 5 16.938ZM16 6.31299C10 6.31299 4.89567 8.41732 0.687 12.626L2.625 14.501C6.33367 10.7923 10.792 8.93799 16 8.93799C21.208 8.93799 25.6663 10.7923 29.375 14.501L31.313 12.626C27.1043 8.41732 22 6.31299 16 6.31299ZM16 24C15.4167 24 14.9373 24.1877 14.562 24.563C14.1867 24.9383 13.999 25.4177 13.999 26.001C13.999 26.5843 14.1867 27.0637 14.562 27.439C14.9373 27.8143 15.4167 28.002 16 28.002C16.5833 28.002 17.0627 27.8143 17.438 27.439C17.8133 27.0637 18.001 26.5843 18.001 26.001C18.001 25.4177 17.8133 24.9383 17.438 24.563C17.0627 24.1877 16.5833 24 16 24Z" fill="currentColor"/>
</svg>
