<svg viewBox="0 0 32 32" fill="none" xmlns="http://www.w3.org/2000/svg">
<g clip-path="url(#clip0_251_17)">
<path d="M16 24.0001C16.952 24.0001 17.8267 24.3334 18.5147 24.8881L16 28.0001L13.4853 24.8881C14.1966 24.3119 15.0846 23.9983 16 24.0001V24.0001ZM3.744 1.85742L27.3133 25.4281L25.428 27.3134L18.5213 20.4068C17.7081 20.1369 16.8568 19.9996 16 20.0001C14.096 20.0001 12.3467 20.6654 10.9733 21.7761L9.29866 19.7014C11.0507 18.282 13.2092 17.4573 15.4613 17.3468L12 13.8854C10.0962 14.4251 8.32175 15.3454 6.784 16.5908L5.10666 14.5161C6.54373 13.3524 8.15797 12.4264 9.888 11.7734L6.84266 8.72676C5.32679 9.44863 3.90138 10.3468 2.596 11.4028L0.918663 9.32942C2.13866 8.34276 3.456 7.47475 4.85466 6.74009L1.85733 3.74409L3.744 1.85742V1.85742ZM19.3333 13.7134L16.288 10.6694L16 10.6668C20.1267 10.6668 23.916 12.1081 26.8933 14.5161L25.216 16.5908C23.498 15.199 21.4866 14.2152 19.3333 13.7134V13.7134ZM16 4.00009C21.7133 4.00009 26.96 5.99609 31.08 9.32942L29.404 11.4028C25.6125 8.33162 20.8793 6.65927 16 6.66676C14.8293 6.66676 13.68 6.76009 12.56 6.94275L10.3 4.68009C12.1253 4.23609 14.036 4.00009 16 4.00009Z" fill="currentColor"/>
</g>
<defs>
<clipPath id="clip0_251_17">
<rect width="32" height="32" fill="white"/>
</clipPath>
</defs>
</svg>
