<svg viewBox="0 0 32 32" fill="none" xmlns="http://www.w3.org/2000/svg">
<path d="M5.97343 21.6296C9.13485 20.527 12.6219 20.8728 15.5057 22.574C17.7917 23.9224 20.5612 24.1776 23.0555 23.2703L28.3728 21.3357C29.0215 21.0999 29.7384 21.4351 29.9744 22.0837C30.2103 22.7324 29.876 23.4493 29.2273 23.6853L23.9099 25.6199C20.7136 26.7826 17.1647 26.4554 14.2351 24.7273C11.9847 23.3997 9.26373 23.1305 6.79667 23.991L3.6121 25.1013C2.96025 25.3286 2.24666 24.9846 2.01932 24.3328C1.79215 23.6811 2.13637 22.9684 2.78788 22.741L5.97343 21.6296ZM5.97343 13.9792C9.13485 12.8767 12.6219 13.2224 15.5057 14.9236C17.7917 16.272 20.5613 16.5272 23.0555 15.6199L28.3728 13.6853C29.0215 13.4495 29.7384 13.7847 29.9744 14.4333C30.2103 15.082 29.876 15.7989 29.2273 16.0349L23.9099 17.9695C20.7137 19.1322 17.1646 18.805 14.2351 17.0769C11.9847 15.7494 9.26373 15.4792 6.79667 16.3396L3.6121 17.4509C2.96025 17.6783 2.24666 17.3342 2.01932 16.6824C1.7921 16.0307 2.13636 15.3181 2.78788 15.0906L5.97343 13.9792ZM5.97343 6.32884C9.13485 5.22626 12.6219 5.572 15.5057 7.27318C17.7917 8.62161 20.5613 8.87683 23.0555 7.96947L28.3728 6.0349C29.0215 5.79907 29.7384 6.13427 29.9744 6.78295C30.2102 7.43163 29.876 8.14852 29.2273 8.38451L23.9099 10.3191C20.7137 11.4818 17.1646 11.1546 14.2351 9.4265C11.9847 8.09896 9.26373 7.82878 6.79667 8.6892L3.6121 9.80052C2.96025 10.0279 2.24666 9.68382 2.01932 9.03197C1.79205 8.38029 2.13635 7.6677 2.78788 7.44017L5.97343 6.32884Z" fill="currentColor"/>
</svg>
