<svg viewBox="0 0 32 32" fill="none" xmlns="http://www.w3.org/2000/svg">
<path d="M13.1878 1L9.813 1C9.50222 1.00007 9.25045 1.37118 9.25045 1.8292C9.25045 1.8292 9.25006 2.83973 9.2502 3.48724C9.2503 3.9454 10.0642 4.31684 10.375 4.31682L10.375 9.93252C8.72486 10.9174 7 13.2904 7 16.0751L7 27.6832C7 29.5153 8.00702 30.9996 9.24994 30.9996L13.7501 31C14.993 31 16 29.5156 16 27.6836V16.0755C16 13.2907 14.2752 10.9178 12.6249 9.93252L12.6249 4.31682C12.9356 4.31682 13.7528 3.94125 13.7528 3.48323L13.7528 1.82482C13.7491 1.37301 13.4973 1.00183 13.1878 1ZM13.7503 25.8661H9.25045L9.25045 16.9256L13.7506 16.9259L13.7503 25.8661Z" fill="currentColor"/>
<path d="M24.0004 29.6875H22.8889V26.4801C24.7921 26.0459 26.167 24.2964 25.9836 22.2664L25.5422 17.3965C25.5227 17.1709 25.331 17 25.106 17H18.8952C18.6693 17 18.4782 17.1709 18.4574 17.3965L18.0165 22.2664C17.8324 24.2967 19.2077 26.0453 21.1112 26.4828V29.6875H19.9995C19.3847 29.6875 18.888 30.1764 18.888 30.7812C18.888 30.9009 18.9887 31 19.1103 31H24.8886C25.0101 31 25.1109 30.9009 25.1109 30.7812C25.1116 30.177 24.6143 29.6875 24.0004 29.6875ZM19.7144 18.3125H24.2871L24.4837 20.5H19.5161L19.7144 18.3125Z" fill="currentColor"/>
</svg>
