<svg viewBox="0 0 32 32" fill="none" xmlns="http://www.w3.org/2000/svg">
<path d="M20.0007 27.375H17.7778V20.9602C21.5842 20.0917 24.3339 16.5928 23.9672 12.5328L23.0843 2.79297C23.0455 2.3418 22.6621 2 22.2121 2H9.79041C9.3387 2 8.95644 2.3418 8.91477 2.79297L8.03303 12.5328C7.66489 16.5934 10.4155 20.0906 14.2225 20.9656V27.375H11.9989C10.7694 27.375 9.77596 28.3528 9.77596 29.5625C9.77596 29.8018 9.97742 30 10.2206 30H21.7771C22.0203 30 22.2217 29.8018 22.2217 29.5625C22.2232 28.3539 21.2286 27.375 20.0007 27.375ZM11.4289 4.625H20.5741L20.9675 9H11.0322L11.4289 4.625Z" fill="currentColor"/>
</svg>
