<svg viewBox="0 0 32 32" fill="none" xmlns="http://www.w3.org/2000/svg">
<path d="M17.7504 21.5H16.5V17.8344C18.6411 17.3381 20.1878 15.3388 19.9816 13.0188L19.4849 7.45312C19.4631 7.19531 19.2474 7 18.9943 7H12.0071C11.753 7 11.538 7.19531 11.5146 7.45312L11.0186 13.0188C10.8115 15.3391 12.3587 17.3375 14.5001 17.8375V21.5H13.2494C12.5578 21.5 11.999 22.0587 11.999 22.75C11.999 22.8867 12.1123 23 12.2491 23H18.7496C18.8864 23 18.9997 22.8867 18.9997 22.75C19.0005 22.0594 18.4411 21.5 17.7504 21.5ZM12.9287 8.5H18.0729L18.2942 11H12.7056L12.9287 8.5Z" fill="currentColor"/>
<path d="M27.6364 2C28.7937 2 29.9036 2.4583 30.7219 3.27409C31.5403 4.08987 32 5.19631 32 6.35V9.25H29.0909V26.65C29.0909 27.8037 28.6312 28.9101 27.8128 29.7259C26.9945 30.5417 25.8846 31 24.7273 31H4.36364C3.20633 31 2.09642 30.5417 1.27808 29.7259C0.459739 28.9101 0 27.8037 0 26.65V25H23.2727V26.65C23.2728 27.0052 23.4036 27.3479 23.6403 27.6133C23.8771 27.8787 24.2033 28.0483 24.5571 28.0899L24.7273 28.1C25.0835 28.1 25.4274 27.9696 25.6936 27.7336C25.9599 27.4976 26.13 27.1724 26.1716 26.8197L26.1818 26.65V4.9H7.27273C6.91646 4.90005 6.5726 5.03044 6.30637 5.26644C6.04014 5.50244 5.87005 5.82764 5.82836 6.18035L5.81818 6.35V23H2.90909V6.35C2.90909 5.19631 3.36883 4.08987 4.18717 3.27409C5.00551 2.4583 6.11542 2 7.27273 2H27.6364Z" fill="currentColor"/>
</svg>
