<svg viewBox="0 0 32 32" fill="none" xmlns="http://www.w3.org/2000/svg">
<path d="M16 2C12.1234 2 8.82086 3.36417 6.09252 6.09252C3.36417 8.82086 2 12.1234 2 16C2 19.8766 3.36417 23.1791 6.09252 25.9075C8.82086 28.6358 12.1234 30 16 30C19.8766 30 23.1791 28.6358 25.9075 25.9075C28.6358 23.1791 30 19.8766 30 16C30 12.1234 28.6358 8.82086 25.9075 6.09252C23.1791 3.36417 19.8766 2 16 2ZM28.1935 15.5484H22.7742C22.7363 13.6287 22.3786 11.747 21.7012 9.90323C22.9055 9.41368 24.0345 8.75492 25.0883 7.92697C27.0452 10.1477 28.0803 12.6882 28.1935 15.5484ZM15.4924 28.1935C13.8738 26.7634 12.6505 25.1638 11.8226 23.3947C13.1022 23.0184 14.3441 22.8112 15.5484 22.7733V28.1926H15.4915L15.4924 28.1935ZM16.5085 3.80645C18.315 5.34976 19.6511 7.19385 20.517 9.33871C19.1622 9.82826 17.8074 10.0917 16.4525 10.129V3.80645H16.5085ZM17.9763 3.97626C20.4981 4.42787 22.6622 5.51927 24.4686 7.25045C23.4522 8.04108 22.4171 8.64323 21.3634 9.0569C20.6107 7.17518 19.4816 5.48163 17.9763 3.97626ZM15.5484 3.80645V10.129C14.1935 10.0911 12.8387 9.82766 11.4839 9.33871C12.3498 7.19325 13.6859 5.34916 15.4924 3.80645H15.5493H15.5484ZM10.6375 9.0569C9.58378 8.64262 8.54869 8.04047 7.53226 7.25045C9.33871 5.51927 11.5028 4.42787 14.0246 3.97626C12.5193 5.48163 11.3902 7.17518 10.6375 9.0569ZM11.1452 10.1859C12.5 10.6755 13.9677 10.9579 15.5484 11.0332V15.5493H10.129C10.2043 13.5923 10.543 11.8045 11.1452 10.1859ZM15.5484 16.4516V21.871C14.043 21.9462 12.6692 22.191 11.427 22.6053C10.599 20.5351 10.1661 18.4839 10.1281 16.4516H15.5475H15.5484ZM14.0246 28.0246C11.7666 27.6104 9.79062 26.6882 8.09677 25.2581C9 24.6559 9.95983 24.1477 10.9763 23.7334C11.7669 25.352 12.783 26.783 14.0246 28.0246ZM16.4516 28.1935V22.7742C17.6559 22.8121 18.8978 23.0193 20.1774 23.3956C19.3495 25.1647 18.1262 26.7643 16.5076 28.1945H16.4507L16.4516 28.1935ZM21.0246 23.7343C22.0411 24.1486 23.0009 24.6568 23.9041 25.259C22.2103 26.6891 20.2343 27.6113 17.9763 28.0255C19.2185 26.7833 20.2346 25.3523 21.0246 23.7343ZM20.573 22.6053C19.3308 22.191 17.957 21.9462 16.4516 21.871V16.4516H21.871C21.833 18.4839 21.401 20.5351 20.573 22.6053ZM16.4516 15.5484V11.0323C18.0323 10.957 19.5 10.6746 20.8548 10.185C21.457 11.8036 21.7957 13.5914 21.871 15.5484H16.4516ZM6.91174 7.92787C7.96551 8.75583 9.09454 9.41458 10.2988 9.90413C9.62142 11.7485 9.26374 13.6302 9.22581 15.5493H3.80645C3.91966 12.6891 4.95475 10.1486 6.91174 7.92787ZM3.80645 16.4516H9.22581C9.26374 18.6344 9.71535 20.7796 10.5806 22.8871C9.52688 23.3014 8.47312 23.8849 7.41935 24.6375C5.12335 22.4168 3.91905 19.6882 3.80645 16.4516ZM24.5806 24.6375C23.5269 23.8849 22.4731 23.3014 21.4194 22.8871C22.2852 20.7796 22.7369 18.6344 22.7742 16.4516H28.1935C28.0803 19.6882 26.876 22.4168 24.5806 24.6375Z" fill="currentColor"/>
</svg>
