<svg viewBox="0 0 32 32" fill="none" xmlns="http://www.w3.org/2000/svg">
<path d="M8.20917 24.9252C8.20917 24.6068 8.10952 24.3479 7.91022 24.1486C7.67144 23.9098 7.41261 23.7904 7.13372 23.7904C6.77523 23.7904 6.5164 23.9098 6.35721 24.1486C6.11843 24.3078 5.99904 24.5666 5.99904 24.9252C5.99904 25.2041 6.11843 25.4429 6.35721 25.6415C6.5164 25.8803 6.77523 25.9997 7.13372 25.9997C7.41261 25.9997 7.67144 25.8803 7.91022 25.6415C8.10952 25.4422 8.20917 25.2034 8.20917 24.9252ZM19.1929 17.7613L7.55205 29.3428C7.11398 29.7809 6.59663 30 6 30C5.48233 30 4.96498 29.7809 4.44795 29.3428L2.65712 27.5519C2.21904 27.1138 2 26.5964 2 25.9997C2 25.4031 2.21904 24.8857 2.65712 24.4476L14.298 12.8059C14.696 13.8407 15.3327 14.8356 16.2082 15.7908C17.1238 16.6664 18.1188 17.3232 19.1929 17.7613ZM29.9981 10.2986C29.9981 10.7761 29.8787 11.3932 29.6399 12.1497C29.0828 13.662 28.1474 14.8958 26.8338 15.851C25.4807 16.8062 24.0083 17.2838 22.4164 17.2838C20.3069 17.2838 18.496 16.5276 16.9838 15.0152C15.511 13.5423 14.7746 11.7514 14.7746 9.64235C14.7746 7.49321 15.511 5.6822 16.9838 4.20932C18.4565 2.73644 20.2674 2 22.4164 2C23.1328 2 23.8093 2.0796 24.446 2.23879C25.1624 2.39799 25.7794 2.67658 26.297 3.07457C26.4963 3.19429 26.596 3.35348 26.596 3.55216C26.596 3.67187 26.4963 3.83107 26.297 4.02975L21.2827 6.89527V10.716L24.6256 12.5069L24.6858 12.4467C24.7259 12.4467 24.7857 12.4267 24.8653 12.3866C24.9449 12.3465 25.0344 12.2968 25.1337 12.2376C25.233 12.1783 25.3524 12.0987 25.4919 11.9988C25.6313 11.8988 25.7806 11.8093 25.9398 11.7304C26.7759 11.1732 27.5521 10.6956 28.2684 10.2976L29.4623 9.70062C29.6215 9.70062 29.7609 9.76048 29.8806 9.88019C29.9602 10.0394 30 10.1788 30 10.2986H29.9981Z" fill="currentColor"/>
</svg>
