<svg width="71" height="71" viewBox="0 0 71 71" fill="none" xmlns="http://www.w3.org/2000/svg">
<path d="M66 43.5C66 55.3741 52.5685 65 36 65C19.4315 65 6 55.3741 6 43.5C6 31.6259 19.4315 22 36 22C52.5685 22 66 31.6259 66 43.5Z" fill="#D1D9DC"/>
<path d="M55 34.5C55 45.2696 46.2696 54 35.5 54C24.7304 54 16 45.2696 16 34.5C16 23.7304 24.7304 15 35.5 15C46.2696 15 55 23.7304 55 34.5Z" fill="white"/>
<path d="M58 21.5C58 32.2696 47.9264 41 35.5 41C23.0736 41 13 32.2696 13 21.5C13 10.7304 23.0736 2 35.5 2C47.9264 2 58 10.7304 58 21.5Z" fill="#CCD3DD"/>
<path d="M16.5 46.5C16.5 58.3741 22.8513 63 16.5 63C10.1487 63 0 58.3741 0 46.5C0 34.6259 5.14873 25 11.5 25C17.8513 25 16.5 34.6259 16.5 46.5Z" fill="#DEE6EB"/>
<path d="M53.8228 46.5C53.8228 58.3741 47.4715 63 53.8228 63C60.1741 63 70.3228 58.3741 70.3228 46.5C70.3228 34.6259 65.1741 25 58.8228 25C52.4715 25 53.8228 34.6259 53.8228 46.5Z" fill="#DEE6EB"/>
<path d="M52.7183 5.20927C45.6341 2.88454 38.3557 5.67933 36.4615 11.4516C35.4953 14.3959 36.1199 17.5441 37.9008 20.2327C37.1676 18.1983 37.0617 16.0371 37.7382 13.9755C39.6324 8.20323 46.9108 5.40844 53.995 7.73316C57.4657 8.8721 60.2437 11.03 61.9541 13.6124C60.6344 9.95085 57.2722 6.70367 52.7183 5.20927Z" fill="#A8B2BE"/>
<path d="M18.8274 4.20928C25.9116 1.88456 33.19 4.67935 35.0842 10.4516C36.0504 13.396 35.4258 16.5441 33.6449 19.2327C34.3781 17.1983 34.4841 15.0372 33.8075 12.9755C31.9133 7.20324 24.6349 4.40845 17.5507 6.73318C14.08 7.87212 11.302 10.03 9.59158 12.6124C10.9113 8.95087 14.2735 5.70368 18.8274 4.20928Z" fill="#A8B2BE"/>
<path d="M46.5 7C53.9558 7 60 11.9249 60 18C60 24.0751 53.9558 29 46.5 29C41.9604 29 37.9473 27.1715 35.5 24.3721C33.0527 27.1715 29.0396 29 24.5 29C17.0442 29 11 24.0751 11 18C11 11.9249 17.0442 7 24.5 7C29.0393 7 33.0526 8.82781 35.5 11.627C37.9474 8.82781 41.9607 7 46.5 7Z" fill="black"/>
<path d="M46.5 8C53.9558 8 60 12.9249 60 19C60 25.0751 53.9558 30 46.5 30C42.1629 30 38.3058 28.3312 35.8359 25.7412C33.4306 28.9046 29.2538 31 24.5 31C17.0442 31 11 25.8513 11 19.5C11 13.1487 17.0442 8 24.5 8C28.9837 8 32.955 9.86368 35.4102 12.7295C37.8484 9.8721 41.9052 8 46.5 8Z" fill="#F7F7F7"/>
<path d="M33.4822 21.8311C34.2508 21.0866 35.4693 21.079 36.2471 21.8138L43.9871 29.126C45.1051 30.1822 44.6623 32.0524 43.1894 32.4951L35.4394 34.8247C35.0594 34.939 34.6539 34.9376 34.2746 34.8207L26.7308 32.4957C25.2775 32.0478 24.836 30.2059 25.9284 29.1478L33.4822 21.8311Z" fill="#A8B2BE"/>
<path d="M34.0099 26.7589L32.1954 30.4712C32.071 30.7257 32.0604 31.021 32.1661 31.2837L33.982 35.7949C34.3127 36.6164 35.4692 36.6344 35.8253 35.8236L37.8049 31.3153C37.9281 31.0347 37.9159 30.7131 37.7717 30.4427L35.7907 26.7275C35.4067 26.0074 34.3683 26.0256 34.0099 26.7589Z" fill="black"/>
<path d="M34 20.5C34 23.5376 28.9175 26 24.6774 26C20.4373 26 17 23.5376 17 20.5C17 17.4624 20.4373 15 24.6774 15C28.9175 15 34 17.4624 34 20.5Z" fill="black"/>
<path d="M32.7264 20.4459C32.7264 23.0655 28.4421 25.1892 24.8679 25.1892C21.2937 25.1892 18.3962 23.0655 18.3962 20.4459C18.3962 17.8263 21.2937 15.7027 24.8679 15.7027C28.4421 15.7027 32.7264 17.8263 32.7264 20.4459Z" fill="#E6AE81"/>
<path d="M29.4906 20.4459C29.4906 23.0655 27.6279 25.1892 25.3302 25.1892C23.0325 25.1892 21.1698 23.0655 21.1698 20.4459C21.1698 17.8263 23.0325 15.7027 25.3302 15.7027C27.6279 15.7027 29.4906 17.8263 29.4906 20.4459Z" fill="black"/>
<path d="M26.717 18.3378C26.717 19.211 26.0961 19.9189 25.3302 19.9189C24.5643 19.9189 23.9434 19.211 23.9434 18.3378C23.9434 17.4646 24.5643 16.7567 25.3302 16.7567C26.0961 16.7567 26.717 17.4646 26.717 18.3378Z" fill="white"/>
<path d="M36 20.5C36 23.5376 41.0825 26 45.3226 26C49.5627 26 53 23.5376 53 20.5C53 17.4624 49.5627 15 45.3226 15C41.0825 15 36 17.4624 36 20.5Z" fill="black"/>
<path d="M37.2736 20.4459C37.2736 23.0655 41.5579 25.1892 45.1321 25.1892C48.7063 25.1892 51.6038 23.0655 51.6038 20.4459C51.6038 17.8263 48.7063 15.7027 45.1321 15.7027C41.5579 15.7027 37.2736 17.8263 37.2736 20.4459Z" fill="#E6AE81"/>
<path d="M40.5094 20.4459C40.5094 23.0655 42.3721 25.1892 44.6698 25.1892C46.9675 25.1892 48.8302 23.0655 48.8302 20.4459C48.8302 17.8263 46.9675 15.7027 44.6698 15.7027C42.3721 15.7027 40.5094 17.8263 40.5094 20.4459Z" fill="black"/>
<path d="M43.283 18.3378C43.283 19.211 43.9039 19.9189 44.6698 19.9189C45.4357 19.9189 46.0566 19.211 46.0566 18.3378C46.0566 17.4646 45.4357 16.7567 44.6698 16.7567C43.9039 16.7567 43.283 17.4646 43.283 18.3378Z" fill="white"/>
<path d="M25.7422 69.1516C24.8699 69.1748 24.1263 67.826 24.0814 66.1389C24.0364 64.4518 24.7071 63.0653 25.5794 63.0421C26.4517 63.0188 27.1952 64.3676 27.2402 66.0547C27.2852 67.7418 26.6145 69.1283 25.7422 69.1516Z" fill="#CF9C71"/>
<path d="M31.7422 69.1516C30.8699 69.1748 30.1263 67.826 30.0814 66.1389C30.0364 64.4518 30.7071 63.0653 31.5794 63.0421C32.4517 63.0188 33.1952 64.3676 33.2402 66.0547C33.2851 67.7418 32.6145 69.1283 31.7422 69.1516Z" fill="#CF9C71"/>
<path d="M28.7422 70.1516C27.8699 70.1748 27.1263 68.826 27.0814 67.1389C27.0364 65.4518 27.7071 64.0653 28.5794 64.0421C29.4517 64.0188 30.1952 65.3676 30.2402 67.0547C30.2852 68.7418 29.6145 70.1283 28.7422 70.1516Z" fill="#CF9C71"/>
<path d="M34 63.5C34 64.8807 31.5376 66 28.5 66C25.4624 66 23 64.8807 23 63.5C23 62.1193 25.4624 61 28.5 61C31.5376 61 34 62.1193 34 63.5Z" fill="#E6AE81"/>
<path d="M39.7422 69.1516C38.8699 69.1748 38.1263 67.826 38.0814 66.1389C38.0364 64.4518 38.7071 63.0653 39.5794 63.0421C40.4517 63.0188 41.1952 64.3676 41.2402 66.0547C41.2852 67.7418 40.6145 69.1283 39.7422 69.1516Z" fill="#CF9C71"/>
<path d="M45.7422 69.1516C44.8699 69.1748 44.1263 67.826 44.0814 66.1389C44.0364 64.4518 44.7071 63.0653 45.5794 63.0421C46.4517 63.0188 47.1952 64.3676 47.2402 66.0547C47.2851 67.7418 46.6145 69.1283 45.7422 69.1516Z" fill="#CF9C71"/>
<path d="M42.7422 70.1516C41.8699 70.1748 41.1263 68.826 41.0814 67.1389C41.0364 65.4518 41.7071 64.0653 42.5794 64.0421C43.4517 64.0188 44.1952 65.3676 44.2402 67.0547C44.2852 68.7418 43.6145 70.1283 42.7422 70.1516Z" fill="#CF9C71"/>
<path d="M48 63.5C48 64.8807 45.5376 66 42.5 66C39.4624 66 37 64.8807 37 63.5C37 62.1193 39.4624 61 42.5 61C45.5376 61 48 62.1193 48 63.5Z" fill="#E6AE81"/>
</svg>
