<svg width="180" height="40" viewBox="0 0 180 40" fill="none" xmlns="http://www.w3.org/2000/svg">
<path d="M41.1831 24.507C41.1831 31.1966 33.6161 36.6196 24.2817 36.6196C14.9473 36.6196 7.38028 31.1966 7.38028 24.507C7.38028 17.8173 14.9473 12.3943 24.2817 12.3943C33.6161 12.3943 41.1831 17.8173 41.1831 24.507Z" fill="#D1D9DC"/>
<path d="M34.9859 19.4366C34.9859 25.504 30.0674 30.4225 24 30.4225C17.9326 30.4225 13.0141 25.504 13.0141 19.4366C13.0141 13.3692 17.9326 8.45068 24 8.45068C30.0674 8.45068 34.9859 13.3692 34.9859 19.4366Z" fill="white"/>
<path d="M36.6761 12.1126C36.6761 18.18 31.0008 23.0985 24 23.0985C16.9992 23.0985 11.3239 18.18 11.3239 12.1126C11.3239 6.04524 16.9992 1.12671 24 1.12671C31.0008 1.12671 36.6761 6.04524 36.6761 12.1126Z" fill="#CCD3DD"/>
<path d="M13.2958 26.1971C13.2958 32.8868 16.874 35.4929 13.2958 35.4929C9.71758 35.4929 4 32.8868 4 26.1971C4 19.5075 6.90069 14.0845 10.4789 14.0845C14.0571 14.0845 13.2958 19.5075 13.2958 26.1971Z" fill="#DEE6EB"/>
<path d="M34.3227 26.1971C34.3227 32.8868 30.7445 35.4929 34.3227 35.4929C37.9009 35.4929 43.6185 32.8868 43.6185 26.1971C43.6185 19.5075 40.7178 14.0845 37.1396 14.0845C33.5614 14.0845 34.3227 19.5075 34.3227 26.1971Z" fill="#DEE6EB"/>
<path d="M33.7005 2.93492C29.7094 1.62521 25.6088 3.19974 24.5417 6.45172C23.9974 8.11048 24.3492 9.88412 25.3526 11.3988C24.9395 10.2527 24.8798 9.0351 25.261 7.87364C26.3281 4.62165 30.4286 3.04712 34.4197 4.35683C36.375 4.99848 37.9401 6.2142 38.9037 7.66907C38.1602 5.60623 36.266 3.77683 33.7005 2.93492Z" fill="#A8B2BE"/>
<path d="M14.607 2.37144C18.5981 1.06174 22.6986 2.63626 23.7657 5.88824C24.3101 7.54705 23.9582 9.32063 22.9549 10.8353C23.3679 9.68919 23.4277 8.47167 23.0465 7.31015C21.9793 4.05817 17.8788 2.48365 13.8877 3.79335C11.9324 4.43501 10.3673 5.65072 9.4037 7.10559C10.1472 5.04275 12.0414 3.21335 14.607 2.37144Z" fill="#A8B2BE"/>
<path d="M30.1972 3.9436C34.3976 3.9436 37.8028 6.7182 37.8028 10.1408C37.8028 13.5634 34.3976 16.338 30.1972 16.338C27.6397 16.338 25.3788 15.3078 24 13.7307C22.6212 15.3078 20.3603 16.338 17.8028 16.338C13.6024 16.338 10.1972 13.5634 10.1972 10.1408C10.1972 6.7182 13.6024 3.9436 17.8028 3.9436C20.3602 3.9436 22.6212 4.97336 24 6.55036C25.3788 4.97336 27.6398 3.9436 30.1972 3.9436Z" fill="black"/>
<path d="M30.1972 4.50708C34.3976 4.50708 37.8028 7.28167 37.8028 10.7043C37.8028 14.1269 34.3976 16.9014 30.1972 16.9014C27.7538 16.9014 25.5807 15.9613 24.1892 14.5021C22.8341 16.2843 20.481 17.4648 17.8028 17.4648C13.6024 17.4648 10.1972 14.5642 10.1972 10.986C10.1972 7.40776 13.6024 4.50708 17.8028 4.50708C20.3289 4.50708 22.5662 5.55704 23.9494 7.17159C25.323 5.56178 27.6086 4.50708 30.1972 4.50708Z" fill="#F7F7F7"/>
<path d="M22.8632 12.2991C23.2962 11.8797 23.9827 11.8754 24.4209 12.2894L28.7815 16.4089C29.4113 17.004 29.1619 18.0576 28.3321 18.307L23.9659 19.6194C23.7518 19.6838 23.5233 19.6831 23.3096 19.6172L19.0596 18.3073C18.2409 18.055 17.9921 17.0173 18.6076 16.4212L22.8632 12.2991Z" fill="#A8B2BE"/>
<path d="M23.1605 15.0755L22.1383 17.1669C22.0682 17.3103 22.0622 17.4767 22.1217 17.6247L23.1448 20.1662C23.3311 20.629 23.9826 20.6392 24.1833 20.1824L25.2985 17.6425C25.3679 17.4844 25.3611 17.3032 25.2798 17.1509L24.1638 15.0578C23.9474 14.6521 23.3624 14.6624 23.1605 15.0755Z" fill="black"/>
<path d="M23.1549 11.5493C23.1549 13.2606 20.2916 14.6479 17.9028 14.6479C15.514 14.6479 13.5775 13.2606 13.5775 11.5493C13.5775 9.83795 15.514 8.45068 17.9028 8.45068C20.2916 8.45068 23.1549 9.83795 23.1549 11.5493Z" fill="black"/>
<path d="M22.4374 11.5189C22.4374 12.9947 20.0237 14.1912 18.0101 14.1912C15.9965 14.1912 14.3641 12.9947 14.3641 11.5189C14.3641 10.0431 15.9965 8.84668 18.0101 8.84668C20.0237 8.84668 22.4374 10.0431 22.4374 11.5189Z" fill="#E6AE81"/>
<path d="M20.6144 11.5189C20.6144 12.9947 19.565 14.1912 18.2705 14.1912C16.9761 14.1912 15.9267 12.9947 15.9267 11.5189C15.9267 10.0431 16.9761 8.84668 18.2705 8.84668C19.565 8.84668 20.6144 10.0431 20.6144 11.5189Z" fill="black"/>
<path d="M19.0518 10.3312C19.0518 10.8231 18.702 11.222 18.2705 11.222C17.839 11.222 17.4892 10.8231 17.4892 10.3312C17.4892 9.83925 17.839 9.44043 18.2705 9.44043C18.702 9.44043 19.0518 9.83925 19.0518 10.3312Z" fill="white"/>
<path d="M24.2817 11.5493C24.2817 13.2606 27.1451 14.6479 29.5339 14.6479C31.9227 14.6479 33.8592 13.2606 33.8592 11.5493C33.8592 9.83795 31.9227 8.45068 29.5339 8.45068C27.1451 8.45068 24.2817 9.83795 24.2817 11.5493Z" fill="black"/>
<path d="M24.9992 11.5189C24.9992 12.9947 27.4129 14.1912 29.4265 14.1912C31.4402 14.1912 33.0726 12.9947 33.0726 11.5189C33.0726 10.0431 31.4402 8.84668 29.4265 8.84668C27.4129 8.84668 24.9992 10.0431 24.9992 11.5189Z" fill="#E6AE81"/>
<path d="M26.8222 11.5189C26.8222 12.9947 27.8716 14.1912 29.1661 14.1912C30.4606 14.1912 31.51 12.9947 31.51 11.5189C31.51 10.0431 30.4606 8.84668 29.1661 8.84668C27.8716 8.84668 26.8222 10.0431 26.8222 11.5189Z" fill="black"/>
<path d="M28.3848 10.3312C28.3848 10.8231 28.7346 11.222 29.1661 11.222C29.5976 11.222 29.9474 10.8231 29.9474 10.3312C29.9474 9.83925 29.5976 9.44043 29.1661 9.44043C28.7346 9.44043 28.3848 9.83925 28.3848 10.3312Z" fill="white"/>
<path d="M18.5026 38.9587C18.0112 38.9718 17.5923 38.2119 17.567 37.2614C17.5416 36.311 17.9195 35.5298 18.4109 35.5168C18.9024 35.5036 19.3212 36.2635 19.3466 37.214C19.3719 38.1645 18.9941 38.9456 18.5026 38.9587Z" fill="#CF9C71"/>
<path d="M21.8829 38.9587C21.3915 38.9718 20.9726 38.2119 20.9473 37.2614C20.9219 36.311 21.2998 35.5298 21.7912 35.5168C22.2826 35.5036 22.7015 36.2635 22.7269 37.214C22.7522 38.1645 22.3744 38.9456 21.8829 38.9587Z" fill="#CF9C71"/>
<path d="M20.1928 39.522C19.7014 39.535 19.2824 38.7752 19.2571 37.8247C19.2318 36.8742 19.6096 36.0931 20.1011 36.08C20.5925 36.0669 21.0114 36.8268 21.0367 37.7772C21.0621 38.7277 20.6842 39.5088 20.1928 39.522Z" fill="#CF9C71"/>
<path d="M23.1549 35.7747C23.1549 36.5525 21.7677 37.1831 20.0563 37.1831C18.345 37.1831 16.9577 36.5525 16.9577 35.7747C16.9577 34.9968 18.345 34.3662 20.0563 34.3662C21.7677 34.3662 23.1549 34.9968 23.1549 35.7747Z" fill="#E6AE81"/>
<path d="M26.39 38.9587C25.8985 38.9718 25.4796 38.2119 25.4543 37.2614C25.429 36.311 25.8068 35.5298 26.2983 35.5168C26.7897 35.5036 27.2086 36.2635 27.2339 37.214C27.2593 38.1645 26.8814 38.9456 26.39 38.9587Z" fill="#CF9C71"/>
<path d="M29.7703 38.9587C29.2788 38.9718 28.8599 38.2119 28.8346 37.2614C28.8092 36.311 29.1871 35.5298 29.6785 35.5168C30.17 35.5036 30.5888 36.2635 30.6142 37.214C30.6395 38.1645 30.2617 38.9456 29.7703 38.9587Z" fill="#CF9C71"/>
<path d="M28.0801 39.522C27.5887 39.535 27.1697 38.7752 27.1445 37.8247C27.1191 36.8742 27.497 36.0931 27.9884 36.08C28.4798 36.0669 28.8987 36.8268 28.9241 37.7772C28.9494 38.7277 28.5716 39.5088 28.0801 39.522Z" fill="#CF9C71"/>
<path d="M31.0422 35.7747C31.0422 36.5525 29.655 37.1831 27.9437 37.1831C26.2323 37.1831 24.8451 36.5525 24.8451 35.7747C24.8451 34.9968 26.2323 34.3662 27.9437 34.3662C29.655 34.3662 31.0422 34.9968 31.0422 35.7747Z" fill="#E6AE81"/>
<path d="M55.3385 34.165C54.7665 34.165 54.2568 34.0403 53.8095 33.791C53.3622 33.538 53.0102 33.1951 52.7535 32.7625C52.5005 32.3261 52.374 31.8311 52.374 31.2775C52.374 30.8595 52.4492 30.4763 52.5995 30.128C52.7498 29.776 52.9625 29.4698 53.2375 29.2095C53.5125 28.9491 53.8352 28.7475 54.2055 28.6045C54.5795 28.4615 54.9847 28.39 55.421 28.39C55.7877 28.39 56.1268 28.4395 56.4385 28.5385C56.7538 28.6338 57.0435 28.7823 57.3075 28.984L56.7245 29.908C56.5558 29.7576 56.3615 29.6458 56.1415 29.5725C55.9252 29.4991 55.6942 29.4625 55.4485 29.4625C55.0672 29.4625 54.739 29.534 54.464 29.677C54.189 29.82 53.9745 30.0271 53.8205 30.2985C53.6702 30.5661 53.595 30.8906 53.595 31.272C53.595 31.8403 53.76 32.2858 54.09 32.6085C54.4237 32.9311 54.8765 33.0925 55.4485 33.0925C55.7198 33.0925 55.9765 33.043 56.2185 32.944C56.4605 32.8413 56.6622 32.7075 56.8235 32.5425L57.401 33.461C57.1113 33.681 56.7887 33.8533 56.433 33.978C56.0773 34.1026 55.7125 34.165 55.3385 34.165Z" fill="#4B5563"/>
<path d="M60.9964 34.165C60.4281 34.165 59.9203 34.0348 59.4729 33.7745C59.0293 33.5105 58.6809 33.1603 58.4279 32.724C58.1749 32.284 58.0484 31.8018 58.0484 31.2775C58.0484 30.8888 58.1199 30.5221 58.2629 30.1775C58.4096 29.8291 58.6149 29.5211 58.8789 29.2535C59.1466 28.9858 59.4601 28.775 59.8194 28.621C60.1788 28.467 60.5729 28.39 61.0019 28.39C61.5703 28.39 62.0763 28.522 62.5199 28.786C62.9673 29.0463 63.3174 29.3965 63.5704 29.8365C63.8234 30.2728 63.9499 30.7531 63.9499 31.2775C63.9499 31.6625 63.8766 32.0291 63.7299 32.3775C63.5869 32.7258 63.3834 33.0338 63.1194 33.3015C62.8554 33.5691 62.5438 33.78 62.1844 33.934C61.8251 34.088 61.4291 34.165 60.9964 34.165ZM60.9964 33.0925C61.3338 33.0925 61.6326 33.0191 61.8929 32.8725C62.1569 32.7221 62.3641 32.5113 62.5144 32.24C62.6648 31.9686 62.7399 31.6478 62.7399 31.2775C62.7399 30.9071 62.6648 30.5863 62.5144 30.315C62.3641 30.04 62.1569 29.8291 61.8929 29.6825C61.6326 29.5358 61.3338 29.4625 60.9964 29.4625C60.6591 29.4625 60.3584 29.5358 60.0944 29.6825C59.8341 29.8291 59.6288 30.04 59.4784 30.315C59.3318 30.5863 59.2584 30.9071 59.2584 31.2775C59.2584 31.6478 59.3336 31.9686 59.4839 32.24C59.6343 32.5113 59.8396 32.7221 60.0999 32.8725C60.3639 33.0191 60.6628 33.0925 60.9964 33.0925Z" fill="#4B5563"/>
<path d="M65.2754 34V28.555H66.4854V29.303C66.632 29.0903 66.8007 28.918 66.9914 28.786C67.182 28.6503 67.3837 28.5513 67.5964 28.489C67.809 28.423 68.0254 28.39 68.2454 28.39C68.689 28.39 69.0575 28.4871 69.3509 28.6815C69.6479 28.8758 69.8569 29.1251 69.9779 29.4295C70.2492 29.0335 70.5645 28.7621 70.9239 28.6155C71.2832 28.4651 71.6444 28.39 72.0074 28.39C72.5097 28.39 72.9112 28.489 73.2119 28.687C73.5125 28.885 73.7289 29.1398 73.8609 29.4515C73.9965 29.7631 74.0644 30.084 74.0644 30.414V34H72.8544V30.766C72.8544 30.3883 72.7499 30.084 72.5409 29.853C72.3355 29.6183 72.0349 29.501 71.6389 29.501C71.3785 29.501 71.1457 29.5578 70.9404 29.6715C70.735 29.7851 70.5719 29.9428 70.4509 30.1445C70.3335 30.3425 70.2749 30.5716 70.2749 30.832V34H69.0649V30.766C69.0649 30.3883 68.9622 30.084 68.7569 29.853C68.5515 29.6183 68.249 29.501 67.8494 29.501C67.5927 29.501 67.3599 29.5578 67.1509 29.6715C66.9455 29.7851 66.7824 29.9428 66.6614 30.1445C66.544 30.3425 66.4854 30.5716 66.4854 30.832V34H65.2754Z" fill="#4B5563"/>
<path d="M75.8053 36.31V28.555H76.8943V29.3195C77.1106 29.0445 77.3874 28.8208 77.7248 28.6485C78.0621 28.4761 78.4783 28.39 78.9733 28.39C79.5049 28.39 79.9761 28.5165 80.3868 28.7695C80.8011 29.0188 81.1238 29.3616 81.3548 29.798C81.5858 30.2306 81.7013 30.7238 81.7013 31.2775C81.7013 31.6771 81.6353 32.053 81.5033 32.405C81.3713 32.7533 81.1824 33.0595 80.9368 33.3235C80.6948 33.5875 80.4051 33.7946 80.0678 33.945C79.7341 34.0916 79.3638 34.165 78.9568 34.165C78.5314 34.165 78.1574 34.088 77.8348 33.934C77.5121 33.78 77.2371 33.5728 77.0098 33.3125V36.31H75.8053ZM78.7533 33.0925C79.0906 33.0925 79.3894 33.0191 79.6498 32.8725C79.9138 32.7221 80.1191 32.5113 80.2658 32.24C80.4161 31.9686 80.4913 31.6478 80.4913 31.2775C80.4913 30.9071 80.4161 30.5863 80.2658 30.315C80.1154 30.04 79.9083 29.8291 79.6443 29.6825C79.3839 29.5358 79.0869 29.4625 78.7533 29.4625C78.4159 29.4625 78.1153 29.5358 77.8513 29.6825C77.5909 29.8291 77.3856 30.04 77.2353 30.315C77.0849 30.5863 77.0098 30.9071 77.0098 31.2775C77.0098 31.6478 77.0849 31.9686 77.2353 32.24C77.3856 32.5113 77.5909 32.7221 77.8513 32.8725C78.1153 33.0191 78.4159 33.0925 78.7533 33.0925Z" fill="#4B5563"/>
<path d="M85.5608 34.165C84.9925 34.165 84.4847 34.0348 84.0373 33.7745C83.5937 33.5105 83.2453 33.1603 82.9923 32.724C82.7393 32.284 82.6128 31.8018 82.6128 31.2775C82.6128 30.8888 82.6843 30.5221 82.8273 30.1775C82.974 29.8291 83.1793 29.5211 83.4433 29.2535C83.711 28.9858 84.0245 28.775 84.3838 28.621C84.7432 28.467 85.1373 28.39 85.5663 28.39C86.1347 28.39 86.6407 28.522 87.0843 28.786C87.5317 29.0463 87.8818 29.3965 88.1348 29.8365C88.3878 30.2728 88.5143 30.7531 88.5143 31.2775C88.5143 31.6625 88.441 32.0291 88.2943 32.3775C88.1513 32.7258 87.9478 33.0338 87.6838 33.3015C87.4198 33.5691 87.1082 33.78 86.7488 33.934C86.3895 34.088 85.9935 34.165 85.5608 34.165ZM85.5608 33.0925C85.8982 33.0925 86.197 33.0191 86.4573 32.8725C86.7213 32.7221 86.9285 32.5113 87.0788 32.24C87.2292 31.9686 87.3043 31.6478 87.3043 31.2775C87.3043 30.9071 87.2292 30.5863 87.0788 30.315C86.9285 30.04 86.7213 29.8291 86.4573 29.6825C86.197 29.5358 85.8982 29.4625 85.5608 29.4625C85.2235 29.4625 84.9228 29.5358 84.6588 29.6825C84.3985 29.8291 84.1932 30.04 84.0428 30.315C83.8962 30.5863 83.8228 30.9071 83.8228 31.2775C83.8228 31.6478 83.898 31.9686 84.0483 32.24C84.1987 32.5113 84.404 32.7221 84.6643 32.8725C84.9283 33.0191 85.2272 33.0925 85.5608 33.0925Z" fill="#4B5563"/>
<path d="M89.8397 34V28.555H91.0497V29.248C91.2771 28.9436 91.5411 28.7255 91.8417 28.5935C92.1424 28.4578 92.4541 28.39 92.7767 28.39C93.2754 28.39 93.6879 28.489 94.0142 28.687C94.3406 28.885 94.5826 29.1398 94.7402 29.4515C94.9016 29.7631 94.9822 30.084 94.9822 30.414V34H93.7722V30.788C93.7722 30.3993 93.6549 30.0876 93.4202 29.853C93.1892 29.6183 92.8666 29.501 92.4522 29.501C92.1809 29.501 91.9389 29.5615 91.7262 29.6825C91.5172 29.8035 91.3522 29.9721 91.2312 30.1885C91.1102 30.4011 91.0497 30.6505 91.0497 30.9365V34H89.8397Z" fill="#4B5563"/>
<path d="M99.2033 34.165C98.6166 34.165 98.1015 34.0458 97.6578 33.8075C97.2141 33.5655 96.8676 33.2281 96.6183 32.7955C96.3726 32.3628 96.2498 31.8605 96.2498 31.2885C96.2498 30.8705 96.3213 30.4855 96.4643 30.1335C96.6073 29.7778 96.809 29.4698 97.0693 29.2095C97.3296 28.9491 97.634 28.7475 97.9823 28.6045C98.3343 28.4615 98.7175 28.39 99.1318 28.39C99.5828 28.39 99.9843 28.4706 100.336 28.632C100.688 28.7896 100.98 29.0115 101.211 29.2975C101.445 29.5835 101.61 29.919 101.706 30.304C101.805 30.6853 101.821 31.0996 101.755 31.547H97.4103C97.403 31.8733 97.4745 32.1593 97.6248 32.405C97.7751 32.647 97.9896 32.8358 98.2683 32.9715C98.5506 33.1071 98.8825 33.175 99.2638 33.175C99.5718 33.175 99.8688 33.1291 100.155 33.0375C100.444 32.9421 100.707 32.8028 100.941 32.6195L101.409 33.4885C101.233 33.6315 101.02 33.7543 100.771 33.857C100.521 33.956 100.261 34.0311 99.9898 34.0825C99.7185 34.1375 99.4563 34.165 99.2033 34.165ZM97.4818 30.656H100.567C100.556 30.2453 100.424 29.9226 100.171 29.688C99.922 29.4533 99.5663 29.336 99.1043 29.336C98.657 29.336 98.2848 29.4533 97.9878 29.688C97.6945 29.9226 97.5258 30.2453 97.4818 30.656Z" fill="#4B5563"/>
<path d="M103.122 34V28.555H104.332V29.248C104.56 28.9436 104.824 28.7255 105.124 28.5935C105.425 28.4578 105.737 28.39 106.059 28.39C106.558 28.39 106.97 28.489 107.297 28.687C107.623 28.885 107.865 29.1398 108.023 29.4515C108.184 29.7631 108.265 30.084 108.265 30.414V34H107.055V30.788C107.055 30.3993 106.937 30.0876 106.703 29.853C106.472 29.6183 106.149 29.501 105.735 29.501C105.463 29.501 105.221 29.5615 105.009 29.6825C104.8 29.8035 104.635 29.9721 104.514 30.1885C104.393 30.4011 104.332 30.6505 104.332 30.9365V34H103.122Z" fill="#4B5563"/>
<path d="M112.18 34.165C111.649 34.165 111.223 34.011 110.904 33.703C110.585 33.395 110.426 32.9238 110.426 32.2895V26.9655H111.636V28.555H113.148V29.556H111.636V32.0255C111.636 32.4068 111.707 32.6763 111.85 32.834C111.997 32.988 112.202 33.065 112.466 33.065C112.595 33.065 112.716 33.0503 112.829 33.021C112.943 32.9916 113.046 32.9531 113.137 32.9055L113.352 33.8845C113.194 33.9651 113.013 34.0311 112.807 34.0825C112.606 34.1375 112.397 34.165 112.18 34.165ZM109.232 29.556V28.555H110.585V29.556H109.232Z" fill="#4B5563"/>
<path d="M117.535 34V26.08H118.745V34H117.535Z" fill="#4B5563"/>
<path d="M120.535 34V28.555H121.745V34H120.535ZM121.14 27.5815C120.924 27.5815 120.737 27.5118 120.579 27.3725C120.421 27.2331 120.342 27.0498 120.342 26.8225C120.342 26.5988 120.421 26.4173 120.579 26.278C120.737 26.135 120.924 26.0635 121.14 26.0635C121.356 26.0635 121.543 26.135 121.701 26.278C121.859 26.4173 121.937 26.5988 121.937 26.8225C121.937 27.0498 121.859 27.2331 121.701 27.3725C121.543 27.5118 121.356 27.5815 121.14 27.5815Z" fill="#4B5563"/>
<path d="M126.703 34.165C126.34 34.165 126.011 34.1118 125.718 34.0055C125.428 33.8991 125.177 33.7525 124.965 33.5655C124.752 33.3748 124.58 33.1566 124.448 32.911L124.624 32.6415V34H123.535V26.08H124.739V29.809L124.492 29.5395C124.734 29.1875 125.036 28.9088 125.399 28.7035C125.762 28.4945 126.191 28.39 126.686 28.39C127.229 28.39 127.705 28.5201 128.116 28.7805C128.53 29.0371 128.853 29.3836 129.084 29.82C129.315 30.2563 129.431 30.7421 129.431 31.2775C129.431 31.6918 129.363 32.075 129.227 32.427C129.095 32.779 128.908 33.0851 128.666 33.3455C128.424 33.6021 128.136 33.8038 127.803 33.9505C127.469 34.0935 127.102 34.165 126.703 34.165ZM126.483 33.0925C126.816 33.0925 127.113 33.0191 127.374 32.8725C127.638 32.7221 127.845 32.5113 127.995 32.24C128.145 31.9686 128.221 31.6478 128.221 31.2775C128.221 30.9071 128.145 30.5863 127.995 30.315C127.848 30.04 127.643 29.8291 127.379 29.6825C127.119 29.5358 126.82 29.4625 126.483 29.4625C126.145 29.4625 125.845 29.5358 125.581 29.6825C125.32 29.8291 125.115 30.04 124.965 30.315C124.814 30.5863 124.739 30.9071 124.739 31.2775C124.739 31.6478 124.814 31.9686 124.965 32.24C125.115 32.5113 125.32 32.7221 125.581 32.8725C125.845 33.0191 126.145 33.0925 126.483 33.0925Z" fill="#4B5563"/>
<path d="M130.756 34V28.555H131.966V29.3085C132.171 28.9675 132.421 28.7291 132.714 28.5935C133.007 28.4541 133.323 28.3845 133.66 28.3845C133.77 28.3845 133.874 28.39 133.973 28.401C134.072 28.412 134.168 28.4285 134.259 28.4505L134.1 29.699C133.99 29.666 133.878 29.6403 133.764 29.622C133.651 29.6036 133.537 29.5945 133.423 29.5945C133.002 29.5945 132.653 29.7246 132.378 29.985C132.103 30.2416 131.966 30.5918 131.966 31.0355V34H130.756Z" fill="#4B5563"/>
<path d="M136.89 34.165C136.512 34.165 136.181 34.0953 135.895 33.956C135.609 33.813 135.385 33.6131 135.224 33.3565C135.066 33.0961 134.987 32.79 134.987 32.438C134.987 32.141 135.062 31.8733 135.213 31.635C135.363 31.393 135.596 31.1931 135.911 31.0355C136.23 30.8778 136.639 30.7733 137.138 30.722C137.636 30.667 138.236 30.6743 138.936 30.744L138.958 31.58C138.459 31.5103 138.03 31.481 137.671 31.492C137.312 31.503 137.017 31.5488 136.786 31.6295C136.558 31.7065 136.39 31.811 136.28 31.943C136.173 32.0713 136.12 32.2198 136.12 32.3885C136.12 32.6525 136.214 32.856 136.401 32.999C136.591 33.142 136.852 33.2135 137.182 33.2135C137.464 33.2135 137.717 33.1621 137.941 33.0595C138.164 32.9568 138.34 32.812 138.469 32.625C138.601 32.438 138.667 32.218 138.667 31.965V30.5185C138.667 30.2765 138.615 30.0675 138.513 29.8915C138.41 29.7118 138.254 29.5725 138.045 29.4735C137.836 29.3745 137.576 29.325 137.264 29.325C136.978 29.325 136.696 29.369 136.417 29.457C136.138 29.5413 135.873 29.6751 135.62 29.8585L135.279 28.9675C135.62 28.7365 135.975 28.5733 136.346 28.478C136.716 28.3826 137.072 28.335 137.413 28.335C137.919 28.335 138.351 28.4156 138.711 28.577C139.074 28.7346 139.352 28.9748 139.547 29.2975C139.741 29.6165 139.838 30.0198 139.838 30.5075V34H138.749V33.3565C138.566 33.6168 138.311 33.8166 137.985 33.956C137.658 34.0953 137.293 34.165 136.89 34.165Z" fill="#4B5563"/>
<path d="M141.557 34V28.555H142.767V29.3085C142.972 28.9675 143.222 28.7291 143.515 28.5935C143.808 28.4541 144.124 28.3845 144.461 28.3845C144.571 28.3845 144.675 28.39 144.774 28.401C144.873 28.412 144.969 28.4285 145.06 28.4505L144.901 29.699C144.791 29.666 144.679 29.6403 144.565 29.622C144.452 29.6036 144.338 29.5945 144.224 29.5945C143.803 29.5945 143.454 29.7246 143.179 29.985C142.904 30.2416 142.767 30.5918 142.767 31.0355V34H141.557Z" fill="#4B5563"/>
<path d="M146.797 36.464C146.599 36.464 146.404 36.442 146.214 36.398C146.023 36.354 145.836 36.2788 145.653 36.1725L145.928 35.1385C146.041 35.2118 146.166 35.2668 146.302 35.3035C146.437 35.3401 146.558 35.3585 146.665 35.3585C146.921 35.3585 147.123 35.298 147.27 35.177C147.416 35.056 147.532 34.869 147.616 34.616L147.798 34.088L145.653 28.555H146.978L148.485 32.779L149.954 28.555H151.235L148.881 34.7865C148.712 35.2228 148.524 35.562 148.315 35.804C148.106 36.0496 147.875 36.2201 147.622 36.3155C147.369 36.4145 147.094 36.464 146.797 36.464Z" fill="#4B5563"/>
<path d="M57.6502 21.3001C56.6168 21.3001 55.6135 21.1501 54.6402 20.8501C53.6668 20.5501 52.8435 20.1134 52.1702 19.5401L53.5802 17.3201C53.8868 17.6268 54.2635 17.8901 54.7102 18.1101C55.1635 18.3301 55.6435 18.5001 56.1502 18.6201C56.6635 18.7334 57.1668 18.7901 57.6602 18.7901C58.4202 18.7901 59.0368 18.6568 59.5102 18.3901C59.9835 18.1234 60.2202 17.7334 60.2202 17.2201C60.2202 16.8068 60.0535 16.4634 59.7202 16.1901C59.3868 15.9101 58.7668 15.6434 57.8602 15.3901L56.5802 15.0301C55.1735 14.6368 54.1602 14.1034 53.5402 13.4301C52.9202 12.7568 52.6102 11.9401 52.6102 10.9801C52.6102 10.3534 52.7402 9.7801 53.0002 9.2601C53.2602 8.7401 53.6235 8.2901 54.0902 7.9101C54.5635 7.5301 55.1202 7.23676 55.7602 7.0301C56.4068 6.81676 57.1068 6.7101 57.8602 6.7101C58.8802 6.7101 59.8268 6.8601 60.7002 7.1601C61.5802 7.45343 62.2935 7.85676 62.8402 8.3701L61.3802 10.5201C61.1135 10.2534 60.7902 10.0234 60.4102 9.8301C60.0368 9.63676 59.6302 9.48676 59.1902 9.3801C58.7502 9.26676 58.3068 9.2101 57.8602 9.2101C57.3802 9.2101 56.9568 9.27676 56.5902 9.4101C56.2302 9.53676 55.9502 9.72343 55.7502 9.9701C55.5502 10.2101 55.4502 10.5001 55.4502 10.8401C55.4502 11.1001 55.5202 11.3234 55.6602 11.5101C55.8068 11.6901 56.0502 11.8601 56.3902 12.0201C56.7368 12.1801 57.2102 12.3468 57.8102 12.5201L59.1302 12.9101C60.5168 13.3168 61.5235 13.8334 62.1502 14.4601C62.7768 15.0868 63.0902 15.9001 63.0902 16.9001C63.0902 17.7668 62.8702 18.5334 62.4302 19.2001C61.9968 19.8601 61.3702 20.3768 60.5502 20.7501C59.7368 21.1168 58.7702 21.3001 57.6502 21.3001Z" fill="#1F2937"/>
<path d="M64.7755 21.0001V10.9001H67.6955V12.0401C68.0821 11.5334 68.5388 11.1668 69.0655 10.9401C69.5988 10.7134 70.1555 10.6001 70.7355 10.6001C71.6755 10.6001 72.4488 10.7868 73.0555 11.1601C73.6688 11.5268 74.1221 12.0034 74.4155 12.5901C74.7155 13.1768 74.8655 13.7934 74.8655 14.4401V21.0001H71.9455V15.3501C71.9455 14.7101 71.7655 14.2001 71.4055 13.8201C71.0521 13.4401 70.5388 13.2501 69.8655 13.2501C69.4388 13.2501 69.0621 13.3468 68.7355 13.5401C68.4088 13.7268 68.1521 13.9901 67.9655 14.3301C67.7855 14.6701 67.6955 15.0634 67.6955 15.5101V21.0001H64.7755Z" fill="#1F2937"/>
<path d="M81.8575 21.3001C80.7708 21.3001 79.8075 21.0568 78.9675 20.5701C78.1275 20.0834 77.4675 19.4368 76.9875 18.6301C76.5142 17.8168 76.2775 16.9234 76.2775 15.9501C76.2775 15.2368 76.4142 14.5601 76.6875 13.9201C76.9608 13.2734 77.3475 12.7034 77.8475 12.2101C78.3475 11.7101 78.9375 11.3168 79.6175 11.0301C80.2975 10.7434 81.0442 10.6001 81.8575 10.6001C82.9442 10.6001 83.9042 10.8434 84.7375 11.3301C85.5775 11.8168 86.2342 12.4668 86.7075 13.2801C87.1875 14.0868 87.4275 14.9768 87.4275 15.9501C87.4275 16.6568 87.2908 17.3334 87.0175 17.9801C86.7442 18.6268 86.3575 19.2001 85.8575 19.7001C85.3642 20.1934 84.7775 20.5834 84.0975 20.8701C83.4175 21.1568 82.6708 21.3001 81.8575 21.3001ZM81.8575 18.7701C82.3708 18.7701 82.8308 18.6568 83.2375 18.4301C83.6442 18.1968 83.9642 17.8701 84.1975 17.4501C84.4308 17.0234 84.5475 16.5234 84.5475 15.9501C84.5475 15.3701 84.4308 14.8701 84.1975 14.4501C83.9708 14.0301 83.6542 13.7068 83.2475 13.4801C82.8408 13.2468 82.3775 13.1301 81.8575 13.1301C81.3375 13.1301 80.8708 13.2468 80.4575 13.4801C80.0508 13.7068 79.7308 14.0301 79.4975 14.4501C79.2708 14.8701 79.1575 15.3701 79.1575 15.9501C79.1575 16.5301 79.2742 17.0301 79.5075 17.4501C79.7408 17.8701 80.0608 18.1968 80.4675 18.4301C80.8742 18.6568 81.3375 18.7701 81.8575 18.7701Z" fill="#1F2937"/>
<path d="M90.6841 21.0001L87.6141 10.9001H90.4641L92.2641 17.6401L94.3041 10.9001H97.0341L98.9841 17.6401L100.784 10.9001H103.514L100.444 21.0001H97.5141L95.6141 14.5001L93.6141 21.0001H90.6841Z" fill="#1F2937"/>
<path d="M106.128 25.4701C105.701 25.4701 105.281 25.4268 104.868 25.3401C104.455 25.2534 104.065 25.1101 103.698 24.9101L104.328 22.4501C104.541 22.5701 104.775 22.6634 105.028 22.7301C105.288 22.7968 105.528 22.8301 105.748 22.8301C106.148 22.8301 106.478 22.7434 106.738 22.5701C106.998 22.3968 107.191 22.1134 107.318 21.7201L107.528 21.0801L103.588 10.9001H106.758L109.178 18.1201L111.528 10.9001H114.618L110.378 22.1501C110.045 22.9901 109.661 23.6501 109.228 24.1301C108.795 24.6168 108.318 24.9601 107.798 25.1601C107.278 25.3668 106.721 25.4701 106.128 25.4701Z" fill="#1F2937"/>
<path d="M122.497 21.3001C121.43 21.3001 120.443 21.1168 119.537 20.7501C118.63 20.3768 117.843 19.8601 117.177 19.2001C116.51 18.5401 115.99 17.7668 115.617 16.8801C115.25 15.9934 115.067 15.0334 115.067 14.0001C115.067 12.9601 115.25 11.9968 115.617 11.1101C115.99 10.2234 116.51 9.4501 117.177 8.7901C117.843 8.1301 118.63 7.61676 119.537 7.2501C120.443 6.88343 121.43 6.7001 122.497 6.7001C123.563 6.7001 124.547 6.88676 125.447 7.2601C126.353 7.63343 127.14 8.15343 127.807 8.8201C128.48 9.48676 129.003 10.2634 129.377 11.1501C129.75 12.0301 129.937 12.9801 129.937 14.0001C129.937 15.0334 129.75 15.9934 129.377 16.8801C129.003 17.7668 128.48 18.5401 127.807 19.2001C127.14 19.8601 126.353 20.3768 125.447 20.7501C124.547 21.1168 123.563 21.3001 122.497 21.3001ZM122.497 18.5201C123.117 18.5201 123.69 18.4134 124.217 18.2001C124.743 17.9868 125.203 17.6834 125.597 17.2901C125.99 16.8901 126.293 16.4134 126.507 15.8601C126.727 15.3068 126.837 14.6868 126.837 14.0001C126.837 13.0868 126.647 12.2934 126.267 11.6201C125.887 10.9401 125.37 10.4134 124.717 10.0401C124.063 9.66676 123.323 9.4801 122.497 9.4801C121.883 9.4801 121.31 9.58676 120.777 9.8001C120.25 10.0134 119.79 10.3168 119.397 10.7101C119.01 11.1034 118.707 11.5801 118.487 12.1401C118.273 12.6934 118.167 13.3134 118.167 14.0001C118.167 14.9134 118.357 15.7101 118.737 16.3901C119.117 17.0634 119.633 17.5868 120.287 17.9601C120.94 18.3334 121.677 18.5201 122.497 18.5201Z" fill="#1F2937"/>
<path d="M133.54 21.0001L130.47 10.9001H133.32L135.12 17.6401L137.16 10.9001H139.89L141.84 17.6401L143.64 10.9001H146.37L143.3 21.0001H140.37L138.47 14.5001L136.47 21.0001H133.54Z" fill="#1F2937"/>
<path d="M147.498 21.0001V6.6001H150.418V21.0001H147.498Z" fill="#1F2937"/>
</svg>
