<svg width="180" height="40" viewBox="0 0 180 40" fill="none" xmlns="http://www.w3.org/2000/svg">
<path d="M41.1831 24.507C41.1831 31.1966 33.6161 36.6196 24.2817 36.6196C14.9473 36.6196 7.38028 31.1966 7.38028 24.507C7.38028 17.8173 14.9473 12.3943 24.2817 12.3943C33.6161 12.3943 41.1831 17.8173 41.1831 24.507Z" fill="#D1D9DC"/>
<path d="M34.9859 19.4366C34.9859 25.504 30.0674 30.4225 24 30.4225C17.9326 30.4225 13.0141 25.504 13.0141 19.4366C13.0141 13.3692 17.9326 8.45068 24 8.45068C30.0674 8.45068 34.9859 13.3692 34.9859 19.4366Z" fill="white"/>
<path d="M36.6761 12.1126C36.6761 18.18 31.0008 23.0985 24 23.0985C16.9992 23.0985 11.3239 18.18 11.3239 12.1126C11.3239 6.04524 16.9992 1.12671 24 1.12671C31.0008 1.12671 36.6761 6.04524 36.6761 12.1126Z" fill="#CCD3DD"/>
<path d="M13.2958 26.1971C13.2958 32.8868 16.874 35.4929 13.2958 35.4929C9.71758 35.4929 4 32.8868 4 26.1971C4 19.5075 6.90069 14.0845 10.4789 14.0845C14.0571 14.0845 13.2958 19.5075 13.2958 26.1971Z" fill="#DEE6EB"/>
<path d="M34.3227 26.1971C34.3227 32.8868 30.7445 35.4929 34.3227 35.4929C37.9009 35.4929 43.6185 32.8868 43.6185 26.1971C43.6185 19.5075 40.7178 14.0845 37.1396 14.0845C33.5614 14.0845 34.3227 19.5075 34.3227 26.1971Z" fill="#DEE6EB"/>
<path d="M33.7005 2.93492C29.7094 1.62521 25.6088 3.19974 24.5417 6.45172C23.9974 8.11048 24.3492 9.88412 25.3526 11.3988C24.9395 10.2527 24.8798 9.0351 25.261 7.87364C26.3281 4.62165 30.4286 3.04712 34.4197 4.35683C36.375 4.99848 37.9401 6.2142 38.9037 7.66907C38.1602 5.60623 36.266 3.77683 33.7005 2.93492Z" fill="#A8B2BE"/>
<path d="M14.607 2.37144C18.5981 1.06174 22.6986 2.63626 23.7657 5.88824C24.3101 7.54705 23.9582 9.32063 22.9549 10.8353C23.3679 9.68919 23.4277 8.47167 23.0465 7.31015C21.9793 4.05817 17.8788 2.48365 13.8877 3.79335C11.9324 4.43501 10.3673 5.65072 9.40371 7.10559C10.1472 5.04275 12.0414 3.21335 14.607 2.37144Z" fill="#A8B2BE"/>
<path d="M30.1972 3.9436C34.3976 3.9436 37.8028 6.7182 37.8028 10.1408C37.8028 13.5634 34.3976 16.338 30.1972 16.338C27.6397 16.338 25.3788 15.3078 24 13.7307C22.6212 15.3078 20.3603 16.338 17.8028 16.338C13.6024 16.338 10.1972 13.5634 10.1972 10.1408C10.1972 6.7182 13.6024 3.9436 17.8028 3.9436C20.3602 3.9436 22.6212 4.97336 24 6.55036C25.3788 4.97336 27.6398 3.9436 30.1972 3.9436Z" fill="black"/>
<path d="M30.1972 4.50708C34.3976 4.50708 37.8028 7.28167 37.8028 10.7043C37.8028 14.1269 34.3976 16.9014 30.1972 16.9014C27.7537 16.9014 25.5807 15.9613 24.1892 14.5021C22.8341 16.2843 20.481 17.4648 17.8028 17.4648C13.6024 17.4648 10.1972 14.5642 10.1972 10.986C10.1972 7.40776 13.6024 4.50708 17.8028 4.50708C20.3288 4.50708 22.5662 5.55704 23.9494 7.17159C25.323 5.56178 27.6086 4.50708 30.1972 4.50708Z" fill="#F7F7F7"/>
<path d="M22.8632 12.2991C23.2962 11.8797 23.9827 11.8754 24.4209 12.2894L28.7815 16.4089C29.4113 17.004 29.1619 18.0576 28.3321 18.307L23.9659 19.6194C23.7518 19.6838 23.5233 19.6831 23.3096 19.6172L19.0596 18.3073C18.2408 18.055 17.9921 17.0173 18.6076 16.4212L22.8632 12.2991Z" fill="#A8B2BE"/>
<path d="M23.1605 15.0755L22.1383 17.1669C22.0682 17.3103 22.0622 17.4767 22.1217 17.6247L23.1448 20.1662C23.3311 20.629 23.9826 20.6392 24.1833 20.1824L25.2985 17.6425C25.3679 17.4844 25.3611 17.3032 25.2798 17.1509L24.1638 15.0578C23.9474 14.6521 23.3624 14.6624 23.1605 15.0755Z" fill="black"/>
<path d="M23.1549 11.5493C23.1549 13.2606 20.2915 14.6479 17.9028 14.6479C15.514 14.6479 13.5775 13.2606 13.5775 11.5493C13.5775 9.83795 15.514 8.45068 17.9028 8.45068C20.2915 8.45068 23.1549 9.83795 23.1549 11.5493Z" fill="black"/>
<path d="M22.4374 11.5189C22.4374 12.9947 20.0237 14.1912 18.0101 14.1912C15.9965 14.1912 14.3641 12.9947 14.3641 11.5189C14.3641 10.0431 15.9965 8.84668 18.0101 8.84668C20.0237 8.84668 22.4374 10.0431 22.4374 11.5189Z" fill="#E6AE81"/>
<path d="M20.6144 11.5189C20.6144 12.9947 19.565 14.1912 18.2705 14.1912C16.9761 14.1912 15.9266 12.9947 15.9266 11.5189C15.9266 10.0431 16.9761 8.84668 18.2705 8.84668C19.565 8.84668 20.6144 10.0431 20.6144 11.5189Z" fill="black"/>
<path d="M19.0518 10.3312C19.0518 10.8231 18.702 11.222 18.2705 11.222C17.839 11.222 17.4892 10.8231 17.4892 10.3312C17.4892 9.83925 17.839 9.44043 18.2705 9.44043C18.702 9.44043 19.0518 9.83925 19.0518 10.3312Z" fill="white"/>
<path d="M24.2817 11.5493C24.2817 13.2606 27.1451 14.6479 29.5339 14.6479C31.9226 14.6479 33.8592 13.2606 33.8592 11.5493C33.8592 9.83795 31.9226 8.45068 29.5339 8.45068C27.1451 8.45068 24.2817 9.83795 24.2817 11.5493Z" fill="black"/>
<path d="M24.9992 11.5189C24.9992 12.9947 27.4129 14.1912 29.4265 14.1912C31.4402 14.1912 33.0726 12.9947 33.0726 11.5189C33.0726 10.0431 31.4402 8.84668 29.4265 8.84668C27.4129 8.84668 24.9992 10.0431 24.9992 11.5189Z" fill="#E6AE81"/>
<path d="M26.8222 11.5189C26.8222 12.9947 27.8716 14.1912 29.1661 14.1912C30.4606 14.1912 31.51 12.9947 31.51 11.5189C31.51 10.0431 30.4606 8.84668 29.1661 8.84668C27.8716 8.84668 26.8222 10.0431 26.8222 11.5189Z" fill="black"/>
<path d="M28.3848 10.3312C28.3848 10.8231 28.7346 11.222 29.1661 11.222C29.5976 11.222 29.9474 10.8231 29.9474 10.3312C29.9474 9.83925 29.5976 9.44043 29.1661 9.44043C28.7346 9.44043 28.3848 9.83925 28.3848 10.3312Z" fill="white"/>
<path d="M18.5026 38.9587C18.0112 38.9718 17.5923 38.2119 17.567 37.2614C17.5416 36.311 17.9195 35.5298 18.4109 35.5168C18.9024 35.5036 19.3212 36.2635 19.3466 37.214C19.3719 38.1645 18.9941 38.9456 18.5026 38.9587Z" fill="#CF9C71"/>
<path d="M21.8829 38.9587C21.3915 38.9718 20.9726 38.2119 20.9473 37.2614C20.9219 36.311 21.2998 35.5298 21.7912 35.5168C22.2826 35.5036 22.7015 36.2635 22.7269 37.214C22.7522 38.1645 22.3744 38.9456 21.8829 38.9587Z" fill="#CF9C71"/>
<path d="M20.1928 39.522C19.7014 39.535 19.2824 38.7752 19.2571 37.8247C19.2318 36.8742 19.6096 36.0931 20.1011 36.08C20.5925 36.0669 21.0114 36.8268 21.0367 37.7772C21.0621 38.7277 20.6842 39.5088 20.1928 39.522Z" fill="#CF9C71"/>
<path d="M23.1549 35.7747C23.1549 36.5525 21.7677 37.1831 20.0563 37.1831C18.345 37.1831 16.9577 36.5525 16.9577 35.7747C16.9577 34.9968 18.345 34.3662 20.0563 34.3662C21.7677 34.3662 23.1549 34.9968 23.1549 35.7747Z" fill="#E6AE81"/>
<path d="M26.39 38.9587C25.8985 38.9718 25.4796 38.2119 25.4543 37.2614C25.429 36.311 25.8068 35.5298 26.2983 35.5168C26.7897 35.5036 27.2086 36.2635 27.2339 37.214C27.2593 38.1645 26.8814 38.9456 26.39 38.9587Z" fill="#CF9C71"/>
<path d="M29.7703 38.9587C29.2788 38.9718 28.8599 38.2119 28.8346 37.2614C28.8092 36.311 29.1871 35.5298 29.6785 35.5168C30.17 35.5036 30.5888 36.2635 30.6142 37.214C30.6395 38.1645 30.2617 38.9456 29.7703 38.9587Z" fill="#CF9C71"/>
<path d="M28.0801 39.522C27.5887 39.535 27.1697 38.7752 27.1445 37.8247C27.1191 36.8742 27.497 36.0931 27.9884 36.08C28.4798 36.0669 28.8987 36.8268 28.9241 37.7772C28.9494 38.7277 28.5715 39.5088 28.0801 39.522Z" fill="#CF9C71"/>
<path d="M31.0423 35.7747C31.0423 36.5525 29.655 37.1831 27.9437 37.1831C26.2323 37.1831 24.8451 36.5525 24.8451 35.7747C24.8451 34.9968 26.2323 34.3662 27.9437 34.3662C29.655 34.3662 31.0423 34.9968 31.0423 35.7747Z" fill="#E6AE81"/>
<path d="M57.9455 35.1951C57.2695 35.1951 56.6672 35.0478 56.1385 34.7531C55.6098 34.4541 55.1938 34.0489 54.8905 33.5376C54.5915 33.0219 54.442 32.4369 54.442 31.7826C54.442 31.2886 54.5308 30.8358 54.7085 30.4241C54.8862 30.0081 55.1375 29.6463 55.4625 29.3386C55.7875 29.0309 56.1688 28.7926 56.6065 28.6236C57.0485 28.4546 57.5273 28.3701 58.043 28.3701C58.4763 28.3701 58.8772 28.4286 59.2455 28.5456C59.6182 28.6583 59.9605 28.8338 60.2725 29.0721L59.5835 30.1641C59.3842 29.9864 59.1545 29.8543 58.8945 29.7676C58.6388 29.6809 58.3658 29.6376 58.0755 29.6376C57.6248 29.6376 57.237 29.7221 56.912 29.8911C56.587 30.0601 56.3335 30.3049 56.1515 30.6256C55.9738 30.9419 55.885 31.3254 55.885 31.7761C55.885 32.4478 56.08 32.9743 56.47 33.3556C56.8643 33.7369 57.3995 33.9276 58.0755 33.9276C58.3962 33.9276 58.6995 33.8691 58.9855 33.7521C59.2715 33.6308 59.5098 33.4726 59.7005 33.2776L60.383 34.3631C60.0407 34.6231 59.6593 34.8268 59.239 34.9741C58.8187 35.1214 58.3875 35.1951 57.9455 35.1951Z" fill="#4B5563"/>
<path d="M64.6322 35.1951C63.9605 35.1951 63.3603 35.0413 62.8317 34.7336C62.3073 34.4216 61.8957 34.0078 61.5967 33.4921C61.2977 32.9721 61.1482 32.4023 61.1482 31.7826C61.1482 31.3233 61.2327 30.8899 61.4017 30.4826C61.575 30.0709 61.8177 29.7069 62.1297 29.3906C62.446 29.0743 62.8165 28.8251 63.2412 28.6431C63.6658 28.4611 64.1317 28.3701 64.6387 28.3701C65.3103 28.3701 65.9083 28.5261 66.4327 28.8381C66.9613 29.1458 67.3752 29.5596 67.6742 30.0796C67.9732 30.5953 68.1227 31.1629 68.1227 31.7826C68.1227 32.2376 68.036 32.6709 67.8627 33.0826C67.6937 33.4943 67.4532 33.8583 67.1412 34.1746C66.8292 34.4909 66.4608 34.7401 66.0362 34.9221C65.6115 35.1041 65.1435 35.1951 64.6322 35.1951ZM64.6322 33.9276C65.0308 33.9276 65.384 33.8409 65.6917 33.6676C66.0037 33.4899 66.2485 33.2408 66.4262 32.9201C66.6038 32.5994 66.6927 32.2203 66.6927 31.7826C66.6927 31.3449 66.6038 30.9658 66.4262 30.6451C66.2485 30.3201 66.0037 30.0709 65.6917 29.8976C65.384 29.7243 65.0308 29.6376 64.6322 29.6376C64.2335 29.6376 63.8782 29.7243 63.5662 29.8976C63.2585 30.0709 63.0158 30.3201 62.8382 30.6451C62.6648 30.9658 62.5782 31.3449 62.5782 31.7826C62.5782 32.2203 62.667 32.5994 62.8447 32.9201C63.0223 33.2408 63.265 33.4899 63.5727 33.6676C63.8847 33.8409 64.2378 33.9276 64.6322 33.9276Z" fill="#4B5563"/>
<path d="M69.6891 35.0001V28.5651H71.1191V29.4491C71.2924 29.1978 71.4917 28.9941 71.7171 28.8381C71.9424 28.6778 72.1807 28.5608 72.4321 28.4871C72.6834 28.4091 72.9391 28.3701 73.1991 28.3701C73.7234 28.3701 74.1589 28.4849 74.5056 28.7146C74.8566 28.9443 75.1036 29.2389 75.2466 29.5986C75.5672 29.1306 75.9399 28.8099 76.3646 28.6366C76.7892 28.4589 77.2161 28.3701 77.6451 28.3701C78.2387 28.3701 78.7132 28.4871 79.0686 28.7211C79.4239 28.9551 79.6796 29.2563 79.8356 29.6246C79.9959 29.9929 80.0761 30.3721 80.0761 30.7621V35.0001H78.6461V31.1781C78.6461 30.7318 78.5226 30.3721 78.2756 30.0991C78.0329 29.8218 77.6776 29.6831 77.2096 29.6831C76.9019 29.6831 76.6267 29.7503 76.3841 29.8846C76.1414 30.0189 75.9486 30.2053 75.8056 30.4436C75.6669 30.6776 75.5976 30.9484 75.5976 31.2561V35.0001H74.1676V31.1781C74.1676 30.7318 74.0462 30.3721 73.8036 30.0991C73.5609 29.8218 73.2034 29.6831 72.7311 29.6831C72.4277 29.6831 72.1526 29.7503 71.9056 29.8846C71.6629 30.0189 71.4701 30.2053 71.3271 30.4436C71.1884 30.6776 71.1191 30.9484 71.1191 31.2561V35.0001H69.6891Z" fill="#4B5563"/>
<path d="M82.1335 37.7301V28.5651H83.4205V29.4686C83.6762 29.1436 84.0034 28.8793 84.402 28.6756C84.8007 28.4719 85.2925 28.3701 85.8775 28.3701C86.5059 28.3701 87.0627 28.5196 87.548 28.8186C88.0377 29.1133 88.419 29.5184 88.692 30.0341C88.965 30.5454 89.1015 31.1283 89.1015 31.7826C89.1015 32.2549 89.0235 32.6991 88.8675 33.1151C88.7115 33.5268 88.4884 33.8886 88.198 34.2006C87.912 34.5126 87.5697 34.7574 87.171 34.9351C86.7767 35.1084 86.339 35.1951 85.858 35.1951C85.3554 35.1951 84.9134 35.1041 84.532 34.9221C84.1507 34.7401 83.8257 34.4953 83.557 34.1876V37.7301H82.1335ZM85.6175 33.9276C86.0162 33.9276 86.3694 33.8409 86.677 33.6676C86.989 33.4899 87.2317 33.2408 87.405 32.9201C87.5827 32.5994 87.6715 32.2203 87.6715 31.7826C87.6715 31.3449 87.5827 30.9658 87.405 30.6451C87.2274 30.3201 86.9825 30.0709 86.6705 29.8976C86.3629 29.7243 86.0119 29.6376 85.6175 29.6376C85.2189 29.6376 84.8635 29.7243 84.5515 29.8976C84.2439 30.0709 84.0012 30.3201 83.8235 30.6451C83.6459 30.9658 83.557 31.3449 83.557 31.7826C83.557 32.2203 83.6459 32.5994 83.8235 32.9201C84.0012 33.2408 84.2439 33.4899 84.5515 33.6676C84.8635 33.8409 85.2189 33.9276 85.6175 33.9276Z" fill="#4B5563"/>
<path d="M93.6628 35.1951C92.9911 35.1951 92.391 35.0413 91.8623 34.7336C91.338 34.4216 90.9263 34.0078 90.6273 33.4921C90.3283 32.9721 90.1788 32.4023 90.1788 31.7826C90.1788 31.3233 90.2633 30.8899 90.4323 30.4826C90.6056 30.0709 90.8483 29.7069 91.1603 29.3906C91.4766 29.0743 91.8471 28.8251 92.2718 28.6431C92.6965 28.4611 93.1623 28.3701 93.6693 28.3701C94.341 28.3701 94.939 28.5261 95.4633 28.8381C95.992 29.1458 96.4058 29.5596 96.7048 30.0796C97.0038 30.5953 97.1533 31.1629 97.1533 31.7826C97.1533 32.2376 97.0666 32.6709 96.8933 33.0826C96.7243 33.4943 96.4838 33.8583 96.1718 34.1746C95.8598 34.4909 95.4915 34.7401 95.0668 34.9221C94.6421 35.1041 94.1741 35.1951 93.6628 35.1951ZM93.6628 33.9276C94.0615 33.9276 94.4146 33.8409 94.7223 33.6676C95.0343 33.4899 95.2791 33.2408 95.4568 32.9201C95.6345 32.5994 95.7233 32.2203 95.7233 31.7826C95.7233 31.3449 95.6345 30.9658 95.4568 30.6451C95.2791 30.3201 95.0343 30.0709 94.7223 29.8976C94.4146 29.7243 94.0615 29.6376 93.6628 29.6376C93.2641 29.6376 92.9088 29.7243 92.5968 29.8976C92.2891 30.0709 92.0465 30.3201 91.8688 30.6451C91.6955 30.9658 91.6088 31.3449 91.6088 31.7826C91.6088 32.2203 91.6976 32.5994 91.8753 32.9201C92.053 33.2408 92.2956 33.4899 92.6033 33.6676C92.9153 33.8409 93.2685 33.9276 93.6628 33.9276Z" fill="#4B5563"/>
<path d="M98.7197 35.0001V28.5651H100.15V29.3841C100.418 29.0244 100.73 28.7666 101.086 28.6106C101.441 28.4503 101.809 28.3701 102.191 28.3701C102.78 28.3701 103.268 28.4871 103.653 28.7211C104.039 28.9551 104.325 29.2563 104.511 29.6246C104.702 29.9929 104.797 30.3721 104.797 30.7621V35.0001H103.367V31.2041C103.367 30.7448 103.229 30.3764 102.951 30.0991C102.678 29.8218 102.297 29.6831 101.807 29.6831C101.487 29.6831 101.201 29.7546 100.949 29.8976C100.702 30.0406 100.507 30.2399 100.364 30.4956C100.221 30.7469 100.15 31.0416 100.15 31.3796V35.0001H98.7197Z" fill="#4B5563"/>
<path d="M109.786 35.1951C109.092 35.1951 108.484 35.0543 107.959 34.7726C107.435 34.4866 107.025 34.0879 106.731 33.5766C106.44 33.0653 106.295 32.4716 106.295 31.7956C106.295 31.3016 106.38 30.8466 106.549 30.4306C106.718 30.0103 106.956 29.6463 107.264 29.3386C107.571 29.0309 107.931 28.7926 108.343 28.6236C108.759 28.4546 109.212 28.3701 109.701 28.3701C110.234 28.3701 110.709 28.4654 111.125 28.6561C111.541 28.8424 111.885 29.1046 112.158 29.4426C112.436 29.7806 112.631 30.1771 112.743 30.6321C112.86 31.0828 112.88 31.5724 112.802 32.1011H107.667C107.658 32.4868 107.743 32.8248 107.92 33.1151C108.098 33.4011 108.351 33.6243 108.681 33.7846C109.014 33.9449 109.407 34.0251 109.857 34.0251C110.221 34.0251 110.572 33.9709 110.91 33.8626C111.253 33.7499 111.562 33.5853 111.84 33.3686L112.392 34.3956C112.184 34.5646 111.933 34.7098 111.638 34.8311C111.344 34.9481 111.036 35.0369 110.715 35.0976C110.395 35.1626 110.085 35.1951 109.786 35.1951ZM107.751 31.0481H111.398C111.385 30.5628 111.229 30.1814 110.93 29.9041C110.635 29.6268 110.215 29.4881 109.669 29.4881C109.14 29.4881 108.7 29.6268 108.349 29.9041C108.003 30.1814 107.803 30.5628 107.751 31.0481Z" fill="#4B5563"/>
<path d="M114.417 35.0001V28.5651H115.847V29.3841C116.116 29.0244 116.428 28.7666 116.783 28.6106C117.139 28.4503 117.507 28.3701 117.888 28.3701C118.478 28.3701 118.965 28.4871 119.351 28.7211C119.736 28.9551 120.022 29.2563 120.209 29.6246C120.399 29.9929 120.495 30.3721 120.495 30.7621V35.0001H119.065V31.2041C119.065 30.7448 118.926 30.3764 118.649 30.0991C118.376 29.8218 117.994 29.6831 117.505 29.6831C117.184 29.6831 116.898 29.7546 116.647 29.8976C116.4 30.0406 116.205 30.2399 116.062 30.4956C115.919 30.7469 115.847 31.0416 115.847 31.3796V35.0001H114.417Z" fill="#4B5563"/>
<path d="M125.122 35.1951C124.494 35.1951 123.991 35.0131 123.614 34.6491C123.237 34.2851 123.049 33.7283 123.049 32.9786V26.6866H124.479V28.5651H126.266V29.7481H124.479V32.6666C124.479 33.1173 124.563 33.4358 124.732 33.6221C124.906 33.8041 125.148 33.8951 125.46 33.8951C125.612 33.8951 125.755 33.8778 125.889 33.8431C126.024 33.8084 126.145 33.7629 126.253 33.7066L126.507 34.8636C126.32 34.9589 126.106 35.0369 125.863 35.0976C125.625 35.1626 125.378 35.1951 125.122 35.1951ZM121.638 29.7481V28.5651H123.237V29.7481H121.638Z" fill="#4B5563"/>
<path d="M131.451 35.0001V25.6401H132.881V35.0001H131.451Z" fill="#4B5563"/>
<path d="M134.996 35.0001V28.5651H136.426V35.0001H134.996ZM135.711 27.4146C135.455 27.4146 135.234 27.3323 135.048 27.1676C134.861 27.0029 134.768 26.7863 134.768 26.5176C134.768 26.2533 134.861 26.0388 135.048 25.8741C135.234 25.7051 135.455 25.6206 135.711 25.6206C135.966 25.6206 136.187 25.7051 136.374 25.8741C136.56 26.0388 136.653 26.2533 136.653 26.5176C136.653 26.7863 136.56 27.0029 136.374 27.1676C136.187 27.3323 135.966 27.4146 135.711 27.4146Z" fill="#4B5563"/>
<path d="M142.285 35.1951C141.856 35.1951 141.468 35.1323 141.121 35.0066C140.779 34.8809 140.482 34.7076 140.231 34.4866C139.979 34.2613 139.776 34.0034 139.62 33.7131L139.828 33.3946V35.0001H138.541V25.6401H139.964V30.0471L139.672 29.7286C139.958 29.3126 140.315 28.9833 140.744 28.7406C141.173 28.4936 141.68 28.3701 142.265 28.3701C142.907 28.3701 143.47 28.5239 143.955 28.8316C144.445 29.1349 144.826 29.5444 145.099 30.0601C145.372 30.5758 145.509 31.1499 145.509 31.7826C145.509 32.2723 145.429 32.7251 145.268 33.1411C145.112 33.5571 144.891 33.9189 144.605 34.2266C144.319 34.5299 143.979 34.7683 143.585 34.9416C143.19 35.1106 142.757 35.1951 142.285 35.1951ZM142.025 33.9276C142.419 33.9276 142.77 33.8409 143.078 33.6676C143.39 33.4899 143.635 33.2408 143.812 32.9201C143.99 32.5994 144.079 32.2203 144.079 31.7826C144.079 31.3449 143.99 30.9658 143.812 30.6451C143.639 30.3201 143.396 30.0709 143.084 29.8976C142.777 29.7243 142.423 29.6376 142.025 29.6376C141.626 29.6376 141.271 29.7243 140.959 29.8976C140.651 30.0709 140.408 30.3201 140.231 30.6451C140.053 30.9658 139.964 31.3449 139.964 31.7826C139.964 32.2203 140.053 32.5994 140.231 32.9201C140.408 33.2408 140.651 33.4899 140.959 33.6676C141.271 33.8409 141.626 33.9276 142.025 33.9276Z" fill="#4B5563"/>
<path d="M147.075 35.0001V28.5651H148.505V29.4556C148.748 29.0526 149.042 28.7709 149.389 28.6106C149.736 28.4459 150.108 28.3636 150.507 28.3636C150.637 28.3636 150.761 28.3701 150.878 28.3831C150.995 28.3961 151.107 28.4156 151.216 28.4416L151.027 29.9171C150.897 29.8781 150.765 29.8478 150.631 29.8261C150.496 29.8044 150.362 29.7936 150.228 29.7936C149.729 29.7936 149.318 29.9474 148.993 30.2551C148.668 30.5584 148.505 30.9723 148.505 31.4966V35.0001H147.075Z" fill="#4B5563"/>
<path d="M154.325 35.1951C153.878 35.1951 153.486 35.1128 153.148 34.9481C152.81 34.7791 152.546 34.5429 152.355 34.2396C152.169 33.9319 152.076 33.5701 152.076 33.1541C152.076 32.8031 152.164 32.4868 152.342 32.2051C152.52 31.9191 152.795 31.6829 153.168 31.4966C153.545 31.3103 154.028 31.1868 154.617 31.1261C155.206 31.0611 155.915 31.0698 156.743 31.1521L156.769 32.1401C156.179 32.0578 155.672 32.0231 155.248 32.0361C154.823 32.0491 154.474 32.1033 154.201 32.1986C153.932 32.2896 153.733 32.4131 153.603 32.5691C153.477 32.7208 153.415 32.8963 153.415 33.0956C153.415 33.4076 153.525 33.6481 153.746 33.8171C153.971 33.9861 154.279 34.0706 154.669 34.0706C155.003 34.0706 155.302 34.0099 155.566 33.8886C155.83 33.7673 156.038 33.5961 156.19 33.3751C156.346 33.1541 156.424 32.8941 156.424 32.5951V30.8856C156.424 30.5996 156.363 30.3526 156.242 30.1446C156.121 29.9323 155.937 29.7676 155.69 29.6506C155.443 29.5336 155.135 29.4751 154.767 29.4751C154.429 29.4751 154.095 29.5271 153.766 29.6311C153.436 29.7308 153.122 29.8889 152.823 30.1056L152.42 29.0526C152.823 28.7796 153.243 28.5868 153.681 28.4741C154.119 28.3614 154.539 28.3051 154.942 28.3051C155.54 28.3051 156.051 28.4004 156.476 28.5911C156.905 28.7774 157.234 29.0613 157.464 29.4426C157.694 29.8196 157.809 30.2963 157.809 30.8726V35.0001H156.522V34.2396C156.305 34.5473 156.004 34.7834 155.618 34.9481C155.232 35.1128 154.801 35.1951 154.325 35.1951Z" fill="#4B5563"/>
<path d="M159.84 35.0001V28.5651H161.27V29.4556C161.513 29.0526 161.807 28.7709 162.154 28.6106C162.501 28.4459 162.873 28.3636 163.272 28.3636C163.402 28.3636 163.526 28.3701 163.643 28.3831C163.76 28.3961 163.872 28.4156 163.981 28.4416L163.792 29.9171C163.662 29.8781 163.53 29.8478 163.396 29.8261C163.261 29.8044 163.127 29.7936 162.993 29.7936C162.494 29.7936 162.083 29.9474 161.758 30.2551C161.433 30.5584 161.27 30.9723 161.27 31.4966V35.0001H159.84Z" fill="#4B5563"/>
<path d="M166.032 37.9121C165.798 37.9121 165.569 37.8861 165.343 37.8341C165.118 37.7821 164.897 37.6933 164.68 37.5676L165.005 36.3456C165.14 36.4323 165.287 36.4973 165.447 36.5406C165.608 36.5839 165.751 36.6056 165.876 36.6056C166.18 36.6056 166.418 36.5341 166.591 36.3911C166.765 36.2481 166.901 36.0271 167.001 35.7281L167.215 35.1041L164.68 28.5651H166.247L168.028 33.5571L169.763 28.5651H171.278L168.496 35.9296C168.296 36.4453 168.073 36.8461 167.826 37.1321C167.579 37.4224 167.306 37.6239 167.007 37.7366C166.708 37.8536 166.383 37.9121 166.032 37.9121Z" fill="#4B5563"/>
<path d="M59.8802 20.36C58.6402 20.36 57.4362 20.18 56.2682 19.82C55.1002 19.46 54.1122 18.936 53.3042 18.248L54.9962 15.584C55.3642 15.952 55.8162 16.268 56.3522 16.532C56.8962 16.796 57.4722 17 58.0802 17.144C58.6962 17.28 59.3002 17.348 59.8922 17.348C60.8042 17.348 61.5442 17.188 62.1122 16.868C62.6802 16.548 62.9642 16.08 62.9642 15.464C62.9642 14.968 62.7642 14.556 62.3642 14.228C61.9642 13.892 61.2202 13.572 60.1322 13.268L58.5962 12.836C56.9082 12.364 55.6922 11.724 54.9482 10.916C54.2042 10.108 53.8322 9.12797 53.8322 7.97597C53.8322 7.22397 53.9882 6.53597 54.3002 5.91197C54.6122 5.28797 55.0482 4.74797 55.6082 4.29197C56.1762 3.83597 56.8442 3.48397 57.6122 3.23597C58.3882 2.97997 59.2282 2.85197 60.1322 2.85197C61.3562 2.85197 62.4922 3.03197 63.5402 3.39197C64.5962 3.74397 65.4522 4.22797 66.1082 4.84397L64.3562 7.42397C64.0362 7.10397 63.6482 6.82797 63.1922 6.59597C62.7442 6.36397 62.2562 6.18397 61.7282 6.05597C61.2002 5.91997 60.6682 5.85197 60.1322 5.85197C59.5562 5.85197 59.0482 5.93197 58.6082 6.09197C58.1762 6.24397 57.8402 6.46797 57.6002 6.76397C57.3602 7.05197 57.2402 7.39997 57.2402 7.80797C57.2402 8.11997 57.3242 8.38797 57.4922 8.61197C57.6682 8.82797 57.9602 9.03197 58.3682 9.22397C58.7842 9.41597 59.3522 9.61597 60.0722 9.82397L61.6562 10.292C63.3202 10.78 64.5282 11.4 65.2802 12.152C66.0322 12.904 66.4082 13.88 66.4082 15.08C66.4082 16.12 66.1442 17.04 65.6162 17.84C65.0962 18.632 64.3442 19.252 63.3602 19.7C62.3842 20.14 61.2242 20.36 59.8802 20.36Z" fill="#1F2937"/>
<path d="M68.4306 20V7.87997H71.9346V9.24797C72.3986 8.63997 72.9466 8.19997 73.5786 7.92797C74.2186 7.65597 74.8866 7.51997 75.5826 7.51997C76.7106 7.51997 77.6386 7.74397 78.3666 8.19197C79.1026 8.63197 79.6466 9.20397 79.9986 9.90797C80.3586 10.612 80.5386 11.352 80.5386 12.128V20H77.0346V13.22C77.0346 12.452 76.8186 11.84 76.3866 11.384C75.9626 10.928 75.3466 10.7 74.5386 10.7C74.0266 10.7 73.5746 10.816 73.1826 11.048C72.7906 11.272 72.4826 11.588 72.2586 11.996C72.0426 12.404 71.9346 12.876 71.9346 13.412V20H68.4306Z" fill="#1F2937"/>
<path d="M88.929 20.36C87.625 20.36 86.469 20.068 85.461 19.484C84.453 18.9 83.661 18.124 83.085 17.156C82.517 16.18 82.233 15.108 82.233 13.94C82.233 13.084 82.397 12.272 82.725 11.504C83.053 10.728 83.517 10.044 84.117 9.45197C84.717 8.85197 85.425 8.37997 86.241 8.03597C87.057 7.69197 87.953 7.51997 88.929 7.51997C90.233 7.51997 91.385 7.81197 92.385 8.39597C93.393 8.97997 94.181 9.75997 94.749 10.736C95.325 11.704 95.613 12.772 95.613 13.94C95.613 14.788 95.449 15.6 95.121 16.376C94.793 17.152 94.329 17.84 93.729 18.44C93.137 19.032 92.433 19.5 91.617 19.844C90.801 20.188 89.905 20.36 88.929 20.36ZM88.929 17.324C89.545 17.324 90.097 17.188 90.585 16.916C91.073 16.636 91.457 16.244 91.737 15.74C92.017 15.228 92.157 14.628 92.157 13.94C92.157 13.244 92.017 12.644 91.737 12.14C91.465 11.636 91.085 11.248 90.597 10.976C90.109 10.696 89.553 10.556 88.929 10.556C88.305 10.556 87.745 10.696 87.249 10.976C86.761 11.248 86.377 11.636 86.097 12.14C85.825 12.644 85.689 13.244 85.689 13.94C85.689 14.636 85.829 15.236 86.109 15.74C86.389 16.244 86.773 16.636 87.261 16.916C87.749 17.188 88.305 17.324 88.929 17.324Z" fill="#1F2937"/>
<path d="M99.5209 20L95.8369 7.87997H99.2569L101.417 15.968L103.865 7.87997H107.141L109.481 15.968L111.641 7.87997H114.917L111.233 20H107.717L105.437 12.2L103.037 20H99.5209Z" fill="#1F2937"/>
<path d="M118.054 25.364C117.542 25.364 117.038 25.312 116.542 25.208C116.046 25.104 115.578 24.932 115.138 24.692L115.894 21.74C116.15 21.884 116.43 21.996 116.734 22.076C117.046 22.156 117.334 22.196 117.598 22.196C118.078 22.196 118.474 22.092 118.786 21.884C119.098 21.676 119.33 21.336 119.482 20.864L119.734 20.096L115.006 7.87997H118.81L121.714 16.544L124.534 7.87997H128.242L123.154 21.38C122.754 22.388 122.294 23.18 121.774 23.756C121.254 24.34 120.682 24.752 120.058 24.992C119.434 25.24 118.766 25.364 118.054 25.364Z" fill="#1F2937"/>
<path d="M137.696 20.36C136.416 20.36 135.232 20.14 134.144 19.7C133.056 19.252 132.112 18.632 131.312 17.84C130.512 17.048 129.888 16.12 129.44 15.056C129 13.992 128.78 12.84 128.78 11.6C128.78 10.352 129 9.19597 129.44 8.13197C129.888 7.06797 130.512 6.13997 131.312 5.34797C132.112 4.55597 133.056 3.93997 134.144 3.49997C135.232 3.05997 136.416 2.83997 137.696 2.83997C138.976 2.83997 140.156 3.06397 141.236 3.51197C142.324 3.95997 143.268 4.58397 144.068 5.38397C144.876 6.18397 145.504 7.11597 145.952 8.17997C146.4 9.23597 146.624 10.376 146.624 11.6C146.624 12.84 146.4 13.992 145.952 15.056C145.504 16.12 144.876 17.048 144.068 17.84C143.268 18.632 142.324 19.252 141.236 19.7C140.156 20.14 138.976 20.36 137.696 20.36ZM137.696 17.024C138.44 17.024 139.128 16.896 139.76 16.64C140.392 16.384 140.944 16.02 141.416 15.548C141.888 15.068 142.252 14.496 142.508 13.832C142.772 13.168 142.904 12.424 142.904 11.6C142.904 10.504 142.676 9.55197 142.22 8.74397C141.764 7.92797 141.144 7.29597 140.36 6.84797C139.576 6.39997 138.688 6.17597 137.696 6.17597C136.96 6.17597 136.272 6.30397 135.632 6.55997C135 6.81597 134.448 7.17997 133.976 7.65197C133.512 8.12397 133.148 8.69597 132.884 9.36797C132.628 10.032 132.5 10.776 132.5 11.6C132.5 12.696 132.728 13.652 133.184 14.468C133.64 15.276 134.26 15.904 135.044 16.352C135.828 16.8 136.712 17.024 137.696 17.024Z" fill="#1F2937"/>
<path d="M150.947 20L147.263 7.87997H150.683L152.843 15.968L155.291 7.87997H158.567L160.907 15.968L163.067 7.87997H166.343L162.659 20H159.143L156.863 12.2L154.463 20H150.947Z" fill="#1F2937"/>
<path d="M167.698 20V2.71997H171.202V20H167.698Z" fill="#1F2937"/>
</svg>
